<?xml version="1.0" encoding="UTF-8" standalone="no"?>
<!DOCTYPE svg PUBLIC "-//W3C//DTD SVG 1.1//EN"
 "http://www.w3.org/Graphics/SVG/1.1/DTD/svg11.dtd">
<!-- Generated by graphviz version 2.40.1 (0)
 -->
<!-- Title: G Pages: 1 -->
<svg width="594pt" height="674pt"
 viewBox="0.00 0.00 593.69 674.36" xmlns="http://www.w3.org/2000/svg" xmlns:xlink="http://www.w3.org/1999/xlink">
<g id="graph0" class="graph" transform="scale(1 1) rotate(0) translate(4 670.3625)">
<title>G</title>
<polygon fill="#ffffff" stroke="transparent" points="-4,4 -4,-670.3625 589.6934,-670.3625 589.6934,4 -4,4"/>
<!-- n1 -->
<g id="node1" class="node">
<title>n1</title>
<ellipse fill="none" stroke="#000000" cx="274.3467" cy="-614.7559" rx="25" ry="10.7143"/>
<text text-anchor="middle" x="274.3467" y="-611.0559" font-family="Times,serif" font-size="14.00" fill="#000000">N:Ω̃₀</text>
</g>
<!-- n4 -->
<g id="node4" class="node">
<title>n4</title>
<ellipse fill="none" stroke="#000000" cx="343.3467" cy="-51.6066" rx="57.9655" ry="10.7143"/>
<text text-anchor="middle" x="343.3467" y="-47.9066" font-family="Times,serif" font-size="14.00" fill="#000000">phyto_ṅ:Ω•</text>
</g>
<!-- n1&#45;&gt;n4 -->
<g id="edge7" class="edge">
<title>n1&#45;&gt;n4</title>
<path fill="none" stroke="#000000" d="M282.2324,-604.4614C286.124,-599.1461 290.7437,-592.4657 294.3467,-586.1493 302.3293,-572.1552 304.291,-568.4462 309.3467,-553.1493 331.9065,-484.8904 343.3467,-466.9 343.3467,-395.0097 343.3467,-395.0097 343.3467,-395.0097 343.3467,-126.6482 343.3467,-106.2267 343.3467,-82.6792 343.3467,-67.4902"/>
<polygon fill="#000000" stroke="#000000" points="345.0968,-67.2936 343.3467,-62.2937 341.5968,-67.2937 345.0968,-67.2936"/>
<text text-anchor="middle" x="349.3467" y="-322.2031" font-family="Times,serif" font-size="14.00" fill="#000000">∂ₜ</text>
</g>
<!-- n10 -->
<g id="node10" class="node">
<title>n10</title>
<ellipse fill="none" stroke="#000000" cx="64.3467" cy="-509.5427" rx="64.1938" ry="10.7143"/>
<text text-anchor="middle" x="64.3467" y="-505.8427" font-family="Times,serif" font-size="14.00" fill="#000000">phyto_•6:Ω•</text>
</g>
<!-- n1&#45;&gt;n10 -->
<g id="edge8" class="edge">
<title>n1&#45;&gt;n10</title>
<path fill="none" stroke="#000000" d="M254.9067,-608.1187C250.4765,-606.715 245.7708,-605.309 241.3467,-604.1493 202.7306,-594.0264 189.1845,-603.7372 153.3467,-586.1493 121.8691,-570.7012 92.5152,-541.4322 76.6397,-523.8862"/>
<polygon fill="#000000" stroke="#000000" points="77.9097,-522.681 73.2738,-520.1174 75.2991,-525.0124 77.9097,-522.681"/>
<text text-anchor="middle" x="158.8467" y="-574.9493" font-family="Times,serif" font-size="14.00" fill="#000000">Δ</text>
</g>
<!-- n15 -->
<g id="node15" class="node">
<title>n15</title>
<polygon fill="none" stroke="#000000" points="300.3467,-553.1493 248.3467,-553.1493 248.3467,-538.1493 300.3467,-538.1493 300.3467,-553.1493"/>
<text text-anchor="middle" x="274.3467" y="-541.9493" font-family="Times,serif" font-size="14.00" fill="#000000">Ω̃₀×ΩL</text>
</g>
<!-- n1&#45;&gt;n15 -->
<g id="edge10" class="edge">
<title>n1&#45;&gt;n15</title>
<path fill="none" stroke="#000000" stroke-dasharray="5,2" d="M274.3467,-603.958C274.3467,-591.6015 274.3467,-571.3896 274.3467,-558.3044"/>
<polygon fill="#000000" stroke="#000000" points="276.0968,-558.1764 274.3467,-553.1764 272.5968,-558.1765 276.0968,-558.1764"/>
<text text-anchor="middle" x="282.3467" y="-574.9493" font-family="Times,serif" font-size="14.00" fill="#000000">π₁</text>
</g>
<!-- n17 -->
<g id="node17" class="node">
<title>n17</title>
<polygon fill="none" stroke="#000000" points="195.3467,-553.1493 141.3467,-553.1493 141.3467,-538.1493 195.3467,-538.1493 195.3467,-553.1493"/>
<text text-anchor="middle" x="168.3467" y="-541.9493" font-family="Times,serif" font-size="14.00" fill="#000000">ΩC×Ω̃₀</text>
</g>
<!-- n1&#45;&gt;n17 -->
<g id="edge17" class="edge">
<title>n1&#45;&gt;n17</title>
<path fill="none" stroke="#000000" stroke-dasharray="5,2" d="M260.4891,-605.7214C240.8722,-592.9322 205.0912,-569.6048 184.3619,-556.0903"/>
<polygon fill="#000000" stroke="#000000" points="185.0746,-554.466 179.9304,-553.2012 183.1631,-557.3979 185.0746,-554.466"/>
<text text-anchor="middle" x="236.3467" y="-574.9493" font-family="Times,serif" font-size="14.00" fill="#000000">π₂</text>
</g>
<!-- n2 -->
<g id="node2" class="node">
<title>n2</title>
<ellipse fill="none" stroke="#000000" cx="412.3467" cy="-614.7559" rx="26.3269" ry="10.7143"/>
<text text-anchor="middle" x="412.3467" y="-611.0559" font-family="Times,serif" font-size="14.00" fill="#000000">W:Ω̃₀</text>
</g>
<!-- n12 -->
<g id="node12" class="node">
<title>n12</title>
<ellipse fill="none" stroke="#000000" cx="462.3467" cy="-470.3295" rx="60.623" ry="10.7143"/>
<text text-anchor="middle" x="462.3467" y="-466.6295" font-family="Times,serif" font-size="14.00" fill="#000000">hydro_ẇ:Ω•</text>
</g>
<!-- n2&#45;&gt;n12 -->
<g id="edge9" class="edge">
<title>n2&#45;&gt;n12</title>
<path fill="none" stroke="#000000" d="M413.8953,-604.1312C416.2611,-589.138 421.3601,-561.0458 429.3467,-538.1493 435.8762,-519.43 446.2253,-499.1303 453.592,-485.6675"/>
<polygon fill="#000000" stroke="#000000" points="455.2674,-486.2543 456.1585,-481.0324 452.2054,-484.5589 455.2674,-486.2543"/>
<text text-anchor="middle" x="435.3467" y="-541.9493" font-family="Times,serif" font-size="14.00" fill="#000000">∂ₜ</text>
</g>
<!-- n16 -->
<g id="node16" class="node">
<title>n16</title>
<polygon fill="none" stroke="#000000" points="268.8467,-402.5097 217.8467,-402.5097 217.8467,-387.5097 268.8467,-387.5097 268.8467,-402.5097"/>
<text text-anchor="middle" x="243.3467" y="-391.3097" font-family="Times,serif" font-size="14.00" fill="#000000">Ω̃₀×Ω•</text>
</g>
<!-- n2&#45;&gt;n16 -->
<g id="edge13" class="edge">
<title>n2&#45;&gt;n16</title>
<path fill="none" stroke="#000000" stroke-dasharray="5,2" d="M407.2227,-604.2789C394.209,-578.2376 357.95,-509.1193 316.3467,-459.7229 298.3958,-438.4093 273.3653,-417.7616 257.7703,-405.7276"/>
<polygon fill="#000000" stroke="#000000" points="258.6711,-404.2136 253.6356,-402.5685 256.5461,-406.9947 258.6711,-404.2136"/>
<text text-anchor="middle" x="366.3467" y="-505.8427" font-family="Times,serif" font-size="14.00" fill="#000000">π₁</text>
</g>
<!-- n19 -->
<g id="node19" class="node">
<title>n19</title>
<polygon fill="none" stroke="#000000" points="498.8467,-553.1493 449.8467,-553.1493 449.8467,-538.1493 498.8467,-538.1493 498.8467,-553.1493"/>
<text text-anchor="middle" x="474.3467" y="-541.9493" font-family="Times,serif" font-size="14.00" fill="#000000">Ω₁×Ω̃₀</text>
</g>
<!-- n2&#45;&gt;n19 -->
<g id="edge23" class="edge">
<title>n2&#45;&gt;n19</title>
<path fill="none" stroke="#000000" stroke-dasharray="5,2" d="M421.495,-604.559C432.8508,-591.9015 452.1662,-570.3721 464.0359,-557.1419"/>
<polygon fill="#000000" stroke="#000000" points="465.4271,-558.2118 467.4636,-553.3214 462.8219,-555.8745 465.4271,-558.2118"/>
<text text-anchor="middle" x="458.3467" y="-574.9493" font-family="Times,serif" font-size="14.00" fill="#000000">π₂</text>
</g>
<!-- n3 -->
<g id="node3" class="node">
<title>n3</title>
<ellipse fill="none" stroke="#000000" cx="168.3467" cy="-614.7559" rx="63.7795" ry="10.7143"/>
<text text-anchor="middle" x="168.3467" y="-611.0559" font-family="Times,serif" font-size="14.00" fill="#000000">phyto_m:ΩC</text>
</g>
<!-- n3&#45;&gt;n17 -->
<g id="edge16" class="edge">
<title>n3&#45;&gt;n17</title>
<path fill="none" stroke="#000000" stroke-dasharray="5,2" d="M168.3467,-603.958C168.3467,-591.6015 168.3467,-571.3896 168.3467,-558.3044"/>
<polygon fill="#000000" stroke="#000000" points="170.0968,-558.1764 168.3467,-553.1764 166.5968,-558.1765 170.0968,-558.1764"/>
<text text-anchor="middle" x="176.3467" y="-574.9493" font-family="Times,serif" font-size="14.00" fill="#000000">π₁</text>
</g>
<!-- n14 -->
<g id="node14" class="node">
<title>n14</title>
</g>
<!-- n4&#45;&gt;n14 -->
<g id="edge5" class="edge">
<title>n4&#45;&gt;n14</title>
<path fill="none" stroke="#000000" d="M355.8591,-41.0863C368.1845,-30.7233 386.5114,-15.3142 396.0552,-7.2899"/>
<polygon fill="#000000" stroke="#000000" points="397.2691,-8.5556 399.97,-3.9984 395.0167,-5.8766 397.2691,-8.5556"/>
</g>
<!-- n5 -->
<g id="node5" class="node">
<title>n5</title>
<ellipse fill="none" stroke="#000000" cx="201.3467" cy="-187.6899" rx="64.1938" ry="10.7143"/>
<text text-anchor="middle" x="201.3467" y="-183.9899" font-family="Times,serif" font-size="14.00" fill="#000000">phyto_•2:Ω•</text>
</g>
<!-- n20 -->
<g id="node20" class="node">
<title>n20</title>
<ellipse fill="none" stroke="#000000" cx="201.3467" cy="-126.6482" rx="13.3704" ry="13.3704"/>
<text text-anchor="middle" x="201.3467" y="-122.9482" font-family="Times,serif" font-size="14.00" fill="#000000">Σ1</text>
</g>
<!-- n5&#45;&gt;n20 -->
<g id="edge26" class="edge">
<title>n5&#45;&gt;n20</title>
<path fill="none" stroke="#000000" stroke-dasharray="5,2" d="M201.3467,-177.0572C201.3467,-168.331 201.3467,-155.7628 201.3467,-145.3593"/>
<polygon fill="#000000" stroke="#000000" points="203.0968,-145.148 201.3467,-140.148 199.5968,-145.1481 203.0968,-145.148"/>
</g>
<!-- n6 -->
<g id="node6" class="node">
<title>n6</title>
<ellipse fill="none" stroke="#000000" cx="243.3467" cy="-325.9031" rx="64.1938" ry="10.7143"/>
<text text-anchor="middle" x="243.3467" y="-322.2031" font-family="Times,serif" font-size="14.00" fill="#000000">phyto_•3:Ω•</text>
</g>
<!-- n18 -->
<g id="node18" class="node">
<title>n18</title>
<polygon fill="none" stroke="#000000" points="227.8467,-264.2965 174.8467,-264.2965 174.8467,-249.2965 227.8467,-249.2965 227.8467,-264.2965"/>
<text text-anchor="middle" x="201.3467" y="-253.0965" font-family="Times,serif" font-size="14.00" fill="#000000">Ω•×Ω•</text>
</g>
<!-- n6&#45;&gt;n18 -->
<g id="edge19" class="edge">
<title>n6&#45;&gt;n18</title>
<path fill="none" stroke="#000000" stroke-dasharray="5,2" d="M236.7842,-315.1052C229.1404,-302.5281 216.5503,-281.8124 208.6161,-268.7575"/>
<polygon fill="#000000" stroke="#000000" points="210.0137,-267.6875 205.9214,-264.3236 207.0228,-269.5053 210.0137,-267.6875"/>
<text text-anchor="middle" x="233.3467" y="-286.0965" font-family="Times,serif" font-size="14.00" fill="#000000">π₁</text>
</g>
<!-- n7 -->
<g id="node7" class="node">
<title>n7</title>
<ellipse fill="none" stroke="#000000" cx="243.3467" cy="-470.3295" rx="64.1938" ry="10.7143"/>
<text text-anchor="middle" x="243.3467" y="-466.6295" font-family="Times,serif" font-size="14.00" fill="#000000">phyto_•4:Ω•</text>
</g>
<!-- n7&#45;&gt;n16 -->
<g id="edge14" class="edge">
<title>n7&#45;&gt;n16</title>
<path fill="none" stroke="#000000" stroke-dasharray="5,2" d="M243.3467,-459.538C243.3467,-445.8921 243.3467,-422.4259 243.3467,-407.8664"/>
<polygon fill="#000000" stroke="#000000" points="245.0968,-407.583 243.3467,-402.583 241.5968,-407.583 245.0968,-407.583"/>
<text text-anchor="middle" x="251.3467" y="-427.4163" font-family="Times,serif" font-size="14.00" fill="#000000">π₂</text>
</g>
<!-- n8 -->
<g id="node8" class="node">
<title>n8</title>
<ellipse fill="none" stroke="#000000" cx="342.3467" cy="-614.7559" rx="25.4118" ry="10.7143"/>
<text text-anchor="middle" x="342.3467" y="-611.0559" font-family="Times,serif" font-size="14.00" fill="#000000">2:ΩL</text>
</g>
<!-- n8&#45;&gt;n15 -->
<g id="edge11" class="edge">
<title>n8&#45;&gt;n15</title>
<path fill="none" stroke="#000000" stroke-dasharray="5,2" d="M332.604,-604.8546C320.2234,-592.2726 298.8892,-570.5911 285.7599,-557.2482"/>
<polygon fill="#000000" stroke="#000000" points="286.722,-555.7309 281.9677,-553.3943 284.2272,-558.1857 286.722,-555.7309"/>
<text text-anchor="middle" x="320.3467" y="-574.9493" font-family="Times,serif" font-size="14.00" fill="#000000">π₂</text>
</g>
<!-- n9 -->
<g id="node9" class="node">
<title>n9</title>
<ellipse fill="none" stroke="#000000" cx="151.3467" cy="-431.1163" rx="64.1938" ry="10.7143"/>
<text text-anchor="middle" x="151.3467" y="-427.4163" font-family="Times,serif" font-size="14.00" fill="#000000">phyto_•5:Ω•</text>
</g>
<!-- n9&#45;&gt;n18 -->
<g id="edge20" class="edge">
<title>n9&#45;&gt;n18</title>
<path fill="none" stroke="#000000" stroke-dasharray="5,2" d="M151.9513,-420.2969C153.3681,-399.4685 157.7915,-352.5648 170.3467,-315.2965 176.0621,-298.3312 186.2976,-280.3555 193.4377,-268.8786"/>
<polygon fill="#000000" stroke="#000000" points="195.0899,-269.5403 196.286,-264.3797 192.1327,-267.6681 195.0899,-269.5403"/>
<text text-anchor="middle" x="168.3467" y="-358.3097" font-family="Times,serif" font-size="14.00" fill="#000000">π₂</text>
</g>
<!-- n10&#45;&gt;n20 -->
<g id="edge27" class="edge">
<title>n10&#45;&gt;n20</title>
<path fill="none" stroke="#000000" stroke-dasharray="5,2" d="M65.2344,-498.8959C66.4129,-483.8202 68.3467,-455.3837 68.3467,-431.1163 68.3467,-431.1163 68.3467,-431.1163 68.3467,-187.6899 68.3467,-162.7483 146.5826,-140.1584 183.0455,-130.9844"/>
<polygon fill="#000000" stroke="#000000" points="183.6759,-132.6312 188.1079,-129.7296 182.8337,-129.2341 183.6759,-132.6312"/>
</g>
<!-- n11 -->
<g id="node11" class="node">
<title>n11</title>
<ellipse fill="none" stroke="#000000" cx="521.3467" cy="-614.7559" rx="64.1938" ry="10.7143"/>
<text text-anchor="middle" x="521.3467" y="-611.0559" font-family="Times,serif" font-size="14.00" fill="#000000">hydro_dX:Ω₁</text>
</g>
<!-- n11&#45;&gt;n19 -->
<g id="edge22" class="edge">
<title>n11&#45;&gt;n19</title>
<path fill="none" stroke="#000000" stroke-dasharray="5,2" d="M514.003,-603.958C505.4492,-591.3809 491.3603,-570.6652 482.4815,-557.6103"/>
<polygon fill="#000000" stroke="#000000" points="483.725,-556.3267 479.466,-553.1764 480.8309,-558.2951 483.725,-556.3267"/>
<text text-anchor="middle" x="508.3467" y="-574.9493" font-family="Times,serif" font-size="14.00" fill="#000000">π₁</text>
</g>
<!-- n12&#45;&gt;n14 -->
<g id="edge6" class="edge">
<title>n12&#45;&gt;n14</title>
<path fill="none" stroke="#000000" d="M458.318,-459.5255C453.2908,-445.052 445.3467,-418.4689 445.3467,-395.0097 445.3467,-395.0097 445.3467,-395.0097 445.3467,-51.6066 445.3467,-29.6648 421.0291,-12.6703 408.9683,-5.5909"/>
<polygon fill="#000000" stroke="#000000" points="409.6398,-3.9616 404.4207,-3.0537 407.9345,-7.0181 409.6398,-3.9616"/>
</g>
<!-- n13 -->
<g id="node13" class="node">
<title>n13</title>
</g>
<!-- n13&#45;&gt;n1 -->
<g id="edge1" class="edge">
<title>n13&#45;&gt;n1</title>
<path fill="none" stroke="#000000" d="M312.628,-662.2309C308.0998,-656.6153 295.5374,-641.0359 286.0281,-629.2427"/>
<polygon fill="#000000" stroke="#000000" points="287.1842,-627.8885 282.6833,-625.0947 284.4596,-630.0854 287.1842,-627.8885"/>
</g>
<!-- n13&#45;&gt;n2 -->
<g id="edge2" class="edge">
<title>n13&#45;&gt;n2</title>
<path fill="none" stroke="#000000" d="M316.3936,-663.3264C325.8642,-658.5324 366.0427,-638.1945 391.3099,-625.4045"/>
<polygon fill="#000000" stroke="#000000" points="392.1729,-626.9292 395.8435,-623.1096 390.5921,-623.8064 392.1729,-626.9292"/>
</g>
<!-- n13&#45;&gt;n3 -->
<g id="edge3" class="edge">
<title>n13&#45;&gt;n3</title>
<path fill="none" stroke="#000000" d="M312.2828,-663.6612C300.4411,-659.6378 240.3093,-639.2067 201.6089,-626.0574"/>
<polygon fill="#000000" stroke="#000000" points="201.8293,-624.2841 196.5321,-624.3325 200.7033,-627.598 201.8293,-624.2841"/>
</g>
<!-- n13&#45;&gt;n11 -->
<g id="edge4" class="edge">
<title>n13&#45;&gt;n11</title>
<path fill="none" stroke="#000000" d="M316.6714,-663.8054C332.4519,-660.0237 424.8831,-637.8729 479.9907,-624.6667"/>
<polygon fill="#000000" stroke="#000000" points="480.4207,-626.3632 484.8752,-623.4961 479.605,-622.9596 480.4207,-626.3632"/>
</g>
<!-- n15&#45;&gt;n7 -->
<g id="edge12" class="edge">
<title>n15&#45;&gt;n7</title>
<path fill="none" stroke="#000000" d="M271.1459,-537.8724C266.099,-525.61 256.1965,-501.5503 249.6757,-485.7069"/>
<polygon fill="#000000" stroke="#000000" points="251.2911,-485.0336 247.7697,-481.0759 248.0545,-486.3657 251.2911,-485.0336"/>
<text text-anchor="middle" x="270.8467" y="-505.8427" font-family="Times,serif" font-size="14.00" fill="#000000">^</text>
</g>
<!-- n16&#45;&gt;n6 -->
<g id="edge15" class="edge">
<title>n16&#45;&gt;n6</title>
<path fill="none" stroke="#000000" d="M243.3467,-387.35C243.3467,-376.4296 243.3467,-356.13 243.3467,-341.859"/>
<polygon fill="#000000" stroke="#000000" points="245.0968,-341.5306 243.3467,-336.5306 241.5968,-341.5307 245.0968,-341.5306"/>
<text text-anchor="middle" x="247.3467" y="-358.3097" font-family="Times,serif" font-size="14.00" fill="#000000">*</text>
</g>
<!-- n17&#45;&gt;n9 -->
<g id="edge18" class="edge">
<title>n17&#45;&gt;n9</title>
<path fill="none" stroke="#000000" d="M167.2313,-538.1344C164.4866,-519.6426 157.3597,-471.627 153.6567,-446.6789"/>
<polygon fill="#000000" stroke="#000000" points="155.3865,-446.4132 152.9213,-441.7243 151.9244,-446.9271 155.3865,-446.4132"/>
<text text-anchor="middle" x="169.3467" y="-505.8427" font-family="Times,serif" font-size="14.00" fill="#000000">*</text>
</g>
<!-- n18&#45;&gt;n5 -->
<g id="edge21" class="edge">
<title>n18&#45;&gt;n5</title>
<path fill="none" stroke="#000000" d="M201.3467,-249.1368C201.3467,-238.2164 201.3467,-217.9168 201.3467,-203.6458"/>
<polygon fill="#000000" stroke="#000000" points="203.0968,-203.3174 201.3467,-198.3174 199.5968,-203.3175 203.0968,-203.3174"/>
<text text-anchor="middle" x="203.8467" y="-220.0965" font-family="Times,serif" font-size="14.00" fill="#000000">&#45;</text>
</g>
<!-- n19&#45;&gt;n12 -->
<g id="edge24" class="edge">
<title>n19&#45;&gt;n12</title>
<path fill="none" stroke="#000000" d="M473.1077,-537.8724C471.1709,-525.7157 467.3868,-501.9642 464.8622,-486.1185"/>
<polygon fill="#000000" stroke="#000000" points="466.5738,-485.7383 464.0589,-481.0759 463.1174,-486.289 466.5738,-485.7383"/>
<text text-anchor="middle" x="474.3467" y="-505.8427" font-family="Times,serif" font-size="14.00" fill="#000000">L</text>
</g>
<!-- n20&#45;&gt;n4 -->
<g id="edge25" class="edge">
<title>n20&#45;&gt;n4</title>
<path fill="none" stroke="#000000" d="M213.4536,-120.2502C236.8818,-107.8693 288.803,-80.4309 319.4335,-64.2438"/>
<polygon fill="#000000" stroke="#000000" points="320.556,-65.63 324.1591,-61.7466 318.9207,-62.5355 320.556,-65.63"/>
<text text-anchor="middle" x="291.8467" y="-84.0132" font-family="Times,serif" font-size="14.00" fill="#000000">+</text>
</g>
</g>
</svg>
