<?xml version="1.0" encoding="UTF-8" standalone="no"?>
<!DOCTYPE svg PUBLIC "-//W3C//DTD SVG 1.1//EN"
 "http://www.w3.org/Graphics/SVG/1.1/DTD/svg11.dtd">
<!-- Generated by graphviz version 2.43.0 (0)
 -->
<!-- Title: G Pages: 1 -->
<svg width="316pt" height="755pt"
 viewBox="0.00 0.00 315.62 754.92" xmlns="http://www.w3.org/2000/svg" xmlns:xlink="http://www.w3.org/1999/xlink">
<g id="graph0" class="graph" transform="scale(1 1) rotate(0) translate(4 750.92)">
<title>G</title>
<polygon fill="white" stroke="transparent" points="-4,4 -4,-750.92 311.62,-750.92 311.62,4 -4,4"/>
<!-- n1 -->
<g id="node1" class="node">
<title>n1</title>
<ellipse fill="none" stroke="black" cx="89.75" cy="-695.31" rx="22.76" ry="10.71"/>
<text text-anchor="middle" x="89.75" y="-691.61" font-family="Times,serif" font-size="14.00">C:Ω₀</text>
</g>
<!-- n4 -->
<g id="node4" class="node">
<title>n4</title>
<ellipse fill="none" stroke="black" cx="24.75" cy="-51.61" rx="25" ry="10.71"/>
<text text-anchor="middle" x="24.75" y="-47.91" font-family="Times,serif" font-size="14.00">Ċ:Ω•</text>
</g>
<!-- n1&#45;&gt;n4 -->
<g id="edge5" class="edge">
<title>n1&#45;&gt;n4</title>
<path fill="none" stroke="black" d="M73.36,-687.67C49.69,-676.86 8.75,-653.07 8.75,-617.89 8.75,-617.89 8.75,-617.89 8.75,-119.71 8.75,-101.32 14.51,-80.83 19.12,-67.4"/>
<polygon fill="black" stroke="black" points="20.85,-67.73 20.88,-62.44 17.56,-66.56 20.85,-67.73"/>
<text text-anchor="middle" x="14.75" y="-360.44" font-family="Times,serif" font-size="14.00">∂ₜ</text>
</g>
<!-- n5 -->
<g id="node5" class="node">
<title>n5</title>
<ellipse fill="none" stroke="black" cx="171.75" cy="-616.89" rx="29.9" ry="10.71"/>
<text text-anchor="middle" x="171.75" y="-613.19" font-family="Times,serif" font-size="14.00">•2:Ω•</text>
</g>
<!-- n1&#45;&gt;n5 -->
<g id="edge6" class="edge">
<title>n1&#45;&gt;n5</title>
<path fill="none" stroke="black" d="M95.63,-684.89C102.47,-674.43 114.52,-657.45 127.75,-645.49 134.73,-639.18 143.33,-633.43 151.07,-628.83"/>
<polygon fill="black" stroke="black" points="152.3,-630.14 155.75,-626.12 150.55,-627.11 152.3,-630.14"/>
<text text-anchor="middle" x="132.75" y="-652.4" font-family="Times,serif" font-size="14.00">Δ</text>
</g>
<!-- n14 -->
<g id="node14" class="node">
<title>n14</title>
<polygon fill="none" stroke="black" points="124.25,-624.39 75.25,-624.39 75.25,-609.39 124.25,-609.39 124.25,-624.39"/>
<text text-anchor="middle" x="99.75" y="-613.19" font-family="Times,serif" font-size="14.00">Ω₀×ΩL</text>
</g>
<!-- n1&#45;&gt;n14 -->
<g id="edge8" class="edge">
<title>n1&#45;&gt;n14</title>
<path fill="none" stroke="black" stroke-dasharray="5,2" d="M89.11,-684.51C88.66,-674.59 88.48,-658.87 90.75,-645.49 91.66,-640.09 93.42,-634.3 95.15,-629.42"/>
<polygon fill="black" stroke="black" points="96.86,-629.85 96.96,-624.55 93.58,-628.63 96.86,-629.85"/>
<text text-anchor="middle" x="98.25" y="-652.4" font-family="Times,serif" font-size="14.00">π₁</text>
</g>
<!-- n15 -->
<g id="node15" class="node">
<title>n15</title>
<polygon fill="none" stroke="black" points="129.25,-483.07 80.25,-483.07 80.25,-468.07 129.25,-468.07 129.25,-483.07"/>
<text text-anchor="middle" x="104.75" y="-471.87" font-family="Times,serif" font-size="14.00">Ω•×Ω₀</text>
</g>
<!-- n1&#45;&gt;n15 -->
<g id="edge12" class="edge">
<title>n1&#45;&gt;n15</title>
<path fill="none" stroke="black" stroke-dasharray="5,2" d="M85.07,-684.64C79.19,-671.9 69.43,-648.62 65.75,-627.49 58.63,-586.59 53.56,-573.76 65.75,-534.07 71.38,-515.74 85.04,-498.01 94.6,-487.2"/>
<polygon fill="black" stroke="black" points="96.1,-488.15 98.16,-483.27 93.51,-485.8 96.1,-488.15"/>
<text text-anchor="middle" x="67.25" y="-577.08" font-family="Times,serif" font-size="14.00">π₂</text>
</g>
<!-- n2 -->
<g id="node2" class="node">
<title>n2</title>
<ellipse fill="none" stroke="black" cx="280.75" cy="-656.1" rx="26.74" ry="10.71"/>
<text text-anchor="middle" x="280.75" y="-652.4" font-family="Times,serif" font-size="14.00">D:ΩC</text>
</g>
<!-- n18 -->
<g id="node18" class="node">
<title>n18</title>
<polygon fill="none" stroke="black" points="168.75,-128.21 114.75,-128.21 114.75,-113.21 168.75,-113.21 168.75,-128.21"/>
<text text-anchor="middle" x="141.75" y="-117.01" font-family="Times,serif" font-size="14.00">ΩC×Ω•</text>
</g>
<!-- n2&#45;&gt;n18 -->
<g id="edge20" class="edge">
<title>n2&#45;&gt;n18</title>
<path fill="none" stroke="black" stroke-dasharray="5,2" d="M280.75,-645.14C280.75,-631.03 280.75,-604.44 280.75,-581.78 280.75,-581.78 280.75,-581.78 280.75,-188.82 280.75,-141.66 215.07,-127.63 174.01,-123.46"/>
<polygon fill="black" stroke="black" points="174.02,-121.71 168.88,-122.98 173.69,-125.19 174.02,-121.71"/>
<text text-anchor="middle" x="288.25" y="-396.55" font-family="Times,serif" font-size="14.00">π₁</text>
</g>
<!-- n3 -->
<g id="node3" class="node">
<title>n3</title>
<ellipse fill="none" stroke="black" cx="223.75" cy="-656.1" rx="25" ry="10.71"/>
<text text-anchor="middle" x="223.75" y="-652.4" font-family="Times,serif" font-size="14.00">γ:ΩC</text>
</g>
<!-- n16 -->
<g id="node16" class="node">
<title>n16</title>
<polygon fill="none" stroke="black" points="206.75,-552.17 152.75,-552.17 152.75,-537.17 206.75,-537.17 206.75,-552.17"/>
<text text-anchor="middle" x="179.75" y="-540.97" font-family="Times,serif" font-size="14.00">ΩC×Ω•</text>
</g>
<!-- n3&#45;&gt;n16 -->
<g id="edge14" class="edge">
<title>n3&#45;&gt;n16</title>
<path fill="none" stroke="black" stroke-dasharray="5,2" d="M221.7,-645.2C219.49,-635.22 215.64,-619.43 210.75,-606.28 205.07,-591 202.2,-587.78 194.75,-573.28 191.98,-567.89 188.79,-561.99 186.07,-557.03"/>
<polygon fill="black" stroke="black" points="187.48,-555.96 183.54,-552.43 184.42,-557.66 187.48,-555.96"/>
<text text-anchor="middle" x="224.25" y="-613.19" font-family="Times,serif" font-size="14.00">π₁</text>
</g>
<!-- n13 -->
<g id="node13" class="node">
<title>n13</title>
</g>
<!-- n4&#45;&gt;n13 -->
<g id="edge4" class="edge">
<title>n4&#45;&gt;n13</title>
<path fill="none" stroke="black" d="M24.75,-40.97C24.75,-31.46 24.75,-17.21 24.75,-9.14"/>
<polygon fill="black" stroke="black" points="26.5,-9.06 24.75,-4.06 23,-9.06 26.5,-9.06"/>
</g>
<!-- n5&#45;&gt;n16 -->
<g id="edge15" class="edge">
<title>n5&#45;&gt;n16</title>
<path fill="none" stroke="black" stroke-dasharray="5,2" d="M172.86,-606.12C174.3,-593.46 176.82,-571.38 178.38,-557.7"/>
<polygon fill="black" stroke="black" points="180.15,-557.57 178.98,-552.4 176.68,-557.17 180.15,-557.57"/>
<text text-anchor="middle" x="183.25" y="-577.08" font-family="Times,serif" font-size="14.00">π₂</text>
</g>
<!-- n6 -->
<g id="node6" class="node">
<title>n6</title>
<ellipse fill="none" stroke="black" cx="141.75" cy="-189.82" rx="29.9" ry="10.71"/>
<text text-anchor="middle" x="141.75" y="-186.12" font-family="Times,serif" font-size="14.00">•3:Ω•</text>
</g>
<!-- n6&#45;&gt;n18 -->
<g id="edge21" class="edge">
<title>n6&#45;&gt;n18</title>
<path fill="none" stroke="black" stroke-dasharray="5,2" d="M141.75,-179.21C141.75,-167.15 141.75,-146.51 141.75,-133.51"/>
<polygon fill="black" stroke="black" points="143.5,-133.46 141.75,-128.46 140,-133.46 143.5,-133.46"/>
<text text-anchor="middle" x="149.25" y="-150.01" font-family="Times,serif" font-size="14.00">π₂</text>
</g>
<!-- n7 -->
<g id="node7" class="node">
<title>n7</title>
<ellipse fill="none" stroke="black" cx="141.75" cy="-262.03" rx="29.9" ry="10.71"/>
<text text-anchor="middle" x="141.75" y="-258.33" font-family="Times,serif" font-size="14.00">•4:Ω•</text>
</g>
<!-- n7&#45;&gt;n6 -->
<g id="edge7" class="edge">
<title>n7&#45;&gt;n6</title>
<path fill="none" stroke="black" d="M141.75,-251.27C141.75,-239.43 141.75,-219.35 141.75,-205.6"/>
<polygon fill="black" stroke="black" points="143.5,-205.5 141.75,-200.5 140,-205.5 143.5,-205.5"/>
<text text-anchor="middle" x="146.75" y="-222.23" font-family="Times,serif" font-size="14.00">Δ</text>
</g>
<!-- n8 -->
<g id="node8" class="node">
<title>n8</title>
<ellipse fill="none" stroke="black" cx="105.75" cy="-400.25" rx="29.9" ry="10.71"/>
<text text-anchor="middle" x="105.75" y="-396.55" font-family="Times,serif" font-size="14.00">•5:Ω•</text>
</g>
<!-- n17 -->
<g id="node17" class="node">
<title>n17</title>
<polygon fill="none" stroke="black" points="167.75,-338.64 115.75,-338.64 115.75,-323.64 167.75,-323.64 167.75,-338.64"/>
<text text-anchor="middle" x="141.75" y="-327.44" font-family="Times,serif" font-size="14.00">Ω•×Ω•</text>
</g>
<!-- n8&#45;&gt;n17 -->
<g id="edge17" class="edge">
<title>n8&#45;&gt;n17</title>
<path fill="none" stroke="black" stroke-dasharray="5,2" d="M110.91,-389.63C117.43,-377.47 128.64,-356.57 135.6,-343.59"/>
<polygon fill="black" stroke="black" points="137.31,-344.12 138.13,-338.89 134.22,-342.47 137.31,-344.12"/>
<text text-anchor="middle" x="136.25" y="-360.44" font-family="Times,serif" font-size="14.00">π₁</text>
</g>
<!-- n9 -->
<g id="node9" class="node">
<title>n9</title>
<ellipse fill="none" stroke="black" cx="104.75" cy="-544.67" rx="29.9" ry="10.71"/>
<text text-anchor="middle" x="104.75" y="-540.97" font-family="Times,serif" font-size="14.00">•6:Ω•</text>
</g>
<!-- n9&#45;&gt;n15 -->
<g id="edge11" class="edge">
<title>n9&#45;&gt;n15</title>
<path fill="none" stroke="black" stroke-dasharray="5,2" d="M104.75,-534.06C104.75,-522.01 104.75,-501.36 104.75,-488.37"/>
<polygon fill="black" stroke="black" points="106.5,-488.31 104.75,-483.31 103,-488.31 106.5,-488.31"/>
<text text-anchor="middle" x="112.25" y="-504.87" font-family="Times,serif" font-size="14.00">π₁</text>
</g>
<!-- n10 -->
<g id="node10" class="node">
<title>n10</title>
<ellipse fill="none" stroke="black" cx="160.75" cy="-695.31" rx="24.08" ry="10.71"/>
<text text-anchor="middle" x="160.75" y="-691.61" font-family="Times,serif" font-size="14.00">3:ΩL</text>
</g>
<!-- n10&#45;&gt;n14 -->
<g id="edge9" class="edge">
<title>n10&#45;&gt;n14</title>
<path fill="none" stroke="black" stroke-dasharray="5,2" d="M158.02,-684.49C154.75,-673.99 148.44,-657.26 138.75,-645.49 132.72,-638.18 124.3,-631.89 116.83,-627.17"/>
<polygon fill="black" stroke="black" points="117.51,-625.54 112.33,-624.44 115.7,-628.53 117.51,-625.54"/>
<text text-anchor="middle" x="158.25" y="-652.4" font-family="Times,serif" font-size="14.00">π₂</text>
</g>
<!-- n11 -->
<g id="node11" class="node">
<title>n11</title>
<ellipse fill="none" stroke="black" cx="174.75" cy="-439.46" rx="29.9" ry="10.71"/>
<text text-anchor="middle" x="174.75" y="-435.76" font-family="Times,serif" font-size="14.00">•7:Ω•</text>
</g>
<!-- n11&#45;&gt;n17 -->
<g id="edge18" class="edge">
<title>n11&#45;&gt;n17</title>
<path fill="none" stroke="black" stroke-dasharray="5,2" d="M171.7,-428.65C165.58,-408.93 151.83,-364.61 145.31,-343.6"/>
<polygon fill="black" stroke="black" points="146.97,-343.05 143.81,-338.79 143.62,-344.08 146.97,-343.05"/>
<text text-anchor="middle" x="173.25" y="-396.55" font-family="Times,serif" font-size="14.00">π₂</text>
</g>
<!-- n12 -->
<g id="node12" class="node">
<title>n12</title>
</g>
<!-- n12&#45;&gt;n1 -->
<g id="edge1" class="edge">
<title>n12&#45;&gt;n1</title>
<path fill="none" stroke="black" d="M221.42,-743.09C208.57,-738.53 145.59,-716.15 111.6,-704.08"/>
<polygon fill="black" stroke="black" points="112.1,-702.4 106.8,-702.37 110.93,-705.69 112.1,-702.4"/>
</g>
<!-- n12&#45;&gt;n2 -->
<g id="edge2" class="edge">
<title>n12&#45;&gt;n2</title>
<path fill="none" stroke="black" d="M224.53,-742.91C226.7,-740.1 232.94,-731.95 237.75,-724.92 250.2,-706.72 263.67,-685.13 272.16,-671.28"/>
<polygon fill="black" stroke="black" points="273.72,-672.08 274.83,-666.9 270.74,-670.25 273.72,-672.08"/>
</g>
<!-- n12&#45;&gt;n3 -->
<g id="edge3" class="edge">
<title>n12&#45;&gt;n3</title>
<path fill="none" stroke="black" d="M223.75,-742.69C223.75,-735.13 223.75,-694.45 223.75,-672"/>
<polygon fill="black" stroke="black" points="225.5,-671.72 223.75,-666.72 222,-671.72 225.5,-671.72"/>
</g>
<!-- n14&#45;&gt;n9 -->
<g id="edge10" class="edge">
<title>n14&#45;&gt;n9</title>
<path fill="none" stroke="black" d="M100.23,-609.15C101.02,-598.03 102.62,-575.54 103.69,-560.54"/>
<polygon fill="black" stroke="black" points="105.45,-560.5 104.06,-555.39 101.96,-560.25 105.45,-560.5"/>
<text text-anchor="middle" x="111.25" y="-577.08" font-family="Times,serif" font-size="14.00">.^</text>
</g>
<!-- n15&#45;&gt;n8 -->
<g id="edge13" class="edge">
<title>n15&#45;&gt;n8</title>
<path fill="none" stroke="black" d="M104.84,-467.8C105,-456.18 105.33,-432.17 105.54,-416.39"/>
<polygon fill="black" stroke="black" points="107.3,-416.01 105.62,-410.98 103.8,-415.96 107.3,-416.01"/>
<text text-anchor="middle" x="108.25" y="-435.76" font-family="Times,serif" font-size="14.00">&#45;</text>
</g>
<!-- n16&#45;&gt;n11 -->
<g id="edge16" class="edge">
<title>n16&#45;&gt;n11</title>
<path fill="none" stroke="black" d="M179.42,-536.9C178.62,-520.46 176.57,-478.12 175.47,-455.4"/>
<polygon fill="black" stroke="black" points="177.22,-455.24 175.23,-450.33 173.72,-455.41 177.22,-455.24"/>
<text text-anchor="middle" x="181.25" y="-504.87" font-family="Times,serif" font-size="14.00">*</text>
</g>
<!-- n17&#45;&gt;n7 -->
<g id="edge19" class="edge">
<title>n17&#45;&gt;n7</title>
<path fill="none" stroke="black" d="M141.75,-323.46C141.75,-312.92 141.75,-292.19 141.75,-277.97"/>
<polygon fill="black" stroke="black" points="143.5,-277.69 141.75,-272.69 140,-277.69 143.5,-277.69"/>
<text text-anchor="middle" x="144.25" y="-294.44" font-family="Times,serif" font-size="14.00">&#45;</text>
</g>
<!-- n18&#45;&gt;n4 -->
<g id="edge22" class="edge">
<title>n18&#45;&gt;n4</title>
<path fill="none" stroke="black" d="M130.1,-113.03C109.73,-101.35 67.47,-77.11 43.12,-63.14"/>
<polygon fill="black" stroke="black" points="43.71,-61.46 38.5,-60.49 41.97,-64.5 43.71,-61.46"/>
<text text-anchor="middle" x="101.25" y="-84.01" font-family="Times,serif" font-size="14.00">*</text>
</g>
</g>
</svg>
