<?xml version="1.0" encoding="UTF-8" standalone="no"?>
<!DOCTYPE svg PUBLIC "-//W3C//DTD SVG 1.1//EN"
 "http://www.w3.org/Graphics/SVG/1.1/DTD/svg11.dtd">
<!-- Generated by graphviz version 2.40.1 (0)
 -->
<!-- Title: G Pages: 1 -->
<svg width="1173pt" height="1146pt"
 viewBox="0.00 0.00 1173.01 1146.49" xmlns="http://www.w3.org/2000/svg" xmlns:xlink="http://www.w3.org/1999/xlink">
<g id="graph0" class="graph" transform="scale(1 1) rotate(0) translate(4 1142.4945)">
<title>G</title>
<polygon fill="#ffffff" stroke="transparent" points="-4,4 -4,-1142.4945 1169.0071,-1142.4945 1169.0071,4 -4,4"/>
<!-- n1 -->
<g id="node1" class="node">
<title>n1</title>
<ellipse fill="none" stroke="#000000" cx="266.3675" cy="-1086.8879" rx="76.2353" ry="10.7143"/>
<text text-anchor="middle" x="266.3675" y="-1083.1879" font-family="Times,serif" font-size="14.00" fill="#000000">dynamics_h:Ω₀</text>
</g>
<!-- n4 -->
<g id="node4" class="node">
<title>n4</title>
<ellipse fill="none" stroke="#000000" cx="76.3675" cy="-51.6066" rx="76.2353" ry="10.7143"/>
<text text-anchor="middle" x="76.3675" y="-47.9066" font-family="Times,serif" font-size="14.00" fill="#000000">dynamics_ḣ:Ω₀</text>
</g>
<!-- n1&#45;&gt;n4 -->
<g id="edge10" class="edge">
<title>n1&#45;&gt;n4</title>
<path fill="none" stroke="#000000" d="M220.6495,-1078.3842C159.9602,-1065.7672 60.3675,-1039.8496 60.3675,-1005.6331 60.3675,-1005.6331 60.3675,-1005.6331 60.3675,-120.7132 60.3675,-101.8481 66.0966,-80.8154 70.6984,-66.9642"/>
<polygon fill="#000000" stroke="#000000" points="72.3644,-67.5007 72.3301,-62.2034 69.0534,-66.3659 72.3644,-67.5007"/>
<text text-anchor="middle" x="66.3675" y="-547.1858" font-family="Times,serif" font-size="14.00" fill="#000000">∂ₜ</text>
</g>
<!-- n9 -->
<g id="node9" class="node">
<title>n9</title>
<ellipse fill="none" stroke="#000000" cx="157.3675" cy="-963.5914" rx="82.0488" ry="10.7143"/>
<text text-anchor="middle" x="157.3675" y="-959.8914" font-family="Times,serif" font-size="14.00" fill="#000000">dynamics_•3:Ω₁</text>
</g>
<!-- n1&#45;&gt;n9 -->
<g id="edge11" class="edge">
<title>n1&#45;&gt;n9</title>
<path fill="none" stroke="#000000" d="M245.7099,-1076.452C225.0791,-1065.0266 193.8521,-1044.849 175.3675,-1019.0681 166.8741,-1007.2221 162.2411,-991.1568 159.8125,-979.3631"/>
<polygon fill="#000000" stroke="#000000" points="161.4985,-978.8608 158.8459,-974.2754 158.06,-979.5142 161.4985,-978.8608"/>
<text text-anchor="middle" x="225.3675" y="-1043.9747" font-family="Times,serif" font-size="14.00" fill="#000000">d₀</text>
</g>
<!-- n14 -->
<g id="node14" class="node">
<title>n14</title>
<ellipse fill="none" stroke="#000000" cx="266.3675" cy="-1005.6331" rx="82.0488" ry="10.7143"/>
<text text-anchor="middle" x="266.3675" y="-1001.9331" font-family="Times,serif" font-size="14.00" fill="#000000">dynamics_•8:Ω₁</text>
</g>
<!-- n1&#45;&gt;n14 -->
<g id="edge12" class="edge">
<title>n1&#45;&gt;n14</title>
<path fill="none" stroke="#000000" d="M266.3675,-1076.2653C266.3675,-1062.2744 266.3675,-1037.5575 266.3675,-1021.3868"/>
<polygon fill="#000000" stroke="#000000" points="268.1176,-1021.2583 266.3675,-1016.2583 264.6176,-1021.2584 268.1176,-1021.2583"/>
<text text-anchor="middle" x="274.3675" y="-1043.9747" font-family="Times,serif" font-size="14.00" fill="#000000">d₀</text>
</g>
<!-- n33 -->
<g id="node33" class="node">
<title>n33</title>
<polygon fill="none" stroke="#000000" points="461.8675,-853.4518 410.8675,-853.4518 410.8675,-838.4518 461.8675,-838.4518 461.8675,-853.4518"/>
<text text-anchor="middle" x="436.3675" y="-842.2518" font-family="Times,serif" font-size="14.00" fill="#000000">Ω₀×Ω•</text>
</g>
<!-- n1&#45;&gt;n33 -->
<g id="edge24" class="edge">
<title>n1&#45;&gt;n33</title>
<path fill="none" stroke="#000000" stroke-dasharray="5,2" d="M286.4719,-1076.5398C306.9589,-1065.0519 338.3479,-1044.7025 357.3675,-1019.0681 387.0131,-979.1123 364.6842,-952.9362 395.3675,-913.7716 404.262,-902.4187 413.8898,-907.439 422.3675,-895.7716 430.2828,-884.8785 433.7286,-869.6643 435.2252,-858.9223"/>
<polygon fill="#000000" stroke="#000000" points="436.9865,-858.9317 435.8436,-853.7591 433.5114,-858.5155 436.9865,-858.9317"/>
<text text-anchor="middle" x="385.3675" y="-959.8914" font-family="Times,serif" font-size="14.00" fill="#000000">π₁</text>
</g>
<!-- n2 -->
<g id="node2" class="node">
<title>n2</title>
<ellipse fill="none" stroke="#000000" cx="345.3675" cy="-445.6726" rx="23.1702" ry="10.7143"/>
<text text-anchor="middle" x="345.3675" y="-441.9726" font-family="Times,serif" font-size="14.00" fill="#000000">Γ:Ω₀</text>
</g>
<!-- n36 -->
<g id="node36" class="node">
<title>n36</title>
<polygon fill="none" stroke="#000000" points="213.8675,-128.2132 164.8675,-128.2132 164.8675,-113.2132 213.8675,-113.2132 213.8675,-128.2132"/>
<text text-anchor="middle" x="189.3675" y="-117.0132" font-family="Times,serif" font-size="14.00" fill="#000000">Ω₀×Ω₀</text>
</g>
<!-- n2&#45;&gt;n36 -->
<g id="edge33" class="edge">
<title>n2&#45;&gt;n36</title>
<path fill="none" stroke="#000000" stroke-dasharray="5,2" d="M343.5121,-434.9838C341.1488,-420.4181 337.3675,-393.4967 337.3675,-370.3528 337.3675,-370.3528 337.3675,-370.3528 337.3675,-189.8198 337.3675,-163.9481 262.1786,-139.8488 218.9847,-128.139"/>
<polygon fill="#000000" stroke="#000000" points="219.422,-126.4445 214.1394,-126.8409 218.5162,-129.8253 219.422,-126.4445"/>
<text text-anchor="middle" x="345.3675" y="-294.4396" font-family="Times,serif" font-size="14.00" fill="#000000">π₁</text>
</g>
<!-- n3 -->
<g id="node3" class="node">
<title>n3</title>
<ellipse fill="none" stroke="#000000" cx="610.3675" cy="-1086.8879" rx="26.3269" ry="10.7143"/>
<text text-anchor="middle" x="610.3675" y="-1083.1879" font-family="Times,serif" font-size="14.00" fill="#000000">n:ΩC</text>
</g>
<!-- n31 -->
<g id="node31" class="node">
<title>n31</title>
<polygon fill="none" stroke="#000000" points="500.3675,-1013.1331 442.3675,-1013.1331 442.3675,-998.1331 500.3675,-998.1331 500.3675,-1013.1331"/>
<text text-anchor="middle" x="471.3675" y="-1001.9331" font-family="Times,serif" font-size="14.00" fill="#000000">ΩC×ΩL</text>
</g>
<!-- n3&#45;&gt;n31 -->
<g id="edge18" class="edge">
<title>n3&#45;&gt;n31</title>
<path fill="none" stroke="#000000" stroke-dasharray="5,2" d="M595.2275,-1078.0375C569.2867,-1062.8734 516.4838,-1032.0066 488.9536,-1015.9133"/>
<polygon fill="#000000" stroke="#000000" points="489.6392,-1014.2871 484.4394,-1013.2745 487.8728,-1017.3087 489.6392,-1014.2871"/>
<text text-anchor="middle" x="565.3675" y="-1043.9747" font-family="Times,serif" font-size="14.00" fill="#000000">π₁</text>
</g>
<!-- n39 -->
<g id="node39" class="node">
<title>n39</title>
<polygon fill="none" stroke="#000000" points="699.3675,-853.4518 643.3675,-853.4518 643.3675,-838.4518 699.3675,-838.4518 699.3675,-853.4518"/>
<text text-anchor="middle" x="671.3675" y="-842.2518" font-family="Times,serif" font-size="14.00" fill="#000000">Ω•×ΩC</text>
</g>
<!-- n3&#45;&gt;n39 -->
<g id="edge43" class="edge">
<title>n3&#45;&gt;n39</title>
<path fill="none" stroke="#000000" stroke-dasharray="5,2" d="M613.0673,-1076.2243C623.0175,-1036.9232 657.6115,-900.285 668.2382,-858.3122"/>
<polygon fill="#000000" stroke="#000000" points="669.9356,-858.7378 669.4663,-853.4612 666.5426,-857.8787 669.9356,-858.7378"/>
<text text-anchor="middle" x="651.3675" y="-959.8914" font-family="Times,serif" font-size="14.00" fill="#000000">π₂</text>
</g>
<!-- n42 -->
<g id="node42" class="node">
<title>n42</title>
<ellipse fill="none" stroke="#000000" cx="540.3675" cy="-1005.6331" rx="13.3704" ry="13.3704"/>
<text text-anchor="middle" x="540.3675" y="-1001.9331" font-family="Times,serif" font-size="14.00" fill="#000000">Σ1</text>
</g>
<!-- n3&#45;&gt;n42 -->
<g id="edge53" class="edge">
<title>n3&#45;&gt;n42</title>
<path fill="none" stroke="#000000" stroke-dasharray="5,2" d="M609.1473,-1075.9035C607.4483,-1065.0247 603.4752,-1048.3958 594.3675,-1037.0681 584.9703,-1025.3803 569.9742,-1017.1485 558.167,-1012.0485"/>
<polygon fill="#000000" stroke="#000000" points="558.6172,-1010.3413 553.3276,-1010.0536 557.2833,-1013.5772 558.6172,-1010.3413"/>
</g>
<!-- n43 -->
<g id="node43" class="node">
<title>n43</title>
<ellipse fill="none" stroke="#000000" cx="907.3675" cy="-1005.6331" rx="13.3704" ry="13.3704"/>
<text text-anchor="middle" x="907.3675" y="-1001.9331" font-family="Times,serif" font-size="14.00" fill="#000000">Σ2</text>
</g>
<!-- n3&#45;&gt;n43 -->
<g id="edge55" class="edge">
<title>n3&#45;&gt;n43</title>
<path fill="none" stroke="#000000" stroke-dasharray="5,2" d="M630.9839,-1080.1934C635.6827,-1078.7926 640.6741,-1077.4024 645.3675,-1076.2813 690.1418,-1065.5868 703.436,-1072.0339 747.3675,-1058.2813 768.853,-1051.5554 772.2233,-1044.8002 793.3675,-1037.0681 826.391,-1024.992 866.2529,-1015.0043 889.0221,-1009.7157"/>
<polygon fill="#000000" stroke="#000000" points="889.6754,-1011.3613 894.1564,-1008.5357 888.8914,-1007.9502 889.6754,-1011.3613"/>
</g>
<!-- n30 -->
<g id="node30" class="node">
<title>n30</title>
</g>
<!-- n4&#45;&gt;n30 -->
<g id="edge9" class="edge">
<title>n4&#45;&gt;n30</title>
<path fill="none" stroke="#000000" d="M76.3675,-40.5973C76.3675,-31.135 76.3675,-17.7454 76.3675,-9.4807"/>
<polygon fill="#000000" stroke="#000000" points="78.1176,-9.3096 76.3675,-4.3096 74.6176,-9.3096 78.1176,-9.3096"/>
</g>
<!-- n5 -->
<g id="node5" class="node">
<title>n5</title>
<ellipse fill="none" stroke="#000000" cx="540.3675" cy="-1086.8879" rx="25.4118" ry="10.7143"/>
<text text-anchor="middle" x="540.3675" y="-1083.1879" font-family="Times,serif" font-size="14.00" fill="#000000">2:ΩL</text>
</g>
<!-- n5&#45;&gt;n42 -->
<g id="edge54" class="edge">
<title>n5&#45;&gt;n42</title>
<path fill="none" stroke="#000000" stroke-dasharray="5,2" d="M540.3675,-1076.2653C540.3675,-1063.1247 540.3675,-1040.5221 540.3675,-1024.4254"/>
<polygon fill="#000000" stroke="#000000" points="542.1176,-1024.239 540.3675,-1019.239 538.6176,-1024.2391 542.1176,-1024.239"/>
</g>
<!-- n6 -->
<g id="node6" class="node">
<title>n6</title>
<ellipse fill="none" stroke="#000000" cx="509.3675" cy="-924.3782" rx="104.8038" ry="10.7143"/>
<text text-anchor="middle" x="509.3675" y="-920.6782" font-family="Times,serif" font-size="14.00" fill="#000000">dynamics_sum_1:Ω•</text>
</g>
<!-- n6&#45;&gt;n33 -->
<g id="edge25" class="edge">
<title>n6&#45;&gt;n33</title>
<path fill="none" stroke="#000000" stroke-dasharray="5,2" d="M499.5224,-913.8013C485.8623,-899.1258 461.2503,-872.6843 447.1224,-857.5061"/>
<polygon fill="#000000" stroke="#000000" points="448.1211,-856.0105 443.4334,-853.543 445.5591,-858.3952 448.1211,-856.0105"/>
<text text-anchor="middle" x="489.3675" y="-881.465" font-family="Times,serif" font-size="14.00" fill="#000000">π₂</text>
</g>
<!-- n7 -->
<g id="node7" class="node">
<title>n7</title>
<ellipse fill="none" stroke="#000000" cx="189.3675" cy="-189.8198" rx="82.0488" ry="10.7143"/>
<text text-anchor="middle" x="189.3675" y="-186.1198" font-family="Times,serif" font-size="14.00" fill="#000000">dynamics_•1:Ω₀</text>
</g>
<!-- n7&#45;&gt;n36 -->
<g id="edge34" class="edge">
<title>n7&#45;&gt;n36</title>
<path fill="none" stroke="#000000" stroke-dasharray="5,2" d="M189.3675,-179.0219C189.3675,-166.6655 189.3675,-146.4535 189.3675,-133.3683"/>
<polygon fill="#000000" stroke="#000000" points="191.1176,-133.2403 189.3675,-128.2404 187.6176,-133.2404 191.1176,-133.2403"/>
<text text-anchor="middle" x="197.3675" y="-150.0132" font-family="Times,serif" font-size="14.00" fill="#000000">π₂</text>
</g>
<!-- n8 -->
<g id="node8" class="node">
<title>n8</title>
<ellipse fill="none" stroke="#000000" cx="189.3675" cy="-406.4594" rx="82.0488" ry="10.7143"/>
<text text-anchor="middle" x="189.3675" y="-402.7594" font-family="Times,serif" font-size="14.00" fill="#000000">dynamics_•2:Ω₁</text>
</g>
<!-- n27 -->
<g id="node27" class="node">
<title>n27</title>
<ellipse fill="none" stroke="#000000" cx="189.3675" cy="-334.2462" rx="45.011" ry="10.7143"/>
<text text-anchor="middle" x="189.3675" y="-330.5462" font-family="Times,serif" font-size="14.00" fill="#000000">•_6_1:Ω̃₁</text>
</g>
<!-- n8&#45;&gt;n27 -->
<g id="edge15" class="edge">
<title>n8&#45;&gt;n27</title>
<path fill="none" stroke="#000000" d="M189.3675,-395.8041C189.3675,-383.751 189.3675,-363.9989 189.3675,-350.1269"/>
<polygon fill="#000000" stroke="#000000" points="191.1176,-349.9452 189.3675,-344.9452 187.6176,-349.9453 191.1176,-349.9452"/>
<text text-anchor="middle" x="197.3675" y="-366.6528" font-family="Times,serif" font-size="14.00" fill="#000000">⋆₁</text>
</g>
<!-- n35 -->
<g id="node35" class="node">
<title>n35</title>
<polygon fill="none" stroke="#000000" points="213.8675,-489.2792 164.8675,-489.2792 164.8675,-474.2792 213.8675,-474.2792 213.8675,-489.2792"/>
<text text-anchor="middle" x="189.3675" y="-478.0792" font-family="Times,serif" font-size="14.00" fill="#000000">Ω₁×Ω₀</text>
</g>
<!-- n9&#45;&gt;n35 -->
<g id="edge30" class="edge">
<title>n9&#45;&gt;n35</title>
<path fill="none" stroke="#000000" stroke-dasharray="5,2" d="M145.5074,-952.6198C131.5841,-938.4852 110.3675,-912.4675 110.3675,-885.165 110.3675,-885.165 110.3675,-885.165 110.3675,-550.8858 110.3675,-521.965 140.7317,-502.3424 163.8106,-491.6048"/>
<polygon fill="#000000" stroke="#000000" points="164.7674,-493.0935 168.6112,-489.4482 163.3331,-489.9008 164.7674,-493.0935"/>
<text text-anchor="middle" x="118.3675" y="-730.8254" font-family="Times,serif" font-size="14.00" fill="#000000">π₁</text>
</g>
<!-- n10 -->
<g id="node10" class="node">
<title>n10</title>
<ellipse fill="none" stroke="#000000" cx="261.3675" cy="-550.8858" rx="82.0488" ry="10.7143"/>
<text text-anchor="middle" x="261.3675" y="-547.1858" font-family="Times,serif" font-size="14.00" fill="#000000">dynamics_•4:Ω₀</text>
</g>
<!-- n10&#45;&gt;n35 -->
<g id="edge31" class="edge">
<title>n10&#45;&gt;n35</title>
<path fill="none" stroke="#000000" stroke-dasharray="5,2" d="M250.1175,-540.0879C236.784,-527.2902 214.671,-506.0658 201.1209,-493.0603"/>
<polygon fill="#000000" stroke="#000000" points="202.029,-491.5062 197.2099,-489.3064 199.6053,-494.0313 202.029,-491.5062"/>
<text text-anchor="middle" x="238.3675" y="-511.0792" font-family="Times,serif" font-size="14.00" fill="#000000">π₂</text>
</g>
<!-- n11 -->
<g id="node11" class="node">
<title>n11</title>
<ellipse fill="none" stroke="#000000" cx="312.3675" cy="-695.3122" rx="83.3772" ry="10.7143"/>
<text text-anchor="middle" x="312.3675" y="-691.6122" font-family="Times,serif" font-size="14.00" fill="#000000">dynamics_•5:Ω•</text>
</g>
<!-- n34 -->
<g id="node34" class="node">
<title>n34</title>
<polygon fill="none" stroke="#000000" points="338.8675,-630.599 285.8675,-630.599 285.8675,-615.599 338.8675,-615.599 338.8675,-630.599"/>
<text text-anchor="middle" x="312.3675" y="-619.399" font-family="Times,serif" font-size="14.00" fill="#000000">Ω•×Ω•</text>
</g>
<!-- n11&#45;&gt;n34 -->
<g id="edge27" class="edge">
<title>n11&#45;&gt;n34</title>
<path fill="none" stroke="#000000" stroke-dasharray="5,2" d="M312.3675,-684.6569C312.3675,-671.634 312.3675,-649.6234 312.3675,-635.7526"/>
<polygon fill="#000000" stroke="#000000" points="314.1176,-635.6991 312.3675,-630.6991 310.6176,-635.6992 314.1176,-635.6991"/>
<text text-anchor="middle" x="320.3675" y="-655.5056" font-family="Times,serif" font-size="14.00" fill="#000000">π₁</text>
</g>
<!-- n12 -->
<g id="node12" class="node">
<title>n12</title>
<ellipse fill="none" stroke="#000000" cx="221.3675" cy="-845.9518" rx="83.3772" ry="10.7143"/>
<text text-anchor="middle" x="221.3675" y="-842.2518" font-family="Times,serif" font-size="14.00" fill="#000000">dynamics_•6:Ω•</text>
</g>
<!-- n32 -->
<g id="node32" class="node">
<title>n32</title>
<polygon fill="none" stroke="#000000" points="338.8675,-781.2386 285.8675,-781.2386 285.8675,-766.2386 338.8675,-766.2386 338.8675,-781.2386"/>
<text text-anchor="middle" x="312.3675" y="-770.0386" font-family="Times,serif" font-size="14.00" fill="#000000">Ω•×Ω•</text>
</g>
<!-- n12&#45;&gt;n32 -->
<g id="edge21" class="edge">
<title>n12&#45;&gt;n32</title>
<path fill="none" stroke="#000000" stroke-dasharray="5,2" d="M234.7949,-835.2965C251.932,-821.6974 281.4194,-798.2976 298.6802,-784.6002"/>
<polygon fill="#000000" stroke="#000000" points="299.9614,-785.8176 302.7902,-781.3387 297.7857,-783.076 299.9614,-785.8176"/>
<text text-anchor="middle" x="283.3675" y="-806.1452" font-family="Times,serif" font-size="14.00" fill="#000000">π₁</text>
</g>
<!-- n13 -->
<g id="node13" class="node">
<title>n13</title>
<ellipse fill="none" stroke="#000000" cx="225.3675" cy="-924.3782" rx="83.3772" ry="10.7143"/>
<text text-anchor="middle" x="225.3675" y="-920.6782" font-family="Times,serif" font-size="14.00" fill="#000000">dynamics_•7:Ω•</text>
</g>
<!-- n13&#45;&gt;n12 -->
<g id="edge14" class="edge">
<title>n13&#45;&gt;n12</title>
<path fill="none" stroke="#000000" d="M220.6885,-913.7379C218.6123,-908.4482 216.4065,-901.8922 215.3675,-895.7716 213.4485,-884.4665 215.089,-871.6163 217.136,-861.7984"/>
<polygon fill="#000000" stroke="#000000" points="218.8964,-861.9483 218.2951,-856.6851 215.483,-861.1745 218.8964,-861.9483"/>
<text text-anchor="middle" x="230.8675" y="-881.465" font-family="Times,serif" font-size="14.00" fill="#000000">mag</text>
</g>
<!-- n14&#45;&gt;n13 -->
<g id="edge13" class="edge">
<title>n14&#45;&gt;n13</title>
<path fill="none" stroke="#000000" d="M261.9166,-994.983C257.3298,-984.2317 249.8173,-967.2264 242.3675,-952.9848 240.0471,-948.5488 237.3496,-943.8381 234.7963,-939.5471"/>
<polygon fill="#000000" stroke="#000000" points="236.188,-938.466 232.107,-935.0883 233.191,-940.2737 236.188,-938.466"/>
<text text-anchor="middle" x="261.8675" y="-959.8914" font-family="Times,serif" font-size="14.00" fill="#000000">♯ᵖᵖ</text>
</g>
<!-- n15 -->
<g id="node15" class="node">
<title>n15</title>
<ellipse fill="none" stroke="#000000" cx="338.3675" cy="-885.165" rx="83.3772" ry="10.7143"/>
<text text-anchor="middle" x="338.3675" y="-881.465" font-family="Times,serif" font-size="14.00" fill="#000000">dynamics_•9:Ω•</text>
</g>
<!-- n15&#45;&gt;n32 -->
<g id="edge22" class="edge">
<title>n15&#45;&gt;n32</title>
<path fill="none" stroke="#000000" stroke-dasharray="5,2" d="M335.8745,-874.481C331.0705,-853.8927 320.5488,-808.8003 315.3692,-786.6027"/>
<polygon fill="#000000" stroke="#000000" points="317.0147,-785.9528 314.1742,-781.4813 313.6062,-786.7482 317.0147,-785.9528"/>
<text text-anchor="middle" x="339.3675" y="-842.2518" font-family="Times,serif" font-size="14.00" fill="#000000">π₂</text>
</g>
<!-- n16 -->
<g id="node16" class="node">
<title>n16</title>
<ellipse fill="none" stroke="#000000" cx="471.3675" cy="-1086.8879" rx="25.4118" ry="10.7143"/>
<text text-anchor="middle" x="471.3675" y="-1083.1879" font-family="Times,serif" font-size="14.00" fill="#000000">1:ΩL</text>
</g>
<!-- n16&#45;&gt;n31 -->
<g id="edge19" class="edge">
<title>n16&#45;&gt;n31</title>
<path fill="none" stroke="#000000" stroke-dasharray="5,2" d="M471.3675,-1076.2653C471.3675,-1061.5532 471.3675,-1034.9807 471.3675,-1018.9568"/>
<polygon fill="#000000" stroke="#000000" points="473.1176,-1018.572 471.3675,-1013.5721 469.6176,-1018.5721 473.1176,-1018.572"/>
<text text-anchor="middle" x="479.3675" y="-1043.9747" font-family="Times,serif" font-size="14.00" fill="#000000">π₂</text>
</g>
<!-- n17 -->
<g id="node17" class="node">
<title>n17</title>
<ellipse fill="none" stroke="#000000" cx="435.3675" cy="-734.5254" rx="89.6056" ry="10.7143"/>
<text text-anchor="middle" x="435.3675" y="-730.8254" font-family="Times,serif" font-size="14.00" fill="#000000">dynamics_•10:Ω•</text>
</g>
<!-- n17&#45;&gt;n34 -->
<g id="edge28" class="edge">
<title>n17&#45;&gt;n34</title>
<path fill="none" stroke="#000000" stroke-dasharray="5,2" d="M430.3392,-723.705C424.9751,-712.9538 415.6985,-696.422 404.3675,-684.7056 382.8412,-662.4471 351.9784,-643.8077 332.0522,-633.046"/>
<polygon fill="#000000" stroke="#000000" points="332.717,-631.4174 327.4812,-630.6118 331.0719,-634.5067 332.717,-631.4174"/>
<text text-anchor="middle" x="427.3675" y="-691.6122" font-family="Times,serif" font-size="14.00" fill="#000000">π₂</text>
</g>
<!-- n18 -->
<g id="node18" class="node">
<title>n18</title>
<ellipse fill="none" stroke="#000000" cx="1101.3675" cy="-1047.6747" rx="63.7795" ry="10.7143"/>
<text text-anchor="middle" x="1101.3675" y="-1043.9747" font-family="Times,serif" font-size="14.00" fill="#000000">stress_A:ΩC</text>
</g>
<!-- n40 -->
<g id="node40" class="node">
<title>n40</title>
<polygon fill="none" stroke="#000000" points="989.3675,-702.8122 933.3675,-702.8122 933.3675,-687.8122 989.3675,-687.8122 989.3675,-702.8122"/>
<text text-anchor="middle" x="961.3675" y="-691.6122" font-family="Times,serif" font-size="14.00" fill="#000000">Ω•×ΩC</text>
</g>
<!-- n18&#45;&gt;n40 -->
<g id="edge46" class="edge">
<title>n18&#45;&gt;n40</title>
<path fill="none" stroke="#000000" stroke-dasharray="5,2" d="M1096.914,-1037.0037C1090.7496,-1021.2415 1080.3675,-990.6746 1080.3675,-963.5914 1080.3675,-963.5914 1080.3675,-963.5914 1080.3675,-773.7386 1080.3675,-732.4682 1029.8499,-711.6839 994.6442,-702.2103"/>
<polygon fill="#000000" stroke="#000000" points="994.8481,-700.4553 989.5689,-700.8935 993.9691,-703.8431 994.8481,-700.4553"/>
<text text-anchor="middle" x="1088.3675" y="-881.465" font-family="Times,serif" font-size="14.00" fill="#000000">π₂</text>
</g>
<!-- n19 -->
<g id="node19" class="node">
<title>n19</title>
<ellipse fill="none" stroke="#000000" cx="858.3675" cy="-1086.8879" rx="62.4516" ry="10.7143"/>
<text text-anchor="middle" x="858.3675" y="-1083.1879" font-family="Times,serif" font-size="14.00" fill="#000000">stress_ρ:ΩC</text>
</g>
<!-- n38 -->
<g id="node38" class="node">
<title>n38</title>
<polygon fill="none" stroke="#000000" points="765.8675,-1013.1331 706.8675,-1013.1331 706.8675,-998.1331 765.8675,-998.1331 765.8675,-1013.1331"/>
<text text-anchor="middle" x="736.3675" y="-1001.9331" font-family="Times,serif" font-size="14.00" fill="#000000">ΩC×ΩC</text>
</g>
<!-- n19&#45;&gt;n38 -->
<g id="edge39" class="edge">
<title>n19&#45;&gt;n38</title>
<path fill="none" stroke="#000000" stroke-dasharray="5,2" d="M842.9161,-1076.5969C819.5932,-1061.0633 775.6306,-1031.7832 752.1272,-1016.1294"/>
<polygon fill="#000000" stroke="#000000" points="752.8431,-1014.5036 747.7115,-1013.1884 750.9029,-1017.4167 752.8431,-1014.5036"/>
<text text-anchor="middle" x="819.3675" y="-1043.9747" font-family="Times,serif" font-size="14.00" fill="#000000">π₁</text>
</g>
<!-- n20 -->
<g id="node20" class="node">
<title>n20</title>
<ellipse fill="none" stroke="#000000" cx="716.3675" cy="-1086.8879" rx="62.4516" ry="10.7143"/>
<text text-anchor="middle" x="716.3675" y="-1083.1879" font-family="Times,serif" font-size="14.00" fill="#000000">stress_g:ΩC</text>
</g>
<!-- n20&#45;&gt;n38 -->
<g id="edge40" class="edge">
<title>n20&#45;&gt;n38</title>
<path fill="none" stroke="#000000" stroke-dasharray="5,2" d="M718.9822,-1076.2653C722.6352,-1061.4241 729.2589,-1034.5136 733.1912,-1018.5376"/>
<polygon fill="#000000" stroke="#000000" points="734.9176,-1018.8455 734.4134,-1013.5721 731.519,-1018.0089 734.9176,-1018.8455"/>
<text text-anchor="middle" x="735.3675" y="-1043.9747" font-family="Times,serif" font-size="14.00" fill="#000000">π₂</text>
</g>
<!-- n21 -->
<g id="node21" class="node">
<title>n21</title>
<ellipse fill="none" stroke="#000000" cx="961.3675" cy="-773.7386" rx="66.4361" ry="10.7143"/>
<text text-anchor="middle" x="961.3675" y="-770.0386" font-family="Times,serif" font-size="14.00" fill="#000000">stress_•1:Ω•</text>
</g>
<!-- n21&#45;&gt;n40 -->
<g id="edge45" class="edge">
<title>n21&#45;&gt;n40</title>
<path fill="none" stroke="#000000" stroke-dasharray="5,2" d="M961.3675,-762.8338C961.3675,-748.4394 961.3675,-723.1481 961.3675,-707.94"/>
<polygon fill="#000000" stroke="#000000" points="963.1176,-707.832 961.3675,-702.8321 959.6176,-707.8321 963.1176,-707.832"/>
<text text-anchor="middle" x="969.3675" y="-730.8254" font-family="Times,serif" font-size="14.00" fill="#000000">π₁</text>
</g>
<!-- n22 -->
<g id="node22" class="node">
<title>n22</title>
<ellipse fill="none" stroke="#000000" cx="964.3675" cy="-1086.8879" rx="25.4118" ry="10.7143"/>
<text text-anchor="middle" x="964.3675" y="-1083.1879" font-family="Times,serif" font-size="14.00" fill="#000000">2:ΩL</text>
</g>
<!-- n37 -->
<g id="node37" class="node">
<title>n37</title>
<polygon fill="none" stroke="#000000" points="988.8675,-853.4518 933.8675,-853.4518 933.8675,-838.4518 988.8675,-838.4518 988.8675,-853.4518"/>
<text text-anchor="middle" x="961.3675" y="-842.2518" font-family="Times,serif" font-size="14.00" fill="#000000">ΩL×Ω•</text>
</g>
<!-- n22&#45;&gt;n37 -->
<g id="edge36" class="edge">
<title>n22&#45;&gt;n37</title>
<path fill="none" stroke="#000000" stroke-dasharray="5,2" d="M970.4525,-1076.246C985.2462,-1048.9856 1020.6537,-974.5167 1003.3675,-913.7716 997.1693,-891.9907 981.754,-870.3651 971.4248,-857.5825"/>
<polygon fill="#000000" stroke="#000000" points="972.6698,-856.3417 968.1375,-853.5991 969.9703,-858.5694 972.6698,-856.3417"/>
<text text-anchor="middle" x="1015.3675" y="-959.8914" font-family="Times,serif" font-size="14.00" fill="#000000">π₁</text>
</g>
<!-- n22&#45;&gt;n43 -->
<g id="edge56" class="edge">
<title>n22&#45;&gt;n43</title>
<path fill="none" stroke="#000000" stroke-dasharray="5,2" d="M957.1484,-1076.5969C947.3455,-1062.6227 929.7384,-1037.5233 918.3073,-1021.228"/>
<polygon fill="#000000" stroke="#000000" points="919.5626,-1019.9702 915.2585,-1016.8819 916.6973,-1021.9802 919.5626,-1019.9702"/>
</g>
<!-- n23 -->
<g id="node23" class="node">
<title>n23</title>
<ellipse fill="none" stroke="#000000" cx="907.3675" cy="-924.3782" rx="86.9483" ry="10.7143"/>
<text text-anchor="middle" x="907.3675" y="-920.6782" font-family="Times,serif" font-size="14.00" fill="#000000">stress_sum_1:Ω•</text>
</g>
<!-- n23&#45;&gt;n37 -->
<g id="edge37" class="edge">
<title>n23&#45;&gt;n37</title>
<path fill="none" stroke="#000000" stroke-dasharray="5,2" d="M914.6502,-913.8013C924.6686,-899.2512 942.6505,-873.1354 953.1422,-857.8978"/>
<polygon fill="#000000" stroke="#000000" points="954.7465,-858.6536 956.1407,-853.543 951.8637,-856.6687 954.7465,-858.6536"/>
<text text-anchor="middle" x="948.3675" y="-881.465" font-family="Times,serif" font-size="14.00" fill="#000000">π₂</text>
</g>
<!-- n24 -->
<g id="node24" class="node">
<title>n24</title>
<ellipse fill="none" stroke="#000000" cx="671.3675" cy="-734.5254" rx="66.4361" ry="10.7143"/>
<text text-anchor="middle" x="671.3675" y="-730.8254" font-family="Times,serif" font-size="14.00" fill="#000000">stress_•2:Ω•</text>
</g>
<!-- n41 -->
<g id="node41" class="node">
<title>n41</title>
<polygon fill="none" stroke="#000000" points="697.8675,-558.3858 644.8675,-558.3858 644.8675,-543.3858 697.8675,-543.3858 697.8675,-558.3858"/>
<text text-anchor="middle" x="671.3675" y="-547.1858" font-family="Times,serif" font-size="14.00" fill="#000000">Ω•×Ω•</text>
</g>
<!-- n24&#45;&gt;n41 -->
<g id="edge49" class="edge">
<title>n24&#45;&gt;n41</title>
<path fill="none" stroke="#000000" stroke-dasharray="5,2" d="M671.3675,-723.8584C671.3675,-692.1635 671.3675,-598.6118 671.3675,-563.9762"/>
<polygon fill="#000000" stroke="#000000" points="673.1176,-563.58 671.3675,-558.58 669.6176,-563.5801 673.1176,-563.58"/>
<text text-anchor="middle" x="679.3675" y="-655.5056" font-family="Times,serif" font-size="14.00" fill="#000000">π₂</text>
</g>
<!-- n25 -->
<g id="node25" class="node">
<title>n25</title>
<ellipse fill="none" stroke="#000000" cx="736.3675" cy="-924.3782" rx="66.4361" ry="10.7143"/>
<text text-anchor="middle" x="736.3675" y="-920.6782" font-family="Times,serif" font-size="14.00" fill="#000000">stress_•3:Ω•</text>
</g>
<!-- n25&#45;&gt;n39 -->
<g id="edge42" class="edge">
<title>n25&#45;&gt;n39</title>
<path fill="none" stroke="#000000" stroke-dasharray="5,2" d="M727.6013,-913.8013C715.4382,-899.1258 693.5234,-872.6843 680.9438,-857.5061"/>
<polygon fill="#000000" stroke="#000000" points="682.1971,-856.2759 677.6591,-853.543 679.5023,-858.5094 682.1971,-856.2759"/>
<text text-anchor="middle" x="719.3675" y="-881.465" font-family="Times,serif" font-size="14.00" fill="#000000">π₁</text>
</g>
<!-- n26 -->
<g id="node26" class="node">
<title>n26</title>
<ellipse fill="none" stroke="#000000" cx="874.3675" cy="-623.099" rx="89.191" ry="10.7143"/>
<text text-anchor="middle" x="874.3675" y="-619.399" font-family="Times,serif" font-size="14.00" fill="#000000">stress_mult_1:Ω•</text>
</g>
<!-- n26&#45;&gt;n41 -->
<g id="edge48" class="edge">
<title>n26&#45;&gt;n41</title>
<path fill="none" stroke="#000000" stroke-dasharray="5,2" d="M845.7131,-612.9058C806.1762,-598.8413 735.472,-573.6897 697.3813,-560.1397"/>
<polygon fill="#000000" stroke="#000000" points="697.751,-558.4138 692.4537,-558.3868 696.5779,-561.7114 697.751,-558.4138"/>
<text text-anchor="middle" x="798.3675" y="-583.2924" font-family="Times,serif" font-size="14.00" fill="#000000">π₁</text>
</g>
<!-- n28 -->
<g id="node28" class="node">
<title>n28</title>
<ellipse fill="none" stroke="#000000" cx="189.3675" cy="-262.033" rx="45.011" ry="10.7143"/>
<text text-anchor="middle" x="189.3675" y="-258.333" font-family="Times,serif" font-size="14.00" fill="#000000">•_6_2:Ω̃₂</text>
</g>
<!-- n27&#45;&gt;n28 -->
<g id="edge16" class="edge">
<title>n27&#45;&gt;n28</title>
<path fill="none" stroke="#000000" d="M189.3675,-323.5909C189.3675,-311.5378 189.3675,-291.7857 189.3675,-277.9137"/>
<polygon fill="#000000" stroke="#000000" points="191.1176,-277.732 189.3675,-272.732 187.6176,-277.7321 191.1176,-277.732"/>
<text text-anchor="middle" x="216.3675" y="-294.4396" font-family="Times,serif" font-size="14.00" fill="#000000">dual_d₁</text>
</g>
<!-- n28&#45;&gt;n7 -->
<g id="edge17" class="edge">
<title>n28&#45;&gt;n7</title>
<path fill="none" stroke="#000000" d="M189.3675,-251.3777C189.3675,-239.3246 189.3675,-219.5725 189.3675,-205.7005"/>
<polygon fill="#000000" stroke="#000000" points="191.1176,-205.5188 189.3675,-200.5188 187.6176,-205.5189 191.1176,-205.5188"/>
<text text-anchor="middle" x="203.8675" y="-222.2264" font-family="Times,serif" font-size="14.00" fill="#000000">⋆₀⁻¹</text>
</g>
<!-- n29 -->
<g id="node29" class="node">
<title>n29</title>
</g>
<!-- n29&#45;&gt;n1 -->
<g id="edge1" class="edge">
<title>n29&#45;&gt;n1</title>
<path fill="none" stroke="#000000" d="M666.2047,-1136.2276C642.7833,-1133.3374 434.9636,-1107.6926 328.5629,-1094.5628"/>
<polygon fill="#000000" stroke="#000000" points="328.7508,-1092.8228 323.574,-1093.9472 328.3221,-1096.2964 328.7508,-1092.8228"/>
</g>
<!-- n29&#45;&gt;n3 -->
<g id="edge2" class="edge">
<title>n29&#45;&gt;n3</title>
<path fill="none" stroke="#000000" d="M665.8753,-1134.363C659.1158,-1128.5816 640.0087,-1112.2396 626.0966,-1100.3408"/>
<polygon fill="#000000" stroke="#000000" points="626.9026,-1098.7273 621.9653,-1096.8073 624.6276,-1101.3872 626.9026,-1098.7273"/>
</g>
<!-- n29&#45;&gt;n5 -->
<g id="edge3" class="edge">
<title>n29&#45;&gt;n5</title>
<path fill="none" stroke="#000000" d="M666.1459,-1135.6335C654.1855,-1130.9982 596.7774,-1108.7497 563.8047,-1095.971"/>
<polygon fill="#000000" stroke="#000000" points="564.42,-1094.3327 559.1255,-1094.1576 563.1552,-1097.5962 564.42,-1094.3327"/>
</g>
<!-- n29&#45;&gt;n16 -->
<g id="edge4" class="edge">
<title>n29&#45;&gt;n16</title>
<path fill="none" stroke="#000000" d="M666.0707,-1135.9944C651.5602,-1132.8236 571.1346,-1115.0883 506.3675,-1097.4945 503.3116,-1096.6644 500.1179,-1095.7551 496.9561,-1094.8291"/>
<polygon fill="#000000" stroke="#000000" points="497.3296,-1093.1145 492.0383,-1093.369 496.3334,-1096.4698 497.3296,-1093.1145"/>
</g>
<!-- n29&#45;&gt;n18 -->
<g id="edge5" class="edge">
<title>n29&#45;&gt;n18</title>
<path fill="none" stroke="#000000" d="M670.6196,-1136.3342C696.15,-1134.5013 931.4024,-1117.204 998.3675,-1097.4945 1028.1301,-1088.7347 1059.9157,-1072.1192 1080.1773,-1060.4944"/>
<polygon fill="#000000" stroke="#000000" points="1081.1224,-1061.9694 1084.5709,-1057.948 1079.3674,-1058.9412 1081.1224,-1061.9694"/>
</g>
<!-- n29&#45;&gt;n19 -->
<g id="edge6" class="edge">
<title>n29&#45;&gt;n19</title>
<path fill="none" stroke="#000000" d="M670.5013,-1135.9374C684.8487,-1132.1915 768.226,-1110.4227 818.9622,-1097.1761"/>
<polygon fill="#000000" stroke="#000000" points="819.6743,-1098.799 824.07,-1095.8426 818.7901,-1095.4125 819.6743,-1098.799"/>
</g>
<!-- n29&#45;&gt;n20 -->
<g id="edge7" class="edge">
<title>n29&#45;&gt;n20</title>
<path fill="none" stroke="#000000" d="M670.43,-1134.363C675.847,-1128.7647 690.8454,-1113.2643 702.2438,-1101.4844"/>
<polygon fill="#000000" stroke="#000000" points="703.733,-1102.462 705.9522,-1097.6518 701.2177,-1100.0282 703.733,-1102.462"/>
</g>
<!-- n29&#45;&gt;n22 -->
<g id="edge8" class="edge">
<title>n29&#45;&gt;n22</title>
<path fill="none" stroke="#000000" d="M670.4793,-1136.2982C688.8203,-1134.5685 822.9854,-1121.4276 929.3675,-1097.4945 932.5383,-1096.7812 935.8404,-1095.929 939.0945,-1095.0221"/>
<polygon fill="#000000" stroke="#000000" points="939.8249,-1096.6328 944.1429,-1093.564 938.8536,-1093.2703 939.8249,-1096.6328"/>
</g>
<!-- n31&#45;&gt;n15 -->
<g id="edge20" class="edge">
<title>n31&#45;&gt;n15</title>
<path fill="none" stroke="#000000" d="M463.0478,-998.0973C441.2581,-978.3607 382.2563,-924.9184 353.9409,-899.271"/>
<polygon fill="#000000" stroke="#000000" points="354.8746,-897.7555 349.9939,-895.6959 352.5249,-900.3496 354.8746,-897.7555"/>
<text text-anchor="middle" x="436.8675" y="-959.8914" font-family="Times,serif" font-size="14.00" fill="#000000">&#45;</text>
</g>
<!-- n32&#45;&gt;n11 -->
<g id="edge23" class="edge">
<title>n32&#45;&gt;n11</title>
<path fill="none" stroke="#000000" d="M312.3675,-766.2188C312.3675,-753.6808 312.3675,-728.2312 312.3675,-711.4794"/>
<polygon fill="#000000" stroke="#000000" points="314.1176,-711.163 312.3675,-706.163 310.6176,-711.1631 314.1176,-711.163"/>
<text text-anchor="middle" x="318.8675" y="-730.8254" font-family="Times,serif" font-size="14.00" fill="#000000">^</text>
</g>
<!-- n33&#45;&gt;n17 -->
<g id="edge26" class="edge">
<title>n33&#45;&gt;n17</title>
<path fill="none" stroke="#000000" d="M436.2988,-838.2931C436.1372,-820.2827 435.7302,-774.9309 435.5116,-750.5774"/>
<polygon fill="#000000" stroke="#000000" points="437.2603,-750.4171 435.4654,-745.433 433.7605,-750.4486 437.2603,-750.4171"/>
<text text-anchor="middle" x="441.8675" y="-806.1452" font-family="Times,serif" font-size="14.00" fill="#000000">^</text>
</g>
<!-- n34&#45;&gt;n10 -->
<g id="edge29" class="edge">
<title>n34&#45;&gt;n10</title>
<path fill="none" stroke="#000000" d="M306.9096,-615.3709C298.6193,-603.6323 282.6939,-581.0829 272.0474,-566.0079"/>
<polygon fill="#000000" stroke="#000000" points="273.241,-564.6643 268.9271,-561.5897 270.382,-566.6834 273.241,-564.6643"/>
<text text-anchor="middle" x="303.8675" y="-583.2924" font-family="Times,serif" font-size="14.00" fill="#000000">∧₀₀</text>
</g>
<!-- n35&#45;&gt;n8 -->
<g id="edge32" class="edge">
<title>n35&#45;&gt;n8</title>
<path fill="none" stroke="#000000" d="M189.3675,-474.0024C189.3675,-461.8456 189.3675,-438.0942 189.3675,-422.2484"/>
<polygon fill="#000000" stroke="#000000" points="191.1176,-422.2059 189.3675,-417.2059 187.6176,-422.2059 191.1176,-422.2059"/>
<text text-anchor="middle" x="200.8675" y="-441.9726" font-family="Times,serif" font-size="14.00" fill="#000000">∧₁₀</text>
</g>
<!-- n36&#45;&gt;n4 -->
<g id="edge35" class="edge">
<title>n36&#45;&gt;n4</title>
<path fill="none" stroke="#000000" d="M176.8428,-113.0535C157.7723,-101.3908 121.2094,-79.0302 97.8436,-64.7406"/>
<polygon fill="#000000" stroke="#000000" points="98.5341,-63.1115 93.3555,-61.9958 96.708,-66.0974 98.5341,-63.1115"/>
<text text-anchor="middle" x="150.3675" y="-84.0132" font-family="Times,serif" font-size="14.00" fill="#000000">*</text>
</g>
<!-- n37&#45;&gt;n21 -->
<g id="edge38" class="edge">
<title>n37&#45;&gt;n21</title>
<path fill="none" stroke="#000000" d="M961.3675,-838.2238C961.3675,-826.6875 961.3675,-804.71 961.3675,-789.647"/>
<polygon fill="#000000" stroke="#000000" points="963.1176,-789.4425 961.3675,-784.4425 959.6176,-789.4426 963.1176,-789.4425"/>
<text text-anchor="middle" x="963.8675" y="-806.1452" font-family="Times,serif" font-size="14.00" fill="#000000">/</text>
</g>
<!-- n38&#45;&gt;n25 -->
<g id="edge41" class="edge">
<title>n38&#45;&gt;n25</title>
<path fill="none" stroke="#000000" d="M736.3675,-997.842C736.3675,-984.5949 736.3675,-957.4361 736.3675,-940.1093"/>
<polygon fill="#000000" stroke="#000000" points="738.1176,-940.074 736.3675,-935.074 734.6176,-940.074 738.1176,-940.074"/>
<text text-anchor="middle" x="740.3675" y="-959.8914" font-family="Times,serif" font-size="14.00" fill="#000000">*</text>
</g>
<!-- n39&#45;&gt;n24 -->
<g id="edge44" class="edge">
<title>n39&#45;&gt;n24</title>
<path fill="none" stroke="#000000" d="M671.3675,-838.2931C671.3675,-820.2827 671.3675,-774.9309 671.3675,-750.5774"/>
<polygon fill="#000000" stroke="#000000" points="673.1176,-750.433 671.3675,-745.433 669.6176,-750.4331 673.1176,-750.433"/>
<text text-anchor="middle" x="677.8675" y="-806.1452" font-family="Times,serif" font-size="14.00" fill="#000000">^</text>
</g>
<!-- n40&#45;&gt;n26 -->
<g id="edge47" class="edge">
<title>n40&#45;&gt;n26</title>
<path fill="none" stroke="#000000" d="M952.057,-687.5842C937.5489,-675.5419 909.334,-652.1225 891.1955,-637.0668"/>
<polygon fill="#000000" stroke="#000000" points="892.2283,-635.6498 887.2632,-633.8029 889.9929,-638.343 892.2283,-635.6498"/>
<text text-anchor="middle" x="929.3675" y="-655.5056" font-family="Times,serif" font-size="14.00" fill="#000000">*</text>
</g>
<!-- n41&#45;&gt;n2 -->
<g id="edge50" class="edge">
<title>n41&#45;&gt;n2</title>
<path fill="none" stroke="#000000" d="M647.9224,-543.3191C587.9976,-523.979 429.7041,-472.8914 369.2758,-453.3888"/>
<polygon fill="#000000" stroke="#000000" points="369.7117,-451.6906 364.4159,-451.8203 368.6367,-455.0215 369.7117,-451.6906"/>
<text text-anchor="middle" x="586.3675" y="-511.0792" font-family="Times,serif" font-size="14.00" fill="#000000">*</text>
</g>
<!-- n42&#45;&gt;n6 -->
<g id="edge51" class="edge">
<title>n42&#45;&gt;n6</title>
<path fill="none" stroke="#000000" d="M535.5238,-992.937C530.0772,-978.6609 521.2282,-955.4666 515.3533,-940.0676"/>
<polygon fill="#000000" stroke="#000000" points="516.9015,-939.216 513.4841,-935.1683 513.6314,-940.4636 516.9015,-939.216"/>
<text text-anchor="middle" x="533.8675" y="-959.8914" font-family="Times,serif" font-size="14.00" fill="#000000">+</text>
</g>
<!-- n43&#45;&gt;n23 -->
<g id="edge52" class="edge">
<title>n43&#45;&gt;n23</title>
<path fill="none" stroke="#000000" d="M907.3675,-991.8493C907.3675,-977.6546 907.3675,-955.5468 907.3675,-940.5382"/>
<polygon fill="#000000" stroke="#000000" points="909.1176,-940.3577 907.3675,-935.3578 905.6176,-940.3578 909.1176,-940.3577"/>
<text text-anchor="middle" x="913.8675" y="-959.8914" font-family="Times,serif" font-size="14.00" fill="#000000">+</text>
</g>
</g>
</svg>
