<?xml version="1.0" encoding="UTF-8" standalone="no"?>
<!DOCTYPE svg PUBLIC "-//W3C//DTD SVG 1.1//EN"
 "http://www.w3.org/Graphics/SVG/1.1/DTD/svg11.dtd">
<!-- Generated by graphviz version 2.43.0 (0)
 -->
<!-- Title: G Pages: 1 -->
<svg width="1412pt" height="1042pt"
 viewBox="0.00 0.00 1412.00 1041.64" xmlns="http://www.w3.org/2000/svg" xmlns:xlink="http://www.w3.org/1999/xlink">
<g id="graph0" class="graph" transform="scale(1 1) rotate(0) translate(4 1037.64)">
<title>G</title>
<polygon fill="white" stroke="transparent" points="-4,4 -4,-1037.64 1408,-1037.64 1408,4 -4,4"/>
<!-- n1 -->
<g id="node1" class="node">
<title>n1</title>
<ellipse fill="none" stroke="black" cx="1062.07" cy="-982.04" rx="21.43" ry="10.71"/>
<text text-anchor="middle" x="1062.07" y="-978.34" font-family="Times,serif" font-size="14.00">v:Ω̃₁</text>
</g>
<!-- n8 -->
<g id="node8" class="node">
<title>n8</title>
<ellipse fill="none" stroke="black" cx="1011.07" cy="-903.61" rx="89.19" ry="10.71"/>
<text text-anchor="middle" x="1011.07" y="-899.91" font-family="Times,serif" font-size="14.00">turbulence_•2:Ω•</text>
</g>
<!-- n1&#45;&gt;n8 -->
<g id="edge9" class="edge">
<title>n1&#45;&gt;n8</title>
<path fill="none" stroke="black" d="M1055.82,-971.66C1047.05,-958.52 1031,-934.47 1020.7,-919.04"/>
<polygon fill="black" stroke="black" points="1021.93,-917.73 1017.7,-914.54 1019.02,-919.67 1021.93,-917.73"/>
<text text-anchor="middle" x="1052.57" y="-939.12" font-family="Times,serif" font-size="14.00">Δᵈ₁</text>
</g>
<!-- n28 -->
<g id="node28" class="node">
<title>n28</title>
<polygon fill="none" stroke="black" points="846.57,-835.79 797.57,-835.79 797.57,-820.79 846.57,-820.79 846.57,-835.79"/>
<text text-anchor="middle" x="822.07" y="-824.59" font-family="Times,serif" font-size="14.00">Ω̃₁×Ω•</text>
</g>
<!-- n1&#45;&gt;n28 -->
<g id="edge21" class="edge">
<title>n1&#45;&gt;n28</title>
<path fill="none" stroke="black" stroke-dasharray="5,2" d="M1072.68,-972.68C1092.19,-956.32 1129.93,-919.36 1109.07,-893 1077.28,-852.82 918.83,-836.48 851.95,-831.3"/>
<polygon fill="black" stroke="black" points="852.03,-829.55 846.91,-830.91 851.76,-833.04 852.03,-829.55"/>
<text text-anchor="middle" x="1122.57" y="-899.91" font-family="Times,serif" font-size="14.00">π₁</text>
</g>
<!-- n32 -->
<g id="node32" class="node">
<title>n32</title>
<polygon fill="none" stroke="black" points="1211.57,-835.79 1162.57,-835.79 1162.57,-820.79 1211.57,-820.79 1211.57,-835.79"/>
<text text-anchor="middle" x="1187.07" y="-824.59" font-family="Times,serif" font-size="14.00">Ω̃₁×Ω•</text>
</g>
<!-- n1&#45;&gt;n32 -->
<g id="edge33" class="edge">
<title>n1&#45;&gt;n32</title>
<path fill="none" stroke="black" stroke-dasharray="5,2" d="M1083.08,-979.92C1102.96,-977.74 1132.31,-971.45 1150.07,-953.43 1181.06,-922 1186.28,-865.79 1187.03,-841.28"/>
<polygon fill="black" stroke="black" points="1188.79,-841.05 1187.14,-836.02 1185.29,-840.98 1188.79,-841.05"/>
<text text-anchor="middle" x="1187.57" y="-899.91" font-family="Times,serif" font-size="14.00">π₁</text>
</g>
<!-- n2 -->
<g id="node2" class="node">
<title>n2</title>
<ellipse fill="none" stroke="black" cx="545.07" cy="-982.04" rx="20.51" ry="10.71"/>
<text text-anchor="middle" x="545.07" y="-978.34" font-family="Times,serif" font-size="14.00">c:Ω̃₀</text>
</g>
<!-- n7 -->
<g id="node7" class="node">
<title>n7</title>
<ellipse fill="none" stroke="black" cx="384.07" cy="-903.61" rx="89.19" ry="10.71"/>
<text text-anchor="middle" x="384.07" y="-899.91" font-family="Times,serif" font-size="14.00">turbulence_•1:Ω•</text>
</g>
<!-- n2&#45;&gt;n7 -->
<g id="edge10" class="edge">
<title>n2&#45;&gt;n7</title>
<path fill="none" stroke="black" d="M536.39,-972.14C525.25,-961.22 504.85,-942.83 484.07,-932.22 468.52,-924.27 450.4,-918.39 433.89,-914.14"/>
<polygon fill="black" stroke="black" points="434.1,-912.39 428.83,-912.87 433.25,-915.78 434.1,-912.39"/>
<text text-anchor="middle" x="524.57" y="-939.12" font-family="Times,serif" font-size="14.00">Δᵈ₀</text>
</g>
<!-- n12 -->
<g id="node12" class="node">
<title>n12</title>
<ellipse fill="none" stroke="black" cx="232.07" cy="-51.61" rx="78.48" ry="10.71"/>
<text text-anchor="middle" x="232.07" y="-47.91" font-family="Times,serif" font-size="14.00">continuity_ċ:Ω•</text>
</g>
<!-- n2&#45;&gt;n12 -->
<g id="edge11" class="edge">
<title>n2&#45;&gt;n12</title>
<path fill="none" stroke="black" d="M524.45,-980.84C470.74,-980 327.91,-975.7 287.07,-953.43 265.01,-941.39 216.07,-890.53 216.07,-865.4 216.07,-865.4 216.07,-865.4 216.07,-125.65 216.07,-105.07 222.21,-81.97 226.88,-67.36"/>
<polygon fill="black" stroke="black" points="228.62,-67.68 228.52,-62.38 225.3,-66.58 228.62,-67.68"/>
<text text-anchor="middle" x="222.07" y="-496.52" font-family="Times,serif" font-size="14.00">∂ₜ</text>
</g>
<!-- n19 -->
<g id="node19" class="node">
<title>n19</title>
<ellipse fill="none" stroke="black" cx="818.07" cy="-903.61" rx="85.62" ry="10.71"/>
<text text-anchor="middle" x="818.07" y="-899.91" font-family="Times,serif" font-size="14.00">continuity_•7:Ω•</text>
</g>
<!-- n2&#45;&gt;n19 -->
<g id="edge12" class="edge">
<title>n2&#45;&gt;n19</title>
<path fill="none" stroke="black" d="M565.41,-980.25C613.76,-978.1 734.25,-971.09 770.07,-953.43 786.07,-945.54 799.81,-930.12 808.44,-918.72"/>
<polygon fill="black" stroke="black" points="810.05,-919.48 811.6,-914.41 807.23,-917.41 810.05,-919.48"/>
<text text-anchor="middle" x="801.07" y="-939.12" font-family="Times,serif" font-size="14.00">d</text>
</g>
<!-- n21 -->
<g id="node21" class="node">
<title>n21</title>
<ellipse fill="none" stroke="black" cx="577.07" cy="-903.61" rx="85.62" ry="10.71"/>
<text text-anchor="middle" x="577.07" y="-899.91" font-family="Times,serif" font-size="14.00">continuity_•9:Ω•</text>
</g>
<!-- n2&#45;&gt;n21 -->
<g id="edge13" class="edge">
<title>n2&#45;&gt;n21</title>
<path fill="none" stroke="black" d="M549.13,-971.36C554.63,-958.22 564.5,-934.63 570.92,-919.31"/>
<polygon fill="black" stroke="black" points="572.64,-919.74 572.95,-914.45 569.41,-918.39 572.64,-919.74"/>
<text text-anchor="middle" x="569.07" y="-939.12" font-family="Times,serif" font-size="14.00">d</text>
</g>
<!-- n3 -->
<g id="node3" class="node">
<title>n3</title>
<ellipse fill="none" stroke="black" cx="502.07" cy="-759.18" rx="164.1" ry="10.71"/>
<text text-anchor="middle" x="502.07" y="-755.48" font-family="Times,serif" font-size="14.00">turbulence_StressDivergence:Ω̃₁</text>
</g>
<!-- n4 -->
<g id="node4" class="node">
<title>n4</title>
<ellipse fill="none" stroke="black" cx="313.07" cy="-719.97" rx="30.31" ry="10.71"/>
<text text-anchor="middle" x="313.07" y="-716.27" font-family="Times,serif" font-size="14.00">FD:Ω̃₀</text>
</g>
<!-- n34 -->
<g id="node34" class="node">
<title>n34</title>
<polygon fill="none" stroke="black" points="354.57,-264.3 305.57,-264.3 305.57,-249.3 354.57,-249.3 354.57,-264.3"/>
<text text-anchor="middle" x="330.07" y="-253.1" font-family="Times,serif" font-size="14.00">Ω•×Ω̃₀</text>
</g>
<!-- n4&#45;&gt;n34 -->
<g id="edge40" class="edge">
<title>n4&#45;&gt;n34</title>
<path fill="none" stroke="black" stroke-dasharray="5,2" d="M314.47,-708.99C316.24,-695.4 319.07,-670.29 319.07,-648.76 319.07,-648.76 319.07,-648.76 319.07,-324.9 319.07,-305.28 323.71,-282.84 326.97,-269.52"/>
<polygon fill="black" stroke="black" points="328.73,-269.68 328.26,-264.4 325.34,-268.82 328.73,-269.68"/>
<text text-anchor="middle" x="326.57" y="-496.52" font-family="Times,serif" font-size="14.00">π₂</text>
</g>
<!-- n5 -->
<g id="node5" class="node">
<title>n5</title>
<ellipse fill="none" stroke="black" cx="173.07" cy="-942.82" rx="84.71" ry="10.71"/>
<text text-anchor="middle" x="173.07" y="-939.12" font-family="Times,serif" font-size="14.00">turbulence_κ:ΩC</text>
</g>
<!-- n27 -->
<g id="node27" class="node">
<title>n27</title>
<polygon fill="none" stroke="black" points="337.07,-835.79 283.07,-835.79 283.07,-820.79 337.07,-820.79 337.07,-835.79"/>
<text text-anchor="middle" x="310.07" y="-824.59" font-family="Times,serif" font-size="14.00">ΩC×Ω•</text>
</g>
<!-- n5&#45;&gt;n27 -->
<g id="edge18" class="edge">
<title>n5&#45;&gt;n27</title>
<path fill="none" stroke="black" stroke-dasharray="5,2" d="M184.76,-932.23C210.45,-911.12 271.65,-860.85 297.84,-839.34"/>
<polygon fill="black" stroke="black" points="299.27,-840.43 302.02,-835.9 297.05,-837.72 299.27,-840.43"/>
<text text-anchor="middle" x="237.57" y="-899.91" font-family="Times,serif" font-size="14.00">π₁</text>
</g>
<!-- n6 -->
<g id="node6" class="node">
<title>n6</title>
<ellipse fill="none" stroke="black" cx="384.07" cy="-942.82" rx="91.43" ry="10.71"/>
<text text-anchor="middle" x="384.07" y="-939.12" font-family="Times,serif" font-size="14.00">turbulence_nu:ΩC</text>
</g>
<!-- n26 -->
<g id="node26" class="node">
<title>n26</title>
<polygon fill="none" stroke="black" points="529.07,-835.79 475.07,-835.79 475.07,-820.79 529.07,-820.79 529.07,-835.79"/>
<text text-anchor="middle" x="502.07" y="-824.59" font-family="Times,serif" font-size="14.00">ΩC×Ω•</text>
</g>
<!-- n6&#45;&gt;n26 -->
<g id="edge15" class="edge">
<title>n6&#45;&gt;n26</title>
<path fill="none" stroke="black" stroke-dasharray="5,2" d="M318.11,-935.49C286.44,-929.31 257.92,-917.11 271.07,-893 286.52,-864.71 301.88,-865.06 332.07,-853.79 377.82,-836.72 434.59,-831.46 469.57,-829.89"/>
<polygon fill="black" stroke="black" points="470.07,-831.62 475,-829.67 469.93,-828.12 470.07,-831.62"/>
<text text-anchor="middle" x="278.57" y="-899.91" font-family="Times,serif" font-size="14.00">π₁</text>
</g>
<!-- n7&#45;&gt;n27 -->
<g id="edge19" class="edge">
<title>n7&#45;&gt;n27</title>
<path fill="none" stroke="black" stroke-dasharray="5,2" d="M374.4,-893.02C360.51,-879.26 335,-853.98 320.63,-839.75"/>
<polygon fill="black" stroke="black" points="321.67,-838.32 316.89,-836.04 319.21,-840.81 321.67,-838.32"/>
<text text-anchor="middle" x="362.57" y="-860.7" font-family="Times,serif" font-size="14.00">π₂</text>
</g>
<!-- n8&#45;&gt;n26 -->
<g id="edge16" class="edge">
<title>n8&#45;&gt;n26</title>
<path fill="none" stroke="black" stroke-dasharray="5,2" d="M984.95,-893.38C951.57,-882.02 891.81,-863.09 839.07,-853.79 781.11,-843.57 606.93,-834.31 534.36,-830.79"/>
<polygon fill="black" stroke="black" points="534.39,-829.04 529.31,-830.55 534.22,-832.54 534.39,-829.04"/>
<text text-anchor="middle" x="931.57" y="-860.7" font-family="Times,serif" font-size="14.00">π₂</text>
</g>
<!-- n9 -->
<g id="node9" class="node">
<title>n9</title>
<ellipse fill="none" stroke="black" cx="1248.07" cy="-982.04" rx="78.48" ry="10.71"/>
<text text-anchor="middle" x="1248.07" y="-978.34" font-family="Times,serif" font-size="14.00">continuity_C:Ω̃₀</text>
</g>
<!-- n23 -->
<g id="node23" class="node">
<title>n23</title>
<ellipse fill="none" stroke="black" cx="1312.07" cy="-903.61" rx="91.85" ry="10.71"/>
<text text-anchor="middle" x="1312.07" y="-899.91" font-family="Times,serif" font-size="14.00">continuity_•11:Ω•</text>
</g>
<!-- n9&#45;&gt;n23 -->
<g id="edge14" class="edge">
<title>n9&#45;&gt;n23</title>
<path fill="none" stroke="black" d="M1256.18,-971.36C1267.37,-957.99 1287.62,-933.81 1300.43,-918.51"/>
<polygon fill="black" stroke="black" points="1301.96,-919.41 1303.83,-914.45 1299.28,-917.16 1301.96,-919.41"/>
<text text-anchor="middle" x="1292.07" y="-939.12" font-family="Times,serif" font-size="14.00">d</text>
</g>
<!-- n10 -->
<g id="node10" class="node">
<title>n10</title>
<ellipse fill="none" stroke="black" cx="77.07" cy="-864.4" rx="77.15" ry="10.71"/>
<text text-anchor="middle" x="77.07" y="-860.7" font-family="Times,serif" font-size="14.00">continuity_F:Ω̃₀</text>
</g>
<!-- n35 -->
<g id="node35" class="node">
<title>n35</title>
<ellipse fill="none" stroke="black" cx="257.07" cy="-126.65" rx="13.37" ry="13.37"/>
<text text-anchor="middle" x="257.07" y="-122.95" font-family="Times,serif" font-size="14.00">Σ1</text>
</g>
<!-- n10&#45;&gt;n35 -->
<g id="edge44" class="edge">
<title>n10&#45;&gt;n35</title>
<path fill="none" stroke="black" stroke-dasharray="5,2" d="M91.01,-853.77C106.11,-842.09 128.07,-820.87 128.07,-796.29 128.07,-796.29 128.07,-796.29 128.07,-186.69 128.07,-139 201.88,-129.67 237.84,-127.96"/>
<polygon fill="black" stroke="black" points="238.34,-129.69 243.27,-127.75 238.2,-126.2 238.34,-129.69"/>
</g>
<!-- n11 -->
<g id="node11" class="node">
<title>n11</title>
<ellipse fill="none" stroke="black" cx="684.07" cy="-942.82" rx="77.15" ry="10.71"/>
<text text-anchor="middle" x="684.07" y="-939.12" font-family="Times,serif" font-size="14.00">continuity_V:Ω̃₁</text>
</g>
<!-- n30 -->
<g id="node30" class="node">
<title>n30</title>
<polygon fill="none" stroke="black" points="723.57,-835.79 674.57,-835.79 674.57,-820.79 723.57,-820.79 723.57,-835.79"/>
<text text-anchor="middle" x="699.07" y="-824.59" font-family="Times,serif" font-size="14.00">Ω̃₁×Ω•</text>
</g>
<!-- n11&#45;&gt;n30 -->
<g id="edge27" class="edge">
<title>n11&#45;&gt;n30</title>
<path fill="none" stroke="black" stroke-dasharray="5,2" d="M685.41,-931.84C688.18,-911.01 694.58,-863.04 697.53,-840.89"/>
<polygon fill="black" stroke="black" points="699.27,-841.03 698.2,-835.84 695.81,-840.57 699.27,-841.03"/>
<text text-anchor="middle" x="697.57" y="-899.91" font-family="Times,serif" font-size="14.00">π₁</text>
</g>
<!-- n25 -->
<g id="node25" class="node">
<title>n25</title>
</g>
<!-- n12&#45;&gt;n25 -->
<g id="edge8" class="edge">
<title>n12&#45;&gt;n25</title>
<path fill="none" stroke="black" d="M232.07,-40.97C232.07,-31.46 232.07,-17.21 232.07,-9.14"/>
<polygon fill="black" stroke="black" points="233.82,-9.06 232.07,-4.06 230.32,-9.06 233.82,-9.06"/>
</g>
<!-- n13 -->
<g id="node13" class="node">
<title>n13</title>
<ellipse fill="none" stroke="black" cx="330.07" cy="-187.69" rx="85.62" ry="10.71"/>
<text text-anchor="middle" x="330.07" y="-183.99" font-family="Times,serif" font-size="14.00">continuity_•2:Ω•</text>
</g>
<!-- n13&#45;&gt;n35 -->
<g id="edge43" class="edge">
<title>n13&#45;&gt;n35</title>
<path fill="none" stroke="black" stroke-dasharray="5,2" d="M318.02,-176.94C305.1,-166.49 284.62,-149.93 271.02,-138.93"/>
<polygon fill="black" stroke="black" points="272.02,-137.49 267.03,-135.7 269.82,-140.21 272.02,-137.49"/>
</g>
<!-- n14 -->
<g id="node14" class="node">
<title>n14</title>
<ellipse fill="none" stroke="black" cx="566.07" cy="-325.9" rx="85.62" ry="10.71"/>
<text text-anchor="middle" x="566.07" y="-322.2" font-family="Times,serif" font-size="14.00">continuity_•3:Ω•</text>
</g>
<!-- n14&#45;&gt;n34 -->
<g id="edge39" class="edge">
<title>n14&#45;&gt;n34</title>
<path fill="none" stroke="black" stroke-dasharray="5,2" d="M534.74,-315.99C488.37,-302.81 402.24,-278.32 357.95,-265.72"/>
<polygon fill="black" stroke="black" points="358.31,-264.01 353.03,-264.32 357.36,-267.37 358.31,-264.01"/>
<text text-anchor="middle" x="469.57" y="-286.1" font-family="Times,serif" font-size="14.00">π₁</text>
</g>
<!-- n15 -->
<g id="node15" class="node">
<title>n15</title>
<ellipse fill="none" stroke="black" cx="710.07" cy="-464.12" rx="85.62" ry="10.71"/>
<text text-anchor="middle" x="710.07" y="-460.42" font-family="Times,serif" font-size="14.00">continuity_•4:Ω•</text>
</g>
<!-- n33 -->
<g id="node33" class="node">
<title>n33</title>
<polygon fill="none" stroke="black" points="736.07,-402.51 684.07,-402.51 684.07,-387.51 736.07,-387.51 736.07,-402.51"/>
<text text-anchor="middle" x="710.07" y="-391.31" font-family="Times,serif" font-size="14.00">Ω•×Ω•</text>
</g>
<!-- n15&#45;&gt;n33 -->
<g id="edge36" class="edge">
<title>n15&#45;&gt;n33</title>
<path fill="none" stroke="black" stroke-dasharray="5,2" d="M710.07,-453.5C710.07,-441.45 710.07,-420.81 710.07,-407.81"/>
<polygon fill="black" stroke="black" points="711.82,-407.76 710.07,-402.76 708.32,-407.76 711.82,-407.76"/>
<text text-anchor="middle" x="717.57" y="-424.31" font-family="Times,serif" font-size="14.00">π₁</text>
</g>
<!-- n16 -->
<g id="node16" class="node">
<title>n16</title>
<ellipse fill="none" stroke="black" cx="821.07" cy="-608.54" rx="85.62" ry="10.71"/>
<text text-anchor="middle" x="821.07" y="-604.84" font-family="Times,serif" font-size="14.00">continuity_•5:Ω•</text>
</g>
<!-- n31 -->
<g id="node31" class="node">
<title>n31</title>
<polygon fill="none" stroke="black" points="736.07,-540.72 684.07,-540.72 684.07,-525.72 736.07,-525.72 736.07,-540.72"/>
<text text-anchor="middle" x="710.07" y="-529.52" font-family="Times,serif" font-size="14.00">Ω•×Ω•</text>
</g>
<!-- n16&#45;&gt;n31 -->
<g id="edge30" class="edge">
<title>n16&#45;&gt;n31</title>
<path fill="none" stroke="black" stroke-dasharray="5,2" d="M806.56,-597.96C785.17,-583.82 745.41,-557.56 724.22,-543.57"/>
<polygon fill="black" stroke="black" points="725.13,-542.07 720,-540.78 723.2,-544.99 725.13,-542.07"/>
<text text-anchor="middle" x="785.57" y="-565.63" font-family="Times,serif" font-size="14.00">π₁</text>
</g>
<!-- n17 -->
<g id="node17" class="node">
<title>n17</title>
<ellipse fill="none" stroke="black" cx="953.07" cy="-759.18" rx="27.65" ry="10.71"/>
<text text-anchor="middle" x="953.07" y="-755.48" font-family="Times,serif" font-size="14.00">&#45;1:ΩL</text>
</g>
<!-- n29 -->
<g id="node29" class="node">
<title>n29</title>
<polygon fill="none" stroke="black" points="848.07,-691.36 796.07,-691.36 796.07,-676.36 848.07,-676.36 848.07,-691.36"/>
<text text-anchor="middle" x="822.07" y="-680.16" font-family="Times,serif" font-size="14.00">ΩL×Ω•</text>
</g>
<!-- n17&#45;&gt;n29 -->
<g id="edge24" class="edge">
<title>n17&#45;&gt;n29</title>
<path fill="none" stroke="black" stroke-dasharray="5,2" d="M938.55,-750.06C913.97,-736.3 864.31,-708.5 838.5,-694.05"/>
<polygon fill="black" stroke="black" points="839.19,-692.43 833.97,-691.52 837.48,-695.49 839.19,-692.43"/>
<text text-anchor="middle" x="910.57" y="-716.27" font-family="Times,serif" font-size="14.00">π₁</text>
</g>
<!-- n18 -->
<g id="node18" class="node">
<title>n18</title>
<ellipse fill="none" stroke="black" cx="822.07" cy="-759.18" rx="85.62" ry="10.71"/>
<text text-anchor="middle" x="822.07" y="-755.48" font-family="Times,serif" font-size="14.00">continuity_•6:Ω•</text>
</g>
<!-- n18&#45;&gt;n29 -->
<g id="edge25" class="edge">
<title>n18&#45;&gt;n29</title>
<path fill="none" stroke="black" stroke-dasharray="5,2" d="M822.07,-748.29C822.07,-734.91 822.07,-711.04 822.07,-696.71"/>
<polygon fill="black" stroke="black" points="823.82,-696.55 822.07,-691.55 820.32,-696.55 823.82,-696.55"/>
<text text-anchor="middle" x="829.57" y="-716.27" font-family="Times,serif" font-size="14.00">π₂</text>
</g>
<!-- n19&#45;&gt;n28 -->
<g id="edge22" class="edge">
<title>n19&#45;&gt;n28</title>
<path fill="none" stroke="black" stroke-dasharray="5,2" d="M818.61,-892.72C819.34,-879.33 820.65,-855.47 821.43,-841.14"/>
<polygon fill="black" stroke="black" points="823.18,-841.07 821.71,-835.98 819.69,-840.88 823.18,-841.07"/>
<text text-anchor="middle" x="827.57" y="-860.7" font-family="Times,serif" font-size="14.00">π₂</text>
</g>
<!-- n20 -->
<g id="node20" class="node">
<title>n20</title>
<ellipse fill="none" stroke="black" cx="702.07" cy="-647.76" rx="85.62" ry="10.71"/>
<text text-anchor="middle" x="702.07" y="-644.06" font-family="Times,serif" font-size="14.00">continuity_•8:Ω•</text>
</g>
<!-- n20&#45;&gt;n31 -->
<g id="edge31" class="edge">
<title>n20&#45;&gt;n31</title>
<path fill="none" stroke="black" stroke-dasharray="5,2" d="M702.78,-636.77C704.27,-615.94 707.68,-567.97 709.25,-545.82"/>
<polygon fill="black" stroke="black" points="711,-545.89 709.61,-540.78 707.51,-545.64 711,-545.89"/>
<text text-anchor="middle" x="712.57" y="-604.84" font-family="Times,serif" font-size="14.00">π₂</text>
</g>
<!-- n21&#45;&gt;n30 -->
<g id="edge28" class="edge">
<title>n21&#45;&gt;n30</title>
<path fill="none" stroke="black" stroke-dasharray="5,2" d="M593.02,-893.02C616.64,-878.83 660.61,-852.41 683.82,-838.46"/>
<polygon fill="black" stroke="black" points="684.79,-839.92 688.17,-835.84 682.98,-836.92 684.79,-839.92"/>
<text text-anchor="middle" x="663.57" y="-860.7" font-family="Times,serif" font-size="14.00">π₂</text>
</g>
<!-- n22 -->
<g id="node22" class="node">
<title>n22</title>
<ellipse fill="none" stroke="black" cx="949.07" cy="-569.33" rx="91.85" ry="10.71"/>
<text text-anchor="middle" x="949.07" y="-565.63" font-family="Times,serif" font-size="14.00">continuity_•10:Ω•</text>
</g>
<!-- n22&#45;&gt;n33 -->
<g id="edge37" class="edge">
<title>n22&#45;&gt;n33</title>
<path fill="none" stroke="black" stroke-dasharray="5,2" d="M937.89,-558.58C914.17,-538.11 856.75,-489.53 805.07,-453.51 778.54,-435.01 745.98,-416.06 726.69,-405.2"/>
<polygon fill="black" stroke="black" points="727.3,-403.54 722.08,-402.62 725.59,-406.59 727.3,-403.54"/>
<text text-anchor="middle" x="883.57" y="-496.52" font-family="Times,serif" font-size="14.00">π₂</text>
</g>
<!-- n23&#45;&gt;n32 -->
<g id="edge34" class="edge">
<title>n23&#45;&gt;n32</title>
<path fill="none" stroke="black" stroke-dasharray="5,2" d="M1295.73,-893.02C1271.54,-878.83 1226.49,-852.41 1202.71,-838.46"/>
<polygon fill="black" stroke="black" points="1203.44,-836.86 1198.25,-835.84 1201.67,-839.88 1203.44,-836.86"/>
<text text-anchor="middle" x="1271.57" y="-860.7" font-family="Times,serif" font-size="14.00">π₂</text>
</g>
<!-- n24 -->
<g id="node24" class="node">
<title>n24</title>
</g>
<!-- n24&#45;&gt;n1 -->
<g id="edge1" class="edge">
<title>n24&#45;&gt;n1</title>
<path fill="none" stroke="black" d="M547.38,-1030.43C579.44,-1027.48 936.71,-994.58 1036.39,-985.4"/>
<polygon fill="black" stroke="black" points="1036.67,-987.13 1041.49,-984.93 1036.35,-983.65 1036.67,-987.13"/>
</g>
<!-- n24&#45;&gt;n2 -->
<g id="edge2" class="edge">
<title>n24&#45;&gt;n2</title>
<path fill="none" stroke="black" d="M545.07,-1029.46C545.07,-1025.14 545.07,-1009.79 545.07,-997.9"/>
<polygon fill="black" stroke="black" points="546.82,-997.74 545.07,-992.74 543.32,-997.74 546.82,-997.74"/>
</g>
<!-- n24&#45;&gt;n5 -->
<g id="edge3" class="edge">
<title>n24&#45;&gt;n5</title>
<path fill="none" stroke="black" d="M543.07,-1030.17C520.17,-1024.83 306.78,-975.03 214.86,-953.57"/>
<polygon fill="black" stroke="black" points="215.05,-951.82 209.78,-952.39 214.25,-955.23 215.05,-951.82"/>
</g>
<!-- n24&#45;&gt;n6 -->
<g id="edge4" class="edge">
<title>n24&#45;&gt;n6</title>
<path fill="none" stroke="black" d="M543.04,-1029.54C529.08,-1022.02 446.88,-977.69 406.48,-955.9"/>
<polygon fill="black" stroke="black" points="407,-954.19 401.76,-953.36 405.33,-957.27 407,-954.19"/>
</g>
<!-- n24&#45;&gt;n9 -->
<g id="edge5" class="edge">
<title>n24&#45;&gt;n9</title>
<path fill="none" stroke="black" d="M547.09,-1030.51C579.87,-1028.29 1003.46,-999.6 1175.84,-987.93"/>
<polygon fill="black" stroke="black" points="1176,-989.67 1180.87,-987.59 1175.76,-986.18 1176,-989.67"/>
</g>
<!-- n24&#45;&gt;n10 -->
<g id="edge6" class="edge">
<title>n24&#45;&gt;n10</title>
<path fill="none" stroke="black" d="M542.98,-1030.63C512.32,-1030.38 154.12,-1025.97 87.07,-953.43 68.75,-933.6 70.85,-899.59 73.98,-880.15"/>
<polygon fill="black" stroke="black" points="75.73,-880.31 74.88,-875.08 72.29,-879.7 75.73,-880.31"/>
</g>
<!-- n24&#45;&gt;n11 -->
<g id="edge7" class="edge">
<title>n24&#45;&gt;n11</title>
<path fill="none" stroke="black" d="M547.04,-1029.41C559.64,-1021.54 629.67,-977.8 664.46,-956.08"/>
<polygon fill="black" stroke="black" points="665.61,-957.42 668.92,-953.29 663.75,-954.45 665.61,-957.42"/>
</g>
<!-- n26&#45;&gt;n3 -->
<g id="edge17" class="edge">
<title>n26&#45;&gt;n3</title>
<path fill="none" stroke="black" d="M502.07,-820.61C502.07,-810.07 502.07,-789.33 502.07,-775.12"/>
<polygon fill="black" stroke="black" points="503.82,-774.84 502.07,-769.84 500.32,-774.84 503.82,-774.84"/>
<text text-anchor="middle" x="505.57" y="-791.59" font-family="Times,serif" font-size="14.00">*</text>
</g>
<!-- n27&#45;&gt;n4 -->
<g id="edge20" class="edge">
<title>n27&#45;&gt;n4</title>
<path fill="none" stroke="black" d="M310.26,-820.64C310.74,-803.8 312,-759.18 312.66,-735.78"/>
<polygon fill="black" stroke="black" points="314.41,-735.63 312.8,-730.58 310.91,-735.53 314.41,-735.63"/>
<text text-anchor="middle" x="315.57" y="-791.59" font-family="Times,serif" font-size="14.00">*</text>
</g>
<!-- n28&#45;&gt;n18 -->
<g id="edge23" class="edge">
<title>n28&#45;&gt;n18</title>
<path fill="none" stroke="black" d="M822.07,-820.61C822.07,-810.07 822.07,-789.33 822.07,-775.12"/>
<polygon fill="black" stroke="black" points="823.82,-774.84 822.07,-769.84 820.32,-774.84 823.82,-774.84"/>
<text text-anchor="middle" x="830.07" y="-791.59" font-family="Times,serif" font-size="14.00">ι₁₁</text>
</g>
<!-- n29&#45;&gt;n16 -->
<g id="edge26" class="edge">
<title>n29&#45;&gt;n16</title>
<path fill="none" stroke="black" d="M821.98,-676.1C821.82,-664.48 821.5,-640.46 821.28,-624.68"/>
<polygon fill="black" stroke="black" points="823.03,-624.25 821.21,-619.28 819.53,-624.3 823.03,-624.25"/>
<text text-anchor="middle" x="824.57" y="-644.06" font-family="Times,serif" font-size="14.00">*</text>
</g>
<!-- n30&#45;&gt;n20 -->
<g id="edge29" class="edge">
<title>n30&#45;&gt;n20</title>
<path fill="none" stroke="black" d="M699.19,-820.51C699.63,-794.51 701.2,-700.81 701.82,-663.88"/>
<polygon fill="black" stroke="black" points="703.58,-663.48 701.91,-658.45 700.08,-663.42 703.58,-663.48"/>
<text text-anchor="middle" x="708.07" y="-755.48" font-family="Times,serif" font-size="14.00">ι₁₁</text>
</g>
<!-- n31&#45;&gt;n15 -->
<g id="edge32" class="edge">
<title>n31&#45;&gt;n15</title>
<path fill="none" stroke="black" d="M710.07,-525.54C710.07,-515.01 710.07,-494.27 710.07,-480.05"/>
<polygon fill="black" stroke="black" points="711.82,-479.78 710.07,-474.78 708.32,-479.78 711.82,-479.78"/>
<text text-anchor="middle" x="712.57" y="-496.52" font-family="Times,serif" font-size="14.00">&#45;</text>
</g>
<!-- n32&#45;&gt;n22 -->
<g id="edge35" class="edge">
<title>n32&#45;&gt;n22</title>
<path fill="none" stroke="black" d="M1163.95,-820.72C1137.88,-811.72 1099.07,-792.84 1099.07,-760.18 1099.07,-760.18 1099.07,-760.18 1099.07,-646.76 1099.07,-606.62 1055.91,-587.55 1015.89,-578.5"/>
<polygon fill="black" stroke="black" points="1015.78,-576.68 1010.52,-577.34 1015.04,-580.1 1015.78,-576.68"/>
<text text-anchor="middle" x="1107.07" y="-716.27" font-family="Times,serif" font-size="14.00">ι₁₁</text>
</g>
<!-- n33&#45;&gt;n14 -->
<g id="edge38" class="edge">
<title>n33&#45;&gt;n14</title>
<path fill="none" stroke="black" d="M696.01,-387.45C671.69,-376.12 621.49,-352.73 591.1,-338.57"/>
<polygon fill="black" stroke="black" points="591.67,-336.9 586.4,-336.37 590.19,-340.07 591.67,-336.9"/>
<text text-anchor="middle" x="657.57" y="-358.31" font-family="Times,serif" font-size="14.00">&#45;</text>
</g>
<!-- n34&#45;&gt;n13 -->
<g id="edge41" class="edge">
<title>n34&#45;&gt;n13</title>
<path fill="none" stroke="black" d="M330.07,-249.12C330.07,-238.58 330.07,-217.84 330.07,-203.63"/>
<polygon fill="black" stroke="black" points="331.82,-203.35 330.07,-198.35 328.32,-203.35 331.82,-203.35"/>
<text text-anchor="middle" x="332.57" y="-220.1" font-family="Times,serif" font-size="14.00">&#45;</text>
</g>
<!-- n35&#45;&gt;n12 -->
<g id="edge42" class="edge">
<title>n35&#45;&gt;n12</title>
<path fill="none" stroke="black" d="M252.95,-113.59C248.64,-101 241.87,-81.23 237.22,-67.63"/>
<polygon fill="black" stroke="black" points="238.76,-66.74 235.49,-62.57 235.45,-67.87 238.76,-66.74"/>
<text text-anchor="middle" x="252.57" y="-84.01" font-family="Times,serif" font-size="14.00">+</text>
</g>
</g>
</svg>
