<?xml version="1.0" encoding="UTF-8" standalone="no"?>
<!DOCTYPE svg PUBLIC "-//W3C//DTD SVG 1.1//EN"
 "http://www.w3.org/Graphics/SVG/1.1/DTD/svg11.dtd">
<!-- Generated by graphviz version 2.43.0 (0)
 -->
<!-- Title: G Pages: 1 -->
<svg width="1083pt" height="1647pt"
 viewBox="0.00 0.00 1083.16 1647.17" xmlns="http://www.w3.org/2000/svg" xmlns:xlink="http://www.w3.org/1999/xlink">
<g id="graph0" class="graph" transform="scale(1 1) rotate(0) translate(4 1643.17)">
<title>G</title>
<polygon fill="white" stroke="transparent" points="-4,4 -4,-1643.17 1079.16,-1643.17 1079.16,4 -4,4"/>
<!-- n1 -->
<g id="node1" class="node">
<title>n1</title>
<ellipse fill="none" stroke="black" cx="549" cy="-1587.56" rx="21.43" ry="10.71"/>
<text text-anchor="middle" x="549" y="-1583.86" font-family="Times,serif" font-size="14.00">v:Ω̃₁</text>
</g>
<!-- n11 -->
<g id="node11" class="node">
<title>n11</title>
<ellipse fill="none" stroke="black" cx="904" cy="-51.61" rx="23.17" ry="10.71"/>
<text text-anchor="middle" x="904" y="-47.91" font-family="Times,serif" font-size="14.00">v̇:Ω•</text>
</g>
<!-- n1&#45;&gt;n11 -->
<g id="edge12" class="edge">
<title>n1&#45;&gt;n11</title>
<path fill="none" stroke="black" d="M569.56,-1584.91C604.28,-1581.74 672.55,-1573.78 691,-1558.96 723.11,-1533.15 736,-1446.97 736,-1392.5 736,-1392.5 736,-1392.5 736,-773.52 736,-704.19 812,-706.63 812,-637.31 812,-637.31 812,-637.31 812,-497.09 812,-428.59 888,-431.51 888,-363.01 888,-363.01 888,-363.01 888,-125.65 888,-105.07 894.14,-81.97 898.81,-67.36"/>
<polygon fill="black" stroke="black" points="900.55,-67.68 900.45,-62.38 897.22,-66.58 900.55,-67.68"/>
<text text-anchor="middle" x="742" y="-770.82" font-family="Times,serif" font-size="14.00">∂ₜ</text>
</g>
<!-- n28 -->
<g id="node28" class="node">
<title>n28</title>
<ellipse fill="none" stroke="black" cx="471" cy="-1509.14" rx="36.12" ry="10.71"/>
<text text-anchor="middle" x="471" y="-1505.44" font-family="Times,serif" font-size="14.00">•16:Ω•</text>
</g>
<!-- n1&#45;&gt;n28 -->
<g id="edge17" class="edge">
<title>n1&#45;&gt;n28</title>
<path fill="none" stroke="black" d="M538.3,-1578.2C531.69,-1572.89 523.14,-1565.76 516,-1558.96 504.07,-1547.58 491.42,-1533.68 482.59,-1523.63"/>
<polygon fill="black" stroke="black" points="483.89,-1522.45 479.28,-1519.84 481.25,-1524.76 483.89,-1522.45"/>
<text text-anchor="middle" x="521" y="-1544.65" font-family="Times,serif" font-size="14.00">d</text>
</g>
<!-- n38 -->
<g id="node38" class="node">
<title>n38</title>
<polygon fill="none" stroke="black" points="635,-1516.64 589,-1516.64 589,-1501.64 635,-1501.64 635,-1516.64"/>
<text text-anchor="middle" x="612" y="-1505.44" font-family="Times,serif" font-size="14.00">Ω̃₁×Ω̃₁</text>
</g>
<!-- n1&#45;&gt;n38 -->
<g id="edge20" class="edge">
<title>n1&#45;&gt;n38</title>
<path fill="none" stroke="black" stroke-dasharray="5,2" d="M561.31,-1578.62C568.51,-1573.58 577.43,-1566.58 584,-1558.96 593.98,-1547.39 602.22,-1531.73 607.12,-1521.3"/>
<polygon fill="black" stroke="black" points="608.76,-1521.92 609.25,-1516.64 605.58,-1520.46 608.76,-1521.92"/>
<text text-anchor="middle" x="606.5" y="-1544.65" font-family="Times,serif" font-size="14.00">π₁</text>
</g>
<!-- n1&#45;&gt;n38 -->
<g id="edge21" class="edge">
<title>n1&#45;&gt;n38</title>
<path fill="none" stroke="black" stroke-dasharray="5,2" d="M550.16,-1576.59C551.84,-1565.97 555.82,-1549.13 565,-1537.74 571.51,-1529.66 581.07,-1523.44 589.87,-1518.96"/>
<polygon fill="black" stroke="black" points="590.92,-1520.4 594.66,-1516.66 589.4,-1517.25 590.92,-1520.4"/>
<text text-anchor="middle" x="572.5" y="-1544.65" font-family="Times,serif" font-size="14.00">π₂</text>
</g>
<!-- n39 -->
<g id="node39" class="node">
<title>n39</title>
<polygon fill="none" stroke="black" points="699,-1516.64 653,-1516.64 653,-1501.64 699,-1501.64 699,-1516.64"/>
<text text-anchor="middle" x="676" y="-1505.44" font-family="Times,serif" font-size="14.00">Ω̃₁×Ω̃₁</text>
</g>
<!-- n1&#45;&gt;n39 -->
<g id="edge23" class="edge">
<title>n1&#45;&gt;n39</title>
<path fill="none" stroke="black" stroke-dasharray="5,2" d="M566.44,-1581.31C580.84,-1576.57 601.51,-1568.84 618,-1558.96 627.72,-1553.13 650.6,-1533.06 664.55,-1520.54"/>
<polygon fill="black" stroke="black" points="666.02,-1521.56 668.56,-1516.92 663.67,-1518.96 666.02,-1521.56"/>
<text text-anchor="middle" x="652.5" y="-1544.65" font-family="Times,serif" font-size="14.00">π₁</text>
</g>
<!-- n1&#45;&gt;n39 -->
<g id="edge24" class="edge">
<title>n1&#45;&gt;n39</title>
<path fill="none" stroke="black" stroke-dasharray="5,2" d="M570.23,-1587.08C594.92,-1586.52 635.42,-1581.81 660,-1558.96 670.33,-1549.36 674,-1532.99 675.3,-1521.88"/>
<polygon fill="black" stroke="black" points="677.04,-1522.04 675.77,-1516.9 673.56,-1521.71 677.04,-1522.04"/>
<text text-anchor="middle" x="679.5" y="-1544.65" font-family="Times,serif" font-size="14.00">π₂</text>
</g>
<!-- n41 -->
<g id="node41" class="node">
<title>n41</title>
<polygon fill="none" stroke="black" points="571,-1516.64 525,-1516.64 525,-1501.64 571,-1501.64 571,-1516.64"/>
<text text-anchor="middle" x="548" y="-1505.44" font-family="Times,serif" font-size="14.00">Ω̃₁×Ω̃₁</text>
</g>
<!-- n1&#45;&gt;n41 -->
<g id="edge29" class="edge">
<title>n1&#45;&gt;n41</title>
<path fill="none" stroke="black" stroke-dasharray="5,2" d="M541.19,-1577.54C537.31,-1572.45 533.02,-1565.76 531,-1558.96 528.31,-1549.92 528.43,-1546.82 531,-1537.74 532.69,-1531.77 536.08,-1525.83 539.39,-1520.99"/>
<polygon fill="black" stroke="black" points="540.84,-1521.97 542.35,-1516.89 538,-1519.91 540.84,-1521.97"/>
<text text-anchor="middle" x="538.5" y="-1544.65" font-family="Times,serif" font-size="14.00">π₁</text>
</g>
<!-- n43 -->
<g id="node43" class="node">
<title>n43</title>
<polygon fill="none" stroke="black" points="330.5,-1438.21 281.5,-1438.21 281.5,-1423.21 330.5,-1423.21 330.5,-1438.21"/>
<text text-anchor="middle" x="306" y="-1427.01" font-family="Times,serif" font-size="14.00">Ω̃₁×Ω•</text>
</g>
<!-- n1&#45;&gt;n43 -->
<g id="edge35" class="edge">
<title>n1&#45;&gt;n43</title>
<path fill="none" stroke="black" stroke-dasharray="5,2" d="M528.32,-1585.19C502.46,-1582.78 457.41,-1576.27 423,-1558.96 368.97,-1531.77 327.49,-1468.51 312.29,-1442.84"/>
<polygon fill="black" stroke="black" points="313.63,-1441.67 309.61,-1438.23 310.61,-1443.43 313.63,-1441.67"/>
<text text-anchor="middle" x="377.5" y="-1505.44" font-family="Times,serif" font-size="14.00">π₁</text>
</g>
<!-- n46 -->
<g id="node46" class="node">
<title>n46</title>
<polygon fill="none" stroke="black" points="339.5,-1284.47 290.5,-1284.47 290.5,-1269.47 339.5,-1269.47 339.5,-1284.47"/>
<text text-anchor="middle" x="315" y="-1273.27" font-family="Times,serif" font-size="14.00">Ω•×Ω̃₁</text>
</g>
<!-- n1&#45;&gt;n46 -->
<g id="edge45" class="edge">
<title>n1&#45;&gt;n46</title>
<path fill="none" stroke="black" stroke-dasharray="5,2" d="M532.07,-1580.76C506.53,-1571.31 457.76,-1550.52 426,-1519.74 354.87,-1450.82 325.02,-1327.7 317.2,-1289.56"/>
<polygon fill="black" stroke="black" points="318.9,-1289.12 316.21,-1284.56 315.47,-1289.81 318.9,-1289.12"/>
<text text-anchor="middle" x="377.5" y="-1427.01" font-family="Times,serif" font-size="14.00">π₂</text>
</g>
<!-- n2 -->
<g id="node2" class="node">
<title>n2</title>
<ellipse fill="none" stroke="black" cx="355" cy="-1587.56" rx="21.84" ry="10.71"/>
<text text-anchor="middle" x="355" y="-1583.86" font-family="Times,serif" font-size="14.00">V:Ω̃₁</text>
</g>
<!-- n26 -->
<g id="node26" class="node">
<title>n26</title>
<ellipse fill="none" stroke="black" cx="241" cy="-1509.14" rx="36.12" ry="10.71"/>
<text text-anchor="middle" x="241" y="-1505.44" font-family="Times,serif" font-size="14.00">•14:Ω•</text>
</g>
<!-- n2&#45;&gt;n26 -->
<g id="edge16" class="edge">
<title>n2&#45;&gt;n26</title>
<path fill="none" stroke="black" d="M337.23,-1581.28C323.37,-1576.67 304.02,-1569.12 289,-1558.96 274.57,-1549.19 260.94,-1534.61 251.91,-1523.92"/>
<polygon fill="black" stroke="black" points="253.11,-1522.63 248.57,-1519.9 250.41,-1524.86 253.11,-1522.63"/>
<text text-anchor="middle" x="294" y="-1544.65" font-family="Times,serif" font-size="14.00">d</text>
</g>
<!-- n2&#45;&gt;n41 -->
<g id="edge30" class="edge">
<title>n2&#45;&gt;n41</title>
<path fill="none" stroke="black" stroke-dasharray="5,2" d="M370.77,-1580.19C394,-1570.83 438.8,-1552.81 477,-1537.74 493.44,-1531.26 512.05,-1524.03 526.1,-1518.59"/>
<polygon fill="black" stroke="black" points="527.02,-1520.11 531.05,-1516.67 525.76,-1516.84 527.02,-1520.11"/>
<text text-anchor="middle" x="484.5" y="-1544.65" font-family="Times,serif" font-size="14.00">π₂</text>
</g>
<!-- n44 -->
<g id="node44" class="node">
<title>n44</title>
<polygon fill="none" stroke="black" points="449.5,-1438.21 400.5,-1438.21 400.5,-1423.21 449.5,-1423.21 449.5,-1438.21"/>
<text text-anchor="middle" x="425" y="-1427.01" font-family="Times,serif" font-size="14.00">Ω̃₁×Ω•</text>
</g>
<!-- n2&#45;&gt;n44 -->
<g id="edge38" class="edge">
<title>n2&#45;&gt;n44</title>
<path fill="none" stroke="black" stroke-dasharray="5,2" d="M347.54,-1577.4C335.08,-1560.91 312.76,-1525.47 327,-1498.53 342.54,-1469.13 377.48,-1450.23 401.15,-1440.28"/>
<polygon fill="black" stroke="black" points="402.06,-1441.81 406.02,-1438.3 400.73,-1438.56 402.06,-1441.81"/>
<text text-anchor="middle" x="334.5" y="-1505.44" font-family="Times,serif" font-size="14.00">π₁</text>
</g>
<!-- n3 -->
<g id="node3" class="node">
<title>n3</title>
<ellipse fill="none" stroke="black" cx="237" cy="-1548.35" rx="19.18" ry="10.71"/>
<text text-anchor="middle" x="237" y="-1544.65" font-family="Times,serif" font-size="14.00">f:Ω₀</text>
</g>
<!-- n45 -->
<g id="node45" class="node">
<title>n45</title>
<polygon fill="none" stroke="black" points="196.5,-1438.21 147.5,-1438.21 147.5,-1423.21 196.5,-1423.21 196.5,-1438.21"/>
<text text-anchor="middle" x="172" y="-1427.01" font-family="Times,serif" font-size="14.00">Ω₀×Ω•</text>
</g>
<!-- n3&#45;&gt;n45 -->
<g id="edge41" class="edge">
<title>n3&#45;&gt;n45</title>
<path fill="none" stroke="black" stroke-dasharray="5,2" d="M221.92,-1541.83C207.1,-1536.09 186.01,-1526.95 181,-1519.74 164.95,-1496.65 167.25,-1461.57 169.87,-1443.45"/>
<polygon fill="black" stroke="black" points="171.61,-1443.62 170.67,-1438.41 168.16,-1443.07 171.61,-1443.62"/>
<text text-anchor="middle" x="188.5" y="-1505.44" font-family="Times,serif" font-size="14.00">π₁</text>
</g>
<!-- n4 -->
<g id="node4" class="node">
<title>n4</title>
<ellipse fill="none" stroke="black" cx="225" cy="-1587.56" rx="25" ry="10.71"/>
<text text-anchor="middle" x="225" y="-1583.86" font-family="Times,serif" font-size="14.00">uˢ:Ω̃₁</text>
</g>
<!-- n32 -->
<g id="node32" class="node">
<title>n32</title>
<ellipse fill="none" stroke="black" cx="100" cy="-1509.14" rx="36.12" ry="10.71"/>
<text text-anchor="middle" x="100" y="-1505.44" font-family="Times,serif" font-size="14.00">•19:Ω•</text>
</g>
<!-- n4&#45;&gt;n32 -->
<g id="edge18" class="edge">
<title>n4&#45;&gt;n32</title>
<path fill="none" stroke="black" d="M211.62,-1578.39C189.33,-1564.75 144.51,-1537.35 118.97,-1521.73"/>
<polygon fill="black" stroke="black" points="119.61,-1520.08 114.43,-1518.96 117.78,-1523.06 119.61,-1520.08"/>
<text text-anchor="middle" x="189.5" y="-1544.65" font-family="Times,serif" font-size="14.00">d⋅⋆</text>
</g>
<!-- n5 -->
<g id="node5" class="node">
<title>n5</title>
<ellipse fill="none" stroke="black" cx="968" cy="-1548.35" rx="34.8" ry="10.71"/>
<text text-anchor="middle" x="968" y="-1544.65" font-family="Times,serif" font-size="14.00">∂tuˢ:Ω̃₁</text>
</g>
<!-- n54 -->
<g id="node54" class="node">
<title>n54</title>
<ellipse fill="none" stroke="black" cx="960" cy="-126.65" rx="13.37" ry="13.37"/>
<text text-anchor="middle" x="960" y="-122.95" font-family="Times,serif" font-size="14.00">Σ4</text>
</g>
<!-- n5&#45;&gt;n54 -->
<g id="edge71" class="edge">
<title>n5&#45;&gt;n54</title>
<path fill="none" stroke="black" stroke-dasharray="5,2" d="M976.88,-1537.81C988.66,-1524.12 1008,-1497.58 1008,-1470.92 1008,-1470.92 1008,-1470.92 1008,-186.69 1008,-165.62 989.37,-147.89 975.32,-137.51"/>
<polygon fill="black" stroke="black" points="976.22,-136 971.13,-134.53 974.19,-138.86 976.22,-136"/>
</g>
<!-- n6 -->
<g id="node6" class="node">
<title>n6</title>
<ellipse fill="none" stroke="black" cx="708" cy="-1587.56" rx="21.84" ry="10.71"/>
<text text-anchor="middle" x="708" y="-1583.86" font-family="Times,serif" font-size="14.00">p:Ω̃₀</text>
</g>
<!-- n33 -->
<g id="node33" class="node">
<title>n33</title>
<ellipse fill="none" stroke="black" cx="787" cy="-1313.07" rx="36.12" ry="10.71"/>
<text text-anchor="middle" x="787" y="-1309.37" font-family="Times,serif" font-size="14.00">•20:Ω•</text>
</g>
<!-- n6&#45;&gt;n33 -->
<g id="edge19" class="edge">
<title>n6&#45;&gt;n33</title>
<path fill="none" stroke="black" d="M722.08,-1579.23C729.77,-1574.48 738.77,-1567.58 744,-1558.96 756.07,-1539.06 778.32,-1378.92 785.03,-1328.93"/>
<polygon fill="black" stroke="black" points="786.77,-1329.1 785.7,-1323.91 783.3,-1328.64 786.77,-1329.1"/>
<text text-anchor="middle" x="771" y="-1466.22" font-family="Times,serif" font-size="14.00">d</text>
</g>
<!-- n7 -->
<g id="node7" class="node">
<title>n7</title>
<ellipse fill="none" stroke="black" cx="124" cy="-1587.56" rx="21.84" ry="10.71"/>
<text text-anchor="middle" x="124" y="-1583.86" font-family="Times,serif" font-size="14.00">b:Ω̃₀</text>
</g>
<!-- n49 -->
<g id="node49" class="node">
<title>n49</title>
<polygon fill="none" stroke="black" points="46,-1516.64 0,-1516.64 0,-1501.64 46,-1501.64 46,-1516.64"/>
<text text-anchor="middle" x="23" y="-1505.44" font-family="Times,serif" font-size="14.00">Ω̃₀×Ω̃₁</text>
</g>
<!-- n7&#45;&gt;n49 -->
<g id="edge53" class="edge">
<title>n7&#45;&gt;n49</title>
<path fill="none" stroke="black" stroke-dasharray="5,2" d="M112.81,-1578.09C93.9,-1563.78 55.75,-1534.92 35.8,-1519.83"/>
<polygon fill="black" stroke="black" points="36.65,-1518.27 31.61,-1516.65 34.54,-1521.06 36.65,-1518.27"/>
<text text-anchor="middle" x="93.5" y="-1544.65" font-family="Times,serif" font-size="14.00">π₁</text>
</g>
<!-- n8 -->
<g id="node8" class="node">
<title>n8</title>
<ellipse fill="none" stroke="black" cx="40" cy="-1587.56" rx="21.84" ry="10.71"/>
<text text-anchor="middle" x="40" y="-1583.86" font-family="Times,serif" font-size="14.00">ĝ:Ω̃₁</text>
</g>
<!-- n8&#45;&gt;n49 -->
<g id="edge54" class="edge">
<title>n8&#45;&gt;n49</title>
<path fill="none" stroke="black" stroke-dasharray="5,2" d="M37.85,-1576.88C34.73,-1562.86 28.96,-1536.93 25.6,-1521.85"/>
<polygon fill="black" stroke="black" points="27.28,-1521.32 24.49,-1516.82 23.86,-1522.08 27.28,-1521.32"/>
<text text-anchor="middle" x="41.5" y="-1544.65" font-family="Times,serif" font-size="14.00">π₂</text>
</g>
<!-- n9 -->
<g id="node9" class="node">
<title>n9</title>
<ellipse fill="none" stroke="black" cx="1049" cy="-1391.5" rx="26.33" ry="10.71"/>
<text text-anchor="middle" x="1049" y="-1387.8" font-family="Times,serif" font-size="14.00">Fᵥ:Ω̃₁</text>
</g>
<!-- n9&#45;&gt;n54 -->
<g id="edge72" class="edge">
<title>n9&#45;&gt;n54</title>
<path fill="none" stroke="black" stroke-dasharray="5,2" d="M1048.58,-1380.61C1047.99,-1366.04 1047,-1337.96 1047,-1314.07 1047,-1314.07 1047,-1314.07 1047,-186.69 1047,-153.8 1003.9,-137.96 978.37,-131.46"/>
<polygon fill="black" stroke="black" points="978.48,-129.69 973.21,-130.21 977.66,-133.09 978.48,-129.69"/>
</g>
<!-- n10 -->
<g id="node10" class="node">
<title>n10</title>
<ellipse fill="none" stroke="black" cx="888" cy="-1469.92" rx="104.8" ry="10.71"/>
<text text-anchor="middle" x="888" y="-1466.22" font-family="Times,serif" font-size="14.00">StressDivergence:Ω̃₁</text>
</g>
<!-- n50 -->
<g id="node50" class="node">
<title>n50</title>
<polygon fill="none" stroke="black" points="854.5,-264.3 805.5,-264.3 805.5,-249.3 854.5,-249.3 854.5,-264.3"/>
<text text-anchor="middle" x="830" y="-253.1" font-family="Times,serif" font-size="14.00">Ω•×Ω̃₁</text>
</g>
<!-- n10&#45;&gt;n50 -->
<g id="edge57" class="edge">
<title>n10&#45;&gt;n50</title>
<path fill="none" stroke="black" stroke-dasharray="5,2" d="M879.57,-1459.31C868.37,-1445.52 850,-1418.87 850,-1392.5 850,-1392.5 850,-1392.5 850,-324.9 850,-304.73 841.59,-282.51 835.68,-269.37"/>
<polygon fill="black" stroke="black" points="837.18,-268.44 833.48,-264.65 834.01,-269.92 837.18,-268.44"/>
<text text-anchor="middle" x="857.5" y="-848.69" font-family="Times,serif" font-size="14.00">π₂</text>
</g>
<!-- n37 -->
<g id="node37" class="node">
<title>n37</title>
</g>
<!-- n11&#45;&gt;n37 -->
<g id="edge11" class="edge">
<title>n11&#45;&gt;n37</title>
<path fill="none" stroke="black" d="M904,-40.97C904,-31.46 904,-17.21 904,-9.14"/>
<polygon fill="black" stroke="black" points="905.75,-9.06 904,-4.06 902.25,-9.06 905.75,-9.06"/>
</g>
<!-- n12 -->
<g id="node12" class="node">
<title>n12</title>
<ellipse fill="none" stroke="black" cx="830" cy="-187.69" rx="29.9" ry="10.71"/>
<text text-anchor="middle" x="830" y="-183.99" font-family="Times,serif" font-size="14.00">•2:Ω•</text>
</g>
<!-- n12&#45;&gt;n54 -->
<g id="edge70" class="edge">
<title>n12&#45;&gt;n54</title>
<path fill="none" stroke="black" stroke-dasharray="5,2" d="M847,-178.97C872.03,-167.6 918.53,-146.48 943.36,-135.21"/>
<polygon fill="black" stroke="black" points="944.2,-136.75 948.02,-133.09 942.75,-133.56 944.2,-136.75"/>
</g>
<!-- n13 -->
<g id="node13" class="node">
<title>n13</title>
<ellipse fill="none" stroke="black" cx="735" cy="-461.99" rx="29.9" ry="10.71"/>
<text text-anchor="middle" x="735" y="-458.29" font-family="Times,serif" font-size="14.00">•3:Ω•</text>
</g>
<!-- n53 -->
<g id="node53" class="node">
<title>n53</title>
<ellipse fill="none" stroke="black" cx="735" cy="-400.94" rx="13.37" ry="13.37"/>
<text text-anchor="middle" x="735" y="-397.24" font-family="Times,serif" font-size="14.00">Σ3</text>
</g>
<!-- n13&#45;&gt;n53 -->
<g id="edge68" class="edge">
<title>n13&#45;&gt;n53</title>
<path fill="none" stroke="black" stroke-dasharray="5,2" d="M735,-451.24C735,-442.65 735,-429.92 735,-419.55"/>
<polygon fill="black" stroke="black" points="736.75,-419.38 735,-414.38 733.25,-419.38 736.75,-419.38"/>
</g>
<!-- n14 -->
<g id="node14" class="node">
<title>n14</title>
<ellipse fill="none" stroke="black" cx="571" cy="-600.2" rx="29.9" ry="10.71"/>
<text text-anchor="middle" x="571" y="-596.5" font-family="Times,serif" font-size="14.00">•4:Ω•</text>
</g>
<!-- n48 -->
<g id="node48" class="node">
<title>n48</title>
<polygon fill="none" stroke="black" points="761,-538.59 709,-538.59 709,-523.59 761,-523.59 761,-538.59"/>
<text text-anchor="middle" x="735" y="-527.39" font-family="Times,serif" font-size="14.00">Ω•×Ω•</text>
</g>
<!-- n14&#45;&gt;n48 -->
<g id="edge50" class="edge">
<title>n14&#45;&gt;n48</title>
<path fill="none" stroke="black" stroke-dasharray="5,2" d="M589.18,-591.76C619.73,-579.26 681.23,-554.09 713.74,-540.79"/>
<polygon fill="black" stroke="black" points="714.74,-542.28 718.7,-538.76 713.41,-539.04 714.74,-542.28"/>
<text text-anchor="middle" x="680.5" y="-560.39" font-family="Times,serif" font-size="14.00">π₁</text>
</g>
<!-- n15 -->
<g id="node15" class="node">
<title>n15</title>
<ellipse fill="none" stroke="black" cx="485" cy="-888.5" rx="29.9" ry="10.71"/>
<text text-anchor="middle" x="485" y="-884.8" font-family="Times,serif" font-size="14.00">•5:Ω•</text>
</g>
<!-- n52 -->
<g id="node52" class="node">
<title>n52</title>
<ellipse fill="none" stroke="black" cx="426" cy="-813.45" rx="13.37" ry="13.37"/>
<text text-anchor="middle" x="426" y="-809.75" font-family="Times,serif" font-size="14.00">Σ2</text>
</g>
<!-- n15&#45;&gt;n52 -->
<g id="edge65" class="edge">
<title>n15&#45;&gt;n52</title>
<path fill="none" stroke="black" stroke-dasharray="5,2" d="M477.29,-877.95C467.21,-865.47 449.47,-843.51 437.72,-828.97"/>
<polygon fill="black" stroke="black" points="438.79,-827.5 434.29,-824.71 436.07,-829.7 438.79,-827.5"/>
</g>
<!-- n16 -->
<g id="node16" class="node">
<title>n16</title>
<ellipse fill="none" stroke="black" cx="536" cy="-1313.07" rx="29.9" ry="10.71"/>
<text text-anchor="middle" x="536" y="-1309.37" font-family="Times,serif" font-size="14.00">•6:Ω•</text>
</g>
<!-- n51 -->
<g id="node51" class="node">
<title>n51</title>
<ellipse fill="none" stroke="black" cx="572" cy="-1120.39" rx="13.37" ry="13.37"/>
<text text-anchor="middle" x="572" y="-1116.69" font-family="Times,serif" font-size="14.00">Σ1</text>
</g>
<!-- n16&#45;&gt;n51 -->
<g id="edge63" class="edge">
<title>n16&#45;&gt;n51</title>
<path fill="none" stroke="black" stroke-dasharray="5,2" d="M537.25,-1302.3C539.96,-1281.65 546.78,-1232.13 555,-1191.04 558.61,-1172.99 563.72,-1152.56 567.39,-1138.52"/>
<polygon fill="black" stroke="black" points="569.1,-1138.93 568.68,-1133.65 565.71,-1138.04 569.1,-1138.93"/>
</g>
<!-- n17 -->
<g id="node17" class="node">
<title>n17</title>
<ellipse fill="none" stroke="black" cx="588" cy="-1430.71" rx="29.9" ry="10.71"/>
<text text-anchor="middle" x="588" y="-1427.01" font-family="Times,serif" font-size="14.00">•7:Ω•</text>
</g>
<!-- n17&#45;&gt;n16 -->
<g id="edge13" class="edge">
<title>n17&#45;&gt;n16</title>
<path fill="none" stroke="black" d="M582.32,-1419.97C574.97,-1407.16 562.06,-1383.8 553,-1362.89 548.14,-1351.67 543.64,-1338.57 540.49,-1328.76"/>
<polygon fill="black" stroke="black" points="542.15,-1328.2 538.97,-1323.96 538.81,-1329.25 542.15,-1328.2"/>
<text text-anchor="middle" x="574.5" y="-1387.8" font-family="Times,serif" font-size="14.00">&#45;</text>
</g>
<!-- n18 -->
<g id="node18" class="node">
<title>n18</title>
<ellipse fill="none" stroke="black" cx="594" cy="-1201.65" rx="29.9" ry="10.71"/>
<text text-anchor="middle" x="594" y="-1197.95" font-family="Times,serif" font-size="14.00">•8:Ω•</text>
</g>
<!-- n18&#45;&gt;n51 -->
<g id="edge64" class="edge">
<title>n18&#45;&gt;n51</title>
<path fill="none" stroke="black" stroke-dasharray="5,2" d="M591.3,-1190.93C587.69,-1177.93 581.24,-1154.67 576.79,-1138.65"/>
<polygon fill="black" stroke="black" points="578.39,-1137.87 575.37,-1133.52 575.02,-1138.81 578.39,-1137.87"/>
</g>
<!-- n19 -->
<g id="node19" class="node">
<title>n19</title>
<ellipse fill="none" stroke="black" cx="596" cy="-1352.28" rx="33.88" ry="10.71"/>
<text text-anchor="middle" x="596" y="-1348.58" font-family="Times,serif" font-size="14.00">0.5:ΩL</text>
</g>
<!-- n40 -->
<g id="node40" class="node">
<title>n40</title>
<polygon fill="none" stroke="black" points="622,-1284.47 570,-1284.47 570,-1269.47 622,-1269.47 622,-1284.47"/>
<text text-anchor="middle" x="596" y="-1273.27" font-family="Times,serif" font-size="14.00">ΩL×Ω•</text>
</g>
<!-- n19&#45;&gt;n40 -->
<g id="edge26" class="edge">
<title>n19&#45;&gt;n40</title>
<path fill="none" stroke="black" stroke-dasharray="5,2" d="M596,-1341.4C596,-1328.01 596,-1304.14 596,-1289.81"/>
<polygon fill="black" stroke="black" points="597.75,-1289.66 596,-1284.66 594.25,-1289.66 597.75,-1289.66"/>
<text text-anchor="middle" x="603.5" y="-1309.37" font-family="Times,serif" font-size="14.00">π₁</text>
</g>
<!-- n20 -->
<g id="node20" class="node">
<title>n20</title>
<ellipse fill="none" stroke="black" cx="678" cy="-1352.28" rx="29.9" ry="10.71"/>
<text text-anchor="middle" x="678" y="-1348.58" font-family="Times,serif" font-size="14.00">•9:Ω•</text>
</g>
<!-- n20&#45;&gt;n40 -->
<g id="edge27" class="edge">
<title>n20&#45;&gt;n40</title>
<path fill="none" stroke="black" stroke-dasharray="5,2" d="M667.95,-1342.29C652.65,-1328.62 623.61,-1302.65 607.5,-1288.25"/>
<polygon fill="black" stroke="black" points="608.59,-1286.87 603.7,-1284.85 606.26,-1289.48 608.59,-1286.87"/>
<text text-anchor="middle" x="654.5" y="-1309.37" font-family="Times,serif" font-size="14.00">π₂</text>
</g>
<!-- n21 -->
<g id="node21" class="node">
<title>n21</title>
<ellipse fill="none" stroke="black" cx="672" cy="-1430.71" rx="36.12" ry="10.71"/>
<text text-anchor="middle" x="672" y="-1427.01" font-family="Times,serif" font-size="14.00">•10:Ω•</text>
</g>
<!-- n21&#45;&gt;n20 -->
<g id="edge14" class="edge">
<title>n21&#45;&gt;n20</title>
<path fill="none" stroke="black" d="M672.76,-1420.03C673.78,-1407.01 675.61,-1383.72 676.81,-1368.38"/>
<polygon fill="black" stroke="black" points="678.58,-1368.25 677.23,-1363.13 675.09,-1367.97 678.58,-1368.25"/>
<text text-anchor="middle" x="681" y="-1387.8" font-family="Times,serif" font-size="14.00">d</text>
</g>
<!-- n22 -->
<g id="node22" class="node">
<title>n22</title>
<ellipse fill="none" stroke="black" cx="572" cy="-1039.14" rx="49.49" ry="10.71"/>
<text text-anchor="middle" x="572" y="-1035.44" font-family="Times,serif" font-size="14.00">sum_1:Ω•</text>
</g>
<!-- n42 -->
<g id="node42" class="node">
<title>n42</title>
<polygon fill="none" stroke="black" points="516,-971.32 464,-971.32 464,-956.32 516,-956.32 516,-971.32"/>
<text text-anchor="middle" x="490" y="-960.12" font-family="Times,serif" font-size="14.00">Ω•×Ω•</text>
</g>
<!-- n22&#45;&gt;n42 -->
<g id="edge32" class="edge">
<title>n22&#45;&gt;n42</title>
<path fill="none" stroke="black" stroke-dasharray="5,2" d="M561.28,-1028.55C545.75,-1014.67 517.13,-989.08 501.29,-974.91"/>
<polygon fill="black" stroke="black" points="502.45,-973.6 497.55,-971.57 500.11,-976.21 502.45,-973.6"/>
<text text-anchor="middle" x="548.5" y="-996.22" font-family="Times,serif" font-size="14.00">π₁</text>
</g>
<!-- n23 -->
<g id="node23" class="node">
<title>n23</title>
<ellipse fill="none" stroke="black" cx="490" cy="-1078.35" rx="36.12" ry="10.71"/>
<text text-anchor="middle" x="490" y="-1074.65" font-family="Times,serif" font-size="14.00">•11:Ω•</text>
</g>
<!-- n23&#45;&gt;n42 -->
<g id="edge33" class="edge">
<title>n23&#45;&gt;n42</title>
<path fill="none" stroke="black" stroke-dasharray="5,2" d="M490,-1067.36C490,-1046.54 490,-998.56 490,-976.41"/>
<polygon fill="black" stroke="black" points="491.75,-976.37 490,-971.37 488.25,-976.37 491.75,-976.37"/>
<text text-anchor="middle" x="497.5" y="-1035.44" font-family="Times,serif" font-size="14.00">π₂</text>
</g>
<!-- n24 -->
<g id="node24" class="node">
<title>n24</title>
<ellipse fill="none" stroke="black" cx="504" cy="-1430.71" rx="36.12" ry="10.71"/>
<text text-anchor="middle" x="504" y="-1427.01" font-family="Times,serif" font-size="14.00">•12:Ω•</text>
</g>
<!-- n24&#45;&gt;n23 -->
<g id="edge15" class="edge">
<title>n24&#45;&gt;n23</title>
<path fill="none" stroke="black" d="M501.03,-1419.92C496.92,-1405.49 490,-1377.57 490,-1353.28 490,-1353.28 490,-1353.28 490,-1161.43 490,-1138 490,-1110.81 490,-1094.35"/>
<polygon fill="black" stroke="black" points="491.75,-1094.2 490,-1089.2 488.25,-1094.2 491.75,-1094.2"/>
<text text-anchor="middle" x="495" y="-1273.27" font-family="Times,serif" font-size="14.00">d</text>
</g>
<!-- n25 -->
<g id="node25" class="node">
<title>n25</title>
<ellipse fill="none" stroke="black" cx="373" cy="-1162.43" rx="36.12" ry="10.71"/>
<text text-anchor="middle" x="373" y="-1158.73" font-family="Times,serif" font-size="14.00">•13:Ω•</text>
</g>
<!-- n25&#45;&gt;n52 -->
<g id="edge66" class="edge">
<title>n25&#45;&gt;n52</title>
<path fill="none" stroke="black" stroke-dasharray="5,2" d="M373.4,-1151.58C373.98,-1136.17 375,-1105.44 375,-1079.35 375,-1079.35 375,-1079.35 375,-887.5 375,-861.77 396.54,-838.63 411.62,-825.59"/>
<polygon fill="black" stroke="black" points="412.97,-826.73 415.68,-822.18 410.72,-824.05 412.97,-826.73"/>
</g>
<!-- n26&#45;&gt;n43 -->
<g id="edge36" class="edge">
<title>n26&#45;&gt;n43</title>
<path fill="none" stroke="black" stroke-dasharray="5,2" d="M248.97,-1498.77C261.12,-1484.48 284.19,-1457.35 296.95,-1442.35"/>
<polygon fill="black" stroke="black" points="298.35,-1443.4 300.26,-1438.46 295.69,-1441.14 298.35,-1443.4"/>
<text text-anchor="middle" x="289.5" y="-1466.22" font-family="Times,serif" font-size="14.00">π₂</text>
</g>
<!-- n27 -->
<g id="node27" class="node">
<title>n27</title>
<ellipse fill="none" stroke="black" cx="426" cy="-999.92" rx="36.12" ry="10.71"/>
<text text-anchor="middle" x="426" y="-996.22" font-family="Times,serif" font-size="14.00">•15:Ω•</text>
</g>
<!-- n27&#45;&gt;n52 -->
<g id="edge67" class="edge">
<title>n27&#45;&gt;n52</title>
<path fill="none" stroke="black" stroke-dasharray="5,2" d="M426,-989.26C426,-959.87 426,-871.17 426,-832.64"/>
<polygon fill="black" stroke="black" points="427.75,-832.33 426,-827.33 424.25,-832.33 427.75,-832.33"/>
</g>
<!-- n28&#45;&gt;n44 -->
<g id="edge39" class="edge">
<title>n28&#45;&gt;n44</title>
<path fill="none" stroke="black" stroke-dasharray="5,2" d="M465.17,-1498.46C456.66,-1484.31 440.85,-1458.05 431.81,-1443.03"/>
<polygon fill="black" stroke="black" points="433.1,-1441.78 429.02,-1438.4 430.1,-1443.58 433.1,-1441.78"/>
<text text-anchor="middle" x="461.5" y="-1466.22" font-family="Times,serif" font-size="14.00">π₂</text>
</g>
<!-- n29 -->
<g id="node29" class="node">
<title>n29</title>
<ellipse fill="none" stroke="black" cx="426" cy="-738.41" rx="49.49" ry="10.71"/>
<text text-anchor="middle" x="426" y="-734.71" font-family="Times,serif" font-size="14.00">sum_2:Ω•</text>
</g>
<!-- n47 -->
<g id="node47" class="node">
<title>n47</title>
<polygon fill="none" stroke="black" points="452,-676.81 400,-676.81 400,-661.81 452,-661.81 452,-676.81"/>
<text text-anchor="middle" x="426" y="-665.61" font-family="Times,serif" font-size="14.00">Ω•×Ω•</text>
</g>
<!-- n29&#45;&gt;n47 -->
<g id="edge47" class="edge">
<title>n29&#45;&gt;n47</title>
<path fill="none" stroke="black" stroke-dasharray="5,2" d="M426,-727.8C426,-715.75 426,-695.1 426,-682.11"/>
<polygon fill="black" stroke="black" points="427.75,-682.05 426,-677.05 424.25,-682.05 427.75,-682.05"/>
<text text-anchor="middle" x="433.5" y="-698.61" font-family="Times,serif" font-size="14.00">π₁</text>
</g>
<!-- n30 -->
<g id="node30" class="node">
<title>n30</title>
<ellipse fill="none" stroke="black" cx="322" cy="-927.71" rx="36.12" ry="10.71"/>
<text text-anchor="middle" x="322" y="-924.01" font-family="Times,serif" font-size="14.00">•17:Ω•</text>
</g>
<!-- n30&#45;&gt;n47 -->
<g id="edge48" class="edge">
<title>n30&#45;&gt;n47</title>
<path fill="none" stroke="black" stroke-dasharray="5,2" d="M323.55,-916.78C325.62,-902.71 329,-876.15 329,-853.39 329,-853.39 329,-853.39 329,-737.41 329,-704.8 366.55,-686.79 394.93,-677.84"/>
<polygon fill="black" stroke="black" points="395.47,-679.5 399.75,-676.37 394.46,-676.15 395.47,-679.5"/>
<text text-anchor="middle" x="336.5" y="-809.75" font-family="Times,serif" font-size="14.00">π₂</text>
</g>
<!-- n31 -->
<g id="node31" class="node">
<title>n31</title>
<ellipse fill="none" stroke="black" cx="224" cy="-1352.28" rx="36.12" ry="10.71"/>
<text text-anchor="middle" x="224" y="-1348.58" font-family="Times,serif" font-size="14.00">•18:Ω•</text>
</g>
<!-- n31&#45;&gt;n46 -->
<g id="edge44" class="edge">
<title>n31&#45;&gt;n46</title>
<path fill="none" stroke="black" stroke-dasharray="5,2" d="M235.53,-1342C252.72,-1328.14 284.96,-1302.17 302.63,-1287.93"/>
<polygon fill="black" stroke="black" points="303.99,-1289.08 306.79,-1284.58 301.8,-1286.35 303.99,-1289.08"/>
<text text-anchor="middle" x="290.5" y="-1309.37" font-family="Times,serif" font-size="14.00">π₁</text>
</g>
<!-- n32&#45;&gt;n45 -->
<g id="edge42" class="edge">
<title>n32&#45;&gt;n45</title>
<path fill="none" stroke="black" stroke-dasharray="5,2" d="M108,-1498.56C116.46,-1488.55 130.31,-1472.5 143,-1459.32 148.68,-1453.41 155.29,-1447.09 160.75,-1441.98"/>
<polygon fill="black" stroke="black" points="162.2,-1443.03 164.68,-1438.35 159.82,-1440.46 162.2,-1443.03"/>
<text text-anchor="middle" x="150.5" y="-1466.22" font-family="Times,serif" font-size="14.00">π₂</text>
</g>
<!-- n33&#45;&gt;n48 -->
<g id="edge51" class="edge">
<title>n33&#45;&gt;n48</title>
<path fill="none" stroke="black" stroke-dasharray="5,2" d="M783.98,-1302.18C780.14,-1288.68 774,-1263.68 774,-1241.86 774,-1241.86 774,-1241.86 774,-599.2 774,-576.68 757.38,-554.97 745.84,-542.6"/>
<polygon fill="black" stroke="black" points="746.88,-541.16 742.15,-538.78 744.37,-543.59 746.88,-541.16"/>
<text text-anchor="middle" x="781.5" y="-924.01" font-family="Times,serif" font-size="14.00">π₂</text>
</g>
<!-- n34 -->
<g id="node34" class="node">
<title>n34</title>
<ellipse fill="none" stroke="black" cx="191" cy="-1240.86" rx="36.12" ry="10.71"/>
<text text-anchor="middle" x="191" y="-1237.16" font-family="Times,serif" font-size="14.00">•21:Ω•</text>
</g>
<!-- n34&#45;&gt;n53 -->
<g id="edge69" class="edge">
<title>n34&#45;&gt;n53</title>
<path fill="none" stroke="black" stroke-dasharray="5,2" d="M209.01,-1231.58C231.49,-1219.87 267,-1196.18 267,-1163.43 267,-1163.43 267,-1163.43 267,-460.99 267,-414.86 629.43,-404.19 716.4,-402.3"/>
<polygon fill="black" stroke="black" points="716.54,-404.05 721.5,-402.19 716.46,-400.55 716.54,-404.05"/>
</g>
<!-- n35 -->
<g id="node35" class="node">
<title>n35</title>
<ellipse fill="none" stroke="black" cx="768" cy="-325.9" rx="49.49" ry="10.71"/>
<text text-anchor="middle" x="768" y="-322.2" font-family="Times,serif" font-size="14.00">sum_3:Ω•</text>
</g>
<!-- n35&#45;&gt;n50 -->
<g id="edge56" class="edge">
<title>n35&#45;&gt;n50</title>
<path fill="none" stroke="black" stroke-dasharray="5,2" d="M776.88,-315.29C788.41,-302.81 808.46,-281.11 820.36,-268.24"/>
<polygon fill="black" stroke="black" points="821.66,-269.4 823.77,-264.54 819.09,-267.03 821.66,-269.4"/>
<text text-anchor="middle" x="814.5" y="-286.1" font-family="Times,serif" font-size="14.00">π₁</text>
</g>
<!-- n36 -->
<g id="node36" class="node">
<title>n36</title>
</g>
<!-- n36&#45;&gt;n1 -->
<g id="edge1" class="edge">
<title>n36&#45;&gt;n1</title>
<path fill="none" stroke="black" d="M473.9,-1634.99C481.76,-1630.14 512.18,-1611.33 531.81,-1599.2"/>
<polygon fill="black" stroke="black" points="533.21,-1600.38 536.54,-1596.27 531.37,-1597.41 533.21,-1600.38"/>
</g>
<!-- n36&#45;&gt;n2 -->
<g id="edge2" class="edge">
<title>n36&#45;&gt;n2</title>
<path fill="none" stroke="black" d="M469.97,-1635.34C458.95,-1630.86 405.77,-1609.22 375.74,-1597"/>
<polygon fill="black" stroke="black" points="376.07,-1595.25 370.78,-1594.98 374.75,-1598.49 376.07,-1595.25"/>
</g>
<!-- n36&#45;&gt;n3 -->
<g id="edge3" class="edge">
<title>n36&#45;&gt;n3</title>
<path fill="none" stroke="black" d="M469.85,-1635.84C456.26,-1633.67 381.12,-1621.08 324,-1598.17 297.84,-1587.68 269.79,-1570.81 252.82,-1559.9"/>
<polygon fill="black" stroke="black" points="253.49,-1558.24 248.34,-1556.99 251.58,-1561.18 253.49,-1558.24"/>
</g>
<!-- n36&#45;&gt;n4 -->
<g id="edge4" class="edge">
<title>n36&#45;&gt;n4</title>
<path fill="none" stroke="black" d="M469.68,-1636.25C453.55,-1636.76 356.5,-1638.79 282,-1617.17 268.04,-1613.12 253.41,-1605.7 242.47,-1599.44"/>
<polygon fill="black" stroke="black" points="243.22,-1597.85 238.02,-1596.84 241.45,-1600.87 243.22,-1597.85"/>
</g>
<!-- n36&#45;&gt;n5 -->
<g id="edge5" class="edge">
<title>n36&#45;&gt;n5</title>
<path fill="none" stroke="black" d="M474.3,-1636.22C502.55,-1636.81 782.69,-1641.99 861,-1617.17 897.64,-1605.56 934.13,-1578.19 953.59,-1561.99"/>
<polygon fill="black" stroke="black" points="955.01,-1563.08 957.71,-1558.52 952.75,-1560.41 955.01,-1563.08"/>
</g>
<!-- n36&#45;&gt;n6 -->
<g id="edge6" class="edge">
<title>n36&#45;&gt;n6</title>
<path fill="none" stroke="black" d="M474.04,-1635.76C492.2,-1632.1 626.72,-1604.96 683.17,-1593.57"/>
<polygon fill="black" stroke="black" points="683.83,-1595.22 688.39,-1592.52 683.14,-1591.79 683.83,-1595.22"/>
</g>
<!-- n36&#45;&gt;n7 -->
<g id="edge7" class="edge">
<title>n36&#45;&gt;n7</title>
<path fill="none" stroke="black" d="M469.67,-1636.02C453.47,-1634.97 355.8,-1628.35 277,-1617.17 231.22,-1610.67 178.29,-1600.08 148.22,-1593.77"/>
<polygon fill="black" stroke="black" points="148.49,-1592.04 143.23,-1592.72 147.76,-1595.47 148.49,-1592.04"/>
</g>
<!-- n36&#45;&gt;n8 -->
<g id="edge8" class="edge">
<title>n36&#45;&gt;n8</title>
<path fill="none" stroke="black" d="M469.58,-1636.01C445.74,-1634.4 250.08,-1620.86 93,-1598.17 83.8,-1596.84 73.76,-1595.1 64.91,-1593.46"/>
<polygon fill="black" stroke="black" points="64.81,-1591.66 59.58,-1592.46 64.17,-1595.1 64.81,-1591.66"/>
</g>
<!-- n36&#45;&gt;n9 -->
<g id="edge9" class="edge">
<title>n36&#45;&gt;n9</title>
<path fill="none" stroke="black" d="M474.27,-1636.17C498.3,-1636.12 708.32,-1635.17 877,-1617.17 953.62,-1608.99 1048,-1665.62 1048,-1588.56 1048,-1588.56 1048,-1588.56 1048,-1468.92 1048,-1447.65 1048.39,-1423.05 1048.69,-1407.63"/>
<polygon fill="black" stroke="black" points="1050.44,-1407.42 1048.79,-1402.39 1046.94,-1407.36 1050.44,-1407.42"/>
</g>
<!-- n36&#45;&gt;n10 -->
<g id="edge10" class="edge">
<title>n36&#45;&gt;n10</title>
<path fill="none" stroke="black" d="M474.4,-1636.01C497.93,-1634.46 687.79,-1621.29 739,-1598.17 799.33,-1570.93 854.03,-1511.58 876.81,-1484.68"/>
<polygon fill="black" stroke="black" points="878.31,-1485.6 880.18,-1480.65 875.63,-1483.35 878.31,-1485.6"/>
</g>
<!-- n38&#45;&gt;n17 -->
<g id="edge22" class="edge">
<title>n38&#45;&gt;n17</title>
<path fill="none" stroke="black" d="M609.95,-1501.62C606.11,-1489.39 597.74,-1462.71 592.51,-1446.08"/>
<polygon fill="black" stroke="black" points="594.17,-1445.51 591,-1441.27 590.83,-1446.56 594.17,-1445.51"/>
<text text-anchor="middle" x="611.5" y="-1466.22" font-family="Times,serif" font-size="14.00">ℒ₁</text>
</g>
<!-- n39&#45;&gt;n21 -->
<g id="edge25" class="edge">
<title>n39&#45;&gt;n21</title>
<path fill="none" stroke="black" d="M675.66,-1501.62C675.03,-1489.56 673.66,-1463.45 672.79,-1446.78"/>
<polygon fill="black" stroke="black" points="674.52,-1446.42 672.51,-1441.52 671.03,-1446.61 674.52,-1446.42"/>
<text text-anchor="middle" x="683" y="-1466.22" font-family="Times,serif" font-size="14.00">ι₁₁</text>
</g>
<!-- n40&#45;&gt;n18 -->
<g id="edge28" class="edge">
<title>n40&#45;&gt;n18</title>
<path fill="none" stroke="black" d="M595.82,-1269.2C595.5,-1257.58 594.84,-1233.56 594.41,-1217.78"/>
<polygon fill="black" stroke="black" points="596.15,-1217.33 594.27,-1212.38 592.65,-1217.43 596.15,-1217.33"/>
<text text-anchor="middle" x="599.5" y="-1237.16" font-family="Times,serif" font-size="14.00">*</text>
</g>
<!-- n41&#45;&gt;n24 -->
<g id="edge31" class="edge">
<title>n41&#45;&gt;n24</title>
<path fill="none" stroke="black" d="M544.25,-1501.62C537.14,-1489.28 521.58,-1462.25 512.03,-1445.65"/>
<polygon fill="black" stroke="black" points="513.51,-1444.73 509.5,-1441.27 510.48,-1446.47 513.51,-1444.73"/>
<text text-anchor="middle" x="540" y="-1466.22" font-family="Times,serif" font-size="14.00">ι₁₁</text>
</g>
<!-- n42&#45;&gt;n15 -->
<g id="edge34" class="edge">
<title>n42&#45;&gt;n15</title>
<path fill="none" stroke="black" d="M489.54,-956.05C488.74,-944.33 487.08,-919.99 486,-904.22"/>
<polygon fill="black" stroke="black" points="487.75,-904.1 485.66,-899.23 484.26,-904.34 487.75,-904.1"/>
<text text-anchor="middle" x="491.5" y="-924.01" font-family="Times,serif" font-size="14.00">&#45;</text>
</g>
<!-- n43&#45;&gt;n25 -->
<g id="edge37" class="edge">
<title>n43&#45;&gt;n25</title>
<path fill="none" stroke="black" d="M308.11,-1423.1C314.6,-1402.64 334.63,-1338.48 348,-1284.47 357.4,-1246.48 366.1,-1201.19 370.32,-1178.28"/>
<polygon fill="black" stroke="black" points="372.07,-1178.45 371.25,-1173.22 368.62,-1177.82 372.07,-1178.45"/>
<text text-anchor="middle" x="352" y="-1309.37" font-family="Times,serif" font-size="14.00">ι₁₂</text>
</g>
<!-- n44&#45;&gt;n27 -->
<g id="edge40" class="edge">
<title>n44&#45;&gt;n27</title>
<path fill="none" stroke="black" d="M425,-1422.96C425,-1409.64 425,-1379.03 425,-1353.28 425,-1353.28 425,-1353.28 425,-1077.35 425,-1056.08 425.39,-1031.48 425.69,-1016.06"/>
<polygon fill="black" stroke="black" points="427.44,-1015.85 425.79,-1010.82 423.94,-1015.78 427.44,-1015.85"/>
<text text-anchor="middle" x="433" y="-1237.16" font-family="Times,serif" font-size="14.00">ι₁₂</text>
</g>
<!-- n45&#45;&gt;n31 -->
<g id="edge43" class="edge">
<title>n45&#45;&gt;n31</title>
<path fill="none" stroke="black" d="M176.43,-1423.2C184.83,-1410.85 203.22,-1383.83 214.51,-1367.23"/>
<polygon fill="black" stroke="black" points="216.13,-1367.96 217.5,-1362.84 213.24,-1365.99 216.13,-1367.96"/>
<text text-anchor="middle" x="207.5" y="-1387.8" font-family="Times,serif" font-size="14.00">&#45;</text>
</g>
<!-- n46&#45;&gt;n30 -->
<g id="edge46" class="edge">
<title>n46&#45;&gt;n30</title>
<path fill="none" stroke="black" d="M315,-1269.09C315,-1256.11 315,-1227.09 315,-1202.65 315,-1202.65 315,-1202.65 315,-998.92 315,-979.89 317.58,-958.09 319.61,-943.9"/>
<polygon fill="black" stroke="black" points="321.38,-943.88 320.38,-938.68 317.92,-943.37 321.38,-943.88"/>
<text text-anchor="middle" x="331" y="-1116.69" font-family="Times,serif" font-size="14.00">∧ᵖᵈ₀₁</text>
</g>
<!-- n47&#45;&gt;n14 -->
<g id="edge49" class="edge">
<title>n47&#45;&gt;n14</title>
<path fill="none" stroke="black" d="M440.17,-661.75C465.6,-649.98 519.15,-625.2 549.26,-611.26"/>
<polygon fill="black" stroke="black" points="550.08,-612.81 553.88,-609.12 548.61,-609.63 550.08,-612.81"/>
<text text-anchor="middle" x="510.5" y="-632.61" font-family="Times,serif" font-size="14.00">&#45;</text>
</g>
<!-- n48&#45;&gt;n13 -->
<g id="edge52" class="edge">
<title>n48&#45;&gt;n13</title>
<path fill="none" stroke="black" d="M735,-523.41C735,-512.88 735,-492.14 735,-477.92"/>
<polygon fill="black" stroke="black" points="736.75,-477.65 735,-472.65 733.25,-477.65 736.75,-477.65"/>
<text text-anchor="middle" x="737.5" y="-494.39" font-family="Times,serif" font-size="14.00">&#45;</text>
</g>
<!-- n49&#45;&gt;n34 -->
<g id="edge55" class="edge">
<title>n49&#45;&gt;n34</title>
<path fill="none" stroke="black" d="M26.25,-1501.57C32.37,-1488.58 45,-1458.5 45,-1431.71 45,-1431.71 45,-1431.71 45,-1312.07 45,-1264.91 107.64,-1249.41 150.86,-1244.32"/>
<polygon fill="black" stroke="black" points="151.25,-1246.04 156.03,-1243.75 150.87,-1242.56 151.25,-1246.04"/>
<text text-anchor="middle" x="61" y="-1387.8" font-family="Times,serif" font-size="14.00">∧ᵈᵈ₀₁</text>
</g>
<!-- n50&#45;&gt;n12 -->
<g id="edge58" class="edge">
<title>n50&#45;&gt;n12</title>
<path fill="none" stroke="black" d="M830,-249.12C830,-238.58 830,-217.84 830,-203.63"/>
<polygon fill="black" stroke="black" points="831.75,-203.35 830,-198.35 828.25,-203.35 831.75,-203.35"/>
<text text-anchor="middle" x="832.5" y="-220.1" font-family="Times,serif" font-size="14.00">&#45;</text>
</g>
<!-- n51&#45;&gt;n22 -->
<g id="edge59" class="edge">
<title>n51&#45;&gt;n22</title>
<path fill="none" stroke="black" d="M572,-1106.66C572,-1092.63 572,-1070.08 572,-1055.19"/>
<polygon fill="black" stroke="black" points="573.75,-1055.08 572,-1050.08 570.25,-1055.08 573.75,-1055.08"/>
<text text-anchor="middle" x="578.5" y="-1074.65" font-family="Times,serif" font-size="14.00">+</text>
</g>
<!-- n52&#45;&gt;n29 -->
<g id="edge60" class="edge">
<title>n52&#45;&gt;n29</title>
<path fill="none" stroke="black" d="M426,-799.73C426,-787.14 426,-767.87 426,-754.51"/>
<polygon fill="black" stroke="black" points="427.75,-754.19 426,-749.19 424.25,-754.19 427.75,-754.19"/>
<text text-anchor="middle" x="432.5" y="-770.82" font-family="Times,serif" font-size="14.00">+</text>
</g>
<!-- n53&#45;&gt;n35 -->
<g id="edge61" class="edge">
<title>n53&#45;&gt;n35</title>
<path fill="none" stroke="black" d="M740.16,-388.53C745.9,-375.81 755.21,-355.21 761.46,-341.37"/>
<polygon fill="black" stroke="black" points="763.15,-341.88 763.62,-336.6 759.96,-340.44 763.15,-341.88"/>
<text text-anchor="middle" x="762.5" y="-358.31" font-family="Times,serif" font-size="14.00">+</text>
</g>
<!-- n54&#45;&gt;n11 -->
<g id="edge62" class="edge">
<title>n54&#45;&gt;n11</title>
<path fill="none" stroke="black" d="M952.21,-115.49C942.3,-102.56 925.15,-80.19 914.2,-65.91"/>
<polygon fill="black" stroke="black" points="915.45,-64.66 911.01,-61.76 912.67,-66.79 915.45,-64.66"/>
<text text-anchor="middle" x="942.5" y="-84.01" font-family="Times,serif" font-size="14.00">+</text>
</g>
</g>
</svg>
