<?xml version="1.0" encoding="UTF-8" standalone="no"?>
<!DOCTYPE svg PUBLIC "-//W3C//DTD SVG 1.1//EN"
 "http://www.w3.org/Graphics/SVG/1.1/DTD/svg11.dtd">
<!-- Generated by graphviz version 2.40.1 (0)
 -->
<!-- Title: G Pages: 1 -->
<svg width="1111pt" height="1647pt"
 viewBox="0.00 0.00 1111.37 1647.17" xmlns="http://www.w3.org/2000/svg" xmlns:xlink="http://www.w3.org/1999/xlink">
<g id="graph0" class="graph" transform="scale(1 1) rotate(0) translate(4 1643.1707)">
<title>G</title>
<polygon fill="#ffffff" stroke="transparent" points="-4,4 -4,-1643.1707 1107.3701,-1643.1707 1107.3701,4 -4,4"/>
<!-- n1 -->
<g id="node1" class="node">
<title>n1</title>
<ellipse fill="none" stroke="#000000" cx="562.5" cy="-1587.5641" rx="21.8409" ry="10.7143"/>
<text text-anchor="middle" x="562.5" y="-1583.8641" font-family="Times,serif" font-size="14.00" fill="#000000">v:Ω̃₁</text>
</g>
<!-- n11 -->
<g id="node11" class="node">
<title>n11</title>
<ellipse fill="none" stroke="#000000" cx="934.5" cy="-51.6066" rx="24.0833" ry="10.7143"/>
<text text-anchor="middle" x="934.5" y="-47.9066" font-family="Times,serif" font-size="14.00" fill="#000000">v̇:Ω•</text>
</g>
<!-- n1&#45;&gt;n11 -->
<g id="edge12" class="edge">
<title>n1&#45;&gt;n11</title>
<path fill="none" stroke="#000000" d="M583.0659,-1583.5968C623.7085,-1575.7556 710.4219,-1559.0202 710.5,-1558.9575 741.6561,-1533.9513 758.5,-1452.3371 758.5,-1391.4981 758.5,-1391.4981 758.5,-1391.4981 758.5,-927.7092 758.5,-869.2032 774.5256,-856.3023 790.5,-800.0193 811.3448,-726.5765 842.5,-712.6498 842.5,-636.3061 842.5,-636.3061 842.5,-636.3061 842.5,-498.0929 842.5,-428.8185 918.5,-431.2841 918.5,-362.0097 918.5,-362.0097 918.5,-362.0097 918.5,-126.6482 918.5,-105.7677 924.4987,-82.3233 929.15,-67.2832"/>
<polygon fill="#000000" stroke="#000000" points="930.9374,-67.438 930.7891,-62.1427 927.6028,-66.3747 930.9374,-67.438"/>
<text text-anchor="middle" x="808.5" y="-770.8193" font-family="Times,serif" font-size="14.00" fill="#000000">∂ₜ</text>
</g>
<!-- n28 -->
<g id="node28" class="node">
<title>n28</title>
<ellipse fill="none" stroke="#000000" cx="481.5" cy="-1509.1377" rx="36.5405" ry="10.7143"/>
<text text-anchor="middle" x="481.5" y="-1505.4377" font-family="Times,serif" font-size="14.00" fill="#000000">•16:Ω•</text>
</g>
<!-- n1&#45;&gt;n28 -->
<g id="edge17" class="edge">
<title>n1&#45;&gt;n28</title>
<path fill="none" stroke="#000000" d="M551.2805,-1578.2706C544.7906,-1572.7889 536.5406,-1565.6373 529.5,-1558.9575 517.3465,-1547.427 504.187,-1533.6713 494.7259,-1523.5385"/>
<polygon fill="#000000" stroke="#000000" points="495.851,-1522.1785 491.1646,-1519.7084 493.2878,-1524.5618 495.851,-1522.1785"/>
<text text-anchor="middle" x="534.5" y="-1544.6509" font-family="Times,serif" font-size="14.00" fill="#000000">d</text>
</g>
<!-- n38 -->
<g id="node38" class="node">
<title>n38</title>
<polygon fill="none" stroke="#000000" points="652,-1516.6377 603,-1516.6377 603,-1501.6377 652,-1501.6377 652,-1516.6377"/>
<text text-anchor="middle" x="627.5" y="-1505.4377" font-family="Times,serif" font-size="14.00" fill="#000000">Ω̃₁×Ω̃₁</text>
</g>
<!-- n1&#45;&gt;n38 -->
<g id="edge20" class="edge">
<title>n1&#45;&gt;n38</title>
<path fill="none" stroke="#000000" stroke-dasharray="5,2" d="M575.9053,-1579.1602C583.457,-1573.975 592.707,-1566.8234 599.5,-1558.9575 609.3084,-1547.6 617.3007,-1532.2724 622.1991,-1521.6306"/>
<polygon fill="#000000" stroke="#000000" points="623.9063,-1522.0995 624.3496,-1516.8207 620.7111,-1520.6709 623.9063,-1522.0995"/>
<text text-anchor="middle" x="622.5" y="-1544.6509" font-family="Times,serif" font-size="14.00" fill="#000000">π₁</text>
</g>
<!-- n1&#45;&gt;n38 -->
<g id="edge21" class="edge">
<title>n1&#45;&gt;n38</title>
<path fill="none" stroke="#000000" stroke-dasharray="5,2" d="M563.9948,-1576.5933C565.9542,-1565.7251 570.2932,-1549.1042 579.5,-1537.7443 585.8907,-1529.8592 595.0751,-1523.6411 603.7023,-1519.0445"/>
<polygon fill="#000000" stroke="#000000" points="604.7464,-1520.4774 608.4166,-1516.6573 603.1652,-1517.3549 604.7464,-1520.4774"/>
<text text-anchor="middle" x="587.5" y="-1544.6509" font-family="Times,serif" font-size="14.00" fill="#000000">π₂</text>
</g>
<!-- n39 -->
<g id="node39" class="node">
<title>n39</title>
<polygon fill="none" stroke="#000000" points="719,-1516.6377 670,-1516.6377 670,-1501.6377 719,-1501.6377 719,-1516.6377"/>
<text text-anchor="middle" x="694.5" y="-1505.4377" font-family="Times,serif" font-size="14.00" fill="#000000">Ω̃₁×Ω̃₁</text>
</g>
<!-- n1&#45;&gt;n39 -->
<g id="edge23" class="edge">
<title>n1&#45;&gt;n39</title>
<path fill="none" stroke="#000000" stroke-dasharray="5,2" d="M581.2955,-1581.91C596.28,-1576.9825 617.4964,-1569.048 634.5,-1558.9575 639.5986,-1555.9318 665.8084,-1533.7241 681.8537,-1519.9996"/>
<polygon fill="#000000" stroke="#000000" points="683.0357,-1521.2915 685.6951,-1516.71 680.759,-1518.6331 683.0357,-1521.2915"/>
<text text-anchor="middle" x="669.5" y="-1544.6509" font-family="Times,serif" font-size="14.00" fill="#000000">π₁</text>
</g>
<!-- n1&#45;&gt;n39 -->
<g id="edge24" class="edge">
<title>n1&#45;&gt;n39</title>
<path fill="none" stroke="#000000" stroke-dasharray="5,2" d="M583.7725,-1584.7373C613.1173,-1580.436 663.938,-1571.4126 677.5,-1558.9575 687.9121,-1549.3952 691.9482,-1533.1989 693.512,-1521.8771"/>
<polygon fill="#000000" stroke="#000000" points="695.2676,-1521.9279 694.0982,-1516.7612 691.7903,-1521.5294 695.2676,-1521.9279"/>
<text text-anchor="middle" x="698.5" y="-1544.6509" font-family="Times,serif" font-size="14.00" fill="#000000">π₂</text>
</g>
<!-- n41 -->
<g id="node41" class="node">
<title>n41</title>
<polygon fill="none" stroke="#000000" points="585,-1516.6377 536,-1516.6377 536,-1501.6377 585,-1501.6377 585,-1516.6377"/>
<text text-anchor="middle" x="560.5" y="-1505.4377" font-family="Times,serif" font-size="14.00" fill="#000000">Ω̃₁×Ω̃₁</text>
</g>
<!-- n1&#45;&gt;n41 -->
<g id="edge29" class="edge">
<title>n1&#45;&gt;n41</title>
<path fill="none" stroke="#000000" stroke-dasharray="5,2" d="M554.3096,-1577.6499C550.5285,-1572.4315 546.4514,-1565.723 544.5,-1558.9575 541.8871,-1549.8987 542.122,-1546.8676 544.5,-1537.7443 546.0385,-1531.842 549.0936,-1525.8673 552.1256,-1520.9155"/>
<polygon fill="#000000" stroke="#000000" points="553.6143,-1521.836 554.8594,-1516.687 550.6751,-1519.9357 553.6143,-1521.836"/>
<text text-anchor="middle" x="552.5" y="-1544.6509" font-family="Times,serif" font-size="14.00" fill="#000000">π₁</text>
</g>
<!-- n43 -->
<g id="node43" class="node">
<title>n43</title>
<polygon fill="none" stroke="#000000" points="363,-1438.2113 312,-1438.2113 312,-1423.2113 363,-1423.2113 363,-1438.2113"/>
<text text-anchor="middle" x="337.5" y="-1427.0113" font-family="Times,serif" font-size="14.00" fill="#000000">Ω̃₁×Ω•</text>
</g>
<!-- n1&#45;&gt;n43 -->
<g id="edge35" class="edge">
<title>n1&#45;&gt;n43</title>
<path fill="none" stroke="#000000" stroke-dasharray="5,2" d="M540.9945,-1585.3665C515.5391,-1582.1517 472.3378,-1574.7402 438.5,-1558.9575 412.2673,-1546.722 405.4533,-1541.622 386.5,-1519.7443 365.5915,-1495.6097 349.7559,-1461.1007 342.2705,-1442.9487"/>
<polygon fill="#000000" stroke="#000000" points="343.8812,-1442.2634 340.3835,-1438.2849 340.6367,-1443.5762 343.8812,-1442.2634"/>
<text text-anchor="middle" x="394.5" y="-1505.4377" font-family="Times,serif" font-size="14.00" fill="#000000">π₁</text>
</g>
<!-- n46 -->
<g id="node46" class="node">
<title>n46</title>
<polygon fill="none" stroke="#000000" points="387,-1284.4651 336,-1284.4651 336,-1269.4651 387,-1269.4651 387,-1284.4651"/>
<text text-anchor="middle" x="361.5" y="-1273.2651" font-family="Times,serif" font-size="14.00" fill="#000000">Ω•×Ω̃₁</text>
</g>
<!-- n1&#45;&gt;n46 -->
<g id="edge45" class="edge">
<title>n1&#45;&gt;n46</title>
<path fill="none" stroke="#000000" stroke-dasharray="5,2" d="M543.1925,-1582.3115C515.4118,-1573.7763 464.342,-1554.2756 435.5,-1519.7443 404.8902,-1483.0964 373.0705,-1334.4921 364.0288,-1289.7636"/>
<polygon fill="#000000" stroke="#000000" points="365.6946,-1289.1697 362.9955,-1284.6114 362.2629,-1289.858 365.6946,-1289.1697"/>
<text text-anchor="middle" x="409.5" y="-1427.0113" font-family="Times,serif" font-size="14.00" fill="#000000">π₂</text>
</g>
<!-- n2 -->
<g id="node2" class="node">
<title>n2</title>
<ellipse fill="none" stroke="#000000" cx="373.5" cy="-1587.5641" rx="22.7556" ry="10.7143"/>
<text text-anchor="middle" x="373.5" y="-1583.8641" font-family="Times,serif" font-size="14.00" fill="#000000">V:Ω̃₁</text>
</g>
<!-- n26 -->
<g id="node26" class="node">
<title>n26</title>
<ellipse fill="none" stroke="#000000" cx="247.5" cy="-1509.1377" rx="36.5405" ry="10.7143"/>
<text text-anchor="middle" x="247.5" y="-1505.4377" font-family="Times,serif" font-size="14.00" fill="#000000">•14:Ω•</text>
</g>
<!-- n2&#45;&gt;n26 -->
<g id="edge16" class="edge">
<title>n2&#45;&gt;n26</title>
<path fill="none" stroke="#000000" d="M353.0791,-1582.6197C336.8728,-1578.0938 314.0957,-1570.3529 296.5,-1558.9575 281.7572,-1549.4097 268.0175,-1534.7267 258.8617,-1523.7707"/>
<polygon fill="#000000" stroke="#000000" points="259.9884,-1522.3846 255.4662,-1519.6255 257.2808,-1524.6025 259.9884,-1522.3846"/>
<text text-anchor="middle" x="301.5" y="-1544.6509" font-family="Times,serif" font-size="14.00" fill="#000000">d</text>
</g>
<!-- n2&#45;&gt;n41 -->
<g id="edge30" class="edge">
<title>n2&#45;&gt;n41</title>
<path fill="none" stroke="#000000" stroke-dasharray="5,2" d="M390.3547,-1580.1834C412.8839,-1570.3504 454.0878,-1552.4805 489.5,-1537.7443 505.1262,-1531.2417 522.7772,-1524.1289 536.5707,-1518.6225"/>
<polygon fill="#000000" stroke="#000000" points="537.4706,-1520.1478 541.4672,-1516.6706 536.1745,-1516.8966 537.4706,-1520.1478"/>
<text text-anchor="middle" x="497.5" y="-1544.6509" font-family="Times,serif" font-size="14.00" fill="#000000">π₂</text>
</g>
<!-- n44 -->
<g id="node44" class="node">
<title>n44</title>
<polygon fill="none" stroke="#000000" points="485,-1438.2113 434,-1438.2113 434,-1423.2113 485,-1423.2113 485,-1438.2113"/>
<text text-anchor="middle" x="459.5" y="-1427.0113" font-family="Times,serif" font-size="14.00" fill="#000000">Ω̃₁×Ω•</text>
</g>
<!-- n2&#45;&gt;n44 -->
<g id="edge38" class="edge">
<title>n2&#45;&gt;n44</title>
<path fill="none" stroke="#000000" stroke-dasharray="5,2" d="M363.2724,-1577.8263C346.9134,-1561.0302 318.275,-1525.7933 334.5,-1498.5311 345.813,-1479.5224 402.5303,-1453.8969 435.5478,-1440.2305"/>
<polygon fill="#000000" stroke="#000000" points="436.2792,-1441.822 440.239,-1438.3031 434.9491,-1438.5846 436.2792,-1441.822"/>
<text text-anchor="middle" x="342.5" y="-1505.4377" font-family="Times,serif" font-size="14.00" fill="#000000">π₁</text>
</g>
<!-- n3 -->
<g id="node3" class="node">
<title>n3</title>
<ellipse fill="none" stroke="#000000" cx="237.5" cy="-1548.3509" rx="19.6" ry="10.7143"/>
<text text-anchor="middle" x="237.5" y="-1544.6509" font-family="Times,serif" font-size="14.00" fill="#000000">f:Ω₀</text>
</g>
<!-- n45 -->
<g id="node45" class="node">
<title>n45</title>
<polygon fill="none" stroke="#000000" points="202,-1438.2113 151,-1438.2113 151,-1423.2113 202,-1423.2113 202,-1438.2113"/>
<text text-anchor="middle" x="176.5" y="-1427.0113" font-family="Times,serif" font-size="14.00" fill="#000000">Ω₀×Ω•</text>
</g>
<!-- n3&#45;&gt;n45 -->
<g id="edge41" class="edge">
<title>n3&#45;&gt;n45</title>
<path fill="none" stroke="#000000" stroke-dasharray="5,2" d="M221.9246,-1541.7347C208.2731,-1535.6042 189.9333,-1526.4479 185.5,-1519.7443 170.1225,-1496.492 171.8803,-1462.0941 174.3072,-1443.5991"/>
<polygon fill="#000000" stroke="#000000" points="176.0755,-1443.5996 175.0636,-1438.3997 172.6119,-1443.0957 176.0755,-1443.5996"/>
<text text-anchor="middle" x="193.5" y="-1505.4377" font-family="Times,serif" font-size="14.00" fill="#000000">π₁</text>
</g>
<!-- n4 -->
<g id="node4" class="node">
<title>n4</title>
<ellipse fill="none" stroke="#000000" cx="244.5" cy="-1587.5641" rx="26.3269" ry="10.7143"/>
<text text-anchor="middle" x="244.5" y="-1583.8641" font-family="Times,serif" font-size="14.00" fill="#000000">uˢ:Ω̃₁</text>
</g>
<!-- n32 -->
<g id="node32" class="node">
<title>n32</title>
<ellipse fill="none" stroke="#000000" cx="103.5" cy="-1509.1377" rx="36.5405" ry="10.7143"/>
<text text-anchor="middle" x="103.5" y="-1505.4377" font-family="Times,serif" font-size="14.00" fill="#000000">•19:Ω•</text>
</g>
<!-- n4&#45;&gt;n32 -->
<g id="edge18" class="edge">
<title>n4&#45;&gt;n32</title>
<path fill="none" stroke="#000000" d="M226.6618,-1579.6637C214.5954,-1574.1731 198.3884,-1566.5116 184.5,-1558.9575 162.8916,-1547.2044 138.9987,-1532.2568 122.7998,-1521.814"/>
<polygon fill="#000000" stroke="#000000" points="123.5916,-1520.242 118.4432,-1518.9945 121.69,-1523.1804 123.5916,-1520.242"/>
<text text-anchor="middle" x="196.5" y="-1544.6509" font-family="Times,serif" font-size="14.00" fill="#000000">d⋅⋆</text>
</g>
<!-- n5 -->
<g id="node5" class="node">
<title>n5</title>
<ellipse fill="none" stroke="#000000" cx="951.5" cy="-1548.3509" rx="35.2113" ry="10.7143"/>
<text text-anchor="middle" x="951.5" y="-1544.6509" font-family="Times,serif" font-size="14.00" fill="#000000">∂tuˢ:Ω̃₁</text>
</g>
<!-- n54 -->
<g id="node54" class="node">
<title>n54</title>
<ellipse fill="none" stroke="#000000" cx="988.5" cy="-126.6482" rx="13.3704" ry="13.3704"/>
<text text-anchor="middle" x="988.5" y="-122.9482" font-family="Times,serif" font-size="14.00" fill="#000000">Σ4</text>
</g>
<!-- n5&#45;&gt;n54 -->
<g id="edge71" class="edge">
<title>n5&#45;&gt;n54</title>
<path fill="none" stroke="#000000" stroke-dasharray="5,2" d="M972.4444,-1539.5745C997.0325,-1527.7048 1034.5,-1504.0233 1034.5,-1469.9245 1034.5,-1469.9245 1034.5,-1469.9245 1034.5,-187.6899 1034.5,-166.7652 1017.0469,-148.4582 1003.6418,-137.4832"/>
<polygon fill="#000000" stroke="#000000" points="1004.6435,-136.0444 999.6353,-134.3178 1002.4737,-138.7907 1004.6435,-136.0444"/>
</g>
<!-- n6 -->
<g id="node6" class="node">
<title>n6</title>
<ellipse fill="none" stroke="#000000" cx="790.5" cy="-1548.3509" rx="22.7556" ry="10.7143"/>
<text text-anchor="middle" x="790.5" y="-1544.6509" font-family="Times,serif" font-size="14.00" fill="#000000">p:Ω̃₀</text>
</g>
<!-- n33 -->
<g id="node33" class="node">
<title>n33</title>
<ellipse fill="none" stroke="#000000" cx="810.5" cy="-1240.8585" rx="36.5405" ry="10.7143"/>
<text text-anchor="middle" x="810.5" y="-1237.1585" font-family="Times,serif" font-size="14.00" fill="#000000">•20:Ω•</text>
</g>
<!-- n6&#45;&gt;n33 -->
<g id="edge19" class="edge">
<title>n6&#45;&gt;n33</title>
<path fill="none" stroke="#000000" d="M791.2118,-1537.4071C794.219,-1491.1725 805.8913,-1311.7156 809.4585,-1256.8705"/>
<polygon fill="#000000" stroke="#000000" points="811.2184,-1256.7742 809.7967,-1251.6712 807.7258,-1256.547 811.2184,-1256.7742"/>
<text text-anchor="middle" x="806.5" y="-1387.7981" font-family="Times,serif" font-size="14.00" fill="#000000">d</text>
</g>
<!-- n7 -->
<g id="node7" class="node">
<title>n7</title>
<ellipse fill="none" stroke="#000000" cx="169.5" cy="-1587.5641" rx="22.7556" ry="10.7143"/>
<text text-anchor="middle" x="169.5" y="-1583.8641" font-family="Times,serif" font-size="14.00" fill="#000000">b:Ω̃₀</text>
</g>
<!-- n49 -->
<g id="node49" class="node">
<title>n49</title>
<polygon fill="none" stroke="#000000" points="49,-1516.6377 0,-1516.6377 0,-1501.6377 49,-1501.6377 49,-1516.6377"/>
<text text-anchor="middle" x="24.5" y="-1505.4377" font-family="Times,serif" font-size="14.00" fill="#000000">Ω̃₀×Ω̃₁</text>
</g>
<!-- n7&#45;&gt;n49 -->
<g id="edge53" class="edge">
<title>n7&#45;&gt;n49</title>
<path fill="none" stroke="#000000" stroke-dasharray="5,2" d="M154.5286,-1579.4665C127.8794,-1565.0527 72.2879,-1534.9848 43.1815,-1519.242"/>
<polygon fill="#000000" stroke="#000000" points="43.9765,-1517.6824 38.746,-1516.843 42.3114,-1520.761 43.9765,-1517.6824"/>
<text text-anchor="middle" x="122.5" y="-1544.6509" font-family="Times,serif" font-size="14.00" fill="#000000">π₁</text>
</g>
<!-- n8 -->
<g id="node8" class="node">
<title>n8</title>
<ellipse fill="none" stroke="#000000" cx="42.5" cy="-1587.5641" rx="22.7556" ry="10.7143"/>
<text text-anchor="middle" x="42.5" y="-1583.8641" font-family="Times,serif" font-size="14.00" fill="#000000">ĝ:Ω̃₁</text>
</g>
<!-- n8&#45;&gt;n49 -->
<g id="edge54" class="edge">
<title>n8&#45;&gt;n49</title>
<path fill="none" stroke="#000000" stroke-dasharray="5,2" d="M40.0724,-1576.9872C36.7906,-1562.6879 30.9449,-1537.2183 27.4249,-1521.8814"/>
<polygon fill="#000000" stroke="#000000" points="29.0665,-1521.2106 26.2423,-1516.7288 25.6552,-1521.9936 29.0665,-1521.2106"/>
<text text-anchor="middle" x="44.5" y="-1544.6509" font-family="Times,serif" font-size="14.00" fill="#000000">π₂</text>
</g>
<!-- n9 -->
<g id="node9" class="node">
<title>n9</title>
<ellipse fill="none" stroke="#000000" cx="1076.5" cy="-927.7092" rx="26.7407" ry="10.7143"/>
<text text-anchor="middle" x="1076.5" y="-924.0092" font-family="Times,serif" font-size="14.00" fill="#000000">Fᵥ:Ω̃₁</text>
</g>
<!-- n9&#45;&gt;n54 -->
<g id="edge72" class="edge">
<title>n9&#45;&gt;n54</title>
<path fill="none" stroke="#000000" stroke-dasharray="5,2" d="M1076.0361,-916.9849C1075.4453,-902.3788 1074.5,-875.4119 1074.5,-852.3894 1074.5,-852.3894 1074.5,-852.3894 1074.5,-187.6899 1074.5,-154.8705 1032.3365,-138.084 1007.0548,-130.9685"/>
<polygon fill="#000000" stroke="#000000" points="1007.2203,-129.201 1001.9375,-129.5947 1006.3127,-132.5813 1007.2203,-129.201"/>
</g>
<!-- n10 -->
<g id="node10" class="node">
<title>n10</title>
<ellipse fill="none" stroke="#000000" cx="912.5" cy="-1469.9245" rx="106.5467" ry="10.7143"/>
<text text-anchor="middle" x="912.5" y="-1466.2245" font-family="Times,serif" font-size="14.00" fill="#000000">StressDivergence:Ω̃₁</text>
</g>
<!-- n50 -->
<g id="node50" class="node">
<title>n50</title>
<polygon fill="none" stroke="#000000" points="886,-264.2965 835,-264.2965 835,-249.2965 886,-249.2965 886,-264.2965"/>
<text text-anchor="middle" x="860.5" y="-253.0965" font-family="Times,serif" font-size="14.00" fill="#000000">Ω•×Ω̃₁</text>
</g>
<!-- n10&#45;&gt;n50 -->
<g id="edge57" class="edge">
<title>n10&#45;&gt;n50</title>
<path fill="none" stroke="#000000" stroke-dasharray="5,2" d="M905.0781,-1459.3173C895.625,-1444.7429 880.5,-1417.3797 880.5,-1391.4981 880.5,-1391.4981 880.5,-1391.4981 880.5,-325.9031 880.5,-305.4351 872.3045,-282.8535 866.406,-269.2517"/>
<polygon fill="#000000" stroke="#000000" points="867.9947,-268.5175 864.3562,-264.6673 864.7996,-269.9461 867.9947,-268.5175"/>
<text text-anchor="middle" x="888.5" y="-848.6894" font-family="Times,serif" font-size="14.00" fill="#000000">π₂</text>
</g>
<!-- n37 -->
<g id="node37" class="node">
<title>n37</title>
</g>
<!-- n11&#45;&gt;n37 -->
<g id="edge11" class="edge">
<title>n11&#45;&gt;n37</title>
<path fill="none" stroke="#000000" d="M934.5,-40.5973C934.5,-31.135 934.5,-17.7454 934.5,-9.4807"/>
<polygon fill="#000000" stroke="#000000" points="936.2501,-9.3096 934.5,-4.3096 932.7501,-9.3096 936.2501,-9.3096"/>
</g>
<!-- n12 -->
<g id="node12" class="node">
<title>n12</title>
<ellipse fill="none" stroke="#000000" cx="860.5" cy="-187.6899" rx="30.3115" ry="10.7143"/>
<text text-anchor="middle" x="860.5" y="-183.9899" font-family="Times,serif" font-size="14.00" fill="#000000">•2:Ω•</text>
</g>
<!-- n12&#45;&gt;n54 -->
<g id="edge70" class="edge">
<title>n12&#45;&gt;n54</title>
<path fill="none" stroke="#000000" stroke-dasharray="5,2" d="M878.5678,-179.0736C903.3764,-167.2427 947.6467,-146.1307 971.7457,-134.6382"/>
<polygon fill="#000000" stroke="#000000" points="972.525,-136.2054 976.2848,-132.4735 971.0184,-133.0462 972.525,-136.2054"/>
</g>
<!-- n13 -->
<g id="node13" class="node">
<title>n13</title>
<ellipse fill="none" stroke="#000000" cx="694.5" cy="-461.9863" rx="30.3115" ry="10.7143"/>
<text text-anchor="middle" x="694.5" y="-458.2863" font-family="Times,serif" font-size="14.00" fill="#000000">•3:Ω•</text>
</g>
<!-- n53 -->
<g id="node53" class="node">
<title>n53</title>
<ellipse fill="none" stroke="#000000" cx="694.5" cy="-400.9447" rx="13.3704" ry="13.3704"/>
<text text-anchor="middle" x="694.5" y="-397.2447" font-family="Times,serif" font-size="14.00" fill="#000000">Σ3</text>
</g>
<!-- n13&#45;&gt;n53 -->
<g id="edge68" class="edge">
<title>n13&#45;&gt;n53</title>
<path fill="none" stroke="#000000" stroke-dasharray="5,2" d="M694.5,-451.3537C694.5,-442.6274 694.5,-430.0593 694.5,-419.6558"/>
<polygon fill="#000000" stroke="#000000" points="696.2501,-419.4444 694.5,-414.4445 692.7501,-419.4445 696.2501,-419.4444"/>
</g>
<!-- n14 -->
<g id="node14" class="node">
<title>n14</title>
<ellipse fill="none" stroke="#000000" cx="603.5" cy="-600.1995" rx="30.3115" ry="10.7143"/>
<text text-anchor="middle" x="603.5" y="-596.4995" font-family="Times,serif" font-size="14.00" fill="#000000">•4:Ω•</text>
</g>
<!-- n48 -->
<g id="node48" class="node">
<title>n48</title>
<polygon fill="none" stroke="#000000" points="721,-538.5929 668,-538.5929 668,-523.5929 721,-523.5929 721,-538.5929"/>
<text text-anchor="middle" x="694.5" y="-527.3929" font-family="Times,serif" font-size="14.00" fill="#000000">Ω•×Ω•</text>
</g>
<!-- n14&#45;&gt;n48 -->
<g id="edge50" class="edge">
<title>n14&#45;&gt;n48</title>
<path fill="none" stroke="#000000" stroke-dasharray="5,2" d="M616.5381,-590.2982C633.4824,-577.4305 662.9594,-555.0453 680.4063,-541.7959"/>
<polygon fill="#000000" stroke="#000000" points="681.6442,-543.0532 684.5678,-538.6356 679.5274,-540.2659 681.6442,-543.0532"/>
<text text-anchor="middle" x="668.5" y="-560.3929" font-family="Times,serif" font-size="14.00" fill="#000000">π₁</text>
</g>
<!-- n15 -->
<g id="node15" class="node">
<title>n15</title>
<ellipse fill="none" stroke="#000000" cx="525.5" cy="-888.496" rx="30.3115" ry="10.7143"/>
<text text-anchor="middle" x="525.5" y="-884.796" font-family="Times,serif" font-size="14.00" fill="#000000">•5:Ω•</text>
</g>
<!-- n52 -->
<g id="node52" class="node">
<title>n52</title>
<ellipse fill="none" stroke="#000000" cx="467.5" cy="-813.4544" rx="13.3704" ry="13.3704"/>
<text text-anchor="middle" x="467.5" y="-809.7544" font-family="Times,serif" font-size="14.00" fill="#000000">Σ2</text>
</g>
<!-- n15&#45;&gt;n52 -->
<g id="edge65" class="edge">
<title>n15&#45;&gt;n52</title>
<path fill="none" stroke="#000000" stroke-dasharray="5,2" d="M517.4353,-878.0618C507.506,-865.2149 490.5653,-843.2967 479.2044,-828.5978"/>
<polygon fill="#000000" stroke="#000000" points="480.3141,-827.1718 475.8718,-824.2859 477.5448,-829.3122 480.3141,-827.1718"/>
</g>
<!-- n16 -->
<g id="node16" class="node">
<title>n16</title>
<ellipse fill="none" stroke="#000000" cx="562.5" cy="-1313.0717" rx="30.3115" ry="10.7143"/>
<text text-anchor="middle" x="562.5" y="-1309.3717" font-family="Times,serif" font-size="14.00" fill="#000000">•6:Ω•</text>
</g>
<!-- n51 -->
<g id="node51" class="node">
<title>n51</title>
<ellipse fill="none" stroke="#000000" cx="611.5" cy="-1120.3904" rx="13.3704" ry="13.3704"/>
<text text-anchor="middle" x="611.5" y="-1116.6904" font-family="Times,serif" font-size="14.00" fill="#000000">Σ1</text>
</g>
<!-- n16&#45;&gt;n51 -->
<g id="edge63" class="edge">
<title>n16&#45;&gt;n51</title>
<path fill="none" stroke="#000000" stroke-dasharray="5,2" d="M565.2042,-1302.4378C573.2111,-1270.9528 596.8631,-1177.9467 606.9062,-1138.4545"/>
<polygon fill="#000000" stroke="#000000" points="608.6376,-1138.7462 608.174,-1133.4691 605.2456,-1137.8836 608.6376,-1138.7462"/>
</g>
<!-- n17 -->
<g id="node17" class="node">
<title>n17</title>
<ellipse fill="none" stroke="#000000" cx="597.5" cy="-1391.4981" rx="30.3115" ry="10.7143"/>
<text text-anchor="middle" x="597.5" y="-1387.7981" font-family="Times,serif" font-size="14.00" fill="#000000">•7:Ω•</text>
</g>
<!-- n17&#45;&gt;n16 -->
<g id="edge13" class="edge">
<title>n17&#45;&gt;n16</title>
<path fill="none" stroke="#000000" d="M584.2084,-1381.7974C578.4059,-1376.8207 572.1128,-1370.2567 568.5,-1362.8915 563.3379,-1352.368 561.9446,-1339.1446 561.7844,-1328.9662"/>
<polygon fill="#000000" stroke="#000000" points="563.5343,-1328.9569 561.7996,-1323.9516 560.0343,-1328.9462 563.5343,-1328.9569"/>
<text text-anchor="middle" x="571" y="-1348.5849" font-family="Times,serif" font-size="14.00" fill="#000000">&#45;</text>
</g>
<!-- n18 -->
<g id="node18" class="node">
<title>n18</title>
<ellipse fill="none" stroke="#000000" cx="637.5" cy="-1201.6453" rx="30.3115" ry="10.7143"/>
<text text-anchor="middle" x="637.5" y="-1197.9453" font-family="Times,serif" font-size="14.00" fill="#000000">•8:Ω•</text>
</g>
<!-- n18&#45;&gt;n51 -->
<g id="edge64" class="edge">
<title>n18&#45;&gt;n51</title>
<path fill="none" stroke="#000000" stroke-dasharray="5,2" d="M634.101,-1191.0226C629.8098,-1177.6118 622.3651,-1154.346 617.1981,-1138.1982"/>
<polygon fill="#000000" stroke="#000000" points="618.8644,-1137.663 615.6737,-1133.4342 615.5309,-1138.7297 618.8644,-1137.663"/>
</g>
<!-- n19 -->
<g id="node19" class="node">
<title>n19</title>
<ellipse fill="none" stroke="#000000" cx="617.5" cy="-1352.2849" rx="34.7971" ry="10.7143"/>
<text text-anchor="middle" x="617.5" y="-1348.5849" font-family="Times,serif" font-size="14.00" fill="#000000">0.5:ΩL</text>
</g>
<!-- n40 -->
<g id="node40" class="node">
<title>n40</title>
<polygon fill="none" stroke="#000000" points="665,-1284.4651 610,-1284.4651 610,-1269.4651 665,-1269.4651 665,-1284.4651"/>
<text text-anchor="middle" x="637.5" y="-1273.2651" font-family="Times,serif" font-size="14.00" fill="#000000">ΩL×Ω•</text>
</g>
<!-- n19&#45;&gt;n40 -->
<g id="edge26" class="edge">
<title>n19&#45;&gt;n40</title>
<path fill="none" stroke="#000000" stroke-dasharray="5,2" d="M620.3655,-1341.4934C624.021,-1327.7268 630.3305,-1303.9652 634.1882,-1289.4374"/>
<polygon fill="#000000" stroke="#000000" points="635.8971,-1289.8201 635.489,-1284.5384 632.5144,-1288.9218 635.8971,-1289.8201"/>
<text text-anchor="middle" x="638.5" y="-1309.3717" font-family="Times,serif" font-size="14.00" fill="#000000">π₁</text>
</g>
<!-- n20 -->
<g id="node20" class="node">
<title>n20</title>
<ellipse fill="none" stroke="#000000" cx="700.5" cy="-1352.2849" rx="30.3115" ry="10.7143"/>
<text text-anchor="middle" x="700.5" y="-1348.5849" font-family="Times,serif" font-size="14.00" fill="#000000">•9:Ω•</text>
</g>
<!-- n20&#45;&gt;n40 -->
<g id="edge27" class="edge">
<title>n20&#45;&gt;n40</title>
<path fill="none" stroke="#000000" stroke-dasharray="5,2" d="M691.7401,-1341.812C680.0968,-1327.8918 659.578,-1303.3605 647.3906,-1288.7898"/>
<polygon fill="#000000" stroke="#000000" points="648.4451,-1287.3229 643.8948,-1284.6104 645.7604,-1289.5684 648.4451,-1287.3229"/>
<text text-anchor="middle" x="684.5" y="-1309.3717" font-family="Times,serif" font-size="14.00" fill="#000000">π₂</text>
</g>
<!-- n21 -->
<g id="node21" class="node">
<title>n21</title>
<ellipse fill="none" stroke="#000000" cx="693.5" cy="-1430.7113" rx="36.5405" ry="10.7143"/>
<text text-anchor="middle" x="693.5" y="-1427.0113" font-family="Times,serif" font-size="14.00" fill="#000000">•10:Ω•</text>
</g>
<!-- n21&#45;&gt;n20 -->
<g id="edge14" class="edge">
<title>n21&#45;&gt;n20</title>
<path fill="none" stroke="#000000" d="M694.4733,-1419.8064C695.6644,-1406.4617 697.6915,-1383.7512 699.0623,-1368.3921"/>
<polygon fill="#000000" stroke="#000000" points="700.8334,-1368.2329 699.5349,-1363.0971 697.3473,-1367.9217 700.8334,-1368.2329"/>
<text text-anchor="middle" x="703.5" y="-1387.7981" font-family="Times,serif" font-size="14.00" fill="#000000">d</text>
</g>
<!-- n22 -->
<g id="node22" class="node">
<title>n22</title>
<ellipse fill="none" stroke="#000000" cx="611.5" cy="-1039.1356" rx="50.8235" ry="10.7143"/>
<text text-anchor="middle" x="611.5" y="-1035.4356" font-family="Times,serif" font-size="14.00" fill="#000000">sum_1:Ω•</text>
</g>
<!-- n42 -->
<g id="node42" class="node">
<title>n42</title>
<polygon fill="none" stroke="#000000" points="553,-971.3158 500,-971.3158 500,-956.3158 553,-956.3158 553,-971.3158"/>
<text text-anchor="middle" x="526.5" y="-960.1158" font-family="Times,serif" font-size="14.00" fill="#000000">Ω•×Ω•</text>
</g>
<!-- n22&#45;&gt;n42 -->
<g id="edge32" class="edge">
<title>n22&#45;&gt;n42</title>
<path fill="none" stroke="#000000" stroke-dasharray="5,2" d="M599.6811,-1028.6627C583.7011,-1014.5025 555.3296,-989.3621 539.004,-974.8958"/>
<polygon fill="#000000" stroke="#000000" points="540.0307,-973.4674 535.1279,-971.4611 537.7095,-976.0869 540.0307,-973.4674"/>
<text text-anchor="middle" x="587.5" y="-996.2224" font-family="Times,serif" font-size="14.00" fill="#000000">π₁</text>
</g>
<!-- n23 -->
<g id="node23" class="node">
<title>n23</title>
<ellipse fill="none" stroke="#000000" cx="526.5" cy="-1078.3488" rx="36.5405" ry="10.7143"/>
<text text-anchor="middle" x="526.5" y="-1074.6488" font-family="Times,serif" font-size="14.00" fill="#000000">•11:Ω•</text>
</g>
<!-- n23&#45;&gt;n42 -->
<g id="edge33" class="edge">
<title>n23&#45;&gt;n42</title>
<path fill="none" stroke="#000000" stroke-dasharray="5,2" d="M526.5,-1067.3669C526.5,-1046.1013 526.5,-999.4022 526.5,-976.7063"/>
<polygon fill="#000000" stroke="#000000" points="528.2501,-976.4833 526.5,-971.4834 524.7501,-976.4834 528.2501,-976.4833"/>
<text text-anchor="middle" x="534.5" y="-1035.4356" font-family="Times,serif" font-size="14.00" fill="#000000">π₂</text>
</g>
<!-- n24 -->
<g id="node24" class="node">
<title>n24</title>
<ellipse fill="none" stroke="#000000" cx="527.5" cy="-1240.8585" rx="36.5405" ry="10.7143"/>
<text text-anchor="middle" x="527.5" y="-1237.1585" font-family="Times,serif" font-size="14.00" fill="#000000">•12:Ω•</text>
</g>
<!-- n24&#45;&gt;n23 -->
<g id="edge15" class="edge">
<title>n24&#45;&gt;n23</title>
<path fill="none" stroke="#000000" d="M527.4344,-1230.1958C527.2635,-1202.4271 526.8039,-1127.7363 526.5999,-1094.5835"/>
<polygon fill="#000000" stroke="#000000" points="528.348,-1094.253 526.5672,-1089.2639 524.8481,-1094.2746 528.348,-1094.253"/>
<text text-anchor="middle" x="532.5" y="-1158.7321" font-family="Times,serif" font-size="14.00" fill="#000000">d</text>
</g>
<!-- n25 -->
<g id="node25" class="node">
<title>n25</title>
<ellipse fill="none" stroke="#000000" cx="415.5" cy="-1313.0717" rx="36.5405" ry="10.7143"/>
<text text-anchor="middle" x="415.5" y="-1309.3717" font-family="Times,serif" font-size="14.00" fill="#000000">•13:Ω•</text>
</g>
<!-- n25&#45;&gt;n52 -->
<g id="edge66" class="edge">
<title>n25&#45;&gt;n52</title>
<path fill="none" stroke="#000000" stroke-dasharray="5,2" d="M415.5,-1302.3054C415.5,-1288.194 415.5,-1262.6729 415.5,-1240.8585 415.5,-1240.8585 415.5,-1240.8585 415.5,-888.496 415.5,-862.2725 437.2186,-838.6016 452.5837,-825.1367"/>
<polygon fill="#000000" stroke="#000000" points="454.0494,-826.1876 456.7256,-821.6159 451.7825,-823.5208 454.0494,-826.1876"/>
</g>
<!-- n26&#45;&gt;n43 -->
<g id="edge36" class="edge">
<title>n26&#45;&gt;n43</title>
<path fill="none" stroke="#000000" stroke-dasharray="5,2" d="M255.2206,-1498.3589C263.2411,-1487.6401 276.5506,-1471.133 290.5,-1459.3179 298.7412,-1452.3376 308.8705,-1445.9432 317.6127,-1440.9786"/>
<polygon fill="#000000" stroke="#000000" points="318.7839,-1442.33 322.306,-1438.373 317.085,-1439.27 318.7839,-1442.33"/>
<text text-anchor="middle" x="298.5" y="-1466.2245" font-family="Times,serif" font-size="14.00" fill="#000000">π₂</text>
</g>
<!-- n27 -->
<g id="node27" class="node">
<title>n27</title>
<ellipse fill="none" stroke="#000000" cx="467.5" cy="-999.9224" rx="36.5405" ry="10.7143"/>
<text text-anchor="middle" x="467.5" y="-996.2224" font-family="Times,serif" font-size="14.00" fill="#000000">•15:Ω•</text>
</g>
<!-- n27&#45;&gt;n52 -->
<g id="edge67" class="edge">
<title>n27&#45;&gt;n52</title>
<path fill="none" stroke="#000000" stroke-dasharray="5,2" d="M467.5,-989.0911C467.5,-958.4941 467.5,-871.1262 467.5,-832.3675"/>
<polygon fill="#000000" stroke="#000000" points="469.2501,-832.0143 467.5,-827.0143 465.7501,-832.0143 469.2501,-832.0143"/>
</g>
<!-- n28&#45;&gt;n44 -->
<g id="edge39" class="edge">
<title>n28&#45;&gt;n44</title>
<path fill="none" stroke="#000000" stroke-dasharray="5,2" d="M478.533,-1498.5608C474.5218,-1484.2615 467.3771,-1458.7919 463.0748,-1443.455"/>
<polygon fill="#000000" stroke="#000000" points="464.6649,-1442.6439 461.6294,-1438.3024 461.295,-1443.5893 464.6649,-1442.6439"/>
<text text-anchor="middle" x="481.5" y="-1466.2245" font-family="Times,serif" font-size="14.00" fill="#000000">π₂</text>
</g>
<!-- n29 -->
<g id="node29" class="node">
<title>n29</title>
<ellipse fill="none" stroke="#000000" cx="467.5" cy="-738.4127" rx="50.8235" ry="10.7143"/>
<text text-anchor="middle" x="467.5" y="-734.7127" font-family="Times,serif" font-size="14.00" fill="#000000">sum_2:Ω•</text>
</g>
<!-- n47 -->
<g id="node47" class="node">
<title>n47</title>
<polygon fill="none" stroke="#000000" points="494,-676.8061 441,-676.8061 441,-661.8061 494,-661.8061 494,-676.8061"/>
<text text-anchor="middle" x="467.5" y="-665.6061" font-family="Times,serif" font-size="14.00" fill="#000000">Ω•×Ω•</text>
</g>
<!-- n29&#45;&gt;n47 -->
<g id="edge47" class="edge">
<title>n29&#45;&gt;n47</title>
<path fill="none" stroke="#000000" stroke-dasharray="5,2" d="M467.5,-727.6148C467.5,-715.2584 467.5,-695.0465 467.5,-681.9612"/>
<polygon fill="#000000" stroke="#000000" points="469.2501,-681.8333 467.5,-676.8333 465.7501,-681.8333 469.2501,-681.8333"/>
<text text-anchor="middle" x="475.5" y="-698.6061" font-family="Times,serif" font-size="14.00" fill="#000000">π₁</text>
</g>
<!-- n30 -->
<g id="node30" class="node">
<title>n30</title>
<ellipse fill="none" stroke="#000000" cx="362.5" cy="-1162.4321" rx="36.5405" ry="10.7143"/>
<text text-anchor="middle" x="362.5" y="-1158.7321" font-family="Times,serif" font-size="14.00" fill="#000000">•17:Ω•</text>
</g>
<!-- n30&#45;&gt;n47 -->
<g id="edge48" class="edge">
<title>n30&#45;&gt;n47</title>
<path fill="none" stroke="#000000" stroke-dasharray="5,2" d="M364.1966,-1151.579C366.5449,-1135.5901 370.5,-1104.7435 370.5,-1078.3488 370.5,-1078.3488 370.5,-1078.3488 370.5,-738.4127 370.5,-705.575 407.8303,-686.8843 436.1743,-677.4255"/>
<polygon fill="#000000" stroke="#000000" points="436.7701,-679.0723 440.9943,-675.8757 435.6986,-675.7403 436.7701,-679.0723"/>
<text text-anchor="middle" x="378.5" y="-924.0092" font-family="Times,serif" font-size="14.00" fill="#000000">π₂</text>
</g>
<!-- n31 -->
<g id="node31" class="node">
<title>n31</title>
<ellipse fill="none" stroke="#000000" cx="252.5" cy="-1352.2849" rx="36.5405" ry="10.7143"/>
<text text-anchor="middle" x="252.5" y="-1348.5849" font-family="Times,serif" font-size="14.00" fill="#000000">•18:Ω•</text>
</g>
<!-- n31&#45;&gt;n46 -->
<g id="edge44" class="edge">
<title>n31&#45;&gt;n46</title>
<path fill="none" stroke="#000000" stroke-dasharray="5,2" d="M266.7498,-1342.4381C287.3299,-1328.2172 325.2108,-1302.0412 346.3058,-1287.4644"/>
<polygon fill="#000000" stroke="#000000" points="347.4215,-1288.8206 350.5402,-1284.5384 345.4318,-1285.9412 347.4215,-1288.8206"/>
<text text-anchor="middle" x="331.5" y="-1309.3717" font-family="Times,serif" font-size="14.00" fill="#000000">π₁</text>
</g>
<!-- n32&#45;&gt;n45 -->
<g id="edge42" class="edge">
<title>n32&#45;&gt;n45</title>
<path fill="none" stroke="#000000" stroke-dasharray="5,2" d="M112.1087,-1498.5741C120.5926,-1488.3075 134.0555,-1472.3951 146.5,-1459.3179 152.2239,-1453.303 158.8819,-1446.8992 164.4695,-1441.6789"/>
<polygon fill="#000000" stroke="#000000" points="165.6658,-1442.9562 168.1422,-1438.2732 163.2859,-1440.3898 165.6658,-1442.9562"/>
<text text-anchor="middle" x="154.5" y="-1466.2245" font-family="Times,serif" font-size="14.00" fill="#000000">π₂</text>
</g>
<!-- n33&#45;&gt;n48 -->
<g id="edge51" class="edge">
<title>n33&#45;&gt;n48</title>
<path fill="none" stroke="#000000" stroke-dasharray="5,2" d="M809.1684,-1230.2226C807.4008,-1215.16 804.5,-1186.7388 804.5,-1162.4321 804.5,-1162.4321 804.5,-1162.4321 804.5,-600.1995 804.5,-562.9497 758.7128,-544.9996 726.2197,-536.951"/>
<polygon fill="#000000" stroke="#000000" points="726.3969,-535.1945 721.1279,-535.7428 725.5888,-538.6 726.3969,-535.1945"/>
<text text-anchor="middle" x="812.5" y="-884.796" font-family="Times,serif" font-size="14.00" fill="#000000">π₂</text>
</g>
<!-- n34 -->
<g id="node34" class="node">
<title>n34</title>
<ellipse fill="none" stroke="#000000" cx="49.5" cy="-1391.4981" rx="36.5405" ry="10.7143"/>
<text text-anchor="middle" x="49.5" y="-1387.7981" font-family="Times,serif" font-size="14.00" fill="#000000">•21:Ω•</text>
</g>
<!-- n34&#45;&gt;n53 -->
<g id="edge69" class="edge">
<title>n34&#45;&gt;n53</title>
<path fill="none" stroke="#000000" stroke-dasharray="5,2" d="M73.1923,-1383.1713C100.4512,-1371.8971 141.5,-1348.9613 141.5,-1313.0717 141.5,-1313.0717 141.5,-1313.0717 141.5,-461.9863 141.5,-434.4949 578.9751,-407.6175 675.7142,-402.0101"/>
<polygon fill="#000000" stroke="#000000" points="675.9394,-403.7501 680.8303,-401.715 675.7378,-400.2559 675.9394,-403.7501"/>
</g>
<!-- n35 -->
<g id="node35" class="node">
<title>n35</title>
<ellipse fill="none" stroke="#000000" cx="797.5" cy="-325.9031" rx="50.8235" ry="10.7143"/>
<text text-anchor="middle" x="797.5" y="-322.2031" font-family="Times,serif" font-size="14.00" fill="#000000">sum_3:Ω•</text>
</g>
<!-- n35&#45;&gt;n50 -->
<g id="edge56" class="edge">
<title>n35&#45;&gt;n50</title>
<path fill="none" stroke="#000000" stroke-dasharray="5,2" d="M807.0683,-315.4073C818.6729,-302.6779 838.1609,-281.3009 850.1195,-268.1831"/>
<polygon fill="#000000" stroke="#000000" points="851.4967,-269.27 853.572,-264.396 848.9102,-266.912 851.4967,-269.27"/>
<text text-anchor="middle" x="844.5" y="-286.0965" font-family="Times,serif" font-size="14.00" fill="#000000">π₁</text>
</g>
<!-- n36 -->
<g id="node36" class="node">
<title>n36</title>
</g>
<!-- n36&#45;&gt;n1 -->
<g id="edge1" class="edge">
<title>n36&#45;&gt;n1</title>
<path fill="none" stroke="#000000" d="M439.6696,-1636.3097C451.4249,-1631.6446 508.1362,-1609.1385 540.2313,-1596.4015"/>
<polygon fill="#000000" stroke="#000000" points="541.1585,-1597.9164 545.1603,-1594.4454 539.8674,-1594.6632 541.1585,-1597.9164"/>
</g>
<!-- n36&#45;&gt;n2 -->
<g id="edge2" class="edge">
<title>n36&#45;&gt;n2</title>
<path fill="none" stroke="#000000" d="M435.3706,-1635.5202C428.3524,-1630.0804 405.4933,-1612.3622 389.619,-1600.058"/>
<polygon fill="#000000" stroke="#000000" points="390.3699,-1598.4258 385.3459,-1596.7459 388.2256,-1601.1922 390.3699,-1598.4258"/>
</g>
<!-- n36&#45;&gt;n3 -->
<g id="edge3" class="edge">
<title>n36&#45;&gt;n3</title>
<path fill="none" stroke="#000000" d="M435.1026,-1636.2588C424.2137,-1632.1039 378.3546,-1614.4661 341.5,-1598.1707 311.6656,-1584.9793 277.6785,-1568.3979 256.9108,-1558.0856"/>
<polygon fill="#000000" stroke="#000000" points="257.4359,-1556.3923 252.1798,-1555.7313 255.8765,-1559.5257 257.4359,-1556.3923"/>
</g>
<!-- n36&#45;&gt;n4 -->
<g id="edge4" class="edge">
<title>n36&#45;&gt;n4</title>
<path fill="none" stroke="#000000" d="M435.1739,-1637.1248C421.7599,-1636.8006 353.0534,-1634.3329 300.5,-1617.1707 287.3279,-1612.8691 273.5562,-1605.6298 262.966,-1599.3866"/>
<polygon fill="#000000" stroke="#000000" points="263.8204,-1597.8583 258.6332,-1596.7833 262.0178,-1600.8585 263.8204,-1597.8583"/>
</g>
<!-- n36&#45;&gt;n5 -->
<g id="edge5" class="edge">
<title>n36&#45;&gt;n5</title>
<path fill="none" stroke="#000000" d="M439.6333,-1637.1645C470.8695,-1637.0622 835.2743,-1635.4781 878.5,-1617.1707 905.328,-1605.8082 928.2637,-1579.9121 940.9395,-1563.3264"/>
<polygon fill="#000000" stroke="#000000" points="942.6451,-1563.9676 944.2373,-1558.9151 939.8418,-1561.8719 942.6451,-1563.9676"/>
</g>
<!-- n36&#45;&gt;n6 -->
<g id="edge6" class="edge">
<title>n36&#45;&gt;n6</title>
<path fill="none" stroke="#000000" d="M439.5997,-1636.7837C460.3209,-1632.9412 630.2545,-1600.8904 763.5,-1558.9575 765.1333,-1558.4435 766.8091,-1557.8789 768.4872,-1557.2863"/>
<polygon fill="#000000" stroke="#000000" points="769.3998,-1558.8153 773.4883,-1555.4467 768.1915,-1555.5304 769.3998,-1558.8153"/>
</g>
<!-- n36&#45;&gt;n7 -->
<g id="edge7" class="edge">
<title>n36&#45;&gt;n7</title>
<path fill="none" stroke="#000000" d="M435.4886,-1636.947C422.7804,-1635.5213 352.3394,-1627.4363 295.5,-1617.1707 256.9793,-1610.2136 247.5376,-1607.4114 209.5,-1598.1707 204.5781,-1596.975 199.3335,-1595.6335 194.3172,-1594.3171"/>
<polygon fill="#000000" stroke="#000000" points="194.6788,-1592.6026 189.3974,-1593.0155 193.7835,-1595.9862 194.6788,-1592.6026"/>
</g>
<!-- n36&#45;&gt;n8 -->
<g id="edge8" class="edge">
<title>n36&#45;&gt;n8</title>
<path fill="none" stroke="#000000" d="M435.3748,-1636.9038C409.4717,-1633.6507 154.0259,-1601.5702 69.5009,-1590.955"/>
<polygon fill="#000000" stroke="#000000" points="69.5993,-1589.2037 64.4202,-1590.317 69.1631,-1592.6765 69.5993,-1589.2037"/>
</g>
<!-- n36&#45;&gt;n9 -->
<g id="edge9" class="edge">
<title>n36&#45;&gt;n9</title>
<path fill="none" stroke="#000000" d="M439.5601,-1637.1238C479.0985,-1636.2101 1074.5,-1621.8816 1074.5,-1587.5641 1074.5,-1587.5641 1074.5,-1587.5641 1074.5,-999.9224 1074.5,-980.4865 1075.2329,-958.1194 1075.8114,-943.492"/>
<polygon fill="#000000" stroke="#000000" points="1077.5608,-943.5401 1076.0159,-938.4729 1074.0637,-943.3975 1077.5608,-943.5401"/>
</g>
<!-- n36&#45;&gt;n10 -->
<g id="edge10" class="edge">
<title>n36&#45;&gt;n10</title>
<path fill="none" stroke="#000000" d="M439.8214,-1636.9049C468.3062,-1633.6133 750.5981,-1600.1584 822.5,-1558.9575 856.1485,-1539.6764 886.1687,-1504.6774 901.5768,-1484.7877"/>
<polygon fill="#000000" stroke="#000000" points="902.9915,-1485.8186 904.639,-1480.7838 900.2114,-1483.6923 902.9915,-1485.8186"/>
</g>
<!-- n38&#45;&gt;n17 -->
<g id="edge22" class="edge">
<title>n38&#45;&gt;n17</title>
<path fill="none" stroke="#000000" d="M625.5316,-1501.419C620.688,-1482.4257 608.1111,-1433.1076 601.5764,-1407.4829"/>
<polygon fill="#000000" stroke="#000000" points="603.2099,-1406.8064 600.2786,-1402.3939 599.8185,-1407.6713 603.2099,-1406.8064"/>
<text text-anchor="middle" x="630" y="-1466.2245" font-family="Times,serif" font-size="14.00" fill="#000000">ℒ₁</text>
</g>
<!-- n39&#45;&gt;n21 -->
<g id="edge25" class="edge">
<title>n39&#45;&gt;n21</title>
<path fill="none" stroke="#000000" d="M694.4041,-1501.6178C694.2442,-1489.0798 693.9197,-1463.6303 693.7061,-1446.8785"/>
<polygon fill="#000000" stroke="#000000" points="695.4521,-1446.5393 693.6384,-1441.5621 691.9523,-1446.584 695.4521,-1446.5393"/>
<text text-anchor="middle" x="703.5" y="-1466.2245" font-family="Times,serif" font-size="14.00" fill="#000000">ι₁₁</text>
</g>
<!-- n40&#45;&gt;n18 -->
<g id="edge28" class="edge">
<title>n40&#45;&gt;n18</title>
<path fill="none" stroke="#000000" d="M637.5,-1269.1882C637.5,-1257.0315 637.5,-1233.28 637.5,-1217.4343"/>
<polygon fill="#000000" stroke="#000000" points="639.2501,-1217.3917 637.5,-1212.3917 635.7501,-1217.3918 639.2501,-1217.3917"/>
<text text-anchor="middle" x="641.5" y="-1237.1585" font-family="Times,serif" font-size="14.00" fill="#000000">*</text>
</g>
<!-- n41&#45;&gt;n24 -->
<g id="edge31" class="edge">
<title>n41&#45;&gt;n24</title>
<path fill="none" stroke="#000000" d="M551.8795,-1501.3756C538.311,-1488.2584 513.5,-1460.236 513.5,-1430.7113 513.5,-1430.7113 513.5,-1430.7113 513.5,-1313.0717 513.5,-1293.2815 518.6302,-1270.989 522.6795,-1256.4758"/>
<polygon fill="#000000" stroke="#000000" points="524.4104,-1256.7887 524.111,-1251.4998 521.0468,-1255.8211 524.4104,-1256.7887"/>
<text text-anchor="middle" x="522.5" y="-1387.7981" font-family="Times,serif" font-size="14.00" fill="#000000">ι₁₁</text>
</g>
<!-- n42&#45;&gt;n15 -->
<g id="edge34" class="edge">
<title>n42&#45;&gt;n15</title>
<path fill="none" stroke="#000000" d="M526.3967,-956.0389C526.2353,-943.8822 525.92,-920.1308 525.7096,-904.285"/>
<polygon fill="#000000" stroke="#000000" points="527.459,-904.2188 525.6427,-899.2425 523.9593,-904.2653 527.459,-904.2188"/>
<text text-anchor="middle" x="529" y="-924.0092" font-family="Times,serif" font-size="14.00" fill="#000000">&#45;</text>
</g>
<!-- n43&#45;&gt;n25 -->
<g id="edge37" class="edge">
<title>n43&#45;&gt;n25</title>
<path fill="none" stroke="#000000" d="M342.6178,-1422.9926C355.3804,-1403.7441 388.7934,-1353.3505 405.5776,-1328.0366"/>
<polygon fill="#000000" stroke="#000000" points="407.2048,-1328.7492 408.5094,-1323.6149 404.2878,-1326.8151 407.2048,-1328.7492"/>
<text text-anchor="middle" x="379.5" y="-1387.7981" font-family="Times,serif" font-size="14.00" fill="#000000">ι₁₂</text>
</g>
<!-- n44&#45;&gt;n27 -->
<g id="edge40" class="edge">
<title>n44&#45;&gt;n27</title>
<path fill="none" stroke="#000000" d="M460.821,-1422.946C463.0933,-1408.8938 467.5,-1378.2889 467.5,-1352.2849 467.5,-1352.2849 467.5,-1352.2849 467.5,-1078.3488 467.5,-1056.7637 467.5,-1031.8368 467.5,-1015.9847"/>
<polygon fill="#000000" stroke="#000000" points="469.2501,-1015.5779 467.5,-1010.578 465.7501,-1015.578 469.2501,-1015.5779"/>
<text text-anchor="middle" x="476.5" y="-1237.1585" font-family="Times,serif" font-size="14.00" fill="#000000">ι₁₂</text>
</g>
<!-- n45&#45;&gt;n31 -->
<g id="edge43" class="edge">
<title>n45&#45;&gt;n31</title>
<path fill="none" stroke="#000000" d="M183.7872,-1423.1914C196.3913,-1410.185 222.4598,-1383.2841 238.6162,-1366.6119"/>
<polygon fill="#000000" stroke="#000000" points="240.2731,-1367.4168 242.496,-1362.6083 237.7596,-1364.9811 240.2731,-1367.4168"/>
<text text-anchor="middle" x="227" y="-1387.7981" font-family="Times,serif" font-size="14.00" fill="#000000">&#45;</text>
</g>
<!-- n46&#45;&gt;n30 -->
<g id="edge46" class="edge">
<title>n46&#45;&gt;n30</title>
<path fill="none" stroke="#000000" d="M361.5656,-1269.4502C361.7264,-1251.0358 362.1428,-1203.3441 362.3614,-1178.3091"/>
<polygon fill="#000000" stroke="#000000" points="364.1136,-1178.0553 362.4074,-1173.0401 360.6137,-1178.0246 364.1136,-1178.0553"/>
<text text-anchor="middle" x="380" y="-1237.1585" font-family="Times,serif" font-size="14.00" fill="#000000">∧ᵖᵈ₀₁</text>
</g>
<!-- n47&#45;&gt;n14 -->
<g id="edge49" class="edge">
<title>n47&#45;&gt;n14</title>
<path fill="none" stroke="#000000" d="M482.3133,-661.779C506.2624,-649.6095 553.6124,-625.5492 581.5082,-611.3744"/>
<polygon fill="#000000" stroke="#000000" points="582.4813,-612.843 586.146,-609.0177 580.8957,-609.7227 582.4813,-612.843"/>
<text text-anchor="middle" x="547" y="-632.6061" font-family="Times,serif" font-size="14.00" fill="#000000">&#45;</text>
</g>
<!-- n48&#45;&gt;n13 -->
<g id="edge52" class="edge">
<title>n48&#45;&gt;n13</title>
<path fill="none" stroke="#000000" d="M694.5,-523.4333C694.5,-512.5129 694.5,-492.2133 694.5,-477.9423"/>
<polygon fill="#000000" stroke="#000000" points="696.2501,-477.6139 694.5,-472.6139 692.7501,-477.6139 696.2501,-477.6139"/>
<text text-anchor="middle" x="697" y="-494.3929" font-family="Times,serif" font-size="14.00" fill="#000000">&#45;</text>
</g>
<!-- n49&#45;&gt;n34 -->
<g id="edge55" class="edge">
<title>n49&#45;&gt;n34</title>
<path fill="none" stroke="#000000" d="M26.1403,-1501.419C30.1767,-1482.4257 40.6574,-1433.1076 46.103,-1407.4829"/>
<polygon fill="#000000" stroke="#000000" points="47.8568,-1407.6485 47.1845,-1402.3939 44.4333,-1406.9209 47.8568,-1407.6485"/>
<text text-anchor="middle" x="53" y="-1466.2245" font-family="Times,serif" font-size="14.00" fill="#000000">∧ᵈᵈ₀₁</text>
</g>
<!-- n50&#45;&gt;n12 -->
<g id="edge58" class="edge">
<title>n50&#45;&gt;n12</title>
<path fill="none" stroke="#000000" d="M860.5,-249.1368C860.5,-238.2164 860.5,-217.9168 860.5,-203.6458"/>
<polygon fill="#000000" stroke="#000000" points="862.2501,-203.3174 860.5,-198.3174 858.7501,-203.3175 862.2501,-203.3174"/>
<text text-anchor="middle" x="863" y="-220.0965" font-family="Times,serif" font-size="14.00" fill="#000000">&#45;</text>
</g>
<!-- n51&#45;&gt;n22 -->
<g id="edge59" class="edge">
<title>n51&#45;&gt;n22</title>
<path fill="none" stroke="#000000" d="M611.5,-1106.6067C611.5,-1092.412 611.5,-1070.3042 611.5,-1055.2956"/>
<polygon fill="#000000" stroke="#000000" points="613.2501,-1055.1151 611.5,-1050.1151 609.7501,-1055.1151 613.2501,-1055.1151"/>
<text text-anchor="middle" x="618" y="-1074.6488" font-family="Times,serif" font-size="14.00" fill="#000000">+</text>
</g>
<!-- n52&#45;&gt;n29 -->
<g id="edge60" class="edge">
<title>n52&#45;&gt;n29</title>
<path fill="none" stroke="#000000" d="M467.5,-799.6906C467.5,-786.8409 467.5,-767.6761 467.5,-754.2083"/>
<polygon fill="#000000" stroke="#000000" points="469.2501,-754.1743 467.5,-749.1743 465.7501,-754.1744 469.2501,-754.1743"/>
<text text-anchor="middle" x="474" y="-770.8193" font-family="Times,serif" font-size="14.00" fill="#000000">+</text>
</g>
<!-- n53&#45;&gt;n35 -->
<g id="edge61" class="edge">
<title>n53&#45;&gt;n35</title>
<path fill="none" stroke="#000000" d="M705.5228,-392.9139C723.1353,-380.0822 757.8102,-354.8194 779.19,-339.243"/>
<polygon fill="#000000" stroke="#000000" points="780.269,-340.6221 783.2797,-336.2634 778.208,-337.7933 780.269,-340.6221"/>
<text text-anchor="middle" x="762" y="-358.3097" font-family="Times,serif" font-size="14.00" fill="#000000">+</text>
</g>
<!-- n54&#45;&gt;n11 -->
<g id="edge62" class="edge">
<title>n54&#45;&gt;n11</title>
<path fill="none" stroke="#000000" d="M980.5321,-115.5756C971.067,-102.4223 955.2528,-80.4459 944.8492,-65.9885"/>
<polygon fill="#000000" stroke="#000000" points="946.1482,-64.7975 941.8072,-61.7612 943.3073,-66.8418 946.1482,-64.7975"/>
<text text-anchor="middle" x="972" y="-84.0132" font-family="Times,serif" font-size="14.00" fill="#000000">+</text>
</g>
</g>
</svg>
