<?xml version="1.0" encoding="UTF-8" standalone="no"?>
<!DOCTYPE svg PUBLIC "-//W3C//DTD SVG 1.1//EN"
 "http://www.w3.org/Graphics/SVG/1.1/DTD/svg11.dtd">
<!-- Generated by graphviz version 2.40.1 (0)
 -->
<!-- Title: G Pages: 1 -->
<svg width="583pt" height="1035pt"
 viewBox="0.00 0.00 582.79 1035.43" xmlns="http://www.w3.org/2000/svg" xmlns:xlink="http://www.w3.org/1999/xlink">
<g id="graph0" class="graph" transform="scale(1 1) rotate(0) translate(4 1031.4285)">
<title>G</title>
<polygon fill="#ffffff" stroke="transparent" points="-4,4 -4,-1031.4285 578.7939,-1031.4285 578.7939,4 -4,4"/>
<!-- n1 -->
<g id="node1" class="node">
<title>n1</title>
<ellipse fill="none" stroke="#000000" cx="197.6274" cy="-975.8219" rx="21.8409" ry="10.7143"/>
<text text-anchor="middle" x="197.6274" y="-972.1219" font-family="Times,serif" font-size="14.00" fill="#000000">c:Ω̃₀</text>
</g>
<!-- n7 -->
<g id="node7" class="node">
<title>n7</title>
<ellipse fill="none" stroke="#000000" cx="127.6274" cy="-51.6066" rx="24.0833" ry="10.7143"/>
<text text-anchor="middle" x="127.6274" y="-47.9066" font-family="Times,serif" font-size="14.00" fill="#000000">ċ:Ω•</text>
</g>
<!-- n1&#45;&gt;n7 -->
<g id="edge8" class="edge">
<title>n1&#45;&gt;n7</title>
<path fill="none" stroke="#000000" d="M180.224,-969.1699C155.0946,-958.2959 111.6274,-934.1716 111.6274,-897.3955 111.6274,-897.3955 111.6274,-897.3955 111.6274,-126.6482 111.6274,-105.7677 117.6261,-82.3233 122.2774,-67.2832"/>
<polygon fill="#000000" stroke="#000000" points="124.0648,-67.438 123.9165,-62.1427 120.7302,-66.3747 124.0648,-67.438"/>
<text text-anchor="middle" x="117.6274" y="-496.5229" font-family="Times,serif" font-size="14.00" fill="#000000">∂ₜ</text>
</g>
<!-- n14 -->
<g id="node14" class="node">
<title>n14</title>
<ellipse fill="none" stroke="#000000" cx="248.6274" cy="-897.3955" rx="30.3115" ry="10.7143"/>
<text text-anchor="middle" x="248.6274" y="-893.6955" font-family="Times,serif" font-size="14.00" fill="#000000">•7:Ω•</text>
</g>
<!-- n1&#45;&gt;n14 -->
<g id="edge9" class="edge">
<title>n1&#45;&gt;n14</title>
<path fill="none" stroke="#000000" d="M204.2948,-965.569C213.1036,-952.023 228.6869,-928.0595 238.8344,-912.4549"/>
<polygon fill="#000000" stroke="#000000" points="240.5369,-913.0469 241.7956,-907.9012 237.6027,-911.1388 240.5369,-913.0469"/>
<text text-anchor="middle" x="233.6274" y="-932.9087" font-family="Times,serif" font-size="14.00" fill="#000000">d</text>
</g>
<!-- n16 -->
<g id="node16" class="node">
<title>n16</title>
<ellipse fill="none" stroke="#000000" cx="169.6274" cy="-897.3955" rx="30.3115" ry="10.7143"/>
<text text-anchor="middle" x="169.6274" y="-893.6955" font-family="Times,serif" font-size="14.00" fill="#000000">•9:Ω•</text>
</g>
<!-- n1&#45;&gt;n16 -->
<g id="edge10" class="edge">
<title>n1&#45;&gt;n16</title>
<path fill="none" stroke="#000000" d="M193.8512,-965.245C189.05,-951.797 180.7214,-928.469 175.192,-912.9814"/>
<polygon fill="#000000" stroke="#000000" points="176.7626,-912.1758 173.4332,-908.0553 173.4663,-913.3527 176.7626,-912.1758"/>
<text text-anchor="middle" x="191.6274" y="-932.9087" font-family="Times,serif" font-size="14.00" fill="#000000">d</text>
</g>
<!-- n2 -->
<g id="node2" class="node">
<title>n2</title>
<ellipse fill="none" stroke="#000000" cx="351.6274" cy="-975.8219" rx="24.0833" ry="10.7143"/>
<text text-anchor="middle" x="351.6274" y="-972.1219" font-family="Times,serif" font-size="14.00" fill="#000000">C:Ω̃₀</text>
</g>
<!-- n18 -->
<g id="node18" class="node">
<title>n18</title>
<ellipse fill="none" stroke="#000000" cx="395.6274" cy="-897.3955" rx="36.5405" ry="10.7143"/>
<text text-anchor="middle" x="395.6274" y="-893.6955" font-family="Times,serif" font-size="14.00" fill="#000000">•11:Ω•</text>
</g>
<!-- n2&#45;&gt;n18 -->
<g id="edge11" class="edge">
<title>n2&#45;&gt;n18</title>
<path fill="none" stroke="#000000" d="M357.5615,-965.245C365.1719,-951.68 378.4221,-928.0625 387.1088,-912.5792"/>
<polygon fill="#000000" stroke="#000000" points="388.7266,-913.2722 389.6469,-908.0553 385.6742,-911.5597 388.7266,-913.2722"/>
<text text-anchor="middle" x="383.6274" y="-932.9087" font-family="Times,serif" font-size="14.00" fill="#000000">d</text>
</g>
<!-- n3 -->
<g id="node3" class="node">
<title>n3</title>
<ellipse fill="none" stroke="#000000" cx="22.6274" cy="-936.6087" rx="22.7556" ry="10.7143"/>
<text text-anchor="middle" x="22.6274" y="-932.9087" font-family="Times,serif" font-size="14.00" fill="#000000">F:Ω̃₀</text>
</g>
<!-- n28 -->
<g id="node28" class="node">
<title>n28</title>
<ellipse fill="none" stroke="#000000" cx="152.6274" cy="-126.6482" rx="13.3704" ry="13.3704"/>
<text text-anchor="middle" x="152.6274" y="-122.9482" font-family="Times,serif" font-size="14.00" fill="#000000">Σ1</text>
</g>
<!-- n3&#45;&gt;n28 -->
<g id="edge35" class="edge">
<title>n3&#45;&gt;n28</title>
<path fill="none" stroke="#000000" stroke-dasharray="5,2" d="M22.4055,-925.9537C22.1109,-910.8683 21.6274,-882.4202 21.6274,-858.1823 21.6274,-858.1823 21.6274,-858.1823 21.6274,-187.6899 21.6274,-163.1772 97.9405,-140.5235 134.0755,-131.1708"/>
<polygon fill="#000000" stroke="#000000" points="134.6892,-132.8203 139.1015,-129.8887 133.8241,-129.4289 134.6892,-132.8203"/>
</g>
<!-- n4 -->
<g id="node4" class="node">
<title>n4</title>
<ellipse fill="none" stroke="#000000" cx="478.6274" cy="-858.1823" rx="96.3333" ry="10.7143"/>
<text text-anchor="middle" x="478.6274" y="-854.4823" font-family="Times,serif" font-size="14.00" fill="#000000">FluxDivergence:Ω̃₀</text>
</g>
<!-- n27 -->
<g id="node27" class="node">
<title>n27</title>
<polygon fill="none" stroke="#000000" points="360.1274,-264.2965 309.1274,-264.2965 309.1274,-249.2965 360.1274,-249.2965 360.1274,-264.2965"/>
<text text-anchor="middle" x="334.6274" y="-253.0965" font-family="Times,serif" font-size="14.00" fill="#000000">Ω•×Ω̃₀</text>
</g>
<!-- n4&#45;&gt;n27 -->
<g id="edge31" class="edge">
<title>n4&#45;&gt;n27</title>
<path fill="none" stroke="#000000" stroke-dasharray="5,2" d="M460.6254,-847.7018C442.9521,-835.9092 418.6274,-814.9743 418.6274,-789.0757 418.6274,-789.0757 418.6274,-789.0757 418.6274,-325.9031 418.6274,-296.1603 386.8323,-276.8573 362.365,-266.4063"/>
<polygon fill="#000000" stroke="#000000" points="362.8704,-264.7218 357.5808,-264.4336 361.5362,-267.9575 362.8704,-264.7218"/>
<text text-anchor="middle" x="426.6274" y="-562.5229" font-family="Times,serif" font-size="14.00" fill="#000000">π₂</text>
</g>
<!-- n5 -->
<g id="node5" class="node">
<title>n5</title>
<ellipse fill="none" stroke="#000000" cx="318.6274" cy="-897.3955" rx="21.8409" ry="10.7143"/>
<text text-anchor="middle" x="318.6274" y="-893.6955" font-family="Times,serif" font-size="14.00" fill="#000000">v:Ω̃₁</text>
</g>
<!-- n21 -->
<g id="node21" class="node">
<title>n21</title>
<polygon fill="none" stroke="#000000" points="270.1274,-829.5757 219.1274,-829.5757 219.1274,-814.5757 270.1274,-814.5757 270.1274,-829.5757"/>
<text text-anchor="middle" x="244.6274" y="-818.3757" font-family="Times,serif" font-size="14.00" fill="#000000">Ω̃₁×Ω•</text>
</g>
<!-- n5&#45;&gt;n21 -->
<g id="edge12" class="edge">
<title>n5&#45;&gt;n21</title>
<path fill="none" stroke="#000000" stroke-dasharray="5,2" d="M308.9532,-887.5487C295.3454,-873.6982 270.5959,-848.5073 256.0846,-833.7372"/>
<polygon fill="#000000" stroke="#000000" points="257.0335,-832.206 252.281,-829.8657 254.5368,-834.6589 257.0335,-832.206"/>
<text text-anchor="middle" x="297.6274" y="-854.4823" font-family="Times,serif" font-size="14.00" fill="#000000">π₁</text>
</g>
<!-- n25 -->
<g id="node25" class="node">
<title>n25</title>
<polygon fill="none" stroke="#000000" points="387.1274,-829.5757 336.1274,-829.5757 336.1274,-814.5757 387.1274,-814.5757 387.1274,-829.5757"/>
<text text-anchor="middle" x="361.6274" y="-818.3757" font-family="Times,serif" font-size="14.00" fill="#000000">Ω̃₁×Ω•</text>
</g>
<!-- n5&#45;&gt;n25 -->
<g id="edge24" class="edge">
<title>n5&#45;&gt;n25</title>
<path fill="none" stroke="#000000" stroke-dasharray="5,2" d="M320.1231,-886.7907C321.9895,-876.2071 325.9226,-859.8032 333.6274,-847.5757 337.0778,-842.0999 342.0147,-837.0649 346.7847,-832.9413"/>
<polygon fill="#000000" stroke="#000000" points="347.9699,-834.2323 350.716,-829.7022 345.7443,-831.5311 347.9699,-834.2323"/>
<text text-anchor="middle" x="341.6274" y="-854.4823" font-family="Times,serif" font-size="14.00" fill="#000000">π₁</text>
</g>
<!-- n6 -->
<g id="node6" class="node">
<title>n6</title>
<ellipse fill="none" stroke="#000000" cx="73.6274" cy="-936.6087" rx="22.7556" ry="10.7143"/>
<text text-anchor="middle" x="73.6274" y="-932.9087" font-family="Times,serif" font-size="14.00" fill="#000000">V:Ω̃₁</text>
</g>
<!-- n23 -->
<g id="node23" class="node">
<title>n23</title>
<polygon fill="none" stroke="#000000" points="192.1274,-829.5757 141.1274,-829.5757 141.1274,-814.5757 192.1274,-814.5757 192.1274,-829.5757"/>
<text text-anchor="middle" x="166.6274" y="-818.3757" font-family="Times,serif" font-size="14.00" fill="#000000">Ω̃₁×Ω•</text>
</g>
<!-- n6&#45;&gt;n23 -->
<g id="edge18" class="edge">
<title>n6&#45;&gt;n23</title>
<path fill="none" stroke="#000000" stroke-dasharray="5,2" d="M81.8805,-926.4447C99.1344,-905.1959 138.9292,-856.1871 157.1754,-833.7162"/>
<polygon fill="#000000" stroke="#000000" points="158.731,-834.5766 160.5243,-829.5919 156.0139,-832.3703 158.731,-834.5766"/>
<text text-anchor="middle" x="120.6274" y="-893.6955" font-family="Times,serif" font-size="14.00" fill="#000000">π₁</text>
</g>
<!-- n20 -->
<g id="node20" class="node">
<title>n20</title>
</g>
<!-- n7&#45;&gt;n20 -->
<g id="edge7" class="edge">
<title>n7&#45;&gt;n20</title>
<path fill="none" stroke="#000000" d="M127.6274,-40.5973C127.6274,-31.135 127.6274,-17.7454 127.6274,-9.4807"/>
<polygon fill="#000000" stroke="#000000" points="129.3775,-9.3096 127.6274,-4.3096 125.8775,-9.3096 129.3775,-9.3096"/>
</g>
<!-- n8 -->
<g id="node8" class="node">
<title>n8</title>
<ellipse fill="none" stroke="#000000" cx="263.6274" cy="-187.6899" rx="30.3115" ry="10.7143"/>
<text text-anchor="middle" x="263.6274" y="-183.9899" font-family="Times,serif" font-size="14.00" fill="#000000">•2:Ω•</text>
</g>
<!-- n8&#45;&gt;n28 -->
<g id="edge34" class="edge">
<title>n8&#45;&gt;n28</title>
<path fill="none" stroke="#000000" stroke-dasharray="5,2" d="M247.249,-178.683C226.2805,-167.1519 190.1535,-147.2847 169.1269,-135.7217"/>
<polygon fill="#000000" stroke="#000000" points="169.8529,-134.1238 164.6283,-133.2478 168.1663,-137.1907 169.8529,-134.1238"/>
</g>
<!-- n9 -->
<g id="node9" class="node">
<title>n9</title>
<ellipse fill="none" stroke="#000000" cx="334.6274" cy="-325.9031" rx="30.3115" ry="10.7143"/>
<text text-anchor="middle" x="334.6274" y="-322.2031" font-family="Times,serif" font-size="14.00" fill="#000000">•3:Ω•</text>
</g>
<!-- n9&#45;&gt;n27 -->
<g id="edge30" class="edge">
<title>n9&#45;&gt;n27</title>
<path fill="none" stroke="#000000" stroke-dasharray="5,2" d="M334.6274,-315.1052C334.6274,-302.7487 334.6274,-282.5368 334.6274,-269.4516"/>
<polygon fill="#000000" stroke="#000000" points="336.3775,-269.3236 334.6274,-264.3236 332.8775,-269.3237 336.3775,-269.3236"/>
<text text-anchor="middle" x="342.6274" y="-286.0965" font-family="Times,serif" font-size="14.00" fill="#000000">π₁</text>
</g>
<!-- n10 -->
<g id="node10" class="node">
<title>n10</title>
<ellipse fill="none" stroke="#000000" cx="297.6274" cy="-464.1163" rx="30.3115" ry="10.7143"/>
<text text-anchor="middle" x="297.6274" y="-460.4163" font-family="Times,serif" font-size="14.00" fill="#000000">•4:Ω•</text>
</g>
<!-- n26 -->
<g id="node26" class="node">
<title>n26</title>
<polygon fill="none" stroke="#000000" points="361.1274,-402.5097 308.1274,-402.5097 308.1274,-387.5097 361.1274,-387.5097 361.1274,-402.5097"/>
<text text-anchor="middle" x="334.6274" y="-391.3097" font-family="Times,serif" font-size="14.00" fill="#000000">Ω•×Ω•</text>
</g>
<!-- n10&#45;&gt;n26 -->
<g id="edge27" class="edge">
<title>n10&#45;&gt;n26</title>
<path fill="none" stroke="#000000" stroke-dasharray="5,2" d="M303.2469,-453.6205C309.9448,-441.1106 321.1143,-420.2487 328.1638,-407.0821"/>
<polygon fill="#000000" stroke="#000000" points="329.7413,-407.8432 330.5586,-402.6092 326.6557,-406.1911 329.7413,-407.8432"/>
<text text-anchor="middle" x="327.6274" y="-424.3097" font-family="Times,serif" font-size="14.00" fill="#000000">π₁</text>
</g>
<!-- n11 -->
<g id="node11" class="node">
<title>n11</title>
<ellipse fill="none" stroke="#000000" cx="292.6274" cy="-602.3295" rx="30.3115" ry="10.7143"/>
<text text-anchor="middle" x="292.6274" y="-598.6295" font-family="Times,serif" font-size="14.00" fill="#000000">•5:Ω•</text>
</g>
<!-- n24 -->
<g id="node24" class="node">
<title>n24</title>
<polygon fill="none" stroke="#000000" points="319.1274,-540.7229 266.1274,-540.7229 266.1274,-525.7229 319.1274,-525.7229 319.1274,-540.7229"/>
<text text-anchor="middle" x="292.6274" y="-529.5229" font-family="Times,serif" font-size="14.00" fill="#000000">Ω•×Ω•</text>
</g>
<!-- n11&#45;&gt;n24 -->
<g id="edge21" class="edge">
<title>n11&#45;&gt;n24</title>
<path fill="none" stroke="#000000" stroke-dasharray="5,2" d="M292.6274,-591.5316C292.6274,-579.1751 292.6274,-558.9632 292.6274,-545.878"/>
<polygon fill="#000000" stroke="#000000" points="294.3775,-545.75 292.6274,-540.75 290.8775,-545.7501 294.3775,-545.75"/>
<text text-anchor="middle" x="300.6274" y="-562.5229" font-family="Times,serif" font-size="14.00" fill="#000000">π₁</text>
</g>
<!-- n12 -->
<g id="node12" class="node">
<title>n12</title>
<ellipse fill="none" stroke="#000000" cx="309.6274" cy="-752.9691" rx="28.0702" ry="10.7143"/>
<text text-anchor="middle" x="309.6274" y="-749.2691" font-family="Times,serif" font-size="14.00" fill="#000000">&#45;1:ΩL</text>
</g>
<!-- n22 -->
<g id="node22" class="node">
<title>n22</title>
<polygon fill="none" stroke="#000000" points="320.1274,-685.1493 265.1274,-685.1493 265.1274,-670.1493 320.1274,-670.1493 320.1274,-685.1493"/>
<text text-anchor="middle" x="292.6274" y="-673.9493" font-family="Times,serif" font-size="14.00" fill="#000000">ΩL×Ω•</text>
</g>
<!-- n12&#45;&gt;n22 -->
<g id="edge15" class="edge">
<title>n12&#45;&gt;n22</title>
<path fill="none" stroke="#000000" stroke-dasharray="5,2" d="M307.1917,-742.1776C304.0846,-728.411 298.7215,-704.6494 295.4425,-690.1216"/>
<polygon fill="#000000" stroke="#000000" points="297.1447,-689.7146 294.3368,-685.2226 293.7306,-690.4852 297.1447,-689.7146"/>
<text text-anchor="middle" x="310.6274" y="-710.0559" font-family="Times,serif" font-size="14.00" fill="#000000">π₁</text>
</g>
<!-- n13 -->
<g id="node13" class="node">
<title>n13</title>
<ellipse fill="none" stroke="#000000" cx="232.6274" cy="-752.9691" rx="30.3115" ry="10.7143"/>
<text text-anchor="middle" x="232.6274" y="-749.2691" font-family="Times,serif" font-size="14.00" fill="#000000">•6:Ω•</text>
</g>
<!-- n13&#45;&gt;n22 -->
<g id="edge16" class="edge">
<title>n13&#45;&gt;n22</title>
<path fill="none" stroke="#000000" stroke-dasharray="5,2" d="M240.9702,-742.4962C252.059,-728.576 271.6008,-704.0447 283.2078,-689.474"/>
<polygon fill="#000000" stroke="#000000" points="284.7905,-690.2958 286.5371,-685.2946 282.053,-688.115 284.7905,-690.2958"/>
<text text-anchor="middle" x="278.6274" y="-710.0559" font-family="Times,serif" font-size="14.00" fill="#000000">π₂</text>
</g>
<!-- n14&#45;&gt;n21 -->
<g id="edge13" class="edge">
<title>n14&#45;&gt;n21</title>
<path fill="none" stroke="#000000" stroke-dasharray="5,2" d="M247.2751,-886.5461C246.6644,-881.207 245.9981,-874.6697 245.6274,-868.7889 244.9023,-857.2841 244.6741,-844.1575 244.6145,-834.7549"/>
<polygon fill="#000000" stroke="#000000" points="246.3644,-834.6832 244.5965,-829.6895 242.8644,-834.6957 246.3644,-834.6832"/>
<text text-anchor="middle" x="253.6274" y="-854.4823" font-family="Times,serif" font-size="14.00" fill="#000000">π₂</text>
</g>
<!-- n15 -->
<g id="node15" class="node">
<title>n15</title>
<ellipse fill="none" stroke="#000000" cx="171.6274" cy="-641.5427" rx="30.3115" ry="10.7143"/>
<text text-anchor="middle" x="171.6274" y="-637.8427" font-family="Times,serif" font-size="14.00" fill="#000000">•8:Ω•</text>
</g>
<!-- n15&#45;&gt;n24 -->
<g id="edge22" class="edge">
<title>n15&#45;&gt;n24</title>
<path fill="none" stroke="#000000" stroke-dasharray="5,2" d="M182.7939,-631.5464C205.4692,-611.2473 256.7527,-565.3381 280.3386,-544.2239"/>
<polygon fill="#000000" stroke="#000000" points="281.5849,-545.457 284.143,-540.8182 279.2504,-542.8493 281.5849,-545.457"/>
<text text-anchor="middle" x="234.6274" y="-598.6295" font-family="Times,serif" font-size="14.00" fill="#000000">π₂</text>
</g>
<!-- n16&#45;&gt;n23 -->
<g id="edge19" class="edge">
<title>n16&#45;&gt;n23</title>
<path fill="none" stroke="#000000" stroke-dasharray="5,2" d="M169.1976,-886.604C168.6541,-872.9582 167.7194,-849.4919 167.1395,-834.9324"/>
<polygon fill="#000000" stroke="#000000" points="168.8768,-834.5754 166.9291,-829.649 165.3795,-834.7147 168.8768,-834.5754"/>
<text text-anchor="middle" x="175.6274" y="-854.4823" font-family="Times,serif" font-size="14.00" fill="#000000">π₂</text>
</g>
<!-- n17 -->
<g id="node17" class="node">
<title>n17</title>
<ellipse fill="none" stroke="#000000" cx="365.6274" cy="-713.7559" rx="36.5405" ry="10.7143"/>
<text text-anchor="middle" x="365.6274" y="-710.0559" font-family="Times,serif" font-size="14.00" fill="#000000">•10:Ω•</text>
</g>
<!-- n17&#45;&gt;n26 -->
<g id="edge28" class="edge">
<title>n17&#45;&gt;n26</title>
<path fill="none" stroke="#000000" stroke-dasharray="5,2" d="M363.2067,-703.0536C360.2472,-689.0116 355.6274,-663.5652 355.6274,-641.5427 355.6274,-641.5427 355.6274,-641.5427 355.6274,-464.1163 355.6274,-443.5673 347.0221,-421.0085 340.8287,-407.4334"/>
<polygon fill="#000000" stroke="#000000" points="342.3886,-406.6381 338.6764,-402.8589 339.2216,-408.1282 342.3886,-406.6381"/>
<text text-anchor="middle" x="363.6274" y="-562.5229" font-family="Times,serif" font-size="14.00" fill="#000000">π₂</text>
</g>
<!-- n18&#45;&gt;n25 -->
<g id="edge25" class="edge">
<title>n18&#45;&gt;n25</title>
<path fill="none" stroke="#000000" stroke-dasharray="5,2" d="M376.6027,-888.0261C369.2686,-883.3417 361.6824,-876.917 357.6274,-868.7889 352.3541,-858.2186 354.3451,-844.6206 357.0589,-834.8247"/>
<polygon fill="#000000" stroke="#000000" points="358.8018,-835.1105 358.5994,-829.817 355.4565,-834.0814 358.8018,-835.1105"/>
<text text-anchor="middle" x="365.6274" y="-854.4823" font-family="Times,serif" font-size="14.00" fill="#000000">π₂</text>
</g>
<!-- n19 -->
<g id="node19" class="node">
<title>n19</title>
</g>
<!-- n19&#45;&gt;n1 -->
<g id="edge1" class="edge">
<title>n19&#45;&gt;n1</title>
<path fill="none" stroke="#000000" d="M256.5978,-1023.778C249.9464,-1018.3689 228.3668,-1000.8198 213.2479,-988.5249"/>
<polygon fill="#000000" stroke="#000000" points="214.1561,-987.0078 209.1728,-985.2108 211.9478,-989.7233 214.1561,-987.0078"/>
</g>
<!-- n19&#45;&gt;n2 -->
<g id="edge2" class="edge">
<title>n19&#45;&gt;n2</title>
<path fill="none" stroke="#000000" d="M260.8132,-1024.3792C266.8679,-1021.4632 284.3521,-1012.9795 298.6274,-1005.4285 309.9384,-999.4455 322.4411,-992.4786 332.4613,-986.8066"/>
<polygon fill="#000000" stroke="#000000" points="333.3929,-988.2901 336.8773,-984.2999 331.6651,-985.2463 333.3929,-988.2901"/>
</g>
<!-- n19&#45;&gt;n3 -->
<g id="edge3" class="edge">
<title>n19&#45;&gt;n3</title>
<path fill="none" stroke="#000000" d="M256.3333,-1024.9367C243.101,-1022.0665 175.2835,-1006.8966 122.6274,-986.4285 93.5054,-975.1084 61.4384,-958.3086 41.6634,-947.4073"/>
<polygon fill="#000000" stroke="#000000" points="42.3735,-945.8 37.1522,-944.905 40.6758,-948.8607 42.3735,-945.8"/>
</g>
<!-- n19&#45;&gt;n4 -->
<g id="edge4" class="edge">
<title>n19&#45;&gt;n4</title>
<path fill="none" stroke="#000000" d="M260.9353,-1025.2493C274.2098,-1024.1182 341.7389,-1016.9971 384.6274,-986.4285 427.1641,-956.1106 458.1751,-900.5451 471.4592,-873.6196"/>
<polygon fill="#000000" stroke="#000000" points="473.1226,-874.2002 473.7321,-868.9379 469.974,-872.6716 473.1226,-874.2002"/>
</g>
<!-- n19&#45;&gt;n5 -->
<g id="edge5" class="edge">
<title>n19&#45;&gt;n5</title>
<path fill="none" stroke="#000000" d="M259.6688,-1023.2062C265.784,-1010.1571 297.2449,-943.0234 311.5416,-912.5157"/>
<polygon fill="#000000" stroke="#000000" points="313.1451,-913.2179 313.6823,-907.9478 309.9759,-911.7327 313.1451,-913.2179"/>
</g>
<!-- n19&#45;&gt;n6 -->
<g id="edge6" class="edge">
<title>n19&#45;&gt;n6</title>
<path fill="none" stroke="#000000" d="M256.3174,-1024.5391C245.828,-1020.4818 201.6796,-1003.2041 166.6274,-986.4285 140.5822,-973.9635 111.3488,-957.9589 92.7297,-947.5005"/>
<polygon fill="#000000" stroke="#000000" points="93.4483,-945.8967 88.2332,-944.9666 91.73,-948.9459 93.4483,-945.8967"/>
</g>
<!-- n21&#45;&gt;n13 -->
<g id="edge14" class="edge">
<title>n21&#45;&gt;n13</title>
<path fill="none" stroke="#000000" d="M243.2974,-814.416C241.3843,-803.399 237.8137,-782.836 235.3325,-768.5476"/>
<polygon fill="#000000" stroke="#000000" points="237.0525,-768.2235 234.4728,-763.5967 233.6041,-768.8224 237.0525,-768.2235"/>
<text text-anchor="middle" x="248.6274" y="-785.3757" font-family="Times,serif" font-size="14.00" fill="#000000">ι₁₁</text>
</g>
<!-- n22&#45;&gt;n11 -->
<g id="edge17" class="edge">
<title>n22&#45;&gt;n11</title>
<path fill="none" stroke="#000000" d="M292.6274,-669.8724C292.6274,-657.7157 292.6274,-633.9642 292.6274,-618.1185"/>
<polygon fill="#000000" stroke="#000000" points="294.3775,-618.0759 292.6274,-613.0759 290.8775,-618.076 294.3775,-618.0759"/>
<text text-anchor="middle" x="296.6274" y="-637.8427" font-family="Times,serif" font-size="14.00" fill="#000000">*</text>
</g>
<!-- n23&#45;&gt;n15 -->
<g id="edge20" class="edge">
<title>n23&#45;&gt;n15</title>
<path fill="none" stroke="#000000" d="M166.8423,-814.3184C167.5977,-787.0438 170.1417,-695.1851 171.1803,-657.6878"/>
<polygon fill="#000000" stroke="#000000" points="172.933,-657.6106 171.3222,-652.5641 169.4343,-657.5137 172.933,-657.6106"/>
<text text-anchor="middle" x="177.6274" y="-749.2691" font-family="Times,serif" font-size="14.00" fill="#000000">ι₁₁</text>
</g>
<!-- n24&#45;&gt;n10 -->
<g id="edge23" class="edge">
<title>n24&#45;&gt;n10</title>
<path fill="none" stroke="#000000" d="M293.1816,-525.5632C293.9717,-514.6428 295.4404,-494.3432 296.473,-480.0723"/>
<polygon fill="#000000" stroke="#000000" points="298.243,-479.8571 296.8585,-474.7439 294.7521,-479.6045 298.243,-479.8571"/>
<text text-anchor="middle" x="297.1274" y="-496.5229" font-family="Times,serif" font-size="14.00" fill="#000000">&#45;</text>
</g>
<!-- n25&#45;&gt;n17 -->
<g id="edge26" class="edge">
<title>n25&#45;&gt;n17</title>
<path fill="none" stroke="#000000" d="M361.9151,-814.2856C362.5652,-796.6813 364.1588,-753.5268 365.0317,-729.8866"/>
<polygon fill="#000000" stroke="#000000" points="366.7912,-729.6616 365.227,-724.6004 363.2935,-729.5324 366.7912,-729.6616"/>
<text text-anchor="middle" x="371.6274" y="-785.3757" font-family="Times,serif" font-size="14.00" fill="#000000">ι₁₁</text>
</g>
<!-- n26&#45;&gt;n9 -->
<g id="edge29" class="edge">
<title>n26&#45;&gt;n9</title>
<path fill="none" stroke="#000000" d="M334.6274,-387.35C334.6274,-376.4296 334.6274,-356.13 334.6274,-341.859"/>
<polygon fill="#000000" stroke="#000000" points="336.3775,-341.5306 334.6274,-336.5306 332.8775,-341.5307 336.3775,-341.5306"/>
<text text-anchor="middle" x="337.1274" y="-358.3097" font-family="Times,serif" font-size="14.00" fill="#000000">&#45;</text>
</g>
<!-- n27&#45;&gt;n8 -->
<g id="edge32" class="edge">
<title>n27&#45;&gt;n8</title>
<path fill="none" stroke="#000000" d="M326.7579,-249.1368C315.0091,-237.7014 292.6938,-215.9811 277.989,-201.6685"/>
<polygon fill="#000000" stroke="#000000" points="278.862,-200.0761 274.0584,-197.8427 276.4208,-202.5842 278.862,-200.0761"/>
<text text-anchor="middle" x="309.1274" y="-220.0965" font-family="Times,serif" font-size="14.00" fill="#000000">&#45;</text>
</g>
<!-- n28&#45;&gt;n7 -->
<g id="edge33" class="edge">
<title>n28&#45;&gt;n7</title>
<path fill="none" stroke="#000000" d="M148.2727,-113.577C143.9369,-100.5621 137.285,-80.5955 132.71,-66.8629"/>
<polygon fill="#000000" stroke="#000000" points="134.3673,-66.3005 131.1266,-62.1099 131.0467,-67.4068 134.3673,-66.3005"/>
<text text-anchor="middle" x="147.1274" y="-84.0132" font-family="Times,serif" font-size="14.00" fill="#000000">+</text>
</g>
</g>
</svg>
