<?xml version="1.0" encoding="UTF-8" standalone="no"?>
<!DOCTYPE svg PUBLIC "-//W3C//DTD SVG 1.1//EN"
 "http://www.w3.org/Graphics/SVG/1.1/DTD/svg11.dtd">
<!-- Generated by graphviz version 2.40.1 (0)
 -->
<!-- Title: G Pages: 1 -->
<svg width="602pt" height="1002pt"
 viewBox="0.00 0.00 601.62 1002.07" xmlns="http://www.w3.org/2000/svg" xmlns:xlink="http://www.w3.org/1999/xlink">
<g id="graph0" class="graph" transform="scale(1 1) rotate(0) translate(4 998.0681)">
<title>G</title>
<polygon fill="#ffffff" stroke="transparent" points="-4,4 -4,-998.0681 597.6188,-998.0681 597.6188,4 -4,4"/>
<!-- n1 -->
<g id="node1" class="node">
<title>n1</title>
<ellipse fill="none" stroke="#000000" cx="103.0416" cy="-942.4615" rx="22.7556" ry="10.7143"/>
<text text-anchor="middle" x="103.0416" y="-938.7615" font-family="Times,serif" font-size="14.00" fill="#000000">h:Ω₀</text>
</g>
<!-- n4 -->
<g id="node4" class="node">
<title>n4</title>
<ellipse fill="none" stroke="#000000" cx="24.0416" cy="-51.6066" rx="24.0833" ry="10.7143"/>
<text text-anchor="middle" x="24.0416" y="-47.9066" font-family="Times,serif" font-size="14.00" fill="#000000">ḣ:Ω•</text>
</g>
<!-- n1&#45;&gt;n4 -->
<g id="edge7" class="edge">
<title>n1&#45;&gt;n4</title>
<path fill="none" stroke="#000000" d="M84.2727,-936.0967C56.5868,-925.3789 8.0416,-900.9232 8.0416,-861.2067 8.0416,-861.2067 8.0416,-861.2067 8.0416,-120.7132 8.0416,-101.8481 13.7707,-80.8154 18.3725,-66.9642"/>
<polygon fill="#000000" stroke="#000000" points="20.0385,-67.5007 20.0042,-62.2034 16.7275,-66.3659 20.0385,-67.5007"/>
<text text-anchor="middle" x="14.0416" y="-474.9726" font-family="Times,serif" font-size="14.00" fill="#000000">∂ₜ</text>
</g>
<!-- n9 -->
<g id="node9" class="node">
<title>n9</title>
<ellipse fill="none" stroke="#000000" cx="53.0416" cy="-819.165" rx="30.3115" ry="10.7143"/>
<text text-anchor="middle" x="53.0416" y="-815.465" font-family="Times,serif" font-size="14.00" fill="#000000">•3:Ω•</text>
</g>
<!-- n1&#45;&gt;n9 -->
<g id="edge8" class="edge">
<title>n1&#45;&gt;n9</title>
<path fill="none" stroke="#000000" d="M96.1072,-932.3602C87.5888,-919.5042 73.26,-896.3523 65.0416,-874.6417 60.1848,-861.8114 57.0616,-846.5291 55.2228,-835.2561"/>
<polygon fill="#000000" stroke="#000000" points="56.9148,-834.7464 54.4213,-830.0725 53.4559,-835.2812 56.9148,-834.7464"/>
<text text-anchor="middle" x="90.0416" y="-899.5483" font-family="Times,serif" font-size="14.00" fill="#000000">d</text>
</g>
<!-- n14 -->
<g id="node14" class="node">
<title>n14</title>
<ellipse fill="none" stroke="#000000" cx="104.0416" cy="-861.2067" rx="30.3115" ry="10.7143"/>
<text text-anchor="middle" x="104.0416" y="-857.5067" font-family="Times,serif" font-size="14.00" fill="#000000">•8:Ω•</text>
</g>
<!-- n1&#45;&gt;n14 -->
<g id="edge9" class="edge">
<title>n1&#45;&gt;n14</title>
<path fill="none" stroke="#000000" d="M103.1724,-931.8389C103.3445,-917.848 103.6487,-893.1311 103.8477,-876.9604"/>
<polygon fill="#000000" stroke="#000000" points="105.5991,-876.8531 103.9109,-871.8319 102.0994,-876.81 105.5991,-876.8531"/>
<text text-anchor="middle" x="109.0416" y="-899.5483" font-family="Times,serif" font-size="14.00" fill="#000000">d</text>
</g>
<!-- n31 -->
<g id="node31" class="node">
<title>n31</title>
<polygon fill="none" stroke="#000000" points="262.5416,-709.0254 211.5416,-709.0254 211.5416,-694.0254 262.5416,-694.0254 262.5416,-709.0254"/>
<text text-anchor="middle" x="237.0416" y="-697.8254" font-family="Times,serif" font-size="14.00" fill="#000000">Ω₀×Ω•</text>
</g>
<!-- n1&#45;&gt;n31 -->
<g id="edge19" class="edge">
<title>n1&#45;&gt;n31</title>
<path fill="none" stroke="#000000" stroke-dasharray="5,2" d="M109.3938,-931.9563C117.3832,-918.6837 131.4579,-895.1019 143.0416,-874.6417 176.9682,-814.7174 215.6774,-741.9629 230.6579,-713.6317"/>
<polygon fill="#000000" stroke="#000000" points="232.2257,-714.4103 233.014,-709.1718 229.131,-712.7753 232.2257,-714.4103"/>
<text text-anchor="middle" x="188.0416" y="-815.465" font-family="Times,serif" font-size="14.00" fill="#000000">π₁</text>
</g>
<!-- n2 -->
<g id="node2" class="node">
<title>n2</title>
<ellipse fill="none" stroke="#000000" cx="190.0416" cy="-301.2462" rx="23.1702" ry="10.7143"/>
<text text-anchor="middle" x="190.0416" y="-297.5462" font-family="Times,serif" font-size="14.00" fill="#000000">Γ:Ω₀</text>
</g>
<!-- n34 -->
<g id="node34" class="node">
<title>n34</title>
<polygon fill="none" stroke="#000000" points="132.5416,-128.2132 81.5416,-128.2132 81.5416,-113.2132 132.5416,-113.2132 132.5416,-128.2132"/>
<text text-anchor="middle" x="107.0416" y="-117.0132" font-family="Times,serif" font-size="14.00" fill="#000000">Ω₀×Ω•</text>
</g>
<!-- n2&#45;&gt;n34 -->
<g id="edge28" class="edge">
<title>n2&#45;&gt;n34</title>
<path fill="none" stroke="#000000" stroke-dasharray="5,2" d="M187.3017,-290.3483C180.3186,-263.9386 160.038,-195.0964 127.0416,-146.2132 123.9253,-141.5965 120.2283,-136.737 116.8657,-132.5128"/>
<polygon fill="#000000" stroke="#000000" points="118.1528,-131.3213 113.6485,-128.5331 115.4309,-133.5216 118.1528,-131.3213"/>
<text text-anchor="middle" x="178.0416" y="-222.2264" font-family="Times,serif" font-size="14.00" fill="#000000">π₁</text>
</g>
<!-- n3 -->
<g id="node3" class="node">
<title>n3</title>
<ellipse fill="none" stroke="#000000" cx="308.0416" cy="-942.4615" rx="26.3269" ry="10.7143"/>
<text text-anchor="middle" x="308.0416" y="-938.7615" font-family="Times,serif" font-size="14.00" fill="#000000">n:ΩC</text>
</g>
<!-- n29 -->
<g id="node29" class="node">
<title>n29</title>
<polygon fill="none" stroke="#000000" points="248.0416,-868.7067 190.0416,-868.7067 190.0416,-853.7067 248.0416,-853.7067 248.0416,-868.7067"/>
<text text-anchor="middle" x="219.0416" y="-857.5067" font-family="Times,serif" font-size="14.00" fill="#000000">ΩC×ΩL</text>
</g>
<!-- n3&#45;&gt;n29 -->
<g id="edge13" class="edge">
<title>n3&#45;&gt;n29</title>
<path fill="none" stroke="#000000" stroke-dasharray="5,2" d="M295.0329,-933.0708C287.783,-927.6742 278.7002,-920.6383 271.0416,-913.8549 255.9669,-900.5028 239.8571,-883.7631 229.6316,-872.7902"/>
<polygon fill="#000000" stroke="#000000" points="230.8254,-871.5037 226.1434,-869.0254 228.258,-873.8825 230.8254,-871.5037"/>
<text text-anchor="middle" x="279.0416" y="-899.5483" font-family="Times,serif" font-size="14.00" fill="#000000">π₁</text>
</g>
<!-- n37 -->
<g id="node37" class="node">
<title>n37</title>
<polygon fill="none" stroke="#000000" points="378.0416,-709.0254 322.0416,-709.0254 322.0416,-694.0254 378.0416,-694.0254 378.0416,-709.0254"/>
<text text-anchor="middle" x="350.0416" y="-697.8254" font-family="Times,serif" font-size="14.00" fill="#000000">Ω•×ΩC</text>
</g>
<!-- n3&#45;&gt;n37 -->
<g id="edge38" class="edge">
<title>n3&#45;&gt;n37</title>
<path fill="none" stroke="#000000" stroke-dasharray="5,2" d="M309.9005,-931.7979C316.7375,-892.5769 340.4733,-756.4148 347.8421,-714.1434"/>
<polygon fill="#000000" stroke="#000000" points="349.5979,-714.261 348.7326,-709.0347 346.1499,-713.6599 349.5979,-714.261"/>
<text text-anchor="middle" x="339.0416" y="-815.465" font-family="Times,serif" font-size="14.00" fill="#000000">π₂</text>
</g>
<!-- n40 -->
<g id="node40" class="node">
<title>n40</title>
<ellipse fill="none" stroke="#000000" cx="279.0416" cy="-861.2067" rx="13.3704" ry="13.3704"/>
<text text-anchor="middle" x="279.0416" y="-857.5067" font-family="Times,serif" font-size="14.00" fill="#000000">Σ1</text>
</g>
<!-- n3&#45;&gt;n40 -->
<g id="edge48" class="edge">
<title>n3&#45;&gt;n40</title>
<path fill="none" stroke="#000000" stroke-dasharray="5,2" d="M304.2504,-931.8389C299.4362,-918.3501 291.0637,-894.8913 285.297,-878.7335"/>
<polygon fill="#000000" stroke="#000000" points="286.9267,-878.0934 283.5978,-873.9726 283.6304,-879.2699 286.9267,-878.0934"/>
</g>
<!-- n41 -->
<g id="node41" class="node">
<title>n41</title>
<ellipse fill="none" stroke="#000000" cx="466.0416" cy="-861.2067" rx="13.3704" ry="13.3704"/>
<text text-anchor="middle" x="466.0416" y="-857.5067" font-family="Times,serif" font-size="14.00" fill="#000000">Σ2</text>
</g>
<!-- n3&#45;&gt;n41 -->
<g id="edge50" class="edge">
<title>n3&#45;&gt;n41</title>
<path fill="none" stroke="#000000" stroke-dasharray="5,2" d="M329.3554,-936.0267C353.6868,-928.6156 390.9278,-917.0486 397.0416,-913.8549 397.7859,-913.4661 430.9707,-888.0751 451.0422,-872.701"/>
<polygon fill="#000000" stroke="#000000" points="452.2048,-874.0149 455.1098,-869.585 450.0763,-871.2364 452.2048,-874.0149"/>
</g>
<!-- n28 -->
<g id="node28" class="node">
<title>n28</title>
</g>
<!-- n4&#45;&gt;n28 -->
<g id="edge6" class="edge">
<title>n4&#45;&gt;n28</title>
<path fill="none" stroke="#000000" d="M24.0416,-40.5973C24.0416,-31.135 24.0416,-17.7454 24.0416,-9.4807"/>
<polygon fill="#000000" stroke="#000000" points="25.7917,-9.3096 24.0416,-4.3096 22.2917,-9.3096 25.7917,-9.3096"/>
</g>
<!-- n5 -->
<g id="node5" class="node">
<title>n5</title>
<ellipse fill="none" stroke="#000000" cx="238.0416" cy="-942.4615" rx="25.4118" ry="10.7143"/>
<text text-anchor="middle" x="238.0416" y="-938.7615" font-family="Times,serif" font-size="14.00" fill="#000000">2:ΩL</text>
</g>
<!-- n5&#45;&gt;n40 -->
<g id="edge49" class="edge">
<title>n5&#45;&gt;n40</title>
<path fill="none" stroke="#000000" stroke-dasharray="5,2" d="M239.6788,-931.6497C241.5767,-921.1992 245.3385,-905.1546 252.0416,-892.6417 255.5609,-886.0722 260.6532,-879.672 265.4692,-874.3799"/>
<polygon fill="#000000" stroke="#000000" points="266.9101,-875.4027 269.0676,-870.5645 264.3639,-873.0013 266.9101,-875.4027"/>
</g>
<!-- n6 -->
<g id="node6" class="node">
<title>n6</title>
<ellipse fill="none" stroke="#000000" cx="275.0416" cy="-779.9518" rx="24.0833" ry="10.7143"/>
<text text-anchor="middle" x="275.0416" y="-776.2518" font-family="Times,serif" font-size="14.00" fill="#000000">1:Ω•</text>
</g>
<!-- n6&#45;&gt;n31 -->
<g id="edge20" class="edge">
<title>n6&#45;&gt;n31</title>
<path fill="none" stroke="#000000" stroke-dasharray="5,2" d="M269.9168,-769.3749C262.9276,-754.9502 250.4306,-729.1584 243.0219,-713.8679"/>
<polygon fill="#000000" stroke="#000000" points="244.4749,-712.8531 240.7198,-709.1165 241.3251,-714.3793 244.4749,-712.8531"/>
<text text-anchor="middle" x="269.0416" y="-737.0386" font-family="Times,serif" font-size="14.00" fill="#000000">π₂</text>
</g>
<!-- n7 -->
<g id="node7" class="node">
<title>n7</title>
<ellipse fill="none" stroke="#000000" cx="107.0416" cy="-189.8198" rx="30.3115" ry="10.7143"/>
<text text-anchor="middle" x="107.0416" y="-186.1198" font-family="Times,serif" font-size="14.00" fill="#000000">•1:Ω•</text>
</g>
<!-- n7&#45;&gt;n34 -->
<g id="edge29" class="edge">
<title>n7&#45;&gt;n34</title>
<path fill="none" stroke="#000000" stroke-dasharray="5,2" d="M107.0416,-179.0219C107.0416,-166.6655 107.0416,-146.4535 107.0416,-133.3683"/>
<polygon fill="#000000" stroke="#000000" points="108.7917,-133.2403 107.0416,-128.2404 105.2917,-133.2404 108.7917,-133.2403"/>
<text text-anchor="middle" x="115.0416" y="-150.0132" font-family="Times,serif" font-size="14.00" fill="#000000">π₂</text>
</g>
<!-- n8 -->
<g id="node8" class="node">
<title>n8</title>
<ellipse fill="none" stroke="#000000" cx="107.0416" cy="-262.033" rx="30.3115" ry="10.7143"/>
<text text-anchor="middle" x="107.0416" y="-258.333" font-family="Times,serif" font-size="14.00" fill="#000000">•2:Ω•</text>
</g>
<!-- n8&#45;&gt;n7 -->
<g id="edge12" class="edge">
<title>n8&#45;&gt;n7</title>
<path fill="none" stroke="#000000" d="M107.0416,-251.3777C107.0416,-239.3246 107.0416,-219.5725 107.0416,-205.7005"/>
<polygon fill="#000000" stroke="#000000" points="108.7917,-205.5188 107.0416,-200.5188 105.2917,-205.5189 108.7917,-205.5188"/>
<text text-anchor="middle" x="126.0416" y="-222.2264" font-family="Times,serif" font-size="14.00" fill="#000000">⋆⋅d⋅⋆</text>
</g>
<!-- n33 -->
<g id="node33" class="node">
<title>n33</title>
<polygon fill="none" stroke="#000000" points="133.5416,-344.8528 80.5416,-344.8528 80.5416,-329.8528 133.5416,-329.8528 133.5416,-344.8528"/>
<text text-anchor="middle" x="107.0416" y="-333.6528" font-family="Times,serif" font-size="14.00" fill="#000000">Ω•×Ω•</text>
</g>
<!-- n9&#45;&gt;n33 -->
<g id="edge25" class="edge">
<title>n9&#45;&gt;n33</title>
<path fill="none" stroke="#000000" stroke-dasharray="5,2" d="M53.0416,-808.5095C53.0416,-793.4234 53.0416,-764.9746 53.0416,-740.7386 53.0416,-740.7386 53.0416,-740.7386 53.0416,-406.4594 53.0416,-381.5469 75.0999,-360.2499 91.0203,-348.1233"/>
<polygon fill="#000000" stroke="#000000" points="92.3379,-349.3261 95.3244,-344.9508 90.2613,-346.5087 92.3379,-349.3261"/>
<text text-anchor="middle" x="61.0416" y="-586.399" font-family="Times,serif" font-size="14.00" fill="#000000">π₁</text>
</g>
<!-- n10 -->
<g id="node10" class="node">
<title>n10</title>
<ellipse fill="none" stroke="#000000" cx="136.0416" cy="-406.4594" rx="30.3115" ry="10.7143"/>
<text text-anchor="middle" x="136.0416" y="-402.7594" font-family="Times,serif" font-size="14.00" fill="#000000">•4:Ω•</text>
</g>
<!-- n10&#45;&gt;n33 -->
<g id="edge26" class="edge">
<title>n10&#45;&gt;n33</title>
<path fill="none" stroke="#000000" stroke-dasharray="5,2" d="M131.6372,-395.9636C126.4335,-383.5635 117.7863,-362.9572 112.2539,-349.7735"/>
<polygon fill="#000000" stroke="#000000" points="113.7792,-348.8856 110.2307,-344.9523 110.5518,-350.24 113.7792,-348.8856"/>
<text text-anchor="middle" x="132.0416" y="-366.6528" font-family="Times,serif" font-size="14.00" fill="#000000">π₂</text>
</g>
<!-- n11 -->
<g id="node11" class="node">
<title>n11</title>
<ellipse fill="none" stroke="#000000" cx="155.0416" cy="-550.8858" rx="30.3115" ry="10.7143"/>
<text text-anchor="middle" x="155.0416" y="-547.1858" font-family="Times,serif" font-size="14.00" fill="#000000">•5:Ω•</text>
</g>
<!-- n32 -->
<g id="node32" class="node">
<title>n32</title>
<polygon fill="none" stroke="#000000" points="181.5416,-486.1726 128.5416,-486.1726 128.5416,-471.1726 181.5416,-471.1726 181.5416,-486.1726"/>
<text text-anchor="middle" x="155.0416" y="-474.9726" font-family="Times,serif" font-size="14.00" fill="#000000">Ω•×Ω•</text>
</g>
<!-- n11&#45;&gt;n32 -->
<g id="edge22" class="edge">
<title>n11&#45;&gt;n32</title>
<path fill="none" stroke="#000000" stroke-dasharray="5,2" d="M155.0416,-540.2305C155.0416,-527.2076 155.0416,-505.197 155.0416,-491.3262"/>
<polygon fill="#000000" stroke="#000000" points="156.7917,-491.2727 155.0416,-486.2727 153.2917,-491.2727 156.7917,-491.2727"/>
<text text-anchor="middle" x="163.0416" y="-511.0792" font-family="Times,serif" font-size="14.00" fill="#000000">π₁</text>
</g>
<!-- n12 -->
<g id="node12" class="node">
<title>n12</title>
<ellipse fill="none" stroke="#000000" cx="111.0416" cy="-701.5254" rx="30.3115" ry="10.7143"/>
<text text-anchor="middle" x="111.0416" y="-697.8254" font-family="Times,serif" font-size="14.00" fill="#000000">•6:Ω•</text>
</g>
<!-- n30 -->
<g id="node30" class="node">
<title>n30</title>
<polygon fill="none" stroke="#000000" points="181.5416,-636.8122 128.5416,-636.8122 128.5416,-621.8122 181.5416,-621.8122 181.5416,-636.8122"/>
<text text-anchor="middle" x="155.0416" y="-625.6122" font-family="Times,serif" font-size="14.00" fill="#000000">Ω•×Ω•</text>
</g>
<!-- n12&#45;&gt;n30 -->
<g id="edge16" class="edge">
<title>n12&#45;&gt;n30</title>
<path fill="none" stroke="#000000" stroke-dasharray="5,2" d="M117.534,-690.8701C125.6094,-677.6167 139.3566,-655.0547 147.7758,-641.237"/>
<polygon fill="#000000" stroke="#000000" points="149.3036,-642.0928 150.4108,-636.9123 146.3147,-640.2716 149.3036,-642.0928"/>
<text text-anchor="middle" x="145.0416" y="-661.7188" font-family="Times,serif" font-size="14.00" fill="#000000">π₁</text>
</g>
<!-- n13 -->
<g id="node13" class="node">
<title>n13</title>
<ellipse fill="none" stroke="#000000" cx="111.0416" cy="-779.9518" rx="30.3115" ry="10.7143"/>
<text text-anchor="middle" x="111.0416" y="-776.2518" font-family="Times,serif" font-size="14.00" fill="#000000">•7:Ω•</text>
</g>
<!-- n13&#45;&gt;n12 -->
<g id="edge11" class="edge">
<title>n13&#45;&gt;n12</title>
<path fill="none" stroke="#000000" d="M109.1658,-769.1219C108.3343,-763.7874 107.4523,-757.2484 107.0416,-751.3452 106.3872,-741.9399 106.3872,-739.5374 107.0416,-730.132 107.3304,-725.9814 107.8522,-721.5164 108.4255,-717.3767"/>
<polygon fill="#000000" stroke="#000000" points="110.1678,-717.5571 109.1658,-712.3554 106.7052,-717.0466 110.1678,-717.5571"/>
<text text-anchor="middle" x="122.5416" y="-737.0386" font-family="Times,serif" font-size="14.00" fill="#000000">mag</text>
</g>
<!-- n14&#45;&gt;n13 -->
<g id="edge10" class="edge">
<title>n14&#45;&gt;n13</title>
<path fill="none" stroke="#000000" d="M104.9568,-850.584C106.1621,-836.5932 108.2914,-811.8762 109.6845,-795.7056"/>
<polygon fill="#000000" stroke="#000000" points="111.4406,-795.7089 110.1263,-790.5771 107.9535,-795.4084 111.4406,-795.7089"/>
<text text-anchor="middle" x="118.5416" y="-815.465" font-family="Times,serif" font-size="14.00" fill="#000000">♯ᵖᵖ</text>
</g>
<!-- n15 -->
<g id="node15" class="node">
<title>n15</title>
<ellipse fill="none" stroke="#000000" cx="177.0416" cy="-740.7386" rx="30.3115" ry="10.7143"/>
<text text-anchor="middle" x="177.0416" y="-737.0386" font-family="Times,serif" font-size="14.00" fill="#000000">•9:Ω•</text>
</g>
<!-- n15&#45;&gt;n30 -->
<g id="edge17" class="edge">
<title>n15&#45;&gt;n30</title>
<path fill="none" stroke="#000000" stroke-dasharray="5,2" d="M174.9322,-730.0546C170.8672,-709.4663 161.9642,-664.3739 157.5815,-642.1763"/>
<polygon fill="#000000" stroke="#000000" points="159.2558,-641.6212 156.5703,-637.0549 155.8221,-642.2992 159.2558,-641.6212"/>
<text text-anchor="middle" x="180.0416" y="-697.8254" font-family="Times,serif" font-size="14.00" fill="#000000">π₂</text>
</g>
<!-- n16 -->
<g id="node16" class="node">
<title>n16</title>
<ellipse fill="none" stroke="#000000" cx="169.0416" cy="-942.4615" rx="25.4118" ry="10.7143"/>
<text text-anchor="middle" x="169.0416" y="-938.7615" font-family="Times,serif" font-size="14.00" fill="#000000">1:ΩL</text>
</g>
<!-- n16&#45;&gt;n29 -->
<g id="edge14" class="edge">
<title>n16&#45;&gt;n29</title>
<path fill="none" stroke="#000000" stroke-dasharray="5,2" d="M175.3742,-932.1705C184.6141,-917.1547 201.7584,-889.2935 211.5922,-873.3128"/>
<polygon fill="#000000" stroke="#000000" points="213.2625,-873.9376 214.3924,-868.762 210.2816,-872.1033 213.2625,-873.9376"/>
<text text-anchor="middle" x="207.0416" y="-899.5483" font-family="Times,serif" font-size="14.00" fill="#000000">π₂</text>
</g>
<!-- n17 -->
<g id="node17" class="node">
<title>n17</title>
<ellipse fill="none" stroke="#000000" cx="230.0416" cy="-590.099" rx="36.5405" ry="10.7143"/>
<text text-anchor="middle" x="230.0416" y="-586.399" font-family="Times,serif" font-size="14.00" fill="#000000">•10:Ω•</text>
</g>
<!-- n17&#45;&gt;n32 -->
<g id="edge23" class="edge">
<title>n17&#45;&gt;n32</title>
<path fill="none" stroke="#000000" stroke-dasharray="5,2" d="M223.1757,-579.5862C212.8442,-563.807 192.6348,-533.0955 175.0416,-507.2792 171.3838,-501.9117 167.2828,-496.0239 163.7511,-490.9925"/>
<polygon fill="#000000" stroke="#000000" points="165.0054,-489.734 160.6967,-486.6521 162.143,-491.7482 165.0054,-489.734"/>
<text text-anchor="middle" x="219.0416" y="-547.1858" font-family="Times,serif" font-size="14.00" fill="#000000">π₂</text>
</g>
<!-- n18 -->
<g id="node18" class="node">
<title>n18</title>
<ellipse fill="none" stroke="#000000" cx="566.0416" cy="-903.2483" rx="27.6545" ry="10.7143"/>
<text text-anchor="middle" x="566.0416" y="-899.5483" font-family="Times,serif" font-size="14.00" fill="#000000">A:ΩC</text>
</g>
<!-- n38 -->
<g id="node38" class="node">
<title>n38</title>
<polygon fill="none" stroke="#000000" points="519.0416,-558.3858 463.0416,-558.3858 463.0416,-543.3858 519.0416,-543.3858 519.0416,-558.3858"/>
<text text-anchor="middle" x="491.0416" y="-547.1858" font-family="Times,serif" font-size="14.00" fill="#000000">Ω•×ΩC</text>
</g>
<!-- n18&#45;&gt;n38 -->
<g id="edge41" class="edge">
<title>n18&#45;&gt;n38</title>
<path fill="none" stroke="#000000" stroke-dasharray="5,2" d="M564.384,-892.6604C562.0408,-876.7492 558.0416,-845.7064 558.0416,-819.165 558.0416,-819.165 558.0416,-819.165 558.0416,-629.3122 558.0416,-598.8452 528.4499,-574.2353 508.5986,-561.1538"/>
<polygon fill="#000000" stroke="#000000" points="509.4328,-559.61 504.2787,-558.3861 507.5446,-562.557 509.4328,-559.61"/>
<text text-anchor="middle" x="566.0416" y="-737.0386" font-family="Times,serif" font-size="14.00" fill="#000000">π₂</text>
</g>
<!-- n19 -->
<g id="node19" class="node">
<title>n19</title>
<ellipse fill="none" stroke="#000000" cx="448.0416" cy="-942.4615" rx="26.3269" ry="10.7143"/>
<text text-anchor="middle" x="448.0416" y="-938.7615" font-family="Times,serif" font-size="14.00" fill="#000000">ρ:ΩC</text>
</g>
<!-- n36 -->
<g id="node36" class="node">
<title>n36</title>
<polygon fill="none" stroke="#000000" points="414.5416,-868.7067 355.5416,-868.7067 355.5416,-853.7067 414.5416,-853.7067 414.5416,-868.7067"/>
<text text-anchor="middle" x="385.0416" y="-857.5067" font-family="Times,serif" font-size="14.00" fill="#000000">ΩC×ΩC</text>
</g>
<!-- n19&#45;&gt;n36 -->
<g id="edge34" class="edge">
<title>n19&#45;&gt;n36</title>
<path fill="none" stroke="#000000" stroke-dasharray="5,2" d="M440.0626,-932.1705C428.3199,-917.0252 406.4453,-888.8122 394.1096,-872.9022"/>
<polygon fill="#000000" stroke="#000000" points="395.3463,-871.6412 390.8996,-868.762 392.5803,-873.7858 395.3463,-871.6412"/>
<text text-anchor="middle" x="432.0416" y="-899.5483" font-family="Times,serif" font-size="14.00" fill="#000000">π₁</text>
</g>
<!-- n20 -->
<g id="node20" class="node">
<title>n20</title>
<ellipse fill="none" stroke="#000000" cx="378.0416" cy="-942.4615" rx="26.3269" ry="10.7143"/>
<text text-anchor="middle" x="378.0416" y="-938.7615" font-family="Times,serif" font-size="14.00" fill="#000000">g:ΩC</text>
</g>
<!-- n20&#45;&gt;n36 -->
<g id="edge35" class="edge">
<title>n20&#45;&gt;n36</title>
<path fill="none" stroke="#000000" stroke-dasharray="5,2" d="M378.9568,-931.8389C380.2242,-917.1268 382.5134,-890.5543 383.8938,-874.5304"/>
<polygon fill="#000000" stroke="#000000" points="385.672,-874.2775 384.3577,-869.1457 382.1849,-873.977 385.672,-874.2775"/>
<text text-anchor="middle" x="391.0416" y="-899.5483" font-family="Times,serif" font-size="14.00" fill="#000000">π₂</text>
</g>
<!-- n21 -->
<g id="node21" class="node">
<title>n21</title>
<ellipse fill="none" stroke="#000000" cx="491.0416" cy="-629.3122" rx="30.3115" ry="10.7143"/>
<text text-anchor="middle" x="491.0416" y="-625.6122" font-family="Times,serif" font-size="14.00" fill="#000000">•1:Ω•</text>
</g>
<!-- n21&#45;&gt;n38 -->
<g id="edge40" class="edge">
<title>n21&#45;&gt;n38</title>
<path fill="none" stroke="#000000" stroke-dasharray="5,2" d="M491.0416,-618.4074C491.0416,-604.013 491.0416,-578.7217 491.0416,-563.5136"/>
<polygon fill="#000000" stroke="#000000" points="492.7917,-563.4056 491.0416,-558.4057 489.2917,-563.4057 492.7917,-563.4056"/>
<text text-anchor="middle" x="499.0416" y="-586.399" font-family="Times,serif" font-size="14.00" fill="#000000">π₁</text>
</g>
<!-- n22 -->
<g id="node22" class="node">
<title>n22</title>
<ellipse fill="none" stroke="#000000" cx="518.0416" cy="-942.4615" rx="25.4118" ry="10.7143"/>
<text text-anchor="middle" x="518.0416" y="-938.7615" font-family="Times,serif" font-size="14.00" fill="#000000">2:ΩL</text>
</g>
<!-- n35 -->
<g id="node35" class="node">
<title>n35</title>
<polygon fill="none" stroke="#000000" points="518.5416,-709.0254 463.5416,-709.0254 463.5416,-694.0254 518.5416,-694.0254 518.5416,-709.0254"/>
<text text-anchor="middle" x="491.0416" y="-697.8254" font-family="Times,serif" font-size="14.00" fill="#000000">ΩL×Ω•</text>
</g>
<!-- n22&#45;&gt;n35 -->
<g id="edge31" class="edge">
<title>n22&#45;&gt;n35</title>
<path fill="none" stroke="#000000" stroke-dasharray="5,2" d="M518.1463,-931.7185C518.247,-900.318 517.0856,-806.1162 501.0416,-730.132 499.9241,-724.8396 498.0913,-719.1842 496.298,-714.311"/>
<polygon fill="#000000" stroke="#000000" points="497.8314,-713.4228 494.4033,-709.3842 494.5647,-714.6791 497.8314,-713.4228"/>
<text text-anchor="middle" x="522.0416" y="-815.465" font-family="Times,serif" font-size="14.00" fill="#000000">π₁</text>
</g>
<!-- n22&#45;&gt;n41 -->
<g id="edge51" class="edge">
<title>n22&#45;&gt;n41</title>
<path fill="none" stroke="#000000" stroke-dasharray="5,2" d="M511.4558,-932.1705C502.5628,-918.2743 486.6294,-893.377 476.1971,-877.0755"/>
<polygon fill="#000000" stroke="#000000" points="477.5801,-875.99 473.4109,-872.7219 474.6321,-877.8766 477.5801,-875.99"/>
</g>
<!-- n23 -->
<g id="node23" class="node">
<title>n23</title>
<ellipse fill="none" stroke="#000000" cx="466.0416" cy="-779.9518" rx="24.0833" ry="10.7143"/>
<text text-anchor="middle" x="466.0416" y="-776.2518" font-family="Times,serif" font-size="14.00" fill="#000000">1:Ω•</text>
</g>
<!-- n23&#45;&gt;n35 -->
<g id="edge32" class="edge">
<title>n23&#45;&gt;n35</title>
<path fill="none" stroke="#000000" stroke-dasharray="5,2" d="M469.4132,-769.3749C473.9714,-755.0757 482.0904,-729.6061 486.9793,-714.2691"/>
<polygon fill="#000000" stroke="#000000" points="488.7705,-714.4119 488.6218,-709.1165 485.4358,-713.3488 488.7705,-714.4119"/>
<text text-anchor="middle" x="489.0416" y="-737.0386" font-family="Times,serif" font-size="14.00" fill="#000000">π₂</text>
</g>
<!-- n24 -->
<g id="node24" class="node">
<title>n24</title>
<ellipse fill="none" stroke="#000000" cx="350.0416" cy="-590.099" rx="30.3115" ry="10.7143"/>
<text text-anchor="middle" x="350.0416" y="-586.399" font-family="Times,serif" font-size="14.00" fill="#000000">•2:Ω•</text>
</g>
<!-- n39 -->
<g id="node39" class="node">
<title>n39</title>
<polygon fill="none" stroke="#000000" points="376.5416,-413.9594 323.5416,-413.9594 323.5416,-398.9594 376.5416,-398.9594 376.5416,-413.9594"/>
<text text-anchor="middle" x="350.0416" y="-402.7594" font-family="Times,serif" font-size="14.00" fill="#000000">Ω•×Ω•</text>
</g>
<!-- n24&#45;&gt;n39 -->
<g id="edge44" class="edge">
<title>n24&#45;&gt;n39</title>
<path fill="none" stroke="#000000" stroke-dasharray="5,2" d="M350.0416,-579.432C350.0416,-547.7371 350.0416,-454.1854 350.0416,-419.5498"/>
<polygon fill="#000000" stroke="#000000" points="351.7917,-419.1536 350.0416,-414.1536 348.2917,-419.1536 351.7917,-419.1536"/>
<text text-anchor="middle" x="358.0416" y="-511.0792" font-family="Times,serif" font-size="14.00" fill="#000000">π₂</text>
</g>
<!-- n25 -->
<g id="node25" class="node">
<title>n25</title>
<ellipse fill="none" stroke="#000000" cx="385.0416" cy="-779.9518" rx="30.3115" ry="10.7143"/>
<text text-anchor="middle" x="385.0416" y="-776.2518" font-family="Times,serif" font-size="14.00" fill="#000000">•3:Ω•</text>
</g>
<!-- n25&#45;&gt;n37 -->
<g id="edge37" class="edge">
<title>n25&#45;&gt;n37</title>
<path fill="none" stroke="#000000" stroke-dasharray="5,2" d="M380.3214,-769.3749C373.884,-754.9502 362.3736,-729.1584 355.5498,-713.8679"/>
<polygon fill="#000000" stroke="#000000" points="357.0652,-712.9693 353.4294,-709.1165 353.869,-714.3957 357.0652,-712.9693"/>
<text text-anchor="middle" x="380.0416" y="-737.0386" font-family="Times,serif" font-size="14.00" fill="#000000">π₁</text>
</g>
<!-- n26 -->
<g id="node26" class="node">
<title>n26</title>
<ellipse fill="none" stroke="#000000" cx="416.0416" cy="-478.6726" rx="24.0833" ry="10.7143"/>
<text text-anchor="middle" x="416.0416" y="-474.9726" font-family="Times,serif" font-size="14.00" fill="#000000">1:Ω•</text>
</g>
<!-- n26&#45;&gt;n39 -->
<g id="edge43" class="edge">
<title>n26&#45;&gt;n39</title>
<path fill="none" stroke="#000000" stroke-dasharray="5,2" d="M406.8646,-468.6317C394.7953,-455.4261 373.6225,-432.2601 360.8092,-418.2407"/>
<polygon fill="#000000" stroke="#000000" points="361.7854,-416.7148 357.1204,-414.2046 359.2019,-419.076 361.7854,-416.7148"/>
<text text-anchor="middle" x="397.0416" y="-438.866" font-family="Times,serif" font-size="14.00" fill="#000000">π₁</text>
</g>
<!-- n27 -->
<g id="node27" class="node">
<title>n27</title>
</g>
<!-- n27&#45;&gt;n1 -->
<g id="edge1" class="edge">
<title>n27&#45;&gt;n1</title>
<path fill="none" stroke="#000000" d="M375.6175,-991.8294C356.8617,-989.9514 232.9977,-976.9979 135.0416,-953.0681 132.1988,-952.3736 129.2458,-951.5458 126.334,-950.6633"/>
<polygon fill="#000000" stroke="#000000" points="126.4651,-948.8695 121.1702,-949.0325 125.411,-952.2071 126.4651,-948.8695"/>
</g>
<!-- n27&#45;&gt;n3 -->
<g id="edge2" class="edge">
<title>n27&#45;&gt;n3</title>
<path fill="none" stroke="#000000" d="M376.0222,-990.637C368.7067,-985.4528 343.0986,-967.3052 325.4891,-954.8259"/>
<polygon fill="#000000" stroke="#000000" points="326.2917,-953.2499 321.2004,-951.7867 324.268,-956.1055 326.2917,-953.2499"/>
</g>
<!-- n27&#45;&gt;n18 -->
<g id="edge3" class="edge">
<title>n27&#45;&gt;n18</title>
<path fill="none" stroke="#000000" d="M380.1048,-991.8927C397.8903,-990.3406 525.3051,-978.4124 552.0416,-953.0681 561.2313,-944.357 564.5457,-930.1376 565.6687,-919.1151"/>
<polygon fill="#000000" stroke="#000000" points="567.4235,-919.118 566.0601,-913.999 563.9337,-918.8509 567.4235,-919.118"/>
</g>
<!-- n27&#45;&gt;n19 -->
<g id="edge4" class="edge">
<title>n27&#45;&gt;n19</title>
<path fill="none" stroke="#000000" d="M380.0611,-990.637C387.3766,-985.4528 412.9846,-967.3052 430.5942,-954.8259"/>
<polygon fill="#000000" stroke="#000000" points="431.8152,-956.1055 434.8829,-951.7867 429.7915,-953.2499 431.8152,-956.1055"/>
</g>
<!-- n27&#45;&gt;n20 -->
<g id="edge5" class="edge">
<title>n27&#45;&gt;n20</title>
<path fill="none" stroke="#000000" d="M378.0416,-989.9366C378.0416,-984.533 378.0416,-969.9042 378.0416,-958.3001"/>
<polygon fill="#000000" stroke="#000000" points="379.7917,-958.2254 378.0416,-953.2254 376.2917,-958.2254 379.7917,-958.2254"/>
</g>
<!-- n29&#45;&gt;n15 -->
<g id="edge15" class="edge">
<title>n29&#45;&gt;n15</title>
<path fill="none" stroke="#000000" d="M216.4143,-853.6709C209.6462,-834.2578 191.509,-782.2351 182.407,-756.1281"/>
<polygon fill="#000000" stroke="#000000" points="184.0117,-755.4147 180.7131,-751.2695 180.7068,-756.5669 184.0117,-755.4147"/>
<text text-anchor="middle" x="210.5416" y="-815.465" font-family="Times,serif" font-size="14.00" fill="#000000">&#45;</text>
</g>
<!-- n30&#45;&gt;n11 -->
<g id="edge18" class="edge">
<title>n30&#45;&gt;n11</title>
<path fill="none" stroke="#000000" d="M155.0416,-621.7924C155.0416,-609.2544 155.0416,-583.8048 155.0416,-567.053"/>
<polygon fill="#000000" stroke="#000000" points="156.7917,-566.7366 155.0416,-561.7366 153.2917,-566.7366 156.7917,-566.7366"/>
<text text-anchor="middle" x="161.5416" y="-586.399" font-family="Times,serif" font-size="14.00" fill="#000000">^</text>
</g>
<!-- n31&#45;&gt;n17 -->
<g id="edge21" class="edge">
<title>n31&#45;&gt;n17</title>
<path fill="none" stroke="#000000" d="M236.5605,-693.8666C235.4291,-675.8563 232.58,-630.5045 231.05,-606.151"/>
<polygon fill="#000000" stroke="#000000" points="232.787,-605.887 230.7269,-601.0066 229.2939,-606.1065 232.787,-605.887"/>
<text text-anchor="middle" x="242.5416" y="-661.7188" font-family="Times,serif" font-size="14.00" fill="#000000">^</text>
</g>
<!-- n32&#45;&gt;n10 -->
<g id="edge24" class="edge">
<title>n32&#45;&gt;n10</title>
<path fill="none" stroke="#000000" d="M153.0083,-470.9445C149.973,-459.4083 144.1905,-437.4308 140.2273,-422.3678"/>
<polygon fill="#000000" stroke="#000000" points="141.8226,-421.5534 138.8579,-417.1633 138.4378,-422.444 141.8226,-421.5534"/>
<text text-anchor="middle" x="159.5416" y="-438.866" font-family="Times,serif" font-size="14.00" fill="#000000">∧₀₀</text>
</g>
<!-- n33&#45;&gt;n8 -->
<g id="edge27" class="edge">
<title>n33&#45;&gt;n8</title>
<path fill="none" stroke="#000000" d="M107.0416,-329.576C107.0416,-317.4192 107.0416,-293.6678 107.0416,-277.822"/>
<polygon fill="#000000" stroke="#000000" points="108.7917,-277.7794 107.0416,-272.7795 105.2917,-277.7795 108.7917,-277.7794"/>
<text text-anchor="middle" x="118.5416" y="-297.5462" font-family="Times,serif" font-size="14.00" fill="#000000">∧₁₀</text>
</g>
<!-- n34&#45;&gt;n4 -->
<g id="edge30" class="edge">
<title>n34&#45;&gt;n4</title>
<path fill="none" stroke="#000000" d="M97.8421,-113.0535C83.7567,-101.326 56.6798,-78.7815 39.5309,-64.5031"/>
<polygon fill="#000000" stroke="#000000" points="40.3612,-62.9172 35.3989,-61.0628 38.1216,-65.607 40.3612,-62.9172"/>
<text text-anchor="middle" x="80.0416" y="-84.0132" font-family="Times,serif" font-size="14.00" fill="#000000">*</text>
</g>
<!-- n35&#45;&gt;n21 -->
<g id="edge33" class="edge">
<title>n35&#45;&gt;n21</title>
<path fill="none" stroke="#000000" d="M491.0416,-693.7974C491.0416,-682.2611 491.0416,-660.2836 491.0416,-645.2206"/>
<polygon fill="#000000" stroke="#000000" points="492.7917,-645.0161 491.0416,-640.0161 489.2917,-645.0161 492.7917,-645.0161"/>
<text text-anchor="middle" x="493.5416" y="-661.7188" font-family="Times,serif" font-size="14.00" fill="#000000">/</text>
</g>
<!-- n36&#45;&gt;n25 -->
<g id="edge36" class="edge">
<title>n36&#45;&gt;n25</title>
<path fill="none" stroke="#000000" d="M385.0416,-853.4156C385.0416,-840.1685 385.0416,-813.0097 385.0416,-795.6829"/>
<polygon fill="#000000" stroke="#000000" points="386.7917,-795.6476 385.0416,-790.6476 383.2917,-795.6476 386.7917,-795.6476"/>
<text text-anchor="middle" x="389.0416" y="-815.465" font-family="Times,serif" font-size="14.00" fill="#000000">*</text>
</g>
<!-- n37&#45;&gt;n24 -->
<g id="edge39" class="edge">
<title>n37&#45;&gt;n24</title>
<path fill="none" stroke="#000000" d="M350.0416,-693.8666C350.0416,-675.8563 350.0416,-630.5045 350.0416,-606.151"/>
<polygon fill="#000000" stroke="#000000" points="351.7917,-606.0066 350.0416,-601.0066 348.2917,-606.0067 351.7917,-606.0066"/>
<text text-anchor="middle" x="356.5416" y="-661.7188" font-family="Times,serif" font-size="14.00" fill="#000000">^</text>
</g>
<!-- n38&#45;&gt;n26 -->
<g id="edge42" class="edge">
<title>n38&#45;&gt;n26</title>
<path fill="none" stroke="#000000" d="M483.0153,-543.1577C470.3348,-530.9484 445.5077,-507.0438 429.9025,-492.0184"/>
<polygon fill="#000000" stroke="#000000" points="430.9624,-490.6096 426.1467,-488.4022 428.5348,-493.1309 430.9624,-490.6096"/>
<text text-anchor="middle" x="465.0416" y="-511.0792" font-family="Times,serif" font-size="14.00" fill="#000000">*</text>
</g>
<!-- n39&#45;&gt;n2 -->
<g id="edge45" class="edge">
<title>n39&#45;&gt;n2</title>
<path fill="none" stroke="#000000" d="M338.5348,-398.8927C310.9678,-380.7652 240.9858,-334.7462 207.8968,-312.9874"/>
<polygon fill="#000000" stroke="#000000" points="208.8094,-311.4931 203.6702,-310.2081 206.8864,-314.4175 208.8094,-311.4931"/>
<text text-anchor="middle" x="311.0416" y="-366.6528" font-family="Times,serif" font-size="14.00" fill="#000000">*</text>
</g>
<!-- n40&#45;&gt;n6 -->
<g id="edge46" class="edge">
<title>n40&#45;&gt;n6</title>
<path fill="none" stroke="#000000" d="M278.3631,-847.4229C277.6643,-833.2282 276.576,-811.1204 275.8372,-796.1118"/>
<polygon fill="#000000" stroke="#000000" points="277.5759,-795.8392 275.5821,-790.9313 274.0802,-796.0114 277.5759,-795.8392"/>
<text text-anchor="middle" x="284.5416" y="-815.465" font-family="Times,serif" font-size="14.00" fill="#000000">+</text>
</g>
<!-- n41&#45;&gt;n23 -->
<g id="edge47" class="edge">
<title>n41&#45;&gt;n23</title>
<path fill="none" stroke="#000000" d="M466.0416,-847.4229C466.0416,-833.2282 466.0416,-811.1204 466.0416,-796.1118"/>
<polygon fill="#000000" stroke="#000000" points="467.7917,-795.9313 466.0416,-790.9313 464.2917,-795.9314 467.7917,-795.9313"/>
<text text-anchor="middle" x="472.5416" y="-815.465" font-family="Times,serif" font-size="14.00" fill="#000000">+</text>
</g>
</g>
</svg>
