<?xml version="1.0" encoding="UTF-8" standalone="no"?>
<!DOCTYPE svg PUBLIC "-//W3C//DTD SVG 1.1//EN"
 "http://www.w3.org/Graphics/SVG/1.1/DTD/svg11.dtd">
<!-- Generated by graphviz version 2.40.1 (0)
 -->
<!-- Title: G Pages: 1 -->
<svg width="706pt" height="976pt"
 viewBox="0.00 0.00 705.86 975.64" xmlns="http://www.w3.org/2000/svg" xmlns:xlink="http://www.w3.org/1999/xlink">
<g id="graph0" class="graph" transform="scale(1 1) rotate(0) translate(4 971.6417)">
<title>G</title>
<polygon fill="#ffffff" stroke="transparent" points="-4,4 -4,-971.6417 701.8614,-971.6417 701.8614,4 -4,4"/>
<!-- n1 -->
<g id="node1" class="node">
<title>n1</title>
<ellipse fill="none" stroke="#000000" cx="76.5772" cy="-916.0351" rx="26.3269" ry="10.7143"/>
<text text-anchor="middle" x="76.5772" y="-912.3351" font-family="Times,serif" font-size="14.00" fill="#000000">Tₛ:Ω₀</text>
</g>
<!-- n6 -->
<g id="node6" class="node">
<title>n6</title>
<ellipse fill="none" stroke="#000000" cx="87.5772" cy="-51.6066" rx="28.0702" ry="10.7143"/>
<text text-anchor="middle" x="87.5772" y="-47.9066" font-family="Times,serif" font-size="14.00" fill="#000000">Tₛ̇:Ω•</text>
</g>
<!-- n1&#45;&gt;n6 -->
<g id="edge10" class="edge">
<title>n1&#45;&gt;n6</title>
<path fill="none" stroke="#000000" d="M75.4675,-905.3932C73.9945,-890.3234 71.5772,-861.8938 71.5772,-837.6087 71.5772,-837.6087 71.5772,-837.6087 71.5772,-120.7132 71.5772,-101.8481 77.3063,-80.8154 81.908,-66.9642"/>
<polygon fill="#000000" stroke="#000000" points="83.574,-67.5007 83.5397,-62.2034 80.2631,-66.3659 83.574,-67.5007"/>
<text text-anchor="middle" x="77.5772" y="-466.6295" font-family="Times,serif" font-size="14.00" fill="#000000">∂ₜ</text>
</g>
<!-- n19 -->
<g id="node19" class="node">
<title>n19</title>
<ellipse fill="none" stroke="#000000" cx="209.5772" cy="-837.6087" rx="30.3115" ry="10.7143"/>
<text text-anchor="middle" x="209.5772" y="-833.9087" font-family="Times,serif" font-size="14.00" fill="#000000">•1:Ω•</text>
</g>
<!-- n1&#45;&gt;n19 -->
<g id="edge11" class="edge">
<title>n1&#45;&gt;n19</title>
<path fill="none" stroke="#000000" d="M92.0932,-907.2278C101.0152,-901.9081 112.2652,-894.7564 121.5772,-887.4285 132.2513,-879.0286 132.2762,-873.7507 143.5772,-866.2153 155.5934,-858.2029 170.2222,-851.5917 182.6508,-846.7509"/>
<polygon fill="#000000" stroke="#000000" points="183.421,-848.3304 187.4727,-844.9176 182.1771,-845.0588 183.421,-848.3304"/>
<text text-anchor="middle" x="148.5772" y="-873.1219" font-family="Times,serif" font-size="14.00" fill="#000000">d</text>
</g>
<!-- n32 -->
<g id="node32" class="node">
<title>n32</title>
<polygon fill="none" stroke="#000000" points="161.5772,-845.1087 107.5772,-845.1087 107.5772,-830.1087 161.5772,-830.1087 161.5772,-845.1087"/>
<text text-anchor="middle" x="134.5772" y="-833.9087" font-family="Times,serif" font-size="14.00" fill="#000000">ΩC×Ω₀</text>
</g>
<!-- n1&#45;&gt;n32 -->
<g id="edge28" class="edge">
<title>n1&#45;&gt;n32</title>
<path fill="none" stroke="#000000" stroke-dasharray="5,2" d="M81.6128,-905.6098C86.8888,-895.1659 95.7635,-878.8682 105.5772,-866.2153 110.3435,-860.07 116.3662,-853.9257 121.6864,-848.9154"/>
<polygon fill="#000000" stroke="#000000" points="123.0934,-849.9986 125.5853,-845.3239 120.7221,-847.4243 123.0934,-849.9986"/>
<text text-anchor="middle" x="113.5772" y="-873.1219" font-family="Times,serif" font-size="14.00" fill="#000000">π₂</text>
</g>
<!-- n2 -->
<g id="node2" class="node">
<title>n2</title>
<ellipse fill="none" stroke="#000000" cx="296.5772" cy="-614.7559" rx="38.3684" ry="10.7143"/>
<text text-anchor="middle" x="296.5772" y="-611.0559" font-family="Times,serif" font-size="14.00" fill="#000000">ASR:Ω₀</text>
</g>
<!-- n28 -->
<g id="node28" class="node">
<title>n28</title>
<polygon fill="none" stroke="#000000" points="321.0772,-550.0427 272.0772,-550.0427 272.0772,-535.0427 321.0772,-535.0427 321.0772,-550.0427"/>
<text text-anchor="middle" x="296.5772" y="-538.8427" font-family="Times,serif" font-size="14.00" fill="#000000">Ω₀×Ω₀</text>
</g>
<!-- n2&#45;&gt;n28 -->
<g id="edge15" class="edge">
<title>n2&#45;&gt;n28</title>
<path fill="none" stroke="#000000" stroke-dasharray="5,2" d="M296.5772,-604.1006C296.5772,-591.0777 296.5772,-569.0671 296.5772,-555.1962"/>
<polygon fill="#000000" stroke="#000000" points="298.3273,-555.1427 296.5772,-550.1428 294.8273,-555.1428 298.3273,-555.1427"/>
<text text-anchor="middle" x="304.5772" y="-574.9493" font-family="Times,serif" font-size="14.00" fill="#000000">π₁</text>
</g>
<!-- n3 -->
<g id="node3" class="node">
<title>n3</title>
<ellipse fill="none" stroke="#000000" cx="140.5772" cy="-614.7559" rx="38.7821" ry="10.7143"/>
<text text-anchor="middle" x="140.5772" y="-611.0559" font-family="Times,serif" font-size="14.00" fill="#000000">OLR:Ω₀</text>
</g>
<!-- n3&#45;&gt;n28 -->
<g id="edge16" class="edge">
<title>n3&#45;&gt;n28</title>
<path fill="none" stroke="#000000" stroke-dasharray="5,2" d="M160.3347,-605.61C189.9077,-591.9205 245.432,-566.218 275.6647,-552.2232"/>
<polygon fill="#000000" stroke="#000000" points="276.4896,-553.7698 280.2919,-550.0812 275.0193,-550.5936 276.4896,-553.7698"/>
<text text-anchor="middle" x="240.5772" y="-574.9493" font-family="Times,serif" font-size="14.00" fill="#000000">π₂</text>
</g>
<!-- n4 -->
<g id="node4" class="node">
<title>n4</title>
<ellipse fill="none" stroke="#000000" cx="383.5772" cy="-325.9031" rx="31.6406" ry="10.7143"/>
<text text-anchor="middle" x="383.5772" y="-322.2031" font-family="Times,serif" font-size="14.00" fill="#000000">HT:Ω₀</text>
</g>
<!-- n38 -->
<g id="node38" class="node">
<title>n38</title>
<ellipse fill="none" stroke="#000000" cx="331.5772" cy="-264.8614" rx="13.3704" ry="13.3704"/>
<text text-anchor="middle" x="331.5772" y="-261.1614" font-family="Times,serif" font-size="14.00" fill="#000000">Σ1</text>
</g>
<!-- n4&#45;&gt;n38 -->
<g id="edge47" class="edge">
<title>n4&#45;&gt;n38</title>
<path fill="none" stroke="#000000" stroke-dasharray="5,2" d="M374.7561,-315.5482C366.2914,-305.6117 353.4296,-290.5136 343.9439,-279.3785"/>
<polygon fill="#000000" stroke="#000000" points="345.1909,-278.1436 340.6163,-275.4723 342.5266,-280.4133 345.1909,-278.1436"/>
</g>
<!-- n5 -->
<g id="node5" class="node">
<title>n5</title>
<ellipse fill="none" stroke="#000000" cx="669.5772" cy="-876.8219" rx="28.0702" ry="10.7143"/>
<text text-anchor="middle" x="669.5772" y="-873.1219" font-family="Times,serif" font-size="14.00" fill="#000000">C:ΩC</text>
</g>
<!-- n29 -->
<g id="node29" class="node">
<title>n29</title>
<polygon fill="none" stroke="#000000" points="359.5772,-128.2132 303.5772,-128.2132 303.5772,-113.2132 359.5772,-113.2132 359.5772,-128.2132"/>
<text text-anchor="middle" x="331.5772" y="-117.0132" font-family="Times,serif" font-size="14.00" fill="#000000">Ω•×ΩC</text>
</g>
<!-- n5&#45;&gt;n29 -->
<g id="edge19" class="edge">
<title>n5&#45;&gt;n29</title>
<path fill="none" stroke="#000000" stroke-dasharray="5,2" d="M668.9114,-866.1713C668.0275,-851.0911 666.5772,-822.6492 666.5772,-798.3955 666.5772,-798.3955 666.5772,-798.3955 666.5772,-189.8198 666.5772,-159.2461 449.7874,-133.141 364.9992,-124.1002"/>
<polygon fill="#000000" stroke="#000000" points="365.0069,-122.3414 359.8504,-123.5549 364.6382,-125.8219 365.0069,-122.3414"/>
<text text-anchor="middle" x="674.5772" y="-502.7361" font-family="Times,serif" font-size="14.00" fill="#000000">π₂</text>
</g>
<!-- n27 -->
<g id="node27" class="node">
<title>n27</title>
</g>
<!-- n6&#45;&gt;n27 -->
<g id="edge9" class="edge">
<title>n6&#45;&gt;n27</title>
<path fill="none" stroke="#000000" d="M87.5772,-40.5973C87.5772,-31.135 87.5772,-17.7454 87.5772,-9.4807"/>
<polygon fill="#000000" stroke="#000000" points="89.3273,-9.3096 87.5772,-4.3096 85.8273,-9.3096 89.3273,-9.3096"/>
</g>
<!-- n7 -->
<g id="node7" class="node">
<title>n7</title>
<ellipse fill="none" stroke="#000000" cx="305.5772" cy="-431.1163" rx="30.3115" ry="10.7143"/>
<text text-anchor="middle" x="305.5772" y="-427.4163" font-family="Times,serif" font-size="14.00" fill="#000000">•1:Ω•</text>
</g>
<!-- n7&#45;&gt;n38 -->
<g id="edge46" class="edge">
<title>n7&#45;&gt;n38</title>
<path fill="none" stroke="#000000" stroke-dasharray="5,2" d="M307.2831,-420.2078C311.6369,-392.3675 323.2005,-318.4252 328.6536,-283.5561"/>
<polygon fill="#000000" stroke="#000000" points="330.4306,-283.5188 329.4742,-278.3084 326.9726,-282.9779 330.4306,-283.5188"/>
</g>
<!-- n8 -->
<g id="node8" class="node">
<title>n8</title>
<ellipse fill="none" stroke="#000000" cx="331.5772" cy="-189.8198" rx="24.0833" ry="10.7143"/>
<text text-anchor="middle" x="331.5772" y="-186.1198" font-family="Times,serif" font-size="14.00" fill="#000000">1:Ω•</text>
</g>
<!-- n8&#45;&gt;n29 -->
<g id="edge18" class="edge">
<title>n8&#45;&gt;n29</title>
<path fill="none" stroke="#000000" stroke-dasharray="5,2" d="M331.5772,-179.0219C331.5772,-166.6655 331.5772,-146.4535 331.5772,-133.3683"/>
<polygon fill="#000000" stroke="#000000" points="333.3273,-133.2403 331.5772,-128.2404 329.8273,-133.2404 333.3273,-133.2403"/>
<text text-anchor="middle" x="339.5772" y="-150.0132" font-family="Times,serif" font-size="14.00" fill="#000000">π₁</text>
</g>
<!-- n9 -->
<g id="node9" class="node">
<title>n9</title>
<ellipse fill="none" stroke="#000000" cx="369.5772" cy="-759.1823" rx="25" ry="10.7143"/>
<text text-anchor="middle" x="369.5772" y="-755.4823" font-family="Times,serif" font-size="14.00" fill="#000000">Q:Ω₀</text>
</g>
<!-- n31 -->
<g id="node31" class="node">
<title>n31</title>
<polygon fill="none" stroke="#000000" points="322.0772,-691.3625 271.0772,-691.3625 271.0772,-676.3625 322.0772,-676.3625 322.0772,-691.3625"/>
<text text-anchor="middle" x="296.5772" y="-680.1625" font-family="Times,serif" font-size="14.00" fill="#000000">Ω•×Ω₀</text>
</g>
<!-- n9&#45;&gt;n31 -->
<g id="edge25" class="edge">
<title>n9&#45;&gt;n31</title>
<path fill="none" stroke="#000000" stroke-dasharray="5,2" d="M360.0337,-749.3355C346.6097,-735.485 322.1947,-710.2941 307.8795,-695.524"/>
<polygon fill="#000000" stroke="#000000" points="308.8638,-694.025 304.1273,-691.6525 306.3505,-696.4609 308.8638,-694.025"/>
<text text-anchor="middle" x="349.5772" y="-716.2691" font-family="Times,serif" font-size="14.00" fill="#000000">π₂</text>
</g>
<!-- n10 -->
<g id="node10" class="node">
<title>n10</title>
<ellipse fill="none" stroke="#000000" cx="220.5772" cy="-916.0351" rx="26.7407" ry="10.7143"/>
<text text-anchor="middle" x="220.5772" y="-912.3351" font-family="Times,serif" font-size="14.00" fill="#000000">α:ΩC</text>
</g>
<!-- n30 -->
<g id="node30" class="node">
<title>n30</title>
<polygon fill="none" stroke="#000000" points="319.5772,-845.1087 261.5772,-845.1087 261.5772,-830.1087 319.5772,-830.1087 319.5772,-845.1087"/>
<text text-anchor="middle" x="290.5772" y="-833.9087" font-family="Times,serif" font-size="14.00" fill="#000000">ΩL×ΩC</text>
</g>
<!-- n10&#45;&gt;n30 -->
<g id="edge22" class="edge">
<title>n10&#45;&gt;n30</title>
<path fill="none" stroke="#000000" stroke-dasharray="5,2" d="M229.7284,-905.7822C242.7362,-891.2086 266.5065,-864.5769 280.1695,-849.2692"/>
<polygon fill="#000000" stroke="#000000" points="281.7139,-850.1669 283.7378,-845.2713 279.1027,-847.8363 281.7139,-850.1669"/>
<text text-anchor="middle" x="272.5772" y="-873.1219" font-family="Times,serif" font-size="14.00" fill="#000000">π₂</text>
</g>
<!-- n11 -->
<g id="node11" class="node">
<title>n11</title>
<ellipse fill="none" stroke="#000000" cx="290.5772" cy="-916.0351" rx="25.4118" ry="10.7143"/>
<text text-anchor="middle" x="290.5772" y="-912.3351" font-family="Times,serif" font-size="14.00" fill="#000000">1:ΩL</text>
</g>
<!-- n11&#45;&gt;n30 -->
<g id="edge21" class="edge">
<title>n11&#45;&gt;n30</title>
<path fill="none" stroke="#000000" stroke-dasharray="5,2" d="M290.5772,-905.1302C290.5772,-890.7359 290.5772,-865.4446 290.5772,-850.2365"/>
<polygon fill="#000000" stroke="#000000" points="292.3273,-850.1285 290.5772,-845.1285 288.8273,-850.1286 292.3273,-850.1285"/>
<text text-anchor="middle" x="298.5772" y="-873.1219" font-family="Times,serif" font-size="14.00" fill="#000000">π₁</text>
</g>
<!-- n12 -->
<g id="node12" class="node">
<title>n12</title>
<ellipse fill="none" stroke="#000000" cx="295.5772" cy="-759.1823" rx="30.3115" ry="10.7143"/>
<text text-anchor="middle" x="295.5772" y="-755.4823" font-family="Times,serif" font-size="14.00" fill="#000000">•1:Ω•</text>
</g>
<!-- n12&#45;&gt;n31 -->
<g id="edge24" class="edge">
<title>n12&#45;&gt;n31</title>
<path fill="none" stroke="#000000" stroke-dasharray="5,2" d="M295.7204,-748.3908C295.9016,-734.7449 296.2132,-711.2787 296.4065,-696.7192"/>
<polygon fill="#000000" stroke="#000000" points="298.16,-696.4586 296.4766,-691.4358 294.6603,-696.4121 298.16,-696.4586"/>
<text text-anchor="middle" x="303.5772" y="-716.2691" font-family="Times,serif" font-size="14.00" fill="#000000">π₁</text>
</g>
<!-- n13 -->
<g id="node13" class="node">
<title>n13</title>
<ellipse fill="none" stroke="#000000" cx="27.5772" cy="-876.8219" rx="27.6545" ry="10.7143"/>
<text text-anchor="middle" x="27.5772" y="-873.1219" font-family="Times,serif" font-size="14.00" fill="#000000">A:ΩC</text>
</g>
<!-- n33 -->
<g id="node33" class="node">
<title>n33</title>
<polygon fill="none" stroke="#000000" points="162.5772,-691.3625 106.5772,-691.3625 106.5772,-676.3625 162.5772,-676.3625 162.5772,-691.3625"/>
<text text-anchor="middle" x="134.5772" y="-680.1625" font-family="Times,serif" font-size="14.00" fill="#000000">ΩC×Ω•</text>
</g>
<!-- n13&#45;&gt;n33 -->
<g id="edge30" class="edge">
<title>n13&#45;&gt;n33</title>
<path fill="none" stroke="#000000" stroke-dasharray="5,2" d="M27.3473,-866.1105C27.3837,-848.7916 29.1698,-813.942 41.5772,-787.7889 60.5493,-747.7981 99.8508,-711.9253 120.7719,-694.6825"/>
<polygon fill="#000000" stroke="#000000" points="121.9257,-695.9999 124.6996,-691.4867 119.7167,-693.285 121.9257,-695.9999"/>
<text text-anchor="middle" x="49.5772" y="-794.6955" font-family="Times,serif" font-size="14.00" fill="#000000">π₁</text>
</g>
<!-- n14 -->
<g id="node14" class="node">
<title>n14</title>
<ellipse fill="none" stroke="#000000" cx="148.5772" cy="-916.0351" rx="27.6545" ry="10.7143"/>
<text text-anchor="middle" x="148.5772" y="-912.3351" font-family="Times,serif" font-size="14.00" fill="#000000">B:ΩC</text>
</g>
<!-- n14&#45;&gt;n32 -->
<g id="edge27" class="edge">
<title>n14&#45;&gt;n32</title>
<path fill="none" stroke="#000000" stroke-dasharray="5,2" d="M152.3594,-905.4942C155.457,-895.2446 158.7116,-879.3443 154.5772,-866.2153 152.6819,-860.1968 149.0197,-854.3417 145.3414,-849.5127"/>
<polygon fill="#000000" stroke="#000000" points="146.5136,-848.179 142.0091,-845.3911 143.7919,-850.3796 146.5136,-848.179"/>
<text text-anchor="middle" x="164.5772" y="-873.1219" font-family="Times,serif" font-size="14.00" fill="#000000">π₁</text>
</g>
<!-- n15 -->
<g id="node15" class="node">
<title>n15</title>
<ellipse fill="none" stroke="#000000" cx="134.5772" cy="-759.1823" rx="30.3115" ry="10.7143"/>
<text text-anchor="middle" x="134.5772" y="-755.4823" font-family="Times,serif" font-size="14.00" fill="#000000">•1:Ω•</text>
</g>
<!-- n15&#45;&gt;n33 -->
<g id="edge31" class="edge">
<title>n15&#45;&gt;n33</title>
<path fill="none" stroke="#000000" stroke-dasharray="5,2" d="M134.5772,-748.3908C134.5772,-734.7449 134.5772,-711.2787 134.5772,-696.7192"/>
<polygon fill="#000000" stroke="#000000" points="136.3273,-696.4358 134.5772,-691.4358 132.8273,-696.4359 136.3273,-696.4358"/>
<text text-anchor="middle" x="142.5772" y="-716.2691" font-family="Times,serif" font-size="14.00" fill="#000000">π₂</text>
</g>
<!-- n16 -->
<g id="node16" class="node">
<title>n16</title>
<ellipse fill="none" stroke="#000000" cx="570.5772" cy="-916.0351" rx="28.0702" ry="10.7143"/>
<text text-anchor="middle" x="570.5772" y="-912.3351" font-family="Times,serif" font-size="14.00" fill="#000000">D:ΩC</text>
</g>
<!-- n34 -->
<g id="node34" class="node">
<title>n34</title>
<polygon fill="none" stroke="#000000" points="506.0772,-845.1087 447.0772,-845.1087 447.0772,-830.1087 506.0772,-830.1087 506.0772,-845.1087"/>
<text text-anchor="middle" x="476.5772" y="-833.9087" font-family="Times,serif" font-size="14.00" fill="#000000">ΩC×ΩC</text>
</g>
<!-- n16&#45;&gt;n34 -->
<g id="edge33" class="edge">
<title>n16&#45;&gt;n34</title>
<path fill="none" stroke="#000000" stroke-dasharray="5,2" d="M558.672,-906.1023C540.9434,-891.311 507.737,-863.6061 489.4588,-848.3561"/>
<polygon fill="#000000" stroke="#000000" points="490.5413,-846.9802 485.581,-845.1208 488.2991,-849.6677 490.5413,-846.9802"/>
<text text-anchor="middle" x="542.5772" y="-873.1219" font-family="Times,serif" font-size="14.00" fill="#000000">π₁</text>
</g>
<!-- n17 -->
<g id="node17" class="node">
<title>n17</title>
<ellipse fill="none" stroke="#000000" cx="476.5772" cy="-916.0351" rx="48.1667" ry="10.7143"/>
<text text-anchor="middle" x="476.5772" y="-912.3351" font-family="Times,serif" font-size="14.00" fill="#000000">cosϕᵖ:ΩC</text>
</g>
<!-- n17&#45;&gt;n34 -->
<g id="edge34" class="edge">
<title>n17&#45;&gt;n34</title>
<path fill="none" stroke="#000000" stroke-dasharray="5,2" d="M476.5772,-905.1302C476.5772,-890.7359 476.5772,-865.4446 476.5772,-850.2365"/>
<polygon fill="#000000" stroke="#000000" points="478.3273,-850.1285 476.5772,-845.1285 474.8273,-850.1286 478.3273,-850.1285"/>
<text text-anchor="middle" x="484.5772" y="-873.1219" font-family="Times,serif" font-size="14.00" fill="#000000">π₂</text>
</g>
<!-- n37 -->
<g id="node37" class="node">
<title>n37</title>
<polygon fill="none" stroke="#000000" points="401.5772,-845.1087 343.5772,-845.1087 343.5772,-830.1087 401.5772,-830.1087 401.5772,-845.1087"/>
<text text-anchor="middle" x="372.5772" y="-833.9087" font-family="Times,serif" font-size="14.00" fill="#000000">ΩL×ΩC</text>
</g>
<!-- n17&#45;&gt;n37 -->
<g id="edge43" class="edge">
<title>n17&#45;&gt;n37</title>
<path fill="none" stroke="#000000" stroke-dasharray="5,2" d="M462.981,-905.7822C443.2422,-890.8972 406.8228,-863.4333 386.7596,-848.3037"/>
<polygon fill="#000000" stroke="#000000" points="387.7843,-846.8846 382.7385,-845.2713 385.677,-849.6791 387.7843,-846.8846"/>
<text text-anchor="middle" x="444.5772" y="-873.1219" font-family="Times,serif" font-size="14.00" fill="#000000">π₂</text>
</g>
<!-- n18 -->
<g id="node18" class="node">
<title>n18</title>
<ellipse fill="none" stroke="#000000" cx="583.5772" cy="-798.3955" rx="48.1667" ry="10.7143"/>
<text text-anchor="middle" x="583.5772" y="-794.6955" font-family="Times,serif" font-size="14.00" fill="#000000">cosϕᵈ:ΩC</text>
</g>
<!-- n35 -->
<g id="node35" class="node">
<title>n35</title>
<polygon fill="none" stroke="#000000" points="416.5772,-691.3625 360.5772,-691.3625 360.5772,-676.3625 416.5772,-676.3625 416.5772,-691.3625"/>
<text text-anchor="middle" x="388.5772" y="-680.1625" font-family="Times,serif" font-size="14.00" fill="#000000">ΩC×Ω•</text>
</g>
<!-- n18&#45;&gt;n35 -->
<g id="edge36" class="edge">
<title>n18&#45;&gt;n35</title>
<path fill="none" stroke="#000000" stroke-dasharray="5,2" d="M575.7516,-787.7739C561.303,-768.957 528.5193,-729.8257 491.5772,-709.3625 470.0363,-697.4305 442.9082,-691.0067 421.9008,-687.5921"/>
<polygon fill="#000000" stroke="#000000" points="421.9077,-685.8224 416.6989,-686.7873 421.3725,-689.2813 421.9077,-685.8224"/>
<text text-anchor="middle" x="567.5772" y="-755.4823" font-family="Times,serif" font-size="14.00" fill="#000000">π₁</text>
</g>
<!-- n24 -->
<g id="node24" class="node">
<title>n24</title>
<ellipse fill="none" stroke="#000000" cx="215.5772" cy="-759.1823" rx="30.3115" ry="10.7143"/>
<text text-anchor="middle" x="215.5772" y="-755.4823" font-family="Times,serif" font-size="14.00" fill="#000000">•6:Ω•</text>
</g>
<!-- n19&#45;&gt;n24 -->
<g id="edge12" class="edge">
<title>n19&#45;&gt;n24</title>
<path fill="none" stroke="#000000" d="M210.4114,-826.7038C211.4324,-813.3591 213.1698,-790.6486 214.3449,-775.2895"/>
<polygon fill="#000000" stroke="#000000" points="216.1134,-775.1135 214.75,-769.9945 212.6236,-774.8464 216.1134,-775.1135"/>
<text text-anchor="middle" x="218.5772" y="-794.6955" font-family="Times,serif" font-size="14.00" fill="#000000">⋆</text>
</g>
<!-- n20 -->
<g id="node20" class="node">
<title>n20</title>
<ellipse fill="none" stroke="#000000" cx="452.5772" cy="-719.9691" rx="30.3115" ry="10.7143"/>
<text text-anchor="middle" x="452.5772" y="-716.2691" font-family="Times,serif" font-size="14.00" fill="#000000">•2:Ω•</text>
</g>
<!-- n36 -->
<g id="node36" class="node">
<title>n36</title>
<polygon fill="none" stroke="#000000" points="415.0772,-402.5097 362.0772,-402.5097 362.0772,-387.5097 415.0772,-387.5097 415.0772,-402.5097"/>
<text text-anchor="middle" x="388.5772" y="-391.3097" font-family="Times,serif" font-size="14.00" fill="#000000">Ω•×Ω•</text>
</g>
<!-- n20&#45;&gt;n36 -->
<g id="edge39" class="edge">
<title>n20&#45;&gt;n36</title>
<path fill="none" stroke="#000000" stroke-dasharray="5,2" d="M452.0725,-709.1987C451.48,-695.6064 450.5772,-671.5071 450.5772,-650.8625 450.5772,-650.8625 450.5772,-650.8625 450.5772,-470.3295 450.5772,-441.9128 423.9455,-418.3914 405.5907,-405.5547"/>
<polygon fill="#000000" stroke="#000000" points="406.2441,-403.8833 401.1238,-402.5249 404.2794,-406.7799 406.2441,-403.8833"/>
<text text-anchor="middle" x="458.5772" y="-574.9493" font-family="Times,serif" font-size="14.00" fill="#000000">π₁</text>
</g>
<!-- n21 -->
<g id="node21" class="node">
<title>n21</title>
<ellipse fill="none" stroke="#000000" cx="388.5772" cy="-470.3295" rx="30.3115" ry="10.7143"/>
<text text-anchor="middle" x="388.5772" y="-466.6295" font-family="Times,serif" font-size="14.00" fill="#000000">•3:Ω•</text>
</g>
<!-- n21&#45;&gt;n36 -->
<g id="edge40" class="edge">
<title>n21&#45;&gt;n36</title>
<path fill="none" stroke="#000000" stroke-dasharray="5,2" d="M388.5772,-459.538C388.5772,-445.8921 388.5772,-422.4259 388.5772,-407.8664"/>
<polygon fill="#000000" stroke="#000000" points="390.3273,-407.583 388.5772,-402.583 386.8273,-407.583 390.3273,-407.583"/>
<text text-anchor="middle" x="396.5772" y="-427.4163" font-family="Times,serif" font-size="14.00" fill="#000000">π₂</text>
</g>
<!-- n22 -->
<g id="node22" class="node">
<title>n22</title>
<ellipse fill="none" stroke="#000000" cx="388.5772" cy="-542.5427" rx="30.3115" ry="10.7143"/>
<text text-anchor="middle" x="388.5772" y="-538.8427" font-family="Times,serif" font-size="14.00" fill="#000000">•4:Ω•</text>
</g>
<!-- n22&#45;&gt;n21 -->
<g id="edge14" class="edge">
<title>n22&#45;&gt;n21</title>
<path fill="none" stroke="#000000" d="M388.5772,-531.8874C388.5772,-519.8342 388.5772,-500.0822 388.5772,-486.2102"/>
<polygon fill="#000000" stroke="#000000" points="390.3273,-486.0285 388.5772,-481.0285 386.8273,-486.0285 390.3273,-486.0285"/>
<text text-anchor="middle" x="393.5772" y="-502.7361" font-family="Times,serif" font-size="14.00" fill="#000000">⋆</text>
</g>
<!-- n23 -->
<g id="node23" class="node">
<title>n23</title>
<ellipse fill="none" stroke="#000000" cx="388.5772" cy="-614.7559" rx="30.3115" ry="10.7143"/>
<text text-anchor="middle" x="388.5772" y="-611.0559" font-family="Times,serif" font-size="14.00" fill="#000000">•5:Ω•</text>
</g>
<!-- n23&#45;&gt;n22 -->
<g id="edge13" class="edge">
<title>n23&#45;&gt;n22</title>
<path fill="none" stroke="#000000" d="M388.5772,-604.1006C388.5772,-592.0474 388.5772,-572.2954 388.5772,-558.4234"/>
<polygon fill="#000000" stroke="#000000" points="390.3273,-558.2417 388.5772,-553.2417 386.8273,-558.2417 390.3273,-558.2417"/>
<text text-anchor="middle" x="393.5772" y="-574.9493" font-family="Times,serif" font-size="14.00" fill="#000000">d</text>
</g>
<!-- n24&#45;&gt;n35 -->
<g id="edge37" class="edge">
<title>n24&#45;&gt;n35</title>
<path fill="none" stroke="#000000" stroke-dasharray="5,2" d="M225.1335,-748.7199C236.1707,-737.29 255.4126,-719.2891 275.5772,-709.3625 289.421,-702.5474 327.2687,-694.7404 355.3699,-689.5792"/>
<polygon fill="#000000" stroke="#000000" points="355.8894,-691.2636 360.4956,-688.6472 355.2632,-687.82 355.8894,-691.2636"/>
<text text-anchor="middle" x="283.5772" y="-716.2691" font-family="Times,serif" font-size="14.00" fill="#000000">π₂</text>
</g>
<!-- n25 -->
<g id="node25" class="node">
<title>n25</title>
<ellipse fill="none" stroke="#000000" cx="372.5772" cy="-916.0351" rx="38.3684" ry="10.7143"/>
<text text-anchor="middle" x="372.5772" y="-912.3351" font-family="Times,serif" font-size="14.00" fill="#000000">450:ΩL</text>
</g>
<!-- n25&#45;&gt;n37 -->
<g id="edge42" class="edge">
<title>n25&#45;&gt;n37</title>
<path fill="none" stroke="#000000" stroke-dasharray="5,2" d="M372.5772,-905.1302C372.5772,-890.7359 372.5772,-865.4446 372.5772,-850.2365"/>
<polygon fill="#000000" stroke="#000000" points="374.3273,-850.1285 372.5772,-845.1285 370.8273,-850.1286 374.3273,-850.1285"/>
<text text-anchor="middle" x="380.5772" y="-873.1219" font-family="Times,serif" font-size="14.00" fill="#000000">π₁</text>
</g>
<!-- n26 -->
<g id="node26" class="node">
<title>n26</title>
</g>
<!-- n26&#45;&gt;n1 -->
<g id="edge1" class="edge">
<title>n26&#45;&gt;n1</title>
<path fill="none" stroke="#000000" d="M378.4004,-965.4525C359.4951,-963.7831 221.2032,-951.0542 111.5772,-926.6417 108.4862,-925.9534 105.2711,-925.1307 102.0976,-924.2521"/>
<polygon fill="#000000" stroke="#000000" points="102.4576,-922.5348 97.1688,-922.8367 101.4915,-925.8988 102.4576,-922.5348"/>
</g>
<!-- n26&#45;&gt;n5 -->
<g id="edge2" class="edge">
<title>n26&#45;&gt;n5</title>
<path fill="none" stroke="#000000" d="M382.6255,-965.6125C405.8065,-965.2653 618.3552,-961.6536 640.5772,-945.6417 657.6831,-933.3162 664.7586,-908.8802 667.6444,-892.6929"/>
<polygon fill="#000000" stroke="#000000" points="669.4055,-892.7632 668.4709,-887.5489 665.9498,-892.208 669.4055,-892.7632"/>
</g>
<!-- n26&#45;&gt;n10 -->
<g id="edge3" class="edge">
<title>n26&#45;&gt;n10</title>
<path fill="none" stroke="#000000" d="M378.5542,-965.0145C365.1014,-960.8436 287.8486,-936.892 246.5731,-924.0949"/>
<polygon fill="#000000" stroke="#000000" points="247.0186,-922.4009 241.7246,-922.5917 245.9821,-925.7439 247.0186,-922.4009"/>
</g>
<!-- n26&#45;&gt;n13 -->
<g id="edge4" class="edge">
<title>n26&#45;&gt;n13</title>
<path fill="none" stroke="#000000" d="M378.2553,-965.5308C349.8039,-964.152 68.9712,-949.9833 41.5772,-926.6417 31.9392,-918.4294 28.67,-904.1596 27.6784,-892.991"/>
<polygon fill="#000000" stroke="#000000" points="29.4125,-892.6797 27.3566,-887.7975 25.9192,-892.8962 29.4125,-892.6797"/>
</g>
<!-- n26&#45;&gt;n14 -->
<g id="edge5" class="edge">
<title>n26&#45;&gt;n14</title>
<path fill="none" stroke="#000000" d="M378.23,-965.2573C361.8862,-962.5634 263.4078,-946.0555 184.5772,-926.6417 181.5048,-925.8851 178.3026,-925.0338 175.1304,-924.1511"/>
<polygon fill="#000000" stroke="#000000" points="175.4812,-922.4315 170.1932,-922.7471 174.5238,-925.798 175.4812,-922.4315"/>
</g>
<!-- n26&#45;&gt;n16 -->
<g id="edge6" class="edge">
<title>n26&#45;&gt;n16</title>
<path fill="none" stroke="#000000" d="M382.7406,-965.1158C396.4101,-961.7879 472.1913,-943.2601 533.5772,-926.6417 536.6249,-925.8166 539.808,-924.9348 542.9727,-924.0453"/>
<polygon fill="#000000" stroke="#000000" points="543.5743,-925.6938 547.9086,-922.6481 542.621,-922.3261 543.5743,-925.6938"/>
</g>
<!-- n26&#45;&gt;n17 -->
<g id="edge7" class="edge">
<title>n26&#45;&gt;n17</title>
<path fill="none" stroke="#000000" d="M382.5823,-964.6056C391.5047,-959.995 428.2511,-941.0069 453.0677,-928.1833"/>
<polygon fill="#000000" stroke="#000000" points="453.9147,-929.7155 457.5533,-925.8654 452.3079,-926.6061 453.9147,-929.7155"/>
</g>
<!-- n26&#45;&gt;n18 -->
<g id="edge8" class="edge">
<title>n26&#45;&gt;n18</title>
<path fill="none" stroke="#000000" d="M382.9453,-965.4187C406.1327,-963.2122 592.1149,-944.987 607.5772,-926.6417 635.0627,-894.0313 609.1363,-840.0179 593.4967,-813.7239"/>
<polygon fill="#000000" stroke="#000000" points="594.806,-812.5092 590.7113,-809.1482 591.8164,-814.3291 594.806,-812.5092"/>
</g>
<!-- n28&#45;&gt;n7 -->
<g id="edge17" class="edge">
<title>n28&#45;&gt;n7</title>
<path fill="none" stroke="#000000" d="M297.1958,-534.8839C298.6505,-516.8735 302.3136,-471.5218 304.2806,-447.1682"/>
<polygon fill="#000000" stroke="#000000" points="306.0378,-447.1486 304.6961,-442.0239 302.5492,-446.8667 306.0378,-447.1486"/>
<text text-anchor="middle" x="302.0772" y="-502.7361" font-family="Times,serif" font-size="14.00" fill="#000000">&#45;</text>
</g>
<!-- n29&#45;&gt;n6 -->
<g id="edge20" class="edge">
<title>n29&#45;&gt;n6</title>
<path fill="none" stroke="#000000" d="M305.0004,-113.186C258.4041,-99.9888 162.4332,-72.8076 115.146,-59.4148"/>
<polygon fill="#000000" stroke="#000000" points="115.4633,-57.6858 110.1756,-58.007 114.5095,-61.0534 115.4633,-57.6858"/>
<text text-anchor="middle" x="244.5772" y="-84.0132" font-family="Times,serif" font-size="14.00" fill="#000000">./</text>
</g>
<!-- n30&#45;&gt;n12 -->
<g id="edge23" class="edge">
<title>n30&#45;&gt;n12</title>
<path fill="none" stroke="#000000" d="M291.0566,-830.0888C291.8559,-817.5508 293.4784,-792.1013 294.5464,-775.3495"/>
<polygon fill="#000000" stroke="#000000" points="296.3136,-775.1343 294.8854,-770.0331 292.8207,-774.9116 296.3136,-775.1343"/>
<text text-anchor="middle" x="298.5772" y="-794.6955" font-family="Times,serif" font-size="14.00" fill="#000000">.&#45;</text>
</g>
<!-- n31&#45;&gt;n2 -->
<g id="edge26" class="edge">
<title>n31&#45;&gt;n2</title>
<path fill="none" stroke="#000000" d="M296.5772,-676.2028C296.5772,-665.2824 296.5772,-644.9828 296.5772,-630.7119"/>
<polygon fill="#000000" stroke="#000000" points="298.3273,-630.3834 296.5772,-625.3835 294.8273,-630.3835 298.3273,-630.3834"/>
<text text-anchor="middle" x="303.0772" y="-647.1625" font-family="Times,serif" font-size="14.00" fill="#000000">.*</text>
</g>
<!-- n32&#45;&gt;n15 -->
<g id="edge29" class="edge">
<title>n32&#45;&gt;n15</title>
<path fill="none" stroke="#000000" d="M134.5772,-830.0888C134.5772,-817.5508 134.5772,-792.1013 134.5772,-775.3495"/>
<polygon fill="#000000" stroke="#000000" points="136.3273,-775.033 134.5772,-770.0331 132.8273,-775.0331 136.3273,-775.033"/>
<text text-anchor="middle" x="141.0772" y="-794.6955" font-family="Times,serif" font-size="14.00" fill="#000000">.*</text>
</g>
<!-- n33&#45;&gt;n3 -->
<g id="edge32" class="edge">
<title>n33&#45;&gt;n3</title>
<path fill="none" stroke="#000000" d="M135.2422,-676.2028C136.1903,-665.2824 137.9528,-644.9828 139.1918,-630.7119"/>
<polygon fill="#000000" stroke="#000000" points="140.9653,-630.5161 139.6545,-625.3835 137.4784,-630.2133 140.9653,-630.5161"/>
<text text-anchor="middle" x="147.0772" y="-647.1625" font-family="Times,serif" font-size="14.00" fill="#000000">.+</text>
</g>
<!-- n34&#45;&gt;n20 -->
<g id="edge35" class="edge">
<title>n34&#45;&gt;n20</title>
<path fill="none" stroke="#000000" d="M475.0025,-829.89C471.1276,-810.8967 461.066,-761.5786 455.8383,-735.9539"/>
<polygon fill="#000000" stroke="#000000" points="457.5143,-735.4141 454.8,-730.8649 454.0849,-736.1138 457.5143,-735.4141"/>
<text text-anchor="middle" x="474.5772" y="-794.6955" font-family="Times,serif" font-size="14.00" fill="#000000">./</text>
</g>
<!-- n35&#45;&gt;n23 -->
<g id="edge38" class="edge">
<title>n35&#45;&gt;n23</title>
<path fill="none" stroke="#000000" d="M388.5772,-676.2028C388.5772,-665.2824 388.5772,-644.9828 388.5772,-630.7119"/>
<polygon fill="#000000" stroke="#000000" points="390.3273,-630.3834 388.5772,-625.3835 386.8273,-630.3835 390.3273,-630.3834"/>
<text text-anchor="middle" x="395.0772" y="-647.1625" font-family="Times,serif" font-size="14.00" fill="#000000">.*</text>
</g>
<!-- n36&#45;&gt;n4 -->
<g id="edge41" class="edge">
<title>n36&#45;&gt;n4</title>
<path fill="none" stroke="#000000" d="M388.023,-387.35C387.2329,-376.4296 385.7641,-356.13 384.7316,-341.859"/>
<polygon fill="#000000" stroke="#000000" points="386.4524,-341.3913 384.3461,-336.5306 382.9616,-341.6439 386.4524,-341.3913"/>
<text text-anchor="middle" x="393.0772" y="-358.3097" font-family="Times,serif" font-size="14.00" fill="#000000">.*</text>
</g>
<!-- n37&#45;&gt;n9 -->
<g id="edge44" class="edge">
<title>n37&#45;&gt;n9</title>
<path fill="none" stroke="#000000" d="M372.2895,-830.0888C371.8099,-817.5508 370.8364,-792.1013 370.1956,-775.3495"/>
<polygon fill="#000000" stroke="#000000" points="371.9322,-774.9625 369.9922,-770.0331 368.4347,-775.0964 371.9322,-774.9625"/>
<text text-anchor="middle" x="374.5772" y="-794.6955" font-family="Times,serif" font-size="14.00" fill="#000000">*</text>
</g>
<!-- n38&#45;&gt;n8 -->
<g id="edge45" class="edge">
<title>n38&#45;&gt;n8</title>
<path fill="none" stroke="#000000" d="M331.5772,-251.0976C331.5772,-238.2479 331.5772,-219.0831 331.5772,-205.6154"/>
<polygon fill="#000000" stroke="#000000" points="333.3273,-205.5814 331.5772,-200.5814 329.8273,-205.5815 333.3273,-205.5814"/>
<text text-anchor="middle" x="338.0772" y="-222.2264" font-family="Times,serif" font-size="14.00" fill="#000000">+</text>
</g>
</g>
</svg>
