<?xml version="1.0" encoding="UTF-8" standalone="no"?>
<!DOCTYPE svg PUBLIC "-//W3C//DTD SVG 1.1//EN"
 "http://www.w3.org/Graphics/SVG/1.1/DTD/svg11.dtd">
<!-- Generated by graphviz version 2.40.1 (0)
 -->
<!-- Title: G Pages: 1 -->
<svg width="433pt" height="623pt"
 viewBox="0.00 0.00 432.90 623.07" xmlns="http://www.w3.org/2000/svg" xmlns:xlink="http://www.w3.org/1999/xlink">
<g id="graph0" class="graph" transform="scale(1 1) rotate(0) translate(4 619.066)">
<title>G</title>
<polygon fill="#ffffff" stroke="transparent" points="-4,4 -4,-619.066 428.9031,-619.066 428.9031,4 -4,4"/>
<!-- n1 -->
<g id="node1" class="node">
<title>n1</title>
<ellipse fill="none" stroke="#000000" cx="398.7401" cy="-563.4594" rx="26.3269" ry="10.7143"/>
<text text-anchor="middle" x="398.7401" y="-559.7594" font-family="Times,serif" font-size="14.00" fill="#000000">Tₛ:Ω₀</text>
</g>
<!-- n12 -->
<g id="node12" class="node">
<title>n12</title>
<polygon fill="none" stroke="#000000" points="348.7401,-501.8528 296.7401,-501.8528 296.7401,-486.8528 348.7401,-486.8528 348.7401,-501.8528"/>
<text text-anchor="middle" x="322.7401" y="-490.6528" font-family="Times,serif" font-size="14.00" fill="#000000">ΩL×Ω₀</text>
</g>
<!-- n1&#45;&gt;n12 -->
<g id="edge3" class="edge">
<title>n1&#45;&gt;n12</title>
<path fill="none" stroke="#000000" stroke-dasharray="5,2" d="M387.8512,-553.5581C373.8948,-540.8677 349.7581,-518.9202 335.1186,-505.6085"/>
<polygon fill="#000000" stroke="#000000" points="336.1344,-504.1669 331.2577,-502.0978 333.7797,-506.7564 336.1344,-504.1669"/>
<text text-anchor="middle" x="372.7401" y="-523.6528" font-family="Times,serif" font-size="14.00" fill="#000000">π₂</text>
</g>
<!-- n2 -->
<g id="node2" class="node">
<title>n2</title>
<ellipse fill="none" stroke="#000000" cx="72.7401" cy="-10.6066" rx="24.0833" ry="10.7143"/>
<text text-anchor="middle" x="72.7401" y="-6.9066" font-family="Times,serif" font-size="14.00" fill="#000000">A:Ω₀</text>
</g>
<!-- n3 -->
<g id="node3" class="node">
<title>n3</title>
<ellipse fill="none" stroke="#000000" cx="159.7401" cy="-287.033" rx="53.9813" ry="10.7143"/>
<text text-anchor="middle" x="159.7401" y="-283.333" font-family="Times,serif" font-size="14.00" fill="#000000">5.8282:ΩL</text>
</g>
<!-- n14 -->
<g id="node14" class="node">
<title>n14</title>
<polygon fill="none" stroke="#000000" points="206.2401,-225.4264 151.2401,-225.4264 151.2401,-210.4264 206.2401,-210.4264 206.2401,-225.4264"/>
<text text-anchor="middle" x="178.7401" y="-214.2264" font-family="Times,serif" font-size="14.00" fill="#000000">ΩL×Ω•</text>
</g>
<!-- n3&#45;&gt;n14 -->
<g id="edge8" class="edge">
<title>n3&#45;&gt;n14</title>
<path fill="none" stroke="#000000" stroke-dasharray="5,2" d="M162.7089,-276.2351C166.1061,-263.8787 171.6631,-243.6667 175.2608,-230.5815"/>
<polygon fill="#000000" stroke="#000000" points="177.0324,-230.7386 176.6706,-225.4536 173.6577,-229.8107 177.0324,-230.7386"/>
<text text-anchor="middle" x="179.7401" y="-247.2264" font-family="Times,serif" font-size="14.00" fill="#000000">π₁</text>
</g>
<!-- n4 -->
<g id="node4" class="node">
<title>n4</title>
<ellipse fill="none" stroke="#000000" cx="261.7401" cy="-287.033" rx="30.3115" ry="10.7143"/>
<text text-anchor="middle" x="261.7401" y="-283.333" font-family="Times,serif" font-size="14.00" fill="#000000">•1:Ω•</text>
</g>
<!-- n4&#45;&gt;n14 -->
<g id="edge9" class="edge">
<title>n4&#45;&gt;n14</title>
<path fill="none" stroke="#000000" stroke-dasharray="5,2" d="M249.8482,-277.1317C234.6064,-264.4413 208.2466,-242.4938 192.2587,-229.1821"/>
<polygon fill="#000000" stroke="#000000" points="193.0045,-227.5259 188.0422,-225.6714 190.765,-230.2156 193.0045,-227.5259"/>
<text text-anchor="middle" x="233.7401" y="-247.2264" font-family="Times,serif" font-size="14.00" fill="#000000">π₂</text>
</g>
<!-- n5 -->
<g id="node5" class="node">
<title>n5</title>
<ellipse fill="none" stroke="#000000" cx="242.7401" cy="-425.2462" rx="31.6406" ry="10.7143"/>
<text text-anchor="middle" x="242.7401" y="-421.5462" font-family="Times,serif" font-size="14.00" fill="#000000">10:ΩL</text>
</g>
<!-- n13 -->
<g id="node13" class="node">
<title>n13</title>
<polygon fill="none" stroke="#000000" points="289.2401,-363.6396 234.2401,-363.6396 234.2401,-348.6396 289.2401,-348.6396 289.2401,-363.6396"/>
<text text-anchor="middle" x="261.7401" y="-352.4396" font-family="Times,serif" font-size="14.00" fill="#000000">ΩL×Ω•</text>
</g>
<!-- n5&#45;&gt;n13 -->
<g id="edge5" class="edge">
<title>n5&#45;&gt;n13</title>
<path fill="none" stroke="#000000" stroke-dasharray="5,2" d="M245.7089,-414.4483C249.1061,-402.0919 254.6631,-381.8799 258.2608,-368.7947"/>
<polygon fill="#000000" stroke="#000000" points="260.0324,-368.9518 259.6706,-363.6668 256.6577,-368.0239 260.0324,-368.9518"/>
<text text-anchor="middle" x="262.7401" y="-385.4396" font-family="Times,serif" font-size="14.00" fill="#000000">π₁</text>
</g>
<!-- n6 -->
<g id="node6" class="node">
<title>n6</title>
<ellipse fill="none" stroke="#000000" cx="322.7401" cy="-425.2462" rx="30.3115" ry="10.7143"/>
<text text-anchor="middle" x="322.7401" y="-421.5462" font-family="Times,serif" font-size="14.00" fill="#000000">•2:Ω•</text>
</g>
<!-- n6&#45;&gt;n13 -->
<g id="edge6" class="edge">
<title>n6&#45;&gt;n13</title>
<path fill="none" stroke="#000000" stroke-dasharray="5,2" d="M313.7394,-415.0493C302.5667,-402.3919 283.5628,-380.8625 271.8846,-367.6322"/>
<polygon fill="#000000" stroke="#000000" points="273.1331,-366.4022 268.5123,-363.8117 270.5091,-368.7184 273.1331,-366.4022"/>
<text text-anchor="middle" x="304.7401" y="-385.4396" font-family="Times,serif" font-size="14.00" fill="#000000">π₂</text>
</g>
<!-- n7 -->
<g id="node7" class="node">
<title>n7</title>
<ellipse fill="none" stroke="#000000" cx="303.7401" cy="-563.4594" rx="50.8235" ry="10.7143"/>
<text text-anchor="middle" x="303.7401" y="-559.7594" font-family="Times,serif" font-size="14.00" fill="#000000">&#45;0.236:ΩL</text>
</g>
<!-- n7&#45;&gt;n12 -->
<g id="edge2" class="edge">
<title>n7&#45;&gt;n12</title>
<path fill="none" stroke="#000000" stroke-dasharray="5,2" d="M306.7089,-552.6615C310.1061,-540.3051 315.6631,-520.0931 319.2608,-507.0079"/>
<polygon fill="#000000" stroke="#000000" points="321.0324,-507.165 320.6706,-501.88 317.6577,-506.2371 321.0324,-507.165"/>
<text text-anchor="middle" x="322.7401" y="-523.6528" font-family="Times,serif" font-size="14.00" fill="#000000">π₁</text>
</g>
<!-- n8 -->
<g id="node8" class="node">
<title>n8</title>
<ellipse fill="none" stroke="#000000" cx="53.7401" cy="-148.8198" rx="53.9813" ry="10.7143"/>
<text text-anchor="middle" x="53.7401" y="-145.1198" font-family="Times,serif" font-size="14.00" fill="#000000">1.65e7:ΩL</text>
</g>
<!-- n15 -->
<g id="node15" class="node">
<title>n15</title>
<polygon fill="none" stroke="#000000" points="100.2401,-87.2132 45.2401,-87.2132 45.2401,-72.2132 100.2401,-72.2132 100.2401,-87.2132"/>
<text text-anchor="middle" x="72.7401" y="-76.0132" font-family="Times,serif" font-size="14.00" fill="#000000">Ω•×ΩL</text>
</g>
<!-- n8&#45;&gt;n15 -->
<g id="edge12" class="edge">
<title>n8&#45;&gt;n15</title>
<path fill="none" stroke="#000000" stroke-dasharray="5,2" d="M56.7089,-138.0219C60.1061,-125.6655 65.6631,-105.4535 69.2608,-92.3683"/>
<polygon fill="#000000" stroke="#000000" points="71.0324,-92.5254 70.6706,-87.2404 67.6577,-91.5975 71.0324,-92.5254"/>
<text text-anchor="middle" x="73.7401" y="-109.0132" font-family="Times,serif" font-size="14.00" fill="#000000">π₂</text>
</g>
<!-- n9 -->
<g id="node9" class="node">
<title>n9</title>
<ellipse fill="none" stroke="#000000" cx="178.7401" cy="-148.8198" rx="53.066" ry="10.7143"/>
<text text-anchor="middle" x="178.7401" y="-145.1198" font-family="Times,serif" font-size="14.00" fill="#000000">mult_1:Ω•</text>
</g>
<!-- n9&#45;&gt;n15 -->
<g id="edge11" class="edge">
<title>n9&#45;&gt;n15</title>
<path fill="none" stroke="#000000" stroke-dasharray="5,2" d="M163.0995,-138.6229C143.1826,-125.6381 108.9444,-103.3165 88.8197,-90.1963"/>
<polygon fill="#000000" stroke="#000000" points="89.6524,-88.6501 84.5081,-87.3853 87.7408,-91.582 89.6524,-88.6501"/>
<text text-anchor="middle" x="140.7401" y="-109.0132" font-family="Times,serif" font-size="14.00" fill="#000000">π₁</text>
</g>
<!-- n10 -->
<g id="node10" class="node">
<title>n10</title>
</g>
<!-- n10&#45;&gt;n1 -->
<g id="edge1" class="edge">
<title>n10&#45;&gt;n1</title>
<path fill="none" stroke="#000000" d="M398.7401,-610.9345C398.7401,-605.5309 398.7401,-590.9021 398.7401,-579.298"/>
<polygon fill="#000000" stroke="#000000" points="400.4902,-579.2233 398.7401,-574.2233 396.9902,-579.2233 400.4902,-579.2233"/>
</g>
<!-- n11 -->
<g id="node11" class="node">
<title>n11</title>
</g>
<!-- n12&#45;&gt;n6 -->
<g id="edge4" class="edge">
<title>n12&#45;&gt;n6</title>
<path fill="none" stroke="#000000" d="M322.7401,-486.6932C322.7401,-475.7728 322.7401,-455.4732 322.7401,-441.2022"/>
<polygon fill="#000000" stroke="#000000" points="324.4902,-440.8738 322.7401,-435.8738 320.9902,-440.8738 324.4902,-440.8738"/>
<text text-anchor="middle" x="326.7401" y="-457.6528" font-family="Times,serif" font-size="14.00" fill="#000000">*</text>
</g>
<!-- n13&#45;&gt;n4 -->
<g id="edge7" class="edge">
<title>n13&#45;&gt;n4</title>
<path fill="none" stroke="#000000" d="M261.7401,-348.48C261.7401,-337.5595 261.7401,-317.26 261.7401,-302.989"/>
<polygon fill="#000000" stroke="#000000" points="263.4902,-302.6606 261.7401,-297.6606 259.9902,-302.6606 263.4902,-302.6606"/>
<text text-anchor="middle" x="268.2401" y="-319.4396" font-family="Times,serif" font-size="14.00" fill="#000000">^</text>
</g>
<!-- n14&#45;&gt;n9 -->
<g id="edge10" class="edge">
<title>n14&#45;&gt;n9</title>
<path fill="none" stroke="#000000" d="M178.7401,-210.2667C178.7401,-199.3463 178.7401,-179.0467 178.7401,-164.7758"/>
<polygon fill="#000000" stroke="#000000" points="180.4902,-164.4474 178.7401,-159.4474 176.9902,-164.4474 180.4902,-164.4474"/>
<text text-anchor="middle" x="182.7401" y="-181.2264" font-family="Times,serif" font-size="14.00" fill="#000000">*</text>
</g>
<!-- n15&#45;&gt;n2 -->
<g id="edge13" class="edge">
<title>n15&#45;&gt;n2</title>
<path fill="none" stroke="#000000" d="M72.7401,-72.0535C72.7401,-61.1331 72.7401,-40.8335 72.7401,-26.5626"/>
<polygon fill="#000000" stroke="#000000" points="74.4902,-26.2342 72.7401,-21.2342 70.9902,-26.2342 74.4902,-26.2342"/>
<text text-anchor="middle" x="76.7401" y="-43.0132" font-family="Times,serif" font-size="14.00" fill="#000000">*</text>
</g>
</g>
</svg>
