<?xml version="1.0" encoding="UTF-8" standalone="no"?>
<!DOCTYPE svg PUBLIC "-//W3C//DTD SVG 1.1//EN"
 "http://www.w3.org/Graphics/SVG/1.1/DTD/svg11.dtd">
<!-- Generated by graphviz version 2.43.0 (0)
 -->
<!-- Title: G Pages: 1 -->
<svg width="300pt" height="491pt"
 viewBox="0.00 0.00 299.62 491.07" xmlns="http://www.w3.org/2000/svg" xmlns:xlink="http://www.w3.org/1999/xlink">
<g id="graph0" class="graph" transform="scale(1 1) rotate(0) translate(4 487.07)">
<title>G</title>
<polygon fill="white" stroke="transparent" points="-4,4 -4,-487.07 295.62,-487.07 295.62,4 -4,4"/>
<!-- n1 -->
<g id="node1" class="node">
<title>n1</title>
<ellipse fill="none" stroke="black" cx="207.16" cy="-10.61" rx="21.84" ry="10.71"/>
<text text-anchor="middle" x="207.16" y="-6.91" font-family="Times,serif" font-size="14.00">b:Ω̃₀</text>
</g>
<!-- n2 -->
<g id="node2" class="node">
<title>n2</title>
<ellipse fill="none" stroke="black" cx="92.16" cy="-431.46" rx="21.84" ry="10.71"/>
<text text-anchor="middle" x="92.16" y="-427.76" font-family="Times,serif" font-size="14.00">T:Ω̃₀</text>
</g>
<!-- n12 -->
<g id="node12" class="node">
<title>n12</title>
<polygon fill="none" stroke="black" points="117.66,-363.64 66.66,-363.64 66.66,-348.64 117.66,-348.64 117.66,-363.64"/>
<text text-anchor="middle" x="92.16" y="-352.44" font-family="Times,serif" font-size="14.00">ΩC×Ω̃₀</text>
</g>
<!-- n2&#45;&gt;n12 -->
<g id="edge7" class="edge">
<title>n2&#45;&gt;n12</title>
<path fill="none" stroke="black" stroke-dasharray="5,2" d="M92.16,-420.57C92.16,-407.18 92.16,-383.32 92.16,-368.99"/>
<polygon fill="black" stroke="black" points="93.91,-368.83 92.16,-363.83 90.41,-368.83 93.91,-368.83"/>
<text text-anchor="middle" x="99.66" y="-388.55" font-family="Times,serif" font-size="14.00">π₂</text>
</g>
<!-- n3 -->
<g id="node3" class="node">
<title>n3</title>
<ellipse fill="none" stroke="black" cx="154.16" cy="-431.46" rx="21.84" ry="10.71"/>
<text text-anchor="middle" x="154.16" y="-427.76" font-family="Times,serif" font-size="14.00">S:Ω̃₀</text>
</g>
<!-- n13 -->
<g id="node13" class="node">
<title>n13</title>
<polygon fill="none" stroke="black" points="201.66,-363.64 150.66,-363.64 150.66,-348.64 201.66,-348.64 201.66,-363.64"/>
<text text-anchor="middle" x="176.16" y="-352.44" font-family="Times,serif" font-size="14.00">ΩC×Ω̃₀</text>
</g>
<!-- n3&#45;&gt;n13 -->
<g id="edge10" class="edge">
<title>n3&#45;&gt;n13</title>
<path fill="none" stroke="black" stroke-dasharray="5,2" d="M157.04,-420.87C161.06,-407.46 168.37,-383.12 172.69,-368.71"/>
<polygon fill="black" stroke="black" points="174.38,-369.19 174.14,-363.89 171.02,-368.18 174.38,-369.19"/>
<text text-anchor="middle" x="175.66" y="-388.55" font-family="Times,serif" font-size="14.00">π₂</text>
</g>
<!-- n4 -->
<g id="node4" class="node">
<title>n4</title>
<ellipse fill="none" stroke="black" cx="266.16" cy="-392.25" rx="25.41" ry="10.71"/>
<text text-anchor="middle" x="266.16" y="-388.55" font-family="Times,serif" font-size="14.00">g:ΩC</text>
</g>
<!-- n15 -->
<g id="node15" class="node">
<title>n15</title>
<polygon fill="none" stroke="black" points="234.16,-87.21 180.16,-87.21 180.16,-72.21 234.16,-72.21 234.16,-87.21"/>
<text text-anchor="middle" x="207.16" y="-76.01" font-family="Times,serif" font-size="14.00">ΩC×Ω•</text>
</g>
<!-- n4&#45;&gt;n15 -->
<g id="edge15" class="edge">
<title>n4&#45;&gt;n15</title>
<path fill="none" stroke="black" stroke-dasharray="5,2" d="M258.9,-381.84C250.02,-369.37 236.16,-346.34 236.16,-324.14 236.16,-324.14 236.16,-324.14 236.16,-147.82 236.16,-126.57 223.76,-104.41 215.17,-91.62"/>
<polygon fill="black" stroke="black" points="216.5,-90.46 212.21,-87.35 213.62,-92.46 216.5,-90.46"/>
<text text-anchor="middle" x="243.66" y="-247.23" font-family="Times,serif" font-size="14.00">π₁</text>
</g>
<!-- n5 -->
<g id="node5" class="node">
<title>n5</title>
<ellipse fill="none" stroke="black" cx="26.16" cy="-431.46" rx="26.33" ry="10.71"/>
<text text-anchor="middle" x="26.16" y="-427.76" font-family="Times,serif" font-size="14.00">α:ΩC</text>
</g>
<!-- n5&#45;&gt;n12 -->
<g id="edge6" class="edge">
<title>n5&#45;&gt;n12</title>
<path fill="none" stroke="black" stroke-dasharray="5,2" d="M34.52,-421.17C46.82,-407.51 69.74,-382.05 82.66,-367.69"/>
<polygon fill="black" stroke="black" points="83.98,-368.84 86.03,-363.96 81.38,-366.5 83.98,-368.84"/>
<text text-anchor="middle" x="76.66" y="-388.55" font-family="Times,serif" font-size="14.00">π₁</text>
</g>
<!-- n6 -->
<g id="node6" class="node">
<title>n6</title>
<ellipse fill="none" stroke="black" cx="219.16" cy="-431.46" rx="25" ry="10.71"/>
<text text-anchor="middle" x="219.16" y="-427.76" font-family="Times,serif" font-size="14.00">β:ΩC</text>
</g>
<!-- n6&#45;&gt;n13 -->
<g id="edge9" class="edge">
<title>n6&#45;&gt;n13</title>
<path fill="none" stroke="black" stroke-dasharray="5,2" d="M213.54,-420.87C205.61,-407.34 191.15,-382.69 182.73,-368.34"/>
<polygon fill="black" stroke="black" points="184.16,-367.32 180.12,-363.89 181.14,-369.09 184.16,-367.32"/>
<text text-anchor="middle" x="209.66" y="-388.55" font-family="Times,serif" font-size="14.00">π₁</text>
</g>
<!-- n7 -->
<g id="node7" class="node">
<title>n7</title>
<ellipse fill="none" stroke="black" cx="176.16" cy="-287.03" rx="29.9" ry="10.71"/>
<text text-anchor="middle" x="176.16" y="-283.33" font-family="Times,serif" font-size="14.00">•1:Ω•</text>
</g>
<!-- n14 -->
<g id="node14" class="node">
<title>n14</title>
<polygon fill="none" stroke="black" points="202.16,-225.43 150.16,-225.43 150.16,-210.43 202.16,-210.43 202.16,-225.43"/>
<text text-anchor="middle" x="176.16" y="-214.23" font-family="Times,serif" font-size="14.00">Ω•×Ω•</text>
</g>
<!-- n7&#45;&gt;n14 -->
<g id="edge13" class="edge">
<title>n7&#45;&gt;n14</title>
<path fill="none" stroke="black" stroke-dasharray="5,2" d="M176.16,-276.42C176.16,-264.37 176.16,-243.72 176.16,-230.73"/>
<polygon fill="black" stroke="black" points="177.91,-230.67 176.16,-225.67 174.41,-230.67 177.91,-230.67"/>
<text text-anchor="middle" x="183.66" y="-247.23" font-family="Times,serif" font-size="14.00">π₂</text>
</g>
<!-- n8 -->
<g id="node8" class="node">
<title>n8</title>
<ellipse fill="none" stroke="black" cx="178.16" cy="-148.82" rx="29.9" ry="10.71"/>
<text text-anchor="middle" x="178.16" y="-145.12" font-family="Times,serif" font-size="14.00">•2:Ω•</text>
</g>
<!-- n8&#45;&gt;n15 -->
<g id="edge16" class="edge">
<title>n8&#45;&gt;n15</title>
<path fill="none" stroke="black" stroke-dasharray="5,2" d="M182.32,-138.21C187.57,-126.05 196.61,-105.14 202.21,-92.17"/>
<polygon fill="black" stroke="black" points="203.87,-92.74 204.25,-87.46 200.66,-91.36 203.87,-92.74"/>
<text text-anchor="middle" x="202.66" y="-109.01" font-family="Times,serif" font-size="14.00">π₂</text>
</g>
<!-- n9 -->
<g id="node9" class="node">
<title>n9</title>
<ellipse fill="none" stroke="black" cx="99.16" cy="-287.03" rx="29.9" ry="10.71"/>
<text text-anchor="middle" x="99.16" y="-283.33" font-family="Times,serif" font-size="14.00">•3:Ω•</text>
</g>
<!-- n9&#45;&gt;n14 -->
<g id="edge12" class="edge">
<title>n9&#45;&gt;n14</title>
<path fill="none" stroke="black" stroke-dasharray="5,2" d="M109.55,-276.98C123.81,-264.56 149.38,-242.27 164.35,-229.22"/>
<polygon fill="black" stroke="black" points="165.65,-230.41 168.27,-225.8 163.35,-227.77 165.65,-230.41"/>
<text text-anchor="middle" x="153.66" y="-247.23" font-family="Times,serif" font-size="14.00">π₁</text>
</g>
<!-- n10 -->
<g id="node10" class="node">
<title>n10</title>
</g>
<!-- n10&#45;&gt;n2 -->
<g id="edge1" class="edge">
<title>n10&#45;&gt;n2</title>
<path fill="none" stroke="black" d="M152.63,-478.89C146.46,-474.15 123.01,-456.15 107.19,-444"/>
<polygon fill="black" stroke="black" points="107.99,-442.4 102.95,-440.75 105.85,-445.18 107.99,-442.4"/>
</g>
<!-- n10&#45;&gt;n3 -->
<g id="edge2" class="edge">
<title>n10&#45;&gt;n3</title>
<path fill="none" stroke="black" d="M154.16,-478.89C154.16,-474.57 154.16,-459.21 154.16,-447.33"/>
<polygon fill="black" stroke="black" points="155.91,-447.17 154.16,-442.17 152.41,-447.17 155.91,-447.17"/>
</g>
<!-- n10&#45;&gt;n4 -->
<g id="edge3" class="edge">
<title>n10&#45;&gt;n4</title>
<path fill="none" stroke="black" d="M156.45,-479.92C168.5,-479.04 225.1,-473.28 253.16,-442.07 261.45,-432.85 264.55,-418.92 265.66,-408.3"/>
<polygon fill="black" stroke="black" points="267.43,-408.21 266.08,-403.09 263.94,-407.93 267.43,-408.21"/>
</g>
<!-- n10&#45;&gt;n5 -->
<g id="edge4" class="edge">
<title>n10&#45;&gt;n5</title>
<path fill="none" stroke="black" d="M151.94,-479.24C139.97,-474.79 82.44,-453.39 49.48,-441.13"/>
<polygon fill="black" stroke="black" points="49.71,-439.35 44.42,-439.25 48.49,-442.63 49.71,-439.35"/>
</g>
<!-- n10&#45;&gt;n6 -->
<g id="edge5" class="edge">
<title>n10&#45;&gt;n6</title>
<path fill="none" stroke="black" d="M155.77,-478.89C162.2,-474.18 186.55,-456.34 203.13,-444.2"/>
<polygon fill="black" stroke="black" points="204.58,-445.31 207.58,-440.94 202.51,-442.49 204.58,-445.31"/>
</g>
<!-- n11 -->
<g id="node11" class="node">
<title>n11</title>
</g>
<!-- n12&#45;&gt;n9 -->
<g id="edge8" class="edge">
<title>n12&#45;&gt;n9</title>
<path fill="none" stroke="black" d="M92.86,-348.46C93.96,-337.92 96.12,-317.19 97.6,-302.97"/>
<polygon fill="black" stroke="black" points="99.38,-302.85 98.16,-297.69 95.9,-302.48 99.38,-302.85"/>
<text text-anchor="middle" x="99.66" y="-319.44" font-family="Times,serif" font-size="14.00">*</text>
</g>
<!-- n13&#45;&gt;n7 -->
<g id="edge11" class="edge">
<title>n13&#45;&gt;n7</title>
<path fill="none" stroke="black" d="M176.16,-348.46C176.16,-337.92 176.16,-317.19 176.16,-302.97"/>
<polygon fill="black" stroke="black" points="177.91,-302.69 176.16,-297.69 174.41,-302.69 177.91,-302.69"/>
<text text-anchor="middle" x="179.66" y="-319.44" font-family="Times,serif" font-size="14.00">*</text>
</g>
<!-- n14&#45;&gt;n8 -->
<g id="edge14" class="edge">
<title>n14&#45;&gt;n8</title>
<path fill="none" stroke="black" d="M176.36,-210.25C176.68,-199.71 177.29,-178.97 177.72,-164.76"/>
<polygon fill="black" stroke="black" points="179.48,-164.53 177.88,-159.48 175.98,-164.42 179.48,-164.53"/>
<text text-anchor="middle" x="179.66" y="-181.23" font-family="Times,serif" font-size="14.00">&#45;</text>
</g>
<!-- n15&#45;&gt;n1 -->
<g id="edge17" class="edge">
<title>n15&#45;&gt;n1</title>
<path fill="none" stroke="black" d="M207.16,-72.03C207.16,-61.5 207.16,-40.76 207.16,-26.54"/>
<polygon fill="black" stroke="black" points="208.91,-26.27 207.16,-21.27 205.41,-26.27 208.91,-26.27"/>
<text text-anchor="middle" x="210.66" y="-43.01" font-family="Times,serif" font-size="14.00">*</text>
</g>
</g>
</svg>
