<?xml version="1.0" encoding="UTF-8" standalone="no"?>
<!DOCTYPE svg PUBLIC "-//W3C//DTD SVG 1.1//EN"
 "http://www.w3.org/Graphics/SVG/1.1/DTD/svg11.dtd">
<!-- Generated by graphviz version 2.43.0 (0)
 -->
<!-- Title: G Pages: 1 -->
<svg width="520pt" height="1218pt"
 viewBox="0.00 0.00 520.08 1218.15" xmlns="http://www.w3.org/2000/svg" xmlns:xlink="http://www.w3.org/1999/xlink">
<g id="graph0" class="graph" transform="scale(1 1) rotate(0) translate(4 1214.15)">
<title>G</title>
<polygon fill="white" stroke="transparent" points="-4,4 -4,-1214.15 516.08,-1214.15 516.08,4 -4,4"/>
<!-- n1 -->
<g id="node1" class="node">
<title>n1</title>
<ellipse fill="none" stroke="black" cx="66.04" cy="-767.53" rx="21.84" ry="10.71"/>
<text text-anchor="middle" x="66.04" y="-763.83" font-family="Times,serif" font-size="14.00">h:Ω₀</text>
</g>
<!-- n4 -->
<g id="node4" class="node">
<title>n4</title>
<ellipse fill="none" stroke="black" cx="24.04" cy="-51.61" rx="24.08" ry="10.71"/>
<text text-anchor="middle" x="24.04" y="-47.91" font-family="Times,serif" font-size="14.00">ḣ:Ω•</text>
</g>
<!-- n1&#45;&gt;n4 -->
<g id="edge7" class="edge">
<title>n1&#45;&gt;n4</title>
<path fill="none" stroke="black" d="M53.17,-758.78C36.08,-747.41 8.04,-724.46 8.04,-696.31 8.04,-696.31 8.04,-696.31 8.04,-122.82 8.04,-103.22 14.04,-81.3 18.69,-67.25"/>
<polygon fill="black" stroke="black" points="20.37,-67.74 20.33,-62.44 17.06,-66.61 20.37,-67.74"/>
<text text-anchor="middle" x="14.04" y="-396.55" font-family="Times,serif" font-size="14.00">∂ₜ</text>
</g>
<!-- n10 -->
<g id="node10" class="node">
<title>n10</title>
<ellipse fill="none" stroke="black" cx="189.04" cy="-656.1" rx="29.9" ry="10.71"/>
<text text-anchor="middle" x="189.04" y="-652.4" font-family="Times,serif" font-size="14.00">•4:Ω•</text>
</g>
<!-- n1&#45;&gt;n10 -->
<g id="edge8" class="edge">
<title>n1&#45;&gt;n10</title>
<path fill="none" stroke="black" d="M83.52,-761C102.23,-754.9 130.52,-745.15 140.04,-738.92 157.14,-727.74 161.32,-723.31 172.04,-705.92 178.54,-695.38 182.97,-682.02 185.68,-671.94"/>
<polygon fill="black" stroke="black" points="187.4,-672.28 186.94,-667.01 184,-671.42 187.4,-672.28"/>
<text text-anchor="middle" x="164.04" y="-727.72" font-family="Times,serif" font-size="14.00">d</text>
</g>
<!-- n14 -->
<g id="node14" class="node">
<title>n14</title>
<ellipse fill="none" stroke="black" cx="133.04" cy="-695.31" rx="29.9" ry="10.71"/>
<text text-anchor="middle" x="133.04" y="-691.61" font-family="Times,serif" font-size="14.00">•8:Ω•</text>
</g>
<!-- n1&#45;&gt;n14 -->
<g id="edge9" class="edge">
<title>n1&#45;&gt;n14</title>
<path fill="none" stroke="black" d="M72.58,-757.28C79.09,-748.34 89.59,-734.61 100.04,-723.92 105.28,-718.55 111.49,-713.15 117.1,-708.57"/>
<polygon fill="black" stroke="black" points="118.44,-709.73 121.24,-705.23 116.25,-707 118.44,-709.73"/>
<text text-anchor="middle" x="105.04" y="-727.72" font-family="Times,serif" font-size="14.00">d</text>
</g>
<!-- n33 -->
<g id="node33" class="node">
<title>n33</title>
<polygon fill="none" stroke="black" points="85.54,-702.81 36.54,-702.81 36.54,-687.81 85.54,-687.81 85.54,-702.81"/>
<text text-anchor="middle" x="61.04" y="-691.61" font-family="Times,serif" font-size="14.00">Ω₀×Ω•</text>
</g>
<!-- n1&#45;&gt;n33 -->
<g id="edge25" class="edge">
<title>n1&#45;&gt;n33</title>
<path fill="none" stroke="black" stroke-dasharray="5,2" d="M64.35,-756.85C63.5,-751.57 62.54,-744.9 62.04,-738.92 61.18,-728.61 60.96,-716.86 60.94,-708.32"/>
<polygon fill="black" stroke="black" points="62.69,-707.97 60.95,-702.97 59.19,-707.96 62.69,-707.97"/>
<text text-anchor="middle" x="69.54" y="-727.72" font-family="Times,serif" font-size="14.00">π₁</text>
</g>
<!-- n2 -->
<g id="node2" class="node">
<title>n2</title>
<ellipse fill="none" stroke="black" cx="297.04" cy="-538.46" rx="21.84" ry="10.71"/>
<text text-anchor="middle" x="297.04" y="-534.76" font-family="Times,serif" font-size="14.00">Γ:Ω₁</text>
</g>
<!-- n29 -->
<g id="node29" class="node">
<title>n29</title>
<polygon fill="none" stroke="black" points="231.54,-476.85 182.54,-476.85 182.54,-461.85 231.54,-461.85 231.54,-476.85"/>
<text text-anchor="middle" x="207.04" y="-465.65" font-family="Times,serif" font-size="14.00">Ω₁×Ω•</text>
</g>
<!-- n2&#45;&gt;n29 -->
<g id="edge13" class="edge">
<title>n2&#45;&gt;n29</title>
<path fill="none" stroke="black" stroke-dasharray="5,2" d="M288.05,-528.78C278.52,-519.79 262.83,-505.57 248.04,-494.85 240.37,-489.29 231.38,-483.81 223.77,-479.45"/>
<polygon fill="black" stroke="black" points="224.45,-477.83 219.24,-476.89 222.73,-480.87 224.45,-477.83"/>
<text text-anchor="middle" x="273.54" y="-498.65" font-family="Times,serif" font-size="14.00">π₁</text>
</g>
<!-- n3 -->
<g id="node3" class="node">
<title>n3</title>
<ellipse fill="none" stroke="black" cx="227.04" cy="-1158.54" rx="25.41" ry="10.71"/>
<text text-anchor="middle" x="227.04" y="-1154.84" font-family="Times,serif" font-size="14.00">n:ΩC</text>
</g>
<!-- n30 -->
<g id="node30" class="node">
<title>n30</title>
<polygon fill="none" stroke="black" points="253.54,-1084.79 198.54,-1084.79 198.54,-1069.79 253.54,-1069.79 253.54,-1084.79"/>
<text text-anchor="middle" x="226.04" y="-1073.59" font-family="Times,serif" font-size="14.00">ΩC×ΩL</text>
</g>
<!-- n3&#45;&gt;n30 -->
<g id="edge16" class="edge">
<title>n3&#45;&gt;n30</title>
<path fill="none" stroke="black" stroke-dasharray="5,2" d="M226.92,-1147.83C226.74,-1133.25 226.39,-1105.76 226.19,-1090.06"/>
<polygon fill="black" stroke="black" points="227.94,-1089.84 226.12,-1084.86 224.44,-1089.88 227.94,-1089.84"/>
<text text-anchor="middle" x="233.54" y="-1115.63" font-family="Times,serif" font-size="14.00">π₁</text>
</g>
<!-- n37 -->
<g id="node37" class="node">
<title>n37</title>
<polygon fill="none" stroke="black" points="338.04,-931.32 284.04,-931.32 284.04,-916.32 338.04,-916.32 338.04,-931.32"/>
<text text-anchor="middle" x="311.04" y="-920.12" font-family="Times,serif" font-size="14.00">Ω•×ΩC</text>
</g>
<!-- n3&#45;&gt;n37 -->
<g id="edge38" class="edge">
<title>n3&#45;&gt;n37</title>
<path fill="none" stroke="black" stroke-dasharray="5,2" d="M233.73,-1148.05C237.28,-1142.82 241.61,-1136.15 245.04,-1129.94 254.3,-1113.15 256.36,-1108.7 263.04,-1090.72 284.1,-1034.08 301.76,-963.79 308.31,-936.45"/>
<polygon fill="black" stroke="black" points="310.02,-936.84 309.47,-931.58 306.61,-936.03 310.02,-936.84"/>
<text text-anchor="middle" x="289.54" y="-1034.65" font-family="Times,serif" font-size="14.00">π₂</text>
</g>
<!-- n40 -->
<g id="node40" class="node">
<title>n40</title>
<ellipse fill="none" stroke="black" cx="132.04" cy="-848.78" rx="13.37" ry="13.37"/>
<text text-anchor="middle" x="132.04" y="-845.08" font-family="Times,serif" font-size="14.00">Σ1</text>
</g>
<!-- n3&#45;&gt;n40 -->
<g id="edge48" class="edge">
<title>n3&#45;&gt;n40</title>
<path fill="none" stroke="black" stroke-dasharray="5,2" d="M215.23,-1149.02C198.54,-1135.88 170.04,-1108.97 170.04,-1078.29 170.04,-1078.29 170.04,-1078.29 170.04,-922.82 170.04,-900.02 155.29,-877.28 144.17,-863.37"/>
<polygon fill="black" stroke="black" points="145.39,-862.1 140.86,-859.35 142.68,-864.32 145.39,-862.1"/>
</g>
<!-- n41 -->
<g id="node41" class="node">
<title>n41</title>
<ellipse fill="none" stroke="black" cx="450.04" cy="-1077.29" rx="13.37" ry="13.37"/>
<text text-anchor="middle" x="450.04" y="-1073.59" font-family="Times,serif" font-size="14.00">Σ2</text>
</g>
<!-- n3&#45;&gt;n41 -->
<g id="edge50" class="edge">
<title>n3&#45;&gt;n41</title>
<path fill="none" stroke="black" stroke-dasharray="5,2" d="M246.94,-1151.71C251.86,-1150.37 257.12,-1149.02 262.04,-1147.94 309.13,-1137.54 324.77,-1149.05 369.04,-1129.94 383.38,-1123.75 384.02,-1117.34 397.04,-1108.72 409.01,-1100.8 423.13,-1092.75 433.78,-1086.92"/>
<polygon fill="black" stroke="black" points="434.86,-1088.33 438.42,-1084.41 433.19,-1085.26 434.86,-1088.33"/>
</g>
<!-- n28 -->
<g id="node28" class="node">
<title>n28</title>
</g>
<!-- n4&#45;&gt;n28 -->
<g id="edge6" class="edge">
<title>n4&#45;&gt;n28</title>
<path fill="none" stroke="black" d="M24.04,-40.97C24.04,-31.46 24.04,-17.21 24.04,-9.14"/>
<polygon fill="black" stroke="black" points="25.79,-9.06 24.04,-4.06 22.29,-9.06 25.79,-9.06"/>
</g>
<!-- n5 -->
<g id="node5" class="node">
<title>n5</title>
<ellipse fill="none" stroke="black" cx="118.04" cy="-923.82" rx="24.08" ry="10.71"/>
<text text-anchor="middle" x="118.04" y="-920.12" font-family="Times,serif" font-size="14.00">2:ΩL</text>
</g>
<!-- n5&#45;&gt;n40 -->
<g id="edge49" class="edge">
<title>n5&#45;&gt;n40</title>
<path fill="none" stroke="black" stroke-dasharray="5,2" d="M119.93,-912.97C122.18,-901.25 125.97,-881.47 128.71,-867.15"/>
<polygon fill="black" stroke="black" points="130.45,-867.39 129.67,-862.15 127.01,-866.74 130.45,-867.39"/>
</g>
<!-- n6 -->
<g id="node6" class="node">
<title>n6</title>
<ellipse fill="none" stroke="black" cx="132.04" cy="-767.53" rx="24.08" ry="10.71"/>
<text text-anchor="middle" x="132.04" y="-763.83" font-family="Times,serif" font-size="14.00">1:Ω•</text>
</g>
<!-- n6&#45;&gt;n33 -->
<g id="edge26" class="edge">
<title>n6&#45;&gt;n33</title>
<path fill="none" stroke="black" stroke-dasharray="5,2" d="M128.85,-756.74C125.41,-747.4 119.17,-733.39 110.04,-723.92 102.42,-716.02 92.05,-709.73 82.81,-705.17"/>
<polygon fill="black" stroke="black" points="83.36,-703.5 78.1,-702.94 81.87,-706.66 83.36,-703.5"/>
<text text-anchor="middle" x="128.54" y="-727.72" font-family="Times,serif" font-size="14.00">π₂</text>
</g>
<!-- n7 -->
<g id="node7" class="node">
<title>n7</title>
<ellipse fill="none" stroke="black" cx="66.04" cy="-123.82" rx="29.9" ry="10.71"/>
<text text-anchor="middle" x="66.04" y="-120.12" font-family="Times,serif" font-size="14.00">•1:Ω•</text>
</g>
<!-- n7&#45;&gt;n4 -->
<g id="edge12" class="edge">
<title>n7&#45;&gt;n4</title>
<path fill="none" stroke="black" d="M60.38,-113.35C53.14,-101.24 40.54,-80.19 32.25,-66.33"/>
<polygon fill="black" stroke="black" points="33.68,-65.32 29.62,-61.93 30.68,-67.12 33.68,-65.32"/>
<text text-anchor="middle" x="67.54" y="-84.01" font-family="Times,serif" font-size="14.00">⋆⋅d⋅⋆</text>
</g>
<!-- n8 -->
<g id="node8" class="node">
<title>n8</title>
<ellipse fill="none" stroke="black" cx="125.04" cy="-262.03" rx="29.9" ry="10.71"/>
<text text-anchor="middle" x="125.04" y="-258.33" font-family="Times,serif" font-size="14.00">•2:Ω•</text>
</g>
<!-- n34 -->
<g id="node34" class="node">
<title>n34</title>
<polygon fill="none" stroke="black" points="92.04,-200.43 40.04,-200.43 40.04,-185.43 92.04,-185.43 92.04,-200.43"/>
<text text-anchor="middle" x="66.04" y="-189.23" font-family="Times,serif" font-size="14.00">Ω•×Ω•</text>
</g>
<!-- n8&#45;&gt;n34 -->
<g id="edge28" class="edge">
<title>n8&#45;&gt;n34</title>
<path fill="none" stroke="black" stroke-dasharray="5,2" d="M116.84,-251.7C106.03,-239.41 87.05,-217.82 75.6,-204.8"/>
<polygon fill="black" stroke="black" points="76.65,-203.34 72.03,-200.74 74.02,-205.65 76.65,-203.34"/>
<text text-anchor="middle" x="107.54" y="-222.23" font-family="Times,serif" font-size="14.00">π₁</text>
</g>
<!-- n9 -->
<g id="node9" class="node">
<title>n9</title>
<ellipse fill="none" stroke="black" cx="207.04" cy="-400.25" rx="29.9" ry="10.71"/>
<text text-anchor="middle" x="207.04" y="-396.55" font-family="Times,serif" font-size="14.00">•3:Ω•</text>
</g>
<!-- n32 -->
<g id="node32" class="node">
<title>n32</title>
<polygon fill="none" stroke="black" points="156.04,-338.64 104.04,-338.64 104.04,-323.64 156.04,-323.64 156.04,-338.64"/>
<text text-anchor="middle" x="130.04" y="-327.44" font-family="Times,serif" font-size="14.00">Ω•×Ω•</text>
</g>
<!-- n9&#45;&gt;n32 -->
<g id="edge22" class="edge">
<title>n9&#45;&gt;n32</title>
<path fill="none" stroke="black" stroke-dasharray="5,2" d="M196.66,-390.2C182.4,-377.77 156.83,-355.48 141.86,-342.44"/>
<polygon fill="black" stroke="black" points="142.85,-340.98 137.93,-339.02 140.55,-343.62 142.85,-340.98"/>
<text text-anchor="middle" x="180.54" y="-360.44" font-family="Times,serif" font-size="14.00">π₁</text>
</g>
<!-- n10&#45;&gt;n29 -->
<g id="edge14" class="edge">
<title>n10&#45;&gt;n29</title>
<path fill="none" stroke="black" stroke-dasharray="5,2" d="M189.98,-645.43C193.02,-614.26 202.54,-516.54 205.87,-482.33"/>
<polygon fill="black" stroke="black" points="207.65,-482.2 206.39,-477.05 204.16,-481.86 207.65,-482.2"/>
<text text-anchor="middle" x="204.54" y="-573.97" font-family="Times,serif" font-size="14.00">π₂</text>
</g>
<!-- n11 -->
<g id="node11" class="node">
<title>n11</title>
<ellipse fill="none" stroke="black" cx="130.04" cy="-400.25" rx="29.9" ry="10.71"/>
<text text-anchor="middle" x="130.04" y="-396.55" font-family="Times,serif" font-size="14.00">•5:Ω•</text>
</g>
<!-- n11&#45;&gt;n32 -->
<g id="edge23" class="edge">
<title>n11&#45;&gt;n32</title>
<path fill="none" stroke="black" stroke-dasharray="5,2" d="M130.04,-389.63C130.04,-377.58 130.04,-356.94 130.04,-343.94"/>
<polygon fill="black" stroke="black" points="131.79,-343.89 130.04,-338.89 128.29,-343.89 131.79,-343.89"/>
<text text-anchor="middle" x="137.54" y="-360.44" font-family="Times,serif" font-size="14.00">π₂</text>
</g>
<!-- n12 -->
<g id="node12" class="node">
<title>n12</title>
<ellipse fill="none" stroke="black" cx="133.04" cy="-538.46" rx="29.9" ry="10.71"/>
<text text-anchor="middle" x="133.04" y="-534.76" font-family="Times,serif" font-size="14.00">•6:Ω•</text>
</g>
<!-- n31 -->
<g id="node31" class="node">
<title>n31</title>
<polygon fill="none" stroke="black" points="159.04,-476.85 107.04,-476.85 107.04,-461.85 159.04,-461.85 159.04,-476.85"/>
<text text-anchor="middle" x="133.04" y="-465.65" font-family="Times,serif" font-size="14.00">Ω•×Ω•</text>
</g>
<!-- n12&#45;&gt;n31 -->
<g id="edge19" class="edge">
<title>n12&#45;&gt;n31</title>
<path fill="none" stroke="black" stroke-dasharray="5,2" d="M133.04,-527.84C133.04,-515.79 133.04,-495.15 133.04,-482.15"/>
<polygon fill="black" stroke="black" points="134.79,-482.1 133.04,-477.1 131.29,-482.1 134.79,-482.1"/>
<text text-anchor="middle" x="140.54" y="-498.65" font-family="Times,serif" font-size="14.00">π₁</text>
</g>
<!-- n13 -->
<g id="node13" class="node">
<title>n13</title>
<ellipse fill="none" stroke="black" cx="133.04" cy="-616.89" rx="29.9" ry="10.71"/>
<text text-anchor="middle" x="133.04" y="-613.19" font-family="Times,serif" font-size="14.00">•7:Ω•</text>
</g>
<!-- n13&#45;&gt;n12 -->
<g id="edge11" class="edge">
<title>n13&#45;&gt;n12</title>
<path fill="none" stroke="black" d="M133.04,-606.21C133.04,-593.18 133.04,-569.89 133.04,-554.56"/>
<polygon fill="black" stroke="black" points="134.79,-554.3 133.04,-549.3 131.29,-554.3 134.79,-554.3"/>
<text text-anchor="middle" x="148.54" y="-573.97" font-family="Times,serif" font-size="14.00">mag</text>
</g>
<!-- n14&#45;&gt;n13 -->
<g id="edge10" class="edge">
<title>n14&#45;&gt;n13</title>
<path fill="none" stroke="black" d="M133.04,-684.63C133.04,-671.61 133.04,-648.32 133.04,-632.98"/>
<polygon fill="black" stroke="black" points="134.79,-632.73 133.04,-627.73 131.29,-632.73 134.79,-632.73"/>
<text text-anchor="middle" x="136.54" y="-652.4" font-family="Times,serif" font-size="14.00">♯</text>
</g>
<!-- n15 -->
<g id="node15" class="node">
<title>n15</title>
<ellipse fill="none" stroke="black" cx="234.04" cy="-963.04" rx="29.9" ry="10.71"/>
<text text-anchor="middle" x="234.04" y="-959.34" font-family="Times,serif" font-size="14.00">•9:Ω•</text>
</g>
<!-- n15&#45;&gt;n31 -->
<g id="edge20" class="edge">
<title>n15&#45;&gt;n31</title>
<path fill="none" stroke="black" stroke-dasharray="5,2" d="M234.04,-952.07C234.04,-937.97 234.04,-911.37 234.04,-888.72 234.04,-888.72 234.04,-888.72 234.04,-537.46 234.04,-503.43 193.77,-485.62 164.09,-477.11"/>
<polygon fill="black" stroke="black" points="164.34,-475.37 159.05,-475.73 163.41,-478.74 164.34,-475.37"/>
<text text-anchor="middle" x="241.54" y="-727.72" font-family="Times,serif" font-size="14.00">π₂</text>
</g>
<!-- n16 -->
<g id="node16" class="node">
<title>n16</title>
<ellipse fill="none" stroke="black" cx="140.04" cy="-1158.54" rx="24.08" ry="10.71"/>
<text text-anchor="middle" x="140.04" y="-1154.84" font-family="Times,serif" font-size="14.00">1:ΩL</text>
</g>
<!-- n16&#45;&gt;n30 -->
<g id="edge17" class="edge">
<title>n16&#45;&gt;n30</title>
<path fill="none" stroke="black" stroke-dasharray="5,2" d="M149.57,-1148.76C165.54,-1134.05 197.61,-1104.49 214.71,-1088.74"/>
<polygon fill="black" stroke="black" points="216.22,-1089.72 218.71,-1085.05 213.85,-1087.15 216.22,-1089.72"/>
<text text-anchor="middle" x="197.54" y="-1115.63" font-family="Times,serif" font-size="14.00">π₂</text>
</g>
<!-- n17 -->
<g id="node17" class="node">
<title>n17</title>
<ellipse fill="none" stroke="black" cx="63.04" cy="-577.67" rx="36.12" ry="10.71"/>
<text text-anchor="middle" x="63.04" y="-573.97" font-family="Times,serif" font-size="14.00">•10:Ω•</text>
</g>
<!-- n17&#45;&gt;n34 -->
<g id="edge29" class="edge">
<title>n17&#45;&gt;n34</title>
<path fill="none" stroke="black" stroke-dasharray="5,2" d="M63.49,-566.71C64.07,-552.61 65.04,-526.02 65.04,-503.35 65.04,-503.35 65.04,-503.35 65.04,-261.03 65.04,-241.66 65.46,-219.15 65.76,-205.74"/>
<polygon fill="black" stroke="black" points="67.51,-205.63 65.88,-200.59 64.01,-205.55 67.51,-205.63"/>
<text text-anchor="middle" x="72.54" y="-396.55" font-family="Times,serif" font-size="14.00">π₂</text>
</g>
<!-- n18 -->
<g id="node18" class="node">
<title>n18</title>
<ellipse fill="none" stroke="black" cx="420.04" cy="-1119.33" rx="21.84" ry="10.71"/>
<text text-anchor="middle" x="420.04" y="-1115.63" font-family="Times,serif" font-size="14.00">A:Ω₁</text>
</g>
<!-- n38 -->
<g id="node38" class="node">
<title>n38</title>
<polygon fill="none" stroke="black" points="422.54,-775.03 373.54,-775.03 373.54,-760.03 422.54,-760.03 422.54,-775.03"/>
<text text-anchor="middle" x="398.04" y="-763.83" font-family="Times,serif" font-size="14.00">Ω•×Ω₁</text>
</g>
<!-- n18&#45;&gt;n38 -->
<g id="edge41" class="edge">
<title>n18&#45;&gt;n38</title>
<path fill="none" stroke="black" stroke-dasharray="5,2" d="M415.59,-1108.84C409.16,-1094.25 398.04,-1065.26 398.04,-1039.35 398.04,-1039.35 398.04,-1039.35 398.04,-847.78 398.04,-823.76 398.04,-795.65 398.04,-780.19"/>
<polygon fill="black" stroke="black" points="399.79,-780.1 398.04,-775.1 396.29,-780.1 399.79,-780.1"/>
<text text-anchor="middle" x="405.54" y="-959.34" font-family="Times,serif" font-size="14.00">π₂</text>
</g>
<!-- n19 -->
<g id="node19" class="node">
<title>n19</title>
<ellipse fill="none" stroke="black" cx="364.04" cy="-1158.54" rx="25" ry="10.71"/>
<text text-anchor="middle" x="364.04" y="-1154.84" font-family="Times,serif" font-size="14.00">ρ:ΩC</text>
</g>
<!-- n36 -->
<g id="node36" class="node">
<title>n36</title>
<polygon fill="none" stroke="black" points="368.04,-1084.79 312.04,-1084.79 312.04,-1069.79 368.04,-1069.79 368.04,-1084.79"/>
<text text-anchor="middle" x="340.04" y="-1073.59" font-family="Times,serif" font-size="14.00">ΩC×ΩC</text>
</g>
<!-- n19&#45;&gt;n36 -->
<g id="edge34" class="edge">
<title>n19&#45;&gt;n36</title>
<path fill="none" stroke="black" stroke-dasharray="5,2" d="M361.1,-1147.83C356.65,-1133.12 348.21,-1105.28 343.48,-1089.65"/>
<polygon fill="black" stroke="black" points="345.16,-1089.14 342.03,-1084.86 341.81,-1090.15 345.16,-1089.14"/>
<text text-anchor="middle" x="362.54" y="-1115.63" font-family="Times,serif" font-size="14.00">π₁</text>
</g>
<!-- n20 -->
<g id="node20" class="node">
<title>n20</title>
<ellipse fill="none" stroke="black" cx="296.04" cy="-1158.54" rx="25.41" ry="10.71"/>
<text text-anchor="middle" x="296.04" y="-1154.84" font-family="Times,serif" font-size="14.00">g:ΩC</text>
</g>
<!-- n20&#45;&gt;n36 -->
<g id="edge35" class="edge">
<title>n20&#45;&gt;n36</title>
<path fill="none" stroke="black" stroke-dasharray="5,2" d="M301.26,-1148.14C309.43,-1133.43 325.2,-1105.02 333.9,-1089.35"/>
<polygon fill="black" stroke="black" points="335.46,-1090.14 336.36,-1084.92 332.4,-1088.44 335.46,-1090.14"/>
<text text-anchor="middle" x="328.54" y="-1115.63" font-family="Times,serif" font-size="14.00">π₂</text>
</g>
<!-- n21 -->
<g id="node21" class="node">
<title>n21</title>
<ellipse fill="none" stroke="black" cx="456.04" cy="-848.78" rx="29.9" ry="10.71"/>
<text text-anchor="middle" x="456.04" y="-845.08" font-family="Times,serif" font-size="14.00">•1:Ω•</text>
</g>
<!-- n21&#45;&gt;n38 -->
<g id="edge40" class="edge">
<title>n21&#45;&gt;n38</title>
<path fill="none" stroke="black" stroke-dasharray="5,2" d="M449.16,-838.38C438.39,-823.66 417.6,-795.26 406.13,-779.58"/>
<polygon fill="black" stroke="black" points="407.26,-778.16 402.89,-775.16 404.44,-780.23 407.26,-778.16"/>
<text text-anchor="middle" x="439.54" y="-803.04" font-family="Times,serif" font-size="14.00">π₁</text>
</g>
<!-- n22 -->
<g id="node22" class="node">
<title>n22</title>
<ellipse fill="none" stroke="black" cx="488.04" cy="-1158.54" rx="24.08" ry="10.71"/>
<text text-anchor="middle" x="488.04" y="-1154.84" font-family="Times,serif" font-size="14.00">2:ΩL</text>
</g>
<!-- n35 -->
<g id="node35" class="node">
<title>n35</title>
<polygon fill="none" stroke="black" points="482.04,-931.32 430.04,-931.32 430.04,-916.32 482.04,-916.32 482.04,-931.32"/>
<text text-anchor="middle" x="456.04" y="-920.12" font-family="Times,serif" font-size="14.00">ΩL×Ω•</text>
</g>
<!-- n22&#45;&gt;n35 -->
<g id="edge31" class="edge">
<title>n22&#45;&gt;n35</title>
<path fill="none" stroke="black" stroke-dasharray="5,2" d="M488.57,-1147.75C489.79,-1121.99 492.02,-1050.32 483.04,-991.64 480.3,-973.75 479.08,-969.1 472.04,-952.43 469.65,-946.76 466.33,-940.82 463.32,-935.91"/>
<polygon fill="black" stroke="black" points="464.62,-934.68 460.48,-931.38 461.66,-936.55 464.62,-934.68"/>
<text text-anchor="middle" x="495.54" y="-1034.65" font-family="Times,serif" font-size="14.00">π₁</text>
</g>
<!-- n22&#45;&gt;n41 -->
<g id="edge51" class="edge">
<title>n22&#45;&gt;n41</title>
<path fill="none" stroke="black" stroke-dasharray="5,2" d="M483.38,-1147.83C476.99,-1134.49 465.41,-1110.35 457.73,-1094.32"/>
<polygon fill="black" stroke="black" points="459.22,-1093.38 455.48,-1089.62 456.06,-1094.89 459.22,-1093.38"/>
</g>
<!-- n23 -->
<g id="node23" class="node">
<title>n23</title>
<ellipse fill="none" stroke="black" cx="450.04" cy="-1002.25" rx="24.08" ry="10.71"/>
<text text-anchor="middle" x="450.04" y="-998.55" font-family="Times,serif" font-size="14.00">1:Ω•</text>
</g>
<!-- n23&#45;&gt;n35 -->
<g id="edge32" class="edge">
<title>n23&#45;&gt;n35</title>
<path fill="none" stroke="black" stroke-dasharray="5,2" d="M450.8,-991.57C451.9,-977.55 453.94,-951.61 455.12,-936.53"/>
<polygon fill="black" stroke="black" points="456.87,-936.63 455.52,-931.51 453.38,-936.36 456.87,-936.63"/>
<text text-anchor="middle" x="460.54" y="-959.34" font-family="Times,serif" font-size="14.00">π₂</text>
</g>
<!-- n24 -->
<g id="node24" class="node">
<title>n24</title>
<ellipse fill="none" stroke="black" cx="311.04" cy="-806.74" rx="29.9" ry="10.71"/>
<text text-anchor="middle" x="311.04" y="-803.04" font-family="Times,serif" font-size="14.00">•2:Ω•</text>
</g>
<!-- n39 -->
<g id="node39" class="node">
<title>n39</title>
<polygon fill="none" stroke="black" points="337.04,-624.39 285.04,-624.39 285.04,-609.39 337.04,-609.39 337.04,-624.39"/>
<text text-anchor="middle" x="311.04" y="-613.19" font-family="Times,serif" font-size="14.00">Ω•×Ω•</text>
</g>
<!-- n24&#45;&gt;n39 -->
<g id="edge44" class="edge">
<title>n24&#45;&gt;n39</title>
<path fill="none" stroke="black" stroke-dasharray="5,2" d="M311.04,-795.9C311.04,-764.22 311.04,-664.85 311.04,-630.06"/>
<polygon fill="black" stroke="black" points="312.79,-629.7 311.04,-624.7 309.29,-629.7 312.79,-629.7"/>
<text text-anchor="middle" x="318.54" y="-727.72" font-family="Times,serif" font-size="14.00">π₂</text>
</g>
<!-- n25 -->
<g id="node25" class="node">
<title>n25</title>
<ellipse fill="none" stroke="black" cx="340.04" cy="-1002.25" rx="29.9" ry="10.71"/>
<text text-anchor="middle" x="340.04" y="-998.55" font-family="Times,serif" font-size="14.00">•3:Ω•</text>
</g>
<!-- n25&#45;&gt;n37 -->
<g id="edge37" class="edge">
<title>n25&#45;&gt;n37</title>
<path fill="none" stroke="black" stroke-dasharray="5,2" d="M336.37,-991.57C331.05,-977.55 321.21,-951.61 315.48,-936.53"/>
<polygon fill="black" stroke="black" points="316.99,-935.56 313.58,-931.51 313.72,-936.8 316.99,-935.56"/>
<text text-anchor="middle" x="335.54" y="-959.34" font-family="Times,serif" font-size="14.00">π₁</text>
</g>
<!-- n26 -->
<g id="node26" class="node">
<title>n26</title>
<ellipse fill="none" stroke="black" cx="381.04" cy="-695.31" rx="24.08" ry="10.71"/>
<text text-anchor="middle" x="381.04" y="-691.61" font-family="Times,serif" font-size="14.00">1:Ω•</text>
</g>
<!-- n26&#45;&gt;n39 -->
<g id="edge43" class="edge">
<title>n26&#45;&gt;n39</title>
<path fill="none" stroke="black" stroke-dasharray="5,2" d="M372.74,-685.24C359.76,-671.08 334.73,-643.75 320.87,-628.62"/>
<polygon fill="black" stroke="black" points="321.95,-627.2 317.28,-624.7 319.37,-629.57 321.95,-627.2"/>
<text text-anchor="middle" x="361.54" y="-652.4" font-family="Times,serif" font-size="14.00">π₁</text>
</g>
<!-- n27 -->
<g id="node27" class="node">
<title>n27</title>
</g>
<!-- n27&#45;&gt;n1 -->
<g id="edge1" class="edge">
<title>n27&#45;&gt;n1</title>
<path fill="none" stroke="black" d="M293.77,-1207.19C269.88,-1207.49 66.04,-1208.68 66.04,-1159.54 66.04,-1159.54 66.04,-1159.54 66.04,-847.78 66.04,-825.48 66.04,-799.64 66.04,-783.69"/>
<polygon fill="black" stroke="black" points="67.79,-783.29 66.04,-778.29 64.29,-783.29 67.79,-783.29"/>
</g>
<!-- n27&#45;&gt;n3 -->
<g id="edge2" class="edge">
<title>n27&#45;&gt;n3</title>
<path fill="none" stroke="black" d="M294.34,-1205.97C287.45,-1201.22 261.22,-1183.12 243.61,-1170.98"/>
<polygon fill="black" stroke="black" points="244.45,-1169.43 239.34,-1168.03 242.46,-1172.31 244.45,-1169.43"/>
</g>
<!-- n27&#45;&gt;n18 -->
<g id="edge3" class="edge">
<title>n27&#45;&gt;n18</title>
<path fill="none" stroke="black" d="M298.31,-1206.94C310.25,-1205.73 366.58,-1198.58 398.04,-1169.15 407.73,-1160.09 413.45,-1145.97 416.62,-1135.24"/>
<polygon fill="black" stroke="black" points="418.34,-1135.57 417.98,-1130.28 414.97,-1134.64 418.34,-1135.57"/>
</g>
<!-- n27&#45;&gt;n19 -->
<g id="edge4" class="edge">
<title>n27&#45;&gt;n19</title>
<path fill="none" stroke="black" d="M297.72,-1205.97C304.51,-1201.22 330.36,-1183.12 347.71,-1170.98"/>
<polygon fill="black" stroke="black" points="348.83,-1172.33 351.92,-1168.03 346.82,-1169.46 348.83,-1172.33"/>
</g>
<!-- n27&#45;&gt;n20 -->
<g id="edge5" class="edge">
<title>n27&#45;&gt;n20</title>
<path fill="none" stroke="black" d="M296.04,-1205.97C296.04,-1201.65 296.04,-1186.3 296.04,-1174.41"/>
<polygon fill="black" stroke="black" points="297.79,-1174.25 296.04,-1169.25 294.29,-1174.25 297.79,-1174.25"/>
</g>
<!-- n29&#45;&gt;n9 -->
<g id="edge15" class="edge">
<title>n29&#45;&gt;n9</title>
<path fill="none" stroke="black" d="M207.04,-461.67C207.04,-451.14 207.04,-430.4 207.04,-416.18"/>
<polygon fill="black" stroke="black" points="208.79,-415.91 207.04,-410.91 205.29,-415.91 208.79,-415.91"/>
<text text-anchor="middle" x="210.54" y="-432.65" font-family="Times,serif" font-size="14.00">*</text>
</g>
<!-- n30&#45;&gt;n15 -->
<g id="edge18" class="edge">
<title>n30&#45;&gt;n15</title>
<path fill="none" stroke="black" d="M226.52,-1069.6C227.78,-1051.96 231.21,-1003.83 232.97,-979.11"/>
<polygon fill="black" stroke="black" points="234.73,-979.04 233.34,-973.93 231.24,-978.8 234.73,-979.04"/>
<text text-anchor="middle" x="231.54" y="-1034.65" font-family="Times,serif" font-size="14.00">&#45;</text>
</g>
<!-- n31&#45;&gt;n11 -->
<g id="edge21" class="edge">
<title>n31&#45;&gt;n11</title>
<path fill="none" stroke="black" d="M132.74,-461.67C132.27,-451.14 131.34,-430.4 130.71,-416.18"/>
<polygon fill="black" stroke="black" points="132.45,-415.82 130.47,-410.91 128.95,-415.98 132.45,-415.82"/>
<text text-anchor="middle" x="138.54" y="-432.65" font-family="Times,serif" font-size="14.00">^</text>
</g>
<!-- n32&#45;&gt;n8 -->
<g id="edge24" class="edge">
<title>n32&#45;&gt;n8</title>
<path fill="none" stroke="black" d="M129.54,-323.46C128.76,-312.92 127.21,-292.19 126.15,-277.97"/>
<polygon fill="black" stroke="black" points="127.88,-277.55 125.76,-272.69 124.39,-277.81 127.88,-277.55"/>
<text text-anchor="middle" x="134.54" y="-294.44" font-family="Times,serif" font-size="14.00">∧</text>
</g>
<!-- n33&#45;&gt;n17 -->
<g id="edge27" class="edge">
<title>n33&#45;&gt;n17</title>
<path fill="none" stroke="black" d="M61.15,-687.76C61.47,-669.74 62.34,-619.07 62.78,-593.63"/>
<polygon fill="black" stroke="black" points="64.53,-593.64 62.87,-588.61 61.03,-593.58 64.53,-593.64"/>
<text text-anchor="middle" x="68.54" y="-652.4" font-family="Times,serif" font-size="14.00">^</text>
</g>
<!-- n34&#45;&gt;n7 -->
<g id="edge30" class="edge">
<title>n34&#45;&gt;n7</title>
<path fill="none" stroke="black" d="M66.04,-185.25C66.04,-174.71 66.04,-153.97 66.04,-139.76"/>
<polygon fill="black" stroke="black" points="67.79,-139.48 66.04,-134.48 64.29,-139.48 67.79,-139.48"/>
<text text-anchor="middle" x="71.54" y="-156.23" font-family="Times,serif" font-size="14.00">∧</text>
</g>
<!-- n35&#45;&gt;n21 -->
<g id="edge33" class="edge">
<title>n35&#45;&gt;n21</title>
<path fill="none" stroke="black" d="M456.04,-916.08C456.04,-904.51 456.04,-880.58 456.04,-864.86"/>
<polygon fill="black" stroke="black" points="457.79,-864.48 456.04,-859.48 454.29,-864.48 457.79,-864.48"/>
<text text-anchor="middle" x="458.54" y="-884.02" font-family="Times,serif" font-size="14.00">/</text>
</g>
<!-- n36&#45;&gt;n25 -->
<g id="edge36" class="edge">
<title>n36&#45;&gt;n25</title>
<path fill="none" stroke="black" d="M340.04,-1069.55C340.04,-1057.97 340.04,-1034.05 340.04,-1018.33"/>
<polygon fill="black" stroke="black" points="341.79,-1017.95 340.04,-1012.95 338.29,-1017.95 341.79,-1017.95"/>
<text text-anchor="middle" x="343.54" y="-1034.65" font-family="Times,serif" font-size="14.00">*</text>
</g>
<!-- n37&#45;&gt;n24 -->
<g id="edge39" class="edge">
<title>n37&#45;&gt;n24</title>
<path fill="none" stroke="black" d="M311.04,-916.3C311.04,-898.37 311.04,-847.94 311.04,-822.63"/>
<polygon fill="black" stroke="black" points="312.79,-822.63 311.04,-817.63 309.29,-822.63 312.79,-822.63"/>
<text text-anchor="middle" x="317.54" y="-884.02" font-family="Times,serif" font-size="14.00">^</text>
</g>
<!-- n38&#45;&gt;n26 -->
<g id="edge42" class="edge">
<title>n38&#45;&gt;n26</title>
<path fill="none" stroke="black" d="M396.41,-759.79C393.72,-748.67 388.27,-726.18 384.64,-711.18"/>
<polygon fill="black" stroke="black" points="386.27,-710.47 383.39,-706.03 382.87,-711.3 386.27,-710.47"/>
<text text-anchor="middle" x="394.54" y="-727.72" font-family="Times,serif" font-size="14.00">*</text>
</g>
<!-- n39&#45;&gt;n2 -->
<g id="edge45" class="edge">
<title>n39&#45;&gt;n2</title>
<path fill="none" stroke="black" d="M309.85,-609.37C307.64,-597.31 302.86,-571.2 299.8,-554.53"/>
<polygon fill="black" stroke="black" points="301.46,-553.87 298.84,-549.27 298.02,-554.5 301.46,-553.87"/>
<text text-anchor="middle" x="308.54" y="-573.97" font-family="Times,serif" font-size="14.00">*</text>
</g>
<!-- n40&#45;&gt;n6 -->
<g id="edge46" class="edge">
<title>n40&#45;&gt;n6</title>
<path fill="none" stroke="black" d="M132.04,-835.05C132.04,-821.02 132.04,-798.47 132.04,-783.58"/>
<polygon fill="black" stroke="black" points="133.79,-783.47 132.04,-778.47 130.29,-783.47 133.79,-783.47"/>
<text text-anchor="middle" x="138.54" y="-803.04" font-family="Times,serif" font-size="14.00">+</text>
</g>
<!-- n41&#45;&gt;n23 -->
<g id="edge47" class="edge">
<title>n41&#45;&gt;n23</title>
<path fill="none" stroke="black" d="M450.04,-1063.57C450.04,-1050.98 450.04,-1031.71 450.04,-1018.35"/>
<polygon fill="black" stroke="black" points="451.79,-1018.02 450.04,-1013.02 448.29,-1018.02 451.79,-1018.02"/>
<text text-anchor="middle" x="456.54" y="-1034.65" font-family="Times,serif" font-size="14.00">+</text>
</g>
</g>
</svg>
