<?xml version="1.0" encoding="UTF-8" standalone="no"?>
<!DOCTYPE svg PUBLIC "-//W3C//DTD SVG 1.1//EN"
 "http://www.w3.org/Graphics/SVG/1.1/DTD/svg11.dtd">
<!-- Generated by graphviz version 2.43.0 (0)
 -->
<!-- Title: G Pages: 1 -->
<svg width="889pt" height="1218pt"
 viewBox="0.00 0.00 889.37 1218.15" xmlns="http://www.w3.org/2000/svg" xmlns:xlink="http://www.w3.org/1999/xlink">
<g id="graph0" class="graph" transform="scale(1 1) rotate(0) translate(4 1214.15)">
<title>G</title>
<polygon fill="white" stroke="transparent" points="-4,4 -4,-1214.15 885.37,-1214.15 885.37,4 -4,4"/>
<!-- n1 -->
<g id="node1" class="node">
<title>n1</title>
<ellipse fill="none" stroke="black" cx="132.37" cy="-767.53" rx="21.84" ry="10.71"/>
<text text-anchor="middle" x="132.37" y="-763.83" font-family="Times,serif" font-size="14.00">h:Ω₀</text>
</g>
<!-- n4 -->
<g id="node4" class="node">
<title>n4</title>
<ellipse fill="none" stroke="black" cx="76.37" cy="-51.61" rx="76.24" ry="10.71"/>
<text text-anchor="middle" x="76.37" y="-47.91" font-family="Times,serif" font-size="14.00">dynamics_ḣ:Ω•</text>
</g>
<!-- n1&#45;&gt;n4 -->
<g id="edge7" class="edge">
<title>n1&#45;&gt;n4</title>
<path fill="none" stroke="black" d="M116.74,-759.77C95.57,-749.44 60.37,-727.57 60.37,-696.31 60.37,-696.31 60.37,-696.31 60.37,-122.82 60.37,-103.22 66.37,-81.3 71.02,-67.25"/>
<polygon fill="black" stroke="black" points="72.7,-67.74 72.66,-62.44 69.39,-66.61 72.7,-67.74"/>
<text text-anchor="middle" x="66.37" y="-396.55" font-family="Times,serif" font-size="14.00">∂ₜ</text>
</g>
<!-- n10 -->
<g id="node10" class="node">
<title>n10</title>
<ellipse fill="none" stroke="black" cx="351.37" cy="-656.1" rx="82.05" ry="10.71"/>
<text text-anchor="middle" x="351.37" y="-652.4" font-family="Times,serif" font-size="14.00">dynamics_•4:Ω•</text>
</g>
<!-- n1&#45;&gt;n10 -->
<g id="edge8" class="edge">
<title>n1&#45;&gt;n10</title>
<path fill="none" stroke="black" d="M149.39,-760.66C153.6,-759.32 158.12,-757.98 162.37,-756.92 245.51,-736.06 297.4,-774.84 348.37,-705.92 355.5,-696.27 355.67,-682.39 354.4,-671.89"/>
<polygon fill="black" stroke="black" points="356.1,-671.44 353.62,-666.76 352.64,-671.96 356.1,-671.44"/>
<text text-anchor="middle" x="336.37" y="-727.72" font-family="Times,serif" font-size="14.00">d</text>
</g>
<!-- n14 -->
<g id="node14" class="node">
<title>n14</title>
<ellipse fill="none" stroke="black" cx="257.37" cy="-695.31" rx="82.05" ry="10.71"/>
<text text-anchor="middle" x="257.37" y="-691.61" font-family="Times,serif" font-size="14.00">dynamics_•8:Ω•</text>
</g>
<!-- n1&#45;&gt;n14 -->
<g id="edge9" class="edge">
<title>n1&#45;&gt;n14</title>
<path fill="none" stroke="black" d="M145.62,-758.93C160.58,-750.37 185.68,-736.07 207.37,-723.92 216.56,-718.77 226.75,-713.13 235.51,-708.31"/>
<polygon fill="black" stroke="black" points="236.68,-709.66 240.21,-705.72 234.99,-706.59 236.68,-709.66"/>
<text text-anchor="middle" x="212.37" y="-727.72" font-family="Times,serif" font-size="14.00">d</text>
</g>
<!-- n33 -->
<g id="node33" class="node">
<title>n33</title>
<polygon fill="none" stroke="black" points="156.87,-702.81 107.87,-702.81 107.87,-687.81 156.87,-687.81 156.87,-702.81"/>
<text text-anchor="middle" x="132.37" y="-691.61" font-family="Times,serif" font-size="14.00">Ω₀×Ω•</text>
</g>
<!-- n1&#45;&gt;n33 -->
<g id="edge25" class="edge">
<title>n1&#45;&gt;n33</title>
<path fill="none" stroke="black" stroke-dasharray="5,2" d="M132.37,-756.76C132.37,-744.1 132.37,-722.02 132.37,-708.34"/>
<polygon fill="black" stroke="black" points="134.12,-708.04 132.37,-703.04 130.62,-708.04 134.12,-708.04"/>
<text text-anchor="middle" x="139.87" y="-727.72" font-family="Times,serif" font-size="14.00">π₁</text>
</g>
<!-- n2 -->
<g id="node2" class="node">
<title>n2</title>
<ellipse fill="none" stroke="black" cx="513.37" cy="-538.46" rx="21.84" ry="10.71"/>
<text text-anchor="middle" x="513.37" y="-534.76" font-family="Times,serif" font-size="14.00">Γ:Ω₁</text>
</g>
<!-- n29 -->
<g id="node29" class="node">
<title>n29</title>
<polygon fill="none" stroke="black" points="484.87,-476.85 435.87,-476.85 435.87,-461.85 484.87,-461.85 484.87,-476.85"/>
<text text-anchor="middle" x="460.37" y="-465.65" font-family="Times,serif" font-size="14.00">Ω₁×Ω•</text>
</g>
<!-- n2&#45;&gt;n29 -->
<g id="edge13" class="edge">
<title>n2&#45;&gt;n29</title>
<path fill="none" stroke="black" stroke-dasharray="5,2" d="M506.22,-528.41C496.57,-516.2 479.4,-494.46 469.03,-481.33"/>
<polygon fill="black" stroke="black" points="470.27,-480.07 465.8,-477.23 467.52,-482.24 470.27,-480.07"/>
<text text-anchor="middle" x="496.87" y="-498.65" font-family="Times,serif" font-size="14.00">π₁</text>
</g>
<!-- n3 -->
<g id="node3" class="node">
<title>n3</title>
<ellipse fill="none" stroke="black" cx="327.37" cy="-1158.54" rx="25.41" ry="10.71"/>
<text text-anchor="middle" x="327.37" y="-1154.84" font-family="Times,serif" font-size="14.00">n:ΩC</text>
</g>
<!-- n30 -->
<g id="node30" class="node">
<title>n30</title>
<polygon fill="none" stroke="black" points="354.87,-1084.79 299.87,-1084.79 299.87,-1069.79 354.87,-1069.79 354.87,-1084.79"/>
<text text-anchor="middle" x="327.37" y="-1073.59" font-family="Times,serif" font-size="14.00">ΩC×ΩL</text>
</g>
<!-- n3&#45;&gt;n30 -->
<g id="edge16" class="edge">
<title>n3&#45;&gt;n30</title>
<path fill="none" stroke="black" stroke-dasharray="5,2" d="M327.37,-1147.83C327.37,-1133.25 327.37,-1105.76 327.37,-1090.06"/>
<polygon fill="black" stroke="black" points="329.12,-1089.86 327.37,-1084.86 325.62,-1089.86 329.12,-1089.86"/>
<text text-anchor="middle" x="334.87" y="-1115.63" font-family="Times,serif" font-size="14.00">π₁</text>
</g>
<!-- n37 -->
<g id="node37" class="node">
<title>n37</title>
<polygon fill="none" stroke="black" points="556.37,-931.32 502.37,-931.32 502.37,-916.32 556.37,-916.32 556.37,-931.32"/>
<text text-anchor="middle" x="529.37" y="-920.12" font-family="Times,serif" font-size="14.00">Ω•×ΩC</text>
</g>
<!-- n3&#45;&gt;n37 -->
<g id="edge38" class="edge">
<title>n3&#45;&gt;n37</title>
<path fill="none" stroke="black" stroke-dasharray="5,2" d="M335.29,-1148.42C367.1,-1111.77 485.53,-975.33 519.94,-935.69"/>
<polygon fill="black" stroke="black" points="521.4,-936.67 523.35,-931.75 518.76,-934.38 521.4,-936.67"/>
<text text-anchor="middle" x="441.87" y="-1034.65" font-family="Times,serif" font-size="14.00">π₂</text>
</g>
<!-- n40 -->
<g id="node40" class="node">
<title>n40</title>
<ellipse fill="none" stroke="black" cx="269.37" cy="-848.78" rx="13.37" ry="13.37"/>
<text text-anchor="middle" x="269.37" y="-845.08" font-family="Times,serif" font-size="14.00">Σ1</text>
</g>
<!-- n3&#45;&gt;n40 -->
<g id="edge48" class="edge">
<title>n3&#45;&gt;n40</title>
<path fill="none" stroke="black" stroke-dasharray="5,2" d="M315.35,-1149.07C298.36,-1135.99 269.37,-1109.15 269.37,-1078.29 269.37,-1078.29 269.37,-1078.29 269.37,-922.82 269.37,-903.96 269.37,-882.36 269.37,-867.57"/>
<polygon fill="black" stroke="black" points="271.12,-867.45 269.37,-862.45 267.62,-867.45 271.12,-867.45"/>
</g>
<!-- n41 -->
<g id="node41" class="node">
<title>n41</title>
<ellipse fill="none" stroke="black" cx="760.37" cy="-1077.29" rx="13.37" ry="13.37"/>
<text text-anchor="middle" x="760.37" y="-1073.59" font-family="Times,serif" font-size="14.00">Σ2</text>
</g>
<!-- n3&#45;&gt;n41 -->
<g id="edge50" class="edge">
<title>n3&#45;&gt;n41</title>
<path fill="none" stroke="black" stroke-dasharray="5,2" d="M346.64,-1151.42C351.41,-1150.09 356.54,-1148.82 361.37,-1147.94 451.77,-1131.37 481.61,-1162.98 567.37,-1129.94 581.94,-1124.33 581.08,-1115.03 595.37,-1108.72 645.25,-1086.72 710.4,-1080.62 741.82,-1078.94"/>
<polygon fill="black" stroke="black" points="742.01,-1080.68 746.92,-1078.68 741.84,-1077.18 742.01,-1080.68"/>
</g>
<!-- n28 -->
<g id="node28" class="node">
<title>n28</title>
</g>
<!-- n4&#45;&gt;n28 -->
<g id="edge6" class="edge">
<title>n4&#45;&gt;n28</title>
<path fill="none" stroke="black" d="M76.37,-40.97C76.37,-31.46 76.37,-17.21 76.37,-9.14"/>
<polygon fill="black" stroke="black" points="78.12,-9.06 76.37,-4.06 74.62,-9.06 78.12,-9.06"/>
</g>
<!-- n5 -->
<g id="node5" class="node">
<title>n5</title>
<ellipse fill="none" stroke="black" cx="217.37" cy="-923.82" rx="24.08" ry="10.71"/>
<text text-anchor="middle" x="217.37" y="-920.12" font-family="Times,serif" font-size="14.00">2:ΩL</text>
</g>
<!-- n5&#45;&gt;n40 -->
<g id="edge49" class="edge">
<title>n5&#45;&gt;n40</title>
<path fill="none" stroke="black" stroke-dasharray="5,2" d="M223.95,-913.57C232.77,-901.19 248.51,-879.08 258.94,-864.42"/>
<polygon fill="black" stroke="black" points="260.52,-865.22 262,-860.13 257.67,-863.19 260.52,-865.22"/>
</g>
<!-- n6 -->
<g id="node6" class="node">
<title>n6</title>
<ellipse fill="none" stroke="black" cx="274.37" cy="-767.53" rx="102.56" ry="10.71"/>
<text text-anchor="middle" x="274.37" y="-763.83" font-family="Times,serif" font-size="14.00">dynamics_sum_1:Ω•</text>
</g>
<!-- n6&#45;&gt;n33 -->
<g id="edge26" class="edge">
<title>n6&#45;&gt;n33</title>
<path fill="none" stroke="black" stroke-dasharray="5,2" d="M263.74,-756.88C252.8,-747.38 234.92,-733.01 217.37,-723.92 207.29,-718.7 180.98,-710.43 160.27,-704.3"/>
<polygon fill="black" stroke="black" points="160.71,-702.61 155.41,-702.87 159.72,-705.96 160.71,-702.61"/>
<text text-anchor="middle" x="248.87" y="-727.72" font-family="Times,serif" font-size="14.00">π₂</text>
</g>
<!-- n7 -->
<g id="node7" class="node">
<title>n7</title>
<ellipse fill="none" stroke="black" cx="170.37" cy="-123.82" rx="82.05" ry="10.71"/>
<text text-anchor="middle" x="170.37" y="-120.12" font-family="Times,serif" font-size="14.00">dynamics_•1:Ω•</text>
</g>
<!-- n7&#45;&gt;n4 -->
<g id="edge12" class="edge">
<title>n7&#45;&gt;n4</title>
<path fill="none" stroke="black" d="M157.3,-113.06C140.74,-100.69 112.16,-79.34 93.77,-65.6"/>
<polygon fill="black" stroke="black" points="94.38,-63.88 89.33,-62.29 92.29,-66.68 94.38,-63.88"/>
<text text-anchor="middle" x="150.87" y="-84.01" font-family="Times,serif" font-size="14.00">⋆⋅d⋅⋆</text>
</g>
<!-- n8 -->
<g id="node8" class="node">
<title>n8</title>
<ellipse fill="none" stroke="black" cx="275.37" cy="-262.03" rx="82.05" ry="10.71"/>
<text text-anchor="middle" x="275.37" y="-258.33" font-family="Times,serif" font-size="14.00">dynamics_•2:Ω•</text>
</g>
<!-- n34 -->
<g id="node34" class="node">
<title>n34</title>
<polygon fill="none" stroke="black" points="196.37,-200.43 144.37,-200.43 144.37,-185.43 196.37,-185.43 196.37,-200.43"/>
<text text-anchor="middle" x="170.37" y="-189.23" font-family="Times,serif" font-size="14.00">Ω•×Ω•</text>
</g>
<!-- n8&#45;&gt;n34 -->
<g id="edge28" class="edge">
<title>n8&#45;&gt;n34</title>
<path fill="none" stroke="black" stroke-dasharray="5,2" d="M260.32,-251.42C240.19,-238.55 204.7,-215.87 184.85,-203.18"/>
<polygon fill="black" stroke="black" points="185.79,-201.7 180.63,-200.49 183.9,-204.65 185.79,-201.7"/>
<text text-anchor="middle" x="236.87" y="-222.23" font-family="Times,serif" font-size="14.00">π₁</text>
</g>
<!-- n9 -->
<g id="node9" class="node">
<title>n9</title>
<ellipse fill="none" stroke="black" cx="460.37" cy="-400.25" rx="82.05" ry="10.71"/>
<text text-anchor="middle" x="460.37" y="-396.55" font-family="Times,serif" font-size="14.00">dynamics_•3:Ω•</text>
</g>
<!-- n32 -->
<g id="node32" class="node">
<title>n32</title>
<polygon fill="none" stroke="black" points="304.37,-338.64 252.37,-338.64 252.37,-323.64 304.37,-323.64 304.37,-338.64"/>
<text text-anchor="middle" x="278.37" y="-327.44" font-family="Times,serif" font-size="14.00">Ω•×Ω•</text>
</g>
<!-- n9&#45;&gt;n32 -->
<g id="edge22" class="edge">
<title>n9&#45;&gt;n32</title>
<path fill="none" stroke="black" stroke-dasharray="5,2" d="M435.44,-390.06C399.9,-376.95 335.19,-353.09 300.98,-340.48"/>
<polygon fill="black" stroke="black" points="301.45,-338.79 296.16,-338.7 300.24,-342.07 301.45,-338.79"/>
<text text-anchor="middle" x="387.87" y="-360.44" font-family="Times,serif" font-size="14.00">π₁</text>
</g>
<!-- n10&#45;&gt;n29 -->
<g id="edge14" class="edge">
<title>n10&#45;&gt;n29</title>
<path fill="none" stroke="black" stroke-dasharray="5,2" d="M357.07,-645.43C375.61,-614.01 434.07,-514.92 453.8,-481.49"/>
<polygon fill="black" stroke="black" points="455.38,-482.25 456.41,-477.05 452.37,-480.47 455.38,-482.25"/>
<text text-anchor="middle" x="409.87" y="-573.97" font-family="Times,serif" font-size="14.00">π₂</text>
</g>
<!-- n11 -->
<g id="node11" class="node">
<title>n11</title>
<ellipse fill="none" stroke="black" cx="278.37" cy="-400.25" rx="82.05" ry="10.71"/>
<text text-anchor="middle" x="278.37" y="-396.55" font-family="Times,serif" font-size="14.00">dynamics_•5:Ω•</text>
</g>
<!-- n11&#45;&gt;n32 -->
<g id="edge23" class="edge">
<title>n11&#45;&gt;n32</title>
<path fill="none" stroke="black" stroke-dasharray="5,2" d="M278.37,-389.63C278.37,-377.58 278.37,-356.94 278.37,-343.94"/>
<polygon fill="black" stroke="black" points="280.12,-343.89 278.37,-338.89 276.62,-343.89 280.12,-343.89"/>
<text text-anchor="middle" x="285.87" y="-360.44" font-family="Times,serif" font-size="14.00">π₂</text>
</g>
<!-- n12 -->
<g id="node12" class="node">
<title>n12</title>
<ellipse fill="none" stroke="black" cx="277.37" cy="-538.46" rx="82.05" ry="10.71"/>
<text text-anchor="middle" x="277.37" y="-534.76" font-family="Times,serif" font-size="14.00">dynamics_•6:Ω•</text>
</g>
<!-- n31 -->
<g id="node31" class="node">
<title>n31</title>
<polygon fill="none" stroke="black" points="304.37,-476.85 252.37,-476.85 252.37,-461.85 304.37,-461.85 304.37,-476.85"/>
<text text-anchor="middle" x="278.37" y="-465.65" font-family="Times,serif" font-size="14.00">Ω•×Ω•</text>
</g>
<!-- n12&#45;&gt;n31 -->
<g id="edge19" class="edge">
<title>n12&#45;&gt;n31</title>
<path fill="none" stroke="black" stroke-dasharray="5,2" d="M277.51,-527.84C277.69,-515.79 278,-495.15 278.19,-482.15"/>
<polygon fill="black" stroke="black" points="279.94,-482.13 278.27,-477.1 276.44,-482.07 279.94,-482.13"/>
<text text-anchor="middle" x="285.87" y="-498.65" font-family="Times,serif" font-size="14.00">π₁</text>
</g>
<!-- n13 -->
<g id="node13" class="node">
<title>n13</title>
<ellipse fill="none" stroke="black" cx="267.37" cy="-616.89" rx="82.05" ry="10.71"/>
<text text-anchor="middle" x="267.37" y="-613.19" font-family="Times,serif" font-size="14.00">dynamics_•7:Ω•</text>
</g>
<!-- n13&#45;&gt;n12 -->
<g id="edge11" class="edge">
<title>n13&#45;&gt;n12</title>
<path fill="none" stroke="black" d="M268.63,-606.21C270.34,-593.18 273.39,-569.89 275.39,-554.56"/>
<polygon fill="black" stroke="black" points="277.17,-554.49 276.08,-549.3 273.7,-554.03 277.17,-554.49"/>
<text text-anchor="middle" x="289.87" y="-573.97" font-family="Times,serif" font-size="14.00">mag</text>
</g>
<!-- n14&#45;&gt;n13 -->
<g id="edge10" class="edge">
<title>n14&#45;&gt;n13</title>
<path fill="none" stroke="black" d="M257.43,-684.53C257.62,-674.63 258.27,-658.92 260.37,-645.49 261.03,-641.23 262.06,-636.67 263.12,-632.51"/>
<polygon fill="black" stroke="black" points="264.86,-632.79 264.46,-627.5 261.47,-631.88 264.86,-632.79"/>
<text text-anchor="middle" x="263.87" y="-652.4" font-family="Times,serif" font-size="14.00">♯</text>
</g>
<!-- n15 -->
<g id="node15" class="node">
<title>n15</title>
<ellipse fill="none" stroke="black" cx="366.37" cy="-963.04" rx="82.05" ry="10.71"/>
<text text-anchor="middle" x="366.37" y="-959.34" font-family="Times,serif" font-size="14.00">dynamics_•9:Ω•</text>
</g>
<!-- n15&#45;&gt;n31 -->
<g id="edge20" class="edge">
<title>n15&#45;&gt;n31</title>
<path fill="none" stroke="black" stroke-dasharray="5,2" d="M390.09,-952.77C414.3,-941.58 448.37,-920.23 448.37,-888.72 448.37,-888.72 448.37,-888.72 448.37,-537.46 448.37,-478.53 358.88,-469.78 309.76,-469.42"/>
<polygon fill="black" stroke="black" points="309.56,-467.67 304.56,-469.42 309.55,-471.17 309.56,-467.67"/>
<text text-anchor="middle" x="455.87" y="-727.72" font-family="Times,serif" font-size="14.00">π₂</text>
</g>
<!-- n16 -->
<g id="node16" class="node">
<title>n16</title>
<ellipse fill="none" stroke="black" cx="239.37" cy="-1158.54" rx="24.08" ry="10.71"/>
<text text-anchor="middle" x="239.37" y="-1154.84" font-family="Times,serif" font-size="14.00">1:ΩL</text>
</g>
<!-- n16&#45;&gt;n30 -->
<g id="edge17" class="edge">
<title>n16&#45;&gt;n30</title>
<path fill="none" stroke="black" stroke-dasharray="5,2" d="M249.12,-1148.76C265.46,-1134.05 298.28,-1104.49 315.77,-1088.74"/>
<polygon fill="black" stroke="black" points="317.32,-1089.69 319.87,-1085.05 314.98,-1087.09 317.32,-1089.69"/>
<text text-anchor="middle" x="298.87" y="-1115.63" font-family="Times,serif" font-size="14.00">π₂</text>
</g>
<!-- n17 -->
<g id="node17" class="node">
<title>n17</title>
<ellipse fill="none" stroke="black" cx="163.37" cy="-577.67" rx="88.28" ry="10.71"/>
<text text-anchor="middle" x="163.37" y="-573.97" font-family="Times,serif" font-size="14.00">dynamics_•10:Ω•</text>
</g>
<!-- n17&#45;&gt;n34 -->
<g id="edge29" class="edge">
<title>n17&#45;&gt;n34</title>
<path fill="none" stroke="black" stroke-dasharray="5,2" d="M163.37,-566.71C163.37,-552.61 163.37,-526.01 163.37,-503.35 163.37,-503.35 163.37,-503.35 163.37,-261.03 163.37,-241.56 166.32,-219.08 168.39,-205.71"/>
<polygon fill="black" stroke="black" points="170.15,-205.78 169.21,-200.57 166.69,-205.23 170.15,-205.78"/>
<text text-anchor="middle" x="170.87" y="-396.55" font-family="Times,serif" font-size="14.00">π₂</text>
</g>
<!-- n18 -->
<g id="node18" class="node">
<title>n18</title>
<ellipse fill="none" stroke="black" cx="658.37" cy="-1119.33" rx="61.54" ry="10.71"/>
<text text-anchor="middle" x="658.37" y="-1115.63" font-family="Times,serif" font-size="14.00">stress_A:ΩC</text>
</g>
<!-- n38 -->
<g id="node38" class="node">
<title>n38</title>
<polygon fill="none" stroke="black" points="673.37,-775.03 619.37,-775.03 619.37,-760.03 673.37,-760.03 673.37,-775.03"/>
<text text-anchor="middle" x="646.37" y="-763.83" font-family="Times,serif" font-size="14.00">Ω•×ΩC</text>
</g>
<!-- n18&#45;&gt;n38 -->
<g id="edge41" class="edge">
<title>n18&#45;&gt;n38</title>
<path fill="none" stroke="black" stroke-dasharray="5,2" d="M655.94,-1108.68C652.43,-1093.86 646.37,-1064.6 646.37,-1039.35 646.37,-1039.35 646.37,-1039.35 646.37,-847.78 646.37,-823.76 646.37,-795.65 646.37,-780.19"/>
<polygon fill="black" stroke="black" points="648.12,-780.1 646.37,-775.1 644.62,-780.1 648.12,-780.1"/>
<text text-anchor="middle" x="653.87" y="-959.34" font-family="Times,serif" font-size="14.00">π₂</text>
</g>
<!-- n19 -->
<g id="node19" class="node">
<title>n19</title>
<ellipse fill="none" stroke="black" cx="570.37" cy="-1158.54" rx="60.21" ry="10.71"/>
<text text-anchor="middle" x="570.37" y="-1154.84" font-family="Times,serif" font-size="14.00">stress_ρ:ΩC</text>
</g>
<!-- n36 -->
<g id="node36" class="node">
<title>n36</title>
<polygon fill="none" stroke="black" points="579.37,-1084.79 523.37,-1084.79 523.37,-1069.79 579.37,-1069.79 579.37,-1084.79"/>
<text text-anchor="middle" x="551.37" y="-1073.59" font-family="Times,serif" font-size="14.00">ΩC×ΩC</text>
</g>
<!-- n19&#45;&gt;n36 -->
<g id="edge34" class="edge">
<title>n19&#45;&gt;n36</title>
<path fill="none" stroke="black" stroke-dasharray="5,2" d="M568.04,-1147.83C564.54,-1133.25 557.95,-1105.76 554.19,-1090.06"/>
<polygon fill="black" stroke="black" points="555.81,-1089.31 552.94,-1084.86 552.41,-1090.13 555.81,-1089.31"/>
<text text-anchor="middle" x="570.87" y="-1115.63" font-family="Times,serif" font-size="14.00">π₁</text>
</g>
<!-- n20 -->
<g id="node20" class="node">
<title>n20</title>
<ellipse fill="none" stroke="black" cx="431.37" cy="-1158.54" rx="60.62" ry="10.71"/>
<text text-anchor="middle" x="431.37" y="-1154.84" font-family="Times,serif" font-size="14.00">stress_g:ΩC</text>
</g>
<!-- n20&#45;&gt;n36 -->
<g id="edge35" class="edge">
<title>n20&#45;&gt;n36</title>
<path fill="none" stroke="black" stroke-dasharray="5,2" d="M446.14,-1148.16C454.46,-1142.85 465.02,-1136.07 474.37,-1129.94 496.32,-1115.53 521.56,-1098.51 536.99,-1088.06"/>
<polygon fill="black" stroke="black" points="538.29,-1089.29 541.44,-1085.04 536.32,-1086.4 538.29,-1089.29"/>
<text text-anchor="middle" x="512.87" y="-1115.63" font-family="Times,serif" font-size="14.00">π₂</text>
</g>
<!-- n21 -->
<g id="node21" class="node">
<title>n21</title>
<ellipse fill="none" stroke="black" cx="749.37" cy="-848.78" rx="65.11" ry="10.71"/>
<text text-anchor="middle" x="749.37" y="-845.08" font-family="Times,serif" font-size="14.00">stress_•1:Ω•</text>
</g>
<!-- n21&#45;&gt;n38 -->
<g id="edge40" class="edge">
<title>n21&#45;&gt;n38</title>
<path fill="none" stroke="black" stroke-dasharray="5,2" d="M736.74,-838.06C716.96,-822.84 678.9,-793.56 659.08,-778.3"/>
<polygon fill="black" stroke="black" points="659.94,-776.76 654.91,-775.1 657.8,-779.53 659.94,-776.76"/>
<text text-anchor="middle" x="713.87" y="-803.04" font-family="Times,serif" font-size="14.00">π₁</text>
</g>
<!-- n22 -->
<g id="node22" class="node">
<title>n22</title>
<ellipse fill="none" stroke="black" cx="839.37" cy="-1158.54" rx="24.08" ry="10.71"/>
<text text-anchor="middle" x="839.37" y="-1154.84" font-family="Times,serif" font-size="14.00">2:ΩL</text>
</g>
<!-- n35 -->
<g id="node35" class="node">
<title>n35</title>
<polygon fill="none" stroke="black" points="786.37,-931.32 734.37,-931.32 734.37,-916.32 786.37,-916.32 786.37,-931.32"/>
<text text-anchor="middle" x="760.37" y="-920.12" font-family="Times,serif" font-size="14.00">ΩL×Ω•</text>
</g>
<!-- n22&#45;&gt;n35 -->
<g id="edge31" class="edge">
<title>n22&#45;&gt;n35</title>
<path fill="none" stroke="black" stroke-dasharray="5,2" d="M843.77,-1147.87C855.21,-1121.19 883.1,-1045.06 855.37,-991.64 840.27,-962.57 806.08,-943.49 783.11,-933.42"/>
<polygon fill="black" stroke="black" points="783.67,-931.76 778.39,-931.41 782.3,-934.98 783.67,-931.76"/>
<text text-anchor="middle" x="873.87" y="-1034.65" font-family="Times,serif" font-size="14.00">π₁</text>
</g>
<!-- n22&#45;&gt;n41 -->
<g id="edge51" class="edge">
<title>n22&#45;&gt;n41</title>
<path fill="none" stroke="black" stroke-dasharray="5,2" d="M830.31,-1148.45C816.41,-1134.51 789.75,-1107.77 773.66,-1091.63"/>
<polygon fill="black" stroke="black" points="774.58,-1090.07 769.81,-1087.77 772.1,-1092.54 774.58,-1090.07"/>
</g>
<!-- n23 -->
<g id="node23" class="node">
<title>n23</title>
<ellipse fill="none" stroke="black" cx="760.37" cy="-1002.25" rx="85.62" ry="10.71"/>
<text text-anchor="middle" x="760.37" y="-998.55" font-family="Times,serif" font-size="14.00">stress_sum_1:Ω•</text>
</g>
<!-- n23&#45;&gt;n35 -->
<g id="edge32" class="edge">
<title>n23&#45;&gt;n35</title>
<path fill="none" stroke="black" stroke-dasharray="5,2" d="M760.37,-991.57C760.37,-977.55 760.37,-951.61 760.37,-936.53"/>
<polygon fill="black" stroke="black" points="762.12,-936.51 760.37,-931.51 758.62,-936.51 762.12,-936.51"/>
<text text-anchor="middle" x="767.87" y="-959.34" font-family="Times,serif" font-size="14.00">π₂</text>
</g>
<!-- n24 -->
<g id="node24" class="node">
<title>n24</title>
<ellipse fill="none" stroke="black" cx="529.37" cy="-806.74" rx="65.11" ry="10.71"/>
<text text-anchor="middle" x="529.37" y="-803.04" font-family="Times,serif" font-size="14.00">stress_•2:Ω•</text>
</g>
<!-- n39 -->
<g id="node39" class="node">
<title>n39</title>
<polygon fill="none" stroke="black" points="555.37,-624.39 503.37,-624.39 503.37,-609.39 555.37,-609.39 555.37,-624.39"/>
<text text-anchor="middle" x="529.37" y="-613.19" font-family="Times,serif" font-size="14.00">Ω•×Ω•</text>
</g>
<!-- n24&#45;&gt;n39 -->
<g id="edge44" class="edge">
<title>n24&#45;&gt;n39</title>
<path fill="none" stroke="black" stroke-dasharray="5,2" d="M529.37,-795.9C529.37,-764.22 529.37,-664.85 529.37,-630.06"/>
<polygon fill="black" stroke="black" points="531.12,-629.7 529.37,-624.7 527.62,-629.7 531.12,-629.7"/>
<text text-anchor="middle" x="536.87" y="-727.72" font-family="Times,serif" font-size="14.00">π₂</text>
</g>
<!-- n25 -->
<g id="node25" class="node">
<title>n25</title>
<ellipse fill="none" stroke="black" cx="553.37" cy="-1002.25" rx="65.11" ry="10.71"/>
<text text-anchor="middle" x="553.37" y="-998.55" font-family="Times,serif" font-size="14.00">stress_•3:Ω•</text>
</g>
<!-- n25&#45;&gt;n37 -->
<g id="edge37" class="edge">
<title>n25&#45;&gt;n37</title>
<path fill="none" stroke="black" stroke-dasharray="5,2" d="M550.33,-991.57C545.92,-977.55 537.78,-951.61 533.04,-936.53"/>
<polygon fill="black" stroke="black" points="534.63,-935.75 531.47,-931.51 531.3,-936.8 534.63,-935.75"/>
<text text-anchor="middle" x="550.87" y="-959.34" font-family="Times,serif" font-size="14.00">π₁</text>
</g>
<!-- n26 -->
<g id="node26" class="node">
<title>n26</title>
<ellipse fill="none" stroke="black" cx="646.37" cy="-695.31" rx="87.86" ry="10.71"/>
<text text-anchor="middle" x="646.37" y="-691.61" font-family="Times,serif" font-size="14.00">stress_mult_1:Ω•</text>
</g>
<!-- n26&#45;&gt;n39 -->
<g id="edge43" class="edge">
<title>n26&#45;&gt;n39</title>
<path fill="none" stroke="black" stroke-dasharray="5,2" d="M631.55,-684.63C608.95,-669.87 566.15,-641.91 543.79,-627.31"/>
<polygon fill="black" stroke="black" points="544.75,-625.84 539.6,-624.57 542.83,-628.77 544.75,-625.84"/>
<text text-anchor="middle" x="608.87" y="-652.4" font-family="Times,serif" font-size="14.00">π₁</text>
</g>
<!-- n27 -->
<g id="node27" class="node">
<title>n27</title>
</g>
<!-- n27&#45;&gt;n1 -->
<g id="edge1" class="edge">
<title>n27&#45;&gt;n1</title>
<path fill="none" stroke="black" d="M429.25,-1207.03C403.36,-1205.51 148.37,-1189.81 148.37,-1159.54 148.37,-1159.54 148.37,-1159.54 148.37,-847.78 148.37,-824.83 141.84,-798.86 137.12,-783.1"/>
<polygon fill="black" stroke="black" points="138.75,-782.42 135.61,-778.16 135.4,-783.45 138.75,-782.42"/>
</g>
<!-- n27&#45;&gt;n3 -->
<g id="edge2" class="edge">
<title>n27&#45;&gt;n3</title>
<path fill="none" stroke="black" d="M429.2,-1206.16C418.98,-1201.48 375.1,-1181.39 348.39,-1169.17"/>
<polygon fill="black" stroke="black" points="348.89,-1167.47 343.61,-1166.98 347.43,-1170.65 348.89,-1167.47"/>
</g>
<!-- n27&#45;&gt;n18 -->
<g id="edge3" class="edge">
<title>n27&#45;&gt;n18</title>
<path fill="none" stroke="black" d="M433.55,-1207.04C453.58,-1205.98 605.54,-1197.08 639.37,-1169.15 649.49,-1160.79 654.24,-1146.33 656.46,-1135.31"/>
<polygon fill="black" stroke="black" points="658.21,-1135.45 657.35,-1130.22 654.76,-1134.84 658.21,-1135.45"/>
</g>
<!-- n27&#45;&gt;n19 -->
<g id="edge4" class="edge">
<title>n27&#45;&gt;n19</title>
<path fill="none" stroke="black" d="M433.78,-1206.33C446.24,-1202.06 504.07,-1182.25 540.38,-1169.82"/>
<polygon fill="black" stroke="black" points="540.97,-1171.46 545.13,-1168.19 539.83,-1168.15 540.97,-1171.46"/>
</g>
<!-- n27&#45;&gt;n20 -->
<g id="edge5" class="edge">
<title>n27&#45;&gt;n20</title>
<path fill="none" stroke="black" d="M431.37,-1205.97C431.37,-1201.65 431.37,-1186.3 431.37,-1174.41"/>
<polygon fill="black" stroke="black" points="433.12,-1174.25 431.37,-1169.25 429.62,-1174.25 433.12,-1174.25"/>
</g>
<!-- n29&#45;&gt;n9 -->
<g id="edge15" class="edge">
<title>n29&#45;&gt;n9</title>
<path fill="none" stroke="black" d="M460.37,-461.67C460.37,-451.14 460.37,-430.4 460.37,-416.18"/>
<polygon fill="black" stroke="black" points="462.12,-415.91 460.37,-410.91 458.62,-415.91 462.12,-415.91"/>
<text text-anchor="middle" x="463.87" y="-432.65" font-family="Times,serif" font-size="14.00">*</text>
</g>
<!-- n30&#45;&gt;n15 -->
<g id="edge18" class="edge">
<title>n30&#45;&gt;n15</title>
<path fill="none" stroke="black" d="M329.69,-1069.6C335.84,-1051.89 352.68,-1003.42 361.24,-978.8"/>
<polygon fill="black" stroke="black" points="362.94,-979.23 362.93,-973.93 359.63,-978.08 362.94,-979.23"/>
<text text-anchor="middle" x="345.87" y="-1034.65" font-family="Times,serif" font-size="14.00">&#45;</text>
</g>
<!-- n31&#45;&gt;n11 -->
<g id="edge21" class="edge">
<title>n31&#45;&gt;n11</title>
<path fill="none" stroke="black" d="M278.37,-461.67C278.37,-451.14 278.37,-430.4 278.37,-416.18"/>
<polygon fill="black" stroke="black" points="280.12,-415.91 278.37,-410.91 276.62,-415.91 280.12,-415.91"/>
<text text-anchor="middle" x="284.87" y="-432.65" font-family="Times,serif" font-size="14.00">^</text>
</g>
<!-- n32&#45;&gt;n8 -->
<g id="edge24" class="edge">
<title>n32&#45;&gt;n8</title>
<path fill="none" stroke="black" d="M278.07,-323.46C277.6,-312.92 276.67,-292.19 276.04,-277.97"/>
<polygon fill="black" stroke="black" points="277.77,-277.61 275.8,-272.69 274.27,-277.77 277.77,-277.61"/>
<text text-anchor="middle" x="282.87" y="-294.44" font-family="Times,serif" font-size="14.00">∧</text>
</g>
<!-- n33&#45;&gt;n17 -->
<g id="edge27" class="edge">
<title>n33&#45;&gt;n17</title>
<path fill="none" stroke="black" d="M134.12,-687.76C138.95,-669.74 152.54,-619.07 159.36,-593.63"/>
<polygon fill="black" stroke="black" points="161.1,-593.89 160.7,-588.61 157.72,-592.99 161.1,-593.89"/>
<text text-anchor="middle" x="151.87" y="-652.4" font-family="Times,serif" font-size="14.00">^</text>
</g>
<!-- n34&#45;&gt;n7 -->
<g id="edge30" class="edge">
<title>n34&#45;&gt;n7</title>
<path fill="none" stroke="black" d="M170.37,-185.25C170.37,-174.71 170.37,-153.97 170.37,-139.76"/>
<polygon fill="black" stroke="black" points="172.12,-139.48 170.37,-134.48 168.62,-139.48 172.12,-139.48"/>
<text text-anchor="middle" x="175.87" y="-156.23" font-family="Times,serif" font-size="14.00">∧</text>
</g>
<!-- n35&#45;&gt;n21 -->
<g id="edge33" class="edge">
<title>n35&#45;&gt;n21</title>
<path fill="none" stroke="black" d="M759.35,-916.08C757.59,-904.4 753.94,-880.16 751.58,-864.45"/>
<polygon fill="black" stroke="black" points="753.3,-864.16 750.83,-859.48 749.84,-864.68 753.3,-864.16"/>
<text text-anchor="middle" x="757.87" y="-884.02" font-family="Times,serif" font-size="14.00">/</text>
</g>
<!-- n36&#45;&gt;n25 -->
<g id="edge36" class="edge">
<title>n36&#45;&gt;n25</title>
<path fill="none" stroke="black" d="M551.55,-1069.55C551.87,-1057.97 552.52,-1034.05 552.95,-1018.33"/>
<polygon fill="black" stroke="black" points="554.71,-1017.99 553.1,-1012.95 551.22,-1017.9 554.71,-1017.99"/>
<text text-anchor="middle" x="555.87" y="-1034.65" font-family="Times,serif" font-size="14.00">*</text>
</g>
<!-- n37&#45;&gt;n24 -->
<g id="edge39" class="edge">
<title>n37&#45;&gt;n24</title>
<path fill="none" stroke="black" d="M529.37,-916.3C529.37,-898.37 529.37,-847.94 529.37,-822.63"/>
<polygon fill="black" stroke="black" points="531.12,-822.63 529.37,-817.63 527.62,-822.63 531.12,-822.63"/>
<text text-anchor="middle" x="535.87" y="-884.02" font-family="Times,serif" font-size="14.00">^</text>
</g>
<!-- n38&#45;&gt;n26 -->
<g id="edge42" class="edge">
<title>n38&#45;&gt;n26</title>
<path fill="none" stroke="black" d="M646.37,-759.79C646.37,-748.67 646.37,-726.18 646.37,-711.18"/>
<polygon fill="black" stroke="black" points="648.12,-711.03 646.37,-706.03 644.62,-711.03 648.12,-711.03"/>
<text text-anchor="middle" x="649.87" y="-727.72" font-family="Times,serif" font-size="14.00">*</text>
</g>
<!-- n39&#45;&gt;n2 -->
<g id="edge45" class="edge">
<title>n39&#45;&gt;n2</title>
<path fill="none" stroke="black" d="M528,-609.37C525.48,-597.31 520.01,-571.2 516.52,-554.53"/>
<polygon fill="black" stroke="black" points="518.16,-553.81 515.42,-549.27 514.73,-554.52 518.16,-553.81"/>
<text text-anchor="middle" x="525.87" y="-573.97" font-family="Times,serif" font-size="14.00">*</text>
</g>
<!-- n40&#45;&gt;n6 -->
<g id="edge46" class="edge">
<title>n40&#45;&gt;n6</title>
<path fill="none" stroke="black" d="M270.17,-835.05C271.06,-821.02 272.48,-798.47 273.42,-783.58"/>
<polygon fill="black" stroke="black" points="275.17,-783.57 273.74,-778.47 271.68,-783.35 275.17,-783.57"/>
<text text-anchor="middle" x="279.87" y="-803.04" font-family="Times,serif" font-size="14.00">+</text>
</g>
<!-- n41&#45;&gt;n23 -->
<g id="edge47" class="edge">
<title>n41&#45;&gt;n23</title>
<path fill="none" stroke="black" d="M760.37,-1063.57C760.37,-1050.98 760.37,-1031.71 760.37,-1018.35"/>
<polygon fill="black" stroke="black" points="762.12,-1018.02 760.37,-1013.02 758.62,-1018.02 762.12,-1018.02"/>
<text text-anchor="middle" x="766.87" y="-1034.65" font-family="Times,serif" font-size="14.00">+</text>
</g>
</g>
</svg>
