<?xml version="1.0" encoding="UTF-8" standalone="no"?>
<!DOCTYPE svg PUBLIC "-//W3C//DTD SVG 1.1//EN"
 "http://www.w3.org/Graphics/SVG/1.1/DTD/svg11.dtd">
<!-- Generated by graphviz version 2.40.1 (0)
 -->
<!-- Title: G Pages: 1 -->
<svg width="1177pt" height="1002pt"
 viewBox="0.00 0.00 1177.42 1002.07" xmlns="http://www.w3.org/2000/svg" xmlns:xlink="http://www.w3.org/1999/xlink">
<g id="graph0" class="graph" transform="scale(1 1) rotate(0) translate(4 998.0681)">
<title>G</title>
<polygon fill="#ffffff" stroke="transparent" points="-4,4 -4,-998.0681 1173.4214,-998.0681 1173.4214,4 -4,4"/>
<!-- n1 -->
<g id="node1" class="node">
<title>n1</title>
<ellipse fill="none" stroke="#000000" cx="269.7817" cy="-942.4615" rx="22.7556" ry="10.7143"/>
<text text-anchor="middle" x="269.7817" y="-938.7615" font-family="Times,serif" font-size="14.00" fill="#000000">h:Ω₀</text>
</g>
<!-- n4 -->
<g id="node4" class="node">
<title>n4</title>
<ellipse fill="none" stroke="#000000" cx="77.7817" cy="-51.6066" rx="77.5641" ry="10.7143"/>
<text text-anchor="middle" x="77.7817" y="-47.9066" font-family="Times,serif" font-size="14.00" fill="#000000">dynamics_ḣ:Ω•</text>
</g>
<!-- n1&#45;&gt;n4 -->
<g id="edge7" class="edge">
<title>n1&#45;&gt;n4</title>
<path fill="none" stroke="#000000" d="M248.3055,-938.8032C195.1619,-929.1445 61.7817,-900.9446 61.7817,-861.2067 61.7817,-861.2067 61.7817,-861.2067 61.7817,-120.7132 61.7817,-101.8481 67.5108,-80.8154 72.1126,-66.9642"/>
<polygon fill="#000000" stroke="#000000" points="73.7786,-67.5007 73.7443,-62.2034 70.4676,-66.3659 73.7786,-67.5007"/>
<text text-anchor="middle" x="67.7817" y="-474.9726" font-family="Times,serif" font-size="14.00" fill="#000000">∂ₜ</text>
</g>
<!-- n9 -->
<g id="node9" class="node">
<title>n9</title>
<ellipse fill="none" stroke="#000000" cx="159.7817" cy="-819.165" rx="83.3772" ry="10.7143"/>
<text text-anchor="middle" x="159.7817" y="-815.465" font-family="Times,serif" font-size="14.00" fill="#000000">dynamics_•3:Ω•</text>
</g>
<!-- n1&#45;&gt;n9 -->
<g id="edge8" class="edge">
<title>n1&#45;&gt;n9</title>
<path fill="none" stroke="#000000" d="M253.7261,-934.6648C233.2188,-923.9148 197.9735,-902.6488 177.7817,-874.6417 169.2574,-862.818 164.6282,-846.7499 162.209,-834.9494"/>
<polygon fill="#000000" stroke="#000000" points="163.895,-834.4465 161.2469,-829.8585 160.4559,-835.0965 163.895,-834.4465"/>
<text text-anchor="middle" x="222.7817" y="-899.5483" font-family="Times,serif" font-size="14.00" fill="#000000">d</text>
</g>
<!-- n14 -->
<g id="node14" class="node">
<title>n14</title>
<ellipse fill="none" stroke="#000000" cx="269.7817" cy="-861.2067" rx="83.3772" ry="10.7143"/>
<text text-anchor="middle" x="269.7817" y="-857.5067" font-family="Times,serif" font-size="14.00" fill="#000000">dynamics_•8:Ω•</text>
</g>
<!-- n1&#45;&gt;n14 -->
<g id="edge9" class="edge">
<title>n1&#45;&gt;n14</title>
<path fill="none" stroke="#000000" d="M269.7817,-931.8389C269.7817,-917.848 269.7817,-893.1311 269.7817,-876.9604"/>
<polygon fill="#000000" stroke="#000000" points="271.5318,-876.8319 269.7817,-871.8319 268.0318,-876.832 271.5318,-876.8319"/>
<text text-anchor="middle" x="274.7817" y="-899.5483" font-family="Times,serif" font-size="14.00" fill="#000000">d</text>
</g>
<!-- n31 -->
<g id="node31" class="node">
<title>n31</title>
<polygon fill="none" stroke="#000000" points="444.2817,-709.0254 393.2817,-709.0254 393.2817,-694.0254 444.2817,-694.0254 444.2817,-709.0254"/>
<text text-anchor="middle" x="418.7817" y="-697.8254" font-family="Times,serif" font-size="14.00" fill="#000000">Ω₀×Ω•</text>
</g>
<!-- n1&#45;&gt;n31 -->
<g id="edge19" class="edge">
<title>n1&#45;&gt;n31</title>
<path fill="none" stroke="#000000" stroke-dasharray="5,2" d="M285.9233,-934.7261C306.5235,-924.0424 341.8691,-902.8479 361.7817,-874.6417 379.4793,-849.5733 371.6045,-837.5076 381.7817,-808.5584 390.8711,-782.7037 395.9506,-777.2893 404.7817,-751.3452 409.0714,-738.7431 413.0855,-724.0392 415.7059,-713.8883"/>
<polygon fill="#000000" stroke="#000000" points="417.4049,-714.3076 416.9433,-709.0303 414.0132,-713.4437 417.4049,-714.3076"/>
<text text-anchor="middle" x="389.7817" y="-815.465" font-family="Times,serif" font-size="14.00" fill="#000000">π₁</text>
</g>
<!-- n2 -->
<g id="node2" class="node">
<title>n2</title>
<ellipse fill="none" stroke="#000000" cx="312.7817" cy="-301.2462" rx="23.1702" ry="10.7143"/>
<text text-anchor="middle" x="312.7817" y="-297.5462" font-family="Times,serif" font-size="14.00" fill="#000000">Γ:Ω₀</text>
</g>
<!-- n34 -->
<g id="node34" class="node">
<title>n34</title>
<polygon fill="none" stroke="#000000" points="212.2817,-128.2132 161.2817,-128.2132 161.2817,-113.2132 212.2817,-113.2132 212.2817,-128.2132"/>
<text text-anchor="middle" x="186.7817" y="-117.0132" font-family="Times,serif" font-size="14.00" fill="#000000">Ω₀×Ω•</text>
</g>
<!-- n2&#45;&gt;n34 -->
<g id="edge28" class="edge">
<title>n2&#45;&gt;n34</title>
<path fill="none" stroke="#000000" stroke-dasharray="5,2" d="M312.3087,-290.3339C310.8114,-267.52 304.5891,-214.0152 278.7817,-179.2132 261.592,-156.0323 232.2441,-139.7127 211.3178,-130.3041"/>
<polygon fill="#000000" stroke="#000000" points="212.0051,-128.6947 206.7233,-128.288 210.5987,-131.8997 212.0051,-128.6947"/>
<text text-anchor="middle" x="311.7817" y="-222.2264" font-family="Times,serif" font-size="14.00" fill="#000000">π₁</text>
</g>
<!-- n3 -->
<g id="node3" class="node">
<title>n3</title>
<ellipse fill="none" stroke="#000000" cx="624.7817" cy="-942.4615" rx="26.3269" ry="10.7143"/>
<text text-anchor="middle" x="624.7817" y="-938.7615" font-family="Times,serif" font-size="14.00" fill="#000000">n:ΩC</text>
</g>
<!-- n29 -->
<g id="node29" class="node">
<title>n29</title>
<polygon fill="none" stroke="#000000" points="492.7817,-868.7067 434.7817,-868.7067 434.7817,-853.7067 492.7817,-853.7067 492.7817,-868.7067"/>
<text text-anchor="middle" x="463.7817" y="-857.5067" font-family="Times,serif" font-size="14.00" fill="#000000">ΩC×ΩL</text>
</g>
<!-- n3&#45;&gt;n29 -->
<g id="edge13" class="edge">
<title>n3&#45;&gt;n29</title>
<path fill="none" stroke="#000000" stroke-dasharray="5,2" d="M608.1583,-934.0719C578.1405,-918.9222 515.0501,-887.0812 483.1407,-870.9769"/>
<polygon fill="#000000" stroke="#000000" points="483.9189,-869.4094 478.6666,-868.7189 482.3419,-872.5341 483.9189,-869.4094"/>
<text text-anchor="middle" x="571.7817" y="-899.5483" font-family="Times,serif" font-size="14.00" fill="#000000">π₁</text>
</g>
<!-- n37 -->
<g id="node37" class="node">
<title>n37</title>
<polygon fill="none" stroke="#000000" points="698.7817,-709.0254 642.7817,-709.0254 642.7817,-694.0254 698.7817,-694.0254 698.7817,-709.0254"/>
<text text-anchor="middle" x="670.7817" y="-697.8254" font-family="Times,serif" font-size="14.00" fill="#000000">Ω•×ΩC</text>
</g>
<!-- n3&#45;&gt;n37 -->
<g id="edge38" class="edge">
<title>n3&#45;&gt;n37</title>
<path fill="none" stroke="#000000" stroke-dasharray="5,2" d="M626.8177,-931.7979C634.3058,-892.5769 660.3022,-756.4148 668.3727,-714.1434"/>
<polygon fill="#000000" stroke="#000000" points="670.1293,-714.2743 669.3481,-709.0347 666.6913,-713.6178 670.1293,-714.2743"/>
<text text-anchor="middle" x="658.7817" y="-815.465" font-family="Times,serif" font-size="14.00" fill="#000000">π₂</text>
</g>
<!-- n40 -->
<g id="node40" class="node">
<title>n40</title>
<ellipse fill="none" stroke="#000000" cx="535.7817" cy="-861.2067" rx="13.3704" ry="13.3704"/>
<text text-anchor="middle" x="535.7817" y="-857.5067" font-family="Times,serif" font-size="14.00" fill="#000000">Σ1</text>
</g>
<!-- n3&#45;&gt;n40 -->
<g id="edge48" class="edge">
<title>n3&#45;&gt;n40</title>
<path fill="none" stroke="#000000" stroke-dasharray="5,2" d="M619.6817,-931.8702C614.0391,-920.993 604.0948,-904.0812 591.7817,-892.6417 580.4893,-882.1504 565.0616,-873.8228 553.2584,-868.3816"/>
<polygon fill="#000000" stroke="#000000" points="553.7232,-866.6724 548.4444,-866.2284 552.2942,-869.8674 553.7232,-866.6724"/>
</g>
<!-- n41 -->
<g id="node41" class="node">
<title>n41</title>
<ellipse fill="none" stroke="#000000" cx="911.7817" cy="-861.2067" rx="13.3704" ry="13.3704"/>
<text text-anchor="middle" x="911.7817" y="-857.5067" font-family="Times,serif" font-size="14.00" fill="#000000">Σ2</text>
</g>
<!-- n3&#45;&gt;n41 -->
<g id="edge50" class="edge">
<title>n3&#45;&gt;n41</title>
<path fill="none" stroke="#000000" stroke-dasharray="5,2" d="M645.4055,-935.7976C650.1039,-934.3952 655.0933,-932.9966 659.7817,-931.8549 702.3839,-921.4807 715.6236,-928.9735 756.7817,-913.8549 774.5747,-907.319 776.253,-899.8565 793.7817,-892.6417 827.6828,-878.6881 869.6248,-869.2423 893.2768,-864.5811"/>
<polygon fill="#000000" stroke="#000000" points="893.7415,-866.2738 898.318,-863.6058 893.0766,-862.8375 893.7415,-866.2738"/>
</g>
<!-- n28 -->
<g id="node28" class="node">
<title>n28</title>
</g>
<!-- n4&#45;&gt;n28 -->
<g id="edge6" class="edge">
<title>n4&#45;&gt;n28</title>
<path fill="none" stroke="#000000" d="M77.7817,-40.5973C77.7817,-31.135 77.7817,-17.7454 77.7817,-9.4807"/>
<polygon fill="#000000" stroke="#000000" points="79.5318,-9.3096 77.7817,-4.3096 76.0318,-9.3096 79.5318,-9.3096"/>
</g>
<!-- n5 -->
<g id="node5" class="node">
<title>n5</title>
<ellipse fill="none" stroke="#000000" cx="535.7817" cy="-942.4615" rx="25.4118" ry="10.7143"/>
<text text-anchor="middle" x="535.7817" y="-938.7615" font-family="Times,serif" font-size="14.00" fill="#000000">2:ΩL</text>
</g>
<!-- n5&#45;&gt;n40 -->
<g id="edge49" class="edge">
<title>n5&#45;&gt;n40</title>
<path fill="none" stroke="#000000" stroke-dasharray="5,2" d="M535.7817,-931.8389C535.7817,-918.6983 535.7817,-896.0957 535.7817,-879.999"/>
<polygon fill="#000000" stroke="#000000" points="537.5318,-879.8126 535.7817,-874.8126 534.0318,-879.8127 537.5318,-879.8126"/>
</g>
<!-- n6 -->
<g id="node6" class="node">
<title>n6</title>
<ellipse fill="none" stroke="#000000" cx="513.7817" cy="-779.9518" rx="104.8038" ry="10.7143"/>
<text text-anchor="middle" x="513.7817" y="-776.2518" font-family="Times,serif" font-size="14.00" fill="#000000">dynamics_sum_1:Ω•</text>
</g>
<!-- n6&#45;&gt;n31 -->
<g id="edge20" class="edge">
<title>n6&#45;&gt;n31</title>
<path fill="none" stroke="#000000" stroke-dasharray="5,2" d="M500.9696,-769.3749C482.8889,-754.4485 450.0642,-727.3504 431.847,-712.3114"/>
<polygon fill="#000000" stroke="#000000" points="432.947,-710.9502 427.9771,-709.1165 430.7188,-713.6493 432.947,-710.9502"/>
<text text-anchor="middle" x="485.7817" y="-737.0386" font-family="Times,serif" font-size="14.00" fill="#000000">π₂</text>
</g>
<!-- n7 -->
<g id="node7" class="node">
<title>n7</title>
<ellipse fill="none" stroke="#000000" cx="186.7817" cy="-189.8198" rx="83.3772" ry="10.7143"/>
<text text-anchor="middle" x="186.7817" y="-186.1198" font-family="Times,serif" font-size="14.00" fill="#000000">dynamics_•1:Ω•</text>
</g>
<!-- n7&#45;&gt;n34 -->
<g id="edge29" class="edge">
<title>n7&#45;&gt;n34</title>
<path fill="none" stroke="#000000" stroke-dasharray="5,2" d="M186.7817,-179.0219C186.7817,-166.6655 186.7817,-146.4535 186.7817,-133.3683"/>
<polygon fill="#000000" stroke="#000000" points="188.5318,-133.2403 186.7817,-128.2404 185.0318,-133.2404 188.5318,-133.2403"/>
<text text-anchor="middle" x="194.7817" y="-150.0132" font-family="Times,serif" font-size="14.00" fill="#000000">π₂</text>
</g>
<!-- n8 -->
<g id="node8" class="node">
<title>n8</title>
<ellipse fill="none" stroke="#000000" cx="186.7817" cy="-262.033" rx="83.3772" ry="10.7143"/>
<text text-anchor="middle" x="186.7817" y="-258.333" font-family="Times,serif" font-size="14.00" fill="#000000">dynamics_•2:Ω•</text>
</g>
<!-- n8&#45;&gt;n7 -->
<g id="edge12" class="edge">
<title>n8&#45;&gt;n7</title>
<path fill="none" stroke="#000000" d="M186.7817,-251.3777C186.7817,-239.3246 186.7817,-219.5725 186.7817,-205.7005"/>
<polygon fill="#000000" stroke="#000000" points="188.5318,-205.5188 186.7817,-200.5188 185.0318,-205.5189 188.5318,-205.5188"/>
<text text-anchor="middle" x="205.7817" y="-222.2264" font-family="Times,serif" font-size="14.00" fill="#000000">⋆⋅d⋅⋆</text>
</g>
<!-- n33 -->
<g id="node33" class="node">
<title>n33</title>
<polygon fill="none" stroke="#000000" points="213.2817,-344.8528 160.2817,-344.8528 160.2817,-329.8528 213.2817,-329.8528 213.2817,-344.8528"/>
<text text-anchor="middle" x="186.7817" y="-333.6528" font-family="Times,serif" font-size="14.00" fill="#000000">Ω•×Ω•</text>
</g>
<!-- n9&#45;&gt;n33 -->
<g id="edge25" class="edge">
<title>n9&#45;&gt;n33</title>
<path fill="none" stroke="#000000" stroke-dasharray="5,2" d="M147.6693,-808.2433C133.4497,-794.1603 111.7817,-768.1958 111.7817,-740.7386 111.7817,-740.7386 111.7817,-740.7386 111.7817,-406.4594 111.7817,-378.0282 141.2907,-358.0742 163.2892,-347.149"/>
<polygon fill="#000000" stroke="#000000" points="164.1071,-348.6976 167.8561,-344.9549 162.5914,-345.5428 164.1071,-348.6976"/>
<text text-anchor="middle" x="119.7817" y="-586.399" font-family="Times,serif" font-size="14.00" fill="#000000">π₁</text>
</g>
<!-- n10 -->
<g id="node10" class="node">
<title>n10</title>
<ellipse fill="none" stroke="#000000" cx="239.7817" cy="-406.4594" rx="83.3772" ry="10.7143"/>
<text text-anchor="middle" x="239.7817" y="-402.7594" font-family="Times,serif" font-size="14.00" fill="#000000">dynamics_•4:Ω•</text>
</g>
<!-- n10&#45;&gt;n33 -->
<g id="edge26" class="edge">
<title>n10&#45;&gt;n33</title>
<path fill="none" stroke="#000000" stroke-dasharray="5,2" d="M231.5005,-395.6615C221.7701,-382.9741 205.6881,-362.0047 195.6929,-348.9721"/>
<polygon fill="#000000" stroke="#000000" points="196.9861,-347.7825 192.5546,-344.88 194.2088,-349.9125 196.9861,-347.7825"/>
<text text-anchor="middle" x="224.7817" y="-366.6528" font-family="Times,serif" font-size="14.00" fill="#000000">π₂</text>
</g>
<!-- n11 -->
<g id="node11" class="node">
<title>n11</title>
<ellipse fill="none" stroke="#000000" cx="272.7817" cy="-550.8858" rx="83.3772" ry="10.7143"/>
<text text-anchor="middle" x="272.7817" y="-547.1858" font-family="Times,serif" font-size="14.00" fill="#000000">dynamics_•5:Ω•</text>
</g>
<!-- n32 -->
<g id="node32" class="node">
<title>n32</title>
<polygon fill="none" stroke="#000000" points="299.2817,-486.1726 246.2817,-486.1726 246.2817,-471.1726 299.2817,-471.1726 299.2817,-486.1726"/>
<text text-anchor="middle" x="272.7817" y="-474.9726" font-family="Times,serif" font-size="14.00" fill="#000000">Ω•×Ω•</text>
</g>
<!-- n11&#45;&gt;n32 -->
<g id="edge22" class="edge">
<title>n11&#45;&gt;n32</title>
<path fill="none" stroke="#000000" stroke-dasharray="5,2" d="M272.7817,-540.2305C272.7817,-527.2076 272.7817,-505.197 272.7817,-491.3262"/>
<polygon fill="#000000" stroke="#000000" points="274.5318,-491.2727 272.7817,-486.2727 271.0318,-491.2727 274.5318,-491.2727"/>
<text text-anchor="middle" x="280.7817" y="-511.0792" font-family="Times,serif" font-size="14.00" fill="#000000">π₁</text>
</g>
<!-- n12 -->
<g id="node12" class="node">
<title>n12</title>
<ellipse fill="none" stroke="#000000" cx="222.7817" cy="-701.5254" rx="83.3772" ry="10.7143"/>
<text text-anchor="middle" x="222.7817" y="-697.8254" font-family="Times,serif" font-size="14.00" fill="#000000">dynamics_•6:Ω•</text>
</g>
<!-- n30 -->
<g id="node30" class="node">
<title>n30</title>
<polygon fill="none" stroke="#000000" points="299.2817,-636.8122 246.2817,-636.8122 246.2817,-621.8122 299.2817,-621.8122 299.2817,-636.8122"/>
<text text-anchor="middle" x="272.7817" y="-625.6122" font-family="Times,serif" font-size="14.00" fill="#000000">Ω•×Ω•</text>
</g>
<!-- n12&#45;&gt;n30 -->
<g id="edge16" class="edge">
<title>n12&#45;&gt;n30</title>
<path fill="none" stroke="#000000" stroke-dasharray="5,2" d="M230.1594,-690.8701C239.336,-677.6167 254.9578,-655.0547 264.5251,-641.237"/>
<polygon fill="#000000" stroke="#000000" points="266.1119,-642.0193 267.5195,-636.9123 263.2344,-640.0269 266.1119,-642.0193"/>
<text text-anchor="middle" x="260.7817" y="-661.7188" font-family="Times,serif" font-size="14.00" fill="#000000">π₁</text>
</g>
<!-- n13 -->
<g id="node13" class="node">
<title>n13</title>
<ellipse fill="none" stroke="#000000" cx="226.7817" cy="-779.9518" rx="83.3772" ry="10.7143"/>
<text text-anchor="middle" x="226.7817" y="-776.2518" font-family="Times,serif" font-size="14.00" fill="#000000">dynamics_•7:Ω•</text>
</g>
<!-- n13&#45;&gt;n12 -->
<g id="edge11" class="edge">
<title>n13&#45;&gt;n12</title>
<path fill="none" stroke="#000000" d="M211.8658,-769.3888C206.3505,-764.584 200.7287,-758.3916 197.7817,-751.3452 194.1441,-742.6472 194.4683,-738.9587 197.7817,-730.132 199.6941,-725.0377 202.9703,-720.2559 206.5326,-716.1142"/>
<polygon fill="#000000" stroke="#000000" points="208.0429,-717.0583 210.1504,-712.1981 205.4721,-714.6832 208.0429,-717.0583"/>
<text text-anchor="middle" x="213.2817" y="-737.0386" font-family="Times,serif" font-size="14.00" fill="#000000">mag</text>
</g>
<!-- n14&#45;&gt;n13 -->
<g id="edge10" class="edge">
<title>n14&#45;&gt;n13</title>
<path fill="none" stroke="#000000" d="M265.4803,-850.476C261.0097,-839.6621 253.5857,-822.609 245.7817,-808.5584 243.2198,-803.9458 240.1584,-799.1035 237.2492,-794.7417"/>
<polygon fill="#000000" stroke="#000000" points="238.671,-793.7203 234.4148,-790.5663 235.7752,-795.6861 238.671,-793.7203"/>
<text text-anchor="middle" x="266.2817" y="-815.465" font-family="Times,serif" font-size="14.00" fill="#000000">♯ᵖᵖ</text>
</g>
<!-- n15 -->
<g id="node15" class="node">
<title>n15</title>
<ellipse fill="none" stroke="#000000" cx="320.7817" cy="-740.7386" rx="83.3772" ry="10.7143"/>
<text text-anchor="middle" x="320.7817" y="-737.0386" font-family="Times,serif" font-size="14.00" fill="#000000">dynamics_•9:Ω•</text>
</g>
<!-- n15&#45;&gt;n30 -->
<g id="edge17" class="edge">
<title>n15&#45;&gt;n30</title>
<path fill="none" stroke="#000000" stroke-dasharray="5,2" d="M320.9439,-730.0912C320.771,-719.7625 319.6192,-703.8054 314.7817,-690.9188 307.5697,-671.7066 293.1835,-652.6639 283.2743,-640.9484"/>
<polygon fill="#000000" stroke="#000000" points="284.439,-639.6194 279.8476,-636.977 281.789,-641.9059 284.439,-639.6194"/>
<text text-anchor="middle" x="327.7817" y="-697.8254" font-family="Times,serif" font-size="14.00" fill="#000000">π₂</text>
</g>
<!-- n16 -->
<g id="node16" class="node">
<title>n16</title>
<ellipse fill="none" stroke="#000000" cx="463.7817" cy="-942.4615" rx="25.4118" ry="10.7143"/>
<text text-anchor="middle" x="463.7817" y="-938.7615" font-family="Times,serif" font-size="14.00" fill="#000000">1:ΩL</text>
</g>
<!-- n16&#45;&gt;n29 -->
<g id="edge14" class="edge">
<title>n16&#45;&gt;n29</title>
<path fill="none" stroke="#000000" stroke-dasharray="5,2" d="M463.7817,-931.8389C463.7817,-917.1268 463.7817,-890.5543 463.7817,-874.5304"/>
<polygon fill="#000000" stroke="#000000" points="465.5318,-874.1456 463.7817,-869.1457 462.0318,-874.1457 465.5318,-874.1456"/>
<text text-anchor="middle" x="471.7817" y="-899.5483" font-family="Times,serif" font-size="14.00" fill="#000000">π₂</text>
</g>
<!-- n17 -->
<g id="node17" class="node">
<title>n17</title>
<ellipse fill="none" stroke="#000000" cx="401.7817" cy="-590.099" rx="89.6056" ry="10.7143"/>
<text text-anchor="middle" x="401.7817" y="-586.399" font-family="Times,serif" font-size="14.00" fill="#000000">dynamics_•10:Ω•</text>
</g>
<!-- n17&#45;&gt;n32 -->
<g id="edge23" class="edge">
<title>n17&#45;&gt;n32</title>
<path fill="none" stroke="#000000" stroke-dasharray="5,2" d="M395.3408,-579.3512C388.5967,-568.6564 377.2642,-552.1676 364.7817,-540.2792 342.3255,-518.8917 311.636,-499.9942 292.0084,-488.9422"/>
<polygon fill="#000000" stroke="#000000" points="292.4885,-487.2067 287.2684,-486.3047 290.7866,-490.2651 292.4885,-487.2067"/>
<text text-anchor="middle" x="391.7817" y="-547.1858" font-family="Times,serif" font-size="14.00" fill="#000000">π₂</text>
</g>
<!-- n18 -->
<g id="node18" class="node">
<title>n18</title>
<ellipse fill="none" stroke="#000000" cx="1105.7817" cy="-903.2483" rx="63.7795" ry="10.7143"/>
<text text-anchor="middle" x="1105.7817" y="-899.5483" font-family="Times,serif" font-size="14.00" fill="#000000">stress_A:ΩC</text>
</g>
<!-- n38 -->
<g id="node38" class="node">
<title>n38</title>
<polygon fill="none" stroke="#000000" points="1004.7817,-558.3858 948.7817,-558.3858 948.7817,-543.3858 1004.7817,-543.3858 1004.7817,-558.3858"/>
<text text-anchor="middle" x="976.7817" y="-547.1858" font-family="Times,serif" font-size="14.00" fill="#000000">Ω•×ΩC</text>
</g>
<!-- n18&#45;&gt;n38 -->
<g id="edge41" class="edge">
<title>n18&#45;&gt;n38</title>
<path fill="none" stroke="#000000" stroke-dasharray="5,2" d="M1101.3282,-892.5773C1095.1638,-876.8151 1084.7817,-846.2482 1084.7817,-819.165 1084.7817,-819.165 1084.7817,-819.165 1084.7817,-629.3122 1084.7817,-591.81 1041.6174,-570.3805 1009.8652,-559.6901"/>
<polygon fill="#000000" stroke="#000000" points="1010.1717,-557.9495 1004.8755,-558.0657 1009.0882,-561.2776 1010.1717,-557.9495"/>
<text text-anchor="middle" x="1092.7817" y="-737.0386" font-family="Times,serif" font-size="14.00" fill="#000000">π₂</text>
</g>
<!-- n19 -->
<g id="node19" class="node">
<title>n19</title>
<ellipse fill="none" stroke="#000000" cx="872.7817" cy="-942.4615" rx="62.4516" ry="10.7143"/>
<text text-anchor="middle" x="872.7817" y="-938.7615" font-family="Times,serif" font-size="14.00" fill="#000000">stress_ρ:ΩC</text>
</g>
<!-- n36 -->
<g id="node36" class="node">
<title>n36</title>
<polygon fill="none" stroke="#000000" points="770.2817,-868.7067 711.2817,-868.7067 711.2817,-853.7067 770.2817,-853.7067 770.2817,-868.7067"/>
<text text-anchor="middle" x="740.7817" y="-857.5067" font-family="Times,serif" font-size="14.00" fill="#000000">ΩC×ΩC</text>
</g>
<!-- n19&#45;&gt;n36 -->
<g id="edge34" class="edge">
<title>n19&#45;&gt;n36</title>
<path fill="none" stroke="#000000" stroke-dasharray="5,2" d="M856.0639,-932.1705C830.724,-916.5722 782.8664,-887.1126 757.5165,-871.508"/>
<polygon fill="#000000" stroke="#000000" points="758.2309,-869.8929 753.0556,-868.762 756.3962,-872.8734 758.2309,-869.8929"/>
<text text-anchor="middle" x="830.7817" y="-899.5483" font-family="Times,serif" font-size="14.00" fill="#000000">π₁</text>
</g>
<!-- n20 -->
<g id="node20" class="node">
<title>n20</title>
<ellipse fill="none" stroke="#000000" cx="730.7817" cy="-942.4615" rx="62.4516" ry="10.7143"/>
<text text-anchor="middle" x="730.7817" y="-938.7615" font-family="Times,serif" font-size="14.00" fill="#000000">stress_g:ΩC</text>
</g>
<!-- n20&#45;&gt;n36 -->
<g id="edge35" class="edge">
<title>n20&#45;&gt;n36</title>
<path fill="none" stroke="#000000" stroke-dasharray="5,2" d="M732.0891,-931.8389C733.9156,-916.9977 737.2274,-890.0872 739.1936,-874.1112"/>
<polygon fill="#000000" stroke="#000000" points="740.9308,-874.322 739.8047,-869.1457 737.457,-873.8944 740.9308,-874.322"/>
<text text-anchor="middle" x="744.7817" y="-899.5483" font-family="Times,serif" font-size="14.00" fill="#000000">π₂</text>
</g>
<!-- n21 -->
<g id="node21" class="node">
<title>n21</title>
<ellipse fill="none" stroke="#000000" cx="976.7817" cy="-629.3122" rx="66.4361" ry="10.7143"/>
<text text-anchor="middle" x="976.7817" y="-625.6122" font-family="Times,serif" font-size="14.00" fill="#000000">stress_•1:Ω•</text>
</g>
<!-- n21&#45;&gt;n38 -->
<g id="edge40" class="edge">
<title>n21&#45;&gt;n38</title>
<path fill="none" stroke="#000000" stroke-dasharray="5,2" d="M976.7817,-618.4074C976.7817,-604.013 976.7817,-578.7217 976.7817,-563.5136"/>
<polygon fill="#000000" stroke="#000000" points="978.5318,-563.4056 976.7817,-558.4057 975.0318,-563.4057 978.5318,-563.4056"/>
<text text-anchor="middle" x="984.7817" y="-586.399" font-family="Times,serif" font-size="14.00" fill="#000000">π₁</text>
</g>
<!-- n22 -->
<g id="node22" class="node">
<title>n22</title>
<ellipse fill="none" stroke="#000000" cx="1013.7817" cy="-942.4615" rx="25.4118" ry="10.7143"/>
<text text-anchor="middle" x="1013.7817" y="-938.7615" font-family="Times,serif" font-size="14.00" fill="#000000">2:ΩL</text>
</g>
<!-- n35 -->
<g id="node35" class="node">
<title>n35</title>
<polygon fill="none" stroke="#000000" points="1004.2817,-709.0254 949.2817,-709.0254 949.2817,-694.0254 1004.2817,-694.0254 1004.2817,-709.0254"/>
<text text-anchor="middle" x="976.7817" y="-697.8254" font-family="Times,serif" font-size="14.00" fill="#000000">ΩL×Ω•</text>
</g>
<!-- n22&#45;&gt;n35 -->
<g id="edge31" class="edge">
<title>n22&#45;&gt;n35</title>
<path fill="none" stroke="#000000" stroke-dasharray="5,2" d="M1014.8477,-931.7312C1017.2696,-904.2633 1021.9379,-829.3475 1007.7817,-769.3452 1002.9102,-748.6969 991.5726,-726.6932 984.0434,-713.5306"/>
<polygon fill="#000000" stroke="#000000" points="985.4908,-712.5385 981.4609,-709.1001 982.467,-714.3011 985.4908,-712.5385"/>
<text text-anchor="middle" x="1023.7817" y="-815.465" font-family="Times,serif" font-size="14.00" fill="#000000">π₁</text>
</g>
<!-- n22&#45;&gt;n41 -->
<g id="edge51" class="edge">
<title>n22&#45;&gt;n41</title>
<path fill="none" stroke="#000000" stroke-dasharray="5,2" d="M1001.6805,-932.8214C982.8606,-917.8292 946.6416,-888.9766 926.3932,-872.8464"/>
<polygon fill="#000000" stroke="#000000" points="927.328,-871.3537 922.3268,-869.607 925.1472,-874.0912 927.328,-871.3537"/>
</g>
<!-- n23 -->
<g id="node23" class="node">
<title>n23</title>
<ellipse fill="none" stroke="#000000" cx="911.7817" cy="-779.9518" rx="86.9483" ry="10.7143"/>
<text text-anchor="middle" x="911.7817" y="-776.2518" font-family="Times,serif" font-size="14.00" fill="#000000">stress_sum_1:Ω•</text>
</g>
<!-- n23&#45;&gt;n35 -->
<g id="edge32" class="edge">
<title>n23&#45;&gt;n35</title>
<path fill="none" stroke="#000000" stroke-dasharray="5,2" d="M920.5479,-769.3749C932.7111,-754.6994 954.6259,-728.2578 967.2055,-713.0797"/>
<polygon fill="#000000" stroke="#000000" points="968.647,-714.083 970.4902,-709.1165 965.9522,-711.8495 968.647,-714.083"/>
<text text-anchor="middle" x="959.7817" y="-737.0386" font-family="Times,serif" font-size="14.00" fill="#000000">π₂</text>
</g>
<!-- n24 -->
<g id="node24" class="node">
<title>n24</title>
<ellipse fill="none" stroke="#000000" cx="670.7817" cy="-590.099" rx="66.4361" ry="10.7143"/>
<text text-anchor="middle" x="670.7817" y="-586.399" font-family="Times,serif" font-size="14.00" fill="#000000">stress_•2:Ω•</text>
</g>
<!-- n39 -->
<g id="node39" class="node">
<title>n39</title>
<polygon fill="none" stroke="#000000" points="697.2817,-413.9594 644.2817,-413.9594 644.2817,-398.9594 697.2817,-398.9594 697.2817,-413.9594"/>
<text text-anchor="middle" x="670.7817" y="-402.7594" font-family="Times,serif" font-size="14.00" fill="#000000">Ω•×Ω•</text>
</g>
<!-- n24&#45;&gt;n39 -->
<g id="edge44" class="edge">
<title>n24&#45;&gt;n39</title>
<path fill="none" stroke="#000000" stroke-dasharray="5,2" d="M670.7817,-579.432C670.7817,-547.7371 670.7817,-454.1854 670.7817,-419.5498"/>
<polygon fill="#000000" stroke="#000000" points="672.5318,-419.1536 670.7817,-414.1536 669.0318,-419.1536 672.5318,-419.1536"/>
<text text-anchor="middle" x="678.7817" y="-511.0792" font-family="Times,serif" font-size="14.00" fill="#000000">π₂</text>
</g>
<!-- n25 -->
<g id="node25" class="node">
<title>n25</title>
<ellipse fill="none" stroke="#000000" cx="740.7817" cy="-779.9518" rx="66.4361" ry="10.7143"/>
<text text-anchor="middle" x="740.7817" y="-776.2518" font-family="Times,serif" font-size="14.00" fill="#000000">stress_•3:Ω•</text>
</g>
<!-- n25&#45;&gt;n37 -->
<g id="edge37" class="edge">
<title>n25&#45;&gt;n37</title>
<path fill="none" stroke="#000000" stroke-dasharray="5,2" d="M731.3412,-769.3749C718.2425,-754.6994 694.6419,-728.2578 681.0946,-713.0797"/>
<polygon fill="#000000" stroke="#000000" points="682.1923,-711.6815 677.5572,-709.1165 679.5811,-714.0121 682.1923,-711.6815"/>
<text text-anchor="middle" x="722.7817" y="-737.0386" font-family="Times,serif" font-size="14.00" fill="#000000">π₁</text>
</g>
<!-- n26 -->
<g id="node26" class="node">
<title>n26</title>
<ellipse fill="none" stroke="#000000" cx="843.7817" cy="-478.6726" rx="89.191" ry="10.7143"/>
<text text-anchor="middle" x="843.7817" y="-474.9726" font-family="Times,serif" font-size="14.00" fill="#000000">stress_mult_1:Ω•</text>
</g>
<!-- n26&#45;&gt;n39 -->
<g id="edge43" class="edge">
<title>n26&#45;&gt;n39</title>
<path fill="none" stroke="#000000" stroke-dasharray="5,2" d="M818.9951,-468.3262C785.6494,-454.4072 726.7727,-429.831 694.1629,-416.2191"/>
<polygon fill="#000000" stroke="#000000" points="694.4509,-414.4431 689.1627,-414.1319 693.1027,-417.673 694.4509,-414.4431"/>
<text text-anchor="middle" x="780.7817" y="-438.866" font-family="Times,serif" font-size="14.00" fill="#000000">π₁</text>
</g>
<!-- n27 -->
<g id="node27" class="node">
<title>n27</title>
</g>
<!-- n27&#45;&gt;n1 -->
<g id="edge1" class="edge">
<title>n27&#45;&gt;n1</title>
<path fill="none" stroke="#000000" d="M728.7264,-991.8469C700.581,-988.8183 391.3639,-955.5445 296.9785,-945.3881"/>
<polygon fill="#000000" stroke="#000000" points="297.0176,-943.6322 291.859,-944.8372 296.643,-947.1122 297.0176,-943.6322"/>
</g>
<!-- n27&#45;&gt;n3 -->
<g id="edge2" class="edge">
<title>n27&#45;&gt;n3</title>
<path fill="none" stroke="#000000" d="M728.5678,-991.032C718.2253,-986.1919 674.025,-965.5067 646.7503,-952.7425"/>
<polygon fill="#000000" stroke="#000000" points="647.4669,-951.1457 642.1964,-950.6114 645.9833,-954.3158 647.4669,-951.1457"/>
</g>
<!-- n27&#45;&gt;n18 -->
<g id="edge3" class="edge">
<title>n27&#45;&gt;n18</title>
<path fill="none" stroke="#000000" d="M732.9716,-991.9742C757.7931,-990.8849 986.4111,-980.1838 1047.7817,-953.0681 1065.8901,-945.0672 1082.5845,-929.4798 1093.3665,-917.8609"/>
<polygon fill="#000000" stroke="#000000" points="1094.7251,-918.9679 1096.7898,-914.0894 1092.1335,-916.6155 1094.7251,-918.9679"/>
</g>
<!-- n27&#45;&gt;n19 -->
<g id="edge4" class="edge">
<title>n27&#45;&gt;n19</title>
<path fill="none" stroke="#000000" d="M732.7891,-991.3669C744.3064,-987.3434 802.7907,-966.9123 840.4308,-953.763"/>
<polygon fill="#000000" stroke="#000000" points="841.2254,-955.3392 845.3685,-952.0381 840.0711,-952.0351 841.2254,-955.3392"/>
</g>
<!-- n27&#45;&gt;n20 -->
<g id="edge5" class="edge">
<title>n27&#45;&gt;n20</title>
<path fill="none" stroke="#000000" d="M730.7817,-989.9366C730.7817,-984.533 730.7817,-969.9042 730.7817,-958.3001"/>
<polygon fill="#000000" stroke="#000000" points="732.5318,-958.2254 730.7817,-953.2254 729.0318,-958.2254 732.5318,-958.2254"/>
</g>
<!-- n29&#45;&gt;n15 -->
<g id="edge15" class="edge">
<title>n29&#45;&gt;n15</title>
<path fill="none" stroke="#000000" d="M454.8365,-853.6709C431.3124,-833.8534 367.4498,-780.0534 337.1534,-754.5306"/>
<polygon fill="#000000" stroke="#000000" points="338.2338,-753.1526 333.2823,-751.2695 335.9787,-755.8294 338.2338,-753.1526"/>
<text text-anchor="middle" x="428.2817" y="-815.465" font-family="Times,serif" font-size="14.00" fill="#000000">&#45;</text>
</g>
<!-- n30&#45;&gt;n11 -->
<g id="edge18" class="edge">
<title>n30&#45;&gt;n11</title>
<path fill="none" stroke="#000000" d="M272.7817,-621.7924C272.7817,-609.2544 272.7817,-583.8048 272.7817,-567.053"/>
<polygon fill="#000000" stroke="#000000" points="274.5318,-566.7366 272.7817,-561.7366 271.0318,-566.7366 274.5318,-566.7366"/>
<text text-anchor="middle" x="279.2817" y="-586.399" font-family="Times,serif" font-size="14.00" fill="#000000">^</text>
</g>
<!-- n31&#45;&gt;n17 -->
<g id="edge21" class="edge">
<title>n31&#45;&gt;n17</title>
<path fill="none" stroke="#000000" d="M417.6133,-693.8666C414.8655,-675.8563 407.9463,-630.5045 404.2307,-606.151"/>
<polygon fill="#000000" stroke="#000000" points="405.9301,-605.6855 403.4459,-601.0066 402.4701,-606.2134 405.9301,-605.6855"/>
<text text-anchor="middle" x="421.2817" y="-661.7188" font-family="Times,serif" font-size="14.00" fill="#000000">^</text>
</g>
<!-- n32&#45;&gt;n10 -->
<g id="edge24" class="edge">
<title>n32&#45;&gt;n10</title>
<path fill="none" stroke="#000000" d="M269.2502,-470.9445C263.9321,-459.3071 253.7585,-437.0444 246.8712,-421.973"/>
<polygon fill="#000000" stroke="#000000" points="248.3431,-420.9836 244.6732,-417.1633 245.1598,-422.4383 248.3431,-420.9836"/>
<text text-anchor="middle" x="271.2817" y="-438.866" font-family="Times,serif" font-size="14.00" fill="#000000">∧₀₀</text>
</g>
<!-- n33&#45;&gt;n8 -->
<g id="edge27" class="edge">
<title>n33&#45;&gt;n8</title>
<path fill="none" stroke="#000000" d="M186.7817,-329.576C186.7817,-317.4192 186.7817,-293.6678 186.7817,-277.822"/>
<polygon fill="#000000" stroke="#000000" points="188.5318,-277.7794 186.7817,-272.7795 185.0318,-277.7795 188.5318,-277.7794"/>
<text text-anchor="middle" x="198.2817" y="-297.5462" font-family="Times,serif" font-size="14.00" fill="#000000">∧₁₀</text>
</g>
<!-- n34&#45;&gt;n4 -->
<g id="edge30" class="edge">
<title>n34&#45;&gt;n4</title>
<path fill="none" stroke="#000000" d="M174.7004,-113.0535C156.305,-101.3908 121.0363,-79.0302 98.4976,-64.7406"/>
<polygon fill="#000000" stroke="#000000" points="99.3282,-63.1951 94.1683,-61.9958 97.4541,-66.1511 99.3282,-63.1951"/>
<text text-anchor="middle" x="149.7817" y="-84.0132" font-family="Times,serif" font-size="14.00" fill="#000000">*</text>
</g>
<!-- n35&#45;&gt;n21 -->
<g id="edge33" class="edge">
<title>n35&#45;&gt;n21</title>
<path fill="none" stroke="#000000" d="M976.7817,-693.7974C976.7817,-682.2611 976.7817,-660.2836 976.7817,-645.2206"/>
<polygon fill="#000000" stroke="#000000" points="978.5318,-645.0161 976.7817,-640.0161 975.0318,-645.0161 978.5318,-645.0161"/>
<text text-anchor="middle" x="979.2817" y="-661.7188" font-family="Times,serif" font-size="14.00" fill="#000000">/</text>
</g>
<!-- n36&#45;&gt;n25 -->
<g id="edge36" class="edge">
<title>n36&#45;&gt;n25</title>
<path fill="none" stroke="#000000" d="M740.7817,-853.4156C740.7817,-840.1685 740.7817,-813.0097 740.7817,-795.6829"/>
<polygon fill="#000000" stroke="#000000" points="742.5318,-795.6476 740.7817,-790.6476 739.0318,-795.6476 742.5318,-795.6476"/>
<text text-anchor="middle" x="744.7817" y="-815.465" font-family="Times,serif" font-size="14.00" fill="#000000">*</text>
</g>
<!-- n37&#45;&gt;n24 -->
<g id="edge39" class="edge">
<title>n37&#45;&gt;n24</title>
<path fill="none" stroke="#000000" d="M670.7817,-693.8666C670.7817,-675.8563 670.7817,-630.5045 670.7817,-606.151"/>
<polygon fill="#000000" stroke="#000000" points="672.5318,-606.0066 670.7817,-601.0066 669.0318,-606.0067 672.5318,-606.0066"/>
<text text-anchor="middle" x="677.2817" y="-661.7188" font-family="Times,serif" font-size="14.00" fill="#000000">^</text>
</g>
<!-- n38&#45;&gt;n26 -->
<g id="edge42" class="edge">
<title>n38&#45;&gt;n26</title>
<path fill="none" stroke="#000000" d="M962.5484,-543.1577C939.8699,-530.8443 895.283,-506.6355 867.6578,-491.6363"/>
<polygon fill="#000000" stroke="#000000" points="868.2703,-489.9775 863.0411,-489.1296 866.6002,-493.0534 868.2703,-489.9775"/>
<text text-anchor="middle" x="925.7817" y="-511.0792" font-family="Times,serif" font-size="14.00" fill="#000000">*</text>
</g>
<!-- n39&#45;&gt;n2 -->
<g id="edge45" class="edge">
<title>n39&#45;&gt;n2</title>
<path fill="none" stroke="#000000" d="M645.0353,-398.8927C578.6274,-379.376 402.2131,-327.5293 337.246,-308.4361"/>
<polygon fill="#000000" stroke="#000000" points="337.6899,-306.7426 332.3993,-307.0116 336.703,-310.1005 337.6899,-306.7426"/>
<text text-anchor="middle" x="577.7817" y="-366.6528" font-family="Times,serif" font-size="14.00" fill="#000000">*</text>
</g>
<!-- n40&#45;&gt;n6 -->
<g id="edge46" class="edge">
<title>n40&#45;&gt;n6</title>
<path fill="none" stroke="#000000" d="M532.2471,-848.1517C528.3622,-833.8032 522.125,-810.767 517.9906,-795.4968"/>
<polygon fill="#000000" stroke="#000000" points="519.6715,-795.0086 516.6755,-790.6397 516.2931,-795.9234 519.6715,-795.0086"/>
<text text-anchor="middle" x="533.2817" y="-815.465" font-family="Times,serif" font-size="14.00" fill="#000000">+</text>
</g>
<!-- n41&#45;&gt;n23 -->
<g id="edge47" class="edge">
<title>n41&#45;&gt;n23</title>
<path fill="none" stroke="#000000" d="M911.7817,-847.4229C911.7817,-833.2282 911.7817,-811.1204 911.7817,-796.1118"/>
<polygon fill="#000000" stroke="#000000" points="913.5318,-795.9313 911.7817,-790.9313 910.0318,-795.9314 913.5318,-795.9313"/>
<text text-anchor="middle" x="918.2817" y="-815.465" font-family="Times,serif" font-size="14.00" fill="#000000">+</text>
</g>
</g>
</svg>
