<?xml version="1.0" encoding="UTF-8" standalone="no"?>
<!DOCTYPE svg PUBLIC "-//W3C//DTD SVG 1.1//EN"
 "http://www.w3.org/Graphics/SVG/1.1/DTD/svg11.dtd">
<!-- Generated by graphviz version 2.43.0 (0)
 -->
<!-- Title: G Pages: 1 -->
<svg width="456pt" height="1224pt"
 viewBox="0.00 0.00 456.04 1224.36" xmlns="http://www.w3.org/2000/svg" xmlns:xlink="http://www.w3.org/1999/xlink">
<g id="graph0" class="graph" transform="scale(1 1) rotate(0) translate(4 1220.36)">
<title>G</title>
<polygon fill="white" stroke="transparent" points="-4,4 -4,-1220.36 452.04,-1220.36 452.04,4 -4,4"/>
<!-- n1 -->
<g id="node1" class="node">
<title>n1</title>
<ellipse fill="none" stroke="black" cx="406.04" cy="-852.17" rx="21.84" ry="10.71"/>
<text text-anchor="middle" x="406.04" y="-848.47" font-family="Times,serif" font-size="14.00">h:Ω₀</text>
</g>
<!-- n4 -->
<g id="node4" class="node">
<title>n4</title>
<ellipse fill="none" stroke="black" cx="402.04" cy="-51.61" rx="24.08" ry="10.71"/>
<text text-anchor="middle" x="402.04" y="-47.91" font-family="Times,serif" font-size="14.00">ḣ:Ω•</text>
</g>
<!-- n1&#45;&gt;n4 -->
<g id="edge7" class="edge">
<title>n1&#45;&gt;n4</title>
<path fill="none" stroke="black" d="M410.92,-841.55C417.67,-827.33 429.04,-799.68 429.04,-774.74 429.04,-774.74 429.04,-774.74 429.04,-122.82 429.04,-102.17 418.74,-80.24 410.86,-66.49"/>
<polygon fill="black" stroke="black" points="412.35,-65.57 408.3,-62.16 409.34,-67.35 412.35,-65.57"/>
<text text-anchor="middle" x="435.04" y="-432.65" font-family="Times,serif" font-size="14.00">∂ₜ</text>
</g>
<!-- n7 -->
<g id="node7" class="node">
<title>n7</title>
<ellipse fill="none" stroke="black" cx="313.04" cy="-734.53" rx="29.9" ry="10.71"/>
<text text-anchor="middle" x="313.04" y="-730.83" font-family="Times,serif" font-size="14.00">•1:Ω•</text>
</g>
<!-- n1&#45;&gt;n7 -->
<g id="edge8" class="edge">
<title>n1&#45;&gt;n7</title>
<path fill="none" stroke="black" d="M388.9,-845.32C369.38,-838.52 339.72,-827.71 336.04,-823.56 317.75,-802.92 313.71,-769.49 312.99,-750.31"/>
<polygon fill="black" stroke="black" points="314.74,-750.26 312.87,-745.3 311.24,-750.34 314.74,-750.26"/>
<text text-anchor="middle" x="341.04" y="-809.25" font-family="Times,serif" font-size="14.00">d</text>
</g>
<!-- n12 -->
<g id="node12" class="node">
<title>n12</title>
<ellipse fill="none" stroke="black" cx="255.04" cy="-773.74" rx="29.9" ry="10.71"/>
<text text-anchor="middle" x="255.04" y="-770.04" font-family="Times,serif" font-size="14.00">•6:Ω•</text>
</g>
<!-- n1&#45;&gt;n12 -->
<g id="edge9" class="edge">
<title>n1&#45;&gt;n12</title>
<path fill="none" stroke="black" d="M388.76,-845.44C384.32,-844.07 379.52,-842.68 375.04,-841.56 333.77,-831.25 315.28,-848.8 281.04,-823.56 269.78,-815.26 262.92,-800.59 259.09,-789.5"/>
<polygon fill="black" stroke="black" points="260.74,-788.91 257.54,-784.69 257.41,-789.98 260.74,-788.91"/>
<text text-anchor="middle" x="286.04" y="-809.25" font-family="Times,serif" font-size="14.00">d</text>
</g>
<!-- n33 -->
<g id="node33" class="node">
<title>n33</title>
<polygon fill="none" stroke="black" points="395.54,-781.24 346.54,-781.24 346.54,-766.24 395.54,-766.24 395.54,-781.24"/>
<text text-anchor="middle" x="371.04" y="-770.04" font-family="Times,serif" font-size="14.00">Ω₀×Ω•</text>
</g>
<!-- n1&#45;&gt;n33 -->
<g id="edge21" class="edge">
<title>n1&#45;&gt;n33</title>
<path fill="none" stroke="black" stroke-dasharray="5,2" d="M401.61,-841.49C395.13,-827.34 383.1,-801.07 376.22,-786.05"/>
<polygon fill="black" stroke="black" points="377.78,-785.24 374.1,-781.42 374.59,-786.7 377.78,-785.24"/>
<text text-anchor="middle" x="399.54" y="-809.25" font-family="Times,serif" font-size="14.00">π₁</text>
</g>
<!-- n2 -->
<g id="node2" class="node">
<title>n2</title>
<ellipse fill="none" stroke="black" cx="263.04" cy="-544.67" rx="21.84" ry="10.71"/>
<text text-anchor="middle" x="263.04" y="-540.97" font-family="Times,serif" font-size="14.00">Γ:Ω₁</text>
</g>
<!-- n34 -->
<g id="node34" class="node">
<title>n34</title>
<polygon fill="none" stroke="black" points="325.54,-479.96 276.54,-479.96 276.54,-464.96 325.54,-464.96 325.54,-479.96"/>
<text text-anchor="middle" x="301.04" y="-468.76" font-family="Times,serif" font-size="14.00">Ω₁×Ω•</text>
</g>
<!-- n2&#45;&gt;n34 -->
<g id="edge24" class="edge">
<title>n2&#45;&gt;n34</title>
<path fill="none" stroke="black" stroke-dasharray="5,2" d="M267.46,-534.06C271.55,-525.34 277.9,-512.18 284.04,-501.07 287.13,-495.48 290.81,-489.43 293.96,-484.43"/>
<polygon fill="black" stroke="black" points="295.47,-485.32 296.67,-480.16 292.51,-483.44 295.47,-485.32"/>
<text text-anchor="middle" x="291.54" y="-504.87" font-family="Times,serif" font-size="14.00">π₁</text>
</g>
<!-- n3 -->
<g id="node3" class="node">
<title>n3</title>
<ellipse fill="none" stroke="black" cx="224.04" cy="-1164.76" rx="25.41" ry="10.71"/>
<text text-anchor="middle" x="224.04" y="-1161.06" font-family="Times,serif" font-size="14.00">n:ΩC</text>
</g>
<!-- n31 -->
<g id="node31" class="node">
<title>n31</title>
<polygon fill="none" stroke="black" points="57.54,-1091 2.54,-1091 2.54,-1076 57.54,-1076 57.54,-1091"/>
<text text-anchor="middle" x="30.04" y="-1079.8" font-family="Times,serif" font-size="14.00">ΩC×ΩL</text>
</g>
<!-- n3&#45;&gt;n31 -->
<g id="edge15" class="edge">
<title>n3&#45;&gt;n31</title>
<path fill="none" stroke="black" stroke-dasharray="5,2" d="M206.83,-1156.72C171.24,-1142.19 89.68,-1108.87 51.06,-1093.09"/>
<polygon fill="black" stroke="black" points="51.41,-1091.34 46.12,-1091.07 50.09,-1094.58 51.41,-1091.34"/>
<text text-anchor="middle" x="163.54" y="-1121.84" font-family="Times,serif" font-size="14.00">π₁</text>
</g>
<!-- n39 -->
<g id="node39" class="node">
<title>n39</title>
<polygon fill="none" stroke="black" points="255.04,-934.71 201.04,-934.71 201.04,-919.71 255.04,-919.71 255.04,-934.71"/>
<text text-anchor="middle" x="228.04" y="-923.51" font-family="Times,serif" font-size="14.00">Ω•×ΩC</text>
</g>
<!-- n3&#45;&gt;n39 -->
<g id="edge40" class="edge">
<title>n3&#45;&gt;n39</title>
<path fill="none" stroke="black" stroke-dasharray="5,2" d="M224.21,-1153.94C224.85,-1116.26 227.14,-981.03 227.84,-940.06"/>
<polygon fill="black" stroke="black" points="229.6,-939.75 227.93,-934.72 226.1,-939.69 229.6,-939.75"/>
<text text-anchor="middle" x="234.54" y="-1040.87" font-family="Times,serif" font-size="14.00">π₂</text>
</g>
<!-- n42 -->
<g id="node42" class="node">
<title>n42</title>
<ellipse fill="none" stroke="black" cx="342.04" cy="-927.21" rx="13.37" ry="13.37"/>
<text text-anchor="middle" x="342.04" y="-923.51" font-family="Times,serif" font-size="14.00">Σ1</text>
</g>
<!-- n3&#45;&gt;n42 -->
<g id="edge50" class="edge">
<title>n3&#45;&gt;n42</title>
<path fill="none" stroke="black" stroke-dasharray="5,2" d="M229.75,-1154.26C232.75,-1149.03 236.35,-1142.36 239.04,-1136.15 264.83,-1076.73 253.79,-1054.59 285.04,-997.85 297.07,-976.03 316.23,-954.36 328.98,-941.13"/>
<polygon fill="black" stroke="black" points="330.47,-942.1 332.71,-937.3 327.96,-939.66 330.47,-942.1"/>
</g>
<!-- n43 -->
<g id="node43" class="node">
<title>n43</title>
<ellipse fill="none" stroke="black" cx="176.04" cy="-1083.5" rx="13.37" ry="13.37"/>
<text text-anchor="middle" x="176.04" y="-1079.8" font-family="Times,serif" font-size="14.00">Σ2</text>
</g>
<!-- n3&#45;&gt;n43 -->
<g id="edge52" class="edge">
<title>n3&#45;&gt;n43</title>
<path fill="none" stroke="black" stroke-dasharray="5,2" d="M218.35,-1154.36C210.18,-1140.86 195.03,-1115.86 185.25,-1099.72"/>
<polygon fill="black" stroke="black" points="186.74,-1098.78 182.65,-1095.41 183.74,-1100.6 186.74,-1098.78"/>
</g>
<!-- n30 -->
<g id="node30" class="node">
<title>n30</title>
</g>
<!-- n4&#45;&gt;n30 -->
<g id="edge6" class="edge">
<title>n4&#45;&gt;n30</title>
<path fill="none" stroke="black" d="M402.04,-40.97C402.04,-31.46 402.04,-17.21 402.04,-9.14"/>
<polygon fill="black" stroke="black" points="403.79,-9.06 402.04,-4.06 400.29,-9.06 403.79,-9.06"/>
</g>
<!-- n5 -->
<g id="node5" class="node">
<title>n5</title>
<ellipse fill="none" stroke="black" cx="317.04" cy="-262.03" rx="24.08" ry="10.71"/>
<text text-anchor="middle" x="317.04" y="-258.33" font-family="Times,serif" font-size="14.00">1:Ω•</text>
</g>
<!-- n36 -->
<g id="node36" class="node">
<title>n36</title>
<polygon fill="none" stroke="black" points="397.04,-200.43 345.04,-200.43 345.04,-185.43 397.04,-185.43 397.04,-200.43"/>
<text text-anchor="middle" x="371.04" y="-189.23" font-family="Times,serif" font-size="14.00">Ω•×Ω•</text>
</g>
<!-- n5&#45;&gt;n36 -->
<g id="edge30" class="edge">
<title>n5&#45;&gt;n36</title>
<path fill="none" stroke="black" stroke-dasharray="5,2" d="M321.56,-251.29C326.02,-242.24 333.42,-228.66 342.04,-218.43 346.55,-213.07 352.31,-207.94 357.51,-203.77"/>
<polygon fill="black" stroke="black" points="358.83,-204.96 361.71,-200.51 356.68,-202.2 358.83,-204.96"/>
<text text-anchor="middle" x="349.54" y="-222.23" font-family="Times,serif" font-size="14.00">π₁</text>
</g>
<!-- n6 -->
<g id="node6" class="node">
<title>n6</title>
<ellipse fill="none" stroke="black" cx="375.04" cy="-123.82" rx="24.08" ry="10.71"/>
<text text-anchor="middle" x="375.04" y="-120.12" font-family="Times,serif" font-size="14.00">2:Ω•</text>
</g>
<!-- n6&#45;&gt;n4 -->
<g id="edge14" class="edge">
<title>n6&#45;&gt;n4</title>
<path fill="none" stroke="black" d="M374.01,-112.94C373.47,-104.04 373.67,-90.76 378.04,-80.21 380.35,-74.64 384.25,-69.41 388.24,-65.03"/>
<polygon fill="black" stroke="black" points="389.67,-66.06 391.88,-61.25 387.15,-63.63 389.67,-66.06"/>
<text text-anchor="middle" x="396.54" y="-84.01" font-family="Times,serif" font-size="14.00">⋆⋅d⋅⋆</text>
</g>
<!-- n7&#45;&gt;n34 -->
<g id="edge25" class="edge">
<title>n7&#45;&gt;n34</title>
<path fill="none" stroke="black" stroke-dasharray="5,2" d="M313.04,-723.56C313.04,-709.46 313.04,-682.86 313.04,-660.21 313.04,-660.21 313.04,-660.21 313.04,-543.67 313.04,-522.71 307.78,-498.73 304.23,-484.91"/>
<polygon fill="black" stroke="black" points="305.89,-484.36 302.92,-479.98 302.51,-485.26 305.89,-484.36"/>
<text text-anchor="middle" x="320.54" y="-619.4" font-family="Times,serif" font-size="14.00">π₂</text>
</g>
<!-- n8 -->
<g id="node8" class="node">
<title>n8</title>
<ellipse fill="none" stroke="black" cx="229.04" cy="-400.25" rx="29.9" ry="10.71"/>
<text text-anchor="middle" x="229.04" y="-396.55" font-family="Times,serif" font-size="14.00">•2:Ω•</text>
</g>
<!-- n35 -->
<g id="node35" class="node">
<title>n35</title>
<polygon fill="none" stroke="black" points="327.04,-338.64 275.04,-338.64 275.04,-323.64 327.04,-323.64 327.04,-338.64"/>
<text text-anchor="middle" x="301.04" y="-327.44" font-family="Times,serif" font-size="14.00">Ω•×Ω•</text>
</g>
<!-- n8&#45;&gt;n35 -->
<g id="edge28" class="edge">
<title>n8&#45;&gt;n35</title>
<path fill="none" stroke="black" stroke-dasharray="5,2" d="M238.75,-390.2C252.08,-377.77 276,-355.48 290,-342.44"/>
<polygon fill="black" stroke="black" points="291.2,-343.7 293.66,-339.02 288.81,-341.14 291.2,-343.7"/>
<text text-anchor="middle" x="280.54" y="-360.44" font-family="Times,serif" font-size="14.00">π₂</text>
</g>
<!-- n9 -->
<g id="node9" class="node">
<title>n9</title>
<ellipse fill="none" stroke="black" cx="224.04" cy="-472.46" rx="29.9" ry="10.71"/>
<text text-anchor="middle" x="224.04" y="-468.76" font-family="Times,serif" font-size="14.00">•3:Ω•</text>
</g>
<!-- n9&#45;&gt;n8 -->
<g id="edge12" class="edge">
<title>n9&#45;&gt;n8</title>
<path fill="none" stroke="black" d="M224.74,-461.7C225.58,-449.85 227.01,-429.77 227.99,-416.03"/>
<polygon fill="black" stroke="black" points="229.74,-416.04 228.35,-410.93 226.25,-415.79 229.74,-416.04"/>
<text text-anchor="middle" x="245.54" y="-432.65" font-family="Times,serif" font-size="14.00">avg₀₁</text>
</g>
<!-- n10 -->
<g id="node10" class="node">
<title>n10</title>
<ellipse fill="none" stroke="black" cx="247.04" cy="-623.1" rx="29.9" ry="10.71"/>
<text text-anchor="middle" x="247.04" y="-619.4" font-family="Times,serif" font-size="14.00">•4:Ω•</text>
</g>
<!-- n32 -->
<g id="node32" class="node">
<title>n32</title>
<polygon fill="none" stroke="black" points="223.04,-552.17 171.04,-552.17 171.04,-537.17 223.04,-537.17 223.04,-552.17"/>
<text text-anchor="middle" x="197.04" y="-540.97" font-family="Times,serif" font-size="14.00">Ω•×Ω•</text>
</g>
<!-- n10&#45;&gt;n32 -->
<g id="edge18" class="edge">
<title>n10&#45;&gt;n32</title>
<path fill="none" stroke="black" stroke-dasharray="5,2" d="M240.71,-612.42C231.37,-598.15 213.97,-571.55 204.19,-556.6"/>
<polygon fill="black" stroke="black" points="205.62,-555.58 201.42,-552.36 202.69,-557.5 205.62,-555.58"/>
<text text-anchor="middle" x="235.54" y="-580.19" font-family="Times,serif" font-size="14.00">π₁</text>
</g>
<!-- n11 -->
<g id="node11" class="node">
<title>n11</title>
<ellipse fill="none" stroke="black" cx="255.04" cy="-695.31" rx="29.9" ry="10.71"/>
<text text-anchor="middle" x="255.04" y="-691.61" font-family="Times,serif" font-size="14.00">•5:Ω•</text>
</g>
<!-- n11&#45;&gt;n10 -->
<g id="edge11" class="edge">
<title>n11&#45;&gt;n10</title>
<path fill="none" stroke="black" d="M253.93,-684.55C252.58,-672.71 250.29,-652.63 248.73,-638.88"/>
<polygon fill="black" stroke="black" points="250.45,-638.55 248.14,-633.78 246.97,-638.94 250.45,-638.55"/>
<text text-anchor="middle" x="267.54" y="-655.51" font-family="Times,serif" font-size="14.00">mag</text>
</g>
<!-- n12&#45;&gt;n11 -->
<g id="edge10" class="edge">
<title>n12&#45;&gt;n11</title>
<path fill="none" stroke="black" d="M255.04,-763.06C255.04,-750.04 255.04,-726.75 255.04,-711.41"/>
<polygon fill="black" stroke="black" points="256.79,-711.15 255.04,-706.15 253.29,-711.15 256.79,-711.15"/>
<text text-anchor="middle" x="258.54" y="-730.83" font-family="Times,serif" font-size="14.00">♯</text>
</g>
<!-- n13 -->
<g id="node13" class="node">
<title>n13</title>
<ellipse fill="none" stroke="black" cx="32.04" cy="-969.25" rx="29.9" ry="10.71"/>
<text text-anchor="middle" x="32.04" y="-965.55" font-family="Times,serif" font-size="14.00">•7:Ω•</text>
</g>
<!-- n13&#45;&gt;n32 -->
<g id="edge19" class="edge">
<title>n13&#45;&gt;n32</title>
<path fill="none" stroke="black" stroke-dasharray="5,2" d="M33.86,-958.56C36.49,-943.71 41.04,-914.39 41.04,-889.27 41.04,-889.27 41.04,-889.27 41.04,-622.1 41.04,-567.07 120.29,-551.66 165.82,-547.35"/>
<polygon fill="black" stroke="black" points="166.1,-549.08 170.93,-546.9 165.8,-545.59 166.1,-549.08"/>
<text text-anchor="middle" x="48.54" y="-770.04" font-family="Times,serif" font-size="14.00">π₂</text>
</g>
<!-- n14 -->
<g id="node14" class="node">
<title>n14</title>
<ellipse fill="none" stroke="black" cx="24.04" cy="-1164.76" rx="24.08" ry="10.71"/>
<text text-anchor="middle" x="24.04" y="-1161.06" font-family="Times,serif" font-size="14.00">1:ΩL</text>
</g>
<!-- n14&#45;&gt;n31 -->
<g id="edge16" class="edge">
<title>n14&#45;&gt;n31</title>
<path fill="none" stroke="black" stroke-dasharray="5,2" d="M21.87,-1153.98C19.99,-1144.08 17.89,-1128.37 20.04,-1114.94 21.06,-1108.55 23.22,-1101.68 25.28,-1096.08"/>
<polygon fill="black" stroke="black" points="26.93,-1096.65 27.09,-1091.36 23.66,-1095.4 26.93,-1096.65"/>
<text text-anchor="middle" x="27.54" y="-1121.84" font-family="Times,serif" font-size="14.00">π₂</text>
</g>
<!-- n15 -->
<g id="node15" class="node">
<title>n15</title>
<ellipse fill="none" stroke="black" cx="371.04" cy="-583.89" rx="29.9" ry="10.71"/>
<text text-anchor="middle" x="371.04" y="-580.19" font-family="Times,serif" font-size="14.00">•8:Ω•</text>
</g>
<!-- n15&#45;&gt;n36 -->
<g id="edge31" class="edge">
<title>n15&#45;&gt;n36</title>
<path fill="none" stroke="black" stroke-dasharray="5,2" d="M371.04,-572.92C371.04,-558.82 371.04,-532.22 371.04,-509.57 371.04,-509.57 371.04,-509.57 371.04,-261.03 371.04,-241.66 371.04,-219.15 371.04,-205.75"/>
<polygon fill="black" stroke="black" points="372.79,-205.59 371.04,-200.59 369.29,-205.59 372.79,-205.59"/>
<text text-anchor="middle" x="378.54" y="-396.55" font-family="Times,serif" font-size="14.00">π₂</text>
</g>
<!-- n16 -->
<g id="node16" class="node">
<title>n16</title>
<ellipse fill="none" stroke="black" cx="371.04" cy="-695.31" rx="29.9" ry="10.71"/>
<text text-anchor="middle" x="371.04" y="-691.61" font-family="Times,serif" font-size="14.00">•9:Ω•</text>
</g>
<!-- n16&#45;&gt;n15 -->
<g id="edge13" class="edge">
<title>n16&#45;&gt;n15</title>
<path fill="none" stroke="black" d="M371.04,-684.6C371.04,-665.43 371.04,-622.59 371.04,-599.8"/>
<polygon fill="black" stroke="black" points="372.79,-599.73 371.04,-594.73 369.29,-599.73 372.79,-599.73"/>
<text text-anchor="middle" x="389.54" y="-655.51" font-family="Times,serif" font-size="14.00">avg₀₁</text>
</g>
<!-- n17 -->
<g id="node17" class="node">
<title>n17</title>
<ellipse fill="none" stroke="black" cx="396.04" cy="-1008.46" rx="24.08" ry="10.71"/>
<text text-anchor="middle" x="396.04" y="-1004.76" font-family="Times,serif" font-size="14.00">2:ΩL</text>
</g>
<!-- n17&#45;&gt;n42 -->
<g id="edge51" class="edge">
<title>n17&#45;&gt;n42</title>
<path fill="none" stroke="black" stroke-dasharray="5,2" d="M389.64,-998.06C380.39,-984.49 363.22,-959.29 352.22,-943.15"/>
<polygon fill="black" stroke="black" points="353.56,-942 349.3,-938.86 350.67,-943.98 353.56,-942"/>
</g>
<!-- n18 -->
<g id="node18" class="node">
<title>n18</title>
<ellipse fill="none" stroke="black" cx="342.04" cy="-852.17" rx="24.08" ry="10.71"/>
<text text-anchor="middle" x="342.04" y="-848.47" font-family="Times,serif" font-size="14.00">1:Ω•</text>
</g>
<!-- n18&#45;&gt;n33 -->
<g id="edge22" class="edge">
<title>n18&#45;&gt;n33</title>
<path fill="none" stroke="black" stroke-dasharray="5,2" d="M344.88,-841.31C347.84,-831.36 352.77,-815.61 358.04,-802.35 360.21,-796.88 362.95,-790.96 365.35,-786.02"/>
<polygon fill="black" stroke="black" points="366.96,-786.7 367.6,-781.44 363.82,-785.15 366.96,-786.7"/>
<text text-anchor="middle" x="365.54" y="-809.25" font-family="Times,serif" font-size="14.00">π₂</text>
</g>
<!-- n19 -->
<g id="node19" class="node">
<title>n19</title>
<ellipse fill="none" stroke="black" cx="301.04" cy="-400.25" rx="24.08" ry="10.71"/>
<text text-anchor="middle" x="301.04" y="-396.55" font-family="Times,serif" font-size="14.00">3:Ω•</text>
</g>
<!-- n19&#45;&gt;n35 -->
<g id="edge27" class="edge">
<title>n19&#45;&gt;n35</title>
<path fill="none" stroke="black" stroke-dasharray="5,2" d="M301.04,-389.63C301.04,-377.58 301.04,-356.94 301.04,-343.94"/>
<polygon fill="black" stroke="black" points="302.79,-343.89 301.04,-338.89 299.29,-343.89 302.79,-343.89"/>
<text text-anchor="middle" x="308.54" y="-360.44" font-family="Times,serif" font-size="14.00">π₁</text>
</g>
<!-- n20 -->
<g id="node20" class="node">
<title>n20</title>
<ellipse fill="none" stroke="black" cx="66.04" cy="-1125.54" rx="21.84" ry="10.71"/>
<text text-anchor="middle" x="66.04" y="-1121.84" font-family="Times,serif" font-size="14.00">A:Ω₁</text>
</g>
<!-- n40 -->
<g id="node40" class="node">
<title>n40</title>
<polygon fill="none" stroke="black" points="168.54,-781.24 119.54,-781.24 119.54,-766.24 168.54,-766.24 168.54,-781.24"/>
<text text-anchor="middle" x="144.04" y="-770.04" font-family="Times,serif" font-size="14.00">Ω•×Ω₁</text>
</g>
<!-- n20&#45;&gt;n40 -->
<g id="edge43" class="edge">
<title>n20&#45;&gt;n40</title>
<path fill="none" stroke="black" stroke-dasharray="5,2" d="M70.09,-1115.02C75.93,-1100.37 86.04,-1071.31 86.04,-1045.57 86.04,-1045.57 86.04,-1045.57 86.04,-851.17 86.04,-822.3 112.62,-797.49 129.8,-784.47"/>
<polygon fill="black" stroke="black" points="130.95,-785.8 133.94,-781.42 128.88,-782.98 130.95,-785.8"/>
<text text-anchor="middle" x="93.54" y="-965.55" font-family="Times,serif" font-size="14.00">π₂</text>
</g>
<!-- n21 -->
<g id="node21" class="node">
<title>n21</title>
<ellipse fill="none" stroke="black" cx="361.04" cy="-1164.76" rx="25" ry="10.71"/>
<text text-anchor="middle" x="361.04" y="-1161.06" font-family="Times,serif" font-size="14.00">ρ:ΩC</text>
</g>
<!-- n38 -->
<g id="node38" class="node">
<title>n38</title>
<polygon fill="none" stroke="black" points="352.04,-1091 296.04,-1091 296.04,-1076 352.04,-1076 352.04,-1091"/>
<text text-anchor="middle" x="324.04" y="-1079.8" font-family="Times,serif" font-size="14.00">ΩC×ΩC</text>
</g>
<!-- n21&#45;&gt;n38 -->
<g id="edge36" class="edge">
<title>n21&#45;&gt;n38</title>
<path fill="none" stroke="black" stroke-dasharray="5,2" d="M356.5,-1154.04C349.64,-1139.33 336.64,-1111.49 329.35,-1095.87"/>
<polygon fill="black" stroke="black" points="330.81,-1094.86 327.11,-1091.07 327.64,-1096.34 330.81,-1094.86"/>
<text text-anchor="middle" x="354.54" y="-1121.84" font-family="Times,serif" font-size="14.00">π₁</text>
</g>
<!-- n22 -->
<g id="node22" class="node">
<title>n22</title>
<ellipse fill="none" stroke="black" cx="293.04" cy="-1164.76" rx="25.41" ry="10.71"/>
<text text-anchor="middle" x="293.04" y="-1161.06" font-family="Times,serif" font-size="14.00">g:ΩC</text>
</g>
<!-- n22&#45;&gt;n38 -->
<g id="edge37" class="edge">
<title>n22&#45;&gt;n38</title>
<path fill="none" stroke="black" stroke-dasharray="5,2" d="M296.84,-1154.04C302.6,-1139.33 313.49,-1111.49 319.6,-1095.87"/>
<polygon fill="black" stroke="black" points="321.28,-1096.37 321.47,-1091.07 318.02,-1095.09 321.28,-1096.37"/>
<text text-anchor="middle" x="318.54" y="-1121.84" font-family="Times,serif" font-size="14.00">π₂</text>
</g>
<!-- n23 -->
<g id="node23" class="node">
<title>n23</title>
<ellipse fill="none" stroke="black" cx="144.04" cy="-852.17" rx="29.9" ry="10.71"/>
<text text-anchor="middle" x="144.04" y="-848.47" font-family="Times,serif" font-size="14.00">•1:Ω•</text>
</g>
<!-- n23&#45;&gt;n40 -->
<g id="edge42" class="edge">
<title>n23&#45;&gt;n40</title>
<path fill="none" stroke="black" stroke-dasharray="5,2" d="M144.04,-841.49C144.04,-827.46 144.04,-801.53 144.04,-786.45"/>
<polygon fill="black" stroke="black" points="145.79,-786.42 144.04,-781.42 142.29,-786.42 145.79,-786.42"/>
<text text-anchor="middle" x="151.54" y="-809.25" font-family="Times,serif" font-size="14.00">π₁</text>
</g>
<!-- n24 -->
<g id="node24" class="node">
<title>n24</title>
<ellipse fill="none" stroke="black" cx="150.04" cy="-1164.76" rx="24.08" ry="10.71"/>
<text text-anchor="middle" x="150.04" y="-1161.06" font-family="Times,serif" font-size="14.00">2:ΩL</text>
</g>
<!-- n37 -->
<g id="node37" class="node">
<title>n37</title>
<polygon fill="none" stroke="black" points="170.04,-934.71 118.04,-934.71 118.04,-919.71 170.04,-919.71 170.04,-934.71"/>
<text text-anchor="middle" x="144.04" y="-923.51" font-family="Times,serif" font-size="14.00">ΩL×Ω•</text>
</g>
<!-- n24&#45;&gt;n37 -->
<g id="edge33" class="edge">
<title>n24&#45;&gt;n37</title>
<path fill="none" stroke="black" stroke-dasharray="5,2" d="M149.4,-1153.94C147.92,-1130.58 144.27,-1069.85 143.04,-1019.07 142.81,-1009.64 142.97,-1007.28 143.04,-997.85 143.19,-977.54 143.57,-953.89 143.82,-940.04"/>
<polygon fill="black" stroke="black" points="145.58,-939.77 143.92,-934.74 142.08,-939.7 145.58,-939.77"/>
<text text-anchor="middle" x="152.54" y="-1040.87" font-family="Times,serif" font-size="14.00">π₁</text>
</g>
<!-- n24&#45;&gt;n43 -->
<g id="edge53" class="edge">
<title>n24&#45;&gt;n43</title>
<path fill="none" stroke="black" stroke-dasharray="5,2" d="M153.23,-1154.04C157.52,-1140.97 165.21,-1117.51 170.47,-1101.49"/>
<polygon fill="black" stroke="black" points="172.25,-1101.66 172.15,-1096.37 168.93,-1100.57 172.25,-1101.66"/>
</g>
<!-- n25 -->
<g id="node25" class="node">
<title>n25</title>
<ellipse fill="none" stroke="black" cx="176.04" cy="-1008.46" rx="24.08" ry="10.71"/>
<text text-anchor="middle" x="176.04" y="-1004.76" font-family="Times,serif" font-size="14.00">1:Ω•</text>
</g>
<!-- n25&#45;&gt;n37 -->
<g id="edge34" class="edge">
<title>n25&#45;&gt;n37</title>
<path fill="none" stroke="black" stroke-dasharray="5,2" d="M172.12,-997.74C166.18,-983.04 154.94,-955.19 148.63,-939.57"/>
<polygon fill="black" stroke="black" points="150.19,-938.76 146.69,-934.78 146.94,-940.07 150.19,-938.76"/>
<text text-anchor="middle" x="172.54" y="-965.55" font-family="Times,serif" font-size="14.00">π₂</text>
</g>
<!-- n26 -->
<g id="node26" class="node">
<title>n26</title>
<ellipse fill="none" stroke="black" cx="205.04" cy="-812.95" rx="29.9" ry="10.71"/>
<text text-anchor="middle" x="205.04" y="-809.25" font-family="Times,serif" font-size="14.00">•2:Ω•</text>
</g>
<!-- n41 -->
<g id="node41" class="node">
<title>n41</title>
<polygon fill="none" stroke="black" points="199.04,-630.6 147.04,-630.6 147.04,-615.6 199.04,-615.6 199.04,-630.6"/>
<text text-anchor="middle" x="173.04" y="-619.4" font-family="Times,serif" font-size="14.00">Ω•×Ω•</text>
</g>
<!-- n26&#45;&gt;n41 -->
<g id="edge46" class="edge">
<title>n26&#45;&gt;n41</title>
<path fill="none" stroke="black" stroke-dasharray="5,2" d="M204.03,-802.11C201.34,-776.91 193.37,-708.04 181.04,-651.71 179.88,-646.41 178.27,-640.63 176.79,-635.74"/>
<polygon fill="black" stroke="black" points="178.42,-635.1 175.27,-630.84 175.08,-636.14 178.42,-635.1"/>
<text text-anchor="middle" x="204.54" y="-730.83" font-family="Times,serif" font-size="14.00">π₂</text>
</g>
<!-- n27 -->
<g id="node27" class="node">
<title>n27</title>
<ellipse fill="none" stroke="black" cx="324.04" cy="-1008.46" rx="29.9" ry="10.71"/>
<text text-anchor="middle" x="324.04" y="-1004.76" font-family="Times,serif" font-size="14.00">•3:Ω•</text>
</g>
<!-- n27&#45;&gt;n39 -->
<g id="edge39" class="edge">
<title>n27&#45;&gt;n39</title>
<path fill="none" stroke="black" stroke-dasharray="5,2" d="M313.03,-998.37C294.9,-983.4 258.9,-953.68 240.1,-938.16"/>
<polygon fill="black" stroke="black" points="241.12,-936.73 236.15,-934.9 238.89,-939.43 241.12,-936.73"/>
<text text-anchor="middle" x="297.54" y="-965.55" font-family="Times,serif" font-size="14.00">π₁</text>
</g>
<!-- n28 -->
<g id="node28" class="node">
<title>n28</title>
<ellipse fill="none" stroke="black" cx="145.04" cy="-695.31" rx="24.08" ry="10.71"/>
<text text-anchor="middle" x="145.04" y="-691.61" font-family="Times,serif" font-size="14.00">1:Ω•</text>
</g>
<!-- n28&#45;&gt;n41 -->
<g id="edge45" class="edge">
<title>n28&#45;&gt;n41</title>
<path fill="none" stroke="black" stroke-dasharray="5,2" d="M148.93,-684.55C154.03,-671.78 162.95,-649.42 168.39,-635.76"/>
<polygon fill="black" stroke="black" points="170.13,-636.12 170.36,-630.83 166.88,-634.83 170.13,-636.12"/>
<text text-anchor="middle" x="169.54" y="-655.51" font-family="Times,serif" font-size="14.00">π₁</text>
</g>
<!-- n29 -->
<g id="node29" class="node">
<title>n29</title>
</g>
<!-- n29&#45;&gt;n1 -->
<g id="edge1" class="edge">
<title>n29&#45;&gt;n1</title>
<path fill="none" stroke="black" d="M295.23,-1213.19C314.07,-1211.62 448.04,-1199.26 448.04,-1165.76 448.04,-1165.76 448.04,-1165.76 448.04,-926.21 448.04,-902.61 431.37,-879.75 419.03,-866.07"/>
<polygon fill="black" stroke="black" points="420.05,-864.59 415.36,-862.12 417.49,-866.98 420.05,-864.59"/>
</g>
<!-- n29&#45;&gt;n3 -->
<g id="edge2" class="edge">
<title>n29&#45;&gt;n3</title>
<path fill="none" stroke="black" d="M291.34,-1212.19C284.45,-1207.44 258.22,-1189.34 240.61,-1177.19"/>
<polygon fill="black" stroke="black" points="241.45,-1175.64 236.34,-1174.24 239.46,-1178.52 241.45,-1175.64"/>
</g>
<!-- n29&#45;&gt;n20 -->
<g id="edge3" class="edge">
<title>n29&#45;&gt;n20</title>
<path fill="none" stroke="black" d="M290.8,-1213.33C275.2,-1213.01 181.65,-1209.67 117.04,-1175.36 100.46,-1166.56 85.46,-1150.81 76.09,-1139.58"/>
<polygon fill="black" stroke="black" points="77.41,-1138.44 72.9,-1135.67 74.7,-1140.65 77.41,-1138.44"/>
</g>
<!-- n29&#45;&gt;n21 -->
<g id="edge4" class="edge">
<title>n29&#45;&gt;n21</title>
<path fill="none" stroke="black" d="M294.72,-1212.19C301.51,-1207.44 327.36,-1189.34 344.71,-1177.19"/>
<polygon fill="black" stroke="black" points="345.83,-1178.54 348.92,-1174.24 343.82,-1175.68 345.83,-1178.54"/>
</g>
<!-- n29&#45;&gt;n22 -->
<g id="edge5" class="edge">
<title>n29&#45;&gt;n22</title>
<path fill="none" stroke="black" d="M293.04,-1212.19C293.04,-1207.87 293.04,-1192.51 293.04,-1180.63"/>
<polygon fill="black" stroke="black" points="294.79,-1180.46 293.04,-1175.46 291.29,-1180.46 294.79,-1180.46"/>
</g>
<!-- n31&#45;&gt;n13 -->
<g id="edge17" class="edge">
<title>n31&#45;&gt;n13</title>
<path fill="none" stroke="black" d="M30.16,-1075.82C30.48,-1058.18 31.33,-1010.04 31.77,-985.33"/>
<polygon fill="black" stroke="black" points="33.53,-985.18 31.87,-980.15 30.03,-985.11 33.53,-985.18"/>
<text text-anchor="middle" x="33.54" y="-1040.87" font-family="Times,serif" font-size="14.00">&#45;</text>
</g>
<!-- n32&#45;&gt;n9 -->
<g id="edge20" class="edge">
<title>n32&#45;&gt;n9</title>
<path fill="none" stroke="black" d="M199.63,-536.94C203.95,-525.72 212.71,-502.93 218.48,-487.93"/>
<polygon fill="black" stroke="black" points="220.14,-488.47 220.31,-483.17 216.88,-487.21 220.14,-488.47"/>
<text text-anchor="middle" x="219.54" y="-504.87" font-family="Times,serif" font-size="14.00">^</text>
</g>
<!-- n33&#45;&gt;n16 -->
<g id="edge23" class="edge">
<title>n33&#45;&gt;n16</title>
<path fill="none" stroke="black" d="M371.04,-766.22C371.04,-754.16 371.04,-728.05 371.04,-711.38"/>
<polygon fill="black" stroke="black" points="372.79,-711.12 371.04,-706.12 369.29,-711.12 372.79,-711.12"/>
<text text-anchor="middle" x="377.54" y="-730.83" font-family="Times,serif" font-size="14.00">^</text>
</g>
<!-- n34&#45;&gt;n19 -->
<g id="edge26" class="edge">
<title>n34&#45;&gt;n19</title>
<path fill="none" stroke="black" d="M301.04,-464.73C301.04,-453.6 301.04,-431.11 301.04,-416.11"/>
<polygon fill="black" stroke="black" points="302.79,-415.96 301.04,-410.96 299.29,-415.96 302.79,-415.96"/>
<text text-anchor="middle" x="304.54" y="-432.65" font-family="Times,serif" font-size="14.00">*</text>
</g>
<!-- n35&#45;&gt;n5 -->
<g id="edge29" class="edge">
<title>n35&#45;&gt;n5</title>
<path fill="none" stroke="black" d="M302.63,-323.46C305.17,-312.83 310.18,-291.82 313.57,-277.59"/>
<polygon fill="black" stroke="black" points="315.28,-277.96 314.74,-272.69 311.88,-277.15 315.28,-277.96"/>
<text text-anchor="middle" x="312.54" y="-294.44" font-family="Times,serif" font-size="14.00">*</text>
</g>
<!-- n36&#45;&gt;n6 -->
<g id="edge32" class="edge">
<title>n36&#45;&gt;n6</title>
<path fill="none" stroke="black" d="M371.44,-185.25C372.07,-174.71 373.3,-153.97 374.15,-139.76"/>
<polygon fill="black" stroke="black" points="375.92,-139.57 374.47,-134.48 372.42,-139.37 375.92,-139.57"/>
<text text-anchor="middle" x="376.54" y="-156.23" font-family="Times,serif" font-size="14.00">*</text>
</g>
<!-- n37&#45;&gt;n23 -->
<g id="edge35" class="edge">
<title>n37&#45;&gt;n23</title>
<path fill="none" stroke="black" d="M144.04,-919.47C144.04,-907.89 144.04,-883.97 144.04,-868.25"/>
<polygon fill="black" stroke="black" points="145.79,-867.86 144.04,-862.86 142.29,-867.86 145.79,-867.86"/>
<text text-anchor="middle" x="146.54" y="-884.57" font-family="Times,serif" font-size="14.00">/</text>
</g>
<!-- n38&#45;&gt;n27 -->
<g id="edge38" class="edge">
<title>n38&#45;&gt;n27</title>
<path fill="none" stroke="black" d="M324.04,-1075.76C324.04,-1064.19 324.04,-1040.26 324.04,-1024.54"/>
<polygon fill="black" stroke="black" points="325.79,-1024.16 324.04,-1019.16 322.29,-1024.16 325.79,-1024.16"/>
<text text-anchor="middle" x="327.54" y="-1040.87" font-family="Times,serif" font-size="14.00">*</text>
</g>
<!-- n39&#45;&gt;n26 -->
<g id="edge41" class="edge">
<title>n39&#45;&gt;n26</title>
<path fill="none" stroke="black" d="M226.67,-919.52C223.06,-901.88 213.19,-853.74 208.13,-829.03"/>
<polygon fill="black" stroke="black" points="209.79,-828.4 207.07,-823.85 206.36,-829.1 209.79,-828.4"/>
<text text-anchor="middle" x="228.54" y="-884.57" font-family="Times,serif" font-size="14.00">^</text>
</g>
<!-- n40&#45;&gt;n28 -->
<g id="edge44" class="edge">
<title>n40&#45;&gt;n28</title>
<path fill="none" stroke="black" d="M144.13,-766.22C144.28,-754.16 144.63,-728.05 144.84,-711.38"/>
<polygon fill="black" stroke="black" points="146.6,-711.15 144.91,-706.12 143.1,-711.1 146.6,-711.15"/>
<text text-anchor="middle" x="148.54" y="-730.83" font-family="Times,serif" font-size="14.00">*</text>
</g>
<!-- n41&#45;&gt;n2 -->
<g id="edge47" class="edge">
<title>n41&#45;&gt;n2</title>
<path fill="none" stroke="black" d="M176.19,-615.28C181.23,-605 191.97,-585.47 206.04,-573.28 216.22,-564.46 229.71,-557.76 241.01,-553.17"/>
<polygon fill="black" stroke="black" points="241.69,-554.79 245.71,-551.33 240.41,-551.53 241.69,-554.79"/>
<text text-anchor="middle" x="209.54" y="-580.19" font-family="Times,serif" font-size="14.00">*</text>
</g>
<!-- n42&#45;&gt;n18 -->
<g id="edge48" class="edge">
<title>n42&#45;&gt;n18</title>
<path fill="none" stroke="black" d="M342.04,-913.48C342.04,-900.89 342.04,-881.62 342.04,-868.27"/>
<polygon fill="black" stroke="black" points="343.79,-867.94 342.04,-862.94 340.29,-867.94 343.79,-867.94"/>
<text text-anchor="middle" x="348.54" y="-884.57" font-family="Times,serif" font-size="14.00">+</text>
</g>
<!-- n43&#45;&gt;n25 -->
<g id="edge49" class="edge">
<title>n43&#45;&gt;n25</title>
<path fill="none" stroke="black" d="M176.04,-1069.78C176.04,-1057.19 176.04,-1037.92 176.04,-1024.56"/>
<polygon fill="black" stroke="black" points="177.79,-1024.24 176.04,-1019.24 174.29,-1024.24 177.79,-1024.24"/>
<text text-anchor="middle" x="182.54" y="-1040.87" font-family="Times,serif" font-size="14.00">+</text>
</g>
</g>
</svg>
