<?xml version="1.0" encoding="UTF-8" standalone="no"?>
<!DOCTYPE svg PUBLIC "-//W3C//DTD SVG 1.1//EN"
 "http://www.w3.org/Graphics/SVG/1.1/DTD/svg11.dtd">
<!-- Generated by graphviz version 2.40.1 (0)
 -->
<!-- Title: G Pages: 1 -->
<svg width="497pt" height="707pt"
 viewBox="0.00 0.00 497.00 707.00" xmlns="http://www.w3.org/2000/svg" xmlns:xlink="http://www.w3.org/1999/xlink">
<g id="graph0" class="graph" transform="scale(1 1) rotate(0) translate(4 703.0021)">
<title>G</title>
<polygon fill="#ffffff" stroke="transparent" points="-4,4 -4,-703.0021 493,-703.0021 493,4 -4,4"/>
<!-- n1 -->
<g id="node1" class="node">
<title>n1</title>
<ellipse fill="none" stroke="#000000" cx="406" cy="-647.3955" rx="22.7556" ry="10.7143"/>
<text text-anchor="middle" x="406" y="-643.6955" font-family="Times,serif" font-size="14.00" fill="#000000">q:Ω₁</text>
</g>
<!-- n8 -->
<g id="node8" class="node">
<title>n8</title>
<ellipse fill="none" stroke="#000000" cx="385" cy="-51.6066" rx="22.7556" ry="10.7143"/>
<text text-anchor="middle" x="385" y="-47.9066" font-family="Times,serif" font-size="14.00" fill="#000000">q̇:Ω₁</text>
</g>
<!-- n1&#45;&gt;n8 -->
<g id="edge8" class="edge">
<title>n1&#45;&gt;n8</title>
<path fill="none" stroke="#000000" d="M421.4059,-639.3009C442.2876,-627.0892 477,-601.8451 477,-568.9691 477,-568.9691 477,-568.9691 477,-126.6482 477,-91.527 436.2414,-69.9139 408.9824,-59.3864"/>
<polygon fill="#000000" stroke="#000000" points="409.3588,-57.659 404.0625,-57.549 408.1342,-60.9378 409.3588,-57.659"/>
<text text-anchor="middle" x="483" y="-342.4163" font-family="Times,serif" font-size="14.00" fill="#000000">∂ₜ</text>
</g>
<!-- n14 -->
<g id="node14" class="node">
<title>n14</title>
<ellipse fill="none" stroke="#000000" cx="349" cy="-568.9691" rx="28.0702" ry="10.7143"/>
<text text-anchor="middle" x="349" y="-565.2691" font-family="Times,serif" font-size="14.00" fill="#000000">•4:Ω₁</text>
</g>
<!-- n1&#45;&gt;n14 -->
<g id="edge10" class="edge">
<title>n1&#45;&gt;n14</title>
<path fill="none" stroke="#000000" d="M402.6241,-636.7438C398.9202,-626.1239 392.2478,-609.6922 383,-597.5757 378.5245,-591.7118 372.6485,-586.2373 367.0428,-581.6793"/>
<polygon fill="#000000" stroke="#000000" points="367.851,-580.0892 362.8364,-578.3812 365.6914,-582.8435 367.851,-580.0892"/>
<text text-anchor="middle" x="403.5" y="-604.4823" font-family="Times,serif" font-size="14.00" fill="#000000">Δ₁</text>
</g>
<!-- n25 -->
<g id="node25" class="node">
<title>n25</title>
<polygon fill="none" stroke="#000000" points="449,-576.4691 395,-576.4691 395,-561.4691 449,-561.4691 449,-576.4691"/>
<text text-anchor="middle" x="422" y="-565.2691" font-family="Times,serif" font-size="14.00" fill="#000000">ΩC×Ω₁</text>
</g>
<!-- n1&#45;&gt;n25 -->
<g id="edge24" class="edge">
<title>n1&#45;&gt;n25</title>
<path fill="none" stroke="#000000" stroke-dasharray="5,2" d="M413.741,-637.413C417.3134,-632.1773 421.1636,-625.4739 423,-618.7889 426.3644,-606.5418 425.541,-591.9568 424.2267,-581.7432"/>
<polygon fill="#000000" stroke="#000000" points="425.9241,-581.2557 423.4694,-576.5613 422.4609,-581.7619 425.9241,-581.2557"/>
<text text-anchor="middle" x="433" y="-604.4823" font-family="Times,serif" font-size="14.00" fill="#000000">π₂</text>
</g>
<!-- n27 -->
<g id="node27" class="node">
<title>n27</title>
<polygon fill="none" stroke="#000000" points="176.5,-576.4691 127.5,-576.4691 127.5,-561.4691 176.5,-561.4691 176.5,-576.4691"/>
<text text-anchor="middle" x="152" y="-565.2691" font-family="Times,serif" font-size="14.00" fill="#000000">Ω₀×Ω₁</text>
</g>
<!-- n1&#45;&gt;n27 -->
<g id="edge30" class="edge">
<title>n1&#45;&gt;n27</title>
<path fill="none" stroke="#000000" stroke-dasharray="5,2" d="M387.6535,-641.0915C366.2967,-633.6868 333.2624,-622.0027 328,-618.7889 316.132,-611.5409 317.5043,-603.6605 305,-597.5757 260.0606,-575.7073 242.9408,-589.7037 194,-579.5757 190.0646,-578.7613 185.9421,-577.8247 181.8821,-576.8525"/>
<polygon fill="#000000" stroke="#000000" points="182.0641,-575.0955 176.7916,-575.6084 181.2332,-578.4955 182.0641,-575.0955"/>
<text text-anchor="middle" x="336" y="-604.4823" font-family="Times,serif" font-size="14.00" fill="#000000">π₂</text>
</g>
<!-- n2 -->
<g id="node2" class="node">
<title>n2</title>
<ellipse fill="none" stroke="#000000" cx="242" cy="-496.7559" rx="22.7556" ry="10.7143"/>
<text text-anchor="middle" x="242" y="-493.0559" font-family="Times,serif" font-size="14.00" fill="#000000">P:Ω₀</text>
</g>
<!-- n9 -->
<g id="node9" class="node">
<title>n9</title>
<ellipse fill="none" stroke="#000000" cx="246" cy="-385.3295" rx="29.8983" ry="10.7143"/>
<text text-anchor="middle" x="246" y="-381.6295" font-family="Times,serif" font-size="14.00" fill="#000000">∇P:Ω₁</text>
</g>
<!-- n2&#45;&gt;n9 -->
<g id="edge9" class="edge">
<title>n2&#45;&gt;n9</title>
<path fill="none" stroke="#000000" d="M242.3835,-486.0718C243.0895,-466.4049 244.5982,-424.3778 245.4264,-401.3068"/>
<polygon fill="#000000" stroke="#000000" points="247.1812,-401.2045 245.6117,-396.1449 243.6834,-401.0788 247.1812,-401.2045"/>
<text text-anchor="middle" x="251" y="-453.8427" font-family="Times,serif" font-size="14.00" fill="#000000">d₀</text>
</g>
<!-- n3 -->
<g id="node3" class="node">
<title>n3</title>
<ellipse fill="none" stroke="#000000" cx="157" cy="-647.3955" rx="21.8409" ry="10.7143"/>
<text text-anchor="middle" x="157" y="-643.6955" font-family="Times,serif" font-size="14.00" fill="#000000">ρ:Ω₀</text>
</g>
<!-- n7 -->
<g id="node7" class="node">
<title>n7</title>
<ellipse fill="none" stroke="#000000" cx="93" cy="-51.6066" rx="21.8409" ry="10.7143"/>
<text text-anchor="middle" x="93" y="-47.9066" font-family="Times,serif" font-size="14.00" fill="#000000">ρ̇:Ω₀</text>
</g>
<!-- n3&#45;&gt;n7 -->
<g id="edge12" class="edge">
<title>n3&#45;&gt;n7</title>
<path fill="none" stroke="#000000" d="M135.1698,-646.3319C92.0305,-642.9341 0,-628.6873 0,-568.9691 0,-568.9691 0,-568.9691 0,-126.6482 0,-91.102 41.6581,-69.5227 69.2124,-59.1372"/>
<polygon fill="#000000" stroke="#000000" points="70.0812,-60.6832 74.1801,-57.3274 68.8831,-57.3947 70.0812,-60.6832"/>
<text text-anchor="middle" x="6" y="-342.4163" font-family="Times,serif" font-size="14.00" fill="#000000">∂ₜ</text>
</g>
<!-- n26 -->
<g id="node26" class="node">
<title>n26</title>
<polygon fill="none" stroke="#000000" points="257,-576.4691 203,-576.4691 203,-561.4691 257,-561.4691 257,-576.4691"/>
<text text-anchor="middle" x="230" y="-565.2691" font-family="Times,serif" font-size="14.00" fill="#000000">ΩC×Ω₀</text>
</g>
<!-- n3&#45;&gt;n26 -->
<g id="edge27" class="edge">
<title>n3&#45;&gt;n26</title>
<path fill="none" stroke="#000000" stroke-dasharray="5,2" d="M166.2455,-637.4627C179.7119,-622.9953 204.6776,-596.1738 219.0471,-580.7362"/>
<polygon fill="#000000" stroke="#000000" points="220.675,-581.5558 222.8007,-576.7035 218.113,-579.1711 220.675,-581.5558"/>
<text text-anchor="middle" x="210" y="-604.4823" font-family="Times,serif" font-size="14.00" fill="#000000">π₂</text>
</g>
<!-- n3&#45;&gt;n27 -->
<g id="edge29" class="edge">
<title>n3&#45;&gt;n27</title>
<path fill="none" stroke="#000000" stroke-dasharray="5,2" d="M155.1758,-636.5617C154.3565,-631.2263 153.4699,-624.6876 153,-618.7889 152.003,-606.2738 151.815,-591.9376 151.8392,-581.867"/>
<polygon fill="#000000" stroke="#000000" points="153.5898,-581.7605 151.8707,-576.7498 150.0898,-581.7389 153.5898,-581.7605"/>
<text text-anchor="middle" x="161" y="-604.4823" font-family="Times,serif" font-size="14.00" fill="#000000">π₁</text>
</g>
<!-- n4 -->
<g id="node4" class="node">
<title>n4</title>
<ellipse fill="none" stroke="#000000" cx="228" cy="-647.3955" rx="26.3269" ry="10.7143"/>
<text text-anchor="middle" x="228" y="-643.6955" font-family="Times,serif" font-size="14.00" fill="#000000">k:ΩC</text>
</g>
<!-- n4&#45;&gt;n26 -->
<g id="edge26" class="edge">
<title>n4&#45;&gt;n26</title>
<path fill="none" stroke="#000000" stroke-dasharray="5,2" d="M227.3388,-636.6981C226.8208,-626.6047 226.2953,-611.0529 227,-597.5757 227.2758,-592.3021 227.8356,-586.504 228.3978,-581.5145"/>
<polygon fill="#000000" stroke="#000000" points="230.1436,-581.6525 228.9954,-576.481 226.668,-581.2398 230.1436,-581.6525"/>
<text text-anchor="middle" x="235" y="-604.4823" font-family="Times,serif" font-size="14.00" fill="#000000">π₁</text>
</g>
<!-- n5 -->
<g id="node5" class="node">
<title>n5</title>
<ellipse fill="none" stroke="#000000" cx="338" cy="-647.3955" rx="27.6545" ry="10.7143"/>
<text text-anchor="middle" x="338" y="-643.6955" font-family="Times,serif" font-size="14.00" fill="#000000">R:ΩC</text>
</g>
<!-- n5&#45;&gt;n25 -->
<g id="edge23" class="edge">
<title>n5&#45;&gt;n25</title>
<path fill="none" stroke="#000000" stroke-dasharray="5,2" d="M341.1224,-636.6303C344.7926,-625.6112 351.8394,-608.5852 363,-597.5757 371.4333,-589.2566 382.7594,-582.9739 393.2331,-578.4467"/>
<polygon fill="#000000" stroke="#000000" points="394.0188,-580.0157 397.9718,-576.4892 392.6824,-576.7808 394.0188,-580.0157"/>
<text text-anchor="middle" x="371" y="-604.4823" font-family="Times,serif" font-size="14.00" fill="#000000">π₁</text>
</g>
<!-- n6 -->
<g id="node6" class="node">
<title>n6</title>
<ellipse fill="none" stroke="#000000" cx="278" cy="-608.1823" rx="26.3269" ry="10.7143"/>
<text text-anchor="middle" x="278" y="-604.4823" font-family="Times,serif" font-size="14.00" fill="#000000">μ̃:ΩC</text>
</g>
<!-- n23 -->
<g id="node23" class="node">
<title>n23</title>
<polygon fill="none" stroke="#000000" points="365,-428.9361 309,-428.9361 309,-413.9361 365,-413.9361 365,-428.9361"/>
<text text-anchor="middle" x="337" y="-417.7361" font-family="Times,serif" font-size="14.00" fill="#000000">ΩC×Ω•</text>
</g>
<!-- n6&#45;&gt;n23 -->
<g id="edge17" class="edge">
<title>n6&#45;&gt;n23</title>
<path fill="none" stroke="#000000" stroke-dasharray="5,2" d="M280.6537,-597.3022C285.9697,-575.8467 298.5707,-526.6476 312,-486.1493 318.0908,-467.7812 326.384,-446.9783 331.7157,-434.0323"/>
<polygon fill="#000000" stroke="#000000" points="333.3725,-434.6053 333.6704,-429.3162 330.1392,-433.2652 333.3725,-434.6053"/>
<text text-anchor="middle" x="307" y="-529.1625" font-family="Times,serif" font-size="14.00" fill="#000000">π₁</text>
</g>
<!-- n22 -->
<g id="node22" class="node">
<title>n22</title>
</g>
<!-- n7&#45;&gt;n22 -->
<g id="edge7" class="edge">
<title>n7&#45;&gt;n22</title>
<path fill="none" stroke="#000000" d="M106.2382,-42.9658C122.7604,-32.1814 150.3447,-14.1767 162.6906,-6.1183"/>
<polygon fill="#000000" stroke="#000000" points="163.7416,-7.5221 166.9721,-3.3237 161.8285,-4.5912 163.7416,-7.5221"/>
</g>
<!-- n8&#45;&gt;n22 -->
<g id="edge6" class="edge">
<title>n8&#45;&gt;n22</title>
<path fill="none" stroke="#000000" d="M364.6792,-46.9397C318.2046,-36.2664 205.8862,-10.4713 176.2628,-3.668"/>
<polygon fill="#000000" stroke="#000000" points="176.2896,-1.8786 171.0248,-2.465 175.5062,-5.2898 176.2896,-1.8786"/>
</g>
<!-- n24 -->
<g id="node24" class="node">
<title>n24</title>
<polygon fill="none" stroke="#000000" points="362.5,-281.4031 311.5,-281.4031 311.5,-266.4031 362.5,-266.4031 362.5,-281.4031"/>
<text text-anchor="middle" x="337" y="-270.2031" font-family="Times,serif" font-size="14.00" fill="#000000">Ω•×Ω₁</text>
</g>
<!-- n9&#45;&gt;n24 -->
<g id="edge21" class="edge">
<title>n9&#45;&gt;n24</title>
<path fill="none" stroke="#000000" stroke-dasharray="5,2" d="M253.1426,-374.793C260.1974,-364.5466 271.4342,-348.6487 282,-335.5097 296.5304,-317.4404 314.6512,-297.6155 326.0275,-285.4638"/>
<polygon fill="#000000" stroke="#000000" points="327.4625,-286.4923 329.6121,-281.6506 324.9124,-284.095 327.4625,-286.4923"/>
<text text-anchor="middle" x="290" y="-342.4163" font-family="Times,serif" font-size="14.00" fill="#000000">π₂</text>
</g>
<!-- n10 -->
<g id="node10" class="node">
<title>n10</title>
<ellipse fill="none" stroke="#000000" cx="93" cy="-126.6482" rx="40.1111" ry="10.7143"/>
<text text-anchor="middle" x="93" y="-122.9482" font-family="Times,serif" font-size="14.00" fill="#000000">ρ_up:Ω₀</text>
</g>
<!-- n10&#45;&gt;n7 -->
<g id="edge16" class="edge">
<title>n10&#45;&gt;n7</title>
<path fill="none" stroke="#000000" d="M93,-115.8966C93,-103.1915 93,-81.9417 93,-67.3746"/>
<polygon fill="#000000" stroke="#000000" points="94.7501,-67.3383 93,-62.3383 91.2501,-67.3383 94.7501,-67.3383"/>
<text text-anchor="middle" x="101" y="-84.0132" font-family="Times,serif" font-size="14.00" fill="#000000">∂ρ</text>
</g>
<!-- n11 -->
<g id="node11" class="node">
<title>n11</title>
<ellipse fill="none" stroke="#000000" cx="340" cy="-201.6899" rx="28.0702" ry="10.7143"/>
<text text-anchor="middle" x="340" y="-197.9899" font-family="Times,serif" font-size="14.00" fill="#000000">•1:Ω₁</text>
</g>
<!-- n29 -->
<g id="node29" class="node">
<title>n29</title>
<ellipse fill="none" stroke="#000000" cx="385" cy="-126.6482" rx="13.3704" ry="13.3704"/>
<text text-anchor="middle" x="385" y="-122.9482" font-family="Times,serif" font-size="14.00" fill="#000000">Σ1</text>
</g>
<!-- n11&#45;&gt;n29 -->
<g id="edge36" class="edge">
<title>n11&#45;&gt;n29</title>
<path fill="none" stroke="#000000" stroke-dasharray="5,2" d="M346.2571,-191.2556C353.8296,-178.6278 366.658,-157.2351 375.4645,-142.5495"/>
<polygon fill="#000000" stroke="#000000" points="376.9875,-143.4125 378.0581,-138.2244 373.9858,-141.6125 376.9875,-143.4125"/>
</g>
<!-- n12 -->
<g id="node12" class="node">
<title>n12</title>
<ellipse fill="none" stroke="#000000" cx="337" cy="-346.1163" rx="30.3115" ry="10.7143"/>
<text text-anchor="middle" x="337" y="-342.4163" font-family="Times,serif" font-size="14.00" fill="#000000">•2:Ω•</text>
</g>
<!-- n12&#45;&gt;n24 -->
<g id="edge20" class="edge">
<title>n12&#45;&gt;n24</title>
<path fill="none" stroke="#000000" stroke-dasharray="5,2" d="M337,-335.461C337,-322.438 337,-300.4275 337,-286.5566"/>
<polygon fill="#000000" stroke="#000000" points="338.7501,-286.5031 337,-281.5032 335.2501,-286.5032 338.7501,-286.5031"/>
<text text-anchor="middle" x="345" y="-306.3097" font-family="Times,serif" font-size="14.00" fill="#000000">π₁</text>
</g>
<!-- n13 -->
<g id="node13" class="node">
<title>n13</title>
<ellipse fill="none" stroke="#000000" cx="351" cy="-496.7559" rx="30.3115" ry="10.7143"/>
<text text-anchor="middle" x="351" y="-493.0559" font-family="Times,serif" font-size="14.00" fill="#000000">•3:Ω•</text>
</g>
<!-- n13&#45;&gt;n23 -->
<g id="edge18" class="edge">
<title>n13&#45;&gt;n23</title>
<path fill="none" stroke="#000000" stroke-dasharray="5,2" d="M348.9941,-485.9644C346.4577,-472.3185 342.096,-448.8523 339.3897,-434.2928"/>
<polygon fill="#000000" stroke="#000000" points="341.042,-433.6054 338.4077,-429.0094 337.601,-434.245 341.042,-433.6054"/>
<text text-anchor="middle" x="353" y="-453.8427" font-family="Times,serif" font-size="14.00" fill="#000000">π₂</text>
</g>
<!-- n14&#45;&gt;n13 -->
<g id="edge11" class="edge">
<title>n14&#45;&gt;n13</title>
<path fill="none" stroke="#000000" d="M349.2951,-558.3138C349.6289,-546.2607 350.176,-526.5086 350.5602,-512.6366"/>
<polygon fill="#000000" stroke="#000000" points="352.3145,-512.5015 350.7037,-507.4549 348.8158,-512.4045 352.3145,-512.5015"/>
<text text-anchor="middle" x="358.5" y="-529.1625" font-family="Times,serif" font-size="14.00" fill="#000000">∂q</text>
</g>
<!-- n15 -->
<g id="node15" class="node">
<title>n15</title>
<ellipse fill="none" stroke="#000000" cx="408" cy="-457.5427" rx="28.0702" ry="10.7143"/>
<text text-anchor="middle" x="408" y="-453.8427" font-family="Times,serif" font-size="14.00" fill="#000000">•5:Ω₁</text>
</g>
<!-- n15&#45;&gt;n29 -->
<g id="edge37" class="edge">
<title>n15&#45;&gt;n29</title>
<path fill="none" stroke="#000000" stroke-dasharray="5,2" d="M405.3372,-446.8538C402.0817,-432.8262 397,-407.3955 397,-385.3295 397,-385.3295 397,-385.3295 397,-201.6899 397,-182.184 392.9977,-160.1798 389.6159,-145.0687"/>
<polygon fill="#000000" stroke="#000000" points="391.2366,-144.3088 388.4066,-139.8307 387.8263,-145.0962 391.2366,-144.3088"/>
</g>
<!-- n16 -->
<g id="node16" class="node">
<title>n16</title>
<ellipse fill="none" stroke="#000000" cx="152" cy="-496.7559" rx="49.4949" ry="10.7143"/>
<text text-anchor="middle" x="152" y="-493.0559" font-family="Times,serif" font-size="14.00" fill="#000000">sum_1:Ω₁</text>
</g>
<!-- n28 -->
<g id="node28" class="node">
<title>n28</title>
<polygon fill="none" stroke="#000000" points="119,-428.9361 67,-428.9361 67,-413.9361 119,-413.9361 119,-428.9361"/>
<text text-anchor="middle" x="93" y="-417.7361" font-family="Times,serif" font-size="14.00" fill="#000000">ΩL×Ω₁</text>
</g>
<!-- n16&#45;&gt;n28 -->
<g id="edge33" class="edge">
<title>n16&#45;&gt;n28</title>
<path fill="none" stroke="#000000" stroke-dasharray="5,2" d="M143.7963,-486.283C132.8923,-472.3628 113.6762,-447.8315 102.2626,-433.2608"/>
<polygon fill="#000000" stroke="#000000" points="103.4498,-431.9384 98.9888,-429.0814 100.6944,-434.0967 103.4498,-431.9384"/>
<text text-anchor="middle" x="138" y="-453.8427" font-family="Times,serif" font-size="14.00" fill="#000000">π₂</text>
</g>
<!-- n17 -->
<g id="node17" class="node">
<title>n17</title>
<ellipse fill="none" stroke="#000000" cx="93" cy="-346.1163" rx="28.0702" ry="10.7143"/>
<text text-anchor="middle" x="93" y="-342.4163" font-family="Times,serif" font-size="14.00" fill="#000000">•6:Ω₁</text>
</g>
<!-- n19 -->
<g id="node19" class="node">
<title>n19</title>
<ellipse fill="none" stroke="#000000" cx="93" cy="-273.9031" rx="45.011" ry="10.7143"/>
<text text-anchor="middle" x="93" y="-270.2031" font-family="Times,serif" font-size="14.00" fill="#000000">•_6_1:Ω̃₀</text>
</g>
<!-- n17&#45;&gt;n19 -->
<g id="edge13" class="edge">
<title>n17&#45;&gt;n19</title>
<path fill="none" stroke="#000000" d="M93,-335.461C93,-323.4078 93,-303.6558 93,-289.7838"/>
<polygon fill="#000000" stroke="#000000" points="94.7501,-289.6021 93,-284.6021 91.2501,-289.6021 94.7501,-289.6021"/>
<text text-anchor="middle" x="101" y="-306.3097" font-family="Times,serif" font-size="14.00" fill="#000000">⋆₁</text>
</g>
<!-- n18 -->
<g id="node18" class="node">
<title>n18</title>
<ellipse fill="none" stroke="#000000" cx="56" cy="-496.7559" rx="28.0702" ry="10.7143"/>
<text text-anchor="middle" x="56" y="-493.0559" font-family="Times,serif" font-size="14.00" fill="#000000">&#45;1:ΩL</text>
</g>
<!-- n18&#45;&gt;n28 -->
<g id="edge32" class="edge">
<title>n18&#45;&gt;n28</title>
<path fill="none" stroke="#000000" stroke-dasharray="5,2" d="M61.1447,-486.283C67.9239,-472.4828 79.8262,-448.2536 87.0051,-433.6398"/>
<polygon fill="#000000" stroke="#000000" points="88.6104,-434.3408 89.2443,-429.0814 85.469,-432.7975 88.6104,-434.3408"/>
<text text-anchor="middle" x="88" y="-453.8427" font-family="Times,serif" font-size="14.00" fill="#000000">π₁</text>
</g>
<!-- n20 -->
<g id="node20" class="node">
<title>n20</title>
<ellipse fill="none" stroke="#000000" cx="93" cy="-201.6899" rx="45.011" ry="10.7143"/>
<text text-anchor="middle" x="93" y="-197.9899" font-family="Times,serif" font-size="14.00" fill="#000000">•_6_2:Ω̃₁</text>
</g>
<!-- n19&#45;&gt;n20 -->
<g id="edge14" class="edge">
<title>n19&#45;&gt;n20</title>
<path fill="none" stroke="#000000" d="M93,-263.2478C93,-251.1946 93,-231.4426 93,-217.5706"/>
<polygon fill="#000000" stroke="#000000" points="94.7501,-217.3889 93,-212.3889 91.2501,-217.3889 94.7501,-217.3889"/>
<text text-anchor="middle" x="120" y="-234.0965" font-family="Times,serif" font-size="14.00" fill="#000000">dual_d₀</text>
</g>
<!-- n20&#45;&gt;n10 -->
<g id="edge15" class="edge">
<title>n20&#45;&gt;n10</title>
<path fill="none" stroke="#000000" d="M93,-190.9382C93,-178.2331 93,-156.9834 93,-142.4162"/>
<polygon fill="#000000" stroke="#000000" points="94.7501,-142.3799 93,-137.3799 91.2501,-142.38 94.7501,-142.3799"/>
<text text-anchor="middle" x="107.5" y="-161.8833" font-family="Times,serif" font-size="14.00" fill="#000000">⋆₀⁻¹</text>
</g>
<!-- n21 -->
<g id="node21" class="node">
<title>n21</title>
</g>
<!-- n21&#45;&gt;n1 -->
<g id="edge1" class="edge">
<title>n21&#45;&gt;n1</title>
<path fill="none" stroke="#000000" d="M284.1523,-696.1411C295.7525,-691.5004 351.4832,-669.2051 383.4074,-656.4338"/>
<polygon fill="#000000" stroke="#000000" points="384.3239,-657.952 388.3162,-654.47 383.0238,-654.7024 384.3239,-657.952"/>
</g>
<!-- n21&#45;&gt;n3 -->
<g id="edge2" class="edge">
<title>n21&#45;&gt;n3</title>
<path fill="none" stroke="#000000" d="M279.8304,-696.1411C268.0751,-691.476 211.3638,-668.9699 179.2687,-656.2329"/>
<polygon fill="#000000" stroke="#000000" points="179.6326,-654.4946 174.3397,-654.2768 178.3415,-657.7478 179.6326,-654.4946"/>
</g>
<!-- n21&#45;&gt;n4 -->
<g id="edge3" class="edge">
<title>n21&#45;&gt;n4</title>
<path fill="none" stroke="#000000" d="M279.6797,-694.8706C273.3863,-689.0892 255.5969,-672.7472 242.6443,-660.8484"/>
<polygon fill="#000000" stroke="#000000" points="243.664,-659.4087 238.7979,-657.3149 241.2962,-661.9863 243.664,-659.4087"/>
</g>
<!-- n21&#45;&gt;n5 -->
<g id="edge4" class="edge">
<title>n21&#45;&gt;n5</title>
<path fill="none" stroke="#000000" d="M284.4063,-694.8706C290.9328,-689.0892 309.381,-672.7472 322.8133,-660.8484"/>
<polygon fill="#000000" stroke="#000000" points="324.2198,-661.9403 326.8022,-657.3149 321.899,-659.3204 324.2198,-661.9403"/>
</g>
<!-- n21&#45;&gt;n6 -->
<g id="edge5" class="edge">
<title>n21&#45;&gt;n6</title>
<path fill="none" stroke="#000000" d="M281.9011,-694.8065C281.4668,-685.1614 279.705,-646.0424 278.704,-623.8151"/>
<polygon fill="#000000" stroke="#000000" points="280.4523,-623.735 278.479,-618.8188 276.9558,-623.8925 280.4523,-623.735"/>
</g>
<!-- n23&#45;&gt;n12 -->
<g id="edge19" class="edge">
<title>n23&#45;&gt;n12</title>
<path fill="none" stroke="#000000" d="M337,-413.6592C337,-401.5025 337,-377.751 337,-361.9053"/>
<polygon fill="#000000" stroke="#000000" points="338.7501,-361.8627 337,-356.8627 335.2501,-361.8628 338.7501,-361.8627"/>
<text text-anchor="middle" x="341" y="-381.6295" font-family="Times,serif" font-size="14.00" fill="#000000">*</text>
</g>
<!-- n24&#45;&gt;n11 -->
<g id="edge22" class="edge">
<title>n24&#45;&gt;n11</title>
<path fill="none" stroke="#000000" d="M337.3211,-266.175C337.8003,-254.6387 338.7133,-232.6613 339.3391,-217.5983"/>
<polygon fill="#000000" stroke="#000000" points="341.0962,-217.4621 339.5553,-212.3937 337.5992,-217.3168 341.0962,-217.4621"/>
<text text-anchor="middle" x="340.5" y="-234.0965" font-family="Times,serif" font-size="14.00" fill="#000000">&#45;</text>
</g>
<!-- n25&#45;&gt;n15 -->
<g id="edge25" class="edge">
<title>n25&#45;&gt;n15</title>
<path fill="none" stroke="#000000" d="M421.0377,-561.3103C418.7748,-543.2999 413.0767,-497.9482 410.0168,-473.5946"/>
<polygon fill="#000000" stroke="#000000" points="411.7302,-473.1931 409.3705,-468.4503 408.2575,-473.6295 411.7302,-473.1931"/>
<text text-anchor="middle" x="422" y="-529.1625" font-family="Times,serif" font-size="14.00" fill="#000000">*</text>
</g>
<!-- n26&#45;&gt;n2 -->
<g id="edge28" class="edge">
<title>n26&#45;&gt;n2</title>
<path fill="none" stroke="#000000" d="M231.2842,-561.241C233.2012,-549.7047 236.8533,-527.7273 239.3564,-512.6643"/>
<polygon fill="#000000" stroke="#000000" points="241.1279,-512.679 240.2213,-507.4598 237.6752,-512.1052 241.1279,-512.679"/>
<text text-anchor="middle" x="241" y="-529.1625" font-family="Times,serif" font-size="14.00" fill="#000000">*</text>
</g>
<!-- n27&#45;&gt;n16 -->
<g id="edge31" class="edge">
<title>n27&#45;&gt;n16</title>
<path fill="none" stroke="#000000" d="M152,-561.241C152,-549.7047 152,-527.7273 152,-512.6643"/>
<polygon fill="#000000" stroke="#000000" points="153.7501,-512.4597 152,-507.4598 150.2501,-512.4598 153.7501,-512.4597"/>
<text text-anchor="middle" x="163.5" y="-529.1625" font-family="Times,serif" font-size="14.00" fill="#000000">∧₀₁</text>
</g>
<!-- n28&#45;&gt;n17 -->
<g id="edge34" class="edge">
<title>n28&#45;&gt;n17</title>
<path fill="none" stroke="#000000" d="M93,-413.6592C93,-401.5025 93,-377.751 93,-361.9053"/>
<polygon fill="#000000" stroke="#000000" points="94.7501,-361.8627 93,-356.8627 91.2501,-361.8628 94.7501,-361.8627"/>
<text text-anchor="middle" x="97" y="-381.6295" font-family="Times,serif" font-size="14.00" fill="#000000">*</text>
</g>
<!-- n29&#45;&gt;n8 -->
<g id="edge35" class="edge">
<title>n29&#45;&gt;n8</title>
<path fill="none" stroke="#000000" d="M385,-112.8844C385,-100.0347 385,-80.8699 385,-67.4022"/>
<polygon fill="#000000" stroke="#000000" points="386.7501,-67.3682 385,-62.3682 383.2501,-67.3683 386.7501,-67.3682"/>
<text text-anchor="middle" x="391.5" y="-84.0132" font-family="Times,serif" font-size="14.00" fill="#000000">+</text>
</g>
</g>
</svg>
