<?xml version="1.0" encoding="UTF-8" standalone="no"?>
<!DOCTYPE svg PUBLIC "-//W3C//DTD SVG 1.1//EN"
 "http://www.w3.org/Graphics/SVG/1.1/DTD/svg11.dtd">
<!-- Generated by graphviz version 2.43.0 (0)
 -->
<!-- Title: G Pages: 1 -->
<svg width="871pt" height="1224pt"
 viewBox="0.00 0.00 871.02 1224.36" xmlns="http://www.w3.org/2000/svg" xmlns:xlink="http://www.w3.org/1999/xlink">
<g id="graph0" class="graph" transform="scale(1 1) rotate(0) translate(4 1220.36)">
<title>G</title>
<polygon fill="white" stroke="transparent" points="-4,4 -4,-1220.36 867.02,-1220.36 867.02,4 -4,4"/>
<!-- n1 -->
<g id="node1" class="node">
<title>n1</title>
<ellipse fill="none" stroke="black" cx="743.02" cy="-852.17" rx="21.84" ry="10.71"/>
<text text-anchor="middle" x="743.02" y="-848.47" font-family="Times,serif" font-size="14.00">h:Ω₀</text>
</g>
<!-- n4 -->
<g id="node4" class="node">
<title>n4</title>
<ellipse fill="none" stroke="black" cx="785.02" cy="-51.61" rx="76.24" ry="10.71"/>
<text text-anchor="middle" x="785.02" y="-47.91" font-family="Times,serif" font-size="14.00">dynamics_ḣ:Ω•</text>
</g>
<!-- n1&#45;&gt;n4 -->
<g id="edge7" class="edge">
<title>n1&#45;&gt;n4</title>
<path fill="none" stroke="black" d="M762.33,-846.86C793.4,-838.67 851.02,-817.69 851.02,-774.74 851.02,-774.74 851.02,-774.74 851.02,-122.82 851.02,-97.06 827.16,-76.89 808.13,-64.9"/>
<polygon fill="black" stroke="black" points="808.59,-63.14 803.41,-62.03 806.77,-66.13 808.59,-63.14"/>
<text text-anchor="middle" x="857.02" y="-432.65" font-family="Times,serif" font-size="14.00">∂ₜ</text>
</g>
<!-- n7 -->
<g id="node7" class="node">
<title>n7</title>
<ellipse fill="none" stroke="black" cx="634.02" cy="-734.53" rx="82.05" ry="10.71"/>
<text text-anchor="middle" x="634.02" y="-730.83" font-family="Times,serif" font-size="14.00">dynamics_•1:Ω•</text>
</g>
<!-- n1&#45;&gt;n7 -->
<g id="edge8" class="edge">
<title>n1&#45;&gt;n7</title>
<path fill="none" stroke="black" d="M725.95,-845.5C721.74,-844.15 717.23,-842.76 713.02,-841.56 681.73,-832.59 663.16,-848.32 642.02,-823.56 624.63,-803.18 627.24,-769.65 630.66,-750.39"/>
<polygon fill="black" stroke="black" points="632.4,-750.6 631.63,-745.36 628.96,-749.94 632.4,-750.6"/>
<text text-anchor="middle" x="647.02" y="-809.25" font-family="Times,serif" font-size="14.00">d</text>
</g>
<!-- n12 -->
<g id="node12" class="node">
<title>n12</title>
<ellipse fill="none" stroke="black" cx="523.02" cy="-773.74" rx="82.05" ry="10.71"/>
<text text-anchor="middle" x="523.02" y="-770.04" font-family="Times,serif" font-size="14.00">dynamics_•6:Ω•</text>
</g>
<!-- n1&#45;&gt;n12 -->
<g id="edge9" class="edge">
<title>n1&#45;&gt;n12</title>
<path fill="none" stroke="black" d="M726.01,-845.27C721.8,-843.94 717.27,-842.6 713.02,-841.56 667.9,-830.45 653.8,-839.15 610.02,-823.56 584.67,-814.53 558.04,-798.47 541.03,-787.25"/>
<polygon fill="black" stroke="black" points="541.62,-785.54 536.49,-784.22 539.68,-788.45 541.62,-785.54"/>
<text text-anchor="middle" x="615.02" y="-809.25" font-family="Times,serif" font-size="14.00">d</text>
</g>
<!-- n33 -->
<g id="node33" class="node">
<title>n33</title>
<polygon fill="none" stroke="black" points="765.52,-781.24 716.52,-781.24 716.52,-766.24 765.52,-766.24 765.52,-781.24"/>
<text text-anchor="middle" x="741.02" y="-770.04" font-family="Times,serif" font-size="14.00">Ω₀×Ω•</text>
</g>
<!-- n1&#45;&gt;n33 -->
<g id="edge21" class="edge">
<title>n1&#45;&gt;n33</title>
<path fill="none" stroke="black" stroke-dasharray="5,2" d="M742.77,-841.49C742.4,-827.46 741.73,-801.53 741.33,-786.45"/>
<polygon fill="black" stroke="black" points="743.08,-786.38 741.2,-781.42 739.58,-786.47 743.08,-786.38"/>
<text text-anchor="middle" x="749.52" y="-809.25" font-family="Times,serif" font-size="14.00">π₁</text>
</g>
<!-- n2 -->
<g id="node2" class="node">
<title>n2</title>
<ellipse fill="none" stroke="black" cx="479.02" cy="-544.67" rx="21.84" ry="10.71"/>
<text text-anchor="middle" x="479.02" y="-540.97" font-family="Times,serif" font-size="14.00">Γ:Ω₁</text>
</g>
<!-- n34 -->
<g id="node34" class="node">
<title>n34</title>
<polygon fill="none" stroke="black" points="624.52,-479.96 575.52,-479.96 575.52,-464.96 624.52,-464.96 624.52,-479.96"/>
<text text-anchor="middle" x="600.02" y="-468.76" font-family="Times,serif" font-size="14.00">Ω₁×Ω•</text>
</g>
<!-- n2&#45;&gt;n34 -->
<g id="edge24" class="edge">
<title>n2&#45;&gt;n34</title>
<path fill="none" stroke="black" stroke-dasharray="5,2" d="M492.44,-535.89C514.93,-522.84 560.16,-496.59 584.19,-482.65"/>
<polygon fill="black" stroke="black" points="585.25,-484.06 588.7,-480.03 583.49,-481.03 585.25,-484.06"/>
<text text-anchor="middle" x="557.52" y="-504.87" font-family="Times,serif" font-size="14.00">π₁</text>
</g>
<!-- n3 -->
<g id="node3" class="node">
<title>n3</title>
<ellipse fill="none" stroke="black" cx="394.02" cy="-1164.76" rx="25.41" ry="10.71"/>
<text text-anchor="middle" x="394.02" y="-1161.06" font-family="Times,serif" font-size="14.00">n:ΩC</text>
</g>
<!-- n31 -->
<g id="node31" class="node">
<title>n31</title>
<polygon fill="none" stroke="black" points="109.52,-1091 54.52,-1091 54.52,-1076 109.52,-1076 109.52,-1091"/>
<text text-anchor="middle" x="82.02" y="-1079.8" font-family="Times,serif" font-size="14.00">ΩC×ΩL</text>
</g>
<!-- n3&#45;&gt;n31 -->
<g id="edge15" class="edge">
<title>n3&#45;&gt;n31</title>
<path fill="none" stroke="black" stroke-dasharray="5,2" d="M373.07,-1158.43C319.38,-1144.8 176.67,-1108.54 113.2,-1092.42"/>
<polygon fill="black" stroke="black" points="113.32,-1090.65 108.04,-1091.11 112.46,-1094.04 113.32,-1090.65"/>
<text text-anchor="middle" x="292.52" y="-1121.84" font-family="Times,serif" font-size="14.00">π₁</text>
</g>
<!-- n39 -->
<g id="node39" class="node">
<title>n39</title>
<polygon fill="none" stroke="black" points="480.02,-934.71 426.02,-934.71 426.02,-919.71 480.02,-919.71 480.02,-934.71"/>
<text text-anchor="middle" x="453.02" y="-923.51" font-family="Times,serif" font-size="14.00">Ω•×ΩC</text>
</g>
<!-- n3&#45;&gt;n39 -->
<g id="edge40" class="edge">
<title>n3&#45;&gt;n39</title>
<path fill="none" stroke="black" stroke-dasharray="5,2" d="M396.96,-1153.99C403.89,-1130.74 421.62,-1070.23 434.02,-1019.07 440.85,-990.93 447.45,-957.53 450.79,-940.11"/>
<polygon fill="black" stroke="black" points="452.57,-940.09 451.79,-934.85 449.13,-939.44 452.57,-940.09"/>
<text text-anchor="middle" x="436.52" y="-1040.87" font-family="Times,serif" font-size="14.00">π₂</text>
</g>
<!-- n42 -->
<g id="node42" class="node">
<title>n42</title>
<ellipse fill="none" stroke="black" cx="601.02" cy="-927.21" rx="13.37" ry="13.37"/>
<text text-anchor="middle" x="601.02" y="-923.51" font-family="Times,serif" font-size="14.00">Σ1</text>
</g>
<!-- n3&#45;&gt;n42 -->
<g id="edge50" class="edge">
<title>n3&#45;&gt;n42</title>
<path fill="none" stroke="black" stroke-dasharray="5,2" d="M402.96,-1154.61C407.9,-1149.38 414.04,-1142.59 419.02,-1136.15 464.07,-1077.98 459.88,-1051.7 510.02,-997.85 533.27,-972.89 566.2,-950.12 585.42,-937.81"/>
<polygon fill="black" stroke="black" points="586.7,-939.06 589.99,-934.91 584.83,-936.11 586.7,-939.06"/>
</g>
<!-- n43 -->
<g id="node43" class="node">
<title>n43</title>
<ellipse fill="none" stroke="black" cx="339.02" cy="-1083.5" rx="13.37" ry="13.37"/>
<text text-anchor="middle" x="339.02" y="-1079.8" font-family="Times,serif" font-size="14.00">Σ2</text>
</g>
<!-- n3&#45;&gt;n43 -->
<g id="edge52" class="edge">
<title>n3&#45;&gt;n43</title>
<path fill="none" stroke="black" stroke-dasharray="5,2" d="M387.5,-1154.36C378.03,-1140.71 360.4,-1115.3 349.21,-1099.18"/>
<polygon fill="black" stroke="black" points="350.53,-1098.01 346.24,-1094.9 347.65,-1100 350.53,-1098.01"/>
</g>
<!-- n30 -->
<g id="node30" class="node">
<title>n30</title>
</g>
<!-- n4&#45;&gt;n30 -->
<g id="edge6" class="edge">
<title>n4&#45;&gt;n30</title>
<path fill="none" stroke="black" d="M785.02,-40.97C785.02,-31.46 785.02,-17.21 785.02,-9.14"/>
<polygon fill="black" stroke="black" points="786.77,-9.06 785.02,-4.06 783.27,-9.06 786.77,-9.06"/>
</g>
<!-- n5 -->
<g id="node5" class="node">
<title>n5</title>
<ellipse fill="none" stroke="black" cx="606.02" cy="-262.03" rx="104.8" ry="10.71"/>
<text text-anchor="middle" x="606.02" y="-258.33" font-family="Times,serif" font-size="14.00">dynamics_mult_1:Ω•</text>
</g>
<!-- n36 -->
<g id="node36" class="node">
<title>n36</title>
<polygon fill="none" stroke="black" points="744.02,-200.43 692.02,-200.43 692.02,-185.43 744.02,-185.43 744.02,-200.43"/>
<text text-anchor="middle" x="718.02" y="-189.23" font-family="Times,serif" font-size="14.00">Ω•×Ω•</text>
</g>
<!-- n5&#45;&gt;n36 -->
<g id="edge30" class="edge">
<title>n5&#45;&gt;n36</title>
<path fill="none" stroke="black" stroke-dasharray="5,2" d="M622.07,-251.42C643.55,-238.55 681.4,-215.87 702.57,-203.18"/>
<polygon fill="black" stroke="black" points="703.69,-204.56 707.08,-200.49 701.89,-201.55 703.69,-204.56"/>
<text text-anchor="middle" x="682.52" y="-222.23" font-family="Times,serif" font-size="14.00">π₁</text>
</g>
<!-- n6 -->
<g id="node6" class="node">
<title>n6</title>
<ellipse fill="none" stroke="black" cx="718.02" cy="-123.82" rx="104.8" ry="10.71"/>
<text text-anchor="middle" x="718.02" y="-120.12" font-family="Times,serif" font-size="14.00">dynamics_mult_2:Ω•</text>
</g>
<!-- n6&#45;&gt;n4 -->
<g id="edge14" class="edge">
<title>n6&#45;&gt;n4</title>
<path fill="none" stroke="black" d="M727.34,-113.06C739.04,-100.8 759.17,-79.7 772.29,-65.96"/>
<polygon fill="black" stroke="black" points="773.6,-67.11 775.79,-62.29 771.07,-64.7 773.6,-67.11"/>
<text text-anchor="middle" x="775.52" y="-84.01" font-family="Times,serif" font-size="14.00">⋆⋅d⋅⋆</text>
</g>
<!-- n7&#45;&gt;n34 -->
<g id="edge25" class="edge">
<title>n7&#45;&gt;n34</title>
<path fill="none" stroke="black" stroke-dasharray="5,2" d="M633.36,-723.57C632.47,-709.47 631.02,-682.88 631.02,-660.21 631.02,-660.21 631.02,-660.21 631.02,-543.67 631.02,-520.93 617.24,-497.3 608.06,-484.07"/>
<polygon fill="black" stroke="black" points="609.48,-483.05 605.14,-480.01 606.63,-485.09 609.48,-483.05"/>
<text text-anchor="middle" x="638.52" y="-619.4" font-family="Times,serif" font-size="14.00">π₂</text>
</g>
<!-- n8 -->
<g id="node8" class="node">
<title>n8</title>
<ellipse fill="none" stroke="black" cx="395.02" cy="-400.25" rx="82.05" ry="10.71"/>
<text text-anchor="middle" x="395.02" y="-396.55" font-family="Times,serif" font-size="14.00">dynamics_•2:Ω•</text>
</g>
<!-- n35 -->
<g id="node35" class="node">
<title>n35</title>
<polygon fill="none" stroke="black" points="626.02,-338.64 574.02,-338.64 574.02,-323.64 626.02,-323.64 626.02,-338.64"/>
<text text-anchor="middle" x="600.02" y="-327.44" font-family="Times,serif" font-size="14.00">Ω•×Ω•</text>
</g>
<!-- n8&#45;&gt;n35 -->
<g id="edge28" class="edge">
<title>n8&#45;&gt;n35</title>
<path fill="none" stroke="black" stroke-dasharray="5,2" d="M422.67,-390.2C462.73,-377.08 536.33,-352.99 574.91,-340.36"/>
<polygon fill="black" stroke="black" points="575.69,-341.95 579.89,-338.73 574.6,-338.62 575.69,-341.95"/>
<text text-anchor="middle" x="528.52" y="-360.44" font-family="Times,serif" font-size="14.00">π₂</text>
</g>
<!-- n9 -->
<g id="node9" class="node">
<title>n9</title>
<ellipse fill="none" stroke="black" cx="395.02" cy="-472.46" rx="82.05" ry="10.71"/>
<text text-anchor="middle" x="395.02" y="-468.76" font-family="Times,serif" font-size="14.00">dynamics_•3:Ω•</text>
</g>
<!-- n9&#45;&gt;n8 -->
<g id="edge12" class="edge">
<title>n9&#45;&gt;n8</title>
<path fill="none" stroke="black" d="M395.02,-461.7C395.02,-449.85 395.02,-429.77 395.02,-416.03"/>
<polygon fill="black" stroke="black" points="396.77,-415.93 395.02,-410.93 393.27,-415.93 396.77,-415.93"/>
<text text-anchor="middle" x="413.52" y="-432.65" font-family="Times,serif" font-size="14.00">avg₀₁</text>
</g>
<!-- n10 -->
<g id="node10" class="node">
<title>n10</title>
<ellipse fill="none" stroke="black" cx="513.02" cy="-623.1" rx="82.05" ry="10.71"/>
<text text-anchor="middle" x="513.02" y="-619.4" font-family="Times,serif" font-size="14.00">dynamics_•4:Ω•</text>
</g>
<!-- n32 -->
<g id="node32" class="node">
<title>n32</title>
<polygon fill="none" stroke="black" points="421.02,-552.17 369.02,-552.17 369.02,-537.17 421.02,-537.17 421.02,-552.17"/>
<text text-anchor="middle" x="395.02" y="-540.97" font-family="Times,serif" font-size="14.00">Ω•×Ω•</text>
</g>
<!-- n10&#45;&gt;n32 -->
<g id="edge18" class="edge">
<title>n10&#45;&gt;n32</title>
<path fill="none" stroke="black" stroke-dasharray="5,2" d="M502.78,-612.23C491.48,-601.7 472.45,-584.94 454.02,-573.28 442.24,-565.82 428.11,-559.13 416.63,-554.21"/>
<polygon fill="black" stroke="black" points="417.18,-552.55 411.89,-552.22 415.82,-555.77 417.18,-552.55"/>
<text text-anchor="middle" x="489.52" y="-580.19" font-family="Times,serif" font-size="14.00">π₁</text>
</g>
<!-- n11 -->
<g id="node11" class="node">
<title>n11</title>
<ellipse fill="none" stroke="black" cx="519.02" cy="-695.31" rx="82.05" ry="10.71"/>
<text text-anchor="middle" x="519.02" y="-691.61" font-family="Times,serif" font-size="14.00">dynamics_•5:Ω•</text>
</g>
<!-- n11&#45;&gt;n10 -->
<g id="edge11" class="edge">
<title>n11&#45;&gt;n10</title>
<path fill="none" stroke="black" d="M518.19,-684.55C517.18,-672.71 515.46,-652.63 514.29,-638.88"/>
<polygon fill="black" stroke="black" points="516.02,-638.61 513.85,-633.78 512.53,-638.91 516.02,-638.61"/>
<text text-anchor="middle" x="531.52" y="-655.51" font-family="Times,serif" font-size="14.00">mag</text>
</g>
<!-- n12&#45;&gt;n11 -->
<g id="edge10" class="edge">
<title>n12&#45;&gt;n11</title>
<path fill="none" stroke="black" d="M522.52,-763.06C521.84,-750.04 520.62,-726.75 519.81,-711.41"/>
<polygon fill="black" stroke="black" points="521.55,-711.06 519.54,-706.15 518.05,-711.24 521.55,-711.06"/>
<text text-anchor="middle" x="524.52" y="-730.83" font-family="Times,serif" font-size="14.00">♯</text>
</g>
<!-- n13 -->
<g id="node13" class="node">
<title>n13</title>
<ellipse fill="none" stroke="black" cx="82.02" cy="-969.25" rx="82.05" ry="10.71"/>
<text text-anchor="middle" x="82.02" y="-965.55" font-family="Times,serif" font-size="14.00">dynamics_•7:Ω•</text>
</g>
<!-- n13&#45;&gt;n32 -->
<g id="edge19" class="edge">
<title>n13&#45;&gt;n32</title>
<path fill="none" stroke="black" stroke-dasharray="5,2" d="M89.23,-958.6C99.22,-944.27 116.02,-916.14 116.02,-889.27 116.02,-889.27 116.02,-889.27 116.02,-622.1 116.02,-571.21 290.83,-553 363.71,-547.62"/>
<polygon fill="black" stroke="black" points="363.92,-549.36 368.78,-547.25 363.66,-545.87 363.92,-549.36"/>
<text text-anchor="middle" x="123.52" y="-770.04" font-family="Times,serif" font-size="14.00">π₂</text>
</g>
<!-- n14 -->
<g id="node14" class="node">
<title>n14</title>
<ellipse fill="none" stroke="black" cx="59.02" cy="-1164.76" rx="24.08" ry="10.71"/>
<text text-anchor="middle" x="59.02" y="-1161.06" font-family="Times,serif" font-size="14.00">1:ΩL</text>
</g>
<!-- n14&#45;&gt;n31 -->
<g id="edge16" class="edge">
<title>n14&#45;&gt;n31</title>
<path fill="none" stroke="black" stroke-dasharray="5,2" d="M55.82,-1154.05C53.04,-1143.95 50.13,-1127.82 55.02,-1114.94 58,-1107.1 64.01,-1100 69.61,-1094.62"/>
<polygon fill="black" stroke="black" points="70.86,-1095.85 73.38,-1091.19 68.51,-1093.26 70.86,-1095.85"/>
<text text-anchor="middle" x="62.52" y="-1121.84" font-family="Times,serif" font-size="14.00">π₂</text>
</g>
<!-- n15 -->
<g id="node15" class="node">
<title>n15</title>
<ellipse fill="none" stroke="black" cx="741.02" cy="-583.89" rx="82.05" ry="10.71"/>
<text text-anchor="middle" x="741.02" y="-580.19" font-family="Times,serif" font-size="14.00">dynamics_•8:Ω•</text>
</g>
<!-- n15&#45;&gt;n36 -->
<g id="edge31" class="edge">
<title>n15&#45;&gt;n36</title>
<path fill="none" stroke="black" stroke-dasharray="5,2" d="M741.02,-572.92C741.02,-558.82 741.02,-532.22 741.02,-509.57 741.02,-509.57 741.02,-509.57 741.02,-261.03 741.02,-240.59 731.36,-218.45 724.56,-205.4"/>
<polygon fill="black" stroke="black" points="725.94,-204.29 722.03,-200.71 722.86,-205.95 725.94,-204.29"/>
<text text-anchor="middle" x="748.52" y="-396.55" font-family="Times,serif" font-size="14.00">π₂</text>
</g>
<!-- n16 -->
<g id="node16" class="node">
<title>n16</title>
<ellipse fill="none" stroke="black" cx="741.02" cy="-695.31" rx="82.05" ry="10.71"/>
<text text-anchor="middle" x="741.02" y="-691.61" font-family="Times,serif" font-size="14.00">dynamics_•9:Ω•</text>
</g>
<!-- n16&#45;&gt;n15 -->
<g id="edge13" class="edge">
<title>n16&#45;&gt;n15</title>
<path fill="none" stroke="black" d="M741.02,-684.6C741.02,-665.43 741.02,-622.59 741.02,-599.8"/>
<polygon fill="black" stroke="black" points="742.77,-599.73 741.02,-594.73 739.27,-599.73 742.77,-599.73"/>
<text text-anchor="middle" x="759.52" y="-655.51" font-family="Times,serif" font-size="14.00">avg₀₁</text>
</g>
<!-- n17 -->
<g id="node17" class="node">
<title>n17</title>
<ellipse fill="none" stroke="black" cx="691.02" cy="-1008.46" rx="24.08" ry="10.71"/>
<text text-anchor="middle" x="691.02" y="-1004.76" font-family="Times,serif" font-size="14.00">2:ΩL</text>
</g>
<!-- n17&#45;&gt;n42 -->
<g id="edge51" class="edge">
<title>n17&#45;&gt;n42</title>
<path fill="none" stroke="black" stroke-dasharray="5,2" d="M681.05,-998.68C664.88,-984.44 632.92,-956.3 614.67,-940.22"/>
<polygon fill="black" stroke="black" points="615.68,-938.78 610.77,-936.79 613.37,-941.41 615.68,-938.78"/>
</g>
<!-- n18 -->
<g id="node18" class="node">
<title>n18</title>
<ellipse fill="none" stroke="black" cx="601.02" cy="-852.17" rx="102.56" ry="10.71"/>
<text text-anchor="middle" x="601.02" y="-848.47" font-family="Times,serif" font-size="14.00">dynamics_sum_1:Ω•</text>
</g>
<!-- n18&#45;&gt;n33 -->
<g id="edge22" class="edge">
<title>n18&#45;&gt;n33</title>
<path fill="none" stroke="black" stroke-dasharray="5,2" d="M620.51,-841.72C631.09,-836.5 644.36,-829.83 656.02,-823.56 680.69,-810.3 708.76,-793.92 725.67,-783.9"/>
<polygon fill="black" stroke="black" points="726.72,-785.31 730.13,-781.26 724.94,-782.3 726.72,-785.31"/>
<text text-anchor="middle" x="700.52" y="-809.25" font-family="Times,serif" font-size="14.00">π₂</text>
</g>
<!-- n19 -->
<g id="node19" class="node">
<title>n19</title>
<ellipse fill="none" stroke="black" cx="600.02" cy="-400.25" rx="104.8" ry="10.71"/>
<text text-anchor="middle" x="600.02" y="-396.55" font-family="Times,serif" font-size="14.00">dynamics_mult_3:Ω•</text>
</g>
<!-- n19&#45;&gt;n35 -->
<g id="edge27" class="edge">
<title>n19&#45;&gt;n35</title>
<path fill="none" stroke="black" stroke-dasharray="5,2" d="M600.02,-389.63C600.02,-377.58 600.02,-356.94 600.02,-343.94"/>
<polygon fill="black" stroke="black" points="601.77,-343.89 600.02,-338.89 598.27,-343.89 601.77,-343.89"/>
<text text-anchor="middle" x="607.52" y="-360.44" font-family="Times,serif" font-size="14.00">π₁</text>
</g>
<!-- n20 -->
<g id="node20" class="node">
<title>n20</title>
<ellipse fill="none" stroke="black" cx="137.02" cy="-1125.54" rx="57.97" ry="10.71"/>
<text text-anchor="middle" x="137.02" y="-1121.84" font-family="Times,serif" font-size="14.00">stress_A:Ω₁</text>
</g>
<!-- n40 -->
<g id="node40" class="node">
<title>n40</title>
<polygon fill="none" stroke="black" points="305.52,-781.24 256.52,-781.24 256.52,-766.24 305.52,-766.24 305.52,-781.24"/>
<text text-anchor="middle" x="281.02" y="-770.04" font-family="Times,serif" font-size="14.00">Ω•×Ω₁</text>
</g>
<!-- n20&#45;&gt;n40 -->
<g id="edge43" class="edge">
<title>n20&#45;&gt;n40</title>
<path fill="none" stroke="black" stroke-dasharray="5,2" d="M148.12,-1115.06C162.85,-1101.35 187.02,-1074.45 187.02,-1045.57 187.02,-1045.57 187.02,-1045.57 187.02,-851.17 187.02,-815.77 227.63,-793.89 255.47,-783.05"/>
<polygon fill="black" stroke="black" points="256.1,-784.68 260.16,-781.27 254.87,-781.4 256.1,-784.68"/>
<text text-anchor="middle" x="194.52" y="-965.55" font-family="Times,serif" font-size="14.00">π₂</text>
</g>
<!-- n21 -->
<g id="node21" class="node">
<title>n21</title>
<ellipse fill="none" stroke="black" cx="637.02" cy="-1164.76" rx="60.21" ry="10.71"/>
<text text-anchor="middle" x="637.02" y="-1161.06" font-family="Times,serif" font-size="14.00">stress_ρ:ΩC</text>
</g>
<!-- n38 -->
<g id="node38" class="node">
<title>n38</title>
<polygon fill="none" stroke="black" points="612.02,-1091 556.02,-1091 556.02,-1076 612.02,-1076 612.02,-1091"/>
<text text-anchor="middle" x="584.02" y="-1079.8" font-family="Times,serif" font-size="14.00">ΩC×ΩC</text>
</g>
<!-- n21&#45;&gt;n38 -->
<g id="edge36" class="edge">
<title>n21&#45;&gt;n38</title>
<path fill="none" stroke="black" stroke-dasharray="5,2" d="M630.53,-1154.04C620.61,-1139.21 601.75,-1111 591.35,-1095.46"/>
<polygon fill="black" stroke="black" points="592.65,-1094.26 588.42,-1091.07 589.74,-1096.2 592.65,-1094.26"/>
<text text-anchor="middle" x="625.52" y="-1121.84" font-family="Times,serif" font-size="14.00">π₁</text>
</g>
<!-- n22 -->
<g id="node22" class="node">
<title>n22</title>
<ellipse fill="none" stroke="black" cx="498.02" cy="-1164.76" rx="60.62" ry="10.71"/>
<text text-anchor="middle" x="498.02" y="-1161.06" font-family="Times,serif" font-size="14.00">stress_g:ΩC</text>
</g>
<!-- n22&#45;&gt;n38 -->
<g id="edge37" class="edge">
<title>n22&#45;&gt;n38</title>
<path fill="none" stroke="black" stroke-dasharray="5,2" d="M508.57,-1154.04C524.94,-1138.95 556.33,-1110.03 572.99,-1094.67"/>
<polygon fill="black" stroke="black" points="574.4,-1095.75 576.9,-1091.07 572.03,-1093.17 574.4,-1095.75"/>
<text text-anchor="middle" x="555.52" y="-1121.84" font-family="Times,serif" font-size="14.00">π₂</text>
</g>
<!-- n23 -->
<g id="node23" class="node">
<title>n23</title>
<ellipse fill="none" stroke="black" cx="281.02" cy="-852.17" rx="65.11" ry="10.71"/>
<text text-anchor="middle" x="281.02" y="-848.47" font-family="Times,serif" font-size="14.00">stress_•1:Ω•</text>
</g>
<!-- n23&#45;&gt;n40 -->
<g id="edge42" class="edge">
<title>n23&#45;&gt;n40</title>
<path fill="none" stroke="black" stroke-dasharray="5,2" d="M281.02,-841.49C281.02,-827.46 281.02,-801.53 281.02,-786.45"/>
<polygon fill="black" stroke="black" points="282.77,-786.42 281.02,-781.42 279.27,-786.42 282.77,-786.42"/>
<text text-anchor="middle" x="288.52" y="-809.25" font-family="Times,serif" font-size="14.00">π₁</text>
</g>
<!-- n24 -->
<g id="node24" class="node">
<title>n24</title>
<ellipse fill="none" stroke="black" cx="314.02" cy="-1164.76" rx="24.08" ry="10.71"/>
<text text-anchor="middle" x="314.02" y="-1161.06" font-family="Times,serif" font-size="14.00">2:ΩL</text>
</g>
<!-- n37 -->
<g id="node37" class="node">
<title>n37</title>
<polygon fill="none" stroke="black" points="307.02,-934.71 255.02,-934.71 255.02,-919.71 307.02,-919.71 307.02,-934.71"/>
<text text-anchor="middle" x="281.02" y="-923.51" font-family="Times,serif" font-size="14.00">ΩL×Ω•</text>
</g>
<!-- n24&#45;&gt;n37 -->
<g id="edge33" class="edge">
<title>n24&#45;&gt;n37</title>
<path fill="none" stroke="black" stroke-dasharray="5,2" d="M307.68,-1154.49C292.92,-1132.33 256.62,-1074.01 244.02,-1019.07 237.14,-989.02 258.48,-956.05 271.58,-939.3"/>
<polygon fill="black" stroke="black" points="273.25,-940.01 275.03,-935.02 270.53,-937.82 273.25,-940.01"/>
<text text-anchor="middle" x="261.52" y="-1040.87" font-family="Times,serif" font-size="14.00">π₁</text>
</g>
<!-- n24&#45;&gt;n43 -->
<g id="edge53" class="edge">
<title>n24&#45;&gt;n43</title>
<path fill="none" stroke="black" stroke-dasharray="5,2" d="M317.09,-1154.04C321.19,-1141.04 328.53,-1117.78 333.58,-1101.77"/>
<polygon fill="black" stroke="black" points="335.36,-1101.93 335.2,-1096.64 332.02,-1100.88 335.36,-1101.93"/>
</g>
<!-- n25 -->
<g id="node25" class="node">
<title>n25</title>
<ellipse fill="none" stroke="black" cx="339.02" cy="-1008.46" rx="85.62" ry="10.71"/>
<text text-anchor="middle" x="339.02" y="-1004.76" font-family="Times,serif" font-size="14.00">stress_sum_1:Ω•</text>
</g>
<!-- n25&#45;&gt;n37 -->
<g id="edge34" class="edge">
<title>n25&#45;&gt;n37</title>
<path fill="none" stroke="black" stroke-dasharray="5,2" d="M331.91,-997.74C321.06,-982.91 300.42,-954.71 289.04,-939.16"/>
<polygon fill="black" stroke="black" points="290.2,-937.78 285.83,-934.78 287.37,-939.85 290.2,-937.78"/>
<text text-anchor="middle" x="326.52" y="-965.55" font-family="Times,serif" font-size="14.00">π₂</text>
</g>
<!-- n26 -->
<g id="node26" class="node">
<title>n26</title>
<ellipse fill="none" stroke="black" cx="417.02" cy="-812.95" rx="65.11" ry="10.71"/>
<text text-anchor="middle" x="417.02" y="-809.25" font-family="Times,serif" font-size="14.00">stress_•2:Ω•</text>
</g>
<!-- n41 -->
<g id="node41" class="node">
<title>n41</title>
<polygon fill="none" stroke="black" points="413.02,-630.6 361.02,-630.6 361.02,-615.6 413.02,-615.6 413.02,-630.6"/>
<text text-anchor="middle" x="387.02" y="-619.4" font-family="Times,serif" font-size="14.00">Ω•×Ω•</text>
</g>
<!-- n26&#45;&gt;n41 -->
<g id="edge46" class="edge">
<title>n26&#45;&gt;n41</title>
<path fill="none" stroke="black" stroke-dasharray="5,2" d="M415.45,-802.12C410.39,-770.43 394.52,-671.06 388.97,-636.28"/>
<polygon fill="black" stroke="black" points="390.63,-635.57 388.11,-630.91 387.17,-636.12 390.63,-635.57"/>
<text text-anchor="middle" x="413.52" y="-730.83" font-family="Times,serif" font-size="14.00">π₂</text>
</g>
<!-- n27 -->
<g id="node27" class="node">
<title>n27</title>
<ellipse fill="none" stroke="black" cx="584.02" cy="-1008.46" rx="65.11" ry="10.71"/>
<text text-anchor="middle" x="584.02" y="-1004.76" font-family="Times,serif" font-size="14.00">stress_•3:Ω•</text>
</g>
<!-- n27&#45;&gt;n39 -->
<g id="edge39" class="edge">
<title>n27&#45;&gt;n39</title>
<path fill="none" stroke="black" stroke-dasharray="5,2" d="M568.48,-998.06C543.22,-982.77 493.53,-952.71 468.38,-937.5"/>
<polygon fill="black" stroke="black" points="469.17,-935.93 463.99,-934.84 467.36,-938.92 469.17,-935.93"/>
<text text-anchor="middle" x="544.52" y="-965.55" font-family="Times,serif" font-size="14.00">π₁</text>
</g>
<!-- n28 -->
<g id="node28" class="node">
<title>n28</title>
<ellipse fill="none" stroke="black" cx="281.02" cy="-695.31" rx="87.86" ry="10.71"/>
<text text-anchor="middle" x="281.02" y="-691.61" font-family="Times,serif" font-size="14.00">stress_mult_1:Ω•</text>
</g>
<!-- n28&#45;&gt;n41 -->
<g id="edge45" class="edge">
<title>n28&#45;&gt;n41</title>
<path fill="none" stroke="black" stroke-dasharray="5,2" d="M295.32,-684.84C315.6,-671.41 352.5,-646.97 372.76,-633.55"/>
<polygon fill="black" stroke="black" points="373.86,-634.92 377.06,-630.7 371.92,-632 373.86,-634.92"/>
<text text-anchor="middle" x="351.52" y="-655.51" font-family="Times,serif" font-size="14.00">π₁</text>
</g>
<!-- n29 -->
<g id="node29" class="node">
<title>n29</title>
</g>
<!-- n29&#45;&gt;n1 -->
<g id="edge1" class="edge">
<title>n29&#45;&gt;n1</title>
<path fill="none" stroke="black" d="M500.14,-1213.42C524.09,-1214.03 743.02,-1218.19 743.02,-1165.76 743.02,-1165.76 743.02,-1165.76 743.02,-926.21 743.02,-906.1 743.02,-882.89 743.02,-868.12"/>
<polygon fill="black" stroke="black" points="744.77,-868.09 743.02,-863.09 741.27,-868.09 744.77,-868.09"/>
</g>
<!-- n29&#45;&gt;n3 -->
<g id="edge2" class="edge">
<title>n29&#45;&gt;n3</title>
<path fill="none" stroke="black" d="M495.85,-1212.37C485.64,-1207.69 441.76,-1187.61 415.04,-1175.38"/>
<polygon fill="black" stroke="black" points="415.54,-1173.68 410.27,-1173.19 414.09,-1176.87 415.54,-1173.68"/>
</g>
<!-- n29&#45;&gt;n20 -->
<g id="edge3" class="edge">
<title>n29&#45;&gt;n20</title>
<path fill="none" stroke="black" d="M495.86,-1213.11C479.11,-1211.15 368.48,-1197.71 281.02,-1175.36 239.68,-1164.8 193.13,-1148.11 164.44,-1137.25"/>
<polygon fill="black" stroke="black" points="164.94,-1135.56 159.64,-1135.42 163.69,-1138.84 164.94,-1135.56"/>
</g>
<!-- n29&#45;&gt;n21 -->
<g id="edge4" class="edge">
<title>n29&#45;&gt;n21</title>
<path fill="none" stroke="black" d="M500.44,-1212.54C512.89,-1208.27 570.73,-1188.46 607.03,-1176.03"/>
<polygon fill="black" stroke="black" points="607.62,-1177.68 611.79,-1174.4 606.49,-1174.37 607.62,-1177.68"/>
</g>
<!-- n29&#45;&gt;n22 -->
<g id="edge5" class="edge">
<title>n29&#45;&gt;n22</title>
<path fill="none" stroke="black" d="M498.02,-1212.19C498.02,-1207.87 498.02,-1192.51 498.02,-1180.63"/>
<polygon fill="black" stroke="black" points="499.77,-1180.46 498.02,-1175.46 496.27,-1180.46 499.77,-1180.46"/>
</g>
<!-- n31&#45;&gt;n13 -->
<g id="edge17" class="edge">
<title>n31&#45;&gt;n13</title>
<path fill="none" stroke="black" d="M82.02,-1075.82C82.02,-1058.18 82.02,-1010.04 82.02,-985.33"/>
<polygon fill="black" stroke="black" points="83.77,-985.15 82.02,-980.15 80.27,-985.15 83.77,-985.15"/>
<text text-anchor="middle" x="84.52" y="-1040.87" font-family="Times,serif" font-size="14.00">&#45;</text>
</g>
<!-- n32&#45;&gt;n9 -->
<g id="edge20" class="edge">
<title>n32&#45;&gt;n9</title>
<path fill="none" stroke="black" d="M395.02,-536.94C395.02,-525.81 395.02,-503.33 395.02,-488.33"/>
<polygon fill="black" stroke="black" points="396.77,-488.17 395.02,-483.17 393.27,-488.17 396.77,-488.17"/>
<text text-anchor="middle" x="401.52" y="-504.87" font-family="Times,serif" font-size="14.00">^</text>
</g>
<!-- n33&#45;&gt;n16 -->
<g id="edge23" class="edge">
<title>n33&#45;&gt;n16</title>
<path fill="none" stroke="black" d="M741.02,-766.22C741.02,-754.16 741.02,-728.05 741.02,-711.38"/>
<polygon fill="black" stroke="black" points="742.77,-711.12 741.02,-706.12 739.27,-711.12 742.77,-711.12"/>
<text text-anchor="middle" x="747.52" y="-730.83" font-family="Times,serif" font-size="14.00">^</text>
</g>
<!-- n34&#45;&gt;n19 -->
<g id="edge26" class="edge">
<title>n34&#45;&gt;n19</title>
<path fill="none" stroke="black" d="M600.02,-464.73C600.02,-453.6 600.02,-431.11 600.02,-416.11"/>
<polygon fill="black" stroke="black" points="601.77,-415.96 600.02,-410.96 598.27,-415.96 601.77,-415.96"/>
<text text-anchor="middle" x="603.52" y="-432.65" font-family="Times,serif" font-size="14.00">*</text>
</g>
<!-- n35&#45;&gt;n5 -->
<g id="edge29" class="edge">
<title>n35&#45;&gt;n5</title>
<path fill="none" stroke="black" d="M600.62,-323.46C601.56,-312.92 603.42,-292.19 604.69,-277.97"/>
<polygon fill="black" stroke="black" points="606.46,-277.83 605.16,-272.69 602.97,-277.52 606.46,-277.83"/>
<text text-anchor="middle" x="606.52" y="-294.44" font-family="Times,serif" font-size="14.00">*</text>
</g>
<!-- n36&#45;&gt;n6 -->
<g id="edge32" class="edge">
<title>n36&#45;&gt;n6</title>
<path fill="none" stroke="black" d="M718.02,-185.25C718.02,-174.71 718.02,-153.97 718.02,-139.76"/>
<polygon fill="black" stroke="black" points="719.77,-139.48 718.02,-134.48 716.27,-139.48 719.77,-139.48"/>
<text text-anchor="middle" x="721.52" y="-156.23" font-family="Times,serif" font-size="14.00">*</text>
</g>
<!-- n37&#45;&gt;n23 -->
<g id="edge35" class="edge">
<title>n37&#45;&gt;n23</title>
<path fill="none" stroke="black" d="M281.02,-919.47C281.02,-907.89 281.02,-883.97 281.02,-868.25"/>
<polygon fill="black" stroke="black" points="282.77,-867.86 281.02,-862.86 279.27,-867.86 282.77,-867.86"/>
<text text-anchor="middle" x="283.52" y="-884.57" font-family="Times,serif" font-size="14.00">/</text>
</g>
<!-- n38&#45;&gt;n27 -->
<g id="edge38" class="edge">
<title>n38&#45;&gt;n27</title>
<path fill="none" stroke="black" d="M584.02,-1075.76C584.02,-1064.19 584.02,-1040.26 584.02,-1024.54"/>
<polygon fill="black" stroke="black" points="585.77,-1024.16 584.02,-1019.16 582.27,-1024.16 585.77,-1024.16"/>
<text text-anchor="middle" x="587.52" y="-1040.87" font-family="Times,serif" font-size="14.00">*</text>
</g>
<!-- n39&#45;&gt;n26 -->
<g id="edge41" class="edge">
<title>n39&#45;&gt;n26</title>
<path fill="none" stroke="black" d="M450.88,-919.52C445.2,-901.81 429.66,-853.34 421.76,-828.72"/>
<polygon fill="black" stroke="black" points="423.39,-828.08 420.2,-823.85 420.06,-829.14 423.39,-828.08"/>
<text text-anchor="middle" x="449.52" y="-884.57" font-family="Times,serif" font-size="14.00">^</text>
</g>
<!-- n40&#45;&gt;n28 -->
<g id="edge44" class="edge">
<title>n40&#45;&gt;n28</title>
<path fill="none" stroke="black" d="M281.02,-766.22C281.02,-754.16 281.02,-728.05 281.02,-711.38"/>
<polygon fill="black" stroke="black" points="282.77,-711.12 281.02,-706.12 279.27,-711.12 282.77,-711.12"/>
<text text-anchor="middle" x="284.52" y="-730.83" font-family="Times,serif" font-size="14.00">*</text>
</g>
<!-- n41&#45;&gt;n2 -->
<g id="edge47" class="edge">
<title>n41&#45;&gt;n2</title>
<path fill="none" stroke="black" d="M394.87,-615.58C410.3,-602.76 444.81,-574.09 464.51,-557.73"/>
<polygon fill="black" stroke="black" points="465.99,-558.78 468.71,-554.24 463.75,-556.09 465.99,-558.78"/>
<text text-anchor="middle" x="446.52" y="-580.19" font-family="Times,serif" font-size="14.00">*</text>
</g>
<!-- n42&#45;&gt;n18 -->
<g id="edge48" class="edge">
<title>n42&#45;&gt;n18</title>
<path fill="none" stroke="black" d="M601.02,-913.48C601.02,-900.89 601.02,-881.62 601.02,-868.27"/>
<polygon fill="black" stroke="black" points="602.77,-867.94 601.02,-862.94 599.27,-867.94 602.77,-867.94"/>
<text text-anchor="middle" x="607.52" y="-884.57" font-family="Times,serif" font-size="14.00">+</text>
</g>
<!-- n43&#45;&gt;n25 -->
<g id="edge49" class="edge">
<title>n43&#45;&gt;n25</title>
<path fill="none" stroke="black" d="M339.02,-1069.78C339.02,-1057.19 339.02,-1037.92 339.02,-1024.56"/>
<polygon fill="black" stroke="black" points="340.77,-1024.24 339.02,-1019.24 337.27,-1024.24 340.77,-1024.24"/>
<text text-anchor="middle" x="345.52" y="-1040.87" font-family="Times,serif" font-size="14.00">+</text>
</g>
</g>
</svg>
