<?xml version="1.0" encoding="UTF-8" standalone="no"?>
<!DOCTYPE svg PUBLIC "-//W3C//DTD SVG 1.1//EN"
 "http://www.w3.org/Graphics/SVG/1.1/DTD/svg11.dtd">
<!-- Generated by graphviz version 2.40.1 (0)
 -->
<!-- Title: G Pages: 1 -->
<svg width="1177pt" height="1002pt"
 viewBox="0.00 0.00 1177.42 1002.07" xmlns="http://www.w3.org/2000/svg" xmlns:xlink="http://www.w3.org/1999/xlink">
<g id="graph0" class="graph" transform="scale(1 1) rotate(0) translate(4 998.0681)">
<title>G</title>
<polygon fill="#ffffff" stroke="transparent" points="-4,4 -4,-998.0681 1173.4214,-998.0681 1173.4214,4 -4,4"/>
<!-- n1 -->
<g id="node1" class="node">
<title>n1</title>
<ellipse fill="none" stroke="#000000" cx="269.7817" cy="-942.4615" rx="76.2353" ry="10.7143"/>
<text text-anchor="middle" x="269.7817" y="-938.7615" font-family="Times,serif" font-size="14.00" fill="#000000">dynamics_h:Ω₀</text>
</g>
<!-- n4 -->
<g id="node4" class="node">
<title>n4</title>
<ellipse fill="none" stroke="#000000" cx="77.7817" cy="-51.6066" rx="77.5641" ry="10.7143"/>
<text text-anchor="middle" x="77.7817" y="-47.9066" font-family="Times,serif" font-size="14.00" fill="#000000">dynamics_ḣ:Ω•</text>
</g>
<!-- n1&#45;&gt;n4 -->
<g id="edge7" class="edge">
<title>n1&#45;&gt;n4</title>
<path fill="none" stroke="#000000" d="M223.3614,-933.9851C162.059,-921.4436 61.7817,-895.6624 61.7817,-861.2067 61.7817,-861.2067 61.7817,-861.2067 61.7817,-120.7132 61.7817,-101.8481 67.5108,-80.8154 72.1126,-66.9642"/>
<polygon fill="#000000" stroke="#000000" points="73.7786,-67.5007 73.7443,-62.2034 70.4676,-66.3659 73.7786,-67.5007"/>
<text text-anchor="middle" x="67.7817" y="-474.9726" font-family="Times,serif" font-size="14.00" fill="#000000">∂ₜ</text>
</g>
<!-- n9 -->
<g id="node9" class="node">
<title>n9</title>
<ellipse fill="none" stroke="#000000" cx="159.7817" cy="-819.165" rx="83.3772" ry="10.7143"/>
<text text-anchor="middle" x="159.7817" y="-815.465" font-family="Times,serif" font-size="14.00" fill="#000000">dynamics_•3:Ω•</text>
</g>
<!-- n1&#45;&gt;n9 -->
<g id="edge8" class="edge">
<title>n1&#45;&gt;n9</title>
<path fill="none" stroke="#000000" d="M248.8953,-932.0808C228.0363,-920.6995 196.4649,-900.5563 177.7817,-874.6417 169.2574,-862.818 164.6282,-846.7499 162.209,-834.9494"/>
<polygon fill="#000000" stroke="#000000" points="163.895,-834.4465 161.2469,-829.8585 160.4559,-835.0965 163.895,-834.4465"/>
<text text-anchor="middle" x="222.7817" y="-899.5483" font-family="Times,serif" font-size="14.00" fill="#000000">d</text>
</g>
<!-- n14 -->
<g id="node14" class="node">
<title>n14</title>
<ellipse fill="none" stroke="#000000" cx="269.7817" cy="-861.2067" rx="83.3772" ry="10.7143"/>
<text text-anchor="middle" x="269.7817" y="-857.5067" font-family="Times,serif" font-size="14.00" fill="#000000">dynamics_•8:Ω•</text>
</g>
<!-- n1&#45;&gt;n14 -->
<g id="edge9" class="edge">
<title>n1&#45;&gt;n14</title>
<path fill="none" stroke="#000000" d="M269.7817,-931.8389C269.7817,-917.848 269.7817,-893.1311 269.7817,-876.9604"/>
<polygon fill="#000000" stroke="#000000" points="271.5318,-876.8319 269.7817,-871.8319 268.0318,-876.832 271.5318,-876.8319"/>
<text text-anchor="middle" x="274.7817" y="-899.5483" font-family="Times,serif" font-size="14.00" fill="#000000">d</text>
</g>
<!-- n31 -->
<g id="node31" class="node">
<title>n31</title>
<polygon fill="none" stroke="#000000" points="444.2817,-709.0254 393.2817,-709.0254 393.2817,-694.0254 444.2817,-694.0254 444.2817,-709.0254"/>
<text text-anchor="middle" x="418.7817" y="-697.8254" font-family="Times,serif" font-size="14.00" fill="#000000">Ω₀×Ω•</text>
</g>
<!-- n1&#45;&gt;n31 -->
<g id="edge19" class="edge">
<title>n1&#45;&gt;n31</title>
<path fill="none" stroke="#000000" stroke-dasharray="5,2" d="M291.4776,-932.1582C312.6647,-920.9654 344.209,-901.0838 361.7817,-874.6417 378.5077,-849.4737 367.7258,-837.0551 377.7817,-808.5584 387.1384,-782.0435 394.9441,-777.6855 404.7817,-751.3452 409.4394,-738.8744 413.3954,-724.1498 415.9017,-713.9582"/>
<polygon fill="#000000" stroke="#000000" points="417.6077,-714.3485 417.0763,-709.0778 414.2049,-713.5295 417.6077,-714.3485"/>
<text text-anchor="middle" x="385.7817" y="-815.465" font-family="Times,serif" font-size="14.00" fill="#000000">π₁</text>
</g>
<!-- n2 -->
<g id="node2" class="node">
<title>n2</title>
<ellipse fill="none" stroke="#000000" cx="315.7817" cy="-301.2462" rx="23.1702" ry="10.7143"/>
<text text-anchor="middle" x="315.7817" y="-297.5462" font-family="Times,serif" font-size="14.00" fill="#000000">Γ:Ω₀</text>
</g>
<!-- n34 -->
<g id="node34" class="node">
<title>n34</title>
<polygon fill="none" stroke="#000000" points="212.2817,-128.2132 161.2817,-128.2132 161.2817,-113.2132 212.2817,-113.2132 212.2817,-128.2132"/>
<text text-anchor="middle" x="186.7817" y="-117.0132" font-family="Times,serif" font-size="14.00" fill="#000000">Ω₀×Ω•</text>
</g>
<!-- n2&#45;&gt;n34 -->
<g id="edge28" class="edge">
<title>n2&#45;&gt;n34</title>
<path fill="none" stroke="#000000" stroke-dasharray="5,2" d="M314.9943,-290.3233C312.8488,-267.4894 305.1551,-213.9487 278.7817,-179.2132 261.3304,-156.2286 232.0325,-139.8715 211.1895,-130.4004"/>
<polygon fill="#000000" stroke="#000000" points="211.8943,-128.7987 206.6143,-128.3698 210.4744,-131.9977 211.8943,-128.7987"/>
<text text-anchor="middle" x="312.7817" y="-222.2264" font-family="Times,serif" font-size="14.00" fill="#000000">π₁</text>
</g>
<!-- n3 -->
<g id="node3" class="node">
<title>n3</title>
<ellipse fill="none" stroke="#000000" cx="616.7817" cy="-942.4615" rx="26.3269" ry="10.7143"/>
<text text-anchor="middle" x="616.7817" y="-938.7615" font-family="Times,serif" font-size="14.00" fill="#000000">n:ΩC</text>
</g>
<!-- n29 -->
<g id="node29" class="node">
<title>n29</title>
<polygon fill="none" stroke="#000000" points="485.7817,-868.7067 427.7817,-868.7067 427.7817,-853.7067 485.7817,-853.7067 485.7817,-868.7067"/>
<text text-anchor="middle" x="456.7817" y="-857.5067" font-family="Times,serif" font-size="14.00" fill="#000000">ΩC×ΩL</text>
</g>
<!-- n3&#45;&gt;n29 -->
<g id="edge13" class="edge">
<title>n3&#45;&gt;n29</title>
<path fill="none" stroke="#000000" stroke-dasharray="5,2" d="M600.2616,-934.0719C570.5524,-918.9843 508.2451,-887.3419 476.4119,-871.1757"/>
<polygon fill="#000000" stroke="#000000" points="476.8246,-869.4226 471.5742,-868.7189 475.2398,-872.5433 476.8246,-869.4226"/>
<text text-anchor="middle" x="564.7817" y="-899.5483" font-family="Times,serif" font-size="14.00" fill="#000000">π₁</text>
</g>
<!-- n37 -->
<g id="node37" class="node">
<title>n37</title>
<polygon fill="none" stroke="#000000" points="698.7817,-709.0254 642.7817,-709.0254 642.7817,-694.0254 698.7817,-694.0254 698.7817,-709.0254"/>
<text text-anchor="middle" x="670.7817" y="-697.8254" font-family="Times,serif" font-size="14.00" fill="#000000">Ω•×ΩC</text>
</g>
<!-- n3&#45;&gt;n37 -->
<g id="edge38" class="edge">
<title>n3&#45;&gt;n37</title>
<path fill="none" stroke="#000000" stroke-dasharray="5,2" d="M619.1717,-931.7979C627.9622,-892.5769 658.4796,-756.4148 667.9537,-714.1434"/>
<polygon fill="#000000" stroke="#000000" points="669.7128,-714.2965 669.0987,-709.0347 666.2975,-713.531 669.7128,-714.2965"/>
<text text-anchor="middle" x="654.7817" y="-815.465" font-family="Times,serif" font-size="14.00" fill="#000000">π₂</text>
</g>
<!-- n40 -->
<g id="node40" class="node">
<title>n40</title>
<ellipse fill="none" stroke="#000000" cx="539.7817" cy="-861.2067" rx="13.3704" ry="13.3704"/>
<text text-anchor="middle" x="539.7817" y="-857.5067" font-family="Times,serif" font-size="14.00" fill="#000000">Σ1</text>
</g>
<!-- n3&#45;&gt;n40 -->
<g id="edge48" class="edge">
<title>n3&#45;&gt;n40</title>
<path fill="none" stroke="#000000" stroke-dasharray="5,2" d="M613.9562,-931.8611C610.618,-920.9764 604.1659,-904.0586 593.7817,-892.6417 583.6908,-881.5473 568.7502,-873.2679 557.1409,-867.9987"/>
<polygon fill="#000000" stroke="#000000" points="557.6758,-866.3228 552.3933,-865.9254 556.275,-869.5303 557.6758,-866.3228"/>
</g>
<!-- n41 -->
<g id="node41" class="node">
<title>n41</title>
<ellipse fill="none" stroke="#000000" cx="911.7817" cy="-861.2067" rx="13.3704" ry="13.3704"/>
<text text-anchor="middle" x="911.7817" y="-857.5067" font-family="Times,serif" font-size="14.00" fill="#000000">Σ2</text>
</g>
<!-- n3&#45;&gt;n41 -->
<g id="edge50" class="edge">
<title>n3&#45;&gt;n41</title>
<path fill="none" stroke="#000000" stroke-dasharray="5,2" d="M637.3981,-935.767C642.0969,-934.3662 647.0883,-932.9759 651.7817,-931.8549 696.5561,-921.1604 709.2628,-925.5671 753.7817,-913.8549 781.1352,-906.6586 786.9792,-901.6763 813.7817,-892.6417 841.6033,-883.2637 874.0843,-872.9736 893.7812,-866.806"/>
<polygon fill="#000000" stroke="#000000" points="894.4929,-868.4171 898.743,-865.2549 893.4486,-865.0765 894.4929,-868.4171"/>
</g>
<!-- n28 -->
<g id="node28" class="node">
<title>n28</title>
</g>
<!-- n4&#45;&gt;n28 -->
<g id="edge6" class="edge">
<title>n4&#45;&gt;n28</title>
<path fill="none" stroke="#000000" d="M77.7817,-40.5973C77.7817,-31.135 77.7817,-17.7454 77.7817,-9.4807"/>
<polygon fill="#000000" stroke="#000000" points="79.5318,-9.3096 77.7817,-4.3096 76.0318,-9.3096 79.5318,-9.3096"/>
</g>
<!-- n5 -->
<g id="node5" class="node">
<title>n5</title>
<ellipse fill="none" stroke="#000000" cx="539.7817" cy="-942.4615" rx="25.4118" ry="10.7143"/>
<text text-anchor="middle" x="539.7817" y="-938.7615" font-family="Times,serif" font-size="14.00" fill="#000000">2:ΩL</text>
</g>
<!-- n5&#45;&gt;n40 -->
<g id="edge49" class="edge">
<title>n5&#45;&gt;n40</title>
<path fill="none" stroke="#000000" stroke-dasharray="5,2" d="M539.7817,-931.8389C539.7817,-918.6983 539.7817,-896.0957 539.7817,-879.999"/>
<polygon fill="#000000" stroke="#000000" points="541.5318,-879.8126 539.7817,-874.8126 538.0318,-879.8127 541.5318,-879.8126"/>
</g>
<!-- n6 -->
<g id="node6" class="node">
<title>n6</title>
<ellipse fill="none" stroke="#000000" cx="513.7817" cy="-779.9518" rx="104.8038" ry="10.7143"/>
<text text-anchor="middle" x="513.7817" y="-776.2518" font-family="Times,serif" font-size="14.00" fill="#000000">dynamics_sum_1:Ω•</text>
</g>
<!-- n6&#45;&gt;n31 -->
<g id="edge20" class="edge">
<title>n6&#45;&gt;n31</title>
<path fill="none" stroke="#000000" stroke-dasharray="5,2" d="M500.9696,-769.3749C482.8889,-754.4485 450.0642,-727.3504 431.847,-712.3114"/>
<polygon fill="#000000" stroke="#000000" points="432.947,-710.9502 427.9771,-709.1165 430.7188,-713.6493 432.947,-710.9502"/>
<text text-anchor="middle" x="485.7817" y="-737.0386" font-family="Times,serif" font-size="14.00" fill="#000000">π₂</text>
</g>
<!-- n7 -->
<g id="node7" class="node">
<title>n7</title>
<ellipse fill="none" stroke="#000000" cx="186.7817" cy="-189.8198" rx="83.3772" ry="10.7143"/>
<text text-anchor="middle" x="186.7817" y="-186.1198" font-family="Times,serif" font-size="14.00" fill="#000000">dynamics_•1:Ω•</text>
</g>
<!-- n7&#45;&gt;n34 -->
<g id="edge29" class="edge">
<title>n7&#45;&gt;n34</title>
<path fill="none" stroke="#000000" stroke-dasharray="5,2" d="M186.7817,-179.0219C186.7817,-166.6655 186.7817,-146.4535 186.7817,-133.3683"/>
<polygon fill="#000000" stroke="#000000" points="188.5318,-133.2403 186.7817,-128.2404 185.0318,-133.2404 188.5318,-133.2403"/>
<text text-anchor="middle" x="194.7817" y="-150.0132" font-family="Times,serif" font-size="14.00" fill="#000000">π₂</text>
</g>
<!-- n8 -->
<g id="node8" class="node">
<title>n8</title>
<ellipse fill="none" stroke="#000000" cx="186.7817" cy="-262.033" rx="83.3772" ry="10.7143"/>
<text text-anchor="middle" x="186.7817" y="-258.333" font-family="Times,serif" font-size="14.00" fill="#000000">dynamics_•2:Ω•</text>
</g>
<!-- n8&#45;&gt;n7 -->
<g id="edge12" class="edge">
<title>n8&#45;&gt;n7</title>
<path fill="none" stroke="#000000" d="M186.7817,-251.3777C186.7817,-239.3246 186.7817,-219.5725 186.7817,-205.7005"/>
<polygon fill="#000000" stroke="#000000" points="188.5318,-205.5188 186.7817,-200.5188 185.0318,-205.5189 188.5318,-205.5188"/>
<text text-anchor="middle" x="205.7817" y="-222.2264" font-family="Times,serif" font-size="14.00" fill="#000000">⋆⋅d⋅⋆</text>
</g>
<!-- n33 -->
<g id="node33" class="node">
<title>n33</title>
<polygon fill="none" stroke="#000000" points="213.2817,-344.8528 160.2817,-344.8528 160.2817,-329.8528 213.2817,-329.8528 213.2817,-344.8528"/>
<text text-anchor="middle" x="186.7817" y="-333.6528" font-family="Times,serif" font-size="14.00" fill="#000000">Ω•×Ω•</text>
</g>
<!-- n9&#45;&gt;n33 -->
<g id="edge25" class="edge">
<title>n9&#45;&gt;n33</title>
<path fill="none" stroke="#000000" stroke-dasharray="5,2" d="M147.6693,-808.2433C133.4497,-794.1603 111.7817,-768.1958 111.7817,-740.7386 111.7817,-740.7386 111.7817,-740.7386 111.7817,-406.4594 111.7817,-378.0282 141.2907,-358.0742 163.2892,-347.149"/>
<polygon fill="#000000" stroke="#000000" points="164.1071,-348.6976 167.8561,-344.9549 162.5914,-345.5428 164.1071,-348.6976"/>
<text text-anchor="middle" x="119.7817" y="-586.399" font-family="Times,serif" font-size="14.00" fill="#000000">π₁</text>
</g>
<!-- n10 -->
<g id="node10" class="node">
<title>n10</title>
<ellipse fill="none" stroke="#000000" cx="241.7817" cy="-406.4594" rx="83.3772" ry="10.7143"/>
<text text-anchor="middle" x="241.7817" y="-402.7594" font-family="Times,serif" font-size="14.00" fill="#000000">dynamics_•4:Ω•</text>
</g>
<!-- n10&#45;&gt;n33 -->
<g id="edge26" class="edge">
<title>n10&#45;&gt;n33</title>
<path fill="none" stroke="#000000" stroke-dasharray="5,2" d="M233.188,-395.6615C223.0904,-382.9741 206.4015,-362.0047 196.0292,-348.9721"/>
<polygon fill="#000000" stroke="#000000" points="197.2553,-347.7024 192.7724,-344.88 194.5168,-349.882 197.2553,-347.7024"/>
<text text-anchor="middle" x="225.7817" y="-366.6528" font-family="Times,serif" font-size="14.00" fill="#000000">π₂</text>
</g>
<!-- n11 -->
<g id="node11" class="node">
<title>n11</title>
<ellipse fill="none" stroke="#000000" cx="274.7817" cy="-550.8858" rx="83.3772" ry="10.7143"/>
<text text-anchor="middle" x="274.7817" y="-547.1858" font-family="Times,serif" font-size="14.00" fill="#000000">dynamics_•5:Ω•</text>
</g>
<!-- n32 -->
<g id="node32" class="node">
<title>n32</title>
<polygon fill="none" stroke="#000000" points="301.2817,-486.1726 248.2817,-486.1726 248.2817,-471.1726 301.2817,-471.1726 301.2817,-486.1726"/>
<text text-anchor="middle" x="274.7817" y="-474.9726" font-family="Times,serif" font-size="14.00" fill="#000000">Ω•×Ω•</text>
</g>
<!-- n11&#45;&gt;n32 -->
<g id="edge22" class="edge">
<title>n11&#45;&gt;n32</title>
<path fill="none" stroke="#000000" stroke-dasharray="5,2" d="M274.7817,-540.2305C274.7817,-527.2076 274.7817,-505.197 274.7817,-491.3262"/>
<polygon fill="#000000" stroke="#000000" points="276.5318,-491.2727 274.7817,-486.2727 273.0318,-491.2727 276.5318,-491.2727"/>
<text text-anchor="middle" x="282.7817" y="-511.0792" font-family="Times,serif" font-size="14.00" fill="#000000">π₁</text>
</g>
<!-- n12 -->
<g id="node12" class="node">
<title>n12</title>
<ellipse fill="none" stroke="#000000" cx="222.7817" cy="-701.5254" rx="83.3772" ry="10.7143"/>
<text text-anchor="middle" x="222.7817" y="-697.8254" font-family="Times,serif" font-size="14.00" fill="#000000">dynamics_•6:Ω•</text>
</g>
<!-- n30 -->
<g id="node30" class="node">
<title>n30</title>
<polygon fill="none" stroke="#000000" points="301.2817,-636.8122 248.2817,-636.8122 248.2817,-621.8122 301.2817,-621.8122 301.2817,-636.8122"/>
<text text-anchor="middle" x="274.7817" y="-625.6122" font-family="Times,serif" font-size="14.00" fill="#000000">Ω•×Ω•</text>
</g>
<!-- n12&#45;&gt;n30 -->
<g id="edge16" class="edge">
<title>n12&#45;&gt;n30</title>
<path fill="none" stroke="#000000" stroke-dasharray="5,2" d="M230.4545,-690.8701C239.9982,-677.6167 256.2449,-655.0547 266.1948,-641.237"/>
<polygon fill="#000000" stroke="#000000" points="267.8073,-641.9925 269.309,-636.9123 264.9671,-639.9472 267.8073,-641.9925"/>
<text text-anchor="middle" x="261.7817" y="-661.7188" font-family="Times,serif" font-size="14.00" fill="#000000">π₁</text>
</g>
<!-- n13 -->
<g id="node13" class="node">
<title>n13</title>
<ellipse fill="none" stroke="#000000" cx="226.7817" cy="-779.9518" rx="83.3772" ry="10.7143"/>
<text text-anchor="middle" x="226.7817" y="-776.2518" font-family="Times,serif" font-size="14.00" fill="#000000">dynamics_•7:Ω•</text>
</g>
<!-- n13&#45;&gt;n12 -->
<g id="edge11" class="edge">
<title>n13&#45;&gt;n12</title>
<path fill="none" stroke="#000000" d="M211.8658,-769.3888C206.3505,-764.584 200.7287,-758.3916 197.7817,-751.3452 194.1441,-742.6472 194.4683,-738.9587 197.7817,-730.132 199.6941,-725.0377 202.9703,-720.2559 206.5326,-716.1142"/>
<polygon fill="#000000" stroke="#000000" points="208.0429,-717.0583 210.1504,-712.1981 205.4721,-714.6832 208.0429,-717.0583"/>
<text text-anchor="middle" x="213.2817" y="-737.0386" font-family="Times,serif" font-size="14.00" fill="#000000">mag</text>
</g>
<!-- n14&#45;&gt;n13 -->
<g id="edge10" class="edge">
<title>n14&#45;&gt;n13</title>
<path fill="none" stroke="#000000" d="M265.4803,-850.476C261.0097,-839.6621 253.5857,-822.609 245.7817,-808.5584 243.2198,-803.9458 240.1584,-799.1035 237.2492,-794.7417"/>
<polygon fill="#000000" stroke="#000000" points="238.671,-793.7203 234.4148,-790.5663 235.7752,-795.6861 238.671,-793.7203"/>
<text text-anchor="middle" x="266.2817" y="-815.465" font-family="Times,serif" font-size="14.00" fill="#000000">♯ᵖᵖ</text>
</g>
<!-- n15 -->
<g id="node15" class="node">
<title>n15</title>
<ellipse fill="none" stroke="#000000" cx="320.7817" cy="-740.7386" rx="83.3772" ry="10.7143"/>
<text text-anchor="middle" x="320.7817" y="-737.0386" font-family="Times,serif" font-size="14.00" fill="#000000">dynamics_•9:Ω•</text>
</g>
<!-- n15&#45;&gt;n30 -->
<g id="edge17" class="edge">
<title>n15&#45;&gt;n30</title>
<path fill="none" stroke="#000000" stroke-dasharray="5,2" d="M320.88,-730.1147C320.6597,-719.8035 319.474,-703.859 314.7817,-690.9188 307.8902,-671.9134 294.1946,-652.8214 284.7647,-641.0383"/>
<polygon fill="#000000" stroke="#000000" points="286.0208,-639.8096 281.504,-637.0416 283.3088,-642.0221 286.0208,-639.8096"/>
<text text-anchor="middle" x="327.7817" y="-697.8254" font-family="Times,serif" font-size="14.00" fill="#000000">π₂</text>
</g>
<!-- n16 -->
<g id="node16" class="node">
<title>n16</title>
<ellipse fill="none" stroke="#000000" cx="456.7817" cy="-942.4615" rx="25.4118" ry="10.7143"/>
<text text-anchor="middle" x="456.7817" y="-938.7615" font-family="Times,serif" font-size="14.00" fill="#000000">1:ΩL</text>
</g>
<!-- n16&#45;&gt;n29 -->
<g id="edge14" class="edge">
<title>n16&#45;&gt;n29</title>
<path fill="none" stroke="#000000" stroke-dasharray="5,2" d="M456.7817,-931.8389C456.7817,-917.1268 456.7817,-890.5543 456.7817,-874.5304"/>
<polygon fill="#000000" stroke="#000000" points="458.5318,-874.1456 456.7817,-869.1457 455.0318,-874.1457 458.5318,-874.1456"/>
<text text-anchor="middle" x="464.7817" y="-899.5483" font-family="Times,serif" font-size="14.00" fill="#000000">π₂</text>
</g>
<!-- n17 -->
<g id="node17" class="node">
<title>n17</title>
<ellipse fill="none" stroke="#000000" cx="404.7817" cy="-590.099" rx="89.6056" ry="10.7143"/>
<text text-anchor="middle" x="404.7817" y="-586.399" font-family="Times,serif" font-size="14.00" fill="#000000">dynamics_•10:Ω•</text>
</g>
<!-- n17&#45;&gt;n32 -->
<g id="edge23" class="edge">
<title>n17&#45;&gt;n32</title>
<path fill="none" stroke="#000000" stroke-dasharray="5,2" d="M398.1077,-579.3656C391.1355,-568.6821 379.4618,-552.2018 366.7817,-540.2792 344.189,-519.036 313.535,-500.101 293.9524,-489.0014"/>
<polygon fill="#000000" stroke="#000000" points="294.4413,-487.2694 289.2239,-486.3517 292.7302,-490.3226 294.4413,-487.2694"/>
<text text-anchor="middle" x="393.7817" y="-547.1858" font-family="Times,serif" font-size="14.00" fill="#000000">π₂</text>
</g>
<!-- n18 -->
<g id="node18" class="node">
<title>n18</title>
<ellipse fill="none" stroke="#000000" cx="1105.7817" cy="-903.2483" rx="63.7795" ry="10.7143"/>
<text text-anchor="middle" x="1105.7817" y="-899.5483" font-family="Times,serif" font-size="14.00" fill="#000000">stress_A:ΩC</text>
</g>
<!-- n38 -->
<g id="node38" class="node">
<title>n38</title>
<polygon fill="none" stroke="#000000" points="989.7817,-558.3858 933.7817,-558.3858 933.7817,-543.3858 989.7817,-543.3858 989.7817,-558.3858"/>
<text text-anchor="middle" x="961.7817" y="-547.1858" font-family="Times,serif" font-size="14.00" fill="#000000">Ω•×ΩC</text>
</g>
<!-- n18&#45;&gt;n38 -->
<g id="edge41" class="edge">
<title>n18&#45;&gt;n38</title>
<path fill="none" stroke="#000000" stroke-dasharray="5,2" d="M1101.5403,-892.5577C1095.6694,-876.7712 1085.7817,-846.1741 1085.7817,-819.165 1085.7817,-819.165 1085.7817,-819.165 1085.7817,-629.3122 1085.7817,-586.3399 1031.9315,-565.946 995.2052,-557.0343"/>
<polygon fill="#000000" stroke="#000000" points="995.1861,-555.2329 989.9193,-555.8014 994.3911,-558.6414 995.1861,-555.2329"/>
<text text-anchor="middle" x="1093.7817" y="-737.0386" font-family="Times,serif" font-size="14.00" fill="#000000">π₂</text>
</g>
<!-- n19 -->
<g id="node19" class="node">
<title>n19</title>
<ellipse fill="none" stroke="#000000" cx="864.7817" cy="-942.4615" rx="62.4516" ry="10.7143"/>
<text text-anchor="middle" x="864.7817" y="-938.7615" font-family="Times,serif" font-size="14.00" fill="#000000">stress_ρ:ΩC</text>
</g>
<!-- n36 -->
<g id="node36" class="node">
<title>n36</title>
<polygon fill="none" stroke="#000000" points="770.2817,-868.7067 711.2817,-868.7067 711.2817,-853.7067 770.2817,-853.7067 770.2817,-868.7067"/>
<text text-anchor="middle" x="740.7817" y="-857.5067" font-family="Times,serif" font-size="14.00" fill="#000000">ΩC×ΩC</text>
</g>
<!-- n19&#45;&gt;n36 -->
<g id="edge34" class="edge">
<title>n19&#45;&gt;n36</title>
<path fill="none" stroke="#000000" stroke-dasharray="5,2" d="M849.0771,-932.1705C825.273,-916.5722 780.3158,-887.1126 756.5023,-871.508"/>
<polygon fill="#000000" stroke="#000000" points="757.453,-870.0388 752.3117,-868.762 755.5347,-872.9663 757.453,-870.0388"/>
<text text-anchor="middle" x="825.7817" y="-899.5483" font-family="Times,serif" font-size="14.00" fill="#000000">π₁</text>
</g>
<!-- n20 -->
<g id="node20" class="node">
<title>n20</title>
<ellipse fill="none" stroke="#000000" cx="722.7817" cy="-942.4615" rx="62.4516" ry="10.7143"/>
<text text-anchor="middle" x="722.7817" y="-938.7615" font-family="Times,serif" font-size="14.00" fill="#000000">stress_g:ΩC</text>
</g>
<!-- n20&#45;&gt;n36 -->
<g id="edge35" class="edge">
<title>n20&#45;&gt;n36</title>
<path fill="none" stroke="#000000" stroke-dasharray="5,2" d="M725.1349,-931.8389C728.4226,-916.9977 734.384,-890.0872 737.9231,-874.1112"/>
<polygon fill="#000000" stroke="#000000" points="739.6501,-874.4059 739.0231,-869.1457 736.233,-873.6488 739.6501,-874.4059"/>
<text text-anchor="middle" x="741.7817" y="-899.5483" font-family="Times,serif" font-size="14.00" fill="#000000">π₂</text>
</g>
<!-- n21 -->
<g id="node21" class="node">
<title>n21</title>
<ellipse fill="none" stroke="#000000" cx="961.7817" cy="-629.3122" rx="66.4361" ry="10.7143"/>
<text text-anchor="middle" x="961.7817" y="-625.6122" font-family="Times,serif" font-size="14.00" fill="#000000">stress_•1:Ω•</text>
</g>
<!-- n21&#45;&gt;n38 -->
<g id="edge40" class="edge">
<title>n21&#45;&gt;n38</title>
<path fill="none" stroke="#000000" stroke-dasharray="5,2" d="M961.7817,-618.4074C961.7817,-604.013 961.7817,-578.7217 961.7817,-563.5136"/>
<polygon fill="#000000" stroke="#000000" points="963.5318,-563.4056 961.7817,-558.4057 960.0318,-563.4057 963.5318,-563.4056"/>
<text text-anchor="middle" x="969.7817" y="-586.399" font-family="Times,serif" font-size="14.00" fill="#000000">π₁</text>
</g>
<!-- n22 -->
<g id="node22" class="node">
<title>n22</title>
<ellipse fill="none" stroke="#000000" cx="1000.7817" cy="-942.4615" rx="25.4118" ry="10.7143"/>
<text text-anchor="middle" x="1000.7817" y="-938.7615" font-family="Times,serif" font-size="14.00" fill="#000000">2:ΩL</text>
</g>
<!-- n35 -->
<g id="node35" class="node">
<title>n35</title>
<polygon fill="none" stroke="#000000" points="989.2817,-709.0254 934.2817,-709.0254 934.2817,-694.0254 989.2817,-694.0254 989.2817,-709.0254"/>
<text text-anchor="middle" x="961.7817" y="-697.8254" font-family="Times,serif" font-size="14.00" fill="#000000">ΩL×Ω•</text>
</g>
<!-- n22&#45;&gt;n35 -->
<g id="edge31" class="edge">
<title>n22&#45;&gt;n35</title>
<path fill="none" stroke="#000000" stroke-dasharray="5,2" d="M1003.6601,-931.6053C1010.5065,-903.8421 1025.8863,-828.2905 1007.7817,-769.3452 1000.9514,-747.1069 984.0796,-725.6082 972.7805,-712.977"/>
<polygon fill="#000000" stroke="#000000" points="973.8505,-711.5539 969.1848,-709.0451 971.2677,-713.9159 973.8505,-711.5539"/>
<text text-anchor="middle" x="1023.7817" y="-815.465" font-family="Times,serif" font-size="14.00" fill="#000000">π₁</text>
</g>
<!-- n22&#45;&gt;n41 -->
<g id="edge51" class="edge">
<title>n22&#45;&gt;n41</title>
<path fill="none" stroke="#000000" stroke-dasharray="5,2" d="M989.8686,-932.4981C973.7292,-917.7632 943.4979,-890.1628 925.7579,-873.9665"/>
<polygon fill="#000000" stroke="#000000" points="926.8312,-872.5768 921.9586,-870.4979 924.4713,-875.1616 926.8312,-872.5768"/>
</g>
<!-- n23 -->
<g id="node23" class="node">
<title>n23</title>
<ellipse fill="none" stroke="#000000" cx="911.7817" cy="-779.9518" rx="86.9483" ry="10.7143"/>
<text text-anchor="middle" x="911.7817" y="-776.2518" font-family="Times,serif" font-size="14.00" fill="#000000">stress_sum_1:Ω•</text>
</g>
<!-- n23&#45;&gt;n35 -->
<g id="edge32" class="edge">
<title>n23&#45;&gt;n35</title>
<path fill="none" stroke="#000000" stroke-dasharray="5,2" d="M918.525,-769.3749C927.8012,-754.8248 944.4511,-728.709 954.1657,-713.4714"/>
<polygon fill="#000000" stroke="#000000" points="955.7298,-714.2734 956.9421,-709.1165 952.7785,-712.3918 955.7298,-714.2734"/>
<text text-anchor="middle" x="949.7817" y="-737.0386" font-family="Times,serif" font-size="14.00" fill="#000000">π₂</text>
</g>
<!-- n24 -->
<g id="node24" class="node">
<title>n24</title>
<ellipse fill="none" stroke="#000000" cx="670.7817" cy="-590.099" rx="66.4361" ry="10.7143"/>
<text text-anchor="middle" x="670.7817" y="-586.399" font-family="Times,serif" font-size="14.00" fill="#000000">stress_•2:Ω•</text>
</g>
<!-- n39 -->
<g id="node39" class="node">
<title>n39</title>
<polygon fill="none" stroke="#000000" points="697.2817,-413.9594 644.2817,-413.9594 644.2817,-398.9594 697.2817,-398.9594 697.2817,-413.9594"/>
<text text-anchor="middle" x="670.7817" y="-402.7594" font-family="Times,serif" font-size="14.00" fill="#000000">Ω•×Ω•</text>
</g>
<!-- n24&#45;&gt;n39 -->
<g id="edge44" class="edge">
<title>n24&#45;&gt;n39</title>
<path fill="none" stroke="#000000" stroke-dasharray="5,2" d="M670.7817,-579.432C670.7817,-547.7371 670.7817,-454.1854 670.7817,-419.5498"/>
<polygon fill="#000000" stroke="#000000" points="672.5318,-419.1536 670.7817,-414.1536 669.0318,-419.1536 672.5318,-419.1536"/>
<text text-anchor="middle" x="678.7817" y="-511.0792" font-family="Times,serif" font-size="14.00" fill="#000000">π₂</text>
</g>
<!-- n25 -->
<g id="node25" class="node">
<title>n25</title>
<ellipse fill="none" stroke="#000000" cx="740.7817" cy="-779.9518" rx="66.4361" ry="10.7143"/>
<text text-anchor="middle" x="740.7817" y="-776.2518" font-family="Times,serif" font-size="14.00" fill="#000000">stress_•3:Ω•</text>
</g>
<!-- n25&#45;&gt;n37 -->
<g id="edge37" class="edge">
<title>n25&#45;&gt;n37</title>
<path fill="none" stroke="#000000" stroke-dasharray="5,2" d="M731.3412,-769.3749C718.2425,-754.6994 694.6419,-728.2578 681.0946,-713.0797"/>
<polygon fill="#000000" stroke="#000000" points="682.1923,-711.6815 677.5572,-709.1165 679.5811,-714.0121 682.1923,-711.6815"/>
<text text-anchor="middle" x="722.7817" y="-737.0386" font-family="Times,serif" font-size="14.00" fill="#000000">π₁</text>
</g>
<!-- n26 -->
<g id="node26" class="node">
<title>n26</title>
<ellipse fill="none" stroke="#000000" cx="860.7817" cy="-478.6726" rx="89.191" ry="10.7143"/>
<text text-anchor="middle" x="860.7817" y="-474.9726" font-family="Times,serif" font-size="14.00" fill="#000000">stress_mult_1:Ω•</text>
</g>
<!-- n26&#45;&gt;n39 -->
<g id="edge43" class="edge">
<title>n26&#45;&gt;n39</title>
<path fill="none" stroke="#000000" stroke-dasharray="5,2" d="M833.9624,-468.4794C797.1084,-454.4723 731.3207,-429.4684 695.5676,-415.8798"/>
<polygon fill="#000000" stroke="#000000" points="695.8131,-414.101 690.5175,-413.9604 694.5696,-417.3727 695.8131,-414.101"/>
<text text-anchor="middle" x="791.7817" y="-438.866" font-family="Times,serif" font-size="14.00" fill="#000000">π₁</text>
</g>
<!-- n27 -->
<g id="node27" class="node">
<title>n27</title>
</g>
<!-- n27&#45;&gt;n1 -->
<g id="edge1" class="edge">
<title>n27&#45;&gt;n1</title>
<path fill="none" stroke="#000000" d="M720.7621,-991.8469C696.234,-989.1609 454.4696,-962.6861 335.3847,-949.6455"/>
<polygon fill="#000000" stroke="#000000" points="335.317,-947.8777 330.1562,-949.0729 334.9359,-951.3569 335.317,-947.8777"/>
</g>
<!-- n27&#45;&gt;n3 -->
<g id="edge2" class="edge">
<title>n27&#45;&gt;n3</title>
<path fill="none" stroke="#000000" d="M720.5678,-991.032C710.2253,-986.1919 666.025,-965.5067 638.7503,-952.7425"/>
<polygon fill="#000000" stroke="#000000" points="639.4669,-951.1457 634.1964,-950.6114 637.9833,-954.3158 639.4669,-951.1457"/>
</g>
<!-- n27&#45;&gt;n18 -->
<g id="edge3" class="edge">
<title>n27&#45;&gt;n18</title>
<path fill="none" stroke="#000000" d="M724.9261,-991.9442C749.2332,-990.5188 973.1548,-976.8368 1034.7817,-953.0681 1055.9174,-944.9164 1076.7308,-929.1411 1090.3019,-917.5172"/>
<polygon fill="#000000" stroke="#000000" points="1091.6537,-918.6605 1094.2735,-914.0561 1089.3542,-916.0218 1091.6537,-918.6605"/>
</g>
<!-- n27&#45;&gt;n19 -->
<g id="edge4" class="edge">
<title>n27&#45;&gt;n19</title>
<path fill="none" stroke="#000000" d="M724.7891,-991.3669C736.3064,-987.3434 794.7907,-966.9123 832.4308,-953.763"/>
<polygon fill="#000000" stroke="#000000" points="833.2254,-955.3392 837.3685,-952.0381 832.0711,-952.0351 833.2254,-955.3392"/>
</g>
<!-- n27&#45;&gt;n20 -->
<g id="edge5" class="edge">
<title>n27&#45;&gt;n20</title>
<path fill="none" stroke="#000000" d="M722.7817,-989.9366C722.7817,-984.533 722.7817,-969.9042 722.7817,-958.3001"/>
<polygon fill="#000000" stroke="#000000" points="724.5318,-958.2254 722.7817,-953.2254 721.0318,-958.2254 724.5318,-958.2254"/>
</g>
<!-- n29&#45;&gt;n15 -->
<g id="edge15" class="edge">
<title>n29&#45;&gt;n15</title>
<path fill="none" stroke="#000000" d="M448.3945,-853.6916C436.9683,-843.4608 415.8615,-824.5869 397.7817,-808.5584 376.6456,-789.8203 352.1522,-768.2762 336.569,-754.5907"/>
<polygon fill="#000000" stroke="#000000" points="337.7185,-753.2712 332.8066,-751.2871 335.4092,-755.9012 337.7185,-753.2712"/>
<text text-anchor="middle" x="424.2817" y="-815.465" font-family="Times,serif" font-size="14.00" fill="#000000">&#45;</text>
</g>
<!-- n30&#45;&gt;n11 -->
<g id="edge18" class="edge">
<title>n30&#45;&gt;n11</title>
<path fill="none" stroke="#000000" d="M274.7817,-621.7924C274.7817,-609.2544 274.7817,-583.8048 274.7817,-567.053"/>
<polygon fill="#000000" stroke="#000000" points="276.5318,-566.7366 274.7817,-561.7366 273.0318,-566.7366 276.5318,-566.7366"/>
<text text-anchor="middle" x="281.2817" y="-586.399" font-family="Times,serif" font-size="14.00" fill="#000000">^</text>
</g>
<!-- n31&#45;&gt;n17 -->
<g id="edge21" class="edge">
<title>n31&#45;&gt;n17</title>
<path fill="none" stroke="#000000" d="M417.8195,-693.8666C415.5566,-675.8563 409.8584,-630.5045 406.7986,-606.151"/>
<polygon fill="#000000" stroke="#000000" points="408.512,-605.7494 406.1522,-601.0066 405.0393,-606.1858 408.512,-605.7494"/>
<text text-anchor="middle" x="422.2817" y="-661.7188" font-family="Times,serif" font-size="14.00" fill="#000000">^</text>
</g>
<!-- n32&#45;&gt;n10 -->
<g id="edge24" class="edge">
<title>n32&#45;&gt;n10</title>
<path fill="none" stroke="#000000" d="M271.2502,-470.9445C265.9321,-459.3071 255.7585,-437.0444 248.8712,-421.973"/>
<polygon fill="#000000" stroke="#000000" points="250.3431,-420.9836 246.6732,-417.1633 247.1598,-422.4383 250.3431,-420.9836"/>
<text text-anchor="middle" x="273.2817" y="-438.866" font-family="Times,serif" font-size="14.00" fill="#000000">∧₀₀</text>
</g>
<!-- n33&#45;&gt;n8 -->
<g id="edge27" class="edge">
<title>n33&#45;&gt;n8</title>
<path fill="none" stroke="#000000" d="M186.7817,-329.576C186.7817,-317.4192 186.7817,-293.6678 186.7817,-277.822"/>
<polygon fill="#000000" stroke="#000000" points="188.5318,-277.7794 186.7817,-272.7795 185.0318,-277.7795 188.5318,-277.7794"/>
<text text-anchor="middle" x="198.2817" y="-297.5462" font-family="Times,serif" font-size="14.00" fill="#000000">∧₁₀</text>
</g>
<!-- n34&#45;&gt;n4 -->
<g id="edge30" class="edge">
<title>n34&#45;&gt;n4</title>
<path fill="none" stroke="#000000" d="M174.7004,-113.0535C156.305,-101.3908 121.0363,-79.0302 98.4976,-64.7406"/>
<polygon fill="#000000" stroke="#000000" points="99.3282,-63.1951 94.1683,-61.9958 97.4541,-66.1511 99.3282,-63.1951"/>
<text text-anchor="middle" x="149.7817" y="-84.0132" font-family="Times,serif" font-size="14.00" fill="#000000">*</text>
</g>
<!-- n35&#45;&gt;n21 -->
<g id="edge33" class="edge">
<title>n35&#45;&gt;n21</title>
<path fill="none" stroke="#000000" d="M961.7817,-693.7974C961.7817,-682.2611 961.7817,-660.2836 961.7817,-645.2206"/>
<polygon fill="#000000" stroke="#000000" points="963.5318,-645.0161 961.7817,-640.0161 960.0318,-645.0161 963.5318,-645.0161"/>
<text text-anchor="middle" x="964.2817" y="-661.7188" font-family="Times,serif" font-size="14.00" fill="#000000">/</text>
</g>
<!-- n36&#45;&gt;n25 -->
<g id="edge36" class="edge">
<title>n36&#45;&gt;n25</title>
<path fill="none" stroke="#000000" d="M740.7817,-853.4156C740.7817,-840.1685 740.7817,-813.0097 740.7817,-795.6829"/>
<polygon fill="#000000" stroke="#000000" points="742.5318,-795.6476 740.7817,-790.6476 739.0318,-795.6476 742.5318,-795.6476"/>
<text text-anchor="middle" x="744.7817" y="-815.465" font-family="Times,serif" font-size="14.00" fill="#000000">*</text>
</g>
<!-- n37&#45;&gt;n24 -->
<g id="edge39" class="edge">
<title>n37&#45;&gt;n24</title>
<path fill="none" stroke="#000000" d="M670.7817,-693.8666C670.7817,-675.8563 670.7817,-630.5045 670.7817,-606.151"/>
<polygon fill="#000000" stroke="#000000" points="672.5318,-606.0066 670.7817,-601.0066 669.0318,-606.0067 672.5318,-606.0066"/>
<text text-anchor="middle" x="677.2817" y="-661.7188" font-family="Times,serif" font-size="14.00" fill="#000000">^</text>
</g>
<!-- n38&#45;&gt;n26 -->
<g id="edge42" class="edge">
<title>n38&#45;&gt;n26</title>
<path fill="none" stroke="#000000" d="M950.973,-543.1577C934.0595,-531.0649 901.0995,-507.4991 880.0528,-492.4511"/>
<polygon fill="#000000" stroke="#000000" points="880.8378,-490.861 875.7526,-489.3765 878.8021,-493.7082 880.8378,-490.861"/>
<text text-anchor="middle" x="923.7817" y="-511.0792" font-family="Times,serif" font-size="14.00" fill="#000000">*</text>
</g>
<!-- n39&#45;&gt;n2 -->
<g id="edge45" class="edge">
<title>n39&#45;&gt;n2</title>
<path fill="none" stroke="#000000" d="M645.251,-398.8927C579.5546,-379.4219 405.2863,-327.7731 340.4976,-308.5714"/>
<polygon fill="#000000" stroke="#000000" points="340.9519,-306.8809 335.6607,-307.1379 339.9573,-310.2366 340.9519,-306.8809"/>
<text text-anchor="middle" x="578.7817" y="-366.6528" font-family="Times,serif" font-size="14.00" fill="#000000">*</text>
</g>
<!-- n40&#45;&gt;n6 -->
<g id="edge46" class="edge">
<title>n40&#45;&gt;n6</title>
<path fill="none" stroke="#000000" d="M535.6044,-848.1517C531.0131,-833.8032 523.642,-810.767 518.7558,-795.4968"/>
<polygon fill="#000000" stroke="#000000" points="520.3923,-794.8685 517.2017,-790.6397 517.0588,-795.9353 520.3923,-794.8685"/>
<text text-anchor="middle" x="536.2817" y="-815.465" font-family="Times,serif" font-size="14.00" fill="#000000">+</text>
</g>
<!-- n41&#45;&gt;n23 -->
<g id="edge47" class="edge">
<title>n41&#45;&gt;n23</title>
<path fill="none" stroke="#000000" d="M911.7817,-847.4229C911.7817,-833.2282 911.7817,-811.1204 911.7817,-796.1118"/>
<polygon fill="#000000" stroke="#000000" points="913.5318,-795.9313 911.7817,-790.9313 910.0318,-795.9314 913.5318,-795.9313"/>
<text text-anchor="middle" x="918.2817" y="-815.465" font-family="Times,serif" font-size="14.00" fill="#000000">+</text>
</g>
</g>
</svg>
