<?xml version="1.0" encoding="UTF-8" standalone="no"?>
<!DOCTYPE svg PUBLIC "-//W3C//DTD SVG 1.1//EN"
 "http://www.w3.org/Graphics/SVG/1.1/DTD/svg11.dtd">
<!-- Generated by graphviz version 2.43.0 (0)
 -->
<!-- Title: G Pages: 1 -->
<svg width="325pt" height="647pt"
 viewBox="0.00 0.00 324.91 647.36" xmlns="http://www.w3.org/2000/svg" xmlns:xlink="http://www.w3.org/1999/xlink">
<g id="graph0" class="graph" transform="scale(1 1) rotate(0) translate(4 643.36)">
<title>G</title>
<polygon fill="white" stroke="transparent" points="-4,4 -4,-643.36 320.91,-643.36 320.91,4 -4,4"/>
<!-- n1 -->
<g id="node1" class="node">
<title>n1</title>
<ellipse fill="none" stroke="black" cx="151.16" cy="-10.61" rx="21.84" ry="10.71"/>
<text text-anchor="middle" x="151.16" y="-6.91" font-family="Times,serif" font-size="14.00">Γ:Ω₁</text>
</g>
<!-- n2 -->
<g id="node2" class="node">
<title>n2</title>
<ellipse fill="none" stroke="black" cx="26.16" cy="-548.54" rx="26.33" ry="10.71"/>
<text text-anchor="middle" x="26.16" y="-544.84" font-family="Times,serif" font-size="14.00">A:ΩC</text>
</g>
<!-- n17 -->
<g id="node17" class="node">
<title>n17</title>
<polygon fill="none" stroke="black" points="114.16,-225.43 60.16,-225.43 60.16,-210.43 114.16,-210.43 114.16,-225.43"/>
<text text-anchor="middle" x="87.16" y="-214.23" font-family="Times,serif" font-size="14.00">Ω•×ΩC</text>
</g>
<!-- n2&#45;&gt;n17 -->
<g id="edge15" class="edge">
<title>n2&#45;&gt;n17</title>
<path fill="none" stroke="black" stroke-dasharray="5,2" d="M26.57,-537.82C27.15,-522.91 28.16,-493.53 28.16,-468.57 28.16,-468.57 28.16,-468.57 28.16,-292.25 28.16,-264.23 54.63,-240.85 72.11,-228.47"/>
<polygon fill="black" stroke="black" points="73.21,-229.83 76.34,-225.56 71.23,-226.95 73.21,-229.83"/>
<text text-anchor="middle" x="35.66" y="-391.65" font-family="Times,serif" font-size="14.00">π₂</text>
</g>
<!-- n3 -->
<g id="node3" class="node">
<title>n3</title>
<ellipse fill="none" stroke="black" cx="292.16" cy="-587.76" rx="25" ry="10.71"/>
<text text-anchor="middle" x="292.16" y="-584.06" font-family="Times,serif" font-size="14.00">ρ:ΩC</text>
</g>
<!-- n15 -->
<g id="node15" class="node">
<title>n15</title>
<polygon fill="none" stroke="black" points="307.16,-514 251.16,-514 251.16,-499 307.16,-499 307.16,-514"/>
<text text-anchor="middle" x="279.16" y="-502.8" font-family="Times,serif" font-size="14.00">ΩC×ΩC</text>
</g>
<!-- n3&#45;&gt;n15 -->
<g id="edge8" class="edge">
<title>n3&#45;&gt;n15</title>
<path fill="none" stroke="black" stroke-dasharray="5,2" d="M290.57,-577.04C288.18,-562.46 283.67,-534.97 281.09,-519.27"/>
<polygon fill="black" stroke="black" points="282.78,-518.72 280.24,-514.07 279.32,-519.29 282.78,-518.72"/>
<text text-anchor="middle" x="294.66" y="-544.84" font-family="Times,serif" font-size="14.00">π₁</text>
</g>
<!-- n4 -->
<g id="node4" class="node">
<title>n4</title>
<ellipse fill="none" stroke="black" cx="224.16" cy="-587.76" rx="25.41" ry="10.71"/>
<text text-anchor="middle" x="224.16" y="-584.06" font-family="Times,serif" font-size="14.00">g:ΩC</text>
</g>
<!-- n4&#45;&gt;n15 -->
<g id="edge9" class="edge">
<title>n4&#45;&gt;n15</title>
<path fill="none" stroke="black" stroke-dasharray="5,2" d="M230.69,-577.35C240.9,-562.64 260.61,-534.23 271.49,-518.56"/>
<polygon fill="black" stroke="black" points="273.15,-519.24 274.56,-514.13 270.27,-517.24 273.15,-519.24"/>
<text text-anchor="middle" x="263.66" y="-544.84" font-family="Times,serif" font-size="14.00">π₂</text>
</g>
<!-- n5 -->
<g id="node5" class="node">
<title>n5</title>
<ellipse fill="none" stroke="black" cx="155.16" cy="-587.76" rx="25.41" ry="10.71"/>
<text text-anchor="middle" x="155.16" y="-584.06" font-family="Times,serif" font-size="14.00">n:ΩC</text>
</g>
<!-- n16 -->
<g id="node16" class="node">
<title>n16</title>
<polygon fill="none" stroke="black" points="248.16,-369.85 194.16,-369.85 194.16,-354.85 248.16,-354.85 248.16,-369.85"/>
<text text-anchor="middle" x="221.16" y="-358.65" font-family="Times,serif" font-size="14.00">Ω•×ΩC</text>
</g>
<!-- n5&#45;&gt;n16 -->
<g id="edge12" class="edge">
<title>n5&#45;&gt;n16</title>
<path fill="none" stroke="black" stroke-dasharray="5,2" d="M158.62,-577.01C166.78,-553.81 187.65,-493.41 202.16,-442.07 208.84,-418.45 215.24,-390.44 218.64,-375.01"/>
<polygon fill="black" stroke="black" points="220.4,-375.19 219.76,-369.93 216.98,-374.44 220.4,-375.19"/>
<text text-anchor="middle" x="203.66" y="-463.87" font-family="Times,serif" font-size="14.00">π₂</text>
</g>
<!-- n19 -->
<g id="node19" class="node">
<title>n19</title>
<ellipse fill="none" stroke="black" cx="144.16" cy="-506.5" rx="13.37" ry="13.37"/>
<text text-anchor="middle" x="144.16" y="-502.8" font-family="Times,serif" font-size="14.00">Σ1</text>
</g>
<!-- n5&#45;&gt;n19 -->
<g id="edge21" class="edge">
<title>n5&#45;&gt;n19</title>
<path fill="none" stroke="black" stroke-dasharray="5,2" d="M153.81,-577.04C152.02,-564.11 148.82,-541.04 146.6,-525.04"/>
<polygon fill="black" stroke="black" points="148.31,-524.62 145.88,-519.91 144.84,-525.1 148.31,-524.62"/>
</g>
<!-- n6 -->
<g id="node6" class="node">
<title>n6</title>
<ellipse fill="none" stroke="black" cx="87.16" cy="-293.25" rx="29.9" ry="10.71"/>
<text text-anchor="middle" x="87.16" y="-289.55" font-family="Times,serif" font-size="14.00">•1:Ω•</text>
</g>
<!-- n6&#45;&gt;n17 -->
<g id="edge14" class="edge">
<title>n6&#45;&gt;n17</title>
<path fill="none" stroke="black" stroke-dasharray="5,2" d="M87.16,-282.36C87.16,-268.97 87.16,-245.1 87.16,-230.77"/>
<polygon fill="black" stroke="black" points="88.91,-230.62 87.16,-225.62 85.41,-230.62 88.91,-230.62"/>
<text text-anchor="middle" x="94.66" y="-250.33" font-family="Times,serif" font-size="14.00">π₁</text>
</g>
<!-- n7 -->
<g id="node7" class="node">
<title>n7</title>
<ellipse fill="none" stroke="black" cx="86.16" cy="-587.76" rx="24.08" ry="10.71"/>
<text text-anchor="middle" x="86.16" y="-584.06" font-family="Times,serif" font-size="14.00">2:ΩL</text>
</g>
<!-- n14 -->
<g id="node14" class="node">
<title>n14</title>
<polygon fill="none" stroke="black" points="113.16,-369.85 61.16,-369.85 61.16,-354.85 113.16,-354.85 113.16,-369.85"/>
<text text-anchor="middle" x="87.16" y="-358.65" font-family="Times,serif" font-size="14.00">ΩL×Ω•</text>
</g>
<!-- n7&#45;&gt;n14 -->
<g id="edge5" class="edge">
<title>n7&#45;&gt;n14</title>
<path fill="none" stroke="black" stroke-dasharray="5,2" d="M86.1,-577.03C85.96,-551.45 85.65,-480.18 86.16,-420.85 86.3,-405.07 86.65,-386.84 86.9,-375.22"/>
<polygon fill="black" stroke="black" points="88.65,-375.12 87.01,-370.08 85.15,-375.04 88.65,-375.12"/>
<text text-anchor="middle" x="93.66" y="-463.87" font-family="Times,serif" font-size="14.00">π₁</text>
</g>
<!-- n7&#45;&gt;n19 -->
<g id="edge22" class="edge">
<title>n7&#45;&gt;n19</title>
<path fill="none" stroke="black" stroke-dasharray="5,2" d="M93.04,-577.35C103.03,-563.71 121.62,-538.3 133.42,-522.18"/>
<polygon fill="black" stroke="black" points="135.02,-522.96 136.56,-517.9 132.19,-520.9 135.02,-522.96"/>
</g>
<!-- n8 -->
<g id="node8" class="node">
<title>n8</title>
<ellipse fill="none" stroke="black" cx="144.16" cy="-431.46" rx="49.49" ry="10.71"/>
<text text-anchor="middle" x="144.16" y="-427.76" font-family="Times,serif" font-size="14.00">sum_1:Ω•</text>
</g>
<!-- n8&#45;&gt;n14 -->
<g id="edge6" class="edge">
<title>n8&#45;&gt;n14</title>
<path fill="none" stroke="black" stroke-dasharray="5,2" d="M136,-420.84C125.49,-408.47 107.28,-387.04 96.31,-374.13"/>
<polygon fill="black" stroke="black" points="97.46,-372.78 92.89,-370.1 94.8,-375.04 97.46,-372.78"/>
<text text-anchor="middle" x="125.66" y="-391.65" font-family="Times,serif" font-size="14.00">π₂</text>
</g>
<!-- n9 -->
<g id="node9" class="node">
<title>n9</title>
<ellipse fill="none" stroke="black" cx="218.16" cy="-254.03" rx="29.9" ry="10.71"/>
<text text-anchor="middle" x="218.16" y="-250.33" font-family="Times,serif" font-size="14.00">•2:Ω•</text>
</g>
<!-- n18 -->
<g id="node18" class="node">
<title>n18</title>
<polygon fill="none" stroke="black" points="177.16,-87.21 125.16,-87.21 125.16,-72.21 177.16,-72.21 177.16,-87.21"/>
<text text-anchor="middle" x="151.16" y="-76.01" font-family="Times,serif" font-size="14.00">Ω•×Ω•</text>
</g>
<!-- n9&#45;&gt;n18 -->
<g id="edge18" class="edge">
<title>n9&#45;&gt;n18</title>
<path fill="none" stroke="black" stroke-dasharray="5,2" d="M214.37,-243.27C202.8,-213.53 168.02,-124.07 155.62,-92.17"/>
<polygon fill="black" stroke="black" points="157.14,-91.26 153.7,-87.23 153.88,-92.53 157.14,-91.26"/>
<text text-anchor="middle" x="201.66" y="-181.23" font-family="Times,serif" font-size="14.00">π₂</text>
</g>
<!-- n10 -->
<g id="node10" class="node">
<title>n10</title>
<ellipse fill="none" stroke="black" cx="279.16" cy="-431.46" rx="29.9" ry="10.71"/>
<text text-anchor="middle" x="279.16" y="-427.76" font-family="Times,serif" font-size="14.00">•3:Ω•</text>
</g>
<!-- n10&#45;&gt;n16 -->
<g id="edge11" class="edge">
<title>n10&#45;&gt;n16</title>
<path fill="none" stroke="black" stroke-dasharray="5,2" d="M271.1,-421.13C260.47,-408.83 241.81,-387.25 230.56,-374.23"/>
<polygon fill="black" stroke="black" points="231.64,-372.8 227.05,-370.16 229,-375.09 231.64,-372.8"/>
<text text-anchor="middle" x="260.66" y="-391.65" font-family="Times,serif" font-size="14.00">π₁</text>
</g>
<!-- n11 -->
<g id="node11" class="node">
<title>n11</title>
<ellipse fill="none" stroke="black" cx="108.16" cy="-148.82" rx="51.74" ry="10.71"/>
<text text-anchor="middle" x="108.16" y="-145.12" font-family="Times,serif" font-size="14.00">mult_1:Ω•</text>
</g>
<!-- n11&#45;&gt;n18 -->
<g id="edge17" class="edge">
<title>n11&#45;&gt;n18</title>
<path fill="none" stroke="black" stroke-dasharray="5,2" d="M114.32,-138.21C122.18,-125.94 135.75,-104.77 144.04,-91.83"/>
<polygon fill="black" stroke="black" points="145.62,-92.61 146.84,-87.46 142.67,-90.73 145.62,-92.61"/>
<text text-anchor="middle" x="141.66" y="-109.01" font-family="Times,serif" font-size="14.00">π₁</text>
</g>
<!-- n12 -->
<g id="node12" class="node">
<title>n12</title>
</g>
<!-- n12&#45;&gt;n2 -->
<g id="edge1" class="edge">
<title>n12&#45;&gt;n2</title>
<path fill="none" stroke="black" d="M176.15,-636.3C163.49,-635.78 94.07,-631.47 53.16,-598.36 42.19,-589.49 34.97,-574.9 30.77,-563.98"/>
<polygon fill="black" stroke="black" points="32.41,-563.36 29.06,-559.25 29.12,-564.55 32.41,-563.36"/>
</g>
<!-- n12&#45;&gt;n3 -->
<g id="edge2" class="edge">
<title>n12&#45;&gt;n3</title>
<path fill="none" stroke="black" d="M180.54,-635.37C191.91,-630.62 241.29,-610 270.42,-597.83"/>
<polygon fill="black" stroke="black" points="271.33,-599.35 275.27,-595.81 269.98,-596.12 271.33,-599.35"/>
</g>
<!-- n12&#45;&gt;n4 -->
<g id="edge3" class="edge">
<title>n12&#45;&gt;n4</title>
<path fill="none" stroke="black" d="M179.3,-635.19C183.68,-630.66 199.76,-614.01 211.42,-601.94"/>
<polygon fill="black" stroke="black" points="212.97,-602.86 215.18,-598.05 210.45,-600.43 212.97,-602.86"/>
</g>
<!-- n12&#45;&gt;n5 -->
<g id="edge4" class="edge">
<title>n12&#45;&gt;n5</title>
<path fill="none" stroke="black" d="M177.59,-635.19C175.47,-630.79 167.82,-614.95 162.04,-602.99"/>
<polygon fill="black" stroke="black" points="163.6,-602.2 159.85,-598.46 160.45,-603.72 163.6,-602.2"/>
</g>
<!-- n13 -->
<g id="node13" class="node">
<title>n13</title>
</g>
<!-- n14&#45;&gt;n6 -->
<g id="edge7" class="edge">
<title>n14&#45;&gt;n6</title>
<path fill="none" stroke="black" d="M87.16,-354.67C87.16,-344.14 87.16,-323.4 87.16,-309.18"/>
<polygon fill="black" stroke="black" points="88.91,-308.91 87.16,-303.91 85.41,-308.91 88.91,-308.91"/>
<text text-anchor="middle" x="89.66" y="-325.65" font-family="Times,serif" font-size="14.00">/</text>
</g>
<!-- n15&#45;&gt;n10 -->
<g id="edge10" class="edge">
<title>n15&#45;&gt;n10</title>
<path fill="none" stroke="black" d="M279.16,-498.76C279.16,-487.19 279.16,-463.26 279.16,-447.54"/>
<polygon fill="black" stroke="black" points="280.91,-447.16 279.16,-442.16 277.41,-447.16 280.91,-447.16"/>
<text text-anchor="middle" x="282.66" y="-463.87" font-family="Times,serif" font-size="14.00">*</text>
</g>
<!-- n16&#45;&gt;n9 -->
<g id="edge13" class="edge">
<title>n16&#45;&gt;n9</title>
<path fill="none" stroke="black" d="M220.98,-354.7C220.5,-337.87 219.24,-293.25 218.58,-269.84"/>
<polygon fill="black" stroke="black" points="220.32,-269.59 218.43,-264.64 216.83,-269.69 220.32,-269.59"/>
<text text-anchor="middle" x="226.66" y="-325.65" font-family="Times,serif" font-size="14.00">^</text>
</g>
<!-- n17&#45;&gt;n11 -->
<g id="edge16" class="edge">
<title>n17&#45;&gt;n11</title>
<path fill="none" stroke="black" d="M89.25,-210.25C92.58,-199.62 99.16,-178.6 103.61,-164.38"/>
<polygon fill="black" stroke="black" points="105.32,-164.77 105.14,-159.48 101.98,-163.73 105.32,-164.77"/>
<text text-anchor="middle" x="101.66" y="-181.23" font-family="Times,serif" font-size="14.00">*</text>
</g>
<!-- n18&#45;&gt;n1 -->
<g id="edge19" class="edge">
<title>n18&#45;&gt;n1</title>
<path fill="none" stroke="black" d="M151.16,-72.03C151.16,-61.5 151.16,-40.76 151.16,-26.54"/>
<polygon fill="black" stroke="black" points="152.91,-26.27 151.16,-21.27 149.41,-26.27 152.91,-26.27"/>
<text text-anchor="middle" x="154.66" y="-43.01" font-family="Times,serif" font-size="14.00">*</text>
</g>
<!-- n19&#45;&gt;n8 -->
<g id="edge20" class="edge">
<title>n19&#45;&gt;n8</title>
<path fill="none" stroke="black" d="M144.16,-492.78C144.16,-480.19 144.16,-460.92 144.16,-447.56"/>
<polygon fill="black" stroke="black" points="145.91,-447.23 144.16,-442.23 142.41,-447.23 145.91,-447.23"/>
<text text-anchor="middle" x="150.66" y="-463.87" font-family="Times,serif" font-size="14.00">+</text>
</g>
</g>
</svg>
