<?xml version="1.0" encoding="UTF-8" standalone="no"?>
<!DOCTYPE svg PUBLIC "-//W3C//DTD SVG 1.1//EN"
 "http://www.w3.org/Graphics/SVG/1.1/DTD/svg11.dtd">
<!-- Generated by graphviz version 2.43.0 (0)
 -->
<!-- Title: G Pages: 1 -->
<svg width="894pt" height="1369pt"
 viewBox="0.00 0.00 894.27 1368.79" xmlns="http://www.w3.org/2000/svg" xmlns:xlink="http://www.w3.org/1999/xlink">
<g id="graph0" class="graph" transform="scale(1 1) rotate(0) translate(4 1364.79)">
<title>G</title>
<polygon fill="white" stroke="transparent" points="-4,4 -4,-1364.79 890.27,-1364.79 890.27,4 -4,4"/>
<!-- n1 -->
<g id="node1" class="node">
<title>n1</title>
<ellipse fill="none" stroke="black" cx="739.02" cy="-996.59" rx="74.49" ry="10.71"/>
<text text-anchor="middle" x="739.02" y="-992.89" font-family="Times,serif" font-size="14.00">dynamics_h:Ω₀</text>
</g>
<!-- n4 -->
<g id="node4" class="node">
<title>n4</title>
<ellipse fill="none" stroke="black" cx="812.02" cy="-51.61" rx="74.49" ry="10.71"/>
<text text-anchor="middle" x="812.02" y="-47.91" font-family="Times,serif" font-size="14.00">dynamics_ḣ:Ω₀</text>
</g>
<!-- n1&#45;&gt;n4 -->
<g id="edge7" class="edge">
<title>n1&#45;&gt;n4</title>
<path fill="none" stroke="black" d="M773.21,-987.11C805.18,-976.88 848.02,-956.26 848.02,-919.17 848.02,-919.17 848.02,-919.17 848.02,-122.82 848.02,-101.4 834.6,-79.96 824.15,-66.51"/>
<polygon fill="black" stroke="black" points="825.23,-65.07 820.74,-62.27 822.5,-67.26 825.23,-65.07"/>
<text text-anchor="middle" x="854.02" y="-504.87" font-family="Times,serif" font-size="14.00">∂ₜ</text>
</g>
<!-- n7 -->
<g id="node7" class="node">
<title>n7</title>
<ellipse fill="none" stroke="black" cx="631.02" cy="-878.95" rx="79.81" ry="10.71"/>
<text text-anchor="middle" x="631.02" y="-875.25" font-family="Times,serif" font-size="14.00">dynamics_•1:Ω₁</text>
</g>
<!-- n1&#45;&gt;n7 -->
<g id="edge8" class="edge">
<title>n1&#45;&gt;n7</title>
<path fill="none" stroke="black" d="M676.44,-990.8C661.82,-986.68 647.71,-979.68 638.02,-967.98 620.95,-947.37 623.91,-913.93 627.52,-894.74"/>
<polygon fill="black" stroke="black" points="629.26,-894.98 628.54,-889.73 625.83,-894.28 629.26,-894.98"/>
<text text-anchor="middle" x="645.52" y="-953.68" font-family="Times,serif" font-size="14.00">d₀</text>
</g>
<!-- n12 -->
<g id="node12" class="node">
<title>n12</title>
<ellipse fill="none" stroke="black" cx="519.02" cy="-918.17" rx="79.81" ry="10.71"/>
<text text-anchor="middle" x="519.02" y="-914.47" font-family="Times,serif" font-size="14.00">dynamics_•6:Ω₁</text>
</g>
<!-- n1&#45;&gt;n12 -->
<g id="edge9" class="edge">
<title>n1&#45;&gt;n12</title>
<path fill="none" stroke="black" d="M685.41,-989.2C659.36,-985.01 627.93,-978.34 601.02,-967.98 577.14,-958.8 552.22,-942.92 536.21,-931.77"/>
<polygon fill="black" stroke="black" points="537.04,-930.21 531.94,-928.76 535.02,-933.08 537.04,-930.21"/>
<text text-anchor="middle" x="608.52" y="-953.68" font-family="Times,serif" font-size="14.00">d₀</text>
</g>
<!-- n35 -->
<g id="node35" class="node">
<title>n35</title>
<polygon fill="none" stroke="black" points="762.52,-925.67 713.52,-925.67 713.52,-910.67 762.52,-910.67 762.52,-925.67"/>
<text text-anchor="middle" x="738.02" y="-914.47" font-family="Times,serif" font-size="14.00">Ω₀×Ω•</text>
</g>
<!-- n1&#45;&gt;n35 -->
<g id="edge23" class="edge">
<title>n1&#45;&gt;n35</title>
<path fill="none" stroke="black" stroke-dasharray="5,2" d="M738.9,-985.91C738.71,-971.89 738.37,-945.95 738.18,-930.87"/>
<polygon fill="black" stroke="black" points="739.93,-930.83 738.11,-925.85 736.43,-930.87 739.93,-930.83"/>
<text text-anchor="middle" x="745.52" y="-953.68" font-family="Times,serif" font-size="14.00">π₁</text>
</g>
<!-- n2 -->
<g id="node2" class="node">
<title>n2</title>
<ellipse fill="none" stroke="black" cx="529.02" cy="-689.1" rx="21.84" ry="10.71"/>
<text text-anchor="middle" x="529.02" y="-685.4" font-family="Times,serif" font-size="14.00">Γ:Ω₁</text>
</g>
<!-- n36 -->
<g id="node36" class="node">
<title>n36</title>
<polygon fill="none" stroke="black" points="622.02,-624.39 576.02,-624.39 576.02,-609.39 622.02,-609.39 622.02,-624.39"/>
<text text-anchor="middle" x="599.02" y="-613.19" font-family="Times,serif" font-size="14.00">Ω₁×Ω₁</text>
</g>
<!-- n2&#45;&gt;n36 -->
<g id="edge26" class="edge">
<title>n2&#45;&gt;n36</title>
<path fill="none" stroke="black" stroke-dasharray="5,2" d="M537.89,-679.21C550.94,-666.12 575.24,-641.74 588.95,-627.99"/>
<polygon fill="black" stroke="black" points="590.22,-629.19 592.52,-624.41 587.75,-626.72 590.22,-629.19"/>
<text text-anchor="middle" x="577.52" y="-649.29" font-family="Times,serif" font-size="14.00">π₁</text>
</g>
<!-- n3 -->
<g id="node3" class="node">
<title>n3</title>
<ellipse fill="none" stroke="black" cx="403.02" cy="-1309.18" rx="25.41" ry="10.71"/>
<text text-anchor="middle" x="403.02" y="-1305.48" font-family="Times,serif" font-size="14.00">n:ΩC</text>
</g>
<!-- n33 -->
<g id="node33" class="node">
<title>n33</title>
<polygon fill="none" stroke="black" points="109.52,-1235.43 54.52,-1235.43 54.52,-1220.43 109.52,-1220.43 109.52,-1235.43"/>
<text text-anchor="middle" x="82.02" y="-1224.23" font-family="Times,serif" font-size="14.00">ΩC×ΩL</text>
</g>
<!-- n3&#45;&gt;n33 -->
<g id="edge17" class="edge">
<title>n3&#45;&gt;n33</title>
<path fill="none" stroke="black" stroke-dasharray="5,2" d="M381.96,-1302.98C326.91,-1289.39 178.48,-1252.74 113.36,-1236.67"/>
<polygon fill="black" stroke="black" points="113.72,-1234.95 108.45,-1235.45 112.88,-1238.35 113.72,-1234.95"/>
<text text-anchor="middle" x="298.52" y="-1266.27" font-family="Times,serif" font-size="14.00">π₁</text>
</g>
<!-- n41 -->
<g id="node41" class="node">
<title>n41</title>
<polygon fill="none" stroke="black" points="480.02,-1079.13 426.02,-1079.13 426.02,-1064.13 480.02,-1064.13 480.02,-1079.13"/>
<text text-anchor="middle" x="453.02" y="-1067.93" font-family="Times,serif" font-size="14.00">Ω•×ΩC</text>
</g>
<!-- n3&#45;&gt;n41 -->
<g id="edge42" class="edge">
<title>n3&#45;&gt;n41</title>
<path fill="none" stroke="black" stroke-dasharray="5,2" d="M405.15,-1298.36C410.19,-1275 423.28,-1214.26 434.02,-1163.49 440.02,-1135.16 446.96,-1101.84 450.56,-1084.49"/>
<polygon fill="black" stroke="black" points="452.35,-1084.5 451.65,-1079.25 448.92,-1083.79 452.35,-1084.5"/>
<text text-anchor="middle" x="437.52" y="-1185.29" font-family="Times,serif" font-size="14.00">π₂</text>
</g>
<!-- n44 -->
<g id="node44" class="node">
<title>n44</title>
<ellipse fill="none" stroke="black" cx="544.02" cy="-1071.63" rx="13.37" ry="13.37"/>
<text text-anchor="middle" x="544.02" y="-1067.93" font-family="Times,serif" font-size="14.00">Σ1</text>
</g>
<!-- n3&#45;&gt;n44 -->
<g id="edge52" class="edge">
<title>n3&#45;&gt;n44</title>
<path fill="none" stroke="black" stroke-dasharray="5,2" d="M410.93,-1299C415.29,-1293.75 420.69,-1286.97 425.02,-1280.58 471.52,-1212.07 517.66,-1124.37 535.88,-1088.75"/>
<polygon fill="black" stroke="black" points="537.45,-1089.52 538.17,-1084.27 534.34,-1087.93 537.45,-1089.52"/>
</g>
<!-- n45 -->
<g id="node45" class="node">
<title>n45</title>
<ellipse fill="none" stroke="black" cx="339.02" cy="-1227.93" rx="13.37" ry="13.37"/>
<text text-anchor="middle" x="339.02" y="-1224.23" font-family="Times,serif" font-size="14.00">Σ2</text>
</g>
<!-- n3&#45;&gt;n45 -->
<g id="edge54" class="edge">
<title>n3&#45;&gt;n45</title>
<path fill="none" stroke="black" stroke-dasharray="5,2" d="M395.43,-1298.78C384.29,-1284.99 363.44,-1259.17 350.45,-1243.08"/>
<polygon fill="black" stroke="black" points="351.51,-1241.61 347.01,-1238.82 348.79,-1243.81 351.51,-1241.61"/>
</g>
<!-- n32 -->
<g id="node32" class="node">
<title>n32</title>
</g>
<!-- n4&#45;&gt;n32 -->
<g id="edge6" class="edge">
<title>n4&#45;&gt;n32</title>
<path fill="none" stroke="black" d="M812.02,-40.97C812.02,-31.46 812.02,-17.21 812.02,-9.14"/>
<polygon fill="black" stroke="black" points="813.77,-9.06 812.02,-4.06 810.27,-9.06 813.77,-9.06"/>
</g>
<!-- n5 -->
<g id="node5" class="node">
<title>n5</title>
<ellipse fill="none" stroke="black" cx="604.02" cy="-406.46" rx="104.8" ry="10.71"/>
<text text-anchor="middle" x="604.02" y="-402.76" font-family="Times,serif" font-size="14.00">dynamics_mult_1:Ω•</text>
</g>
<!-- n38 -->
<g id="node38" class="node">
<title>n38</title>
<polygon fill="none" stroke="black" points="743.02,-344.85 691.02,-344.85 691.02,-329.85 743.02,-329.85 743.02,-344.85"/>
<text text-anchor="middle" x="717.02" y="-333.65" font-family="Times,serif" font-size="14.00">Ω•×Ω•</text>
</g>
<!-- n5&#45;&gt;n38 -->
<g id="edge32" class="edge">
<title>n5&#45;&gt;n38</title>
<path fill="none" stroke="black" stroke-dasharray="5,2" d="M620.21,-395.84C641.89,-382.97 680.07,-360.3 701.43,-347.61"/>
<polygon fill="black" stroke="black" points="702.57,-348.97 705.98,-344.91 700.79,-345.96 702.57,-348.97"/>
<text text-anchor="middle" x="680.52" y="-366.65" font-family="Times,serif" font-size="14.00">π₁</text>
</g>
<!-- n6 -->
<g id="node6" class="node">
<title>n6</title>
<ellipse fill="none" stroke="black" cx="717.02" cy="-268.25" rx="102.56" ry="10.71"/>
<text text-anchor="middle" x="717.02" y="-264.55" font-family="Times,serif" font-size="14.00">dynamics_mult_2:Ω₁</text>
</g>
<!-- n29 -->
<g id="node29" class="node">
<title>n29</title>
<ellipse fill="none" stroke="black" cx="751.02" cy="-196.03" rx="43.27" ry="10.71"/>
<text text-anchor="middle" x="751.02" y="-192.33" font-family="Times,serif" font-size="14.00">•_8_1:Ω̃₁</text>
</g>
<!-- n6&#45;&gt;n29 -->
<g id="edge14" class="edge">
<title>n6&#45;&gt;n29</title>
<path fill="none" stroke="black" d="M721.75,-257.48C727.54,-245.54 737.38,-225.2 744.04,-211.45"/>
<polygon fill="black" stroke="black" points="745.73,-211.98 746.34,-206.71 742.58,-210.45 745.73,-211.98"/>
<text text-anchor="middle" x="744.52" y="-228.44" font-family="Times,serif" font-size="14.00">⋆₁</text>
</g>
<!-- n7&#45;&gt;n36 -->
<g id="edge27" class="edge">
<title>n7&#45;&gt;n36</title>
<path fill="none" stroke="black" stroke-dasharray="5,2" d="M630.36,-868C629.47,-853.9 628.02,-827.31 628.02,-804.63 628.02,-804.63 628.02,-804.63 628.02,-688.1 628.02,-665.78 615.35,-642.29 606.76,-628.93"/>
<polygon fill="black" stroke="black" points="608.04,-627.68 603.81,-624.48 605.12,-629.62 608.04,-627.68"/>
<text text-anchor="middle" x="635.52" y="-763.83" font-family="Times,serif" font-size="14.00">π₂</text>
</g>
<!-- n8 -->
<g id="node8" class="node">
<title>n8</title>
<ellipse fill="none" stroke="black" cx="396.02" cy="-544.67" rx="82.05" ry="10.71"/>
<text text-anchor="middle" x="396.02" y="-540.97" font-family="Times,serif" font-size="14.00">dynamics_•2:Ω•</text>
</g>
<!-- n37 -->
<g id="node37" class="node">
<title>n37</title>
<polygon fill="none" stroke="black" points="623.52,-483.07 574.52,-483.07 574.52,-468.07 623.52,-468.07 623.52,-483.07"/>
<text text-anchor="middle" x="599.02" y="-471.87" font-family="Times,serif" font-size="14.00">Ω₁×Ω•</text>
</g>
<!-- n8&#45;&gt;n37 -->
<g id="edge30" class="edge">
<title>n8&#45;&gt;n37</title>
<path fill="none" stroke="black" stroke-dasharray="5,2" d="M423.4,-534.62C463.07,-521.51 535.95,-497.42 574.16,-484.79"/>
<polygon fill="black" stroke="black" points="574.89,-486.39 579.09,-483.16 573.79,-483.06 574.89,-486.39"/>
<text text-anchor="middle" x="528.52" y="-504.87" font-family="Times,serif" font-size="14.00">π₂</text>
</g>
<!-- n9 -->
<g id="node9" class="node">
<title>n9</title>
<ellipse fill="none" stroke="black" cx="396.02" cy="-616.89" rx="82.05" ry="10.71"/>
<text text-anchor="middle" x="396.02" y="-613.19" font-family="Times,serif" font-size="14.00">dynamics_•3:Ω•</text>
</g>
<!-- n9&#45;&gt;n8 -->
<g id="edge12" class="edge">
<title>n9&#45;&gt;n8</title>
<path fill="none" stroke="black" d="M396.02,-606.12C396.02,-594.28 396.02,-574.2 396.02,-560.46"/>
<polygon fill="black" stroke="black" points="397.77,-560.35 396.02,-555.35 394.27,-560.35 397.77,-560.35"/>
<text text-anchor="middle" x="414.52" y="-577.08" font-family="Times,serif" font-size="14.00">avg₀₁</text>
</g>
<!-- n10 -->
<g id="node10" class="node">
<title>n10</title>
<ellipse fill="none" stroke="black" cx="510.02" cy="-767.53" rx="82.05" ry="10.71"/>
<text text-anchor="middle" x="510.02" y="-763.83" font-family="Times,serif" font-size="14.00">dynamics_•4:Ω•</text>
</g>
<!-- n34 -->
<g id="node34" class="node">
<title>n34</title>
<polygon fill="none" stroke="black" points="422.02,-696.6 370.02,-696.6 370.02,-681.6 422.02,-681.6 422.02,-696.6"/>
<text text-anchor="middle" x="396.02" y="-685.4" font-family="Times,serif" font-size="14.00">Ω•×Ω•</text>
</g>
<!-- n10&#45;&gt;n34 -->
<g id="edge20" class="edge">
<title>n10&#45;&gt;n34</title>
<path fill="none" stroke="black" stroke-dasharray="5,2" d="M495.59,-756.85C473.66,-742.15 432.21,-714.36 410.35,-699.7"/>
<polygon fill="black" stroke="black" points="411.13,-698.12 406,-696.79 409.18,-701.02 411.13,-698.12"/>
<text text-anchor="middle" x="473.52" y="-724.61" font-family="Times,serif" font-size="14.00">π₁</text>
</g>
<!-- n11 -->
<g id="node11" class="node">
<title>n11</title>
<ellipse fill="none" stroke="black" cx="517.02" cy="-839.74" rx="82.05" ry="10.71"/>
<text text-anchor="middle" x="517.02" y="-836.04" font-family="Times,serif" font-size="14.00">dynamics_•5:Ω•</text>
</g>
<!-- n11&#45;&gt;n10 -->
<g id="edge11" class="edge">
<title>n11&#45;&gt;n10</title>
<path fill="none" stroke="black" d="M516.05,-828.98C514.87,-817.13 512.87,-797.05 511.5,-783.31"/>
<polygon fill="black" stroke="black" points="513.23,-783.01 510.99,-778.21 509.74,-783.35 513.23,-783.01"/>
<text text-anchor="middle" x="529.52" y="-799.93" font-family="Times,serif" font-size="14.00">mag</text>
</g>
<!-- n12&#45;&gt;n11 -->
<g id="edge10" class="edge">
<title>n12&#45;&gt;n11</title>
<path fill="none" stroke="black" d="M518.77,-907.49C518.43,-894.46 517.82,-871.17 517.42,-855.84"/>
<polygon fill="black" stroke="black" points="519.16,-855.53 517.28,-850.58 515.66,-855.63 519.16,-855.53"/>
<text text-anchor="middle" x="521.52" y="-875.25" font-family="Times,serif" font-size="14.00">♯</text>
</g>
<!-- n13 -->
<g id="node13" class="node">
<title>n13</title>
<ellipse fill="none" stroke="black" cx="82.02" cy="-1113.67" rx="82.05" ry="10.71"/>
<text text-anchor="middle" x="82.02" y="-1109.97" font-family="Times,serif" font-size="14.00">dynamics_•7:Ω•</text>
</g>
<!-- n13&#45;&gt;n34 -->
<g id="edge21" class="edge">
<title>n13&#45;&gt;n34</title>
<path fill="none" stroke="black" stroke-dasharray="5,2" d="M89.02,-1103C98.71,-1088.62 115.02,-1060.45 115.02,-1033.7 115.02,-1033.7 115.02,-1033.7 115.02,-766.53 115.02,-715.24 291.51,-697.24 364.75,-691.98"/>
<polygon fill="black" stroke="black" points="364.98,-693.72 369.84,-691.62 364.73,-690.23 364.98,-693.72"/>
<text text-anchor="middle" x="122.52" y="-914.47" font-family="Times,serif" font-size="14.00">π₂</text>
</g>
<!-- n14 -->
<g id="node14" class="node">
<title>n14</title>
<ellipse fill="none" stroke="black" cx="55.02" cy="-1309.18" rx="24.08" ry="10.71"/>
<text text-anchor="middle" x="55.02" y="-1305.48" font-family="Times,serif" font-size="14.00">1:ΩL</text>
</g>
<!-- n14&#45;&gt;n33 -->
<g id="edge18" class="edge">
<title>n14&#45;&gt;n33</title>
<path fill="none" stroke="black" stroke-dasharray="5,2" d="M51.65,-1298.41C48.71,-1288.24 45.69,-1272.07 51.02,-1259.36 54.44,-1251.23 61.21,-1244.17 67.55,-1238.91"/>
<polygon fill="black" stroke="black" points="68.97,-1240.02 71.83,-1235.56 66.81,-1237.26 68.97,-1240.02"/>
<text text-anchor="middle" x="58.52" y="-1266.27" font-family="Times,serif" font-size="14.00">π₂</text>
</g>
<!-- n15 -->
<g id="node15" class="node">
<title>n15</title>
<ellipse fill="none" stroke="black" cx="738.02" cy="-728.31" rx="82.05" ry="10.71"/>
<text text-anchor="middle" x="738.02" y="-724.61" font-family="Times,serif" font-size="14.00">dynamics_•8:Ω•</text>
</g>
<!-- n15&#45;&gt;n38 -->
<g id="edge33" class="edge">
<title>n15&#45;&gt;n38</title>
<path fill="none" stroke="black" stroke-dasharray="5,2" d="M738.02,-717.35C738.02,-703.25 738.02,-676.65 738.02,-653.99 738.02,-653.99 738.02,-653.99 738.02,-405.46 738.02,-385.2 729.2,-363 722.99,-349.9"/>
<polygon fill="black" stroke="black" points="724.45,-348.91 720.68,-345.18 721.31,-350.44 724.45,-348.91"/>
<text text-anchor="middle" x="745.52" y="-540.97" font-family="Times,serif" font-size="14.00">π₂</text>
</g>
<!-- n16 -->
<g id="node16" class="node">
<title>n16</title>
<ellipse fill="none" stroke="black" cx="738.02" cy="-839.74" rx="82.05" ry="10.71"/>
<text text-anchor="middle" x="738.02" y="-836.04" font-family="Times,serif" font-size="14.00">dynamics_•9:Ω•</text>
</g>
<!-- n16&#45;&gt;n15 -->
<g id="edge13" class="edge">
<title>n16&#45;&gt;n15</title>
<path fill="none" stroke="black" d="M738.02,-829.03C738.02,-809.85 738.02,-767.01 738.02,-744.23"/>
<polygon fill="black" stroke="black" points="739.77,-744.16 738.02,-739.16 736.27,-744.16 739.77,-744.16"/>
<text text-anchor="middle" x="756.52" y="-799.93" font-family="Times,serif" font-size="14.00">avg₀₁</text>
</g>
<!-- n17 -->
<g id="node17" class="node">
<title>n17</title>
<ellipse fill="none" stroke="black" cx="691.02" cy="-1152.89" rx="24.08" ry="10.71"/>
<text text-anchor="middle" x="691.02" y="-1149.19" font-family="Times,serif" font-size="14.00">2:ΩL</text>
</g>
<!-- n17&#45;&gt;n44 -->
<g id="edge53" class="edge">
<title>n17&#45;&gt;n44</title>
<path fill="none" stroke="black" stroke-dasharray="5,2" d="M676.93,-1144.29C649.62,-1129.57 589.63,-1097.22 560.52,-1081.53"/>
<polygon fill="black" stroke="black" points="561.02,-1079.81 555.79,-1078.98 559.36,-1082.89 561.02,-1079.81"/>
</g>
<!-- n18 -->
<g id="node18" class="node">
<title>n18</title>
<ellipse fill="none" stroke="black" cx="544.02" cy="-996.59" rx="102.56" ry="10.71"/>
<text text-anchor="middle" x="544.02" y="-992.89" font-family="Times,serif" font-size="14.00">dynamics_sum_1:Ω•</text>
</g>
<!-- n18&#45;&gt;n35 -->
<g id="edge24" class="edge">
<title>n18&#45;&gt;n35</title>
<path fill="none" stroke="black" stroke-dasharray="5,2" d="M592.05,-987.22C612.52,-982.8 636.39,-976.49 657.02,-967.98 682.34,-957.55 709.04,-940 724.58,-929.02"/>
<polygon fill="black" stroke="black" points="725.98,-930.18 729.03,-925.85 723.95,-927.33 725.98,-930.18"/>
<text text-anchor="middle" x="702.52" y="-953.68" font-family="Times,serif" font-size="14.00">π₂</text>
</g>
<!-- n19 -->
<g id="node19" class="node">
<title>n19</title>
<ellipse fill="none" stroke="black" cx="599.02" cy="-544.67" rx="102.56" ry="10.71"/>
<text text-anchor="middle" x="599.02" y="-540.97" font-family="Times,serif" font-size="14.00">dynamics_mult_3:Ω₁</text>
</g>
<!-- n19&#45;&gt;n37 -->
<g id="edge29" class="edge">
<title>n19&#45;&gt;n37</title>
<path fill="none" stroke="black" stroke-dasharray="5,2" d="M599.02,-534.06C599.02,-522.01 599.02,-501.36 599.02,-488.37"/>
<polygon fill="black" stroke="black" points="600.77,-488.31 599.02,-483.31 597.27,-488.31 600.77,-488.31"/>
<text text-anchor="middle" x="606.52" y="-504.87" font-family="Times,serif" font-size="14.00">π₁</text>
</g>
<!-- n20 -->
<g id="node20" class="node">
<title>n20</title>
<ellipse fill="none" stroke="black" cx="137.02" cy="-1269.97" rx="61.54" ry="10.71"/>
<text text-anchor="middle" x="137.02" y="-1266.27" font-family="Times,serif" font-size="14.00">stress_A:ΩC</text>
</g>
<!-- n42 -->
<g id="node42" class="node">
<title>n42</title>
<polygon fill="none" stroke="black" points="307.02,-925.67 253.02,-925.67 253.02,-910.67 307.02,-910.67 307.02,-925.67"/>
<text text-anchor="middle" x="280.02" y="-914.47" font-family="Times,serif" font-size="14.00">Ω•×ΩC</text>
</g>
<!-- n20&#45;&gt;n42 -->
<g id="edge45" class="edge">
<title>n20&#45;&gt;n42</title>
<path fill="none" stroke="black" stroke-dasharray="5,2" d="M148.12,-1259.49C162.85,-1245.78 187.02,-1218.88 187.02,-1189.99 187.02,-1189.99 187.02,-1189.99 187.02,-995.59 187.02,-960.57 226.87,-938.65 254.4,-927.69"/>
<polygon fill="black" stroke="black" points="255.35,-929.2 259.38,-925.77 254.09,-925.93 255.35,-929.2"/>
<text text-anchor="middle" x="194.52" y="-1109.97" font-family="Times,serif" font-size="14.00">π₂</text>
</g>
<!-- n21 -->
<g id="node21" class="node">
<title>n21</title>
<ellipse fill="none" stroke="black" cx="646.02" cy="-1309.18" rx="60.21" ry="10.71"/>
<text text-anchor="middle" x="646.02" y="-1305.48" font-family="Times,serif" font-size="14.00">stress_ρ:ΩC</text>
</g>
<!-- n40 -->
<g id="node40" class="node">
<title>n40</title>
<polygon fill="none" stroke="black" points="612.02,-1235.43 556.02,-1235.43 556.02,-1220.43 612.02,-1220.43 612.02,-1235.43"/>
<text text-anchor="middle" x="584.02" y="-1224.23" font-family="Times,serif" font-size="14.00">ΩC×ΩC</text>
</g>
<!-- n21&#45;&gt;n40 -->
<g id="edge38" class="edge">
<title>n21&#45;&gt;n40</title>
<path fill="none" stroke="black" stroke-dasharray="5,2" d="M638.42,-1298.47C626.72,-1283.5 604.37,-1254.94 592.28,-1239.49"/>
<polygon fill="black" stroke="black" points="593.62,-1238.36 589.16,-1235.5 590.87,-1240.52 593.62,-1238.36"/>
<text text-anchor="middle" x="631.52" y="-1266.27" font-family="Times,serif" font-size="14.00">π₁</text>
</g>
<!-- n22 -->
<g id="node22" class="node">
<title>n22</title>
<ellipse fill="none" stroke="black" cx="507.02" cy="-1309.18" rx="60.62" ry="10.71"/>
<text text-anchor="middle" x="507.02" y="-1305.48" font-family="Times,serif" font-size="14.00">stress_g:ΩC</text>
</g>
<!-- n22&#45;&gt;n40 -->
<g id="edge39" class="edge">
<title>n22&#45;&gt;n40</title>
<path fill="none" stroke="black" stroke-dasharray="5,2" d="M516.47,-1298.47C531.13,-1283.38 559.23,-1254.45 574.15,-1239.1"/>
<polygon fill="black" stroke="black" points="575.41,-1240.31 577.64,-1235.5 572.9,-1237.87 575.41,-1240.31"/>
<text text-anchor="middle" x="559.52" y="-1266.27" font-family="Times,serif" font-size="14.00">π₂</text>
</g>
<!-- n23 -->
<g id="node23" class="node">
<title>n23</title>
<ellipse fill="none" stroke="black" cx="280.02" cy="-996.59" rx="65.11" ry="10.71"/>
<text text-anchor="middle" x="280.02" y="-992.89" font-family="Times,serif" font-size="14.00">stress_•1:Ω•</text>
</g>
<!-- n23&#45;&gt;n42 -->
<g id="edge44" class="edge">
<title>n23&#45;&gt;n42</title>
<path fill="none" stroke="black" stroke-dasharray="5,2" d="M280.02,-985.91C280.02,-971.89 280.02,-945.95 280.02,-930.87"/>
<polygon fill="black" stroke="black" points="281.77,-930.85 280.02,-925.85 278.27,-930.85 281.77,-930.85"/>
<text text-anchor="middle" x="287.52" y="-953.68" font-family="Times,serif" font-size="14.00">π₁</text>
</g>
<!-- n24 -->
<g id="node24" class="node">
<title>n24</title>
<ellipse fill="none" stroke="black" cx="290.02" cy="-1309.18" rx="24.08" ry="10.71"/>
<text text-anchor="middle" x="290.02" y="-1305.48" font-family="Times,serif" font-size="14.00">2:ΩL</text>
</g>
<!-- n39 -->
<g id="node39" class="node">
<title>n39</title>
<polygon fill="none" stroke="black" points="306.02,-1079.13 254.02,-1079.13 254.02,-1064.13 306.02,-1064.13 306.02,-1079.13"/>
<text text-anchor="middle" x="280.02" y="-1067.93" font-family="Times,serif" font-size="14.00">ΩL×Ω•</text>
</g>
<!-- n24&#45;&gt;n39 -->
<g id="edge35" class="edge">
<title>n24&#45;&gt;n39</title>
<path fill="none" stroke="black" stroke-dasharray="5,2" d="M284.01,-1298.88C268.5,-1273.77 229.41,-1202.4 244.02,-1142.28 249.41,-1120.14 263.15,-1097.16 272.01,-1083.92"/>
<polygon fill="black" stroke="black" points="273.66,-1084.62 275.03,-1079.5 270.77,-1082.64 273.66,-1084.62"/>
<text text-anchor="middle" x="250.52" y="-1185.29" font-family="Times,serif" font-size="14.00">π₁</text>
</g>
<!-- n24&#45;&gt;n45 -->
<g id="edge55" class="edge">
<title>n24&#45;&gt;n45</title>
<path fill="none" stroke="black" stroke-dasharray="5,2" d="M295.84,-1298.78C304.18,-1285.29 319.64,-1260.29 329.62,-1244.14"/>
<polygon fill="black" stroke="black" points="331.14,-1245.01 332.28,-1239.84 328.16,-1243.17 331.14,-1245.01"/>
</g>
<!-- n25 -->
<g id="node25" class="node">
<title>n25</title>
<ellipse fill="none" stroke="black" cx="339.02" cy="-1152.89" rx="85.62" ry="10.71"/>
<text text-anchor="middle" x="339.02" y="-1149.19" font-family="Times,serif" font-size="14.00">stress_sum_1:Ω•</text>
</g>
<!-- n25&#45;&gt;n39 -->
<g id="edge36" class="edge">
<title>n25&#45;&gt;n39</title>
<path fill="none" stroke="black" stroke-dasharray="5,2" d="M331.79,-1142.17C320.75,-1127.34 299.75,-1099.13 288.18,-1083.59"/>
<polygon fill="black" stroke="black" points="289.3,-1082.17 284.92,-1079.2 286.5,-1084.26 289.3,-1082.17"/>
<text text-anchor="middle" x="326.52" y="-1109.97" font-family="Times,serif" font-size="14.00">π₂</text>
</g>
<!-- n26 -->
<g id="node26" class="node">
<title>n26</title>
<ellipse fill="none" stroke="black" cx="408.02" cy="-957.38" rx="65.11" ry="10.71"/>
<text text-anchor="middle" x="408.02" y="-953.68" font-family="Times,serif" font-size="14.00">stress_•2:Ω•</text>
</g>
<!-- n43 -->
<g id="node43" class="node">
<title>n43</title>
<polygon fill="none" stroke="black" points="410.02,-775.03 358.02,-775.03 358.02,-760.03 410.02,-760.03 410.02,-775.03"/>
<text text-anchor="middle" x="384.02" y="-763.83" font-family="Times,serif" font-size="14.00">Ω•×Ω•</text>
</g>
<!-- n26&#45;&gt;n43 -->
<g id="edge48" class="edge">
<title>n26&#45;&gt;n43</title>
<path fill="none" stroke="black" stroke-dasharray="5,2" d="M406.77,-946.54C402.72,-914.86 390.02,-815.49 385.58,-780.7"/>
<polygon fill="black" stroke="black" points="387.26,-780.08 384.89,-775.34 383.79,-780.52 387.26,-780.08"/>
<text text-anchor="middle" x="406.52" y="-875.25" font-family="Times,serif" font-size="14.00">π₂</text>
</g>
<!-- n27 -->
<g id="node27" class="node">
<title>n27</title>
<ellipse fill="none" stroke="black" cx="584.02" cy="-1152.89" rx="65.11" ry="10.71"/>
<text text-anchor="middle" x="584.02" y="-1149.19" font-family="Times,serif" font-size="14.00">stress_•3:Ω•</text>
</g>
<!-- n27&#45;&gt;n41 -->
<g id="edge41" class="edge">
<title>n27&#45;&gt;n41</title>
<path fill="none" stroke="black" stroke-dasharray="5,2" d="M568.48,-1142.49C543.22,-1127.2 493.53,-1097.14 468.38,-1081.93"/>
<polygon fill="black" stroke="black" points="469.17,-1080.36 463.99,-1079.26 467.36,-1083.35 469.17,-1080.36"/>
<text text-anchor="middle" x="544.52" y="-1109.97" font-family="Times,serif" font-size="14.00">π₁</text>
</g>
<!-- n28 -->
<g id="node28" class="node">
<title>n28</title>
<ellipse fill="none" stroke="black" cx="288.02" cy="-839.74" rx="87.86" ry="10.71"/>
<text text-anchor="middle" x="288.02" y="-836.04" font-family="Times,serif" font-size="14.00">stress_mult_1:Ω•</text>
</g>
<!-- n28&#45;&gt;n43 -->
<g id="edge47" class="edge">
<title>n28&#45;&gt;n43</title>
<path fill="none" stroke="black" stroke-dasharray="5,2" d="M301.37,-828.98C319.71,-815.57 352.48,-791.6 370.77,-778.22"/>
<polygon fill="black" stroke="black" points="372.08,-779.43 375.08,-775.06 370.02,-776.6 372.08,-779.43"/>
<text text-anchor="middle" x="351.52" y="-799.93" font-family="Times,serif" font-size="14.00">π₁</text>
</g>
<!-- n30 -->
<g id="node30" class="node">
<title>n30</title>
<ellipse fill="none" stroke="black" cx="773.02" cy="-123.82" rx="43.27" ry="10.71"/>
<text text-anchor="middle" x="773.02" y="-120.12" font-family="Times,serif" font-size="14.00">•_8_2:Ω̃₂</text>
</g>
<!-- n29&#45;&gt;n30 -->
<g id="edge15" class="edge">
<title>n29&#45;&gt;n30</title>
<path fill="none" stroke="black" d="M754.08,-185.27C757.79,-173.43 764.09,-153.35 768.39,-139.6"/>
<polygon fill="black" stroke="black" points="770.17,-139.79 769.99,-134.5 766.83,-138.75 770.17,-139.79"/>
<text text-anchor="middle" x="789.02" y="-156.23" font-family="Times,serif" font-size="14.00">dual_d₁</text>
</g>
<!-- n30&#45;&gt;n4 -->
<g id="edge16" class="edge">
<title>n30&#45;&gt;n4</title>
<path fill="none" stroke="black" d="M778.45,-113.06C785.14,-101 796.58,-80.42 804.21,-66.67"/>
<polygon fill="black" stroke="black" points="805.75,-67.51 806.65,-62.29 802.69,-65.81 805.75,-67.51"/>
<text text-anchor="middle" x="809.02" y="-84.01" font-family="Times,serif" font-size="14.00">⋆₀⁻¹</text>
</g>
<!-- n31 -->
<g id="node31" class="node">
<title>n31</title>
</g>
<!-- n31&#45;&gt;n1 -->
<g id="edge1" class="edge">
<title>n31&#45;&gt;n1</title>
<path fill="none" stroke="black" d="M509.06,-1357.83C532.13,-1358.26 743.02,-1360.76 743.02,-1310.18 743.02,-1310.18 743.02,-1310.18 743.02,-1070.63 743.02,-1050.5 741.49,-1027.29 740.32,-1012.54"/>
<polygon fill="black" stroke="black" points="742.06,-1012.35 739.91,-1007.51 738.57,-1012.63 742.06,-1012.35"/>
</g>
<!-- n31&#45;&gt;n3 -->
<g id="edge2" class="edge">
<title>n31&#45;&gt;n3</title>
<path fill="none" stroke="black" d="M504.85,-1356.8C494.64,-1352.12 450.76,-1332.03 424.04,-1319.81"/>
<polygon fill="black" stroke="black" points="424.54,-1318.11 419.27,-1317.62 423.09,-1321.29 424.54,-1318.11"/>
</g>
<!-- n31&#45;&gt;n20 -->
<g id="edge3" class="edge">
<title>n31&#45;&gt;n20</title>
<path fill="none" stroke="black" d="M504.98,-1357.67C487.27,-1356.53 357.76,-1347.52 257.02,-1319.79 222.26,-1310.22 183.98,-1293.49 160.22,-1282.32"/>
<polygon fill="black" stroke="black" points="160.93,-1280.73 155.66,-1280.17 159.43,-1283.89 160.93,-1280.73"/>
</g>
<!-- n31&#45;&gt;n21 -->
<g id="edge4" class="edge">
<title>n31&#45;&gt;n21</title>
<path fill="none" stroke="black" d="M509.44,-1356.96C521.89,-1352.7 579.73,-1332.89 616.03,-1320.46"/>
<polygon fill="black" stroke="black" points="616.62,-1322.1 620.79,-1318.83 615.49,-1318.79 616.62,-1322.1"/>
</g>
<!-- n31&#45;&gt;n22 -->
<g id="edge5" class="edge">
<title>n31&#45;&gt;n22</title>
<path fill="none" stroke="black" d="M507.02,-1356.61C507.02,-1352.29 507.02,-1336.94 507.02,-1325.05"/>
<polygon fill="black" stroke="black" points="508.77,-1324.89 507.02,-1319.89 505.27,-1324.89 508.77,-1324.89"/>
</g>
<!-- n33&#45;&gt;n13 -->
<g id="edge19" class="edge">
<title>n33&#45;&gt;n13</title>
<path fill="none" stroke="black" d="M82.02,-1220.24C82.02,-1202.6 82.02,-1154.47 82.02,-1129.75"/>
<polygon fill="black" stroke="black" points="83.77,-1129.57 82.02,-1124.57 80.27,-1129.57 83.77,-1129.57"/>
<text text-anchor="middle" x="84.52" y="-1185.29" font-family="Times,serif" font-size="14.00">&#45;</text>
</g>
<!-- n34&#45;&gt;n9 -->
<g id="edge22" class="edge">
<title>n34&#45;&gt;n9</title>
<path fill="none" stroke="black" d="M396.02,-681.37C396.02,-670.24 396.02,-647.75 396.02,-632.75"/>
<polygon fill="black" stroke="black" points="397.77,-632.6 396.02,-627.6 394.27,-632.6 397.77,-632.6"/>
<text text-anchor="middle" x="402.52" y="-649.29" font-family="Times,serif" font-size="14.00">^</text>
</g>
<!-- n35&#45;&gt;n16 -->
<g id="edge25" class="edge">
<title>n35&#45;&gt;n16</title>
<path fill="none" stroke="black" d="M738.02,-910.65C738.02,-898.58 738.02,-872.48 738.02,-855.81"/>
<polygon fill="black" stroke="black" points="739.77,-855.55 738.02,-850.55 736.27,-855.55 739.77,-855.55"/>
<text text-anchor="middle" x="744.52" y="-875.25" font-family="Times,serif" font-size="14.00">^</text>
</g>
<!-- n36&#45;&gt;n19 -->
<g id="edge28" class="edge">
<title>n36&#45;&gt;n19</title>
<path fill="none" stroke="black" d="M599.02,-609.15C599.02,-598.03 599.02,-575.54 599.02,-560.54"/>
<polygon fill="black" stroke="black" points="600.77,-560.39 599.02,-555.39 597.27,-560.39 600.77,-560.39"/>
<text text-anchor="middle" x="602.52" y="-577.08" font-family="Times,serif" font-size="14.00">*</text>
</g>
<!-- n37&#45;&gt;n5 -->
<g id="edge31" class="edge">
<title>n37&#45;&gt;n5</title>
<path fill="none" stroke="black" d="M599.52,-467.89C600.31,-457.35 601.85,-436.61 602.91,-422.4"/>
<polygon fill="black" stroke="black" points="604.68,-422.24 603.3,-417.12 601.19,-421.97 604.68,-422.24"/>
<text text-anchor="middle" x="604.52" y="-438.87" font-family="Times,serif" font-size="14.00">*</text>
</g>
<!-- n38&#45;&gt;n6 -->
<g id="edge34" class="edge">
<title>n38&#45;&gt;n6</title>
<path fill="none" stroke="black" d="M717.02,-329.67C717.02,-319.14 717.02,-298.4 717.02,-284.18"/>
<polygon fill="black" stroke="black" points="718.77,-283.91 717.02,-278.91 715.27,-283.91 718.77,-283.91"/>
<text text-anchor="middle" x="720.52" y="-300.65" font-family="Times,serif" font-size="14.00">*</text>
</g>
<!-- n39&#45;&gt;n23 -->
<g id="edge37" class="edge">
<title>n39&#45;&gt;n23</title>
<path fill="none" stroke="black" d="M280.02,-1063.89C280.02,-1052.32 280.02,-1028.39 280.02,-1012.67"/>
<polygon fill="black" stroke="black" points="281.77,-1012.29 280.02,-1007.29 278.27,-1012.29 281.77,-1012.29"/>
<text text-anchor="middle" x="282.52" y="-1029" font-family="Times,serif" font-size="14.00">/</text>
</g>
<!-- n40&#45;&gt;n27 -->
<g id="edge40" class="edge">
<title>n40&#45;&gt;n27</title>
<path fill="none" stroke="black" d="M584.02,-1220.19C584.02,-1208.61 584.02,-1184.69 584.02,-1168.97"/>
<polygon fill="black" stroke="black" points="585.77,-1168.59 584.02,-1163.59 582.27,-1168.59 585.77,-1168.59"/>
<text text-anchor="middle" x="587.52" y="-1185.29" font-family="Times,serif" font-size="14.00">*</text>
</g>
<!-- n41&#45;&gt;n26 -->
<g id="edge43" class="edge">
<title>n41&#45;&gt;n26</title>
<path fill="none" stroke="black" d="M450.34,-1063.95C443.24,-1046.23 423.81,-997.76 413.94,-973.15"/>
<polygon fill="black" stroke="black" points="415.48,-972.27 411.99,-968.28 412.23,-973.57 415.48,-972.27"/>
<text text-anchor="middle" x="446.52" y="-1029" font-family="Times,serif" font-size="14.00">^</text>
</g>
<!-- n42&#45;&gt;n28 -->
<g id="edge46" class="edge">
<title>n42&#45;&gt;n28</title>
<path fill="none" stroke="black" d="M280.71,-910.65C281.97,-898.58 284.7,-872.48 286.45,-855.81"/>
<polygon fill="black" stroke="black" points="288.22,-855.7 287,-850.55 284.74,-855.34 288.22,-855.7"/>
<text text-anchor="middle" x="288.52" y="-875.25" font-family="Times,serif" font-size="14.00">*</text>
</g>
<!-- n43&#45;&gt;n2 -->
<g id="edge49" class="edge">
<title>n43&#45;&gt;n2</title>
<path fill="none" stroke="black" d="M388.27,-759.73C395.24,-749.12 410.15,-728.72 428.02,-717.71 451.09,-703.5 481.54,-696.47 502.95,-693.09"/>
<polygon fill="black" stroke="black" points="503.23,-694.82 507.92,-692.34 502.71,-691.35 503.23,-694.82"/>
<text text-anchor="middle" x="431.52" y="-724.61" font-family="Times,serif" font-size="14.00">*</text>
</g>
<!-- n44&#45;&gt;n18 -->
<g id="edge50" class="edge">
<title>n44&#45;&gt;n18</title>
<path fill="none" stroke="black" d="M544.02,-1057.91C544.02,-1045.32 544.02,-1026.05 544.02,-1012.69"/>
<polygon fill="black" stroke="black" points="545.77,-1012.37 544.02,-1007.37 542.27,-1012.37 545.77,-1012.37"/>
<text text-anchor="middle" x="550.52" y="-1029" font-family="Times,serif" font-size="14.00">+</text>
</g>
<!-- n45&#45;&gt;n25 -->
<g id="edge51" class="edge">
<title>n45&#45;&gt;n25</title>
<path fill="none" stroke="black" d="M339.02,-1214.21C339.02,-1201.62 339.02,-1182.35 339.02,-1168.99"/>
<polygon fill="black" stroke="black" points="340.77,-1168.66 339.02,-1163.66 337.27,-1168.66 340.77,-1168.66"/>
<text text-anchor="middle" x="345.52" y="-1185.29" font-family="Times,serif" font-size="14.00">+</text>
</g>
</g>
</svg>
