<?xml version="1.0" encoding="UTF-8" standalone="no"?>
<!DOCTYPE svg PUBLIC "-//W3C//DTD SVG 1.1//EN"
 "http://www.w3.org/Graphics/SVG/1.1/DTD/svg11.dtd">
<!-- Generated by graphviz version 2.40.1 (0)
 -->
<!-- Title: G Pages: 1 -->
<svg width="607pt" height="1002pt"
 viewBox="0.00 0.00 606.62 1002.07" xmlns="http://www.w3.org/2000/svg" xmlns:xlink="http://www.w3.org/1999/xlink">
<g id="graph0" class="graph" transform="scale(1 1) rotate(0) translate(4 998.0681)">
<title>G</title>
<polygon fill="#ffffff" stroke="transparent" points="-4,4 -4,-998.0681 602.6188,-998.0681 602.6188,4 -4,4"/>
<!-- n1 -->
<g id="node1" class="node">
<title>n1</title>
<ellipse fill="none" stroke="#000000" cx="108.0416" cy="-942.4615" rx="22.7556" ry="10.7143"/>
<text text-anchor="middle" x="108.0416" y="-938.7615" font-family="Times,serif" font-size="14.00" fill="#000000">h:Ω₀</text>
</g>
<!-- n4 -->
<g id="node4" class="node">
<title>n4</title>
<ellipse fill="none" stroke="#000000" cx="24.0416" cy="-51.6066" rx="24.0833" ry="10.7143"/>
<text text-anchor="middle" x="24.0416" y="-47.9066" font-family="Times,serif" font-size="14.00" fill="#000000">ḣ:Ω•</text>
</g>
<!-- n1&#45;&gt;n4 -->
<g id="edge7" class="edge">
<title>n1&#45;&gt;n4</title>
<path fill="none" stroke="#000000" d="M88.7606,-936.5623C59.7018,-926.3358 8.0416,-902.3671 8.0416,-861.2067 8.0416,-861.2067 8.0416,-861.2067 8.0416,-120.7132 8.0416,-101.8481 13.7707,-80.8154 18.3725,-66.9642"/>
<polygon fill="#000000" stroke="#000000" points="20.0385,-67.5007 20.0042,-62.2034 16.7275,-66.3659 20.0385,-67.5007"/>
<text text-anchor="middle" x="14.0416" y="-474.9726" font-family="Times,serif" font-size="14.00" fill="#000000">∂ₜ</text>
</g>
<!-- n8 -->
<g id="node8" class="node">
<title>n8</title>
<ellipse fill="none" stroke="#000000" cx="53.0416" cy="-819.165" rx="30.3115" ry="10.7143"/>
<text text-anchor="middle" x="53.0416" y="-815.465" font-family="Times,serif" font-size="14.00" fill="#000000">•4:Ω•</text>
</g>
<!-- n1&#45;&gt;n8 -->
<g id="edge8" class="edge">
<title>n1&#45;&gt;n8</title>
<path fill="none" stroke="#000000" d="M101.148,-932.2938C92.6358,-919.3694 78.1677,-896.1469 69.0416,-874.6417 63.5405,-861.6786 59.2588,-846.2364 56.5147,-834.9398"/>
<polygon fill="#000000" stroke="#000000" points="58.2158,-834.5287 55.3632,-830.065 54.8096,-835.3334 58.2158,-834.5287"/>
<text text-anchor="middle" x="95.0416" y="-899.5483" font-family="Times,serif" font-size="14.00" fill="#000000">d</text>
</g>
<!-- n13 -->
<g id="node13" class="node">
<title>n13</title>
<ellipse fill="none" stroke="#000000" cx="108.0416" cy="-861.2067" rx="30.3115" ry="10.7143"/>
<text text-anchor="middle" x="108.0416" y="-857.5067" font-family="Times,serif" font-size="14.00" fill="#000000">•9:Ω•</text>
</g>
<!-- n1&#45;&gt;n13 -->
<g id="edge9" class="edge">
<title>n1&#45;&gt;n13</title>
<path fill="none" stroke="#000000" d="M108.0416,-931.8389C108.0416,-917.848 108.0416,-893.1311 108.0416,-876.9604"/>
<polygon fill="#000000" stroke="#000000" points="109.7917,-876.8319 108.0416,-871.8319 106.2917,-876.832 109.7917,-876.8319"/>
<text text-anchor="middle" x="113.0416" y="-899.5483" font-family="Times,serif" font-size="14.00" fill="#000000">d</text>
</g>
<!-- n31 -->
<g id="node31" class="node">
<title>n31</title>
<polygon fill="none" stroke="#000000" points="259.5416,-709.0254 208.5416,-709.0254 208.5416,-694.0254 259.5416,-694.0254 259.5416,-709.0254"/>
<text text-anchor="middle" x="234.0416" y="-697.8254" font-family="Times,serif" font-size="14.00" fill="#000000">Ω₀×Ω•</text>
</g>
<!-- n1&#45;&gt;n31 -->
<g id="edge19" class="edge">
<title>n1&#45;&gt;n31</title>
<path fill="none" stroke="#000000" stroke-dasharray="5,2" d="M114.1214,-931.889C121.7939,-918.5469 135.396,-894.8935 147.0416,-874.6417 163.9308,-845.2715 168.1334,-837.9176 185.0416,-808.5584 199.6915,-783.1207 206.1533,-778.1849 218.0416,-751.3452 223.493,-739.038 227.994,-724.2876 230.8185,-714.0453"/>
<polygon fill="#000000" stroke="#000000" points="232.5299,-714.4199 232.1389,-709.1369 229.15,-713.5106 232.5299,-714.4199"/>
<text text-anchor="middle" x="193.0416" y="-815.465" font-family="Times,serif" font-size="14.00" fill="#000000">π₁</text>
</g>
<!-- n2 -->
<g id="node2" class="node">
<title>n2</title>
<ellipse fill="none" stroke="#000000" cx="170.0416" cy="-301.2462" rx="23.1702" ry="10.7143"/>
<text text-anchor="middle" x="170.0416" y="-297.5462" font-family="Times,serif" font-size="14.00" fill="#000000">Γ:Ω₀</text>
</g>
<!-- n34 -->
<g id="node34" class="node">
<title>n34</title>
<polygon fill="none" stroke="#000000" points="104.5416,-128.2132 53.5416,-128.2132 53.5416,-113.2132 104.5416,-113.2132 104.5416,-128.2132"/>
<text text-anchor="middle" x="79.0416" y="-117.0132" font-family="Times,serif" font-size="14.00" fill="#000000">Ω₀×Ω•</text>
</g>
<!-- n2&#45;&gt;n34 -->
<g id="edge28" class="edge">
<title>n2&#45;&gt;n34</title>
<path fill="none" stroke="#000000" stroke-dasharray="5,2" d="M166.4954,-290.4675C157.608,-264.3223 132.6637,-196.0232 99.0416,-146.2132 95.9253,-141.5965 92.2283,-136.737 88.8657,-132.5128"/>
<polygon fill="#000000" stroke="#000000" points="90.1528,-131.3213 85.6485,-128.5331 87.4309,-133.5216 90.1528,-131.3213"/>
<text text-anchor="middle" x="153.0416" y="-222.2264" font-family="Times,serif" font-size="14.00" fill="#000000">π₁</text>
</g>
<!-- n3 -->
<g id="node3" class="node">
<title>n3</title>
<ellipse fill="none" stroke="#000000" cx="313.0416" cy="-942.4615" rx="26.3269" ry="10.7143"/>
<text text-anchor="middle" x="313.0416" y="-938.7615" font-family="Times,serif" font-size="14.00" fill="#000000">n:ΩC</text>
</g>
<!-- n29 -->
<g id="node29" class="node">
<title>n29</title>
<polygon fill="none" stroke="#000000" points="252.0416,-868.7067 194.0416,-868.7067 194.0416,-853.7067 252.0416,-853.7067 252.0416,-868.7067"/>
<text text-anchor="middle" x="223.0416" y="-857.5067" font-family="Times,serif" font-size="14.00" fill="#000000">ΩC×ΩL</text>
</g>
<!-- n3&#45;&gt;n29 -->
<g id="edge13" class="edge">
<title>n3&#45;&gt;n29</title>
<path fill="none" stroke="#000000" stroke-dasharray="5,2" d="M300.0578,-933.0425C292.8158,-927.6371 283.7324,-920.6017 276.0416,-913.8549 260.759,-900.448 244.321,-883.7206 233.8723,-872.7655"/>
<polygon fill="#000000" stroke="#000000" points="235.0178,-871.4303 230.3069,-869.0074 232.4787,-873.8392 235.0178,-871.4303"/>
<text text-anchor="middle" x="284.0416" y="-899.5483" font-family="Times,serif" font-size="14.00" fill="#000000">π₁</text>
</g>
<!-- n37 -->
<g id="node37" class="node">
<title>n37</title>
<polygon fill="none" stroke="#000000" points="377.0416,-709.0254 321.0416,-709.0254 321.0416,-694.0254 377.0416,-694.0254 377.0416,-709.0254"/>
<text text-anchor="middle" x="349.0416" y="-697.8254" font-family="Times,serif" font-size="14.00" fill="#000000">Ω•×ΩC</text>
</g>
<!-- n3&#45;&gt;n37 -->
<g id="edge38" class="edge">
<title>n3&#45;&gt;n37</title>
<path fill="none" stroke="#000000" stroke-dasharray="5,2" d="M314.635,-931.7979C320.4953,-892.5769 340.8402,-756.4148 347.1563,-714.1434"/>
<polygon fill="#000000" stroke="#000000" points="348.9114,-714.2385 347.9196,-709.0347 345.4499,-713.7212 348.9114,-714.2385"/>
<text text-anchor="middle" x="341.0416" y="-815.465" font-family="Times,serif" font-size="14.00" fill="#000000">π₂</text>
</g>
<!-- n40 -->
<g id="node40" class="node">
<title>n40</title>
<ellipse fill="none" stroke="#000000" cx="284.0416" cy="-861.2067" rx="13.3704" ry="13.3704"/>
<text text-anchor="middle" x="284.0416" y="-857.5067" font-family="Times,serif" font-size="14.00" fill="#000000">Σ1</text>
</g>
<!-- n3&#45;&gt;n40 -->
<g id="edge48" class="edge">
<title>n3&#45;&gt;n40</title>
<path fill="none" stroke="#000000" stroke-dasharray="5,2" d="M309.5041,-931.7326C306.1396,-921.6169 300.8867,-906.0499 296.0416,-892.6417 294.4088,-888.123 292.5864,-883.2629 290.8649,-878.7474"/>
<polygon fill="#000000" stroke="#000000" points="292.4745,-878.057 289.0502,-874.0152 289.2066,-879.3103 292.4745,-878.057"/>
</g>
<!-- n41 -->
<g id="node41" class="node">
<title>n41</title>
<ellipse fill="none" stroke="#000000" cx="471.0416" cy="-861.2067" rx="13.3704" ry="13.3704"/>
<text text-anchor="middle" x="471.0416" y="-857.5067" font-family="Times,serif" font-size="14.00" fill="#000000">Σ2</text>
</g>
<!-- n3&#45;&gt;n41 -->
<g id="edge50" class="edge">
<title>n3&#45;&gt;n41</title>
<path fill="none" stroke="#000000" stroke-dasharray="5,2" d="M334.3554,-936.0267C358.6868,-928.6156 395.9278,-917.0486 402.0416,-913.8549 402.7859,-913.4661 435.9707,-888.0751 456.0422,-872.701"/>
<polygon fill="#000000" stroke="#000000" points="457.2048,-874.0149 460.1098,-869.585 455.0763,-871.2364 457.2048,-874.0149"/>
</g>
<!-- n28 -->
<g id="node28" class="node">
<title>n28</title>
</g>
<!-- n4&#45;&gt;n28 -->
<g id="edge6" class="edge">
<title>n4&#45;&gt;n28</title>
<path fill="none" stroke="#000000" d="M24.0416,-40.5973C24.0416,-31.135 24.0416,-17.7454 24.0416,-9.4807"/>
<polygon fill="#000000" stroke="#000000" points="25.7917,-9.3096 24.0416,-4.3096 22.2917,-9.3096 25.7917,-9.3096"/>
</g>
<!-- n5 -->
<g id="node5" class="node">
<title>n5</title>
<ellipse fill="none" stroke="#000000" cx="284.0416" cy="-779.9518" rx="24.0833" ry="10.7143"/>
<text text-anchor="middle" x="284.0416" y="-776.2518" font-family="Times,serif" font-size="14.00" fill="#000000">1:Ω•</text>
</g>
<!-- n5&#45;&gt;n31 -->
<g id="edge20" class="edge">
<title>n5&#45;&gt;n31</title>
<path fill="none" stroke="#000000" stroke-dasharray="5,2" d="M277.505,-769.699C268.2931,-755.2499 251.5247,-728.948 241.7275,-713.5809"/>
<polygon fill="#000000" stroke="#000000" points="243.0905,-712.4634 238.9269,-709.1881 240.1392,-714.3449 243.0905,-712.4634"/>
<text text-anchor="middle" x="273.0416" y="-737.0386" font-family="Times,serif" font-size="14.00" fill="#000000">π₂</text>
</g>
<!-- n6 -->
<g id="node6" class="node">
<title>n6</title>
<ellipse fill="none" stroke="#000000" cx="79.0416" cy="-189.8198" rx="30.3115" ry="10.7143"/>
<text text-anchor="middle" x="79.0416" y="-186.1198" font-family="Times,serif" font-size="14.00" fill="#000000">•2:Ω•</text>
</g>
<!-- n6&#45;&gt;n34 -->
<g id="edge29" class="edge">
<title>n6&#45;&gt;n34</title>
<path fill="none" stroke="#000000" stroke-dasharray="5,2" d="M79.0416,-179.0219C79.0416,-166.6655 79.0416,-146.4535 79.0416,-133.3683"/>
<polygon fill="#000000" stroke="#000000" points="80.7917,-133.2403 79.0416,-128.2404 77.2917,-133.2404 80.7917,-133.2403"/>
<text text-anchor="middle" x="87.0416" y="-150.0132" font-family="Times,serif" font-size="14.00" fill="#000000">π₂</text>
</g>
<!-- n7 -->
<g id="node7" class="node">
<title>n7</title>
<ellipse fill="none" stroke="#000000" cx="79.0416" cy="-262.033" rx="30.3115" ry="10.7143"/>
<text text-anchor="middle" x="79.0416" y="-258.333" font-family="Times,serif" font-size="14.00" fill="#000000">•3:Ω•</text>
</g>
<!-- n7&#45;&gt;n6 -->
<g id="edge12" class="edge">
<title>n7&#45;&gt;n6</title>
<path fill="none" stroke="#000000" d="M79.0416,-251.3777C79.0416,-239.3246 79.0416,-219.5725 79.0416,-205.7005"/>
<polygon fill="#000000" stroke="#000000" points="80.7917,-205.5188 79.0416,-200.5188 77.2917,-205.5189 80.7917,-205.5188"/>
<text text-anchor="middle" x="98.0416" y="-222.2264" font-family="Times,serif" font-size="14.00" fill="#000000">⋆⋅d⋅⋆</text>
</g>
<!-- n33 -->
<g id="node33" class="node">
<title>n33</title>
<polygon fill="none" stroke="#000000" points="105.5416,-344.8528 52.5416,-344.8528 52.5416,-329.8528 105.5416,-329.8528 105.5416,-344.8528"/>
<text text-anchor="middle" x="79.0416" y="-333.6528" font-family="Times,serif" font-size="14.00" fill="#000000">Ω•×Ω•</text>
</g>
<!-- n8&#45;&gt;n33 -->
<g id="edge25" class="edge">
<title>n8&#45;&gt;n33</title>
<path fill="none" stroke="#000000" stroke-dasharray="5,2" d="M52.3758,-808.5144C51.492,-793.4342 50.0416,-764.9923 50.0416,-740.7386 50.0416,-740.7386 50.0416,-740.7386 50.0416,-406.4594 50.0416,-385.1372 61.9251,-362.7951 70.478,-349.4762"/>
<polygon fill="#000000" stroke="#000000" points="72.1443,-350.13 73.4501,-344.996 69.2277,-348.1951 72.1443,-350.13"/>
<text text-anchor="middle" x="58.0416" y="-586.399" font-family="Times,serif" font-size="14.00" fill="#000000">π₁</text>
</g>
<!-- n9 -->
<g id="node9" class="node">
<title>n9</title>
<ellipse fill="none" stroke="#000000" cx="117.0416" cy="-406.4594" rx="30.3115" ry="10.7143"/>
<text text-anchor="middle" x="117.0416" y="-402.7594" font-family="Times,serif" font-size="14.00" fill="#000000">•5:Ω•</text>
</g>
<!-- n9&#45;&gt;n33 -->
<g id="edge26" class="edge">
<title>n9&#45;&gt;n33</title>
<path fill="none" stroke="#000000" stroke-dasharray="5,2" d="M111.2702,-395.9636C104.3914,-383.4537 92.9199,-362.5918 85.68,-349.4253"/>
<polygon fill="#000000" stroke="#000000" points="87.1631,-348.4904 83.2204,-344.9523 84.0962,-350.1769 87.1631,-348.4904"/>
<text text-anchor="middle" x="109.0416" y="-366.6528" font-family="Times,serif" font-size="14.00" fill="#000000">π₂</text>
</g>
<!-- n10 -->
<g id="node10" class="node">
<title>n10</title>
<ellipse fill="none" stroke="#000000" cx="141.0416" cy="-550.8858" rx="30.3115" ry="10.7143"/>
<text text-anchor="middle" x="141.0416" y="-547.1858" font-family="Times,serif" font-size="14.00" fill="#000000">•6:Ω•</text>
</g>
<!-- n32 -->
<g id="node32" class="node">
<title>n32</title>
<polygon fill="none" stroke="#000000" points="167.5416,-486.1726 114.5416,-486.1726 114.5416,-471.1726 167.5416,-471.1726 167.5416,-486.1726"/>
<text text-anchor="middle" x="141.0416" y="-474.9726" font-family="Times,serif" font-size="14.00" fill="#000000">Ω•×Ω•</text>
</g>
<!-- n10&#45;&gt;n32 -->
<g id="edge22" class="edge">
<title>n10&#45;&gt;n32</title>
<path fill="none" stroke="#000000" stroke-dasharray="5,2" d="M141.0416,-540.2305C141.0416,-527.2076 141.0416,-505.197 141.0416,-491.3262"/>
<polygon fill="#000000" stroke="#000000" points="142.7917,-491.2727 141.0416,-486.2727 139.2917,-491.2727 142.7917,-491.2727"/>
<text text-anchor="middle" x="149.0416" y="-511.0792" font-family="Times,serif" font-size="14.00" fill="#000000">π₁</text>
</g>
<!-- n11 -->
<g id="node11" class="node">
<title>n11</title>
<ellipse fill="none" stroke="#000000" cx="108.0416" cy="-701.5254" rx="30.3115" ry="10.7143"/>
<text text-anchor="middle" x="108.0416" y="-697.8254" font-family="Times,serif" font-size="14.00" fill="#000000">•7:Ω•</text>
</g>
<!-- n30 -->
<g id="node30" class="node">
<title>n30</title>
<polygon fill="none" stroke="#000000" points="167.5416,-636.8122 114.5416,-636.8122 114.5416,-621.8122 167.5416,-621.8122 167.5416,-636.8122"/>
<text text-anchor="middle" x="141.0416" y="-625.6122" font-family="Times,serif" font-size="14.00" fill="#000000">Ω•×Ω•</text>
</g>
<!-- n11&#45;&gt;n30 -->
<g id="edge16" class="edge">
<title>n11&#45;&gt;n30</title>
<path fill="none" stroke="#000000" stroke-dasharray="5,2" d="M112.9109,-690.8701C118.9148,-677.732 129.0989,-655.4464 135.4266,-641.5994"/>
<polygon fill="#000000" stroke="#000000" points="137.082,-642.1874 137.5685,-636.9123 133.8986,-640.7326 137.082,-642.1874"/>
<text text-anchor="middle" x="136.0416" y="-661.7188" font-family="Times,serif" font-size="14.00" fill="#000000">π₁</text>
</g>
<!-- n12 -->
<g id="node12" class="node">
<title>n12</title>
<ellipse fill="none" stroke="#000000" cx="108.0416" cy="-779.9518" rx="30.3115" ry="10.7143"/>
<text text-anchor="middle" x="108.0416" y="-776.2518" font-family="Times,serif" font-size="14.00" fill="#000000">•8:Ω•</text>
</g>
<!-- n12&#45;&gt;n11 -->
<g id="edge11" class="edge">
<title>n12&#45;&gt;n11</title>
<path fill="none" stroke="#000000" d="M105.6974,-769.1427C104.6582,-763.8131 103.5557,-757.2722 103.0416,-751.3452 102.2269,-741.9524 102.2269,-739.5249 103.0416,-730.132 103.4031,-725.9646 104.0554,-721.4937 104.7722,-717.3538"/>
<polygon fill="#000000" stroke="#000000" points="106.5119,-717.569 105.6974,-712.3346 103.0699,-716.9344 106.5119,-717.569"/>
<text text-anchor="middle" x="118.5416" y="-737.0386" font-family="Times,serif" font-size="14.00" fill="#000000">mag</text>
</g>
<!-- n13&#45;&gt;n12 -->
<g id="edge10" class="edge">
<title>n13&#45;&gt;n12</title>
<path fill="none" stroke="#000000" d="M108.0416,-850.584C108.0416,-836.5932 108.0416,-811.8762 108.0416,-795.7056"/>
<polygon fill="#000000" stroke="#000000" points="109.7917,-795.5771 108.0416,-790.5771 106.2917,-795.5771 109.7917,-795.5771"/>
<text text-anchor="middle" x="117.5416" y="-815.465" font-family="Times,serif" font-size="14.00" fill="#000000">♯ᵖᵖ</text>
</g>
<!-- n14 -->
<g id="node14" class="node">
<title>n14</title>
<ellipse fill="none" stroke="#000000" cx="180.0416" cy="-740.7386" rx="36.5405" ry="10.7143"/>
<text text-anchor="middle" x="180.0416" y="-737.0386" font-family="Times,serif" font-size="14.00" fill="#000000">•10:Ω•</text>
</g>
<!-- n14&#45;&gt;n30 -->
<g id="edge17" class="edge">
<title>n14&#45;&gt;n30</title>
<path fill="none" stroke="#000000" stroke-dasharray="5,2" d="M176.3021,-730.0546C169.0656,-709.379 153.1796,-663.9913 145.4458,-641.8953"/>
<polygon fill="#000000" stroke="#000000" points="147.0552,-641.1961 143.7516,-637.0549 143.7517,-642.3523 147.0552,-641.1961"/>
<text text-anchor="middle" x="178.0416" y="-697.8254" font-family="Times,serif" font-size="14.00" fill="#000000">π₂</text>
</g>
<!-- n15 -->
<g id="node15" class="node">
<title>n15</title>
<ellipse fill="none" stroke="#000000" cx="174.0416" cy="-942.4615" rx="25.4118" ry="10.7143"/>
<text text-anchor="middle" x="174.0416" y="-938.7615" font-family="Times,serif" font-size="14.00" fill="#000000">1:ΩL</text>
</g>
<!-- n15&#45;&gt;n29 -->
<g id="edge14" class="edge">
<title>n15&#45;&gt;n29</title>
<path fill="none" stroke="#000000" stroke-dasharray="5,2" d="M180.2475,-932.1705C189.3027,-917.1547 206.1041,-889.2935 215.7411,-873.3128"/>
<polygon fill="#000000" stroke="#000000" points="217.4019,-873.9475 218.4854,-868.762 214.4047,-872.14 217.4019,-873.9475"/>
<text text-anchor="middle" x="211.0416" y="-899.5483" font-family="Times,serif" font-size="14.00" fill="#000000">π₂</text>
</g>
<!-- n16 -->
<g id="node16" class="node">
<title>n16</title>
<ellipse fill="none" stroke="#000000" cx="229.0416" cy="-590.099" rx="36.5405" ry="10.7143"/>
<text text-anchor="middle" x="229.0416" y="-586.399" font-family="Times,serif" font-size="14.00" fill="#000000">•11:Ω•</text>
</g>
<!-- n16&#45;&gt;n32 -->
<g id="edge23" class="edge">
<title>n16&#45;&gt;n32</title>
<path fill="none" stroke="#000000" stroke-dasharray="5,2" d="M220.6038,-579.415C204.0684,-558.4777 167.5192,-512.1987 150.3255,-490.4279"/>
<polygon fill="#000000" stroke="#000000" points="151.6288,-489.2546 147.1565,-486.4153 148.8821,-491.4238 151.6288,-489.2546"/>
<text text-anchor="middle" x="214.0416" y="-547.1858" font-family="Times,serif" font-size="14.00" fill="#000000">π₂</text>
</g>
<!-- n17 -->
<g id="node17" class="node">
<title>n17</title>
<ellipse fill="none" stroke="#000000" cx="243.0416" cy="-942.4615" rx="25.4118" ry="10.7143"/>
<text text-anchor="middle" x="243.0416" y="-938.7615" font-family="Times,serif" font-size="14.00" fill="#000000">2:ΩL</text>
</g>
<!-- n17&#45;&gt;n40 -->
<g id="edge49" class="edge">
<title>n17&#45;&gt;n40</title>
<path fill="none" stroke="#000000" stroke-dasharray="5,2" d="M244.6788,-931.6497C246.5767,-921.1992 250.3385,-905.1546 257.0416,-892.6417 260.5609,-886.0722 265.6532,-879.672 270.4692,-874.3799"/>
<polygon fill="#000000" stroke="#000000" points="271.9101,-875.4027 274.0676,-870.5645 269.3639,-873.0013 271.9101,-875.4027"/>
</g>
<!-- n18 -->
<g id="node18" class="node">
<title>n18</title>
<ellipse fill="none" stroke="#000000" cx="571.0416" cy="-903.2483" rx="27.6545" ry="10.7143"/>
<text text-anchor="middle" x="571.0416" y="-899.5483" font-family="Times,serif" font-size="14.00" fill="#000000">A:ΩC</text>
</g>
<!-- n38 -->
<g id="node38" class="node">
<title>n38</title>
<polygon fill="none" stroke="#000000" points="528.0416,-558.3858 472.0416,-558.3858 472.0416,-543.3858 528.0416,-543.3858 528.0416,-558.3858"/>
<text text-anchor="middle" x="500.0416" y="-547.1858" font-family="Times,serif" font-size="14.00" fill="#000000">Ω•×ΩC</text>
</g>
<!-- n18&#45;&gt;n38 -->
<g id="edge41" class="edge">
<title>n18&#45;&gt;n38</title>
<path fill="none" stroke="#000000" stroke-dasharray="5,2" d="M569.384,-892.6604C567.0408,-876.7492 563.0416,-845.7064 563.0416,-819.165 563.0416,-819.165 563.0416,-819.165 563.0416,-629.3122 563.0416,-599.8487 535.6822,-575.1592 517.0229,-561.7468"/>
<polygon fill="#000000" stroke="#000000" points="517.5905,-560.0091 512.4884,-558.5839 515.5881,-562.8797 517.5905,-560.0091"/>
<text text-anchor="middle" x="571.0416" y="-737.0386" font-family="Times,serif" font-size="14.00" fill="#000000">π₂</text>
</g>
<!-- n19 -->
<g id="node19" class="node">
<title>n19</title>
<ellipse fill="none" stroke="#000000" cx="453.0416" cy="-942.4615" rx="26.3269" ry="10.7143"/>
<text text-anchor="middle" x="453.0416" y="-938.7615" font-family="Times,serif" font-size="14.00" fill="#000000">ρ:ΩC</text>
</g>
<!-- n36 -->
<g id="node36" class="node">
<title>n36</title>
<polygon fill="none" stroke="#000000" points="423.5416,-868.7067 364.5416,-868.7067 364.5416,-853.7067 423.5416,-853.7067 423.5416,-868.7067"/>
<text text-anchor="middle" x="394.0416" y="-857.5067" font-family="Times,serif" font-size="14.00" fill="#000000">ΩC×ΩC</text>
</g>
<!-- n19&#45;&gt;n36 -->
<g id="edge34" class="edge">
<title>n19&#45;&gt;n36</title>
<path fill="none" stroke="#000000" stroke-dasharray="5,2" d="M445.5692,-932.1705C434.5721,-917.0252 414.0863,-888.8122 402.5339,-872.9022"/>
<polygon fill="#000000" stroke="#000000" points="403.8816,-871.7797 399.5277,-868.762 401.0494,-873.8362 403.8816,-871.7797"/>
<text text-anchor="middle" x="439.0416" y="-899.5483" font-family="Times,serif" font-size="14.00" fill="#000000">π₁</text>
</g>
<!-- n20 -->
<g id="node20" class="node">
<title>n20</title>
<ellipse fill="none" stroke="#000000" cx="383.0416" cy="-942.4615" rx="26.3269" ry="10.7143"/>
<text text-anchor="middle" x="383.0416" y="-938.7615" font-family="Times,serif" font-size="14.00" fill="#000000">g:ΩC</text>
</g>
<!-- n20&#45;&gt;n36 -->
<g id="edge35" class="edge">
<title>n20&#45;&gt;n36</title>
<path fill="none" stroke="#000000" stroke-dasharray="5,2" d="M384.4797,-931.8389C386.4888,-916.9977 390.1319,-890.0872 392.2947,-874.1112"/>
<polygon fill="#000000" stroke="#000000" points="394.0302,-874.3353 392.9669,-869.1457 390.5618,-873.8657 394.0302,-874.3353"/>
<text text-anchor="middle" x="398.0416" y="-899.5483" font-family="Times,serif" font-size="14.00" fill="#000000">π₂</text>
</g>
<!-- n21 -->
<g id="node21" class="node">
<title>n21</title>
<ellipse fill="none" stroke="#000000" cx="500.0416" cy="-629.3122" rx="30.3115" ry="10.7143"/>
<text text-anchor="middle" x="500.0416" y="-625.6122" font-family="Times,serif" font-size="14.00" fill="#000000">•1:Ω•</text>
</g>
<!-- n21&#45;&gt;n38 -->
<g id="edge40" class="edge">
<title>n21&#45;&gt;n38</title>
<path fill="none" stroke="#000000" stroke-dasharray="5,2" d="M500.0416,-618.4074C500.0416,-604.013 500.0416,-578.7217 500.0416,-563.5136"/>
<polygon fill="#000000" stroke="#000000" points="501.7917,-563.4056 500.0416,-558.4057 498.2917,-563.4057 501.7917,-563.4056"/>
<text text-anchor="middle" x="508.0416" y="-586.399" font-family="Times,serif" font-size="14.00" fill="#000000">π₁</text>
</g>
<!-- n22 -->
<g id="node22" class="node">
<title>n22</title>
<ellipse fill="none" stroke="#000000" cx="523.0416" cy="-942.4615" rx="25.4118" ry="10.7143"/>
<text text-anchor="middle" x="523.0416" y="-938.7615" font-family="Times,serif" font-size="14.00" fill="#000000">2:ΩL</text>
</g>
<!-- n35 -->
<g id="node35" class="node">
<title>n35</title>
<polygon fill="none" stroke="#000000" points="527.5416,-709.0254 472.5416,-709.0254 472.5416,-694.0254 527.5416,-694.0254 527.5416,-709.0254"/>
<text text-anchor="middle" x="500.0416" y="-697.8254" font-family="Times,serif" font-size="14.00" fill="#000000">ΩL×Ω•</text>
</g>
<!-- n22&#45;&gt;n35 -->
<g id="edge31" class="edge">
<title>n22&#45;&gt;n35</title>
<path fill="none" stroke="#000000" stroke-dasharray="5,2" d="M523.0464,-931.765C522.8979,-900.4908 521.294,-806.5968 508.0416,-730.132 507.1362,-724.9079 505.6677,-719.2659 504.2345,-714.3843"/>
<polygon fill="#000000" stroke="#000000" points="505.8583,-713.7102 502.7214,-709.4414 502.5116,-714.7347 505.8583,-713.7102"/>
<text text-anchor="middle" x="527.0416" y="-815.465" font-family="Times,serif" font-size="14.00" fill="#000000">π₁</text>
</g>
<!-- n22&#45;&gt;n41 -->
<g id="edge51" class="edge">
<title>n22&#45;&gt;n41</title>
<path fill="none" stroke="#000000" stroke-dasharray="5,2" d="M516.4558,-932.1705C507.5628,-918.2743 491.6294,-893.377 481.1971,-877.0755"/>
<polygon fill="#000000" stroke="#000000" points="482.5801,-875.99 478.4109,-872.7219 479.6321,-877.8766 482.5801,-875.99"/>
</g>
<!-- n23 -->
<g id="node23" class="node">
<title>n23</title>
<ellipse fill="none" stroke="#000000" cx="471.0416" cy="-779.9518" rx="24.0833" ry="10.7143"/>
<text text-anchor="middle" x="471.0416" y="-776.2518" font-family="Times,serif" font-size="14.00" fill="#000000">1:Ω•</text>
</g>
<!-- n23&#45;&gt;n35 -->
<g id="edge32" class="edge">
<title>n23&#45;&gt;n35</title>
<path fill="none" stroke="#000000" stroke-dasharray="5,2" d="M474.9527,-769.3749C480.2866,-754.9502 489.8237,-729.1584 495.4777,-713.8679"/>
<polygon fill="#000000" stroke="#000000" points="497.1418,-714.4132 497.2346,-709.1165 493.8591,-713.1992 497.1418,-714.4132"/>
<text text-anchor="middle" x="496.0416" y="-737.0386" font-family="Times,serif" font-size="14.00" fill="#000000">π₂</text>
</g>
<!-- n24 -->
<g id="node24" class="node">
<title>n24</title>
<ellipse fill="none" stroke="#000000" cx="349.0416" cy="-590.099" rx="30.3115" ry="10.7143"/>
<text text-anchor="middle" x="349.0416" y="-586.399" font-family="Times,serif" font-size="14.00" fill="#000000">•2:Ω•</text>
</g>
<!-- n39 -->
<g id="node39" class="node">
<title>n39</title>
<polygon fill="none" stroke="#000000" points="375.5416,-413.9594 322.5416,-413.9594 322.5416,-398.9594 375.5416,-398.9594 375.5416,-413.9594"/>
<text text-anchor="middle" x="349.0416" y="-402.7594" font-family="Times,serif" font-size="14.00" fill="#000000">Ω•×Ω•</text>
</g>
<!-- n24&#45;&gt;n39 -->
<g id="edge44" class="edge">
<title>n24&#45;&gt;n39</title>
<path fill="none" stroke="#000000" stroke-dasharray="5,2" d="M349.0416,-579.432C349.0416,-547.7371 349.0416,-454.1854 349.0416,-419.5498"/>
<polygon fill="#000000" stroke="#000000" points="350.7917,-419.1536 349.0416,-414.1536 347.2917,-419.1536 350.7917,-419.1536"/>
<text text-anchor="middle" x="357.0416" y="-511.0792" font-family="Times,serif" font-size="14.00" fill="#000000">π₂</text>
</g>
<!-- n25 -->
<g id="node25" class="node">
<title>n25</title>
<ellipse fill="none" stroke="#000000" cx="394.0416" cy="-779.9518" rx="30.3115" ry="10.7143"/>
<text text-anchor="middle" x="394.0416" y="-776.2518" font-family="Times,serif" font-size="14.00" fill="#000000">•3:Ω•</text>
</g>
<!-- n25&#45;&gt;n37 -->
<g id="edge37" class="edge">
<title>n25&#45;&gt;n37</title>
<path fill="none" stroke="#000000" stroke-dasharray="5,2" d="M387.9727,-769.3749C379.6241,-754.8248 364.6392,-728.709 355.896,-713.4714"/>
<polygon fill="#000000" stroke="#000000" points="357.4036,-712.5824 353.3973,-709.1165 354.3679,-714.3243 357.4036,-712.5824"/>
<text text-anchor="middle" x="385.0416" y="-737.0386" font-family="Times,serif" font-size="14.00" fill="#000000">π₁</text>
</g>
<!-- n26 -->
<g id="node26" class="node">
<title>n26</title>
<ellipse fill="none" stroke="#000000" cx="459.0416" cy="-478.6726" rx="24.0833" ry="10.7143"/>
<text text-anchor="middle" x="459.0416" y="-474.9726" font-family="Times,serif" font-size="14.00" fill="#000000">1:Ω•</text>
</g>
<!-- n26&#45;&gt;n39 -->
<g id="edge43" class="edge">
<title>n26&#45;&gt;n39</title>
<path fill="none" stroke="#000000" stroke-dasharray="5,2" d="M445.5535,-469.8179C425.2008,-456.4566 386.7163,-431.1922 364.9988,-416.935"/>
<polygon fill="#000000" stroke="#000000" points="365.7718,-415.3491 360.6316,-414.068 363.851,-418.275 365.7718,-415.3491"/>
<text text-anchor="middle" x="422.0416" y="-438.866" font-family="Times,serif" font-size="14.00" fill="#000000">π₁</text>
</g>
<!-- n27 -->
<g id="node27" class="node">
<title>n27</title>
</g>
<!-- n27&#45;&gt;n1 -->
<g id="edge1" class="edge">
<title>n27&#45;&gt;n1</title>
<path fill="none" stroke="#000000" d="M380.6175,-991.8294C361.8617,-989.9514 237.9977,-976.9979 140.0416,-953.0681 137.1988,-952.3736 134.2458,-951.5458 131.334,-950.6633"/>
<polygon fill="#000000" stroke="#000000" points="131.4651,-948.8695 126.1702,-949.0325 130.411,-952.2071 131.4651,-948.8695"/>
</g>
<!-- n27&#45;&gt;n3 -->
<g id="edge2" class="edge">
<title>n27&#45;&gt;n3</title>
<path fill="none" stroke="#000000" d="M381.0222,-990.637C373.7067,-985.4528 348.0986,-967.3052 330.4891,-954.8259"/>
<polygon fill="#000000" stroke="#000000" points="331.2917,-953.2499 326.2004,-951.7867 329.268,-956.1055 331.2917,-953.2499"/>
</g>
<!-- n27&#45;&gt;n18 -->
<g id="edge3" class="edge">
<title>n27&#45;&gt;n18</title>
<path fill="none" stroke="#000000" d="M385.1048,-991.8927C402.8903,-990.3406 530.3051,-978.4124 557.0416,-953.0681 566.2313,-944.357 569.5457,-930.1376 570.6687,-919.1151"/>
<polygon fill="#000000" stroke="#000000" points="572.4235,-919.118 571.0601,-913.999 568.9337,-918.8509 572.4235,-919.118"/>
</g>
<!-- n27&#45;&gt;n19 -->
<g id="edge4" class="edge">
<title>n27&#45;&gt;n19</title>
<path fill="none" stroke="#000000" d="M385.0611,-990.637C392.3766,-985.4528 417.9846,-967.3052 435.5942,-954.8259"/>
<polygon fill="#000000" stroke="#000000" points="436.8152,-956.1055 439.8829,-951.7867 434.7915,-953.2499 436.8152,-956.1055"/>
</g>
<!-- n27&#45;&gt;n20 -->
<g id="edge5" class="edge">
<title>n27&#45;&gt;n20</title>
<path fill="none" stroke="#000000" d="M383.0416,-989.9366C383.0416,-984.533 383.0416,-969.9042 383.0416,-958.3001"/>
<polygon fill="#000000" stroke="#000000" points="384.7917,-958.2254 383.0416,-953.2254 381.2917,-958.2254 384.7917,-958.2254"/>
</g>
<!-- n29&#45;&gt;n14 -->
<g id="edge15" class="edge">
<title>n29&#45;&gt;n14</title>
<path fill="none" stroke="#000000" d="M220.3518,-853.6709C213.457,-834.3544 195.0379,-782.752 185.6745,-756.5196"/>
<polygon fill="#000000" stroke="#000000" points="187.2577,-755.7492 183.9287,-751.6285 183.9614,-756.9258 187.2577,-755.7492"/>
<text text-anchor="middle" x="214.5416" y="-815.465" font-family="Times,serif" font-size="14.00" fill="#000000">&#45;</text>
</g>
<!-- n30&#45;&gt;n10 -->
<g id="edge18" class="edge">
<title>n30&#45;&gt;n10</title>
<path fill="none" stroke="#000000" d="M141.0416,-621.7924C141.0416,-609.2544 141.0416,-583.8048 141.0416,-567.053"/>
<polygon fill="#000000" stroke="#000000" points="142.7917,-566.7366 141.0416,-561.7366 139.2917,-566.7366 142.7917,-566.7366"/>
<text text-anchor="middle" x="147.5416" y="-586.399" font-family="Times,serif" font-size="14.00" fill="#000000">^</text>
</g>
<!-- n31&#45;&gt;n16 -->
<g id="edge21" class="edge">
<title>n31&#45;&gt;n16</title>
<path fill="none" stroke="#000000" d="M233.698,-693.8666C232.8898,-675.8563 230.8547,-630.5045 229.7619,-606.151"/>
<polygon fill="#000000" stroke="#000000" points="231.5036,-605.9231 229.5311,-601.0066 228.0071,-606.0801 231.5036,-605.9231"/>
<text text-anchor="middle" x="239.5416" y="-661.7188" font-family="Times,serif" font-size="14.00" fill="#000000">^</text>
</g>
<!-- n32&#45;&gt;n9 -->
<g id="edge24" class="edge">
<title>n32&#45;&gt;n9</title>
<path fill="none" stroke="#000000" d="M138.4732,-470.9445C134.6055,-459.3071 127.2065,-437.0444 122.1976,-421.973"/>
<polygon fill="#000000" stroke="#000000" points="123.8367,-421.3562 120.5991,-417.1633 120.5154,-422.4601 123.8367,-421.3562"/>
<text text-anchor="middle" x="143.5416" y="-438.866" font-family="Times,serif" font-size="14.00" fill="#000000">∧₀₀</text>
</g>
<!-- n33&#45;&gt;n7 -->
<g id="edge27" class="edge">
<title>n33&#45;&gt;n7</title>
<path fill="none" stroke="#000000" d="M79.0416,-329.576C79.0416,-317.4192 79.0416,-293.6678 79.0416,-277.822"/>
<polygon fill="#000000" stroke="#000000" points="80.7917,-277.7794 79.0416,-272.7795 77.2917,-277.7795 80.7917,-277.7794"/>
<text text-anchor="middle" x="90.5416" y="-297.5462" font-family="Times,serif" font-size="14.00" fill="#000000">∧₁₀</text>
</g>
<!-- n34&#45;&gt;n4 -->
<g id="edge30" class="edge">
<title>n34&#45;&gt;n4</title>
<path fill="none" stroke="#000000" d="M72.9455,-113.0535C63.9222,-101.7158 46.8527,-80.2684 35.4602,-65.9538"/>
<polygon fill="#000000" stroke="#000000" points="36.6049,-64.5819 32.122,-61.7594 33.8664,-66.7614 36.6049,-64.5819"/>
<text text-anchor="middle" x="63.0416" y="-84.0132" font-family="Times,serif" font-size="14.00" fill="#000000">*</text>
</g>
<!-- n35&#45;&gt;n21 -->
<g id="edge33" class="edge">
<title>n35&#45;&gt;n21</title>
<path fill="none" stroke="#000000" d="M500.0416,-693.7974C500.0416,-682.2611 500.0416,-660.2836 500.0416,-645.2206"/>
<polygon fill="#000000" stroke="#000000" points="501.7917,-645.0161 500.0416,-640.0161 498.2917,-645.0161 501.7917,-645.0161"/>
<text text-anchor="middle" x="502.5416" y="-661.7188" font-family="Times,serif" font-size="14.00" fill="#000000">/</text>
</g>
<!-- n36&#45;&gt;n25 -->
<g id="edge36" class="edge">
<title>n36&#45;&gt;n25</title>
<path fill="none" stroke="#000000" d="M394.0416,-853.4156C394.0416,-840.1685 394.0416,-813.0097 394.0416,-795.6829"/>
<polygon fill="#000000" stroke="#000000" points="395.7917,-795.6476 394.0416,-790.6476 392.2917,-795.6476 395.7917,-795.6476"/>
<text text-anchor="middle" x="398.0416" y="-815.465" font-family="Times,serif" font-size="14.00" fill="#000000">*</text>
</g>
<!-- n37&#45;&gt;n24 -->
<g id="edge39" class="edge">
<title>n37&#45;&gt;n24</title>
<path fill="none" stroke="#000000" d="M349.0416,-693.8666C349.0416,-675.8563 349.0416,-630.5045 349.0416,-606.151"/>
<polygon fill="#000000" stroke="#000000" points="350.7917,-606.0066 349.0416,-601.0066 347.2917,-606.0067 350.7917,-606.0066"/>
<text text-anchor="middle" x="355.5416" y="-661.7188" font-family="Times,serif" font-size="14.00" fill="#000000">^</text>
</g>
<!-- n38&#45;&gt;n26 -->
<g id="edge42" class="edge">
<title>n38&#45;&gt;n26</title>
<path fill="none" stroke="#000000" d="M495.6539,-543.1577C488.9891,-531.4191 476.1864,-508.8697 467.6274,-493.7947"/>
<polygon fill="#000000" stroke="#000000" points="469.1094,-492.8605 465.1189,-489.3765 466.0658,-494.5886 469.1094,-492.8605"/>
<text text-anchor="middle" x="487.0416" y="-511.0792" font-family="Times,serif" font-size="14.00" fill="#000000">*</text>
</g>
<!-- n39&#45;&gt;n2 -->
<g id="edge45" class="edge">
<title>n39&#45;&gt;n2</title>
<path fill="none" stroke="#000000" d="M336.1684,-398.8927C305.0977,-380.6299 225.8642,-334.0578 189.1952,-312.5044"/>
<polygon fill="#000000" stroke="#000000" points="189.7191,-310.7824 184.5218,-309.7574 187.9455,-313.7998 189.7191,-310.7824"/>
<text text-anchor="middle" x="305.0416" y="-366.6528" font-family="Times,serif" font-size="14.00" fill="#000000">*</text>
</g>
<!-- n40&#45;&gt;n5 -->
<g id="edge46" class="edge">
<title>n40&#45;&gt;n5</title>
<path fill="none" stroke="#000000" d="M284.0416,-847.4229C284.0416,-833.2282 284.0416,-811.1204 284.0416,-796.1118"/>
<polygon fill="#000000" stroke="#000000" points="285.7917,-795.9313 284.0416,-790.9313 282.2917,-795.9314 285.7917,-795.9313"/>
<text text-anchor="middle" x="290.5416" y="-815.465" font-family="Times,serif" font-size="14.00" fill="#000000">+</text>
</g>
<!-- n41&#45;&gt;n23 -->
<g id="edge47" class="edge">
<title>n41&#45;&gt;n23</title>
<path fill="none" stroke="#000000" d="M471.0416,-847.4229C471.0416,-833.2282 471.0416,-811.1204 471.0416,-796.1118"/>
<polygon fill="#000000" stroke="#000000" points="472.7917,-795.9313 471.0416,-790.9313 469.2917,-795.9314 472.7917,-795.9313"/>
<text text-anchor="middle" x="477.5416" y="-815.465" font-family="Times,serif" font-size="14.00" fill="#000000">+</text>
</g>
</g>
</svg>
