<?xml version="1.0" encoding="UTF-8" standalone="no"?>
<!DOCTYPE svg PUBLIC "-//W3C//DTD SVG 1.1//EN"
 "http://www.w3.org/Graphics/SVG/1.1/DTD/svg11.dtd">
<!-- Generated by graphviz version 2.43.0 (0)
 -->
<!-- Title: G Pages: 1 -->
<svg width="520pt" height="1218pt"
 viewBox="0.00 0.00 520.08 1218.15" xmlns="http://www.w3.org/2000/svg" xmlns:xlink="http://www.w3.org/1999/xlink">
<g id="graph0" class="graph" transform="scale(1 1) rotate(0) translate(4 1214.15)">
<title>G</title>
<polygon fill="white" stroke="transparent" points="-4,4 -4,-1214.15 516.08,-1214.15 516.08,4 -4,4"/>
<!-- n1 -->
<g id="node1" class="node">
<title>n1</title>
<ellipse fill="none" stroke="black" cx="65.04" cy="-767.53" rx="21.84" ry="10.71"/>
<text text-anchor="middle" x="65.04" y="-763.83" font-family="Times,serif" font-size="14.00">h:Ω₀</text>
</g>
<!-- n4 -->
<g id="node4" class="node">
<title>n4</title>
<ellipse fill="none" stroke="black" cx="24.04" cy="-51.61" rx="24.08" ry="10.71"/>
<text text-anchor="middle" x="24.04" y="-47.91" font-family="Times,serif" font-size="14.00">ḣ:Ω•</text>
</g>
<!-- n1&#45;&gt;n4 -->
<g id="edge7" class="edge">
<title>n1&#45;&gt;n4</title>
<path fill="none" stroke="black" d="M52.39,-758.73C35.6,-747.29 8.04,-724.26 8.04,-696.31 8.04,-696.31 8.04,-696.31 8.04,-122.82 8.04,-103.22 14.04,-81.3 18.69,-67.25"/>
<polygon fill="black" stroke="black" points="20.37,-67.74 20.33,-62.44 17.06,-66.61 20.37,-67.74"/>
<text text-anchor="middle" x="14.04" y="-396.55" font-family="Times,serif" font-size="14.00">∂ₜ</text>
</g>
<!-- n9 -->
<g id="node9" class="node">
<title>n9</title>
<ellipse fill="none" stroke="black" cx="189.04" cy="-656.1" rx="29.9" ry="10.71"/>
<text text-anchor="middle" x="189.04" y="-652.4" font-family="Times,serif" font-size="14.00">•5:Ω•</text>
</g>
<!-- n1&#45;&gt;n9 -->
<g id="edge8" class="edge">
<title>n1&#45;&gt;n9</title>
<path fill="none" stroke="black" d="M82.75,-761.02C101.72,-754.94 130.39,-745.2 140.04,-738.92 157.17,-727.78 161.32,-723.31 172.04,-705.92 178.54,-695.38 182.97,-682.02 185.68,-671.94"/>
<polygon fill="black" stroke="black" points="187.4,-672.28 186.94,-667.01 184,-671.42 187.4,-672.28"/>
<text text-anchor="middle" x="164.04" y="-727.72" font-family="Times,serif" font-size="14.00">d</text>
</g>
<!-- n13 -->
<g id="node13" class="node">
<title>n13</title>
<ellipse fill="none" stroke="black" cx="133.04" cy="-695.31" rx="29.9" ry="10.71"/>
<text text-anchor="middle" x="133.04" y="-691.61" font-family="Times,serif" font-size="14.00">•9:Ω•</text>
</g>
<!-- n1&#45;&gt;n13 -->
<g id="edge9" class="edge">
<title>n1&#45;&gt;n13</title>
<path fill="none" stroke="black" d="M71.82,-757.3C78.56,-748.37 89.39,-734.66 100.04,-723.92 105.32,-718.59 111.54,-713.2 117.14,-708.61"/>
<polygon fill="black" stroke="black" points="118.49,-709.77 121.28,-705.27 116.29,-707.04 118.49,-709.77"/>
<text text-anchor="middle" x="105.04" y="-727.72" font-family="Times,serif" font-size="14.00">d</text>
</g>
<!-- n33 -->
<g id="node33" class="node">
<title>n33</title>
<polygon fill="none" stroke="black" points="85.54,-702.81 36.54,-702.81 36.54,-687.81 85.54,-687.81 85.54,-702.81"/>
<text text-anchor="middle" x="61.04" y="-691.61" font-family="Times,serif" font-size="14.00">Ω₀×Ω•</text>
</g>
<!-- n1&#45;&gt;n33 -->
<g id="edge25" class="edge">
<title>n1&#45;&gt;n33</title>
<path fill="none" stroke="black" stroke-dasharray="5,2" d="M63.79,-756.83C63.15,-751.55 62.44,-744.88 62.04,-738.92 61.36,-728.6 61.13,-716.85 61.05,-708.31"/>
<polygon fill="black" stroke="black" points="62.8,-707.95 61.02,-702.96 59.3,-707.97 62.8,-707.95"/>
<text text-anchor="middle" x="69.54" y="-727.72" font-family="Times,serif" font-size="14.00">π₁</text>
</g>
<!-- n2 -->
<g id="node2" class="node">
<title>n2</title>
<ellipse fill="none" stroke="black" cx="293.04" cy="-538.46" rx="21.84" ry="10.71"/>
<text text-anchor="middle" x="293.04" y="-534.76" font-family="Times,serif" font-size="14.00">Γ:Ω₁</text>
</g>
<!-- n29 -->
<g id="node29" class="node">
<title>n29</title>
<polygon fill="none" stroke="black" points="228.54,-476.85 179.54,-476.85 179.54,-461.85 228.54,-461.85 228.54,-476.85"/>
<text text-anchor="middle" x="204.04" y="-465.65" font-family="Times,serif" font-size="14.00">Ω₁×Ω•</text>
</g>
<!-- n2&#45;&gt;n29 -->
<g id="edge13" class="edge">
<title>n2&#45;&gt;n29</title>
<path fill="none" stroke="black" stroke-dasharray="5,2" d="M284.66,-528.27C276.03,-519.13 261.92,-505.04 248.04,-494.85 240.22,-489.11 230.91,-483.75 222.87,-479.51"/>
<polygon fill="black" stroke="black" points="223.31,-477.76 218.06,-477.02 221.7,-480.87 223.31,-477.76"/>
<text text-anchor="middle" x="272.54" y="-498.65" font-family="Times,serif" font-size="14.00">π₁</text>
</g>
<!-- n3 -->
<g id="node3" class="node">
<title>n3</title>
<ellipse fill="none" stroke="black" cx="228.04" cy="-1158.54" rx="25.41" ry="10.71"/>
<text text-anchor="middle" x="228.04" y="-1154.84" font-family="Times,serif" font-size="14.00">n:ΩC</text>
</g>
<!-- n30 -->
<g id="node30" class="node">
<title>n30</title>
<polygon fill="none" stroke="black" points="252.54,-1084.79 197.54,-1084.79 197.54,-1069.79 252.54,-1069.79 252.54,-1084.79"/>
<text text-anchor="middle" x="225.04" y="-1073.59" font-family="Times,serif" font-size="14.00">ΩC×ΩL</text>
</g>
<!-- n3&#45;&gt;n30 -->
<g id="edge16" class="edge">
<title>n3&#45;&gt;n30</title>
<path fill="none" stroke="black" stroke-dasharray="5,2" d="M227.67,-1147.83C227.12,-1133.25 226.08,-1105.76 225.49,-1090.06"/>
<polygon fill="black" stroke="black" points="227.23,-1089.79 225.29,-1084.86 223.73,-1089.92 227.23,-1089.79"/>
<text text-anchor="middle" x="233.54" y="-1115.63" font-family="Times,serif" font-size="14.00">π₁</text>
</g>
<!-- n37 -->
<g id="node37" class="node">
<title>n37</title>
<polygon fill="none" stroke="black" points="329.04,-931.32 275.04,-931.32 275.04,-916.32 329.04,-916.32 329.04,-931.32"/>
<text text-anchor="middle" x="302.04" y="-920.12" font-family="Times,serif" font-size="14.00">Ω•×ΩC</text>
</g>
<!-- n3&#45;&gt;n37 -->
<g id="edge38" class="edge">
<title>n3&#45;&gt;n37</title>
<path fill="none" stroke="black" stroke-dasharray="5,2" d="M234.37,-1148.03C237.73,-1142.8 241.82,-1136.13 245.04,-1129.94 253.82,-1113.09 256.02,-1108.74 262.04,-1090.72 280.91,-1034.33 294.78,-964.38 299.89,-936.8"/>
<polygon fill="black" stroke="black" points="301.67,-936.81 300.85,-931.58 298.23,-936.18 301.67,-936.81"/>
<text text-anchor="middle" x="286.54" y="-1034.65" font-family="Times,serif" font-size="14.00">π₂</text>
</g>
<!-- n40 -->
<g id="node40" class="node">
<title>n40</title>
<ellipse fill="none" stroke="black" cx="132.04" cy="-848.78" rx="13.37" ry="13.37"/>
<text text-anchor="middle" x="132.04" y="-845.08" font-family="Times,serif" font-size="14.00">Σ1</text>
</g>
<!-- n3&#45;&gt;n40 -->
<g id="edge48" class="edge">
<title>n3&#45;&gt;n40</title>
<path fill="none" stroke="black" stroke-dasharray="5,2" d="M215.82,-1149.12C198.54,-1136.1 169.04,-1109.34 169.04,-1078.29 169.04,-1078.29 169.04,-1078.29 169.04,-922.82 169.04,-900.15 154.68,-877.37 143.85,-863.43"/>
<polygon fill="black" stroke="black" points="145.11,-862.2 140.62,-859.39 142.38,-864.39 145.11,-862.2"/>
</g>
<!-- n41 -->
<g id="node41" class="node">
<title>n41</title>
<ellipse fill="none" stroke="black" cx="449.04" cy="-1077.29" rx="13.37" ry="13.37"/>
<text text-anchor="middle" x="449.04" y="-1073.59" font-family="Times,serif" font-size="14.00">Σ2</text>
</g>
<!-- n3&#45;&gt;n41 -->
<g id="edge50" class="edge">
<title>n3&#45;&gt;n41</title>
<path fill="none" stroke="black" stroke-dasharray="5,2" d="M247.95,-1151.72C252.86,-1150.38 258.12,-1149.03 263.04,-1147.94 309.26,-1137.66 324.6,-1148.77 368.04,-1129.94 382.37,-1123.73 383.02,-1117.34 396.04,-1108.72 408.01,-1100.8 422.13,-1092.75 432.78,-1086.92"/>
<polygon fill="black" stroke="black" points="433.86,-1088.33 437.42,-1084.41 432.19,-1085.26 433.86,-1088.33"/>
</g>
<!-- n28 -->
<g id="node28" class="node">
<title>n28</title>
</g>
<!-- n4&#45;&gt;n28 -->
<g id="edge6" class="edge">
<title>n4&#45;&gt;n28</title>
<path fill="none" stroke="black" d="M24.04,-40.97C24.04,-31.46 24.04,-17.21 24.04,-9.14"/>
<polygon fill="black" stroke="black" points="25.79,-9.06 24.04,-4.06 22.29,-9.06 25.79,-9.06"/>
</g>
<!-- n5 -->
<g id="node5" class="node">
<title>n5</title>
<ellipse fill="none" stroke="black" cx="132.04" cy="-767.53" rx="24.08" ry="10.71"/>
<text text-anchor="middle" x="132.04" y="-763.83" font-family="Times,serif" font-size="14.00">1:Ω•</text>
</g>
<!-- n5&#45;&gt;n33 -->
<g id="edge26" class="edge">
<title>n5&#45;&gt;n33</title>
<path fill="none" stroke="black" stroke-dasharray="5,2" d="M128.85,-756.74C125.41,-747.4 119.17,-733.39 110.04,-723.92 102.42,-716.02 92.05,-709.73 82.81,-705.17"/>
<polygon fill="black" stroke="black" points="83.36,-703.5 78.1,-702.94 81.87,-706.66 83.36,-703.5"/>
<text text-anchor="middle" x="128.54" y="-727.72" font-family="Times,serif" font-size="14.00">π₂</text>
</g>
<!-- n6 -->
<g id="node6" class="node">
<title>n6</title>
<ellipse fill="none" stroke="black" cx="66.04" cy="-123.82" rx="29.9" ry="10.71"/>
<text text-anchor="middle" x="66.04" y="-120.12" font-family="Times,serif" font-size="14.00">•2:Ω•</text>
</g>
<!-- n6&#45;&gt;n4 -->
<g id="edge12" class="edge">
<title>n6&#45;&gt;n4</title>
<path fill="none" stroke="black" d="M60.38,-113.35C53.14,-101.24 40.54,-80.19 32.25,-66.33"/>
<polygon fill="black" stroke="black" points="33.68,-65.32 29.62,-61.93 30.68,-67.12 33.68,-65.32"/>
<text text-anchor="middle" x="67.54" y="-84.01" font-family="Times,serif" font-size="14.00">⋆⋅d⋅⋆</text>
</g>
<!-- n7 -->
<g id="node7" class="node">
<title>n7</title>
<ellipse fill="none" stroke="black" cx="124.04" cy="-262.03" rx="29.9" ry="10.71"/>
<text text-anchor="middle" x="124.04" y="-258.33" font-family="Times,serif" font-size="14.00">•3:Ω•</text>
</g>
<!-- n34 -->
<g id="node34" class="node">
<title>n34</title>
<polygon fill="none" stroke="black" points="92.04,-200.43 40.04,-200.43 40.04,-185.43 92.04,-185.43 92.04,-200.43"/>
<text text-anchor="middle" x="66.04" y="-189.23" font-family="Times,serif" font-size="14.00">Ω•×Ω•</text>
</g>
<!-- n7&#45;&gt;n34 -->
<g id="edge28" class="edge">
<title>n7&#45;&gt;n34</title>
<path fill="none" stroke="black" stroke-dasharray="5,2" d="M115.98,-251.7C105.35,-239.41 86.69,-217.82 75.44,-204.8"/>
<polygon fill="black" stroke="black" points="76.52,-203.38 71.93,-200.74 73.87,-205.67 76.52,-203.38"/>
<text text-anchor="middle" x="106.54" y="-222.23" font-family="Times,serif" font-size="14.00">π₁</text>
</g>
<!-- n8 -->
<g id="node8" class="node">
<title>n8</title>
<ellipse fill="none" stroke="black" cx="204.04" cy="-400.25" rx="29.9" ry="10.71"/>
<text text-anchor="middle" x="204.04" y="-396.55" font-family="Times,serif" font-size="14.00">•4:Ω•</text>
</g>
<!-- n32 -->
<g id="node32" class="node">
<title>n32</title>
<polygon fill="none" stroke="black" points="153.04,-338.64 101.04,-338.64 101.04,-323.64 153.04,-323.64 153.04,-338.64"/>
<text text-anchor="middle" x="127.04" y="-327.44" font-family="Times,serif" font-size="14.00">Ω•×Ω•</text>
</g>
<!-- n8&#45;&gt;n32 -->
<g id="edge22" class="edge">
<title>n8&#45;&gt;n32</title>
<path fill="none" stroke="black" stroke-dasharray="5,2" d="M193.66,-390.2C179.4,-377.77 153.83,-355.48 138.86,-342.44"/>
<polygon fill="black" stroke="black" points="139.85,-340.98 134.93,-339.02 137.55,-343.62 139.85,-340.98"/>
<text text-anchor="middle" x="177.54" y="-360.44" font-family="Times,serif" font-size="14.00">π₁</text>
</g>
<!-- n9&#45;&gt;n29 -->
<g id="edge14" class="edge">
<title>n9&#45;&gt;n29</title>
<path fill="none" stroke="black" stroke-dasharray="5,2" d="M189.83,-645.43C192.36,-614.26 200.29,-516.54 203.07,-482.33"/>
<polygon fill="black" stroke="black" points="204.84,-482.18 203.5,-477.05 201.35,-481.89 204.84,-482.18"/>
<text text-anchor="middle" x="203.54" y="-573.97" font-family="Times,serif" font-size="14.00">π₂</text>
</g>
<!-- n10 -->
<g id="node10" class="node">
<title>n10</title>
<ellipse fill="none" stroke="black" cx="127.04" cy="-400.25" rx="29.9" ry="10.71"/>
<text text-anchor="middle" x="127.04" y="-396.55" font-family="Times,serif" font-size="14.00">•6:Ω•</text>
</g>
<!-- n10&#45;&gt;n32 -->
<g id="edge23" class="edge">
<title>n10&#45;&gt;n32</title>
<path fill="none" stroke="black" stroke-dasharray="5,2" d="M127.04,-389.63C127.04,-377.58 127.04,-356.94 127.04,-343.94"/>
<polygon fill="black" stroke="black" points="128.79,-343.89 127.04,-338.89 125.29,-343.89 128.79,-343.89"/>
<text text-anchor="middle" x="134.54" y="-360.44" font-family="Times,serif" font-size="14.00">π₂</text>
</g>
<!-- n11 -->
<g id="node11" class="node">
<title>n11</title>
<ellipse fill="none" stroke="black" cx="133.04" cy="-538.46" rx="29.9" ry="10.71"/>
<text text-anchor="middle" x="133.04" y="-534.76" font-family="Times,serif" font-size="14.00">•7:Ω•</text>
</g>
<!-- n31 -->
<g id="node31" class="node">
<title>n31</title>
<polygon fill="none" stroke="black" points="159.04,-476.85 107.04,-476.85 107.04,-461.85 159.04,-461.85 159.04,-476.85"/>
<text text-anchor="middle" x="133.04" y="-465.65" font-family="Times,serif" font-size="14.00">Ω•×Ω•</text>
</g>
<!-- n11&#45;&gt;n31 -->
<g id="edge19" class="edge">
<title>n11&#45;&gt;n31</title>
<path fill="none" stroke="black" stroke-dasharray="5,2" d="M133.04,-527.84C133.04,-515.79 133.04,-495.15 133.04,-482.15"/>
<polygon fill="black" stroke="black" points="134.79,-482.1 133.04,-477.1 131.29,-482.1 134.79,-482.1"/>
<text text-anchor="middle" x="140.54" y="-498.65" font-family="Times,serif" font-size="14.00">π₁</text>
</g>
<!-- n12 -->
<g id="node12" class="node">
<title>n12</title>
<ellipse fill="none" stroke="black" cx="133.04" cy="-616.89" rx="29.9" ry="10.71"/>
<text text-anchor="middle" x="133.04" y="-613.19" font-family="Times,serif" font-size="14.00">•8:Ω•</text>
</g>
<!-- n12&#45;&gt;n11 -->
<g id="edge11" class="edge">
<title>n12&#45;&gt;n11</title>
<path fill="none" stroke="black" d="M133.04,-606.21C133.04,-593.18 133.04,-569.89 133.04,-554.56"/>
<polygon fill="black" stroke="black" points="134.79,-554.3 133.04,-549.3 131.29,-554.3 134.79,-554.3"/>
<text text-anchor="middle" x="148.54" y="-573.97" font-family="Times,serif" font-size="14.00">mag</text>
</g>
<!-- n13&#45;&gt;n12 -->
<g id="edge10" class="edge">
<title>n13&#45;&gt;n12</title>
<path fill="none" stroke="black" d="M133.04,-684.63C133.04,-671.61 133.04,-648.32 133.04,-632.98"/>
<polygon fill="black" stroke="black" points="134.79,-632.73 133.04,-627.73 131.29,-632.73 134.79,-632.73"/>
<text text-anchor="middle" x="136.54" y="-652.4" font-family="Times,serif" font-size="14.00">♯</text>
</g>
<!-- n14 -->
<g id="node14" class="node">
<title>n14</title>
<ellipse fill="none" stroke="black" cx="229.04" cy="-963.04" rx="36.12" ry="10.71"/>
<text text-anchor="middle" x="229.04" y="-959.34" font-family="Times,serif" font-size="14.00">•10:Ω•</text>
</g>
<!-- n14&#45;&gt;n31 -->
<g id="edge20" class="edge">
<title>n14&#45;&gt;n31</title>
<path fill="none" stroke="black" stroke-dasharray="5,2" d="M230.15,-952.09C231.62,-938 234.04,-911.43 234.04,-888.72 234.04,-888.72 234.04,-888.72 234.04,-537.46 234.04,-503.43 193.77,-485.62 164.09,-477.11"/>
<polygon fill="black" stroke="black" points="164.34,-475.37 159.05,-475.73 163.41,-478.74 164.34,-475.37"/>
<text text-anchor="middle" x="241.54" y="-727.72" font-family="Times,serif" font-size="14.00">π₂</text>
</g>
<!-- n15 -->
<g id="node15" class="node">
<title>n15</title>
<ellipse fill="none" stroke="black" cx="139.04" cy="-1158.54" rx="24.08" ry="10.71"/>
<text text-anchor="middle" x="139.04" y="-1154.84" font-family="Times,serif" font-size="14.00">1:ΩL</text>
</g>
<!-- n15&#45;&gt;n30 -->
<g id="edge17" class="edge">
<title>n15&#45;&gt;n30</title>
<path fill="none" stroke="black" stroke-dasharray="5,2" d="M148.57,-1148.76C164.54,-1134.05 196.61,-1104.49 213.71,-1088.74"/>
<polygon fill="black" stroke="black" points="215.22,-1089.72 217.71,-1085.05 212.85,-1087.15 215.22,-1089.72"/>
<text text-anchor="middle" x="196.54" y="-1115.63" font-family="Times,serif" font-size="14.00">π₂</text>
</g>
<!-- n16 -->
<g id="node16" class="node">
<title>n16</title>
<ellipse fill="none" stroke="black" cx="63.04" cy="-577.67" rx="36.12" ry="10.71"/>
<text text-anchor="middle" x="63.04" y="-573.97" font-family="Times,serif" font-size="14.00">•11:Ω•</text>
</g>
<!-- n16&#45;&gt;n34 -->
<g id="edge29" class="edge">
<title>n16&#45;&gt;n34</title>
<path fill="none" stroke="black" stroke-dasharray="5,2" d="M63.26,-566.71C63.56,-552.61 64.04,-526.01 64.04,-503.35 64.04,-503.35 64.04,-503.35 64.04,-261.03 64.04,-241.66 64.89,-219.14 65.48,-205.74"/>
<polygon fill="black" stroke="black" points="67.23,-205.67 65.71,-200.59 63.74,-205.51 67.23,-205.67"/>
<text text-anchor="middle" x="71.54" y="-396.55" font-family="Times,serif" font-size="14.00">π₂</text>
</g>
<!-- n17 -->
<g id="node17" class="node">
<title>n17</title>
<ellipse fill="none" stroke="black" cx="117.04" cy="-923.82" rx="24.08" ry="10.71"/>
<text text-anchor="middle" x="117.04" y="-920.12" font-family="Times,serif" font-size="14.00">2:ΩL</text>
</g>
<!-- n17&#45;&gt;n40 -->
<g id="edge49" class="edge">
<title>n17&#45;&gt;n40</title>
<path fill="none" stroke="black" stroke-dasharray="5,2" d="M119.06,-912.97C121.47,-901.25 125.53,-881.47 128.47,-867.15"/>
<polygon fill="black" stroke="black" points="130.21,-867.4 129.5,-862.15 126.78,-866.7 130.21,-867.4"/>
</g>
<!-- n18 -->
<g id="node18" class="node">
<title>n18</title>
<ellipse fill="none" stroke="black" cx="423.04" cy="-1119.33" rx="26.33" ry="10.71"/>
<text text-anchor="middle" x="423.04" y="-1115.63" font-family="Times,serif" font-size="14.00">A:ΩC</text>
</g>
<!-- n38 -->
<g id="node38" class="node">
<title>n38</title>
<polygon fill="none" stroke="black" points="424.04,-775.03 370.04,-775.03 370.04,-760.03 424.04,-760.03 424.04,-775.03"/>
<text text-anchor="middle" x="397.04" y="-763.83" font-family="Times,serif" font-size="14.00">Ω•×ΩC</text>
</g>
<!-- n18&#45;&gt;n38 -->
<g id="edge41" class="edge">
<title>n18&#45;&gt;n38</title>
<path fill="none" stroke="black" stroke-dasharray="5,2" d="M417.78,-1108.94C410.18,-1094.46 397.04,-1065.63 397.04,-1039.35 397.04,-1039.35 397.04,-1039.35 397.04,-847.78 397.04,-823.76 397.04,-795.65 397.04,-780.19"/>
<polygon fill="black" stroke="black" points="398.79,-780.1 397.04,-775.1 395.29,-780.1 398.79,-780.1"/>
<text text-anchor="middle" x="404.54" y="-959.34" font-family="Times,serif" font-size="14.00">π₂</text>
</g>
<!-- n19 -->
<g id="node19" class="node">
<title>n19</title>
<ellipse fill="none" stroke="black" cx="365.04" cy="-1158.54" rx="25" ry="10.71"/>
<text text-anchor="middle" x="365.04" y="-1154.84" font-family="Times,serif" font-size="14.00">ρ:ΩC</text>
</g>
<!-- n36 -->
<g id="node36" class="node">
<title>n36</title>
<polygon fill="none" stroke="black" points="367.04,-1084.79 311.04,-1084.79 311.04,-1069.79 367.04,-1069.79 367.04,-1084.79"/>
<text text-anchor="middle" x="339.04" y="-1073.59" font-family="Times,serif" font-size="14.00">ΩC×ΩC</text>
</g>
<!-- n19&#45;&gt;n36 -->
<g id="edge34" class="edge">
<title>n19&#45;&gt;n36</title>
<path fill="none" stroke="black" stroke-dasharray="5,2" d="M361.85,-1147.83C357.03,-1133.12 347.89,-1105.28 342.77,-1089.65"/>
<polygon fill="black" stroke="black" points="344.42,-1089.07 341.2,-1084.86 341.09,-1090.16 344.42,-1089.07"/>
<text text-anchor="middle" x="362.54" y="-1115.63" font-family="Times,serif" font-size="14.00">π₁</text>
</g>
<!-- n20 -->
<g id="node20" class="node">
<title>n20</title>
<ellipse fill="none" stroke="black" cx="297.04" cy="-1158.54" rx="25.41" ry="10.71"/>
<text text-anchor="middle" x="297.04" y="-1154.84" font-family="Times,serif" font-size="14.00">g:ΩC</text>
</g>
<!-- n20&#45;&gt;n36 -->
<g id="edge35" class="edge">
<title>n20&#45;&gt;n36</title>
<path fill="none" stroke="black" stroke-dasharray="5,2" d="M302.02,-1148.14C309.82,-1133.43 324.88,-1105.02 333.18,-1089.35"/>
<polygon fill="black" stroke="black" points="334.73,-1090.16 335.53,-1084.92 331.64,-1088.52 334.73,-1090.16"/>
<text text-anchor="middle" x="328.54" y="-1115.63" font-family="Times,serif" font-size="14.00">π₂</text>
</g>
<!-- n21 -->
<g id="node21" class="node">
<title>n21</title>
<ellipse fill="none" stroke="black" cx="455.04" cy="-848.78" rx="29.9" ry="10.71"/>
<text text-anchor="middle" x="455.04" y="-845.08" font-family="Times,serif" font-size="14.00">•1:Ω•</text>
</g>
<!-- n21&#45;&gt;n38 -->
<g id="edge40" class="edge">
<title>n21&#45;&gt;n38</title>
<path fill="none" stroke="black" stroke-dasharray="5,2" d="M448.16,-838.38C437.39,-823.66 416.6,-795.26 405.13,-779.58"/>
<polygon fill="black" stroke="black" points="406.26,-778.16 401.89,-775.16 403.44,-780.23 406.26,-778.16"/>
<text text-anchor="middle" x="438.54" y="-803.04" font-family="Times,serif" font-size="14.00">π₁</text>
</g>
<!-- n22 -->
<g id="node22" class="node">
<title>n22</title>
<ellipse fill="none" stroke="black" cx="488.04" cy="-1158.54" rx="24.08" ry="10.71"/>
<text text-anchor="middle" x="488.04" y="-1154.84" font-family="Times,serif" font-size="14.00">2:ΩL</text>
</g>
<!-- n35 -->
<g id="node35" class="node">
<title>n35</title>
<polygon fill="none" stroke="black" points="481.04,-931.32 429.04,-931.32 429.04,-916.32 481.04,-916.32 481.04,-931.32"/>
<text text-anchor="middle" x="455.04" y="-920.12" font-family="Times,serif" font-size="14.00">ΩL×Ω•</text>
</g>
<!-- n22&#45;&gt;n35 -->
<g id="edge31" class="edge">
<title>n22&#45;&gt;n35</title>
<path fill="none" stroke="black" stroke-dasharray="5,2" d="M488.49,-1147.74C489.5,-1121.98 491.2,-1050.3 482.04,-991.64 479.25,-973.76 478.08,-969.1 471.04,-952.43 468.65,-946.76 465.33,-940.82 462.32,-935.91"/>
<polygon fill="black" stroke="black" points="463.62,-934.68 459.48,-931.38 460.66,-936.55 463.62,-934.68"/>
<text text-anchor="middle" x="494.54" y="-1034.65" font-family="Times,serif" font-size="14.00">π₁</text>
</g>
<!-- n22&#45;&gt;n41 -->
<g id="edge51" class="edge">
<title>n22&#45;&gt;n41</title>
<path fill="none" stroke="black" stroke-dasharray="5,2" d="M483.26,-1147.83C476.7,-1134.49 464.82,-1110.35 456.93,-1094.32"/>
<polygon fill="black" stroke="black" points="458.4,-1093.34 454.62,-1089.62 455.26,-1094.88 458.4,-1093.34"/>
</g>
<!-- n23 -->
<g id="node23" class="node">
<title>n23</title>
<ellipse fill="none" stroke="black" cx="449.04" cy="-1002.25" rx="24.08" ry="10.71"/>
<text text-anchor="middle" x="449.04" y="-998.55" font-family="Times,serif" font-size="14.00">1:Ω•</text>
</g>
<!-- n23&#45;&gt;n35 -->
<g id="edge32" class="edge">
<title>n23&#45;&gt;n35</title>
<path fill="none" stroke="black" stroke-dasharray="5,2" d="M449.8,-991.57C450.9,-977.55 452.94,-951.61 454.12,-936.53"/>
<polygon fill="black" stroke="black" points="455.87,-936.63 454.52,-931.51 452.38,-936.36 455.87,-936.63"/>
<text text-anchor="middle" x="459.54" y="-959.34" font-family="Times,serif" font-size="14.00">π₂</text>
</g>
<!-- n24 -->
<g id="node24" class="node">
<title>n24</title>
<ellipse fill="none" stroke="black" cx="302.04" cy="-806.74" rx="29.9" ry="10.71"/>
<text text-anchor="middle" x="302.04" y="-803.04" font-family="Times,serif" font-size="14.00">•2:Ω•</text>
</g>
<!-- n39 -->
<g id="node39" class="node">
<title>n39</title>
<polygon fill="none" stroke="black" points="328.04,-624.39 276.04,-624.39 276.04,-609.39 328.04,-609.39 328.04,-624.39"/>
<text text-anchor="middle" x="302.04" y="-613.19" font-family="Times,serif" font-size="14.00">Ω•×Ω•</text>
</g>
<!-- n24&#45;&gt;n39 -->
<g id="edge44" class="edge">
<title>n24&#45;&gt;n39</title>
<path fill="none" stroke="black" stroke-dasharray="5,2" d="M302.04,-795.9C302.04,-764.22 302.04,-664.85 302.04,-630.06"/>
<polygon fill="black" stroke="black" points="303.79,-629.7 302.04,-624.7 300.29,-629.7 303.79,-629.7"/>
<text text-anchor="middle" x="309.54" y="-727.72" font-family="Times,serif" font-size="14.00">π₂</text>
</g>
<!-- n25 -->
<g id="node25" class="node">
<title>n25</title>
<ellipse fill="none" stroke="black" cx="339.04" cy="-1002.25" rx="29.9" ry="10.71"/>
<text text-anchor="middle" x="339.04" y="-998.55" font-family="Times,serif" font-size="14.00">•3:Ω•</text>
</g>
<!-- n25&#45;&gt;n37 -->
<g id="edge37" class="edge">
<title>n25&#45;&gt;n37</title>
<path fill="none" stroke="black" stroke-dasharray="5,2" d="M334.36,-991.57C327.51,-977.42 314.79,-951.16 307.52,-936.14"/>
<polygon fill="black" stroke="black" points="309.03,-935.25 305.28,-931.51 305.88,-936.77 309.03,-935.25"/>
<text text-anchor="middle" x="331.54" y="-959.34" font-family="Times,serif" font-size="14.00">π₁</text>
</g>
<!-- n26 -->
<g id="node26" class="node">
<title>n26</title>
<ellipse fill="none" stroke="black" cx="374.04" cy="-695.31" rx="24.08" ry="10.71"/>
<text text-anchor="middle" x="374.04" y="-691.61" font-family="Times,serif" font-size="14.00">1:Ω•</text>
</g>
<!-- n26&#45;&gt;n39 -->
<g id="edge43" class="edge">
<title>n26&#45;&gt;n39</title>
<path fill="none" stroke="black" stroke-dasharray="5,2" d="M365.5,-685.24C352.15,-671.08 326.41,-643.75 312.15,-628.62"/>
<polygon fill="black" stroke="black" points="313.16,-627.14 308.46,-624.7 310.61,-629.54 313.16,-627.14"/>
<text text-anchor="middle" x="353.54" y="-652.4" font-family="Times,serif" font-size="14.00">π₁</text>
</g>
<!-- n27 -->
<g id="node27" class="node">
<title>n27</title>
</g>
<!-- n27&#45;&gt;n1 -->
<g id="edge1" class="edge">
<title>n27&#45;&gt;n1</title>
<path fill="none" stroke="black" d="M295.04,-1207.19C272.36,-1207.53 65.04,-1209.3 65.04,-1159.54 65.04,-1159.54 65.04,-1159.54 65.04,-847.78 65.04,-825.48 65.04,-799.64 65.04,-783.69"/>
<polygon fill="black" stroke="black" points="66.79,-783.29 65.04,-778.29 63.29,-783.29 66.79,-783.29"/>
</g>
<!-- n27&#45;&gt;n3 -->
<g id="edge2" class="edge">
<title>n27&#45;&gt;n3</title>
<path fill="none" stroke="black" d="M295.34,-1205.97C288.45,-1201.22 262.22,-1183.12 244.61,-1170.98"/>
<polygon fill="black" stroke="black" points="245.45,-1169.43 240.34,-1168.03 243.46,-1172.31 245.45,-1169.43"/>
</g>
<!-- n27&#45;&gt;n18 -->
<g id="edge3" class="edge">
<title>n27&#45;&gt;n18</title>
<path fill="none" stroke="black" d="M299.29,-1206.92C311.14,-1205.62 367.09,-1198.05 399.04,-1169.15 409.15,-1160.01 415.49,-1145.65 419.1,-1134.87"/>
<polygon fill="black" stroke="black" points="420.83,-1135.19 420.66,-1129.9 417.49,-1134.15 420.83,-1135.19"/>
</g>
<!-- n27&#45;&gt;n19 -->
<g id="edge4" class="edge">
<title>n27&#45;&gt;n19</title>
<path fill="none" stroke="black" d="M298.72,-1205.97C305.51,-1201.22 331.36,-1183.12 348.71,-1170.98"/>
<polygon fill="black" stroke="black" points="349.83,-1172.33 352.92,-1168.03 347.82,-1169.46 349.83,-1172.33"/>
</g>
<!-- n27&#45;&gt;n20 -->
<g id="edge5" class="edge">
<title>n27&#45;&gt;n20</title>
<path fill="none" stroke="black" d="M297.04,-1205.97C297.04,-1201.65 297.04,-1186.3 297.04,-1174.41"/>
<polygon fill="black" stroke="black" points="298.79,-1174.25 297.04,-1169.25 295.29,-1174.25 298.79,-1174.25"/>
</g>
<!-- n29&#45;&gt;n8 -->
<g id="edge15" class="edge">
<title>n29&#45;&gt;n8</title>
<path fill="none" stroke="black" d="M204.04,-461.67C204.04,-451.14 204.04,-430.4 204.04,-416.18"/>
<polygon fill="black" stroke="black" points="205.79,-415.91 204.04,-410.91 202.29,-415.91 205.79,-415.91"/>
<text text-anchor="middle" x="207.54" y="-432.65" font-family="Times,serif" font-size="14.00">*</text>
</g>
<!-- n30&#45;&gt;n14 -->
<g id="edge18" class="edge">
<title>n30&#45;&gt;n14</title>
<path fill="none" stroke="black" d="M225.28,-1069.6C225.91,-1051.96 227.62,-1003.83 228.5,-979.11"/>
<polygon fill="black" stroke="black" points="230.26,-978.99 228.69,-973.93 226.76,-978.87 230.26,-978.99"/>
<text text-anchor="middle" x="228.54" y="-1034.65" font-family="Times,serif" font-size="14.00">&#45;</text>
</g>
<!-- n31&#45;&gt;n10 -->
<g id="edge21" class="edge">
<title>n31&#45;&gt;n10</title>
<path fill="none" stroke="black" d="M132.44,-461.67C131.5,-451.14 129.65,-430.4 128.38,-416.18"/>
<polygon fill="black" stroke="black" points="130.09,-415.73 127.91,-410.91 126.61,-416.04 130.09,-415.73"/>
<text text-anchor="middle" x="137.54" y="-432.65" font-family="Times,serif" font-size="14.00">^</text>
</g>
<!-- n32&#45;&gt;n7 -->
<g id="edge24" class="edge">
<title>n32&#45;&gt;n7</title>
<path fill="none" stroke="black" d="M126.74,-323.46C126.27,-312.92 125.34,-292.19 124.71,-277.97"/>
<polygon fill="black" stroke="black" points="126.45,-277.61 124.47,-272.69 122.95,-277.77 126.45,-277.61"/>
<text text-anchor="middle" x="131.54" y="-294.44" font-family="Times,serif" font-size="14.00">∧</text>
</g>
<!-- n33&#45;&gt;n16 -->
<g id="edge27" class="edge">
<title>n33&#45;&gt;n16</title>
<path fill="none" stroke="black" d="M61.15,-687.76C61.47,-669.74 62.34,-619.07 62.78,-593.63"/>
<polygon fill="black" stroke="black" points="64.53,-593.64 62.87,-588.61 61.03,-593.58 64.53,-593.64"/>
<text text-anchor="middle" x="68.54" y="-652.4" font-family="Times,serif" font-size="14.00">^</text>
</g>
<!-- n34&#45;&gt;n6 -->
<g id="edge30" class="edge">
<title>n34&#45;&gt;n6</title>
<path fill="none" stroke="black" d="M66.04,-185.25C66.04,-174.71 66.04,-153.97 66.04,-139.76"/>
<polygon fill="black" stroke="black" points="67.79,-139.48 66.04,-134.48 64.29,-139.48 67.79,-139.48"/>
<text text-anchor="middle" x="71.54" y="-156.23" font-family="Times,serif" font-size="14.00">∧</text>
</g>
<!-- n35&#45;&gt;n21 -->
<g id="edge33" class="edge">
<title>n35&#45;&gt;n21</title>
<path fill="none" stroke="black" d="M455.04,-916.08C455.04,-904.51 455.04,-880.58 455.04,-864.86"/>
<polygon fill="black" stroke="black" points="456.79,-864.48 455.04,-859.48 453.29,-864.48 456.79,-864.48"/>
<text text-anchor="middle" x="457.54" y="-884.02" font-family="Times,serif" font-size="14.00">/</text>
</g>
<!-- n36&#45;&gt;n25 -->
<g id="edge36" class="edge">
<title>n36&#45;&gt;n25</title>
<path fill="none" stroke="black" d="M339.04,-1069.55C339.04,-1057.97 339.04,-1034.05 339.04,-1018.33"/>
<polygon fill="black" stroke="black" points="340.79,-1017.95 339.04,-1012.95 337.29,-1017.95 340.79,-1017.95"/>
<text text-anchor="middle" x="342.54" y="-1034.65" font-family="Times,serif" font-size="14.00">*</text>
</g>
<!-- n37&#45;&gt;n24 -->
<g id="edge39" class="edge">
<title>n37&#45;&gt;n24</title>
<path fill="none" stroke="black" d="M302.04,-916.3C302.04,-898.37 302.04,-847.94 302.04,-822.63"/>
<polygon fill="black" stroke="black" points="303.79,-822.63 302.04,-817.63 300.29,-822.63 303.79,-822.63"/>
<text text-anchor="middle" x="308.54" y="-884.02" font-family="Times,serif" font-size="14.00">^</text>
</g>
<!-- n38&#45;&gt;n26 -->
<g id="edge42" class="edge">
<title>n38&#45;&gt;n26</title>
<path fill="none" stroke="black" d="M394.84,-759.79C391.16,-748.57 383.7,-725.78 378.78,-710.79"/>
<polygon fill="black" stroke="black" points="380.44,-710.23 377.22,-706.03 377.12,-711.32 380.44,-710.23"/>
<text text-anchor="middle" x="390.54" y="-727.72" font-family="Times,serif" font-size="14.00">*</text>
</g>
<!-- n39&#45;&gt;n2 -->
<g id="edge45" class="edge">
<title>n39&#45;&gt;n2</title>
<path fill="none" stroke="black" d="M301.27,-609.37C299.85,-597.31 296.78,-571.2 294.82,-554.53"/>
<polygon fill="black" stroke="black" points="296.52,-554.03 294.2,-549.27 293.04,-554.44 296.52,-554.03"/>
<text text-anchor="middle" x="301.54" y="-573.97" font-family="Times,serif" font-size="14.00">*</text>
</g>
<!-- n40&#45;&gt;n5 -->
<g id="edge46" class="edge">
<title>n40&#45;&gt;n5</title>
<path fill="none" stroke="black" d="M132.04,-835.05C132.04,-821.02 132.04,-798.47 132.04,-783.58"/>
<polygon fill="black" stroke="black" points="133.79,-783.47 132.04,-778.47 130.29,-783.47 133.79,-783.47"/>
<text text-anchor="middle" x="138.54" y="-803.04" font-family="Times,serif" font-size="14.00">+</text>
</g>
<!-- n41&#45;&gt;n23 -->
<g id="edge47" class="edge">
<title>n41&#45;&gt;n23</title>
<path fill="none" stroke="black" d="M449.04,-1063.57C449.04,-1050.98 449.04,-1031.71 449.04,-1018.35"/>
<polygon fill="black" stroke="black" points="450.79,-1018.02 449.04,-1013.02 447.29,-1018.02 450.79,-1018.02"/>
<text text-anchor="middle" x="455.54" y="-1034.65" font-family="Times,serif" font-size="14.00">+</text>
</g>
</g>
</svg>
