<?xml version="1.0" encoding="UTF-8" standalone="no"?>
<!DOCTYPE svg PUBLIC "-//W3C//DTD SVG 1.1//EN"
 "http://www.w3.org/Graphics/SVG/1.1/DTD/svg11.dtd">
<!-- Generated by graphviz version 2.43.0 (0)
 -->
<!-- Title: G Pages: 1 -->
<svg width="483pt" height="1224pt"
 viewBox="0.00 0.00 483.04 1224.36" xmlns="http://www.w3.org/2000/svg" xmlns:xlink="http://www.w3.org/1999/xlink">
<g id="graph0" class="graph" transform="scale(1 1) rotate(0) translate(4 1220.36)">
<title>G</title>
<polygon fill="white" stroke="transparent" points="-4,4 -4,-1220.36 479.04,-1220.36 479.04,4 -4,4"/>
<!-- n1 -->
<g id="node1" class="node">
<title>n1</title>
<ellipse fill="none" stroke="black" cx="440.04" cy="-852.17" rx="21.84" ry="10.71"/>
<text text-anchor="middle" x="440.04" y="-848.47" font-family="Times,serif" font-size="14.00">h:Ω₀</text>
</g>
<!-- n4 -->
<g id="node4" class="node">
<title>n4</title>
<ellipse fill="none" stroke="black" cx="436.04" cy="-51.61" rx="24.08" ry="10.71"/>
<text text-anchor="middle" x="436.04" y="-47.91" font-family="Times,serif" font-size="14.00">ḣ:Ω•</text>
</g>
<!-- n1&#45;&gt;n4 -->
<g id="edge7" class="edge">
<title>n1&#45;&gt;n4</title>
<path fill="none" stroke="black" d="M444.92,-841.55C451.67,-827.33 463.04,-799.68 463.04,-774.74 463.04,-774.74 463.04,-774.74 463.04,-122.82 463.04,-102.17 452.74,-80.24 444.86,-66.49"/>
<polygon fill="black" stroke="black" points="446.35,-65.57 442.3,-62.16 443.34,-67.35 446.35,-65.57"/>
<text text-anchor="middle" x="469.04" y="-432.65" font-family="Times,serif" font-size="14.00">∂ₜ</text>
</g>
<!-- n7 -->
<g id="node7" class="node">
<title>n7</title>
<ellipse fill="none" stroke="black" cx="350.04" cy="-734.53" rx="29.9" ry="10.71"/>
<text text-anchor="middle" x="350.04" y="-730.83" font-family="Times,serif" font-size="14.00">•1:Ω•</text>
</g>
<!-- n1&#45;&gt;n7 -->
<g id="edge8" class="edge">
<title>n1&#45;&gt;n7</title>
<path fill="none" stroke="black" d="M423.13,-845.32C403.88,-838.52 374.63,-827.71 371.04,-823.56 353.27,-802.97 349.93,-769.98 349.63,-750.77"/>
<polygon fill="black" stroke="black" points="351.38,-750.27 349.62,-745.28 347.88,-750.28 351.38,-750.27"/>
<text text-anchor="middle" x="376.04" y="-809.25" font-family="Times,serif" font-size="14.00">d</text>
</g>
<!-- n12 -->
<g id="node12" class="node">
<title>n12</title>
<ellipse fill="none" stroke="black" cx="291.04" cy="-773.74" rx="29.9" ry="10.71"/>
<text text-anchor="middle" x="291.04" y="-770.04" font-family="Times,serif" font-size="14.00">•6:Ω•</text>
</g>
<!-- n1&#45;&gt;n12 -->
<g id="edge9" class="edge">
<title>n1&#45;&gt;n12</title>
<path fill="none" stroke="black" d="M422.75,-845.46C418.31,-844.09 413.52,-842.69 409.04,-841.56 369.07,-831.44 351.34,-847.86 318.04,-823.56 306.64,-815.24 299.47,-800.58 295.41,-789.49"/>
<polygon fill="black" stroke="black" points="297.04,-788.84 293.76,-784.68 293.73,-789.98 297.04,-788.84"/>
<text text-anchor="middle" x="323.04" y="-809.25" font-family="Times,serif" font-size="14.00">d</text>
</g>
<!-- n33 -->
<g id="node33" class="node">
<title>n33</title>
<polygon fill="none" stroke="black" points="429.54,-781.24 380.54,-781.24 380.54,-766.24 429.54,-766.24 429.54,-781.24"/>
<text text-anchor="middle" x="405.04" y="-770.04" font-family="Times,serif" font-size="14.00">Ω₀×Ω•</text>
</g>
<!-- n1&#45;&gt;n33 -->
<g id="edge21" class="edge">
<title>n1&#45;&gt;n33</title>
<path fill="none" stroke="black" stroke-dasharray="5,2" d="M435.61,-841.49C429.13,-827.34 417.1,-801.07 410.22,-786.05"/>
<polygon fill="black" stroke="black" points="411.78,-785.24 408.1,-781.42 408.59,-786.7 411.78,-785.24"/>
<text text-anchor="middle" x="433.54" y="-809.25" font-family="Times,serif" font-size="14.00">π₁</text>
</g>
<!-- n2 -->
<g id="node2" class="node">
<title>n2</title>
<ellipse fill="none" stroke="black" cx="297.04" cy="-544.67" rx="21.84" ry="10.71"/>
<text text-anchor="middle" x="297.04" y="-540.97" font-family="Times,serif" font-size="14.00">Γ:Ω₁</text>
</g>
<!-- n34 -->
<g id="node34" class="node">
<title>n34</title>
<polygon fill="none" stroke="black" points="366.54,-479.96 317.54,-479.96 317.54,-464.96 366.54,-464.96 366.54,-479.96"/>
<text text-anchor="middle" x="342.04" y="-468.76" font-family="Times,serif" font-size="14.00">Ω₁×Ω•</text>
</g>
<!-- n2&#45;&gt;n34 -->
<g id="edge24" class="edge">
<title>n2&#45;&gt;n34</title>
<path fill="none" stroke="black" stroke-dasharray="5,2" d="M300.89,-534.15C304.68,-525.26 310.92,-511.78 318.04,-501.07 322,-495.12 327.11,-489.06 331.6,-484.15"/>
<polygon fill="black" stroke="black" points="333.05,-485.16 335.19,-480.32 330.49,-482.77 333.05,-485.16"/>
<text text-anchor="middle" x="325.54" y="-504.87" font-family="Times,serif" font-size="14.00">π₁</text>
</g>
<!-- n3 -->
<g id="node3" class="node">
<title>n3</title>
<ellipse fill="none" stroke="black" cx="238.04" cy="-1164.76" rx="25.41" ry="10.71"/>
<text text-anchor="middle" x="238.04" y="-1161.06" font-family="Times,serif" font-size="14.00">n:ΩC</text>
</g>
<!-- n31 -->
<g id="node31" class="node">
<title>n31</title>
<polygon fill="none" stroke="black" points="71.54,-1091 16.54,-1091 16.54,-1076 71.54,-1076 71.54,-1091"/>
<text text-anchor="middle" x="44.04" y="-1079.8" font-family="Times,serif" font-size="14.00">ΩC×ΩL</text>
</g>
<!-- n3&#45;&gt;n31 -->
<g id="edge15" class="edge">
<title>n3&#45;&gt;n31</title>
<path fill="none" stroke="black" stroke-dasharray="5,2" d="M220.83,-1156.72C185.24,-1142.19 103.68,-1108.87 65.06,-1093.09"/>
<polygon fill="black" stroke="black" points="65.41,-1091.34 60.12,-1091.07 64.09,-1094.58 65.41,-1091.34"/>
<text text-anchor="middle" x="177.54" y="-1121.84" font-family="Times,serif" font-size="14.00">π₁</text>
</g>
<!-- n39 -->
<g id="node39" class="node">
<title>n39</title>
<polygon fill="none" stroke="black" points="269.04,-934.71 215.04,-934.71 215.04,-919.71 269.04,-919.71 269.04,-934.71"/>
<text text-anchor="middle" x="242.04" y="-923.51" font-family="Times,serif" font-size="14.00">Ω•×ΩC</text>
</g>
<!-- n3&#45;&gt;n39 -->
<g id="edge40" class="edge">
<title>n3&#45;&gt;n39</title>
<path fill="none" stroke="black" stroke-dasharray="5,2" d="M238.21,-1153.94C238.85,-1116.26 241.14,-981.03 241.84,-940.06"/>
<polygon fill="black" stroke="black" points="243.6,-939.75 241.93,-934.72 240.1,-939.69 243.6,-939.75"/>
<text text-anchor="middle" x="248.54" y="-1040.87" font-family="Times,serif" font-size="14.00">π₂</text>
</g>
<!-- n42 -->
<g id="node42" class="node">
<title>n42</title>
<ellipse fill="none" stroke="black" cx="376.04" cy="-927.21" rx="13.37" ry="13.37"/>
<text text-anchor="middle" x="376.04" y="-923.51" font-family="Times,serif" font-size="14.00">Σ1</text>
</g>
<!-- n3&#45;&gt;n42 -->
<g id="edge50" class="edge">
<title>n3&#45;&gt;n42</title>
<path fill="none" stroke="black" stroke-dasharray="5,2" d="M243.75,-1154.26C246.75,-1149.03 250.35,-1142.36 253.04,-1136.15 278.83,-1076.73 263.64,-1052.1 299.04,-997.85 315.66,-972.39 343.82,-950.24 361.09,-938.1"/>
<polygon fill="black" stroke="black" points="362.11,-939.51 365.23,-935.23 360.12,-936.64 362.11,-939.51"/>
</g>
<!-- n43 -->
<g id="node43" class="node">
<title>n43</title>
<ellipse fill="none" stroke="black" cx="190.04" cy="-1083.5" rx="13.37" ry="13.37"/>
<text text-anchor="middle" x="190.04" y="-1079.8" font-family="Times,serif" font-size="14.00">Σ2</text>
</g>
<!-- n3&#45;&gt;n43 -->
<g id="edge52" class="edge">
<title>n3&#45;&gt;n43</title>
<path fill="none" stroke="black" stroke-dasharray="5,2" d="M232.35,-1154.36C224.18,-1140.86 209.03,-1115.86 199.25,-1099.72"/>
<polygon fill="black" stroke="black" points="200.74,-1098.78 196.65,-1095.41 197.74,-1100.6 200.74,-1098.78"/>
</g>
<!-- n30 -->
<g id="node30" class="node">
<title>n30</title>
</g>
<!-- n4&#45;&gt;n30 -->
<g id="edge6" class="edge">
<title>n4&#45;&gt;n30</title>
<path fill="none" stroke="black" d="M436.04,-40.97C436.04,-31.46 436.04,-17.21 436.04,-9.14"/>
<polygon fill="black" stroke="black" points="437.79,-9.06 436.04,-4.06 434.29,-9.06 437.79,-9.06"/>
</g>
<!-- n5 -->
<g id="node5" class="node">
<title>n5</title>
<ellipse fill="none" stroke="black" cx="351.04" cy="-262.03" rx="24.08" ry="10.71"/>
<text text-anchor="middle" x="351.04" y="-258.33" font-family="Times,serif" font-size="14.00">1:Ω•</text>
</g>
<!-- n36 -->
<g id="node36" class="node">
<title>n36</title>
<polygon fill="none" stroke="black" points="431.04,-200.43 379.04,-200.43 379.04,-185.43 431.04,-185.43 431.04,-200.43"/>
<text text-anchor="middle" x="405.04" y="-189.23" font-family="Times,serif" font-size="14.00">Ω•×Ω•</text>
</g>
<!-- n5&#45;&gt;n36 -->
<g id="edge30" class="edge">
<title>n5&#45;&gt;n36</title>
<path fill="none" stroke="black" stroke-dasharray="5,2" d="M355.56,-251.29C360.02,-242.24 367.42,-228.66 376.04,-218.43 380.55,-213.07 386.31,-207.94 391.51,-203.77"/>
<polygon fill="black" stroke="black" points="392.83,-204.96 395.71,-200.51 390.68,-202.2 392.83,-204.96"/>
<text text-anchor="middle" x="383.54" y="-222.23" font-family="Times,serif" font-size="14.00">π₁</text>
</g>
<!-- n6 -->
<g id="node6" class="node">
<title>n6</title>
<ellipse fill="none" stroke="black" cx="409.04" cy="-123.82" rx="24.08" ry="10.71"/>
<text text-anchor="middle" x="409.04" y="-120.12" font-family="Times,serif" font-size="14.00">2:Ω•</text>
</g>
<!-- n6&#45;&gt;n4 -->
<g id="edge14" class="edge">
<title>n6&#45;&gt;n4</title>
<path fill="none" stroke="black" d="M408.01,-112.94C407.47,-104.04 407.67,-90.76 412.04,-80.21 414.35,-74.64 418.25,-69.41 422.24,-65.03"/>
<polygon fill="black" stroke="black" points="423.67,-66.06 425.88,-61.25 421.15,-63.63 423.67,-66.06"/>
<text text-anchor="middle" x="430.54" y="-84.01" font-family="Times,serif" font-size="14.00">⋆⋅d⋅⋆</text>
</g>
<!-- n7&#45;&gt;n34 -->
<g id="edge25" class="edge">
<title>n7&#45;&gt;n34</title>
<path fill="none" stroke="black" stroke-dasharray="5,2" d="M349.38,-723.57C348.49,-709.47 347.04,-682.88 347.04,-660.21 347.04,-660.21 347.04,-660.21 347.04,-543.67 347.04,-523.14 344.89,-499.32 343.41,-485.37"/>
<polygon fill="black" stroke="black" points="345.11,-484.81 342.82,-480.03 341.63,-485.19 345.11,-484.81"/>
<text text-anchor="middle" x="354.54" y="-619.4" font-family="Times,serif" font-size="14.00">π₂</text>
</g>
<!-- n8 -->
<g id="node8" class="node">
<title>n8</title>
<ellipse fill="none" stroke="black" cx="270.04" cy="-400.25" rx="29.9" ry="10.71"/>
<text text-anchor="middle" x="270.04" y="-396.55" font-family="Times,serif" font-size="14.00">•2:Ω•</text>
</g>
<!-- n35 -->
<g id="node35" class="node">
<title>n35</title>
<polygon fill="none" stroke="black" points="368.04,-338.64 316.04,-338.64 316.04,-323.64 368.04,-323.64 368.04,-338.64"/>
<text text-anchor="middle" x="342.04" y="-327.44" font-family="Times,serif" font-size="14.00">Ω•×Ω•</text>
</g>
<!-- n8&#45;&gt;n35 -->
<g id="edge28" class="edge">
<title>n8&#45;&gt;n35</title>
<path fill="none" stroke="black" stroke-dasharray="5,2" d="M279.75,-390.2C293.08,-377.77 317,-355.48 331,-342.44"/>
<polygon fill="black" stroke="black" points="332.2,-343.7 334.66,-339.02 329.81,-341.14 332.2,-343.7"/>
<text text-anchor="middle" x="321.54" y="-360.44" font-family="Times,serif" font-size="14.00">π₂</text>
</g>
<!-- n9 -->
<g id="node9" class="node">
<title>n9</title>
<ellipse fill="none" stroke="black" cx="265.04" cy="-472.46" rx="29.9" ry="10.71"/>
<text text-anchor="middle" x="265.04" y="-468.76" font-family="Times,serif" font-size="14.00">•3:Ω•</text>
</g>
<!-- n9&#45;&gt;n8 -->
<g id="edge12" class="edge">
<title>n9&#45;&gt;n8</title>
<path fill="none" stroke="black" d="M265.74,-461.7C266.58,-449.85 268.01,-429.77 268.99,-416.03"/>
<polygon fill="black" stroke="black" points="270.74,-416.04 269.35,-410.93 267.25,-415.79 270.74,-416.04"/>
<text text-anchor="middle" x="285.54" y="-432.65" font-family="Times,serif" font-size="14.00">avg₀₁</text>
</g>
<!-- n10 -->
<g id="node10" class="node">
<title>n10</title>
<ellipse fill="none" stroke="black" cx="281.04" cy="-623.1" rx="29.9" ry="10.71"/>
<text text-anchor="middle" x="281.04" y="-619.4" font-family="Times,serif" font-size="14.00">•4:Ω•</text>
</g>
<!-- n32 -->
<g id="node32" class="node">
<title>n32</title>
<polygon fill="none" stroke="black" points="257.04,-552.17 205.04,-552.17 205.04,-537.17 257.04,-537.17 257.04,-552.17"/>
<text text-anchor="middle" x="231.04" y="-540.97" font-family="Times,serif" font-size="14.00">Ω•×Ω•</text>
</g>
<!-- n10&#45;&gt;n32 -->
<g id="edge18" class="edge">
<title>n10&#45;&gt;n32</title>
<path fill="none" stroke="black" stroke-dasharray="5,2" d="M274.71,-612.42C265.37,-598.15 247.97,-571.55 238.19,-556.6"/>
<polygon fill="black" stroke="black" points="239.62,-555.58 235.42,-552.36 236.69,-557.5 239.62,-555.58"/>
<text text-anchor="middle" x="268.54" y="-580.19" font-family="Times,serif" font-size="14.00">π₁</text>
</g>
<!-- n11 -->
<g id="node11" class="node">
<title>n11</title>
<ellipse fill="none" stroke="black" cx="289.04" cy="-695.31" rx="29.9" ry="10.71"/>
<text text-anchor="middle" x="289.04" y="-691.61" font-family="Times,serif" font-size="14.00">•5:Ω•</text>
</g>
<!-- n11&#45;&gt;n10 -->
<g id="edge11" class="edge">
<title>n11&#45;&gt;n10</title>
<path fill="none" stroke="black" d="M287.93,-684.55C286.58,-672.71 284.29,-652.63 282.73,-638.88"/>
<polygon fill="black" stroke="black" points="284.45,-638.55 282.14,-633.78 280.97,-638.94 284.45,-638.55"/>
<text text-anchor="middle" x="300.54" y="-655.51" font-family="Times,serif" font-size="14.00">mag</text>
</g>
<!-- n12&#45;&gt;n11 -->
<g id="edge10" class="edge">
<title>n12&#45;&gt;n11</title>
<path fill="none" stroke="black" d="M290.79,-763.06C290.45,-750.04 289.84,-726.75 289.44,-711.41"/>
<polygon fill="black" stroke="black" points="291.18,-711.11 289.3,-706.15 287.68,-711.2 291.18,-711.11"/>
<text text-anchor="middle" x="293.54" y="-730.83" font-family="Times,serif" font-size="14.00">♯</text>
</g>
<!-- n13 -->
<g id="node13" class="node">
<title>n13</title>
<ellipse fill="none" stroke="black" cx="46.04" cy="-969.25" rx="29.9" ry="10.71"/>
<text text-anchor="middle" x="46.04" y="-965.55" font-family="Times,serif" font-size="14.00">•7:Ω•</text>
</g>
<!-- n13&#45;&gt;n32 -->
<g id="edge19" class="edge">
<title>n13&#45;&gt;n32</title>
<path fill="none" stroke="black" stroke-dasharray="5,2" d="M47.86,-958.56C50.49,-943.71 55.04,-914.39 55.04,-889.27 55.04,-889.27 55.04,-889.27 55.04,-622.1 55.04,-559.78 149.03,-547.73 199.64,-545.76"/>
<polygon fill="black" stroke="black" points="199.75,-547.5 204.69,-545.59 199.64,-544.01 199.75,-547.5"/>
<text text-anchor="middle" x="62.54" y="-770.04" font-family="Times,serif" font-size="14.00">π₂</text>
</g>
<!-- n14 -->
<g id="node14" class="node">
<title>n14</title>
<ellipse fill="none" stroke="black" cx="24.04" cy="-1164.76" rx="24.08" ry="10.71"/>
<text text-anchor="middle" x="24.04" y="-1161.06" font-family="Times,serif" font-size="14.00">1:ΩL</text>
</g>
<!-- n14&#45;&gt;n31 -->
<g id="edge16" class="edge">
<title>n14&#45;&gt;n31</title>
<path fill="none" stroke="black" stroke-dasharray="5,2" d="M20.99,-1154.11C18.33,-1144.05 15.53,-1127.95 20.04,-1114.94 22.64,-1107.44 27.94,-1100.39 32.9,-1094.97"/>
<polygon fill="black" stroke="black" points="34.36,-1095.97 36.57,-1091.16 31.84,-1093.54 34.36,-1095.97"/>
<text text-anchor="middle" x="27.54" y="-1121.84" font-family="Times,serif" font-size="14.00">π₂</text>
</g>
<!-- n15 -->
<g id="node15" class="node">
<title>n15</title>
<ellipse fill="none" stroke="black" cx="405.04" cy="-583.89" rx="29.9" ry="10.71"/>
<text text-anchor="middle" x="405.04" y="-580.19" font-family="Times,serif" font-size="14.00">•8:Ω•</text>
</g>
<!-- n15&#45;&gt;n36 -->
<g id="edge31" class="edge">
<title>n15&#45;&gt;n36</title>
<path fill="none" stroke="black" stroke-dasharray="5,2" d="M405.04,-572.92C405.04,-558.82 405.04,-532.22 405.04,-509.57 405.04,-509.57 405.04,-509.57 405.04,-261.03 405.04,-241.66 405.04,-219.15 405.04,-205.75"/>
<polygon fill="black" stroke="black" points="406.79,-205.59 405.04,-200.59 403.29,-205.59 406.79,-205.59"/>
<text text-anchor="middle" x="412.54" y="-396.55" font-family="Times,serif" font-size="14.00">π₂</text>
</g>
<!-- n16 -->
<g id="node16" class="node">
<title>n16</title>
<ellipse fill="none" stroke="black" cx="405.04" cy="-695.31" rx="29.9" ry="10.71"/>
<text text-anchor="middle" x="405.04" y="-691.61" font-family="Times,serif" font-size="14.00">•9:Ω•</text>
</g>
<!-- n16&#45;&gt;n15 -->
<g id="edge13" class="edge">
<title>n16&#45;&gt;n15</title>
<path fill="none" stroke="black" d="M405.04,-684.6C405.04,-665.43 405.04,-622.59 405.04,-599.8"/>
<polygon fill="black" stroke="black" points="406.79,-599.73 405.04,-594.73 403.29,-599.73 406.79,-599.73"/>
<text text-anchor="middle" x="423.54" y="-655.51" font-family="Times,serif" font-size="14.00">avg₀₁</text>
</g>
<!-- n17 -->
<g id="node17" class="node">
<title>n17</title>
<ellipse fill="none" stroke="black" cx="410.04" cy="-1008.46" rx="24.08" ry="10.71"/>
<text text-anchor="middle" x="410.04" y="-1004.76" font-family="Times,serif" font-size="14.00">2:ΩL</text>
</g>
<!-- n17&#45;&gt;n42 -->
<g id="edge51" class="edge">
<title>n17&#45;&gt;n42</title>
<path fill="none" stroke="black" stroke-dasharray="5,2" d="M405.87,-997.74C400.18,-984.48 389.91,-960.54 383.03,-944.51"/>
<polygon fill="black" stroke="black" points="384.6,-943.71 381.02,-939.81 381.38,-945.09 384.6,-943.71"/>
</g>
<!-- n18 -->
<g id="node18" class="node">
<title>n18</title>
<ellipse fill="none" stroke="black" cx="376.04" cy="-852.17" rx="24.08" ry="10.71"/>
<text text-anchor="middle" x="376.04" y="-848.47" font-family="Times,serif" font-size="14.00">1:Ω•</text>
</g>
<!-- n18&#45;&gt;n33 -->
<g id="edge22" class="edge">
<title>n18&#45;&gt;n33</title>
<path fill="none" stroke="black" stroke-dasharray="5,2" d="M379.22,-841.36C382.48,-831.45 387.81,-815.72 393.04,-802.35 395.15,-796.94 397.69,-791.03 399.89,-786.08"/>
<polygon fill="black" stroke="black" points="401.49,-786.77 401.94,-781.49 398.3,-785.34 401.49,-786.77"/>
<text text-anchor="middle" x="400.54" y="-809.25" font-family="Times,serif" font-size="14.00">π₂</text>
</g>
<!-- n19 -->
<g id="node19" class="node">
<title>n19</title>
<ellipse fill="none" stroke="black" cx="342.04" cy="-400.25" rx="24.08" ry="10.71"/>
<text text-anchor="middle" x="342.04" y="-396.55" font-family="Times,serif" font-size="14.00">3:Ω•</text>
</g>
<!-- n19&#45;&gt;n35 -->
<g id="edge27" class="edge">
<title>n19&#45;&gt;n35</title>
<path fill="none" stroke="black" stroke-dasharray="5,2" d="M342.04,-389.63C342.04,-377.58 342.04,-356.94 342.04,-343.94"/>
<polygon fill="black" stroke="black" points="343.79,-343.89 342.04,-338.89 340.29,-343.89 343.79,-343.89"/>
<text text-anchor="middle" x="349.54" y="-360.44" font-family="Times,serif" font-size="14.00">π₁</text>
</g>
<!-- n20 -->
<g id="node20" class="node">
<title>n20</title>
<ellipse fill="none" stroke="black" cx="70.04" cy="-1125.54" rx="26.33" ry="10.71"/>
<text text-anchor="middle" x="70.04" y="-1121.84" font-family="Times,serif" font-size="14.00">A:ΩC</text>
</g>
<!-- n40 -->
<g id="node40" class="node">
<title>n40</title>
<polygon fill="none" stroke="black" points="189.04,-781.24 135.04,-781.24 135.04,-766.24 189.04,-766.24 189.04,-781.24"/>
<text text-anchor="middle" x="162.04" y="-770.04" font-family="Times,serif" font-size="14.00">Ω•×ΩC</text>
</g>
<!-- n20&#45;&gt;n40 -->
<g id="edge43" class="edge">
<title>n20&#45;&gt;n40</title>
<path fill="none" stroke="black" stroke-dasharray="5,2" d="M76.4,-1114.78C85.21,-1100.29 100.04,-1071.97 100.04,-1045.57 100.04,-1045.57 100.04,-1045.57 100.04,-851.17 100.04,-821.55 128.46,-797.01 146.82,-784.24"/>
<polygon fill="black" stroke="black" points="148.08,-785.5 151.24,-781.25 146.12,-782.6 148.08,-785.5"/>
<text text-anchor="middle" x="107.54" y="-965.55" font-family="Times,serif" font-size="14.00">π₂</text>
</g>
<!-- n21 -->
<g id="node21" class="node">
<title>n21</title>
<ellipse fill="none" stroke="black" cx="375.04" cy="-1164.76" rx="25" ry="10.71"/>
<text text-anchor="middle" x="375.04" y="-1161.06" font-family="Times,serif" font-size="14.00">ρ:ΩC</text>
</g>
<!-- n38 -->
<g id="node38" class="node">
<title>n38</title>
<polygon fill="none" stroke="black" points="366.04,-1091 310.04,-1091 310.04,-1076 366.04,-1076 366.04,-1091"/>
<text text-anchor="middle" x="338.04" y="-1079.8" font-family="Times,serif" font-size="14.00">ΩC×ΩC</text>
</g>
<!-- n21&#45;&gt;n38 -->
<g id="edge36" class="edge">
<title>n21&#45;&gt;n38</title>
<path fill="none" stroke="black" stroke-dasharray="5,2" d="M370.5,-1154.04C363.64,-1139.33 350.64,-1111.49 343.35,-1095.87"/>
<polygon fill="black" stroke="black" points="344.81,-1094.86 341.11,-1091.07 341.64,-1096.34 344.81,-1094.86"/>
<text text-anchor="middle" x="368.54" y="-1121.84" font-family="Times,serif" font-size="14.00">π₁</text>
</g>
<!-- n22 -->
<g id="node22" class="node">
<title>n22</title>
<ellipse fill="none" stroke="black" cx="307.04" cy="-1164.76" rx="25.41" ry="10.71"/>
<text text-anchor="middle" x="307.04" y="-1161.06" font-family="Times,serif" font-size="14.00">g:ΩC</text>
</g>
<!-- n22&#45;&gt;n38 -->
<g id="edge37" class="edge">
<title>n22&#45;&gt;n38</title>
<path fill="none" stroke="black" stroke-dasharray="5,2" d="M310.84,-1154.04C316.6,-1139.33 327.49,-1111.49 333.6,-1095.87"/>
<polygon fill="black" stroke="black" points="335.28,-1096.37 335.47,-1091.07 332.02,-1095.09 335.28,-1096.37"/>
<text text-anchor="middle" x="332.54" y="-1121.84" font-family="Times,serif" font-size="14.00">π₂</text>
</g>
<!-- n23 -->
<g id="node23" class="node">
<title>n23</title>
<ellipse fill="none" stroke="black" cx="162.04" cy="-852.17" rx="29.9" ry="10.71"/>
<text text-anchor="middle" x="162.04" y="-848.47" font-family="Times,serif" font-size="14.00">•1:Ω•</text>
</g>
<!-- n23&#45;&gt;n40 -->
<g id="edge42" class="edge">
<title>n23&#45;&gt;n40</title>
<path fill="none" stroke="black" stroke-dasharray="5,2" d="M162.04,-841.49C162.04,-827.46 162.04,-801.53 162.04,-786.45"/>
<polygon fill="black" stroke="black" points="163.79,-786.42 162.04,-781.42 160.29,-786.42 163.79,-786.42"/>
<text text-anchor="middle" x="169.54" y="-809.25" font-family="Times,serif" font-size="14.00">π₁</text>
</g>
<!-- n24 -->
<g id="node24" class="node">
<title>n24</title>
<ellipse fill="none" stroke="black" cx="166.04" cy="-1164.76" rx="24.08" ry="10.71"/>
<text text-anchor="middle" x="166.04" y="-1161.06" font-family="Times,serif" font-size="14.00">2:ΩL</text>
</g>
<!-- n37 -->
<g id="node37" class="node">
<title>n37</title>
<polygon fill="none" stroke="black" points="188.04,-934.71 136.04,-934.71 136.04,-919.71 188.04,-919.71 188.04,-934.71"/>
<text text-anchor="middle" x="162.04" y="-923.51" font-family="Times,serif" font-size="14.00">ΩL×Ω•</text>
</g>
<!-- n24&#45;&gt;n37 -->
<g id="edge33" class="edge">
<title>n24&#45;&gt;n37</title>
<path fill="none" stroke="black" stroke-dasharray="5,2" d="M164.9,-1154.04C162.04,-1128.48 154.91,-1057.24 157.04,-997.85 157.77,-977.5 159.7,-953.87 160.93,-940.02"/>
<polygon fill="black" stroke="black" points="162.71,-939.87 161.42,-934.73 159.22,-939.55 162.71,-939.87"/>
<text text-anchor="middle" x="165.54" y="-1040.87" font-family="Times,serif" font-size="14.00">π₁</text>
</g>
<!-- n24&#45;&gt;n43 -->
<g id="edge53" class="edge">
<title>n24&#45;&gt;n43</title>
<path fill="none" stroke="black" stroke-dasharray="5,2" d="M168.98,-1154.04C172.92,-1141.04 179.96,-1117.78 184.81,-1101.77"/>
<polygon fill="black" stroke="black" points="186.59,-1101.93 186.37,-1096.64 183.24,-1100.92 186.59,-1101.93"/>
</g>
<!-- n25 -->
<g id="node25" class="node">
<title>n25</title>
<ellipse fill="none" stroke="black" cx="190.04" cy="-1008.46" rx="24.08" ry="10.71"/>
<text text-anchor="middle" x="190.04" y="-1004.76" font-family="Times,serif" font-size="14.00">1:Ω•</text>
</g>
<!-- n25&#45;&gt;n37 -->
<g id="edge34" class="edge">
<title>n25&#45;&gt;n37</title>
<path fill="none" stroke="black" stroke-dasharray="5,2" d="M186.61,-997.74C181.41,-983.04 171.58,-955.19 166.06,-939.57"/>
<polygon fill="black" stroke="black" points="167.68,-938.91 164.36,-934.78 164.38,-940.07 167.68,-938.91"/>
<text text-anchor="middle" x="188.54" y="-965.55" font-family="Times,serif" font-size="14.00">π₂</text>
</g>
<!-- n26 -->
<g id="node26" class="node">
<title>n26</title>
<ellipse fill="none" stroke="black" cx="233.04" cy="-812.95" rx="29.9" ry="10.71"/>
<text text-anchor="middle" x="233.04" y="-809.25" font-family="Times,serif" font-size="14.00">•2:Ω•</text>
</g>
<!-- n41 -->
<g id="node41" class="node">
<title>n41</title>
<polygon fill="none" stroke="black" points="233.04,-630.6 181.04,-630.6 181.04,-615.6 233.04,-615.6 233.04,-630.6"/>
<text text-anchor="middle" x="207.04" y="-619.4" font-family="Times,serif" font-size="14.00">Ω•×Ω•</text>
</g>
<!-- n26&#45;&gt;n41 -->
<g id="edge46" class="edge">
<title>n26&#45;&gt;n41</title>
<path fill="none" stroke="black" stroke-dasharray="5,2" d="M232.52,-802.11C231.06,-776.89 226.27,-707.99 215.04,-651.71 213.98,-646.39 212.38,-640.61 210.89,-635.72"/>
<polygon fill="black" stroke="black" points="212.52,-635.07 209.34,-630.83 209.18,-636.12 212.52,-635.07"/>
<text text-anchor="middle" x="235.54" y="-730.83" font-family="Times,serif" font-size="14.00">π₂</text>
</g>
<!-- n27 -->
<g id="node27" class="node">
<title>n27</title>
<ellipse fill="none" stroke="black" cx="338.04" cy="-1008.46" rx="29.9" ry="10.71"/>
<text text-anchor="middle" x="338.04" y="-1004.76" font-family="Times,serif" font-size="14.00">•3:Ω•</text>
</g>
<!-- n27&#45;&gt;n39 -->
<g id="edge39" class="edge">
<title>n27&#45;&gt;n39</title>
<path fill="none" stroke="black" stroke-dasharray="5,2" d="M327.03,-998.37C308.9,-983.4 272.9,-953.68 254.1,-938.16"/>
<polygon fill="black" stroke="black" points="255.12,-936.73 250.15,-934.9 252.89,-939.43 255.12,-936.73"/>
<text text-anchor="middle" x="311.54" y="-965.55" font-family="Times,serif" font-size="14.00">π₁</text>
</g>
<!-- n28 -->
<g id="node28" class="node">
<title>n28</title>
<ellipse fill="none" stroke="black" cx="178.04" cy="-695.31" rx="24.08" ry="10.71"/>
<text text-anchor="middle" x="178.04" y="-691.61" font-family="Times,serif" font-size="14.00">1:Ω•</text>
</g>
<!-- n28&#45;&gt;n41 -->
<g id="edge45" class="edge">
<title>n28&#45;&gt;n41</title>
<path fill="none" stroke="black" stroke-dasharray="5,2" d="M181.95,-684.84C187.19,-672.15 196.49,-649.64 202.18,-635.87"/>
<polygon fill="black" stroke="black" points="203.94,-636.18 204.23,-630.9 200.71,-634.85 203.94,-636.18"/>
<text text-anchor="middle" x="203.54" y="-655.51" font-family="Times,serif" font-size="14.00">π₁</text>
</g>
<!-- n29 -->
<g id="node29" class="node">
<title>n29</title>
</g>
<!-- n29&#45;&gt;n1 -->
<g id="edge1" class="edge">
<title>n29&#45;&gt;n1</title>
<path fill="none" stroke="black" d="M309.23,-1213.19C328.07,-1211.62 462.04,-1199.26 462.04,-1165.76 462.04,-1165.76 462.04,-1165.76 462.04,-926.21 462.04,-905.03 453.46,-881.81 447.01,-867.36"/>
<polygon fill="black" stroke="black" points="448.6,-866.62 444.92,-862.81 445.42,-868.08 448.6,-866.62"/>
</g>
<!-- n29&#45;&gt;n3 -->
<g id="edge2" class="edge">
<title>n29&#45;&gt;n3</title>
<path fill="none" stroke="black" d="M305.34,-1212.19C298.45,-1207.44 272.22,-1189.34 254.61,-1177.19"/>
<polygon fill="black" stroke="black" points="255.45,-1175.64 250.34,-1174.24 253.46,-1178.52 255.45,-1175.64"/>
</g>
<!-- n29&#45;&gt;n20 -->
<g id="edge3" class="edge">
<title>n29&#45;&gt;n20</title>
<path fill="none" stroke="black" d="M304.86,-1213.25C289.69,-1212.38 198.59,-1206 133.04,-1175.36 113.67,-1166.31 94.73,-1150.4 82.76,-1139.21"/>
<polygon fill="black" stroke="black" points="83.8,-1137.79 78.97,-1135.61 81.39,-1140.32 83.8,-1137.79"/>
</g>
<!-- n29&#45;&gt;n21 -->
<g id="edge4" class="edge">
<title>n29&#45;&gt;n21</title>
<path fill="none" stroke="black" d="M308.72,-1212.19C315.51,-1207.44 341.36,-1189.34 358.71,-1177.19"/>
<polygon fill="black" stroke="black" points="359.83,-1178.54 362.92,-1174.24 357.82,-1175.68 359.83,-1178.54"/>
</g>
<!-- n29&#45;&gt;n22 -->
<g id="edge5" class="edge">
<title>n29&#45;&gt;n22</title>
<path fill="none" stroke="black" d="M307.04,-1212.19C307.04,-1207.87 307.04,-1192.51 307.04,-1180.63"/>
<polygon fill="black" stroke="black" points="308.79,-1180.46 307.04,-1175.46 305.29,-1180.46 308.79,-1180.46"/>
</g>
<!-- n31&#45;&gt;n13 -->
<g id="edge17" class="edge">
<title>n31&#45;&gt;n13</title>
<path fill="none" stroke="black" d="M44.16,-1075.82C44.48,-1058.18 45.33,-1010.04 45.77,-985.33"/>
<polygon fill="black" stroke="black" points="47.53,-985.18 45.87,-980.15 44.03,-985.11 47.53,-985.18"/>
<text text-anchor="middle" x="47.54" y="-1040.87" font-family="Times,serif" font-size="14.00">&#45;</text>
</g>
<!-- n32&#45;&gt;n9 -->
<g id="edge20" class="edge">
<title>n32&#45;&gt;n9</title>
<path fill="none" stroke="black" d="M234.3,-536.94C239.74,-525.72 250.77,-502.93 258.03,-487.93"/>
<polygon fill="black" stroke="black" points="259.73,-488.44 260.34,-483.17 256.58,-486.91 259.73,-488.44"/>
<text text-anchor="middle" x="258.54" y="-504.87" font-family="Times,serif" font-size="14.00">^</text>
</g>
<!-- n33&#45;&gt;n16 -->
<g id="edge23" class="edge">
<title>n33&#45;&gt;n16</title>
<path fill="none" stroke="black" d="M405.04,-766.22C405.04,-754.16 405.04,-728.05 405.04,-711.38"/>
<polygon fill="black" stroke="black" points="406.79,-711.12 405.04,-706.12 403.29,-711.12 406.79,-711.12"/>
<text text-anchor="middle" x="411.54" y="-730.83" font-family="Times,serif" font-size="14.00">^</text>
</g>
<!-- n34&#45;&gt;n19 -->
<g id="edge26" class="edge">
<title>n34&#45;&gt;n19</title>
<path fill="none" stroke="black" d="M342.04,-464.73C342.04,-453.6 342.04,-431.11 342.04,-416.11"/>
<polygon fill="black" stroke="black" points="343.79,-415.96 342.04,-410.96 340.29,-415.96 343.79,-415.96"/>
<text text-anchor="middle" x="345.54" y="-432.65" font-family="Times,serif" font-size="14.00">*</text>
</g>
<!-- n35&#45;&gt;n5 -->
<g id="edge29" class="edge">
<title>n35&#45;&gt;n5</title>
<path fill="none" stroke="black" d="M342.94,-323.46C344.35,-312.92 347.13,-292.19 349.04,-277.97"/>
<polygon fill="black" stroke="black" points="350.82,-277.88 349.75,-272.69 347.35,-277.42 350.82,-277.88"/>
<text text-anchor="middle" x="350.54" y="-294.44" font-family="Times,serif" font-size="14.00">*</text>
</g>
<!-- n36&#45;&gt;n6 -->
<g id="edge32" class="edge">
<title>n36&#45;&gt;n6</title>
<path fill="none" stroke="black" d="M405.44,-185.25C406.07,-174.71 407.3,-153.97 408.15,-139.76"/>
<polygon fill="black" stroke="black" points="409.92,-139.57 408.47,-134.48 406.42,-139.37 409.92,-139.57"/>
<text text-anchor="middle" x="410.54" y="-156.23" font-family="Times,serif" font-size="14.00">*</text>
</g>
<!-- n37&#45;&gt;n23 -->
<g id="edge35" class="edge">
<title>n37&#45;&gt;n23</title>
<path fill="none" stroke="black" d="M162.04,-919.47C162.04,-907.89 162.04,-883.97 162.04,-868.25"/>
<polygon fill="black" stroke="black" points="163.79,-867.86 162.04,-862.86 160.29,-867.86 163.79,-867.86"/>
<text text-anchor="middle" x="164.54" y="-884.57" font-family="Times,serif" font-size="14.00">/</text>
</g>
<!-- n38&#45;&gt;n27 -->
<g id="edge38" class="edge">
<title>n38&#45;&gt;n27</title>
<path fill="none" stroke="black" d="M338.04,-1075.76C338.04,-1064.19 338.04,-1040.26 338.04,-1024.54"/>
<polygon fill="black" stroke="black" points="339.79,-1024.16 338.04,-1019.16 336.29,-1024.16 339.79,-1024.16"/>
<text text-anchor="middle" x="341.54" y="-1040.87" font-family="Times,serif" font-size="14.00">*</text>
</g>
<!-- n39&#45;&gt;n26 -->
<g id="edge41" class="edge">
<title>n39&#45;&gt;n26</title>
<path fill="none" stroke="black" d="M241.51,-919.52C240.09,-901.88 236.23,-853.74 234.25,-829.03"/>
<polygon fill="black" stroke="black" points="235.98,-828.69 233.84,-823.85 232.49,-828.97 235.98,-828.69"/>
<text text-anchor="middle" x="246.54" y="-884.57" font-family="Times,serif" font-size="14.00">^</text>
</g>
<!-- n40&#45;&gt;n28 -->
<g id="edge44" class="edge">
<title>n40&#45;&gt;n28</title>
<path fill="none" stroke="black" d="M163.41,-766.22C165.93,-754.16 171.4,-728.05 174.89,-711.38"/>
<polygon fill="black" stroke="black" points="176.68,-711.38 175.99,-706.12 173.25,-710.66 176.68,-711.38"/>
<text text-anchor="middle" x="175.54" y="-730.83" font-family="Times,serif" font-size="14.00">*</text>
</g>
<!-- n41&#45;&gt;n2 -->
<g id="edge47" class="edge">
<title>n41&#45;&gt;n2</title>
<path fill="none" stroke="black" d="M210.19,-615.28C215.23,-605 225.97,-585.47 240.04,-573.28 250.22,-564.46 263.71,-557.76 275.01,-553.17"/>
<polygon fill="black" stroke="black" points="275.69,-554.79 279.71,-551.33 274.41,-551.53 275.69,-554.79"/>
<text text-anchor="middle" x="243.54" y="-580.19" font-family="Times,serif" font-size="14.00">*</text>
</g>
<!-- n42&#45;&gt;n18 -->
<g id="edge48" class="edge">
<title>n42&#45;&gt;n18</title>
<path fill="none" stroke="black" d="M376.04,-913.48C376.04,-900.89 376.04,-881.62 376.04,-868.27"/>
<polygon fill="black" stroke="black" points="377.79,-867.94 376.04,-862.94 374.29,-867.94 377.79,-867.94"/>
<text text-anchor="middle" x="382.54" y="-884.57" font-family="Times,serif" font-size="14.00">+</text>
</g>
<!-- n43&#45;&gt;n25 -->
<g id="edge49" class="edge">
<title>n43&#45;&gt;n25</title>
<path fill="none" stroke="black" d="M190.04,-1069.78C190.04,-1057.19 190.04,-1037.92 190.04,-1024.56"/>
<polygon fill="black" stroke="black" points="191.79,-1024.24 190.04,-1019.24 188.29,-1024.24 191.79,-1024.24"/>
<text text-anchor="middle" x="196.54" y="-1040.87" font-family="Times,serif" font-size="14.00">+</text>
</g>
</g>
</svg>
